<?xml version="1.0" encoding="utf-8" standalone="no"?>
<!DOCTYPE svg PUBLIC "-//W3C//DTD SVG 1.1//EN"
  "http://www.w3.org/Graphics/SVG/1.1/DTD/svg11.dtd">
<!-- Created with matplotlib (https://matplotlib.org/) -->
<svg height="360pt" version="1.1" viewBox="0 0 576 360" width="576pt" xmlns="http://www.w3.org/2000/svg" xmlns:xlink="http://www.w3.org/1999/xlink">
 <defs>
  <style type="text/css">
*{stroke-linecap:butt;stroke-linejoin:round;}
  </style>
 </defs>
 <g id="figure_1">
  <g id="patch_1">
   <path d="M 0 360
L 576 360
L 576 0
L 0 0
z
" style="fill:#ffffff;"/>
  </g>
  <g id="axes_1">
   <g id="patch_2">
    <path d="M 72 315
L 518.4 315
L 518.4 43.2
L 72 43.2
z
" style="fill:#ffffff;"/>
   </g>
   <g id="PolyCollection_1">
    <defs>
     <path d="M 102.582434 -45.191611
L 93.935213 -45.191611
L 92.113775 -47.804486
L 90.152389 -50.417361
L 88.171187 -53.030237
L 86.228632 -55.643112
L 84.332702 -58.255987
L 82.491873 -60.868863
L 80.761971 -63.481738
L 79.253535 -66.094613
L 78.100057 -68.707489
L 77.413509 -71.320364
L 77.251765 -73.933239
L 77.606856 -76.546115
L 78.412073 -79.15899
L 79.561358 -81.771865
L 80.93204 -84.384741
L 82.403499 -86.997616
L 83.871113 -89.610491
L 85.259773 -92.223367
L 86.536091 -94.836242
L 87.707515 -97.449117
L 88.799059 -100.061993
L 89.821584 -102.674868
L 90.762581 -105.287743
L 91.609354 -107.900618
L 92.373987 -110.513494
L 93.084547 -113.126369
L 93.750037 -115.739244
L 94.342751 -118.35212
L 94.822989 -120.964995
L 95.181447 -123.57787
L 95.455037 -126.190746
L 95.701678 -128.803621
L 95.959998 -131.416496
L 96.228695 -134.029372
L 96.477626 -136.642247
L 96.676476 -139.255122
L 96.817816 -141.867998
L 96.920335 -144.480873
L 97.014423 -147.093748
L 97.123394 -149.706624
L 97.252917 -152.319499
L 97.39271 -154.932374
L 97.526178 -157.545249
L 97.640361 -160.158125
L 97.730489 -162.771
L 97.798721 -165.383875
L 97.850983 -167.996751
L 97.895053 -170.609626
L 97.938773 -173.222501
L 97.98614 -175.835377
L 98.032974 -178.448252
L 98.067099 -181.061127
L 98.075266 -183.674003
L 98.052941 -186.286878
L 98.009706 -188.899753
L 97.965631 -191.512629
L 97.94062 -194.125504
L 97.944496 -196.738379
L 97.974648 -199.351255
L 98.020936 -201.96413
L 98.071903 -204.577005
L 98.11803 -207.18988
L 98.152928 -209.802756
L 98.174593 -212.415631
L 98.18607 -215.028506
L 98.193597 -217.641382
L 98.202638 -220.254257
L 98.2148 -222.867132
L 98.227802 -225.480008
L 98.237731 -228.092883
L 98.24121 -230.705758
L 98.236271 -233.318634
L 98.222576 -235.931509
L 98.201999 -238.544384
L 98.179218 -241.15726
L 98.160959 -243.770135
L 98.15322 -246.38301
L 98.157885 -248.995886
L 98.171269 -251.608761
L 98.18613 -254.221636
L 98.196038 -256.834511
L 98.199129 -259.447387
L 98.198638 -262.060262
L 98.199959 -264.673137
L 98.206629 -267.286013
L 98.218263 -269.898888
L 98.231587 -272.511763
L 98.243102 -275.124639
L 98.251023 -277.737514
L 98.255422 -280.350389
L 98.257238 -282.963265
L 98.257209 -285.57614
L 98.255323 -288.189015
L 98.250824 -290.801891
L 98.242794 -293.414766
L 98.231254 -296.027641
L 98.218205 -298.640517
L 98.207573 -301.253392
L 98.203442 -303.866267
L 98.314205 -303.866267
L 98.314205 -303.866267
L 98.310074 -301.253392
L 98.299442 -298.640517
L 98.286393 -296.027641
L 98.274853 -293.414766
L 98.266823 -290.801891
L 98.262324 -288.189015
L 98.260438 -285.57614
L 98.260409 -282.963265
L 98.262225 -280.350389
L 98.266625 -277.737514
L 98.274545 -275.124639
L 98.28606 -272.511763
L 98.299384 -269.898888
L 98.311018 -267.286013
L 98.317688 -264.673137
L 98.319009 -262.060262
L 98.318518 -259.447387
L 98.321609 -256.834511
L 98.331517 -254.221636
L 98.346378 -251.608761
L 98.359762 -248.995886
L 98.364427 -246.38301
L 98.356688 -243.770135
L 98.338429 -241.15726
L 98.315648 -238.544384
L 98.295071 -235.931509
L 98.281376 -233.318634
L 98.276437 -230.705758
L 98.279916 -228.092883
L 98.289845 -225.480008
L 98.302847 -222.867132
L 98.315009 -220.254257
L 98.32405 -217.641382
L 98.331577 -215.028506
L 98.343055 -212.415631
L 98.364719 -209.802756
L 98.399617 -207.18988
L 98.445744 -204.577005
L 98.496711 -201.96413
L 98.542999 -199.351255
L 98.573151 -196.738379
L 98.577027 -194.125504
L 98.552016 -191.512629
L 98.507941 -188.899753
L 98.464706 -186.286878
L 98.442381 -183.674003
L 98.450549 -181.061127
L 98.484673 -178.448252
L 98.531507 -175.835377
L 98.578874 -173.222501
L 98.622594 -170.609626
L 98.666664 -167.996751
L 98.718926 -165.383875
L 98.787158 -162.771
L 98.877286 -160.158125
L 98.991469 -157.545249
L 99.124937 -154.932374
L 99.26473 -152.319499
L 99.394254 -149.706624
L 99.503224 -147.093748
L 99.597312 -144.480873
L 99.699831 -141.867998
L 99.841171 -139.255122
L 100.040021 -136.642247
L 100.288952 -134.029372
L 100.557649 -131.416496
L 100.815969 -128.803621
L 101.06261 -126.190746
L 101.3362 -123.57787
L 101.694658 -120.964995
L 102.174896 -118.35212
L 102.76761 -115.739244
L 103.4331 -113.126369
L 104.14366 -110.513494
L 104.908294 -107.900618
L 105.755066 -105.287743
L 106.696063 -102.674868
L 107.718588 -100.061993
L 108.810132 -97.449117
L 109.981556 -94.836242
L 111.257874 -92.223367
L 112.646534 -89.610491
L 114.114148 -86.997616
L 115.585607 -84.384741
L 116.956289 -81.771865
L 118.105574 -79.15899
L 118.910791 -76.546115
L 119.265882 -73.933239
L 119.104138 -71.320364
L 118.41759 -68.707489
L 117.264112 -66.094613
L 115.755676 -63.481738
L 114.025774 -60.868863
L 112.184945 -58.255987
L 110.289015 -55.643112
L 108.346461 -53.030237
L 106.365258 -50.417361
L 104.403872 -47.804486
L 102.582434 -45.191611
z
" id="ma8746cb630" style="stroke:#343434;stroke-width:1.5;"/>
    </defs>
    <g clip-path="url(#p6740cb89eb)">
     <use style="fill:#e9f0be;stroke:#343434;stroke-width:1.5;" x="0" xlink:href="#ma8746cb630" y="360"/>
    </g>
   </g>
   <g id="PolyCollection_2">
    <defs>
     <path d="M 153.836463 -47.874163
L 147.716478 -47.874163
L 146.633647 -50.384459
L 145.345655 -52.894754
L 143.852995 -55.40505
L 142.167773 -57.915346
L 140.321335 -60.425642
L 138.370808 -62.935937
L 136.400585 -65.446233
L 134.516406 -67.956529
L 132.832413 -70.466825
L 131.454156 -72.977121
L 130.461995 -75.487416
L 129.89942 -77.997712
L 129.769412 -80.508008
L 130.039332 -83.018304
L 130.65172 -85.528599
L 131.53638 -88.038895
L 132.619471 -90.549191
L 133.828036 -93.059487
L 135.091615 -95.569782
L 136.344196 -98.080078
L 137.528715 -100.590374
L 138.603593 -103.10067
L 139.548563 -105.610965
L 140.366731 -108.121261
L 141.081438 -110.631557
L 141.728584 -113.141853
L 142.346635 -115.652149
L 142.966911 -118.162444
L 143.606373 -120.67274
L 144.264233 -123.183036
L 144.922621 -125.693332
L 145.550844 -128.203627
L 146.112492 -130.713923
L 146.57468 -133.224219
L 146.918153 -135.734515
L 147.145773 -138.24481
L 147.285846 -140.755106
L 147.387352 -143.265402
L 147.50692 -145.775698
L 147.691419 -148.285994
L 147.962932 -150.796289
L 148.312603 -153.306585
L 148.706023 -155.816881
L 149.097381 -158.327177
L 149.445711 -160.837472
L 149.726364 -163.347768
L 149.934171 -165.858064
L 150.079224 -168.36836
L 150.179145 -170.878655
L 150.251873 -173.388951
L 150.311215 -175.899247
L 150.365343 -178.409543
L 150.417345 -180.919838
L 150.466858 -183.430134
L 150.512076 -185.94043
L 150.551573 -188.450726
L 150.585366 -190.961022
L 150.614879 -193.471317
L 150.642022 -195.981613
L 150.668049 -198.491909
L 150.692928 -201.002205
L 150.71549 -203.5125
L 150.734111 -206.022796
L 150.747388 -208.533092
L 150.754472 -211.043388
L 150.755042 -213.553683
L 150.749207 -216.063979
L 150.737557 -218.574275
L 150.721419 -221.084571
L 150.703043 -223.594867
L 150.685381 -226.105162
L 150.671337 -228.615458
L 150.662689 -231.125754
L 150.659288 -233.63605
L 150.659047 -236.146345
L 150.658872 -238.656641
L 150.656063 -241.166937
L 150.649425 -243.677233
L 150.639472 -246.187528
L 150.627744 -248.697824
L 150.615781 -251.20812
L 150.604481 -253.718416
L 150.594186 -256.228712
L 150.585297 -258.739007
L 150.578849 -261.249303
L 150.576586 -263.759599
L 150.580429 -266.269895
L 150.591611 -268.78019
L 150.609907 -271.290486
L 150.633307 -273.800782
L 150.658293 -276.311078
L 150.680648 -278.821373
L 150.696571 -281.331669
L 150.703756 -283.841965
L 150.702125 -286.352261
L 150.693946 -288.862556
L 150.683262 -291.372852
L 150.674706 -293.883148
L 150.672073 -296.393444
L 150.880868 -296.393444
L 150.880868 -296.393444
L 150.878236 -293.883148
L 150.86968 -291.372852
L 150.858995 -288.862556
L 150.850816 -286.352261
L 150.849185 -283.841965
L 150.85637 -281.331669
L 150.872293 -278.821373
L 150.894648 -276.311078
L 150.919634 -273.800782
L 150.943034 -271.290486
L 150.96133 -268.78019
L 150.972512 -266.269895
L 150.976355 -263.759599
L 150.974092 -261.249303
L 150.967644 -258.739007
L 150.958755 -256.228712
L 150.94846 -253.718416
L 150.93716 -251.20812
L 150.925198 -248.697824
L 150.913469 -246.187528
L 150.903516 -243.677233
L 150.896878 -241.166937
L 150.89407 -238.656641
L 150.893894 -236.146345
L 150.893653 -233.63605
L 150.890252 -231.125754
L 150.881605 -228.615458
L 150.86756 -226.105162
L 150.849899 -223.594867
L 150.831522 -221.084571
L 150.815385 -218.574275
L 150.803735 -216.063979
L 150.797899 -213.553683
L 150.79847 -211.043388
L 150.805553 -208.533092
L 150.81883 -206.022796
L 150.837451 -203.5125
L 150.860014 -201.002205
L 150.884892 -198.491909
L 150.910919 -195.981613
L 150.938062 -193.471317
L 150.967575 -190.961022
L 151.001368 -188.450726
L 151.040866 -185.94043
L 151.086083 -183.430134
L 151.135596 -180.919838
L 151.187598 -178.409543
L 151.241726 -175.899247
L 151.301068 -173.388951
L 151.373796 -170.878655
L 151.473717 -168.36836
L 151.618771 -165.858064
L 151.826577 -163.347768
L 152.10723 -160.837472
L 152.45556 -158.327177
L 152.846918 -155.816881
L 153.240338 -153.306585
L 153.590009 -150.796289
L 153.861522 -148.285994
L 154.046021 -145.775698
L 154.165589 -143.265402
L 154.267095 -140.755106
L 154.407168 -138.24481
L 154.634788 -135.734515
L 154.978261 -133.224219
L 155.440449 -130.713923
L 156.002097 -128.203627
L 156.63032 -125.693332
L 157.288709 -123.183036
L 157.946568 -120.67274
L 158.58603 -118.162444
L 159.206306 -115.652149
L 159.824357 -113.141853
L 160.471503 -110.631557
L 161.18621 -108.121261
L 162.004379 -105.610965
L 162.949348 -103.10067
L 164.024226 -100.590374
L 165.208745 -98.080078
L 166.461326 -95.569782
L 167.724905 -93.059487
L 168.93347 -90.549191
L 170.016561 -88.038895
L 170.901221 -85.528599
L 171.51361 -83.018304
L 171.783529 -80.508008
L 171.653521 -77.997712
L 171.090946 -75.487416
L 170.098785 -72.977121
L 168.720528 -70.466825
L 167.036535 -67.956529
L 165.152356 -65.446233
L 163.182133 -62.935937
L 161.231606 -60.425642
L 159.385168 -57.915346
L 157.699946 -55.40505
L 156.207286 -52.894754
L 154.919294 -50.384459
L 153.836463 -47.874163
z
" id="ma493ef6368" style="stroke:#343434;stroke-width:1.5;"/>
    </defs>
    <g clip-path="url(#p6740cb89eb)">
     <use style="fill:#d0e5ba;stroke:#343434;stroke-width:1.5;" x="0" xlink:href="#ma493ef6368" y="360"/>
    </g>
   </g>
   <g id="PolyCollection_3">
    <defs>
     <path d="M 207.375366 -52.281213
L 199.21287 -52.281213
L 198.545012 -53.879905
L 197.825999 -55.478598
L 197.061289 -57.07729
L 196.257343 -58.675983
L 195.421323 -60.274676
L 194.560752 -61.873368
L 193.683186 -63.472061
L 192.795901 -65.070753
L 191.905675 -66.669446
L 191.018659 -68.268139
L 190.140383 -69.866831
L 189.275896 -71.465524
L 188.430024 -73.064216
L 187.607717 -74.662909
L 186.81443 -76.261602
L 186.056474 -77.860294
L 185.341259 -79.458987
L 184.677376 -81.057679
L 184.074474 -82.656372
L 183.542914 -84.255065
L 183.093208 -85.853757
L 182.735313 -87.45245
L 182.477826 -89.051142
L 182.3272 -90.649835
L 182.287059 -92.248528
L 182.357707 -93.84722
L 182.535904 -95.445913
L 182.814941 -97.044605
L 183.185025 -98.643298
L 183.633937 -100.241991
L 184.147894 -101.840683
L 184.712531 -103.439376
L 185.313882 -105.038068
L 185.939261 -106.636761
L 186.577946 -108.235454
L 187.221589 -109.834146
L 187.864334 -111.432839
L 188.502637 -113.031531
L 189.134842 -114.630224
L 189.760596 -116.228917
L 190.380176 -117.827609
L 190.993864 -119.426302
L 191.601413 -121.024994
L 192.2017 -122.623687
L 192.792572 -124.22238
L 193.370896 -125.821072
L 193.932765 -127.419765
L 194.473817 -129.018457
L 194.989604 -130.61715
L 195.475946 -132.215843
L 195.929225 -133.814535
L 196.346597 -135.413228
L 196.726107 -137.01192
L 197.066723 -138.610613
L 197.368309 -140.209306
L 197.631571 -141.807998
L 197.858 -143.406691
L 198.049825 -145.005383
L 198.209992 -146.604076
L 198.342158 -148.202769
L 198.450669 -149.801461
L 198.540521 -151.400154
L 198.617255 -152.998846
L 198.686796 -154.597539
L 198.755208 -156.196232
L 198.828397 -157.794924
L 198.911775 -159.393617
L 199.009926 -160.992309
L 199.126306 -162.591002
L 199.263031 -164.189695
L 199.420752 -165.788387
L 199.598654 -167.38708
L 199.794568 -168.985772
L 200.005171 -170.584465
L 200.226264 -172.183158
L 200.453076 -173.78185
L 200.680579 -175.380543
L 200.903776 -176.979235
L 201.117954 -178.577928
L 201.318878 -180.176621
L 201.50294 -181.775313
L 201.667264 -183.374006
L 201.809774 -184.972698
L 201.929235 -186.571391
L 202.025276 -188.170084
L 202.098393 -189.768776
L 202.149935 -191.367469
L 202.182062 -192.966161
L 202.197668 -194.564854
L 202.200267 -196.163547
L 202.193832 -197.762239
L 202.182597 -199.360932
L 202.170826 -200.959624
L 202.162561 -202.558317
L 202.16138 -204.15701
L 202.170173 -205.755702
L 202.190969 -207.354395
L 202.224829 -208.953087
L 202.271817 -210.55178
L 204.316419 -210.55178
L 204.316419 -210.55178
L 204.363406 -208.953087
L 204.397267 -207.354395
L 204.418062 -205.755702
L 204.426855 -204.15701
L 204.425674 -202.558317
L 204.41741 -200.959624
L 204.405638 -199.360932
L 204.394404 -197.762239
L 204.387968 -196.163547
L 204.390567 -194.564854
L 204.406173 -192.966161
L 204.4383 -191.367469
L 204.489843 -189.768776
L 204.56296 -188.170084
L 204.659 -186.571391
L 204.778461 -184.972698
L 204.920971 -183.374006
L 205.085296 -181.775313
L 205.269358 -180.176621
L 205.470281 -178.577928
L 205.684459 -176.979235
L 205.907657 -175.380543
L 206.135159 -173.78185
L 206.361971 -172.183158
L 206.583064 -170.584465
L 206.793668 -168.985772
L 206.989582 -167.38708
L 207.167484 -165.788387
L 207.325204 -164.189695
L 207.461929 -162.591002
L 207.57831 -160.992309
L 207.67646 -159.393617
L 207.759838 -157.794924
L 207.833028 -156.196232
L 207.90144 -154.597539
L 207.97098 -152.998846
L 208.047715 -151.400154
L 208.137566 -149.801461
L 208.246077 -148.202769
L 208.378243 -146.604076
L 208.538411 -145.005383
L 208.730235 -143.406691
L 208.956664 -141.807998
L 209.219927 -140.209306
L 209.521513 -138.610613
L 209.862128 -137.01192
L 210.241638 -135.413228
L 210.65901 -133.814535
L 211.112289 -132.215843
L 211.598631 -130.61715
L 212.114418 -129.018457
L 212.65547 -127.419765
L 213.217339 -125.821072
L 213.795663 -124.22238
L 214.386535 -122.623687
L 214.986822 -121.024994
L 215.594371 -119.426302
L 216.208059 -117.827609
L 216.82764 -116.228917
L 217.453393 -114.630224
L 218.085599 -113.031531
L 218.723901 -111.432839
L 219.366646 -109.834146
L 220.010289 -108.235454
L 220.648974 -106.636761
L 221.274353 -105.038068
L 221.875704 -103.439376
L 222.440341 -101.840683
L 222.954299 -100.241991
L 223.40321 -98.643298
L 223.773294 -97.044605
L 224.052331 -95.445913
L 224.230528 -93.84722
L 224.301176 -92.248528
L 224.261035 -90.649835
L 224.11041 -89.051142
L 223.852922 -87.45245
L 223.495027 -85.853757
L 223.045322 -84.255065
L 222.513761 -82.656372
L 221.91086 -81.057679
L 221.246976 -79.458987
L 220.531761 -77.860294
L 219.773805 -76.261602
L 218.980519 -74.662909
L 218.158211 -73.064216
L 217.312339 -71.465524
L 216.447852 -69.866831
L 215.569577 -68.268139
L 214.682561 -66.669446
L 213.792335 -65.070753
L 212.90505 -63.472061
L 212.027483 -61.873368
L 211.166913 -60.274676
L 210.330892 -58.675983
L 209.526946 -57.07729
L 208.762236 -55.478598
L 208.043223 -53.879905
L 207.375366 -52.281213
z
" id="m1bf451c8bc" style="stroke:#343434;stroke-width:1.5;"/>
    </defs>
    <g clip-path="url(#p6740cb89eb)">
     <use style="fill:#9fceb8;stroke:#343434;stroke-width:1.5;" x="0" xlink:href="#m1bf451c8bc" y="360"/>
    </g>
   </g>
   <g id="PolyCollection_4">
    <defs>
     <path d="M 259.668179 -49.023828
L 251.95535 -49.023828
L 251.493283 -51.065742
L 250.995931 -53.107655
L 250.461965 -55.149569
L 249.890082 -57.191483
L 249.279109 -59.233396
L 248.628143 -61.27531
L 247.936734 -63.317224
L 247.205091 -65.359137
L 246.434319 -67.401051
L 245.626648 -69.442965
L 244.785656 -71.484878
L 243.916461 -73.526792
L 243.025849 -75.568706
L 242.122333 -77.610619
L 241.216119 -79.652533
L 240.318974 -81.694447
L 239.443973 -83.73636
L 238.605159 -85.778274
L 237.817097 -87.820188
L 237.094356 -89.862101
L 236.450946 -91.904015
L 235.89974 -93.945929
L 235.451905 -95.987842
L 235.116397 -98.029756
L 234.899538 -100.07167
L 234.804706 -102.113583
L 234.832164 -104.155497
L 234.979037 -106.197411
L 235.239437 -108.239325
L 235.604734 -110.281238
L 236.063957 -112.323152
L 236.604292 -114.365066
L 237.21166 -116.406979
L 237.871324 -118.448893
L 238.56851 -120.490807
L 239.288984 -122.53272
L 240.019573 -124.574634
L 240.748594 -126.616548
L 241.466172 -128.658461
L 242.164436 -130.700375
L 242.837597 -132.742289
L 243.481896 -134.784202
L 244.09545 -136.826116
L 244.678008 -138.86803
L 245.230633 -140.909943
L 245.755349 -142.951857
L 246.254766 -144.993771
L 246.731719 -147.035684
L 247.188935 -149.077598
L 247.628758 -151.119512
L 248.052935 -153.161425
L 248.462477 -155.203339
L 248.857602 -157.245253
L 249.237745 -159.287166
L 249.601651 -161.32908
L 249.947511 -163.370994
L 250.273153 -165.412907
L 250.576261 -167.454821
L 250.854603 -169.496735
L 251.10626 -171.538648
L 251.329837 -173.580562
L 251.524641 -175.622476
L 251.690811 -177.664389
L 251.829401 -179.706303
L 251.942397 -181.748217
L 252.03268 -183.79013
L 252.103917 -185.832044
L 252.160411 -187.873958
L 252.206892 -189.915871
L 252.24829 -191.957785
L 252.289475 -193.999699
L 252.335011 -196.041612
L 252.388913 -198.083526
L 252.45445 -200.12544
L 252.533981 -202.167353
L 252.628857 -204.209267
L 252.739383 -206.251181
L 252.864842 -208.293094
L 253.003579 -210.335008
L 253.153147 -212.376922
L 253.310482 -214.418836
L 253.472119 -216.460749
L 253.634414 -218.502663
L 253.793769 -220.544577
L 253.946839 -222.58649
L 254.090713 -224.628404
L 254.223059 -226.670318
L 254.342217 -228.712231
L 254.447253 -230.754145
L 254.537963 -232.796059
L 254.614831 -234.837972
L 254.678945 -236.879886
L 254.731892 -238.9218
L 254.77562 -240.963713
L 254.812293 -243.005627
L 254.844147 -245.047541
L 254.873351 -247.089454
L 254.90188 -249.131368
L 254.931422 -251.173282
L 256.692107 -251.173282
L 256.692107 -251.173282
L 256.721649 -249.131368
L 256.750179 -247.089454
L 256.779382 -245.047541
L 256.811236 -243.005627
L 256.84791 -240.963713
L 256.891637 -238.9218
L 256.944584 -236.879886
L 257.008699 -234.837972
L 257.085566 -232.796059
L 257.176277 -230.754145
L 257.281313 -228.712231
L 257.40047 -226.670318
L 257.532816 -224.628404
L 257.676691 -222.58649
L 257.829761 -220.544577
L 257.989115 -218.502663
L 258.15141 -216.460749
L 258.313047 -214.418836
L 258.470382 -212.376922
L 258.61995 -210.335008
L 258.758688 -208.293094
L 258.884146 -206.251181
L 258.994672 -204.209267
L 259.089549 -202.167353
L 259.169079 -200.12544
L 259.234616 -198.083526
L 259.288518 -196.041612
L 259.334054 -193.999699
L 259.375239 -191.957785
L 259.416637 -189.915871
L 259.463119 -187.873958
L 259.519612 -185.832044
L 259.590849 -183.79013
L 259.681132 -181.748217
L 259.794129 -179.706303
L 259.932719 -177.664389
L 260.098889 -175.622476
L 260.293692 -173.580562
L 260.51727 -171.538648
L 260.768927 -169.496735
L 261.047268 -167.454821
L 261.350376 -165.412907
L 261.676019 -163.370994
L 262.021879 -161.32908
L 262.385784 -159.287166
L 262.765928 -157.245253
L 263.161052 -155.203339
L 263.570594 -153.161425
L 263.994771 -151.119512
L 264.434595 -149.077598
L 264.891811 -147.035684
L 265.368763 -144.993771
L 265.86818 -142.951857
L 266.392896 -140.909943
L 266.945522 -138.86803
L 267.528079 -136.826116
L 268.141634 -134.784202
L 268.785932 -132.742289
L 269.459093 -130.700375
L 270.157358 -128.658461
L 270.874935 -126.616548
L 271.603956 -124.574634
L 272.334546 -122.53272
L 273.05502 -120.490807
L 273.752205 -118.448893
L 274.41187 -116.406979
L 275.019237 -114.365066
L 275.559572 -112.323152
L 276.018795 -110.281238
L 276.384092 -108.239325
L 276.644492 -106.197411
L 276.791365 -104.155497
L 276.818824 -102.113583
L 276.723992 -100.07167
L 276.507132 -98.029756
L 276.171625 -95.987842
L 275.723789 -93.945929
L 275.172583 -91.904015
L 274.529174 -89.862101
L 273.806433 -87.820188
L 273.01837 -85.778274
L 272.179557 -83.73636
L 271.304556 -81.694447
L 270.40741 -79.652533
L 269.501197 -77.610619
L 268.59768 -75.568706
L 267.707068 -73.526792
L 266.837873 -71.484878
L 265.996882 -69.442965
L 265.18921 -67.401051
L 264.418438 -65.359137
L 263.686796 -63.317224
L 262.995387 -61.27531
L 262.344421 -59.233396
L 261.733448 -57.191483
L 261.161565 -55.149569
L 260.627599 -53.107655
L 260.130246 -51.065742
L 259.668179 -49.023828
z
" id="m89d6911c65" style="stroke:#343434;stroke-width:1.5;"/>
    </defs>
    <g clip-path="url(#p6740cb89eb)">
     <use style="fill:#6ab4b4;stroke:#343434;stroke-width:1.5;" x="0" xlink:href="#m89d6911c65" y="360"/>
    </g>
   </g>
   <g id="PolyCollection_5">
    <defs>
     <path d="M 317.6318 -85.621502
L 299.027023 -85.621502
L 298.604088 -86.333752
L 298.178826 -87.046002
L 297.752234 -87.758253
L 297.32531 -88.470503
L 296.899044 -89.182754
L 296.474416 -89.895004
L 296.052382 -90.607255
L 295.63387 -91.319505
L 295.219773 -92.031756
L 294.810942 -92.744006
L 294.40818 -93.456257
L 294.01224 -94.168507
L 293.623816 -94.880758
L 293.243547 -95.593008
L 292.87201 -96.305258
L 292.509722 -97.017509
L 292.157141 -97.729759
L 291.814669 -98.44201
L 291.482654 -99.15426
L 291.161395 -99.866511
L 290.85115 -100.578761
L 290.552143 -101.291012
L 290.264568 -102.003262
L 289.988604 -102.715513
L 289.724418 -103.427763
L 289.47218 -104.140013
L 289.23207 -104.852264
L 289.004287 -105.564514
L 288.789059 -106.276765
L 288.586651 -106.989015
L 288.397372 -107.701266
L 288.221579 -108.413516
L 288.059687 -109.125767
L 287.912162 -109.838017
L 287.77953 -110.550268
L 287.662372 -111.262518
L 287.561317 -111.974768
L 287.477044 -112.687019
L 287.410266 -113.399269
L 287.361721 -114.11152
L 287.332166 -114.82377
L 287.322353 -115.536021
L 287.333021 -116.248271
L 287.364876 -116.960522
L 287.418573 -117.672772
L 287.494694 -118.385023
L 287.593738 -119.097273
L 287.716092 -119.809524
L 287.86202 -120.521774
L 288.031644 -121.234024
L 288.224926 -121.946275
L 288.44166 -122.658525
L 288.681457 -123.370776
L 288.943735 -124.083026
L 289.227721 -124.795277
L 289.532439 -125.507527
L 289.856721 -126.219778
L 290.199204 -126.932028
L 290.558344 -127.644279
L 290.932429 -128.356529
L 291.319587 -129.068779
L 291.717816 -129.78103
L 292.124997 -130.49328
L 292.538927 -131.205531
L 292.957338 -131.917781
L 293.377934 -132.630032
L 293.798416 -133.342282
L 294.216517 -134.054533
L 294.630029 -134.766783
L 295.03684 -135.479034
L 295.434958 -136.191284
L 295.822545 -136.903534
L 296.197936 -137.615785
L 296.55967 -138.328035
L 296.906505 -139.040286
L 297.237434 -139.752536
L 297.551701 -140.464787
L 297.848803 -141.177037
L 298.128499 -141.889288
L 298.390807 -142.601538
L 298.635997 -143.313789
L 298.864579 -144.026039
L 299.077295 -144.738289
L 299.275093 -145.45054
L 299.45911 -146.16279
L 299.630647 -146.875041
L 299.791136 -147.587291
L 299.942119 -148.299542
L 300.08521 -149.011792
L 300.222069 -149.724043
L 300.354366 -150.436293
L 300.483753 -151.148544
L 300.611834 -151.860794
L 300.740136 -152.573045
L 300.870086 -153.285295
L 301.002985 -153.997545
L 301.139992 -154.709796
L 301.282103 -155.422046
L 301.430145 -156.134297
L 315.228678 -156.134297
L 315.228678 -156.134297
L 315.37672 -155.422046
L 315.518832 -154.709796
L 315.655838 -153.997545
L 315.788737 -153.285295
L 315.918687 -152.573045
L 316.04699 -151.860794
L 316.175071 -151.148544
L 316.304458 -150.436293
L 316.436755 -149.724043
L 316.573614 -149.011792
L 316.716705 -148.299542
L 316.867688 -147.587291
L 317.028177 -146.875041
L 317.199713 -146.16279
L 317.38373 -145.45054
L 317.581529 -144.738289
L 317.794244 -144.026039
L 318.022827 -143.313789
L 318.268016 -142.601538
L 318.530324 -141.889288
L 318.810021 -141.177037
L 319.107123 -140.464787
L 319.421389 -139.752536
L 319.752318 -139.040286
L 320.099153 -138.328035
L 320.460887 -137.615785
L 320.836279 -136.903534
L 321.223865 -136.191284
L 321.621984 -135.479034
L 322.028795 -134.766783
L 322.442307 -134.054533
L 322.860407 -133.342282
L 323.280889 -132.630032
L 323.701485 -131.917781
L 324.119897 -131.205531
L 324.533826 -130.49328
L 324.941008 -129.78103
L 325.339237 -129.068779
L 325.726395 -128.356529
L 326.100479 -127.644279
L 326.45962 -126.932028
L 326.802103 -126.219778
L 327.126384 -125.507527
L 327.431103 -124.795277
L 327.715088 -124.083026
L 327.977367 -123.370776
L 328.217163 -122.658525
L 328.433897 -121.946275
L 328.62718 -121.234024
L 328.796803 -120.521774
L 328.942732 -119.809524
L 329.065086 -119.097273
L 329.164129 -118.385023
L 329.240251 -117.672772
L 329.293947 -116.960522
L 329.325802 -116.248271
L 329.336471 -115.536021
L 329.326658 -114.82377
L 329.297102 -114.11152
L 329.248558 -113.399269
L 329.181779 -112.687019
L 329.097506 -111.974768
L 328.996452 -111.262518
L 328.879293 -110.550268
L 328.746661 -109.838017
L 328.599137 -109.125767
L 328.437244 -108.413516
L 328.261452 -107.701266
L 328.072173 -106.989015
L 327.869765 -106.276765
L 327.654536 -105.564514
L 327.426753 -104.852264
L 327.186643 -104.140013
L 326.934405 -103.427763
L 326.67022 -102.715513
L 326.394255 -102.003262
L 326.10668 -101.291012
L 325.807673 -100.578761
L 325.497429 -99.866511
L 325.17617 -99.15426
L 324.844155 -98.44201
L 324.501682 -97.729759
L 324.149102 -97.017509
L 323.786814 -96.305258
L 323.415277 -95.593008
L 323.035007 -94.880758
L 322.646584 -94.168507
L 322.250644 -93.456257
L 321.847882 -92.744006
L 321.439051 -92.031756
L 321.024954 -91.319505
L 320.606442 -90.607255
L 320.184408 -89.895004
L 319.759779 -89.182754
L 319.333514 -88.470503
L 318.906589 -87.758253
L 318.479997 -87.046002
L 318.054736 -86.333752
L 317.6318 -85.621502
z
" id="me0b8a62dda" style="stroke:#343434;stroke-width:1.5;"/>
    </defs>
    <g clip-path="url(#p6740cb89eb)">
     <use style="fill:#439ab0;stroke:#343434;stroke-width:1.5;" x="0" xlink:href="#me0b8a62dda" y="360"/>
    </g>
   </g>
   <g id="PolyCollection_6">
    <defs>
     <path d="M 379.285479 -98.65104
L 342.408639 -98.65104
L 342.066303 -100.019412
L 341.744944 -101.387785
L 341.445692 -102.756157
L 341.169592 -104.12453
L 340.917598 -105.492902
L 340.690562 -106.861275
L 340.489239 -108.229647
L 340.314274 -109.59802
L 340.166201 -110.966392
L 340.045443 -112.334765
L 339.952309 -113.703137
L 339.886992 -115.07151
L 339.849568 -116.439882
L 339.84 -117.808255
L 339.858137 -119.176627
L 339.903717 -120.545
L 339.976368 -121.913372
L 340.075616 -123.281744
L 340.200884 -124.650117
L 340.3515 -126.018489
L 340.5267 -127.386862
L 340.725636 -128.755234
L 340.947381 -130.123607
L 341.190933 -131.491979
L 341.455226 -132.860352
L 341.739134 -134.228724
L 342.041477 -135.597097
L 342.36103 -136.965469
L 342.696529 -138.333842
L 343.046679 -139.702214
L 343.410159 -141.070587
L 343.78563 -142.438959
L 344.17174 -143.807332
L 344.567132 -145.175704
L 344.97045 -146.544077
L 345.380344 -147.912449
L 345.795476 -149.280822
L 346.214522 -150.649194
L 346.636185 -152.017567
L 347.059189 -153.385939
L 347.482294 -154.754312
L 347.904289 -156.122684
L 348.324007 -157.491056
L 348.740318 -158.859429
L 349.152138 -160.227801
L 349.558433 -161.596174
L 349.958216 -162.964546
L 350.350554 -164.332919
L 350.734567 -165.701291
L 351.109432 -167.069664
L 351.474384 -168.438036
L 351.828717 -169.806409
L 352.171785 -171.174781
L 352.503004 -172.543154
L 352.82185 -173.911526
L 353.127865 -175.279899
L 353.420653 -176.648271
L 353.699882 -178.016644
L 353.965282 -179.385016
L 354.216649 -180.753389
L 354.453842 -182.121761
L 354.676783 -183.490134
L 354.885456 -184.858506
L 355.079909 -186.226879
L 355.260247 -187.595251
L 355.426639 -188.963624
L 355.579308 -190.331996
L 355.718537 -191.700369
L 355.844662 -193.068741
L 355.95807 -194.437113
L 356.059199 -195.805486
L 356.148536 -197.173858
L 356.226609 -198.542231
L 356.293989 -199.910603
L 356.351286 -201.278976
L 356.39914 -202.647348
L 356.438226 -204.015721
L 356.469241 -205.384093
L 356.492907 -206.752466
L 356.509962 -208.120838
L 356.521157 -209.489211
L 356.527252 -210.857583
L 356.529009 -212.225956
L 356.527193 -213.594328
L 356.522558 -214.962701
L 356.515852 -216.331073
L 356.507806 -217.699446
L 356.49913 -219.067818
L 356.490514 -220.436191
L 356.482617 -221.804563
L 356.476068 -223.172936
L 356.471459 -224.541308
L 356.469343 -225.909681
L 356.470234 -227.278053
L 356.474598 -228.646425
L 356.482856 -230.014798
L 356.495382 -231.38317
L 356.512496 -232.751543
L 356.53447 -234.119915
L 365.159648 -234.119915
L 365.159648 -234.119915
L 365.181622 -232.751543
L 365.198736 -231.38317
L 365.211261 -230.014798
L 365.21952 -228.646425
L 365.223884 -227.278053
L 365.224774 -225.909681
L 365.222659 -224.541308
L 365.21805 -223.172936
L 365.2115 -221.804563
L 365.203603 -220.436191
L 365.194987 -219.067818
L 365.186312 -217.699446
L 365.178265 -216.331073
L 365.171559 -214.962701
L 365.166925 -213.594328
L 365.165108 -212.225956
L 365.166866 -210.857583
L 365.172961 -209.489211
L 365.184156 -208.120838
L 365.201211 -206.752466
L 365.224877 -205.384093
L 365.255892 -204.015721
L 365.294978 -202.647348
L 365.342832 -201.278976
L 365.400128 -199.910603
L 365.467509 -198.542231
L 365.545582 -197.173858
L 365.634918 -195.805486
L 365.736048 -194.437113
L 365.849456 -193.068741
L 365.97558 -191.700369
L 366.114809 -190.331996
L 366.267479 -188.963624
L 366.433871 -187.595251
L 366.614209 -186.226879
L 366.808662 -184.858506
L 367.017335 -183.490134
L 367.240276 -182.121761
L 367.477469 -180.753389
L 367.728836 -179.385016
L 367.994236 -178.016644
L 368.273464 -176.648271
L 368.566252 -175.279899
L 368.872268 -173.911526
L 369.191114 -172.543154
L 369.522332 -171.174781
L 369.8654 -169.806409
L 370.219733 -168.438036
L 370.584685 -167.069664
L 370.959551 -165.701291
L 371.343564 -164.332919
L 371.735901 -162.964546
L 372.135684 -161.596174
L 372.541979 -160.227801
L 372.9538 -158.859429
L 373.370111 -157.491056
L 373.789828 -156.122684
L 374.211824 -154.754312
L 374.634928 -153.385939
L 375.057933 -152.017567
L 375.479595 -150.649194
L 375.898642 -149.280822
L 376.313773 -147.912449
L 376.723667 -146.544077
L 377.126986 -145.175704
L 377.522378 -143.807332
L 377.908488 -142.438959
L 378.283958 -141.070587
L 378.647438 -139.702214
L 378.997589 -138.333842
L 379.333088 -136.965469
L 379.652641 -135.597097
L 379.954984 -134.228724
L 380.238892 -132.860352
L 380.503185 -131.491979
L 380.746737 -130.123607
L 380.968481 -128.755234
L 381.167418 -127.386862
L 381.342618 -126.018489
L 381.493233 -124.650117
L 381.618501 -123.281744
L 381.717749 -121.913372
L 381.790401 -120.545
L 381.835981 -119.176627
L 381.854118 -117.808255
L 381.84455 -116.439882
L 381.807126 -115.07151
L 381.741808 -113.703137
L 381.648674 -112.334765
L 381.527917 -110.966392
L 381.379844 -109.59802
L 381.204878 -108.229647
L 381.003555 -106.861275
L 380.77652 -105.492902
L 380.524525 -104.12453
L 380.248426 -102.756157
L 379.949174 -101.387785
L 379.627815 -100.019412
L 379.285479 -98.65104
z
" id="m5569ea6c7a" style="stroke:#343434;stroke-width:1.5;"/>
    </defs>
    <g clip-path="url(#p6740cb89eb)">
     <use style="fill:#327ba5;stroke:#343434;stroke-width:1.5;" x="0" xlink:href="#m5569ea6c7a" y="360"/>
    </g>
   </g>
   <g id="PolyCollection_7">
    <defs>
     <path d="M 431.877503 -90.028551
L 394.851909 -90.028551
L 394.748939 -90.218227
L 394.648188 -90.407902
L 394.549665 -90.597577
L 394.453375 -90.787253
L 394.359325 -90.976928
L 394.267517 -91.166604
L 394.177955 -91.356279
L 394.090638 -91.545954
L 394.005568 -91.73563
L 393.922743 -91.925305
L 393.842159 -92.114981
L 393.763815 -92.304656
L 393.687705 -92.494331
L 393.613825 -92.684007
L 393.542167 -92.873682
L 393.472725 -93.063358
L 393.405491 -93.253033
L 393.340457 -93.442708
L 393.277613 -93.632384
L 393.216949 -93.822059
L 393.158457 -94.011735
L 393.102124 -94.20141
L 393.04794 -94.391085
L 392.995894 -94.580761
L 392.945974 -94.770436
L 392.898169 -94.960112
L 392.852466 -95.149787
L 392.808855 -95.339462
L 392.767323 -95.529138
L 392.727858 -95.718813
L 392.690449 -95.908488
L 392.655085 -96.098164
L 392.621755 -96.287839
L 392.590447 -96.477515
L 392.561151 -96.66719
L 392.533857 -96.856865
L 392.508556 -97.046541
L 392.485239 -97.236216
L 392.463896 -97.425892
L 392.44452 -97.615567
L 392.427103 -97.805242
L 392.411639 -97.994918
L 392.398122 -98.184593
L 392.386546 -98.374269
L 392.376906 -98.563944
L 392.369199 -98.753619
L 392.363422 -98.943295
L 392.359572 -99.13297
L 392.357647 -99.322646
L 392.357647 -99.512321
L 392.359572 -99.701996
L 392.363422 -99.891672
L 392.369199 -100.081347
L 392.376906 -100.271023
L 392.386546 -100.460698
L 392.398122 -100.650373
L 392.411639 -100.840049
L 392.427103 -101.029724
L 392.44452 -101.219399
L 392.463896 -101.409075
L 392.485239 -101.59875
L 392.508556 -101.788426
L 392.533857 -101.978101
L 392.561151 -102.167776
L 392.590447 -102.357452
L 392.621755 -102.547127
L 392.655085 -102.736803
L 392.690449 -102.926478
L 392.727858 -103.116153
L 392.767323 -103.305829
L 392.808855 -103.495504
L 392.852466 -103.68518
L 392.898169 -103.874855
L 392.945974 -104.06453
L 392.995894 -104.254206
L 393.04794 -104.443881
L 393.102124 -104.633557
L 393.158457 -104.823232
L 393.216949 -105.012907
L 393.277613 -105.202583
L 393.340457 -105.392258
L 393.405491 -105.581934
L 393.472725 -105.771609
L 393.542167 -105.961284
L 393.613825 -106.15096
L 393.687705 -106.340635
L 393.763815 -106.530311
L 393.842159 -106.719986
L 393.922743 -106.909661
L 394.005568 -107.099337
L 394.090638 -107.289012
L 394.177955 -107.478687
L 394.267517 -107.668363
L 394.359325 -107.858038
L 394.453375 -108.047714
L 394.549665 -108.237389
L 394.648188 -108.427064
L 394.748939 -108.61674
L 394.851909 -108.806415
L 431.877503 -108.806415
L 431.877503 -108.806415
L 431.980473 -108.61674
L 432.081224 -108.427064
L 432.179747 -108.237389
L 432.276036 -108.047714
L 432.370087 -107.858038
L 432.461894 -107.668363
L 432.551457 -107.478687
L 432.638773 -107.289012
L 432.723844 -107.099337
L 432.806669 -106.909661
L 432.887252 -106.719986
L 432.965597 -106.530311
L 433.041707 -106.340635
L 433.115587 -106.15096
L 433.187245 -105.961284
L 433.256687 -105.771609
L 433.323921 -105.581934
L 433.388955 -105.392258
L 433.451799 -105.202583
L 433.512462 -105.012907
L 433.570955 -104.823232
L 433.627288 -104.633557
L 433.681472 -104.443881
L 433.733518 -104.254206
L 433.783438 -104.06453
L 433.831243 -103.874855
L 433.876946 -103.68518
L 433.920557 -103.495504
L 433.962089 -103.305829
L 434.001554 -103.116153
L 434.038962 -102.926478
L 434.074326 -102.736803
L 434.107657 -102.547127
L 434.138965 -102.357452
L 434.168261 -102.167776
L 434.195554 -101.978101
L 434.220855 -101.788426
L 434.244173 -101.59875
L 434.265516 -101.409075
L 434.284892 -101.219399
L 434.302308 -101.029724
L 434.317772 -100.840049
L 434.33129 -100.650373
L 434.342866 -100.460698
L 434.352505 -100.271023
L 434.360212 -100.081347
L 434.36599 -99.891672
L 434.36984 -99.701996
L 434.371765 -99.512321
L 434.371765 -99.322646
L 434.36984 -99.13297
L 434.36599 -98.943295
L 434.360212 -98.753619
L 434.352505 -98.563944
L 434.342866 -98.374269
L 434.33129 -98.184593
L 434.317772 -97.994918
L 434.302308 -97.805242
L 434.284892 -97.615567
L 434.265516 -97.425892
L 434.244173 -97.236216
L 434.220855 -97.046541
L 434.195554 -96.856865
L 434.168261 -96.66719
L 434.138965 -96.477515
L 434.107657 -96.287839
L 434.074326 -96.098164
L 434.038962 -95.908488
L 434.001554 -95.718813
L 433.962089 -95.529138
L 433.920557 -95.339462
L 433.876946 -95.149787
L 433.831243 -94.960112
L 433.783438 -94.770436
L 433.733518 -94.580761
L 433.681472 -94.391085
L 433.627288 -94.20141
L 433.570955 -94.011735
L 433.512462 -93.822059
L 433.451799 -93.632384
L 433.388955 -93.442708
L 433.323921 -93.253033
L 433.256687 -93.063358
L 433.187245 -92.873682
L 433.115587 -92.684007
L 433.041707 -92.494331
L 432.965597 -92.304656
L 432.887252 -92.114981
L 432.806669 -91.925305
L 432.723844 -91.73563
L 432.638773 -91.545954
L 432.551457 -91.356279
L 432.461894 -91.166604
L 432.370087 -90.976928
L 432.276036 -90.787253
L 432.179747 -90.597577
L 432.081224 -90.407902
L 431.980473 -90.218227
L 431.877503 -90.028551
z
" id="meabe742d0a" style="stroke:#343434;stroke-width:1.5;"/>
    </defs>
    <g clip-path="url(#p6740cb89eb)">
     <use style="fill:#335893;stroke:#343434;stroke-width:1.5;" x="0" xlink:href="#meabe742d0a" y="360"/>
    </g>
   </g>
   <g id="PolyCollection_8">
    <defs>
     <path d="M 484.39515 -68.759746
L 447.369556 -68.759746
L 447.266586 -70.010055
L 447.165835 -71.260365
L 447.067312 -72.510674
L 446.971022 -73.760983
L 446.876972 -75.011292
L 446.785164 -76.261602
L 446.695602 -77.511911
L 446.608286 -78.76222
L 446.523215 -80.012529
L 446.44039 -81.262838
L 446.359806 -82.513148
L 446.281462 -83.763457
L 446.205352 -85.013766
L 446.131472 -86.264075
L 446.059814 -87.514385
L 445.990372 -88.764694
L 445.923138 -90.015003
L 445.858104 -91.265312
L 445.79526 -92.515621
L 445.734596 -93.765931
L 445.676104 -95.01624
L 445.619771 -96.266549
L 445.565587 -97.516858
L 445.513541 -98.767168
L 445.463621 -100.017477
L 445.415816 -101.267786
L 445.370113 -102.518095
L 445.326502 -103.768405
L 445.28497 -105.018714
L 445.245505 -106.269023
L 445.208096 -107.519332
L 445.172732 -108.769641
L 445.139402 -110.019951
L 445.108094 -111.27026
L 445.078798 -112.520569
L 445.051505 -113.770878
L 445.026203 -115.021188
L 445.002886 -116.271497
L 444.981543 -117.521806
L 444.962167 -118.772115
L 444.94475 -120.022424
L 444.929286 -121.272734
L 444.915769 -122.523043
L 444.904193 -123.773352
L 444.894553 -125.023661
L 444.886847 -126.273971
L 444.881069 -127.52428
L 444.877219 -128.774589
L 444.875294 -130.024898
L 444.875294 -131.275207
L 444.877219 -132.525517
L 444.881069 -133.775826
L 444.886847 -135.026135
L 444.894553 -136.276444
L 444.904193 -137.526754
L 444.915769 -138.777063
L 444.929286 -140.027372
L 444.94475 -141.277681
L 444.962167 -142.527991
L 444.981543 -143.7783
L 445.002886 -145.028609
L 445.026203 -146.278918
L 445.051505 -147.529227
L 445.078798 -148.779537
L 445.108094 -150.029846
L 445.139402 -151.280155
L 445.172732 -152.530464
L 445.208096 -153.780774
L 445.245505 -155.031083
L 445.28497 -156.281392
L 445.326502 -157.531701
L 445.370113 -158.78201
L 445.415816 -160.03232
L 445.463621 -161.282629
L 445.513541 -162.532938
L 445.565587 -163.783247
L 445.619771 -165.033557
L 445.676104 -166.283866
L 445.734596 -167.534175
L 445.79526 -168.784484
L 445.858104 -170.034793
L 445.923138 -171.285103
L 445.990372 -172.535412
L 446.059814 -173.785721
L 446.131472 -175.03603
L 446.205352 -176.28634
L 446.281462 -177.536649
L 446.359806 -178.786958
L 446.44039 -180.037267
L 446.523215 -181.287577
L 446.608286 -182.537886
L 446.695602 -183.788195
L 446.785164 -185.038504
L 446.876972 -186.288813
L 446.971022 -187.539123
L 447.067312 -188.789432
L 447.165835 -190.039741
L 447.266586 -191.29005
L 447.369556 -192.54036
L 484.39515 -192.54036
L 484.39515 -192.54036
L 484.49812 -191.29005
L 484.598871 -190.039741
L 484.697394 -188.789432
L 484.793684 -187.539123
L 484.887734 -186.288813
L 484.979541 -185.038504
L 485.069104 -183.788195
L 485.15642 -182.537886
L 485.241491 -181.287577
L 485.324316 -180.037267
L 485.4049 -178.786958
L 485.483244 -177.536649
L 485.559354 -176.28634
L 485.633234 -175.03603
L 485.704892 -173.785721
L 485.774334 -172.535412
L 485.841568 -171.285103
L 485.906602 -170.034793
L 485.969446 -168.784484
L 486.03011 -167.534175
L 486.088602 -166.283866
L 486.144935 -165.033557
L 486.199119 -163.783247
L 486.251165 -162.532938
L 486.301085 -161.282629
L 486.34889 -160.03232
L 486.394593 -158.78201
L 486.438204 -157.531701
L 486.479736 -156.281392
L 486.519201 -155.031083
L 486.556609 -153.780774
L 486.591974 -152.530464
L 486.625304 -151.280155
L 486.656612 -150.029846
L 486.685908 -148.779537
L 486.713201 -147.529227
L 486.738502 -146.278918
L 486.76182 -145.028609
L 486.783163 -143.7783
L 486.802539 -142.527991
L 486.819956 -141.277681
L 486.835419 -140.027372
L 486.848937 -138.777063
L 486.860513 -137.526754
L 486.870152 -136.276444
L 486.877859 -135.026135
L 486.883637 -133.775826
L 486.887487 -132.525517
L 486.889412 -131.275207
L 486.889412 -130.024898
L 486.887487 -128.774589
L 486.883637 -127.52428
L 486.877859 -126.273971
L 486.870152 -125.023661
L 486.860513 -123.773352
L 486.848937 -122.523043
L 486.835419 -121.272734
L 486.819956 -120.022424
L 486.802539 -118.772115
L 486.783163 -117.521806
L 486.76182 -116.271497
L 486.738502 -115.021188
L 486.713201 -113.770878
L 486.685908 -112.520569
L 486.656612 -111.27026
L 486.625304 -110.019951
L 486.591974 -108.769641
L 486.556609 -107.519332
L 486.519201 -106.269023
L 486.479736 -105.018714
L 486.438204 -103.768405
L 486.394593 -102.518095
L 486.34889 -101.267786
L 486.301085 -100.017477
L 486.251165 -98.767168
L 486.199119 -97.516858
L 486.144935 -96.266549
L 486.088602 -95.01624
L 486.03011 -93.765931
L 485.969446 -92.515621
L 485.906602 -91.265312
L 485.841568 -90.015003
L 485.774334 -88.764694
L 485.704892 -87.514385
L 485.633234 -86.264075
L 485.559354 -85.013766
L 485.483244 -83.763457
L 485.4049 -82.513148
L 485.324316 -81.262838
L 485.241491 -80.012529
L 485.15642 -78.76222
L 485.069104 -77.511911
L 484.979541 -76.261602
L 484.887734 -75.011292
L 484.793684 -73.760983
L 484.697394 -72.510674
L 484.598871 -71.260365
L 484.49812 -70.010055
L 484.39515 -68.759746
z
" id="m72758009c9" style="stroke:#343434;stroke-width:1.5;"/>
    </defs>
    <g clip-path="url(#p6740cb89eb)">
     <use style="fill:#2f3b7f;stroke:#343434;stroke-width:1.5;" x="0" xlink:href="#m72758009c9" y="360"/>
    </g>
   </g>
   <g id="matplotlib.axis_1">
    <g id="xtick_1">
     <g id="line2d_1">
      <defs>
       <path d="M 0 0
L 0 3.5
" id="m01b925e33f" style="stroke:#000000;stroke-width:0.8;"/>
      </defs>
      <g>
       <use style="stroke:#000000;stroke-width:0.8;" x="98.258824" xlink:href="#m01b925e33f" y="315"/>
      </g>
     </g>
     <g id="text_1">
      <!-- 1 -->
      <defs>
       <path d="M 37.25 0
L 28.46875 0
L 28.46875 56
Q 25.296875 52.984375 20.140625 49.953125
Q 14.984375 46.921875 10.890625 45.40625
L 10.890625 53.90625
Q 18.265625 57.375 23.78125 62.296875
Q 29.296875 67.234375 31.59375 71.875
L 37.25 71.875
z
" id="ArialMT-49"/>
      </defs>
      <g transform="translate(95.478355 329.157812)scale(0.1 -0.1)">
       <use xlink:href="#ArialMT-49"/>
      </g>
     </g>
    </g>
    <g id="xtick_2">
     <g id="line2d_2">
      <g>
       <use style="stroke:#000000;stroke-width:0.8;" x="150.776471" xlink:href="#m01b925e33f" y="315"/>
      </g>
     </g>
     <g id="text_2">
      <!-- 2 -->
      <defs>
       <path d="M 50.34375 8.453125
L 50.34375 0
L 3.03125 0
Q 2.9375 3.171875 4.046875 6.109375
Q 5.859375 10.9375 9.828125 15.625
Q 13.8125 20.3125 21.34375 26.46875
Q 33.015625 36.03125 37.109375 41.625
Q 41.21875 47.21875 41.21875 52.203125
Q 41.21875 57.421875 37.46875 61
Q 33.734375 64.59375 27.734375 64.59375
Q 21.390625 64.59375 17.578125 60.78125
Q 13.765625 56.984375 13.71875 50.25
L 4.6875 51.171875
Q 5.609375 61.28125 11.65625 66.578125
Q 17.71875 71.875 27.9375 71.875
Q 38.234375 71.875 44.234375 66.15625
Q 50.25 60.453125 50.25 52
Q 50.25 47.703125 48.484375 43.546875
Q 46.734375 39.40625 42.65625 34.8125
Q 38.578125 30.21875 29.109375 22.21875
Q 21.1875 15.578125 18.9375 13.203125
Q 16.703125 10.84375 15.234375 8.453125
z
" id="ArialMT-50"/>
      </defs>
      <g transform="translate(147.996002 329.157812)scale(0.1 -0.1)">
       <use xlink:href="#ArialMT-50"/>
      </g>
     </g>
    </g>
    <g id="xtick_3">
     <g id="line2d_3">
      <g>
       <use style="stroke:#000000;stroke-width:0.8;" x="203.294118" xlink:href="#m01b925e33f" y="315"/>
      </g>
     </g>
     <g id="text_3">
      <!-- 3 -->
      <defs>
       <path d="M 4.203125 18.890625
L 12.984375 20.0625
Q 14.5 12.59375 18.140625 9.296875
Q 21.78125 6 27 6
Q 33.203125 6 37.46875 10.296875
Q 41.75 14.59375 41.75 20.953125
Q 41.75 27 37.796875 30.921875
Q 33.84375 34.859375 27.734375 34.859375
Q 25.25 34.859375 21.53125 33.890625
L 22.515625 41.609375
Q 23.390625 41.5 23.921875 41.5
Q 29.546875 41.5 34.03125 44.421875
Q 38.53125 47.359375 38.53125 53.46875
Q 38.53125 58.296875 35.25 61.46875
Q 31.984375 64.65625 26.8125 64.65625
Q 21.6875 64.65625 18.265625 61.421875
Q 14.84375 58.203125 13.875 51.765625
L 5.078125 53.328125
Q 6.6875 62.15625 12.390625 67.015625
Q 18.109375 71.875 26.609375 71.875
Q 32.46875 71.875 37.390625 69.359375
Q 42.328125 66.84375 44.9375 62.5
Q 47.5625 58.15625 47.5625 53.265625
Q 47.5625 48.640625 45.0625 44.828125
Q 42.578125 41.015625 37.703125 38.765625
Q 44.046875 37.3125 47.5625 32.6875
Q 51.078125 28.078125 51.078125 21.140625
Q 51.078125 11.765625 44.234375 5.25
Q 37.40625 -1.265625 26.953125 -1.265625
Q 17.53125 -1.265625 11.296875 4.34375
Q 5.078125 9.96875 4.203125 18.890625
z
" id="ArialMT-51"/>
      </defs>
      <g transform="translate(200.513649 329.157812)scale(0.1 -0.1)">
       <use xlink:href="#ArialMT-51"/>
      </g>
     </g>
    </g>
    <g id="xtick_4">
     <g id="line2d_4">
      <g>
       <use style="stroke:#000000;stroke-width:0.8;" x="255.811765" xlink:href="#m01b925e33f" y="315"/>
      </g>
     </g>
     <g id="text_4">
      <!-- 4 -->
      <defs>
       <path d="M 32.328125 0
L 32.328125 17.140625
L 1.265625 17.140625
L 1.265625 25.203125
L 33.9375 71.578125
L 41.109375 71.578125
L 41.109375 25.203125
L 50.78125 25.203125
L 50.78125 17.140625
L 41.109375 17.140625
L 41.109375 0
z
M 32.328125 25.203125
L 32.328125 57.46875
L 9.90625 25.203125
z
" id="ArialMT-52"/>
      </defs>
      <g transform="translate(253.031296 329.157812)scale(0.1 -0.1)">
       <use xlink:href="#ArialMT-52"/>
      </g>
     </g>
    </g>
    <g id="xtick_5">
     <g id="line2d_5">
      <g>
       <use style="stroke:#000000;stroke-width:0.8;" x="308.329412" xlink:href="#m01b925e33f" y="315"/>
      </g>
     </g>
     <g id="text_5">
      <!-- 5 -->
      <defs>
       <path d="M 4.15625 18.75
L 13.375 19.53125
Q 14.40625 12.796875 18.140625 9.390625
Q 21.875 6 27.15625 6
Q 33.5 6 37.890625 10.78125
Q 42.28125 15.578125 42.28125 23.484375
Q 42.28125 31 38.0625 35.34375
Q 33.84375 39.703125 27 39.703125
Q 22.75 39.703125 19.328125 37.765625
Q 15.921875 35.84375 13.96875 32.765625
L 5.71875 33.84375
L 12.640625 70.609375
L 48.25 70.609375
L 48.25 62.203125
L 19.671875 62.203125
L 15.828125 42.96875
Q 22.265625 47.46875 29.34375 47.46875
Q 38.71875 47.46875 45.15625 40.96875
Q 51.609375 34.46875 51.609375 24.265625
Q 51.609375 14.546875 45.953125 7.46875
Q 39.0625 -1.21875 27.15625 -1.21875
Q 17.390625 -1.21875 11.203125 4.25
Q 5.03125 9.71875 4.15625 18.75
z
" id="ArialMT-53"/>
      </defs>
      <g transform="translate(305.548943 329.157812)scale(0.1 -0.1)">
       <use xlink:href="#ArialMT-53"/>
      </g>
     </g>
    </g>
    <g id="xtick_6">
     <g id="line2d_6">
      <g>
       <use style="stroke:#000000;stroke-width:0.8;" x="360.847059" xlink:href="#m01b925e33f" y="315"/>
      </g>
     </g>
     <g id="text_6">
      <!-- 6 -->
      <defs>
       <path d="M 49.75 54.046875
L 41.015625 53.375
Q 39.84375 58.546875 37.703125 60.890625
Q 34.125 64.65625 28.90625 64.65625
Q 24.703125 64.65625 21.53125 62.3125
Q 17.390625 59.28125 14.984375 53.46875
Q 12.59375 47.65625 12.5 36.921875
Q 15.671875 41.75 20.265625 44.09375
Q 24.859375 46.4375 29.890625 46.4375
Q 38.671875 46.4375 44.84375 39.96875
Q 51.03125 33.5 51.03125 23.25
Q 51.03125 16.5 48.125 10.71875
Q 45.21875 4.9375 40.140625 1.859375
Q 35.0625 -1.21875 28.609375 -1.21875
Q 17.625 -1.21875 10.6875 6.859375
Q 3.765625 14.9375 3.765625 33.5
Q 3.765625 54.25 11.421875 63.671875
Q 18.109375 71.875 29.4375 71.875
Q 37.890625 71.875 43.28125 67.140625
Q 48.6875 62.40625 49.75 54.046875
z
M 13.875 23.1875
Q 13.875 18.65625 15.796875 14.5
Q 17.71875 10.359375 21.1875 8.171875
Q 24.65625 6 28.46875 6
Q 34.03125 6 38.03125 10.484375
Q 42.046875 14.984375 42.046875 22.703125
Q 42.046875 30.125 38.078125 34.390625
Q 34.125 38.671875 28.125 38.671875
Q 22.171875 38.671875 18.015625 34.390625
Q 13.875 30.125 13.875 23.1875
z
" id="ArialMT-54"/>
      </defs>
      <g transform="translate(358.06659 329.157812)scale(0.1 -0.1)">
       <use xlink:href="#ArialMT-54"/>
      </g>
     </g>
    </g>
    <g id="xtick_7">
     <g id="line2d_7">
      <g>
       <use style="stroke:#000000;stroke-width:0.8;" x="413.364706" xlink:href="#m01b925e33f" y="315"/>
      </g>
     </g>
     <g id="text_7">
      <!-- 7 -->
      <defs>
       <path d="M 4.734375 62.203125
L 4.734375 70.65625
L 51.078125 70.65625
L 51.078125 63.8125
Q 44.234375 56.546875 37.515625 44.484375
Q 30.8125 32.421875 27.15625 19.671875
Q 24.515625 10.6875 23.78125 0
L 14.75 0
Q 14.890625 8.453125 18.0625 20.40625
Q 21.234375 32.375 27.171875 43.484375
Q 33.109375 54.59375 39.796875 62.203125
z
" id="ArialMT-55"/>
      </defs>
      <g transform="translate(410.584237 329.157812)scale(0.1 -0.1)">
       <use xlink:href="#ArialMT-55"/>
      </g>
     </g>
    </g>
    <g id="xtick_8">
     <g id="line2d_8">
      <g>
       <use style="stroke:#000000;stroke-width:0.8;" x="465.882353" xlink:href="#m01b925e33f" y="315"/>
      </g>
     </g>
     <g id="text_8">
      <!-- 8 -->
      <defs>
       <path d="M 17.671875 38.8125
Q 12.203125 40.828125 9.5625 44.53125
Q 6.9375 48.25 6.9375 53.421875
Q 6.9375 61.234375 12.546875 66.546875
Q 18.171875 71.875 27.484375 71.875
Q 36.859375 71.875 42.578125 66.421875
Q 48.296875 60.984375 48.296875 53.171875
Q 48.296875 48.1875 45.671875 44.5
Q 43.0625 40.828125 37.75 38.8125
Q 44.34375 36.671875 47.78125 31.875
Q 51.21875 27.09375 51.21875 20.453125
Q 51.21875 11.28125 44.71875 5.03125
Q 38.234375 -1.21875 27.640625 -1.21875
Q 17.046875 -1.21875 10.546875 5.046875
Q 4.046875 11.328125 4.046875 20.703125
Q 4.046875 27.6875 7.59375 32.390625
Q 11.140625 37.109375 17.671875 38.8125
z
M 15.921875 53.71875
Q 15.921875 48.640625 19.1875 45.40625
Q 22.46875 42.1875 27.6875 42.1875
Q 32.765625 42.1875 36.015625 45.375
Q 39.265625 48.578125 39.265625 53.21875
Q 39.265625 58.0625 35.90625 61.359375
Q 32.5625 64.65625 27.59375 64.65625
Q 22.5625 64.65625 19.234375 61.421875
Q 15.921875 58.203125 15.921875 53.71875
z
M 13.09375 20.65625
Q 13.09375 16.890625 14.875 13.375
Q 16.65625 9.859375 20.171875 7.921875
Q 23.6875 6 27.734375 6
Q 34.03125 6 38.125 10.046875
Q 42.234375 14.109375 42.234375 20.359375
Q 42.234375 26.703125 38.015625 30.859375
Q 33.796875 35.015625 27.4375 35.015625
Q 21.234375 35.015625 17.15625 30.90625
Q 13.09375 26.8125 13.09375 20.65625
z
" id="ArialMT-56"/>
      </defs>
      <g transform="translate(463.101884 329.157812)scale(0.1 -0.1)">
       <use xlink:href="#ArialMT-56"/>
      </g>
     </g>
    </g>
    <g id="text_9">
     <!-- # of Preprint Versions -->
     <defs>
      <path d="M 5.03125 -1.21875
L 9.28125 19.578125
L 1.03125 19.578125
L 1.03125 26.859375
L 10.75 26.859375
L 14.359375 44.578125
L 1.03125 44.578125
L 1.03125 51.859375
L 15.828125 51.859375
L 20.0625 72.796875
L 27.390625 72.796875
L 23.140625 51.859375
L 38.53125 51.859375
L 42.78125 72.796875
L 50.140625 72.796875
L 45.90625 51.859375
L 54.34375 51.859375
L 54.34375 44.578125
L 44.4375 44.578125
L 40.765625 26.859375
L 54.34375 26.859375
L 54.34375 19.578125
L 39.3125 19.578125
L 35.0625 -1.21875
L 27.734375 -1.21875
L 31.9375 19.578125
L 16.609375 19.578125
L 12.359375 -1.21875
z
M 18.0625 26.859375
L 33.40625 26.859375
L 37.0625 44.578125
L 21.6875 44.578125
z
" id="ArialMT-35"/>
      <path id="ArialMT-32"/>
      <path d="M 3.328125 25.921875
Q 3.328125 40.328125 11.328125 47.265625
Q 18.015625 53.03125 27.640625 53.03125
Q 38.328125 53.03125 45.109375 46.015625
Q 51.90625 39.015625 51.90625 26.65625
Q 51.90625 16.65625 48.90625 10.90625
Q 45.90625 5.171875 40.15625 2
Q 34.421875 -1.171875 27.640625 -1.171875
Q 16.75 -1.171875 10.03125 5.8125
Q 3.328125 12.796875 3.328125 25.921875
z
M 12.359375 25.921875
Q 12.359375 15.96875 16.703125 11.015625
Q 21.046875 6.0625 27.640625 6.0625
Q 34.1875 6.0625 38.53125 11.03125
Q 42.875 16.015625 42.875 26.21875
Q 42.875 35.84375 38.5 40.796875
Q 34.125 45.75 27.640625 45.75
Q 21.046875 45.75 16.703125 40.8125
Q 12.359375 35.890625 12.359375 25.921875
z
" id="ArialMT-111"/>
      <path d="M 8.6875 0
L 8.6875 45.015625
L 0.921875 45.015625
L 0.921875 51.859375
L 8.6875 51.859375
L 8.6875 57.375
Q 8.6875 62.59375 9.625 65.140625
Q 10.890625 68.5625 14.078125 70.671875
Q 17.28125 72.796875 23.046875 72.796875
Q 26.765625 72.796875 31.25 71.921875
L 29.9375 64.265625
Q 27.203125 64.75 24.75 64.75
Q 20.75 64.75 19.09375 63.03125
Q 17.4375 61.328125 17.4375 56.640625
L 17.4375 51.859375
L 27.546875 51.859375
L 27.546875 45.015625
L 17.4375 45.015625
L 17.4375 0
z
" id="ArialMT-102"/>
      <path d="M 7.71875 0
L 7.71875 71.578125
L 34.71875 71.578125
Q 41.84375 71.578125 45.609375 70.90625
Q 50.875 70.015625 54.4375 67.546875
Q 58.015625 65.09375 60.1875 60.640625
Q 62.359375 56.203125 62.359375 50.875
Q 62.359375 41.75 56.546875 35.421875
Q 50.734375 29.109375 35.546875 29.109375
L 17.1875 29.109375
L 17.1875 0
z
M 17.1875 37.546875
L 35.6875 37.546875
Q 44.875 37.546875 48.734375 40.96875
Q 52.59375 44.390625 52.59375 50.59375
Q 52.59375 55.078125 50.3125 58.265625
Q 48.046875 61.46875 44.34375 62.5
Q 41.9375 63.140625 35.5 63.140625
L 17.1875 63.140625
z
" id="ArialMT-80"/>
      <path d="M 6.5 0
L 6.5 51.859375
L 14.40625 51.859375
L 14.40625 44
Q 17.4375 49.515625 20 51.265625
Q 22.5625 53.03125 25.640625 53.03125
Q 30.078125 53.03125 34.671875 50.203125
L 31.640625 42.046875
Q 28.421875 43.953125 25.203125 43.953125
Q 22.3125 43.953125 20.015625 42.21875
Q 17.71875 40.484375 16.75 37.40625
Q 15.28125 32.71875 15.28125 27.15625
L 15.28125 0
z
" id="ArialMT-114"/>
      <path d="M 42.09375 16.703125
L 51.171875 15.578125
Q 49.03125 7.625 43.21875 3.21875
Q 37.40625 -1.171875 28.375 -1.171875
Q 17 -1.171875 10.328125 5.828125
Q 3.65625 12.84375 3.65625 25.484375
Q 3.65625 38.578125 10.390625 45.796875
Q 17.140625 53.03125 27.875 53.03125
Q 38.28125 53.03125 44.875 45.953125
Q 51.46875 38.875 51.46875 26.03125
Q 51.46875 25.25 51.421875 23.6875
L 12.75 23.6875
Q 13.234375 15.140625 17.578125 10.59375
Q 21.921875 6.0625 28.421875 6.0625
Q 33.25 6.0625 36.671875 8.59375
Q 40.09375 11.140625 42.09375 16.703125
z
M 13.234375 30.90625
L 42.1875 30.90625
Q 41.609375 37.453125 38.875 40.71875
Q 34.671875 45.796875 27.984375 45.796875
Q 21.921875 45.796875 17.796875 41.75
Q 13.671875 37.703125 13.234375 30.90625
z
" id="ArialMT-101"/>
      <path d="M 6.59375 -19.875
L 6.59375 51.859375
L 14.59375 51.859375
L 14.59375 45.125
Q 17.4375 49.078125 21 51.046875
Q 24.5625 53.03125 29.640625 53.03125
Q 36.28125 53.03125 41.359375 49.609375
Q 46.4375 46.1875 49.015625 39.953125
Q 51.609375 33.734375 51.609375 26.3125
Q 51.609375 18.359375 48.75 11.984375
Q 45.90625 5.609375 40.453125 2.21875
Q 35.015625 -1.171875 29 -1.171875
Q 24.609375 -1.171875 21.109375 0.6875
Q 17.625 2.546875 15.375 5.375
L 15.375 -19.875
z
M 14.546875 25.640625
Q 14.546875 15.625 18.59375 10.84375
Q 22.65625 6.0625 28.421875 6.0625
Q 34.28125 6.0625 38.453125 11.015625
Q 42.625 15.96875 42.625 26.375
Q 42.625 36.28125 38.546875 41.203125
Q 34.46875 46.140625 28.8125 46.140625
Q 23.1875 46.140625 18.859375 40.890625
Q 14.546875 35.640625 14.546875 25.640625
z
" id="ArialMT-112"/>
      <path d="M 6.640625 61.46875
L 6.640625 71.578125
L 15.4375 71.578125
L 15.4375 61.46875
z
M 6.640625 0
L 6.640625 51.859375
L 15.4375 51.859375
L 15.4375 0
z
" id="ArialMT-105"/>
      <path d="M 6.59375 0
L 6.59375 51.859375
L 14.5 51.859375
L 14.5 44.484375
Q 20.21875 53.03125 31 53.03125
Q 35.6875 53.03125 39.625 51.34375
Q 43.5625 49.65625 45.515625 46.921875
Q 47.46875 44.1875 48.25 40.4375
Q 48.734375 37.984375 48.734375 31.890625
L 48.734375 0
L 39.9375 0
L 39.9375 31.546875
Q 39.9375 36.921875 38.90625 39.578125
Q 37.890625 42.234375 35.28125 43.8125
Q 32.671875 45.40625 29.15625 45.40625
Q 23.53125 45.40625 19.453125 41.84375
Q 15.375 38.28125 15.375 28.328125
L 15.375 0
z
" id="ArialMT-110"/>
      <path d="M 25.78125 7.859375
L 27.046875 0.09375
Q 23.34375 -0.6875 20.40625 -0.6875
Q 15.625 -0.6875 12.984375 0.828125
Q 10.359375 2.34375 9.28125 4.8125
Q 8.203125 7.28125 8.203125 15.1875
L 8.203125 45.015625
L 1.765625 45.015625
L 1.765625 51.859375
L 8.203125 51.859375
L 8.203125 64.703125
L 16.9375 69.96875
L 16.9375 51.859375
L 25.78125 51.859375
L 25.78125 45.015625
L 16.9375 45.015625
L 16.9375 14.703125
Q 16.9375 10.9375 17.40625 9.859375
Q 17.875 8.796875 18.921875 8.15625
Q 19.96875 7.515625 21.921875 7.515625
Q 23.390625 7.515625 25.78125 7.859375
z
" id="ArialMT-116"/>
      <path d="M 28.171875 0
L 0.4375 71.578125
L 10.6875 71.578125
L 29.296875 19.578125
Q 31.546875 13.328125 33.0625 7.859375
Q 34.71875 13.71875 36.921875 19.578125
L 56.25 71.578125
L 65.921875 71.578125
L 37.890625 0
z
" id="ArialMT-86"/>
      <path d="M 3.078125 15.484375
L 11.765625 16.84375
Q 12.5 11.625 15.84375 8.84375
Q 19.1875 6.0625 25.203125 6.0625
Q 31.25 6.0625 34.171875 8.515625
Q 37.109375 10.984375 37.109375 14.3125
Q 37.109375 17.28125 34.515625 19
Q 32.71875 20.171875 25.53125 21.96875
Q 15.875 24.421875 12.140625 26.203125
Q 8.40625 27.984375 6.46875 31.125
Q 4.546875 34.28125 4.546875 38.09375
Q 4.546875 41.546875 6.125 44.5
Q 7.71875 47.46875 10.453125 49.421875
Q 12.5 50.921875 16.03125 51.96875
Q 19.578125 53.03125 23.640625 53.03125
Q 29.734375 53.03125 34.34375 51.265625
Q 38.96875 49.515625 41.15625 46.5
Q 43.359375 43.5 44.1875 38.484375
L 35.59375 37.3125
Q 35.015625 41.3125 32.203125 43.546875
Q 29.390625 45.796875 24.265625 45.796875
Q 18.21875 45.796875 15.625 43.796875
Q 13.03125 41.796875 13.03125 39.109375
Q 13.03125 37.40625 14.109375 36.03125
Q 15.1875 34.625 17.484375 33.6875
Q 18.796875 33.203125 25.25 31.453125
Q 34.578125 28.953125 38.25 27.359375
Q 41.9375 25.78125 44.03125 22.75
Q 46.140625 19.734375 46.140625 15.234375
Q 46.140625 10.84375 43.578125 6.953125
Q 41.015625 3.078125 36.171875 0.953125
Q 31.34375 -1.171875 25.25 -1.171875
Q 15.140625 -1.171875 9.84375 3.03125
Q 4.546875 7.234375 3.078125 15.484375
z
" id="ArialMT-115"/>
     </defs>
     <g transform="translate(247.128125 342.425)scale(0.1 -0.1)">
      <use xlink:href="#ArialMT-35"/>
      <use x="55.615234" xlink:href="#ArialMT-32"/>
      <use x="83.398438" xlink:href="#ArialMT-111"/>
      <use x="139.013672" xlink:href="#ArialMT-102"/>
      <use x="166.796875" xlink:href="#ArialMT-32"/>
      <use x="194.580078" xlink:href="#ArialMT-80"/>
      <use x="261.279297" xlink:href="#ArialMT-114"/>
      <use x="294.580078" xlink:href="#ArialMT-101"/>
      <use x="350.195312" xlink:href="#ArialMT-112"/>
      <use x="405.810547" xlink:href="#ArialMT-114"/>
      <use x="439.111328" xlink:href="#ArialMT-105"/>
      <use x="461.328125" xlink:href="#ArialMT-110"/>
      <use x="516.943359" xlink:href="#ArialMT-116"/>
      <use x="544.726562" xlink:href="#ArialMT-32"/>
      <use x="572.509766" xlink:href="#ArialMT-86"/>
      <use x="639.130859" xlink:href="#ArialMT-101"/>
      <use x="694.746094" xlink:href="#ArialMT-114"/>
      <use x="728.046875" xlink:href="#ArialMT-115"/>
      <use x="778.046875" xlink:href="#ArialMT-105"/>
      <use x="800.263672" xlink:href="#ArialMT-111"/>
      <use x="855.878906" xlink:href="#ArialMT-110"/>
      <use x="911.494141" xlink:href="#ArialMT-115"/>
     </g>
    </g>
   </g>
   <g id="matplotlib.axis_2">
    <g id="ytick_1">
     <g id="line2d_9">
      <defs>
       <path d="M 0 0
L -3.5 0
" id="mf7b8c8fb27" style="stroke:#000000;stroke-width:0.8;"/>
      </defs>
      <g>
       <use style="stroke:#000000;stroke-width:0.8;" x="72" xlink:href="#mf7b8c8fb27" y="315"/>
      </g>
     </g>
     <g id="text_10">
      <!-- 0 -->
      <defs>
       <path d="M 4.15625 35.296875
Q 4.15625 48 6.765625 55.734375
Q 9.375 63.484375 14.515625 67.671875
Q 19.671875 71.875 27.484375 71.875
Q 33.25 71.875 37.59375 69.546875
Q 41.9375 67.234375 44.765625 62.859375
Q 47.609375 58.5 49.21875 52.21875
Q 50.828125 45.953125 50.828125 35.296875
Q 50.828125 22.703125 48.234375 14.96875
Q 45.65625 7.234375 40.5 3
Q 35.359375 -1.21875 27.484375 -1.21875
Q 17.140625 -1.21875 11.234375 6.203125
Q 4.15625 15.140625 4.15625 35.296875
z
M 13.1875 35.296875
Q 13.1875 17.671875 17.3125 11.828125
Q 21.4375 6 27.484375 6
Q 33.546875 6 37.671875 11.859375
Q 41.796875 17.71875 41.796875 35.296875
Q 41.796875 52.984375 37.671875 58.78125
Q 33.546875 64.59375 27.390625 64.59375
Q 21.34375 64.59375 17.71875 59.46875
Q 13.1875 52.9375 13.1875 35.296875
z
" id="ArialMT-48"/>
      </defs>
      <g transform="translate(59.439062 318.578906)scale(0.1 -0.1)">
       <use xlink:href="#ArialMT-48"/>
      </g>
     </g>
    </g>
    <g id="ytick_2">
     <g id="line2d_10">
      <g>
       <use style="stroke:#000000;stroke-width:0.8;" x="72" xlink:href="#mf7b8c8fb27" y="276.677829"/>
      </g>
     </g>
     <g id="text_11">
      <!-- 200 -->
      <g transform="translate(48.317188 280.256735)scale(0.1 -0.1)">
       <use xlink:href="#ArialMT-50"/>
       <use x="55.615234" xlink:href="#ArialMT-48"/>
       <use x="111.230469" xlink:href="#ArialMT-48"/>
      </g>
     </g>
    </g>
    <g id="ytick_3">
     <g id="line2d_11">
      <g>
       <use style="stroke:#000000;stroke-width:0.8;" x="72" xlink:href="#mf7b8c8fb27" y="238.355657"/>
      </g>
     </g>
     <g id="text_12">
      <!-- 400 -->
      <g transform="translate(48.317188 241.934564)scale(0.1 -0.1)">
       <use xlink:href="#ArialMT-52"/>
       <use x="55.615234" xlink:href="#ArialMT-48"/>
       <use x="111.230469" xlink:href="#ArialMT-48"/>
      </g>
     </g>
    </g>
    <g id="ytick_4">
     <g id="line2d_12">
      <g>
       <use style="stroke:#000000;stroke-width:0.8;" x="72" xlink:href="#mf7b8c8fb27" y="200.033486"/>
      </g>
     </g>
     <g id="text_13">
      <!-- 600 -->
      <g transform="translate(48.317188 203.612392)scale(0.1 -0.1)">
       <use xlink:href="#ArialMT-54"/>
       <use x="55.615234" xlink:href="#ArialMT-48"/>
       <use x="111.230469" xlink:href="#ArialMT-48"/>
      </g>
     </g>
    </g>
    <g id="ytick_5">
     <g id="line2d_13">
      <g>
       <use style="stroke:#000000;stroke-width:0.8;" x="72" xlink:href="#mf7b8c8fb27" y="161.711315"/>
      </g>
     </g>
     <g id="text_14">
      <!-- 800 -->
      <g transform="translate(48.317188 165.290221)scale(0.1 -0.1)">
       <use xlink:href="#ArialMT-56"/>
       <use x="55.615234" xlink:href="#ArialMT-48"/>
       <use x="111.230469" xlink:href="#ArialMT-48"/>
      </g>
     </g>
    </g>
    <g id="ytick_6">
     <g id="line2d_14">
      <g>
       <use style="stroke:#000000;stroke-width:0.8;" x="72" xlink:href="#mf7b8c8fb27" y="123.389143"/>
      </g>
     </g>
     <g id="text_15">
      <!-- 1000 -->
      <g transform="translate(42.75625 126.96805)scale(0.1 -0.1)">
       <use xlink:href="#ArialMT-49"/>
       <use x="55.615234" xlink:href="#ArialMT-48"/>
       <use x="111.230469" xlink:href="#ArialMT-48"/>
       <use x="166.845703" xlink:href="#ArialMT-48"/>
      </g>
     </g>
    </g>
    <g id="ytick_7">
     <g id="line2d_15">
      <g>
       <use style="stroke:#000000;stroke-width:0.8;" x="72" xlink:href="#mf7b8c8fb27" y="85.066972"/>
      </g>
     </g>
     <g id="text_16">
      <!-- 1200 -->
      <g transform="translate(42.75625 88.645878)scale(0.1 -0.1)">
       <use xlink:href="#ArialMT-49"/>
       <use x="55.615234" xlink:href="#ArialMT-50"/>
       <use x="111.230469" xlink:href="#ArialMT-48"/>
       <use x="166.845703" xlink:href="#ArialMT-48"/>
      </g>
     </g>
    </g>
    <g id="ytick_8">
     <g id="line2d_16">
      <g>
       <use style="stroke:#000000;stroke-width:0.8;" x="72" xlink:href="#mf7b8c8fb27" y="46.744801"/>
      </g>
     </g>
     <g id="text_17">
      <!-- 1400 -->
      <g transform="translate(42.75625 50.323707)scale(0.1 -0.1)">
       <use xlink:href="#ArialMT-49"/>
       <use x="55.615234" xlink:href="#ArialMT-52"/>
       <use x="111.230469" xlink:href="#ArialMT-48"/>
       <use x="166.845703" xlink:href="#ArialMT-48"/>
      </g>
     </g>
    </g>
    <g id="text_18">
     <!-- Time Elapsed Until Bioinformatic Preprints are Published (Days) -->
     <defs>
      <path d="M 25.921875 0
L 25.921875 63.140625
L 2.34375 63.140625
L 2.34375 71.578125
L 59.078125 71.578125
L 59.078125 63.140625
L 35.40625 63.140625
L 35.40625 0
z
" id="ArialMT-84"/>
      <path d="M 6.59375 0
L 6.59375 51.859375
L 14.453125 51.859375
L 14.453125 44.578125
Q 16.890625 48.390625 20.9375 50.703125
Q 25 53.03125 30.171875 53.03125
Q 35.9375 53.03125 39.625 50.640625
Q 43.3125 48.25 44.828125 43.953125
Q 50.984375 53.03125 60.84375 53.03125
Q 68.5625 53.03125 72.703125 48.75
Q 76.859375 44.484375 76.859375 35.59375
L 76.859375 0
L 68.109375 0
L 68.109375 32.671875
Q 68.109375 37.9375 67.25 40.25
Q 66.40625 42.578125 64.15625 43.984375
Q 61.921875 45.40625 58.890625 45.40625
Q 53.421875 45.40625 49.796875 41.765625
Q 46.1875 38.140625 46.1875 30.125
L 46.1875 0
L 37.40625 0
L 37.40625 33.6875
Q 37.40625 39.546875 35.25 42.46875
Q 33.109375 45.40625 28.21875 45.40625
Q 24.515625 45.40625 21.359375 43.453125
Q 18.21875 41.5 16.796875 37.734375
Q 15.375 33.984375 15.375 26.90625
L 15.375 0
z
" id="ArialMT-109"/>
      <path d="M 7.90625 0
L 7.90625 71.578125
L 59.671875 71.578125
L 59.671875 63.140625
L 17.390625 63.140625
L 17.390625 41.21875
L 56.984375 41.21875
L 56.984375 32.8125
L 17.390625 32.8125
L 17.390625 8.453125
L 61.328125 8.453125
L 61.328125 0
z
" id="ArialMT-69"/>
      <path d="M 6.390625 0
L 6.390625 71.578125
L 15.1875 71.578125
L 15.1875 0
z
" id="ArialMT-108"/>
      <path d="M 40.4375 6.390625
Q 35.546875 2.25 31.03125 0.53125
Q 26.515625 -1.171875 21.34375 -1.171875
Q 12.796875 -1.171875 8.203125 3
Q 3.609375 7.171875 3.609375 13.671875
Q 3.609375 17.484375 5.34375 20.625
Q 7.078125 23.78125 9.890625 25.6875
Q 12.703125 27.59375 16.21875 28.5625
Q 18.796875 29.25 24.03125 29.890625
Q 34.671875 31.15625 39.703125 32.90625
Q 39.75 34.71875 39.75 35.203125
Q 39.75 40.578125 37.25 42.78125
Q 33.890625 45.75 27.25 45.75
Q 21.046875 45.75 18.09375 43.578125
Q 15.140625 41.40625 13.71875 35.890625
L 5.125 37.0625
Q 6.296875 42.578125 8.984375 45.96875
Q 11.671875 49.359375 16.75 51.1875
Q 21.828125 53.03125 28.515625 53.03125
Q 35.15625 53.03125 39.296875 51.46875
Q 43.453125 49.90625 45.40625 47.53125
Q 47.359375 45.171875 48.140625 41.546875
Q 48.578125 39.3125 48.578125 33.453125
L 48.578125 21.734375
Q 48.578125 9.46875 49.140625 6.21875
Q 49.703125 2.984375 51.375 0
L 42.1875 0
Q 40.828125 2.734375 40.4375 6.390625
z
M 39.703125 26.03125
Q 34.90625 24.078125 25.34375 22.703125
Q 19.921875 21.921875 17.671875 20.9375
Q 15.4375 19.96875 14.203125 18.09375
Q 12.984375 16.21875 12.984375 13.921875
Q 12.984375 10.40625 15.640625 8.0625
Q 18.3125 5.71875 23.4375 5.71875
Q 28.515625 5.71875 32.46875 7.9375
Q 36.421875 10.15625 38.28125 14.015625
Q 39.703125 17 39.703125 22.796875
z
" id="ArialMT-97"/>
      <path d="M 40.234375 0
L 40.234375 6.546875
Q 35.296875 -1.171875 25.734375 -1.171875
Q 19.53125 -1.171875 14.328125 2.25
Q 9.125 5.671875 6.265625 11.796875
Q 3.421875 17.921875 3.421875 25.875
Q 3.421875 33.640625 6 39.96875
Q 8.59375 46.296875 13.765625 49.65625
Q 18.953125 53.03125 25.34375 53.03125
Q 30.03125 53.03125 33.6875 51.046875
Q 37.359375 49.078125 39.65625 45.90625
L 39.65625 71.578125
L 48.390625 71.578125
L 48.390625 0
z
M 12.453125 25.875
Q 12.453125 15.921875 16.640625 10.984375
Q 20.84375 6.0625 26.5625 6.0625
Q 32.328125 6.0625 36.34375 10.765625
Q 40.375 15.484375 40.375 25.140625
Q 40.375 35.796875 36.265625 40.765625
Q 32.171875 45.75 26.171875 45.75
Q 20.3125 45.75 16.375 40.96875
Q 12.453125 36.1875 12.453125 25.875
z
" id="ArialMT-100"/>
      <path d="M 54.6875 71.578125
L 64.15625 71.578125
L 64.15625 30.21875
Q 64.15625 19.4375 61.71875 13.078125
Q 59.28125 6.734375 52.90625 2.75
Q 46.53125 -1.21875 36.1875 -1.21875
Q 26.125 -1.21875 19.71875 2.25
Q 13.328125 5.71875 10.59375 12.28125
Q 7.859375 18.84375 7.859375 30.21875
L 7.859375 71.578125
L 17.328125 71.578125
L 17.328125 30.28125
Q 17.328125 20.953125 19.0625 16.53125
Q 20.796875 12.109375 25.015625 9.71875
Q 29.25 7.328125 35.359375 7.328125
Q 45.796875 7.328125 50.234375 12.0625
Q 54.6875 16.796875 54.6875 30.28125
z
" id="ArialMT-85"/>
      <path d="M 7.328125 0
L 7.328125 71.578125
L 34.1875 71.578125
Q 42.390625 71.578125 47.34375 69.40625
Q 52.296875 67.234375 55.09375 62.71875
Q 57.90625 58.203125 57.90625 53.265625
Q 57.90625 48.6875 55.421875 44.625
Q 52.9375 40.578125 47.90625 38.09375
Q 54.390625 36.1875 57.875 31.59375
Q 61.375 27 61.375 20.75
Q 61.375 15.71875 59.25 11.390625
Q 57.125 7.078125 54 4.734375
Q 50.875 2.390625 46.15625 1.1875
Q 41.453125 0 34.625 0
z
M 16.796875 41.5
L 32.28125 41.5
Q 38.578125 41.5 41.3125 42.328125
Q 44.921875 43.40625 46.75 45.890625
Q 48.578125 48.390625 48.578125 52.15625
Q 48.578125 55.71875 46.875 58.421875
Q 45.171875 61.140625 41.984375 62.140625
Q 38.8125 63.140625 31.109375 63.140625
L 16.796875 63.140625
z
M 16.796875 8.453125
L 34.625 8.453125
Q 39.203125 8.453125 41.0625 8.796875
Q 44.34375 9.375 46.53125 10.734375
Q 48.734375 12.109375 50.140625 14.71875
Q 51.5625 17.328125 51.5625 20.75
Q 51.5625 24.75 49.515625 27.703125
Q 47.46875 30.671875 43.828125 31.859375
Q 40.1875 33.0625 33.34375 33.0625
L 16.796875 33.0625
z
" id="ArialMT-66"/>
      <path d="M 40.4375 19
L 49.078125 17.875
Q 47.65625 8.9375 41.8125 3.875
Q 35.984375 -1.171875 27.484375 -1.171875
Q 16.84375 -1.171875 10.375 5.78125
Q 3.90625 12.75 3.90625 25.734375
Q 3.90625 34.125 6.6875 40.421875
Q 9.46875 46.734375 15.15625 49.875
Q 20.84375 53.03125 27.546875 53.03125
Q 35.984375 53.03125 41.359375 48.75
Q 46.734375 44.484375 48.25 36.625
L 39.703125 35.296875
Q 38.484375 40.53125 35.375 43.15625
Q 32.28125 45.796875 27.875 45.796875
Q 21.234375 45.796875 17.078125 41.03125
Q 12.9375 36.28125 12.9375 25.984375
Q 12.9375 15.53125 16.9375 10.796875
Q 20.953125 6.0625 27.390625 6.0625
Q 32.5625 6.0625 36.03125 9.234375
Q 39.5 12.40625 40.4375 19
z
" id="ArialMT-99"/>
      <path d="M 40.578125 0
L 40.578125 7.625
Q 34.515625 -1.171875 24.125 -1.171875
Q 19.53125 -1.171875 15.546875 0.578125
Q 11.578125 2.34375 9.640625 5
Q 7.71875 7.671875 6.9375 11.53125
Q 6.390625 14.109375 6.390625 19.734375
L 6.390625 51.859375
L 15.1875 51.859375
L 15.1875 23.09375
Q 15.1875 16.21875 15.71875 13.8125
Q 16.546875 10.359375 19.234375 8.375
Q 21.921875 6.390625 25.875 6.390625
Q 29.828125 6.390625 33.296875 8.421875
Q 36.765625 10.453125 38.203125 13.9375
Q 39.65625 17.4375 39.65625 24.078125
L 39.65625 51.859375
L 48.4375 51.859375
L 48.4375 0
z
" id="ArialMT-117"/>
      <path d="M 14.703125 0
L 6.546875 0
L 6.546875 71.578125
L 15.328125 71.578125
L 15.328125 46.046875
Q 20.90625 53.03125 29.546875 53.03125
Q 34.328125 53.03125 38.59375 51.09375
Q 42.875 49.171875 45.625 45.671875
Q 48.390625 42.1875 49.953125 37.25
Q 51.515625 32.328125 51.515625 26.703125
Q 51.515625 13.375 44.921875 6.09375
Q 38.328125 -1.171875 29.109375 -1.171875
Q 19.921875 -1.171875 14.703125 6.5
z
M 14.59375 26.3125
Q 14.59375 17 17.140625 12.84375
Q 21.296875 6.0625 28.375 6.0625
Q 34.125 6.0625 38.328125 11.0625
Q 42.53125 16.0625 42.53125 25.984375
Q 42.53125 36.140625 38.5 40.96875
Q 34.46875 45.796875 28.765625 45.796875
Q 23 45.796875 18.796875 40.796875
Q 14.59375 35.796875 14.59375 26.3125
z
" id="ArialMT-98"/>
      <path d="M 6.59375 0
L 6.59375 71.578125
L 15.375 71.578125
L 15.375 45.90625
Q 21.53125 53.03125 30.90625 53.03125
Q 36.671875 53.03125 40.921875 50.75
Q 45.171875 48.484375 47 44.484375
Q 48.828125 40.484375 48.828125 32.859375
L 48.828125 0
L 40.046875 0
L 40.046875 32.859375
Q 40.046875 39.453125 37.1875 42.453125
Q 34.328125 45.453125 29.109375 45.453125
Q 25.203125 45.453125 21.75 43.421875
Q 18.3125 41.40625 16.84375 37.9375
Q 15.375 34.46875 15.375 28.375
L 15.375 0
z
" id="ArialMT-104"/>
      <path d="M 23.390625 -21.046875
Q 16.109375 -11.859375 11.078125 0.4375
Q 6.0625 12.75 6.0625 25.921875
Q 6.0625 37.546875 9.8125 48.1875
Q 14.203125 60.546875 23.390625 72.796875
L 29.6875 72.796875
Q 23.78125 62.640625 21.875 58.296875
Q 18.890625 51.5625 17.1875 44.234375
Q 15.09375 35.109375 15.09375 25.875
Q 15.09375 2.390625 29.6875 -21.046875
z
" id="ArialMT-40"/>
      <path d="M 7.71875 0
L 7.71875 71.578125
L 32.375 71.578125
Q 40.71875 71.578125 45.125 70.5625
Q 51.265625 69.140625 55.609375 65.4375
Q 61.28125 60.640625 64.078125 53.1875
Q 66.890625 45.75 66.890625 36.1875
Q 66.890625 28.03125 64.984375 21.734375
Q 63.09375 15.4375 60.109375 11.296875
Q 57.125 7.171875 53.578125 4.796875
Q 50.046875 2.4375 45.046875 1.21875
Q 40.046875 0 33.546875 0
z
M 17.1875 8.453125
L 32.46875 8.453125
Q 39.546875 8.453125 43.578125 9.765625
Q 47.609375 11.078125 50 13.484375
Q 53.375 16.84375 55.25 22.53125
Q 57.125 28.21875 57.125 36.328125
Q 57.125 47.5625 53.4375 53.59375
Q 49.75 59.625 44.484375 61.671875
Q 40.671875 63.140625 32.234375 63.140625
L 17.1875 63.140625
z
" id="ArialMT-68"/>
      <path d="M 6.203125 -19.96875
L 5.21875 -11.71875
Q 8.109375 -12.5 10.25 -12.5
Q 13.1875 -12.5 14.9375 -11.515625
Q 16.703125 -10.546875 17.828125 -8.796875
Q 18.65625 -7.46875 20.515625 -2.25
Q 20.75 -1.515625 21.296875 -0.09375
L 1.609375 51.859375
L 11.078125 51.859375
L 21.875 21.828125
Q 23.96875 16.109375 25.640625 9.8125
Q 27.15625 15.875 29.25 21.625
L 40.328125 51.859375
L 49.125 51.859375
L 29.390625 -0.875
Q 26.21875 -9.421875 24.46875 -12.640625
Q 22.125 -17 19.09375 -19.015625
Q 16.0625 -21.046875 11.859375 -21.046875
Q 9.328125 -21.046875 6.203125 -19.96875
z
" id="ArialMT-121"/>
      <path d="M 12.359375 -21.046875
L 6.0625 -21.046875
Q 20.65625 2.390625 20.65625 25.875
Q 20.65625 35.0625 18.5625 44.09375
Q 16.890625 51.421875 13.921875 58.15625
Q 12.015625 62.546875 6.0625 72.796875
L 12.359375 72.796875
Q 21.53125 60.546875 25.921875 48.1875
Q 29.6875 37.546875 29.6875 25.921875
Q 29.6875 12.75 24.625 0.4375
Q 19.578125 -11.859375 12.359375 -21.046875
z
" id="ArialMT-41"/>
     </defs>
     <g transform="translate(36.651562 320.811719)rotate(-90)scale(0.1 -0.1)">
      <use xlink:href="#ArialMT-84"/>
      <use x="61.037109" xlink:href="#ArialMT-105"/>
      <use x="83.253906" xlink:href="#ArialMT-109"/>
      <use x="166.554688" xlink:href="#ArialMT-101"/>
      <use x="222.169922" xlink:href="#ArialMT-32"/>
      <use x="249.953125" xlink:href="#ArialMT-69"/>
      <use x="316.652344" xlink:href="#ArialMT-108"/>
      <use x="338.869141" xlink:href="#ArialMT-97"/>
      <use x="394.484375" xlink:href="#ArialMT-112"/>
      <use x="450.099609" xlink:href="#ArialMT-115"/>
      <use x="500.099609" xlink:href="#ArialMT-101"/>
      <use x="555.714844" xlink:href="#ArialMT-100"/>
      <use x="611.330078" xlink:href="#ArialMT-32"/>
      <use x="639.113281" xlink:href="#ArialMT-85"/>
      <use x="711.330078" xlink:href="#ArialMT-110"/>
      <use x="766.945312" xlink:href="#ArialMT-116"/>
      <use x="794.728516" xlink:href="#ArialMT-105"/>
      <use x="816.945312" xlink:href="#ArialMT-108"/>
      <use x="839.162109" xlink:href="#ArialMT-32"/>
      <use x="866.945312" xlink:href="#ArialMT-66"/>
      <use x="933.644531" xlink:href="#ArialMT-105"/>
      <use x="955.861328" xlink:href="#ArialMT-111"/>
      <use x="1011.476562" xlink:href="#ArialMT-105"/>
      <use x="1033.693359" xlink:href="#ArialMT-110"/>
      <use x="1089.308594" xlink:href="#ArialMT-102"/>
      <use x="1117.091797" xlink:href="#ArialMT-111"/>
      <use x="1172.707031" xlink:href="#ArialMT-114"/>
      <use x="1206.007812" xlink:href="#ArialMT-109"/>
      <use x="1289.308594" xlink:href="#ArialMT-97"/>
      <use x="1344.923828" xlink:href="#ArialMT-116"/>
      <use x="1372.707031" xlink:href="#ArialMT-105"/>
      <use x="1394.923828" xlink:href="#ArialMT-99"/>
      <use x="1444.923828" xlink:href="#ArialMT-32"/>
      <use x="1472.707031" xlink:href="#ArialMT-80"/>
      <use x="1539.40625" xlink:href="#ArialMT-114"/>
      <use x="1572.707031" xlink:href="#ArialMT-101"/>
      <use x="1628.322266" xlink:href="#ArialMT-112"/>
      <use x="1683.9375" xlink:href="#ArialMT-114"/>
      <use x="1717.238281" xlink:href="#ArialMT-105"/>
      <use x="1739.455078" xlink:href="#ArialMT-110"/>
      <use x="1795.070312" xlink:href="#ArialMT-116"/>
      <use x="1822.853516" xlink:href="#ArialMT-115"/>
      <use x="1872.853516" xlink:href="#ArialMT-32"/>
      <use x="1900.636719" xlink:href="#ArialMT-97"/>
      <use x="1956.251953" xlink:href="#ArialMT-114"/>
      <use x="1989.552734" xlink:href="#ArialMT-101"/>
      <use x="2045.167969" xlink:href="#ArialMT-32"/>
      <use x="2072.951172" xlink:href="#ArialMT-80"/>
      <use x="2139.650391" xlink:href="#ArialMT-117"/>
      <use x="2195.265625" xlink:href="#ArialMT-98"/>
      <use x="2250.880859" xlink:href="#ArialMT-108"/>
      <use x="2273.097656" xlink:href="#ArialMT-105"/>
      <use x="2295.314453" xlink:href="#ArialMT-115"/>
      <use x="2345.314453" xlink:href="#ArialMT-104"/>
      <use x="2400.929688" xlink:href="#ArialMT-101"/>
      <use x="2456.544922" xlink:href="#ArialMT-100"/>
      <use x="2512.160156" xlink:href="#ArialMT-32"/>
      <use x="2539.943359" xlink:href="#ArialMT-40"/>
      <use x="2573.244141" xlink:href="#ArialMT-68"/>
      <use x="2645.460938" xlink:href="#ArialMT-97"/>
      <use x="2701.076172" xlink:href="#ArialMT-121"/>
      <use x="2751.076172" xlink:href="#ArialMT-115"/>
      <use x="2801.076172" xlink:href="#ArialMT-41"/>
     </g>
    </g>
   </g>
   <g id="line2d_17">
    <path clip-path="url(#p6740cb89eb)" d="M 98.258824 314.808389
L 98.258824 225.709341
" style="fill:none;stroke:#343434;stroke-linecap:square;stroke-width:1.5;"/>
   </g>
   <g id="line2d_18">
    <path clip-path="url(#p6740cb89eb)" d="M 98.258824 293.731195
L 98.258824 266.28294
" style="fill:none;stroke:#343434;stroke-linecap:square;stroke-width:4.5;"/>
   </g>
   <g id="line2d_19">
    <path clip-path="url(#p6740cb89eb)" d="M 150.776471 312.125837
L 150.776471 205.781812
" style="fill:none;stroke:#343434;stroke-linecap:square;stroke-width:1.5;"/>
   </g>
   <g id="line2d_20">
    <path clip-path="url(#p6740cb89eb)" d="M 150.776471 285.491928
L 150.776471 253.301304
" style="fill:none;stroke:#343434;stroke-linecap:square;stroke-width:4.5;"/>
   </g>
   <g id="line2d_21">
    <path clip-path="url(#p6740cb89eb)" d="M 203.294118 307.718787
L 203.294118 187.195559
" style="fill:none;stroke:#343434;stroke-linecap:square;stroke-width:1.5;"/>
   </g>
   <g id="line2d_22">
    <path clip-path="url(#p6740cb89eb)" d="M 203.294118 276.150899
L 203.294118 240.463377
" style="fill:none;stroke:#343434;stroke-linecap:square;stroke-width:4.5;"/>
   </g>
   <g id="line2d_23">
    <path clip-path="url(#p6740cb89eb)" d="M 255.811765 310.976172
L 255.811765 158.45393
" style="fill:none;stroke:#343434;stroke-linecap:square;stroke-width:1.5;"/>
   </g>
   <g id="line2d_24">
    <path clip-path="url(#p6740cb89eb)" d="M 255.811765 265.181177
L 255.811765 222.068735
" style="fill:none;stroke:#343434;stroke-linecap:square;stroke-width:4.5;"/>
   </g>
   <g id="line2d_25">
    <path clip-path="url(#p6740cb89eb)" d="M 308.329412 274.378498
L 308.329412 203.865703
" style="fill:none;stroke:#343434;stroke-linecap:square;stroke-width:1.5;"/>
   </g>
   <g id="line2d_26">
    <path clip-path="url(#p6740cb89eb)" d="M 308.329412 257.708354
L 308.329412 231.074445
" style="fill:none;stroke:#343434;stroke-linecap:square;stroke-width:4.5;"/>
   </g>
   <g id="line2d_27">
    <path clip-path="url(#p6740cb89eb)" d="M 360.847059 261.34896
L 360.847059 205.590201
" style="fill:none;stroke:#343434;stroke-linecap:square;stroke-width:1.5;"/>
   </g>
   <g id="line2d_28">
    <path clip-path="url(#p6740cb89eb)" d="M 360.847059 253.684526
L 360.847059 218.332323
" style="fill:none;stroke:#343434;stroke-linecap:square;stroke-width:4.5;"/>
   </g>
   <g id="line2d_29">
    <path clip-path="url(#p6740cb89eb)" d="M 413.364706 269.971449
L 413.364706 251.193585
" style="fill:none;stroke:#343434;stroke-linecap:square;stroke-width:1.5;"/>
   </g>
   <g id="line2d_30">
    <path clip-path="url(#p6740cb89eb)" d="M 413.364706 265.276983
L 413.364706 255.888051
" style="fill:none;stroke:#343434;stroke-linecap:square;stroke-width:4.5;"/>
   </g>
   <g id="line2d_31">
    <path clip-path="url(#p6740cb89eb)" d="M 465.882353 291.240254
L 465.882353 167.45964
" style="fill:none;stroke:#343434;stroke-linecap:square;stroke-width:1.5;"/>
   </g>
   <g id="line2d_32">
    <path clip-path="url(#p6740cb89eb)" d="M 465.882353 260.2951
L 465.882353 198.404794
" style="fill:none;stroke:#343434;stroke-linecap:square;stroke-width:4.5;"/>
   </g>
   <g id="line2d_33">
    <path clip-path="url(#p6740cb89eb)" d="M 64.97046 273.328591
L 577 239.26163
" style="fill:none;stroke:#000000;stroke-dasharray:5.55,2.4;stroke-dashoffset:0;stroke-width:1.5;"/>
   </g>
   <g id="patch_3">
    <path d="M 72 315
L 72 43.2
" style="fill:none;stroke:#000000;stroke-linecap:square;stroke-linejoin:miter;stroke-width:0.8;"/>
   </g>
   <g id="patch_4">
    <path d="M 518.4 315
L 518.4 43.2
" style="fill:none;stroke:#000000;stroke-linecap:square;stroke-linejoin:miter;stroke-width:0.8;"/>
   </g>
   <g id="patch_5">
    <path d="M 72 315
L 518.4 315
" style="fill:none;stroke:#000000;stroke-linecap:square;stroke-linejoin:miter;stroke-width:0.8;"/>
   </g>
   <g id="patch_6">
    <path d="M 72 43.2
L 518.4 43.2
" style="fill:none;stroke:#000000;stroke-linecap:square;stroke-linejoin:miter;stroke-width:0.8;"/>
   </g>
   <g id="PathCollection_1">
    <defs>
     <path d="M 0 1.5
C 0.397805 1.5 0.77937 1.341951 1.06066 1.06066
C 1.341951 0.77937 1.5 0.397805 1.5 0
C 1.5 -0.397805 1.341951 -0.77937 1.06066 -1.06066
C 0.77937 -1.341951 0.397805 -1.5 0 -1.5
C -0.397805 -1.5 -0.77937 -1.341951 -1.06066 -1.06066
C -1.341951 -0.77937 -1.5 -0.397805 -1.5 0
C -1.5 0.397805 -1.341951 0.77937 -1.06066 1.06066
C -0.77937 1.341951 -0.397805 1.5 0 1.5
z
" id="m5c9e9f8b41" style="stroke:#343434;"/>
    </defs>
    <g clip-path="url(#p6740cb89eb)">
     <use style="fill:#ffffff;stroke:#343434;" x="98.258824" xlink:href="#m5c9e9f8b41" y="281.851322"/>
    </g>
   </g>
   <g id="PathCollection_2">
    <g clip-path="url(#p6740cb89eb)">
     <use style="fill:#ffffff;stroke:#343434;" x="150.776471" xlink:href="#m5c9e9f8b41" y="273.228833"/>
    </g>
   </g>
   <g id="PathCollection_3">
    <g clip-path="url(#p6740cb89eb)">
     <use style="fill:#ffffff;stroke:#343434;" x="203.294118" xlink:href="#m5c9e9f8b41" y="262.115404"/>
    </g>
   </g>
   <g id="PathCollection_4">
    <g clip-path="url(#p6740cb89eb)">
     <use style="fill:#ffffff;stroke:#343434;" x="255.811765" xlink:href="#m5c9e9f8b41" y="251.001974"/>
    </g>
   </g>
   <g id="PathCollection_5">
    <g clip-path="url(#p6740cb89eb)">
     <use style="fill:#ffffff;stroke:#343434;" x="308.329412" xlink:href="#m5c9e9f8b41" y="241.996264"/>
    </g>
   </g>
   <g id="PathCollection_6">
    <g clip-path="url(#p6740cb89eb)">
     <use style="fill:#ffffff;stroke:#343434;" x="360.847059" xlink:href="#m5c9e9f8b41" y="235.864716"/>
    </g>
   </g>
   <g id="PathCollection_7">
    <g clip-path="url(#p6740cb89eb)">
     <use style="fill:#ffffff;stroke:#343434;" x="413.364706" xlink:href="#m5c9e9f8b41" y="260.582517"/>
    </g>
   </g>
   <g id="PathCollection_8">
    <g clip-path="url(#p6740cb89eb)">
     <use style="fill:#ffffff;stroke:#343434;" x="465.882353" xlink:href="#m5c9e9f8b41" y="229.349947"/>
    </g>
   </g>
   <g id="text_19">
    <!-- Y=18.24*X+210.80 -->
    <defs>
     <path d="M 27.875 0
L 27.875 30.328125
L 0.296875 71.578125
L 11.8125 71.578125
L 25.921875 50
Q 29.828125 43.953125 33.203125 37.890625
Q 36.421875 43.5 41.015625 50.53125
L 54.890625 71.578125
L 65.921875 71.578125
L 37.359375 30.328125
L 37.359375 0
z
" id="ArialMT-89"/>
     <path d="M 52.828125 42.09375
L 5.5625 42.09375
L 5.5625 50.296875
L 52.828125 50.296875
z
M 52.828125 20.359375
L 5.5625 20.359375
L 5.5625 28.5625
L 52.828125 28.5625
z
" id="ArialMT-61"/>
     <path d="M 9.078125 0
L 9.078125 10.015625
L 19.09375 10.015625
L 19.09375 0
z
" id="ArialMT-46"/>
     <path d="M 3.125 58.453125
L 5.375 65.375
Q 13.140625 62.640625 16.65625 60.640625
Q 15.71875 69.484375 15.671875 72.796875
L 22.75 72.796875
Q 22.609375 67.96875 21.625 60.6875
Q 26.65625 63.234375 33.15625 65.375
L 35.40625 58.453125
Q 29.203125 56.390625 23.25 55.71875
Q 26.21875 53.125 31.640625 46.484375
L 25.78125 42.328125
Q 22.953125 46.1875 19.09375 52.828125
Q 15.484375 45.953125 12.75 42.328125
L 6.984375 46.484375
Q 12.640625 53.46875 15.09375 55.71875
Q 8.796875 56.9375 3.125 58.453125
z
" id="ArialMT-42"/>
     <path d="M 0.4375 0
L 28.125 37.3125
L 3.71875 71.578125
L 14.984375 71.578125
L 27.984375 53.21875
Q 32.03125 47.515625 33.734375 44.4375
Q 36.140625 48.34375 39.40625 52.59375
L 53.8125 71.578125
L 64.109375 71.578125
L 38.96875 37.84375
L 66.0625 0
L 54.34375 0
L 36.328125 25.53125
Q 34.8125 27.734375 33.203125 30.328125
Q 30.8125 26.421875 29.78125 24.953125
L 11.8125 0
z
" id="ArialMT-88"/>
     <path d="M 25.046875 11.578125
L 25.046875 31.203125
L 5.5625 31.203125
L 5.5625 39.40625
L 25.046875 39.40625
L 25.046875 58.890625
L 33.34375 58.890625
L 33.34375 39.40625
L 52.828125 39.40625
L 52.828125 31.203125
L 33.34375 31.203125
L 33.34375 11.578125
z
" id="ArialMT-43"/>
    </defs>
    <g transform="translate(413.364706 85.066972)scale(0.1 -0.1)">
     <use xlink:href="#ArialMT-89"/>
     <use x="66.699219" xlink:href="#ArialMT-61"/>
     <use x="125.097656" xlink:href="#ArialMT-49"/>
     <use x="180.712891" xlink:href="#ArialMT-56"/>
     <use x="236.328125" xlink:href="#ArialMT-46"/>
     <use x="264.111328" xlink:href="#ArialMT-50"/>
     <use x="319.726562" xlink:href="#ArialMT-52"/>
     <use x="375.341797" xlink:href="#ArialMT-42"/>
     <use x="414.257812" xlink:href="#ArialMT-88"/>
     <use x="480.957031" xlink:href="#ArialMT-43"/>
     <use x="539.355469" xlink:href="#ArialMT-50"/>
     <use x="594.970703" xlink:href="#ArialMT-49"/>
     <use x="650.585938" xlink:href="#ArialMT-48"/>
     <use x="706.201172" xlink:href="#ArialMT-46"/>
     <use x="733.984375" xlink:href="#ArialMT-56"/>
     <use x="789.599609" xlink:href="#ArialMT-48"/>
    </g>
   </g>
  </g>
 </g>
 <defs>
  <clipPath id="p6740cb89eb">
   <rect height="271.8" width="446.4" x="72" y="43.2"/>
  </clipPath>
 </defs>
</svg>
