<?xml version="1.0" encoding="utf-8" standalone="no"?>
<!DOCTYPE svg PUBLIC "-//W3C//DTD SVG 1.1//EN"
  "http://www.w3.org/Graphics/SVG/1.1/DTD/svg11.dtd">
<!-- Created with matplotlib (https://matplotlib.org/) -->
<svg height="360pt" version="1.1" viewBox="0 0 576 360" width="576pt" xmlns="http://www.w3.org/2000/svg" xmlns:xlink="http://www.w3.org/1999/xlink">
 <defs>
  <style type="text/css">
*{stroke-linecap:butt;stroke-linejoin:round;}
  </style>
 </defs>
 <g id="figure_1">
  <g id="patch_1">
   <path d="M 0 360 
L 576 360 
L 576 0 
L 0 0 
z
" style="fill:#ffffff;"/>
  </g>
  <g id="axes_1">
   <g id="patch_2">
    <path d="M 72 315 
L 518.4 315 
L 518.4 43.2 
L 72 43.2 
z
" style="fill:#ffffff;"/>
   </g>
   <g id="PolyCollection_1">
    <defs>
     <path d="M 92.32087 -45 
L 88.87913 -45 
L 87.236816 -47.090228 
L 85.337214 -49.180455 
L 83.528325 -51.270683 
L 81.934358 -53.360911 
L 80.414468 -55.451139 
L 78.819286 -57.541366 
L 77.320765 -59.631594 
L 76.273712 -61.721822 
L 75.791659 -63.812049 
L 75.72 -65.902277 
L 75.96276 -67.992505 
L 76.545293 -70.082733 
L 77.421483 -72.17296 
L 78.49189 -74.263188 
L 79.678697 -76.353416 
L 80.863761 -78.443644 
L 81.980978 -80.533871 
L 83.065869 -82.624099 
L 84.077523 -84.714327 
L 84.9055 -86.804554 
L 85.585422 -88.894782 
L 86.236788 -90.98501 
L 86.846219 -93.075238 
L 87.343336 -95.165465 
L 87.760128 -97.255693 
L 88.170458 -99.345921 
L 88.557965 -101.436148 
L 88.863172 -103.526376 
L 89.091157 -105.616604 
L 89.272645 -107.706832 
L 89.426304 -109.797059 
L 89.558317 -111.887287 
L 89.67088 -113.977515 
L 89.785534 -116.067743 
L 89.904358 -118.15797 
L 89.99212 -120.248198 
L 90.036422 -122.338426 
L 90.069274 -124.428653 
L 90.111465 -126.518881 
L 90.15031 -128.609109 
L 90.185845 -130.699337 
L 90.231439 -132.789564 
L 90.275561 -134.879792 
L 90.302113 -136.97002 
L 90.320073 -139.060247 
L 90.342563 -141.150475 
L 90.369828 -143.240703 
L 90.399278 -145.330931 
L 90.431726 -147.421158 
L 90.46337 -149.511386 
L 90.486779 -151.601614 
L 90.501457 -153.691841 
L 90.509386 -155.782069 
L 90.511593 -157.872297 
L 90.513587 -159.962525 
L 90.518995 -162.052752 
L 90.526484 -164.14298 
L 90.537006 -166.233208 
L 90.548857 -168.323436 
L 90.554821 -170.413663 
L 90.555131 -172.503891 
L 90.557858 -174.594119 
L 90.564562 -176.684346 
L 90.56935 -178.774574 
L 90.567262 -180.864802 
L 90.561245 -182.95503 
L 90.560746 -185.045257 
L 90.569815 -187.135485 
L 90.582765 -189.225713 
L 90.591231 -191.31594 
L 90.591723 -193.406168 
L 90.587738 -195.496396 
L 90.584111 -197.586624 
L 90.580001 -199.676851 
L 90.574738 -201.767079 
L 90.574111 -203.857307 
L 90.579327 -205.947535 
L 90.584303 -208.037762 
L 90.586215 -210.12799 
L 90.585053 -212.218218 
L 90.580644 -214.308445 
L 90.576416 -216.398673 
L 90.576703 -218.488901 
L 90.581827 -220.579129 
L 90.589516 -222.669356 
L 90.595964 -224.759584 
L 90.599035 -226.849812 
L 90.599839 -228.940039 
L 90.599782 -231.030267 
L 90.598931 -233.120495 
L 90.596775 -235.210723 
L 90.59432 -237.30095 
L 90.59416 -239.391178 
L 90.596489 -241.481406 
L 90.59869 -243.571633 
L 90.599203 -245.661861 
L 90.59787 -247.752089 
L 90.595288 -249.842317 
L 90.593835 -251.932544 
L 90.606165 -251.932544 
L 90.606165 -251.932544 
L 90.604712 -249.842317 
L 90.60213 -247.752089 
L 90.600797 -245.661861 
L 90.60131 -243.571633 
L 90.603511 -241.481406 
L 90.60584 -239.391178 
L 90.60568 -237.30095 
L 90.603225 -235.210723 
L 90.601069 -233.120495 
L 90.600218 -231.030267 
L 90.600161 -228.940039 
L 90.600965 -226.849812 
L 90.604036 -224.759584 
L 90.610484 -222.669356 
L 90.618173 -220.579129 
L 90.623297 -218.488901 
L 90.623584 -216.398673 
L 90.619356 -214.308445 
L 90.614947 -212.218218 
L 90.613785 -210.12799 
L 90.615697 -208.037762 
L 90.620673 -205.947535 
L 90.625889 -203.857307 
L 90.625262 -201.767079 
L 90.619999 -199.676851 
L 90.615889 -197.586624 
L 90.612262 -195.496396 
L 90.608277 -193.406168 
L 90.608769 -191.31594 
L 90.617235 -189.225713 
L 90.630185 -187.135485 
L 90.639254 -185.045257 
L 90.638755 -182.95503 
L 90.632738 -180.864802 
L 90.63065 -178.774574 
L 90.635438 -176.684346 
L 90.642142 -174.594119 
L 90.644869 -172.503891 
L 90.645179 -170.413663 
L 90.651143 -168.323436 
L 90.662994 -166.233208 
L 90.673516 -164.14298 
L 90.681005 -162.052752 
L 90.686413 -159.962525 
L 90.688407 -157.872297 
L 90.690614 -155.782069 
L 90.698543 -153.691841 
L 90.713221 -151.601614 
L 90.73663 -149.511386 
L 90.768274 -147.421158 
L 90.800722 -145.330931 
L 90.830172 -143.240703 
L 90.857437 -141.150475 
L 90.879927 -139.060247 
L 90.897887 -136.97002 
L 90.924439 -134.879792 
L 90.968561 -132.789564 
L 91.014155 -130.699337 
L 91.04969 -128.609109 
L 91.088535 -126.518881 
L 91.130726 -124.428653 
L 91.163578 -122.338426 
L 91.20788 -120.248198 
L 91.295642 -118.15797 
L 91.414466 -116.067743 
L 91.52912 -113.977515 
L 91.641683 -111.887287 
L 91.773696 -109.797059 
L 91.927355 -107.706832 
L 92.108843 -105.616604 
L 92.336828 -103.526376 
L 92.642035 -101.436148 
L 93.029542 -99.345921 
L 93.439872 -97.255693 
L 93.856664 -95.165465 
L 94.353781 -93.075238 
L 94.963212 -90.98501 
L 95.614578 -88.894782 
L 96.2945 -86.804554 
L 97.122477 -84.714327 
L 98.134131 -82.624099 
L 99.219022 -80.533871 
L 100.336239 -78.443644 
L 101.521303 -76.353416 
L 102.70811 -74.263188 
L 103.778517 -72.17296 
L 104.654707 -70.082733 
L 105.23724 -67.992505 
L 105.48 -65.902277 
L 105.408341 -63.812049 
L 104.926288 -61.721822 
L 103.879235 -59.631594 
L 102.380714 -57.541366 
L 100.785532 -55.451139 
L 99.265642 -53.360911 
L 97.671675 -51.270683 
L 95.862786 -49.180455 
L 93.963184 -47.090228 
L 92.32087 -45 
z
" id="mc262e4c9fd" style="stroke:#2d2d2d;stroke-width:1.5;"/>
    </defs>
    <g clip-path="url(#p32b2c9f331)">
     <use style="fill:#eff4c8;stroke:#2d2d2d;stroke-width:1.5;" x="0" xlink:href="#mc262e4c9fd" y="360"/>
    </g>
   </g>
   <g id="PolyCollection_2">
    <defs>
     <path d="M 128.899954 -45.30634 
L 126.700046 -45.30634 
L 125.698817 -47.917964 
L 124.312029 -50.529588 
L 122.553534 -53.141213 
L 120.49308 -55.752837 
L 118.301216 -58.364461 
L 116.2274 -60.976085 
L 114.546651 -63.58771 
L 113.453108 -66.199334 
L 112.951915 -68.810958 
L 112.92 -71.422583 
L 113.247311 -74.034207 
L 113.862079 -76.645831 
L 114.703994 -79.257455 
L 115.725991 -81.86908 
L 116.881006 -84.480704 
L 118.090793 -87.092328 
L 119.249803 -89.703952 
L 120.284831 -92.315577 
L 121.183216 -94.927201 
L 121.943935 -97.538825 
L 122.573022 -100.15045 
L 123.129785 -102.762074 
L 123.682206 -105.373698 
L 124.234629 -107.985322 
L 124.757482 -110.596947 
L 125.235765 -113.208571 
L 125.646874 -115.820195 
L 125.945214 -118.431819 
L 126.115106 -121.043444 
L 126.200528 -123.655068 
L 126.263746 -126.266692 
L 126.35751 -128.878317 
L 126.517574 -131.489941 
L 126.730373 -134.101565 
L 126.936422 -136.713189 
L 127.092202 -139.324814 
L 127.201504 -141.936438 
L 127.290855 -144.548062 
L 127.376882 -147.159686 
L 127.452943 -149.771311 
L 127.506116 -152.382935 
L 127.541027 -154.994559 
L 127.570958 -157.606184 
L 127.597888 -160.217808 
L 127.61716 -162.829432 
L 127.628056 -165.441056 
L 127.632627 -168.052681 
L 127.636171 -170.664305 
L 127.649407 -173.275929 
L 127.677242 -175.887553 
L 127.707894 -178.499178 
L 127.725505 -181.110802 
L 127.728524 -183.722426 
L 127.728355 -186.334051 
L 127.735401 -188.945675 
L 127.750239 -191.557299 
L 127.766074 -194.168923 
L 127.775752 -196.780548 
L 127.775483 -199.392172 
L 127.766555 -202.003796 
L 127.754853 -204.61542 
L 127.746408 -207.227045 
L 127.744184 -209.838669 
L 127.748556 -212.450293 
L 127.757381 -215.061918 
L 127.766472 -217.673542 
L 127.772421 -220.285166 
L 127.774272 -222.89679 
L 127.773604 -225.508415 
L 127.773741 -228.120039 
L 127.777314 -230.731663 
L 127.783773 -233.343287 
L 127.788999 -235.954912 
L 127.788058 -238.566536 
L 127.779659 -241.17816 
L 127.768707 -243.789785 
L 127.762922 -246.401409 
L 127.765683 -249.013033 
L 127.774376 -251.624657 
L 127.784557 -254.236282 
L 127.792748 -256.847906 
L 127.797462 -259.45953 
L 127.79936 -262.071154 
L 127.799886 -264.682779 
L 127.799986 -267.294403 
L 127.799999 -269.906027 
L 127.8 -272.517652 
L 127.8 -275.129276 
L 127.8 -277.7409 
L 127.8 -280.352524 
L 127.8 -282.964149 
L 127.799998 -285.575773 
L 127.799979 -288.187397 
L 127.799844 -290.799021 
L 127.799194 -293.410646 
L 127.797108 -296.02227 
L 127.792799 -298.633894 
L 127.78755 -301.245519 
L 127.785058 -303.857143 
L 127.814942 -303.857143 
L 127.814942 -303.857143 
L 127.81245 -301.245519 
L 127.807201 -298.633894 
L 127.802892 -296.02227 
L 127.800806 -293.410646 
L 127.800156 -290.799021 
L 127.800021 -288.187397 
L 127.800002 -285.575773 
L 127.8 -282.964149 
L 127.8 -280.352524 
L 127.8 -277.7409 
L 127.8 -275.129276 
L 127.8 -272.517652 
L 127.800001 -269.906027 
L 127.800014 -267.294403 
L 127.800114 -264.682779 
L 127.80064 -262.071154 
L 127.802538 -259.45953 
L 127.807252 -256.847906 
L 127.815443 -254.236282 
L 127.825624 -251.624657 
L 127.834317 -249.013033 
L 127.837078 -246.401409 
L 127.831293 -243.789785 
L 127.820341 -241.17816 
L 127.811942 -238.566536 
L 127.811001 -235.954912 
L 127.816227 -233.343287 
L 127.822686 -230.731663 
L 127.826259 -228.120039 
L 127.826396 -225.508415 
L 127.825728 -222.89679 
L 127.827579 -220.285166 
L 127.833528 -217.673542 
L 127.842619 -215.061918 
L 127.851444 -212.450293 
L 127.855816 -209.838669 
L 127.853592 -207.227045 
L 127.845147 -204.61542 
L 127.833445 -202.003796 
L 127.824517 -199.392172 
L 127.824248 -196.780548 
L 127.833926 -194.168923 
L 127.849761 -191.557299 
L 127.864599 -188.945675 
L 127.871645 -186.334051 
L 127.871476 -183.722426 
L 127.874495 -181.110802 
L 127.892106 -178.499178 
L 127.922758 -175.887553 
L 127.950593 -173.275929 
L 127.963829 -170.664305 
L 127.967373 -168.052681 
L 127.971944 -165.441056 
L 127.98284 -162.829432 
L 128.002112 -160.217808 
L 128.029042 -157.606184 
L 128.058973 -154.994559 
L 128.093884 -152.382935 
L 128.147057 -149.771311 
L 128.223118 -147.159686 
L 128.309145 -144.548062 
L 128.398496 -141.936438 
L 128.507798 -139.324814 
L 128.663578 -136.713189 
L 128.869627 -134.101565 
L 129.082426 -131.489941 
L 129.24249 -128.878317 
L 129.336254 -126.266692 
L 129.399472 -123.655068 
L 129.484894 -121.043444 
L 129.654786 -118.431819 
L 129.953126 -115.820195 
L 130.364235 -113.208571 
L 130.842518 -110.596947 
L 131.365371 -107.985322 
L 131.917794 -105.373698 
L 132.470215 -102.762074 
L 133.026978 -100.15045 
L 133.656065 -97.538825 
L 134.416784 -94.927201 
L 135.315169 -92.315577 
L 136.350197 -89.703952 
L 137.509207 -87.092328 
L 138.718994 -84.480704 
L 139.874009 -81.86908 
L 140.896006 -79.257455 
L 141.737921 -76.645831 
L 142.352689 -74.034207 
L 142.68 -71.422583 
L 142.648085 -68.810958 
L 142.146892 -66.199334 
L 141.053349 -63.58771 
L 139.3726 -60.976085 
L 137.298784 -58.364461 
L 135.10692 -55.752837 
L 133.046466 -53.141213 
L 131.287971 -50.529588 
L 129.901183 -47.917964 
L 128.899954 -45.30634 
z
" id="mb9d6fe4ac2" style="stroke:#2d2d2d;stroke-width:1.5;"/>
    </defs>
    <g clip-path="url(#p32b2c9f331)">
     <use style="fill:#e0ecba;stroke:#2d2d2d;stroke-width:1.5;" x="0" xlink:href="#mb9d6fe4ac2" y="360"/>
    </g>
   </g>
   <g id="PolyCollection_3">
    <defs>
     <path d="M 166.199789 -47.603888 
L 163.800211 -47.603888 
L 163.129802 -49.97106 
L 162.223567 -52.338231 
L 161.049611 -54.705402 
L 159.605422 -57.072574 
L 157.941701 -59.439745 
L 156.17197 -61.806916 
L 154.453959 -64.174087 
L 152.945695 -66.541259 
L 151.757659 -68.90843 
L 150.926066 -71.275601 
L 150.419104 -73.642773 
L 150.170124 -76.009944 
L 150.12 -78.377115 
L 150.246885 -80.744286 
L 150.565985 -83.111458 
L 151.098356 -85.478629 
L 151.831024 -87.8458 
L 152.701792 -90.212972 
L 153.624534 -92.580143 
L 154.534861 -94.947314 
L 155.415952 -97.314486 
L 156.283056 -99.681657 
L 157.145266 -102.048828 
L 157.9824 -104.415999 
L 158.755201 -106.783171 
L 159.433388 -109.150342 
L 160.013348 -111.517513 
L 160.512446 -113.884685 
L 160.949887 -116.251856 
L 161.333725 -118.619027 
L 161.664514 -120.986198 
L 161.948107 -123.35337 
L 162.200758 -125.720541 
L 162.439604 -128.087712 
L 162.669839 -130.454884 
L 162.883714 -132.822055 
L 163.071511 -135.189226 
L 163.231418 -137.556397 
L 163.369624 -139.923569 
L 163.494543 -142.29074 
L 163.613241 -144.657911 
L 163.732337 -147.025083 
L 163.8592 -149.392254 
L 163.999237 -151.759425 
L 164.150467 -154.126596 
L 164.301128 -156.493768 
L 164.434263 -158.860939 
L 164.536429 -161.22811 
L 164.603636 -163.595282 
L 164.640949 -165.962453 
L 164.658294 -168.329624 
L 164.666857 -170.696796 
L 164.677018 -173.063967 
L 164.695942 -175.431138 
L 164.724844 -177.798309 
L 164.758947 -180.165481 
L 164.79175 -182.532652 
L 164.820186 -184.899823 
L 164.845602 -187.266995 
L 164.86992 -189.634166 
L 164.891571 -192.001337 
L 164.905714 -194.368508 
L 164.908499 -196.73568 
L 164.90124 -199.102851 
L 164.890751 -201.470022 
L 164.885628 -203.837194 
L 164.891434 -206.204365 
L 164.908172 -208.571536 
L 164.931255 -210.938707 
L 164.954614 -213.305879 
L 164.973665 -215.67305 
L 164.986622 -218.040221 
L 164.994076 -220.407393 
L 164.997722 -222.774564 
L 164.999243 -225.141735 
L 164.999783 -227.508906 
L 164.999946 -229.876078 
L 164.999989 -232.243249 
L 164.999998 -234.61042 
L 165 -236.977592 
L 165 -239.344763 
L 165 -241.711934 
L 165 -244.079106 
L 165 -246.446277 
L 165 -248.813448 
L 165 -251.180619 
L 165 -253.547791 
L 164.999997 -255.914962 
L 164.999985 -258.282133 
L 164.999934 -260.649305 
L 164.999745 -263.016476 
L 164.999162 -265.383647 
L 164.997649 -267.750818 
L 164.994373 -270.11799 
L 164.988508 -272.485161 
L 164.979974 -274.852332 
L 164.970223 -277.219504 
L 164.962221 -279.586675 
L 164.959102 -281.953846 
L 165.040898 -281.953846 
L 165.040898 -281.953846 
L 165.037779 -279.586675 
L 165.029777 -277.219504 
L 165.020026 -274.852332 
L 165.011492 -272.485161 
L 165.005627 -270.11799 
L 165.002351 -267.750818 
L 165.000838 -265.383647 
L 165.000255 -263.016476 
L 165.000066 -260.649305 
L 165.000015 -258.282133 
L 165.000003 -255.914962 
L 165 -253.547791 
L 165 -251.180619 
L 165 -248.813448 
L 165 -246.446277 
L 165 -244.079106 
L 165 -241.711934 
L 165 -239.344763 
L 165 -236.977592 
L 165.000002 -234.61042 
L 165.000011 -232.243249 
L 165.000054 -229.876078 
L 165.000217 -227.508906 
L 165.000757 -225.141735 
L 165.002278 -222.774564 
L 165.005924 -220.407393 
L 165.013378 -218.040221 
L 165.026335 -215.67305 
L 165.045386 -213.305879 
L 165.068745 -210.938707 
L 165.091828 -208.571536 
L 165.108566 -206.204365 
L 165.114372 -203.837194 
L 165.109249 -201.470022 
L 165.09876 -199.102851 
L 165.091501 -196.73568 
L 165.094286 -194.368508 
L 165.108429 -192.001337 
L 165.13008 -189.634166 
L 165.154398 -187.266995 
L 165.179814 -184.899823 
L 165.20825 -182.532652 
L 165.241053 -180.165481 
L 165.275156 -177.798309 
L 165.304058 -175.431138 
L 165.322982 -173.063967 
L 165.333143 -170.696796 
L 165.341706 -168.329624 
L 165.359051 -165.962453 
L 165.396364 -163.595282 
L 165.463571 -161.22811 
L 165.565737 -158.860939 
L 165.698872 -156.493768 
L 165.849533 -154.126596 
L 166.000763 -151.759425 
L 166.1408 -149.392254 
L 166.267663 -147.025083 
L 166.386759 -144.657911 
L 166.505457 -142.29074 
L 166.630376 -139.923569 
L 166.768582 -137.556397 
L 166.928489 -135.189226 
L 167.116286 -132.822055 
L 167.330161 -130.454884 
L 167.560396 -128.087712 
L 167.799242 -125.720541 
L 168.051893 -123.35337 
L 168.335486 -120.986198 
L 168.666275 -118.619027 
L 169.050113 -116.251856 
L 169.487554 -113.884685 
L 169.986652 -111.517513 
L 170.566612 -109.150342 
L 171.244799 -106.783171 
L 172.0176 -104.415999 
L 172.854734 -102.048828 
L 173.716944 -99.681657 
L 174.584048 -97.314486 
L 175.465139 -94.947314 
L 176.375466 -92.580143 
L 177.298208 -90.212972 
L 178.168976 -87.8458 
L 178.901644 -85.478629 
L 179.434015 -83.111458 
L 179.753115 -80.744286 
L 179.88 -78.377115 
L 179.829876 -76.009944 
L 179.580896 -73.642773 
L 179.073934 -71.275601 
L 178.242341 -68.90843 
L 177.054305 -66.541259 
L 175.546041 -64.174087 
L 173.82803 -61.806916 
L 172.058299 -59.439745 
L 170.394578 -57.072574 
L 168.950389 -54.705402 
L 167.776433 -52.338231 
L 166.870198 -49.97106 
L 166.199789 -47.603888 
z
" id="md97bd00272" style="stroke:#2d2d2d;stroke-width:1.5;"/>
    </defs>
    <g clip-path="url(#p32b2c9f331)">
     <use style="fill:#cde4bb;stroke:#2d2d2d;stroke-width:1.5;" x="0" xlink:href="#md97bd00272" y="360"/>
    </g>
   </g>
   <g id="PolyCollection_4">
    <defs>
     <path d="M 203.964058 -48.216568 
L 200.435942 -48.216568 
L 199.979281 -49.983437 
L 199.456245 -51.750306 
L 198.868665 -53.517175 
L 198.220354 -55.284044 
L 197.516919 -57.050913 
L 196.765524 -58.817782 
L 195.974669 -60.584651 
L 195.153979 -62.35152 
L 194.314034 -64.118389 
L 193.466189 -65.885258 
L 192.622377 -67.652127 
L 191.794907 -69.418996 
L 190.996332 -71.185865 
L 190.239455 -72.952734 
L 189.537547 -74.719603 
L 188.904681 -76.486473 
L 188.356012 -78.253342 
L 187.907684 -80.020211 
L 187.576079 -81.78708 
L 187.3763 -83.553949 
L 187.32 -85.320818 
L 187.413015 -87.087687 
L 187.653367 -88.854556 
L 188.030242 -90.621425 
L 188.524309 -92.388294 
L 189.109416 -94.155163 
L 189.755382 -95.922032 
L 190.431308 -97.688901 
L 191.108797 -99.45577 
L 191.764482 -101.222639 
L 192.381508 -102.989508 
L 192.9498 -104.756377 
L 193.465267 -106.523246 
L 193.928265 -108.290115 
L 194.341805 -110.056984 
L 194.710033 -111.823853 
L 195.037335 -113.590722 
L 195.328251 -115.357591 
L 195.588024 -117.12446 
L 195.823405 -118.891329 
L 196.043182 -120.658198 
L 196.258024 -122.425067 
L 196.479468 -124.191936 
L 196.718241 -125.958805 
L 196.982373 -127.725674 
L 197.275675 -129.492543 
L 197.597058 -131.259412 
L 197.940873 -133.026281 
L 198.298138 -134.79315 
L 198.658237 -136.560019 
L 199.010612 -138.326888 
L 199.346041 -140.093758 
L 199.657289 -141.860627 
L 199.939194 -143.627496 
L 200.188379 -145.394365 
L 200.402868 -147.161234 
L 200.581817 -148.928103 
L 200.725454 -150.694972 
L 200.835212 -152.461841 
L 200.913927 -154.22871 
L 200.96597 -155.995579 
L 200.997184 -157.762448 
L 201.014561 -159.529317 
L 201.025661 -161.296186 
L 201.037856 -163.063055 
L 201.057515 -164.829924 
L 201.089288 -166.596793 
L 201.135644 -168.363662 
L 201.196736 -170.130531 
L 201.270633 -171.8974 
L 201.353834 -173.664269 
L 201.441951 -175.431138 
L 201.53039 -177.198007 
L 201.614912 -178.964876 
L 201.691997 -180.731745 
L 201.759015 -182.498614 
L 201.814264 -184.265483 
L 201.85694 -186.032352 
L 201.887096 -187.799221 
L 201.905602 -189.56609 
L 201.914088 -191.332959 
L 201.914818 -193.099828 
L 201.910479 -194.866697 
L 201.903891 -196.633566 
L 201.897669 -198.400435 
L 201.893911 -200.167304 
L 201.893987 -201.934174 
L 201.898451 -203.701043 
L 201.907097 -205.467912 
L 201.919135 -207.234781 
L 201.933434 -209.00165 
L 201.948786 -210.768519 
L 201.964145 -212.535388 
L 201.978804 -214.302257 
L 201.992484 -216.069126 
L 202.00533 -217.835995 
L 202.017813 -219.602864 
L 202.030563 -221.369733 
L 202.044174 -223.136602 
L 202.355826 -223.136602 
L 202.355826 -223.136602 
L 202.369437 -221.369733 
L 202.382187 -219.602864 
L 202.39467 -217.835995 
L 202.407516 -216.069126 
L 202.421196 -214.302257 
L 202.435855 -212.535388 
L 202.451214 -210.768519 
L 202.466566 -209.00165 
L 202.480865 -207.234781 
L 202.492903 -205.467912 
L 202.501549 -203.701043 
L 202.506013 -201.934174 
L 202.506089 -200.167304 
L 202.502331 -198.400435 
L 202.496109 -196.633566 
L 202.489521 -194.866697 
L 202.485182 -193.099828 
L 202.485912 -191.332959 
L 202.494398 -189.56609 
L 202.512904 -187.799221 
L 202.54306 -186.032352 
L 202.585736 -184.265483 
L 202.640985 -182.498614 
L 202.708003 -180.731745 
L 202.785088 -178.964876 
L 202.86961 -177.198007 
L 202.958049 -175.431138 
L 203.046166 -173.664269 
L 203.129367 -171.8974 
L 203.203264 -170.130531 
L 203.264356 -168.363662 
L 203.310712 -166.596793 
L 203.342485 -164.829924 
L 203.362144 -163.063055 
L 203.374339 -161.296186 
L 203.385439 -159.529317 
L 203.402816 -157.762448 
L 203.43403 -155.995579 
L 203.486073 -154.22871 
L 203.564788 -152.461841 
L 203.674546 -150.694972 
L 203.818183 -148.928103 
L 203.997132 -147.161234 
L 204.211621 -145.394365 
L 204.460806 -143.627496 
L 204.742711 -141.860627 
L 205.053959 -140.093758 
L 205.389388 -138.326888 
L 205.741763 -136.560019 
L 206.101862 -134.79315 
L 206.459127 -133.026281 
L 206.802942 -131.259412 
L 207.124325 -129.492543 
L 207.417627 -127.725674 
L 207.681759 -125.958805 
L 207.920532 -124.191936 
L 208.141976 -122.425067 
L 208.356818 -120.658198 
L 208.576595 -118.891329 
L 208.811976 -117.12446 
L 209.071749 -115.357591 
L 209.362665 -113.590722 
L 209.689967 -111.823853 
L 210.058195 -110.056984 
L 210.471735 -108.290115 
L 210.934733 -106.523246 
L 211.4502 -104.756377 
L 212.018492 -102.989508 
L 212.635518 -101.222639 
L 213.291203 -99.45577 
L 213.968692 -97.688901 
L 214.644618 -95.922032 
L 215.290584 -94.155163 
L 215.875691 -92.388294 
L 216.369758 -90.621425 
L 216.746633 -88.854556 
L 216.986985 -87.087687 
L 217.08 -85.320818 
L 217.0237 -83.553949 
L 216.823921 -81.78708 
L 216.492316 -80.020211 
L 216.043988 -78.253342 
L 215.495319 -76.486473 
L 214.862453 -74.719603 
L 214.160545 -72.952734 
L 213.403668 -71.185865 
L 212.605093 -69.418996 
L 211.777623 -67.652127 
L 210.933811 -65.885258 
L 210.085966 -64.118389 
L 209.246021 -62.35152 
L 208.425331 -60.584651 
L 207.634476 -58.817782 
L 206.883081 -57.050913 
L 206.179646 -55.284044 
L 205.531335 -53.517175 
L 204.943755 -51.750306 
L 204.420719 -49.983437 
L 203.964058 -48.216568 
z
" id="mc3b28f23e8" style="stroke:#2d2d2d;stroke-width:1.5;"/>
    </defs>
    <g clip-path="url(#p32b2c9f331)">
     <use style="fill:#aed6ba;stroke:#2d2d2d;stroke-width:1.5;" x="0" xlink:href="#mc3b28f23e8" y="360"/>
    </g>
   </g>
   <g id="PolyCollection_5">
    <defs>
     <path d="M 243.220513 -54.496534 
L 235.579487 -54.496534 
L 235.054056 -56.017403 
L 234.495298 -57.538272 
L 233.90601 -59.059141 
L 233.289569 -60.58001 
L 232.649965 -62.100879 
L 231.991848 -63.621747 
L 231.320561 -65.142616 
L 230.642161 -66.663485 
L 229.963401 -68.184354 
L 229.291674 -69.705223 
L 228.634902 -71.226092 
L 228.001373 -72.746961 
L 227.39952 -74.26783 
L 226.837668 -75.788698 
L 226.323734 -77.309567 
L 225.864935 -78.830436 
L 225.467486 -80.351305 
L 225.136339 -81.872174 
L 224.874974 -83.393043 
L 224.68526 -84.913912 
L 224.567404 -86.434781 
L 224.52 -87.955649 
L 224.540172 -89.476518 
L 224.623806 -90.997387 
L 224.765848 -92.518256 
L 224.960644 -94.039125 
L 225.202288 -95.559994 
L 225.484948 -97.080863 
L 225.803122 -98.601732 
L 226.151827 -100.1226 
L 226.526681 -101.643469 
L 226.923894 -103.164338 
L 227.340167 -104.685207 
L 227.772532 -106.206076 
L 228.218156 -107.726945 
L 228.674132 -109.247814 
L 229.137317 -110.768683 
L 229.604205 -112.289551 
L 230.070888 -113.81042 
L 230.53309 -115.331289 
L 230.986286 -116.852158 
L 231.425882 -118.373027 
L 231.847453 -119.893896 
L 232.247 -121.414765 
L 232.621198 -122.935634 
L 232.967631 -124.456502 
L 233.284953 -125.977371 
L 233.572995 -127.49824 
L 233.832776 -129.019109 
L 234.066436 -130.539978 
L 234.277082 -132.060847 
L 234.468571 -133.581716 
L 234.645242 -135.102585 
L 234.811617 -136.623453 
L 234.972111 -138.144322 
L 235.130757 -139.665191 
L 235.290979 -141.18606 
L 235.455415 -142.706929 
L 235.625823 -144.227798 
L 235.803045 -145.748667 
L 235.987042 -147.269536 
L 236.176988 -148.790404 
L 236.371409 -150.311273 
L 236.56835 -151.832142 
L 236.765564 -153.353011 
L 236.960686 -154.87388 
L 237.151409 -156.394749 
L 237.335623 -157.915618 
L 237.511519 -159.436487 
L 237.677662 -160.957355 
L 237.833016 -162.478224 
L 237.97693 -163.999093 
L 238.109096 -165.519962 
L 238.229475 -167.040831 
L 238.33821 -168.5617 
L 238.435535 -170.082569 
L 238.521696 -171.603438 
L 238.596879 -173.124306 
L 238.661177 -174.645175 
L 238.714582 -176.166044 
L 238.757011 -177.686913 
L 238.788368 -179.207782 
L 238.808621 -180.728651 
L 238.817899 -182.24952 
L 238.81659 -183.770389 
L 238.805422 -185.291257 
L 238.785524 -186.812126 
L 238.758447 -188.332995 
L 238.726146 -189.853864 
L 238.690916 -191.374733 
L 238.655285 -192.895602 
L 238.621877 -194.416471 
L 238.593251 -195.93734 
L 238.571736 -197.458208 
L 238.559274 -198.979077 
L 238.557293 -200.499946 
L 238.56661 -202.020815 
L 238.587393 -203.541684 
L 238.619166 -205.062553 
L 240.180834 -205.062553 
L 240.180834 -205.062553 
L 240.212607 -203.541684 
L 240.23339 -202.020815 
L 240.242707 -200.499946 
L 240.240726 -198.979077 
L 240.228264 -197.458208 
L 240.206749 -195.93734 
L 240.178123 -194.416471 
L 240.144715 -192.895602 
L 240.109084 -191.374733 
L 240.073854 -189.853864 
L 240.041553 -188.332995 
L 240.014476 -186.812126 
L 239.994578 -185.291257 
L 239.98341 -183.770389 
L 239.982101 -182.24952 
L 239.991379 -180.728651 
L 240.011632 -179.207782 
L 240.042989 -177.686913 
L 240.085418 -176.166044 
L 240.138823 -174.645175 
L 240.203121 -173.124306 
L 240.278304 -171.603438 
L 240.364465 -170.082569 
L 240.46179 -168.5617 
L 240.570525 -167.040831 
L 240.690904 -165.519962 
L 240.82307 -163.999093 
L 240.966984 -162.478224 
L 241.122338 -160.957355 
L 241.288481 -159.436487 
L 241.464377 -157.915618 
L 241.648591 -156.394749 
L 241.839314 -154.87388 
L 242.034436 -153.353011 
L 242.23165 -151.832142 
L 242.428591 -150.311273 
L 242.623012 -148.790404 
L 242.812958 -147.269536 
L 242.996955 -145.748667 
L 243.174177 -144.227798 
L 243.344585 -142.706929 
L 243.509021 -141.18606 
L 243.669243 -139.665191 
L 243.827889 -138.144322 
L 243.988383 -136.623453 
L 244.154758 -135.102585 
L 244.331429 -133.581716 
L 244.522918 -132.060847 
L 244.733564 -130.539978 
L 244.967224 -129.019109 
L 245.227005 -127.49824 
L 245.515047 -125.977371 
L 245.832369 -124.456502 
L 246.178802 -122.935634 
L 246.553 -121.414765 
L 246.952547 -119.893896 
L 247.374118 -118.373027 
L 247.813714 -116.852158 
L 248.26691 -115.331289 
L 248.729112 -113.81042 
L 249.195795 -112.289551 
L 249.662683 -110.768683 
L 250.125868 -109.247814 
L 250.581844 -107.726945 
L 251.027468 -106.206076 
L 251.459833 -104.685207 
L 251.876106 -103.164338 
L 252.273319 -101.643469 
L 252.648173 -100.1226 
L 252.996878 -98.601732 
L 253.315052 -97.080863 
L 253.597712 -95.559994 
L 253.839356 -94.039125 
L 254.034152 -92.518256 
L 254.176194 -90.997387 
L 254.259828 -89.476518 
L 254.28 -87.955649 
L 254.232596 -86.434781 
L 254.11474 -84.913912 
L 253.925026 -83.393043 
L 253.663661 -81.872174 
L 253.332514 -80.351305 
L 252.935065 -78.830436 
L 252.476266 -77.309567 
L 251.962332 -75.788698 
L 251.40048 -74.26783 
L 250.798627 -72.746961 
L 250.165098 -71.226092 
L 249.508326 -69.705223 
L 248.836599 -68.184354 
L 248.157839 -66.663485 
L 247.479439 -65.142616 
L 246.808152 -63.621747 
L 246.150035 -62.100879 
L 245.510431 -60.58001 
L 244.89399 -59.059141 
L 244.304702 -57.538272 
L 243.745944 -56.017403 
L 243.220513 -54.496534 
z
" id="m6bbb24ee25" style="stroke:#2d2d2d;stroke-width:1.5;"/>
    </defs>
    <g clip-path="url(#p32b2c9f331)">
     <use style="fill:#84c1b5;stroke:#2d2d2d;stroke-width:1.5;" x="0" xlink:href="#m6bbb24ee25" y="360"/>
    </g>
   </g>
   <g id="PolyCollection_6">
    <defs>
     <path d="M 281.805441 -65.065258 
L 271.394559 -65.065258 
L 270.87117 -66.389636 
L 270.324524 -67.714014 
L 269.757274 -69.038392 
L 269.172663 -70.362771 
L 268.574545 -71.687149 
L 267.967397 -73.011527 
L 267.356301 -74.335905 
L 266.746899 -75.660283 
L 266.145312 -76.984661 
L 265.558034 -78.30904 
L 264.991781 -79.633418 
L 264.453318 -80.957796 
L 263.949262 -82.282174 
L 263.48587 -83.606552 
L 263.06882 -84.930931 
L 262.703005 -86.255309 
L 262.392349 -87.579687 
L 262.139646 -88.904065 
L 261.946454 -90.228443 
L 261.813027 -91.552822 
L 261.738314 -92.8772 
L 261.72 -94.201578 
L 261.754612 -95.525956 
L 261.837665 -96.850334 
L 261.963848 -98.174712 
L 262.127238 -99.499091 
L 262.321525 -100.823469 
L 262.540241 -102.147847 
L 262.77698 -103.472225 
L 263.025591 -104.796603 
L 263.280352 -106.120982 
L 263.536096 -107.44536 
L 263.788313 -108.769738 
L 264.033206 -110.094116 
L 264.26772 -111.418494 
L 264.489533 -112.742873 
L 264.697035 -114.067251 
L 264.889281 -115.391629 
L 265.065938 -116.716007 
L 265.227231 -118.040385 
L 265.373877 -119.364763 
L 265.507037 -120.689142 
L 265.628262 -122.01352 
L 265.73944 -123.337898 
L 265.842761 -124.662276 
L 265.940661 -125.986654 
L 266.035781 -127.311033 
L 266.130915 -128.635411 
L 266.228948 -129.959789 
L 266.332793 -131.284167 
L 266.445322 -132.608545 
L 266.569285 -133.932923 
L 266.707232 -135.257302 
L 266.861432 -136.58168 
L 267.0338 -137.906058 
L 267.225826 -139.230436 
L 267.438523 -140.554814 
L 267.672384 -141.879193 
L 267.92736 -143.203571 
L 268.202854 -144.527949 
L 268.497739 -145.852327 
L 268.81039 -147.176705 
L 269.13873 -148.501084 
L 269.480298 -149.825462 
L 269.832321 -151.14984 
L 270.191793 -152.474218 
L 270.555555 -153.798596 
L 270.920382 -155.122974 
L 271.283058 -156.447353 
L 271.640446 -157.771731 
L 271.989555 -159.096109 
L 272.327591 -160.420487 
L 272.652004 -161.744865 
L 272.960522 -163.069244 
L 273.251179 -164.393622 
L 273.522338 -165.718 
L 273.772703 -167.042378 
L 274.001331 -168.366756 
L 274.207637 -169.691135 
L 274.391397 -171.015513 
L 274.552748 -172.339891 
L 274.692181 -173.664269 
L 274.810536 -174.988647 
L 274.908983 -176.313025 
L 274.989002 -177.637404 
L 275.052353 -178.961782 
L 275.101039 -180.28616 
L 275.137255 -181.610538 
L 275.163338 -182.934916 
L 275.181703 -184.259295 
L 275.194776 -185.583673 
L 275.204923 -186.908051 
L 275.214381 -188.232429 
L 275.225192 -189.556807 
L 275.239144 -190.881185 
L 275.257721 -192.205564 
L 275.282068 -193.529942 
L 275.312966 -194.85432 
L 275.350828 -196.178698 
L 277.849172 -196.178698 
L 277.849172 -196.178698 
L 277.887034 -194.85432 
L 277.917932 -193.529942 
L 277.942279 -192.205564 
L 277.960856 -190.881185 
L 277.974808 -189.556807 
L 277.985619 -188.232429 
L 277.995077 -186.908051 
L 278.005224 -185.583673 
L 278.018297 -184.259295 
L 278.036662 -182.934916 
L 278.062745 -181.610538 
L 278.098961 -180.28616 
L 278.147647 -178.961782 
L 278.210998 -177.637404 
L 278.291017 -176.313025 
L 278.389464 -174.988647 
L 278.507819 -173.664269 
L 278.647252 -172.339891 
L 278.808603 -171.015513 
L 278.992363 -169.691135 
L 279.198669 -168.366756 
L 279.427297 -167.042378 
L 279.677662 -165.718 
L 279.948821 -164.393622 
L 280.239478 -163.069244 
L 280.547996 -161.744865 
L 280.872409 -160.420487 
L 281.210445 -159.096109 
L 281.559554 -157.771731 
L 281.916942 -156.447353 
L 282.279618 -155.122974 
L 282.644445 -153.798596 
L 283.008207 -152.474218 
L 283.367679 -151.14984 
L 283.719702 -149.825462 
L 284.06127 -148.501084 
L 284.38961 -147.176705 
L 284.702261 -145.852327 
L 284.997146 -144.527949 
L 285.27264 -143.203571 
L 285.527616 -141.879193 
L 285.761477 -140.554814 
L 285.974174 -139.230436 
L 286.1662 -137.906058 
L 286.338568 -136.58168 
L 286.492768 -135.257302 
L 286.630715 -133.932923 
L 286.754678 -132.608545 
L 286.867207 -131.284167 
L 286.971052 -129.959789 
L 287.069085 -128.635411 
L 287.164219 -127.311033 
L 287.259339 -125.986654 
L 287.357239 -124.662276 
L 287.46056 -123.337898 
L 287.571738 -122.01352 
L 287.692963 -120.689142 
L 287.826123 -119.364763 
L 287.972769 -118.040385 
L 288.134062 -116.716007 
L 288.310719 -115.391629 
L 288.502965 -114.067251 
L 288.710467 -112.742873 
L 288.93228 -111.418494 
L 289.166794 -110.094116 
L 289.411687 -108.769738 
L 289.663904 -107.44536 
L 289.919648 -106.120982 
L 290.174409 -104.796603 
L 290.42302 -103.472225 
L 290.659759 -102.147847 
L 290.878475 -100.823469 
L 291.072762 -99.499091 
L 291.236152 -98.174712 
L 291.362335 -96.850334 
L 291.445388 -95.525956 
L 291.48 -94.201578 
L 291.461686 -92.8772 
L 291.386973 -91.552822 
L 291.253546 -90.228443 
L 291.060354 -88.904065 
L 290.807651 -87.579687 
L 290.496995 -86.255309 
L 290.13118 -84.930931 
L 289.71413 -83.606552 
L 289.250738 -82.282174 
L 288.746682 -80.957796 
L 288.208219 -79.633418 
L 287.641966 -78.30904 
L 287.054688 -76.984661 
L 286.453101 -75.660283 
L 285.843699 -74.335905 
L 285.232603 -73.011527 
L 284.625455 -71.687149 
L 284.027337 -70.362771 
L 283.442726 -69.038392 
L 282.875476 -67.714014 
L 282.32883 -66.389636 
L 281.805441 -65.065258 
z
" id="m5650469a28" style="stroke:#2d2d2d;stroke-width:1.5;"/>
    </defs>
    <g clip-path="url(#p32b2c9f331)">
     <use style="fill:#61b0b4;stroke:#2d2d2d;stroke-width:1.5;" x="0" xlink:href="#m5650469a28" y="360"/>
    </g>
   </g>
   <g id="PolyCollection_7">
    <defs>
     <path d="M 316.919648 -69.200845 
L 310.680352 -69.200845 
L 310.622239 -69.589185 
L 310.567199 -69.977525 
L 310.515201 -70.365865 
L 310.466183 -70.754205 
L 310.420057 -71.142545 
L 310.376702 -71.530885 
L 310.335973 -71.919224 
L 310.297698 -72.307564 
L 310.261677 -72.695904 
L 310.227689 -73.084244 
L 310.195486 -73.472584 
L 310.164798 -73.860924 
L 310.135332 -74.249264 
L 310.106775 -74.637603 
L 310.078787 -75.025943 
L 310.051009 -75.414283 
L 310.023058 -75.802623 
L 309.99453 -76.190963 
L 309.964995 -76.579303 
L 309.934 -76.967643 
L 309.901067 -77.355982 
L 309.865696 -77.744322 
L 309.82736 -78.132662 
L 309.785508 -78.521002 
L 309.739566 -78.909342 
L 309.688938 -79.297682 
L 309.633006 -79.686022 
L 309.571135 -80.074362 
L 309.502676 -80.462701 
L 309.426969 -80.851041 
L 309.343347 -81.239381 
L 309.251145 -81.627721 
L 309.149704 -82.016061 
L 309.038379 -82.404401 
L 308.916549 -82.792741 
L 308.783622 -83.18108 
L 308.639051 -83.56942 
L 308.482339 -83.95776 
L 308.313048 -84.3461 
L 308.130818 -84.73444 
L 307.935368 -85.12278 
L 307.726511 -85.51112 
L 307.504167 -85.89946 
L 307.268364 -86.287799 
L 307.019256 -86.676139 
L 306.757122 -87.064479 
L 306.482379 -87.452819 
L 306.195582 -87.841159 
L 305.897429 -88.229499 
L 305.588762 -88.617839 
L 305.270569 -89.006178 
L 304.943976 -89.394518 
L 304.610247 -89.782858 
L 304.270777 -90.171198 
L 303.927081 -90.559538 
L 303.580786 -90.947878 
L 303.233617 -91.336218 
L 302.887385 -91.724557 
L 302.543969 -92.112897 
L 302.205302 -92.501237 
L 301.87335 -92.889577 
L 301.550093 -93.277917 
L 301.23751 -93.666257 
L 300.937555 -94.054597 
L 300.652138 -94.442937 
L 300.383107 -94.831276 
L 300.132227 -95.219616 
L 299.901166 -95.607956 
L 299.691473 -95.996296 
L 299.504564 -96.384636 
L 299.341714 -96.772976 
L 299.204034 -97.161316 
L 299.09247 -97.549655 
L 299.007791 -97.937995 
L 298.950584 -98.326335 
L 298.92125 -98.714675 
L 298.92 -99.103015 
L 298.946861 -99.491355 
L 299.001672 -99.879695 
L 299.084096 -100.268035 
L 299.193619 -100.656374 
L 299.329565 -101.044714 
L 299.491099 -101.433054 
L 299.677245 -101.821394 
L 299.886895 -102.209734 
L 300.118821 -102.598074 
L 300.371693 -102.986414 
L 300.644089 -103.374753 
L 300.934512 -103.763093 
L 301.241407 -104.151433 
L 301.563172 -104.539773 
L 301.898175 -104.928113 
L 302.244767 -105.316453 
L 302.601296 -105.704793 
L 302.966119 -106.093133 
L 303.337615 -106.481472 
L 303.714195 -106.869812 
L 304.094314 -107.258152 
L 304.476477 -107.646492 
L 323.123523 -107.646492 
L 323.123523 -107.646492 
L 323.505686 -107.258152 
L 323.885805 -106.869812 
L 324.262385 -106.481472 
L 324.633881 -106.093133 
L 324.998704 -105.704793 
L 325.355233 -105.316453 
L 325.701825 -104.928113 
L 326.036828 -104.539773 
L 326.358593 -104.151433 
L 326.665488 -103.763093 
L 326.955911 -103.374753 
L 327.228307 -102.986414 
L 327.481179 -102.598074 
L 327.713105 -102.209734 
L 327.922755 -101.821394 
L 328.108901 -101.433054 
L 328.270435 -101.044714 
L 328.406381 -100.656374 
L 328.515904 -100.268035 
L 328.598328 -99.879695 
L 328.653139 -99.491355 
L 328.68 -99.103015 
L 328.67875 -98.714675 
L 328.649416 -98.326335 
L 328.592209 -97.937995 
L 328.50753 -97.549655 
L 328.395966 -97.161316 
L 328.258286 -96.772976 
L 328.095436 -96.384636 
L 327.908527 -95.996296 
L 327.698834 -95.607956 
L 327.467773 -95.219616 
L 327.216893 -94.831276 
L 326.947862 -94.442937 
L 326.662445 -94.054597 
L 326.36249 -93.666257 
L 326.049907 -93.277917 
L 325.72665 -92.889577 
L 325.394698 -92.501237 
L 325.056031 -92.112897 
L 324.712615 -91.724557 
L 324.366383 -91.336218 
L 324.019214 -90.947878 
L 323.672919 -90.559538 
L 323.329223 -90.171198 
L 322.989753 -89.782858 
L 322.656024 -89.394518 
L 322.329431 -89.006178 
L 322.011238 -88.617839 
L 321.702571 -88.229499 
L 321.404418 -87.841159 
L 321.117621 -87.452819 
L 320.842878 -87.064479 
L 320.580744 -86.676139 
L 320.331636 -86.287799 
L 320.095833 -85.89946 
L 319.873489 -85.51112 
L 319.664632 -85.12278 
L 319.469182 -84.73444 
L 319.286952 -84.3461 
L 319.117661 -83.95776 
L 318.960949 -83.56942 
L 318.816378 -83.18108 
L 318.683451 -82.792741 
L 318.561621 -82.404401 
L 318.450296 -82.016061 
L 318.348855 -81.627721 
L 318.256653 -81.239381 
L 318.173031 -80.851041 
L 318.097324 -80.462701 
L 318.028865 -80.074362 
L 317.966994 -79.686022 
L 317.911062 -79.297682 
L 317.860434 -78.909342 
L 317.814492 -78.521002 
L 317.77264 -78.132662 
L 317.734304 -77.744322 
L 317.698933 -77.355982 
L 317.666 -76.967643 
L 317.635005 -76.579303 
L 317.60547 -76.190963 
L 317.576942 -75.802623 
L 317.548991 -75.414283 
L 317.521213 -75.025943 
L 317.493225 -74.637603 
L 317.464668 -74.249264 
L 317.435202 -73.860924 
L 317.404514 -73.472584 
L 317.372311 -73.084244 
L 317.338323 -72.695904 
L 317.302302 -72.307564 
L 317.264027 -71.919224 
L 317.223298 -71.530885 
L 317.179943 -71.142545 
L 317.133817 -70.754205 
L 317.084799 -70.365865 
L 317.032801 -69.977525 
L 316.977761 -69.589185 
L 316.919648 -69.200845 
z
" id="m56c88cc86d" style="stroke:#2d2d2d;stroke-width:1.5;"/>
    </defs>
    <g clip-path="url(#p32b2c9f331)">
     <use style="fill:#489fb1;stroke:#2d2d2d;stroke-width:1.5;" x="0" xlink:href="#m56c88cc86d" y="360"/>
    </g>
   </g>
   <g id="PolyCollection_8">
    <defs>
     <path d="M 359.226216 -63.993068 
L 342.773784 -63.993068 
L 342.647704 -65.387069 
L 342.522698 -66.78107 
L 342.398719 -68.175071 
L 342.27571 -69.569072 
L 342.153613 -70.963073 
L 342.032359 -72.357074 
L 341.911879 -73.751075 
L 341.792097 -75.145075 
L 341.672935 -76.539076 
L 341.554314 -77.933077 
L 341.436153 -79.327078 
L 341.31837 -80.721079 
L 341.200885 -82.11508 
L 341.083619 -83.509081 
L 340.966497 -84.903082 
L 340.849446 -86.297082 
L 340.732399 -87.691083 
L 340.615294 -89.085084 
L 340.498075 -90.479085 
L 340.380695 -91.873086 
L 340.263113 -93.267087 
L 340.145297 -94.661088 
L 340.027227 -96.055089 
L 339.908891 -97.449089 
L 339.790287 -98.84309 
L 339.671427 -100.237091 
L 339.552331 -101.631092 
L 339.433035 -103.025093 
L 339.313583 -104.419094 
L 339.194035 -105.813095 
L 339.074461 -107.207095 
L 338.954945 -108.601096 
L 338.835582 -109.995097 
L 338.716481 -111.389098 
L 338.597762 -112.783099 
L 338.479556 -114.1771 
L 338.362005 -115.571101 
L 338.245265 -116.965102 
L 338.1295 -118.359102 
L 338.014882 -119.753103 
L 337.901595 -121.147104 
L 337.789829 -122.541105 
L 337.679785 -123.935106 
L 337.571668 -125.329107 
L 337.465689 -126.723108 
L 337.362064 -128.117109 
L 337.261016 -129.511109 
L 337.162768 -130.90511 
L 337.067546 -132.299111 
L 336.97558 -133.693112 
L 336.887097 -135.087113 
L 336.802327 -136.481114 
L 336.721495 -137.875115 
L 336.644826 -139.269115 
L 336.572543 -140.663116 
L 336.504863 -142.057117 
L 336.441997 -143.451118 
L 336.384155 -144.845119 
L 336.331535 -146.23912 
L 336.284332 -147.633121 
L 336.242731 -149.027122 
L 336.206908 -150.421122 
L 336.177033 -151.815123 
L 336.153262 -153.209124 
L 336.135743 -154.603125 
L 336.124614 -155.997126 
L 336.12 -157.391127 
L 336.122015 -158.785128 
L 336.13076 -160.179129 
L 336.146326 -161.573129 
L 336.168789 -162.96713 
L 336.198214 -164.361131 
L 336.234651 -165.755132 
L 336.27814 -167.149133 
L 336.328704 -168.543134 
L 336.386355 -169.937135 
L 336.451092 -171.331136 
L 336.522899 -172.725136 
L 336.601748 -174.119137 
L 336.687597 -175.513138 
L 336.780391 -176.907139 
L 336.880063 -178.30114 
L 336.986532 -179.695141 
L 337.099706 -181.089142 
L 337.219479 -182.483142 
L 337.345734 -183.877143 
L 337.478341 -185.271144 
L 337.61716 -186.665145 
L 337.762039 -188.059146 
L 337.912816 -189.453147 
L 338.069317 -190.847148 
L 338.231359 -192.241149 
L 338.398749 -193.635149 
L 338.571286 -195.02915 
L 338.748758 -196.423151 
L 338.930948 -197.817152 
L 339.117627 -199.211153 
L 339.308564 -200.605154 
L 339.503516 -201.999155 
L 362.496484 -201.999155 
L 362.496484 -201.999155 
L 362.691436 -200.605154 
L 362.882373 -199.211153 
L 363.069052 -197.817152 
L 363.251242 -196.423151 
L 363.428714 -195.02915 
L 363.601251 -193.635149 
L 363.768641 -192.241149 
L 363.930683 -190.847148 
L 364.087184 -189.453147 
L 364.237961 -188.059146 
L 364.38284 -186.665145 
L 364.521659 -185.271144 
L 364.654266 -183.877143 
L 364.780521 -182.483142 
L 364.900294 -181.089142 
L 365.013468 -179.695141 
L 365.119937 -178.30114 
L 365.219609 -176.907139 
L 365.312403 -175.513138 
L 365.398252 -174.119137 
L 365.477101 -172.725136 
L 365.548908 -171.331136 
L 365.613645 -169.937135 
L 365.671296 -168.543134 
L 365.72186 -167.149133 
L 365.765349 -165.755132 
L 365.801786 -164.361131 
L 365.831211 -162.96713 
L 365.853674 -161.573129 
L 365.86924 -160.179129 
L 365.877985 -158.785128 
L 365.88 -157.391127 
L 365.875386 -155.997126 
L 365.864257 -154.603125 
L 365.846738 -153.209124 
L 365.822967 -151.815123 
L 365.793092 -150.421122 
L 365.757269 -149.027122 
L 365.715668 -147.633121 
L 365.668465 -146.23912 
L 365.615845 -144.845119 
L 365.558003 -143.451118 
L 365.495137 -142.057117 
L 365.427457 -140.663116 
L 365.355174 -139.269115 
L 365.278505 -137.875115 
L 365.197673 -136.481114 
L 365.112903 -135.087113 
L 365.02442 -133.693112 
L 364.932454 -132.299111 
L 364.837232 -130.90511 
L 364.738984 -129.511109 
L 364.637936 -128.117109 
L 364.534311 -126.723108 
L 364.428332 -125.329107 
L 364.320215 -123.935106 
L 364.210171 -122.541105 
L 364.098405 -121.147104 
L 363.985118 -119.753103 
L 363.8705 -118.359102 
L 363.754735 -116.965102 
L 363.637995 -115.571101 
L 363.520444 -114.1771 
L 363.402238 -112.783099 
L 363.283519 -111.389098 
L 363.164418 -109.995097 
L 363.045055 -108.601096 
L 362.925539 -107.207095 
L 362.805965 -105.813095 
L 362.686417 -104.419094 
L 362.566965 -103.025093 
L 362.447669 -101.631092 
L 362.328573 -100.237091 
L 362.209713 -98.84309 
L 362.091109 -97.449089 
L 361.972773 -96.055089 
L 361.854703 -94.661088 
L 361.736887 -93.267087 
L 361.619305 -91.873086 
L 361.501925 -90.479085 
L 361.384706 -89.085084 
L 361.267601 -87.691083 
L 361.150554 -86.297082 
L 361.033503 -84.903082 
L 360.916381 -83.509081 
L 360.799115 -82.11508 
L 360.68163 -80.721079 
L 360.563847 -79.327078 
L 360.445686 -77.933077 
L 360.327065 -76.539076 
L 360.207903 -75.145075 
L 360.088121 -73.751075 
L 359.967641 -72.357074 
L 359.846387 -70.963073 
L 359.72429 -69.569072 
L 359.601281 -68.175071 
L 359.477302 -66.78107 
L 359.352296 -65.387069 
L 359.226216 -63.993068 
z
" id="m023719012f" style="stroke:#2d2d2d;stroke-width:1.5;"/>
    </defs>
    <g clip-path="url(#p32b2c9f331)">
     <use style="fill:#348bac;stroke:#2d2d2d;stroke-width:1.5;" x="0" xlink:href="#m023719012f" y="360"/>
    </g>
   </g>
   <g id="PolyCollection_9">
    <defs>
     <path d="M 401.313231 -73.949112 
L 375.086769 -73.949112 
L 375.013832 -74.680924 
L 374.942466 -75.412736 
L 374.872679 -76.144548 
L 374.804474 -76.87636 
L 374.737855 -77.608171 
L 374.672825 -78.339983 
L 374.609385 -79.071795 
L 374.547536 -79.803607 
L 374.487277 -80.535418 
L 374.428609 -81.26723 
L 374.37153 -81.999042 
L 374.316036 -82.730854 
L 374.262125 -83.462666 
L 374.209792 -84.194477 
L 374.159035 -84.926289 
L 374.109847 -85.658101 
L 374.062223 -86.389913 
L 374.016157 -87.121724 
L 373.971642 -87.853536 
L 373.928672 -88.585348 
L 373.88724 -89.31716 
L 373.847338 -90.048972 
L 373.808957 -90.780783 
L 373.772091 -91.512595 
L 373.736732 -92.244407 
L 373.702869 -92.976219 
L 373.670497 -93.70803 
L 373.639606 -94.439842 
L 373.610187 -95.171654 
L 373.582233 -95.903466 
L 373.555735 -96.635278 
L 373.530685 -97.367089 
L 373.507076 -98.098901 
L 373.4849 -98.830713 
L 373.464149 -99.562525 
L 373.444816 -100.294336 
L 373.426894 -101.026148 
L 373.410377 -101.75796 
L 373.39526 -102.489772 
L 373.381535 -103.221584 
L 373.369198 -103.953395 
L 373.358245 -104.685207 
L 373.34867 -105.417019 
L 373.34047 -106.148831 
L 373.333642 -106.880642 
L 373.328183 -107.612454 
L 373.324091 -108.344266 
L 373.321363 -109.076078 
L 373.32 -109.80789 
L 373.32 -110.539701 
L 373.321363 -111.271513 
L 373.324091 -112.003325 
L 373.328183 -112.735137 
L 373.333642 -113.466948 
L 373.34047 -114.19876 
L 373.34867 -114.930572 
L 373.358245 -115.662384 
L 373.369198 -116.394196 
L 373.381535 -117.126007 
L 373.39526 -117.857819 
L 373.410377 -118.589631 
L 373.426894 -119.321443 
L 373.444816 -120.053254 
L 373.464149 -120.785066 
L 373.4849 -121.516878 
L 373.507076 -122.24869 
L 373.530685 -122.980502 
L 373.555735 -123.712313 
L 373.582233 -124.444125 
L 373.610187 -125.175937 
L 373.639606 -125.907749 
L 373.670497 -126.63956 
L 373.702869 -127.371372 
L 373.736732 -128.103184 
L 373.772091 -128.834996 
L 373.808957 -129.566808 
L 373.847338 -130.298619 
L 373.88724 -131.030431 
L 373.928672 -131.762243 
L 373.971642 -132.494055 
L 374.016157 -133.225866 
L 374.062223 -133.957678 
L 374.109847 -134.68949 
L 374.159035 -135.421302 
L 374.209792 -136.153114 
L 374.262125 -136.884925 
L 374.316036 -137.616737 
L 374.37153 -138.348549 
L 374.428609 -139.080361 
L 374.487277 -139.812172 
L 374.547536 -140.543984 
L 374.609385 -141.275796 
L 374.672825 -142.007608 
L 374.737855 -142.73942 
L 374.804474 -143.471231 
L 374.872679 -144.203043 
L 374.942466 -144.934855 
L 375.013832 -145.666667 
L 375.086769 -146.398478 
L 401.313231 -146.398478 
L 401.313231 -146.398478 
L 401.386168 -145.666667 
L 401.457534 -144.934855 
L 401.527321 -144.203043 
L 401.595526 -143.471231 
L 401.662145 -142.73942 
L 401.727175 -142.007608 
L 401.790615 -141.275796 
L 401.852464 -140.543984 
L 401.912723 -139.812172 
L 401.971391 -139.080361 
L 402.02847 -138.348549 
L 402.083964 -137.616737 
L 402.137875 -136.884925 
L 402.190208 -136.153114 
L 402.240965 -135.421302 
L 402.290153 -134.68949 
L 402.337777 -133.957678 
L 402.383843 -133.225866 
L 402.428358 -132.494055 
L 402.471328 -131.762243 
L 402.51276 -131.030431 
L 402.552662 -130.298619 
L 402.591043 -129.566808 
L 402.627909 -128.834996 
L 402.663268 -128.103184 
L 402.697131 -127.371372 
L 402.729503 -126.63956 
L 402.760394 -125.907749 
L 402.789813 -125.175937 
L 402.817767 -124.444125 
L 402.844265 -123.712313 
L 402.869315 -122.980502 
L 402.892924 -122.24869 
L 402.9151 -121.516878 
L 402.935851 -120.785066 
L 402.955184 -120.053254 
L 402.973106 -119.321443 
L 402.989623 -118.589631 
L 403.00474 -117.857819 
L 403.018465 -117.126007 
L 403.030802 -116.394196 
L 403.041755 -115.662384 
L 403.05133 -114.930572 
L 403.05953 -114.19876 
L 403.066358 -113.466948 
L 403.071817 -112.735137 
L 403.075909 -112.003325 
L 403.078637 -111.271513 
L 403.08 -110.539701 
L 403.08 -109.80789 
L 403.078637 -109.076078 
L 403.075909 -108.344266 
L 403.071817 -107.612454 
L 403.066358 -106.880642 
L 403.05953 -106.148831 
L 403.05133 -105.417019 
L 403.041755 -104.685207 
L 403.030802 -103.953395 
L 403.018465 -103.221584 
L 403.00474 -102.489772 
L 402.989623 -101.75796 
L 402.973106 -101.026148 
L 402.955184 -100.294336 
L 402.935851 -99.562525 
L 402.9151 -98.830713 
L 402.892924 -98.098901 
L 402.869315 -97.367089 
L 402.844265 -96.635278 
L 402.817767 -95.903466 
L 402.789813 -95.171654 
L 402.760394 -94.439842 
L 402.729503 -93.70803 
L 402.697131 -92.976219 
L 402.663268 -92.244407 
L 402.627909 -91.512595 
L 402.591043 -90.780783 
L 402.552662 -90.048972 
L 402.51276 -89.31716 
L 402.471328 -88.585348 
L 402.428358 -87.853536 
L 402.383843 -87.121724 
L 402.337777 -86.389913 
L 402.290153 -85.658101 
L 402.240965 -84.926289 
L 402.190208 -84.194477 
L 402.137875 -83.462666 
L 402.083964 -82.730854 
L 402.02847 -81.999042 
L 401.971391 -81.26723 
L 401.912723 -80.535418 
L 401.852464 -79.803607 
L 401.790615 -79.071795 
L 401.727175 -78.339983 
L 401.662145 -77.608171 
L 401.595526 -76.87636 
L 401.527321 -76.144548 
L 401.457534 -75.412736 
L 401.386168 -74.680924 
L 401.313231 -73.949112 
z
" id="m0e535087ac" style="stroke:#2d2d2d;stroke-width:1.5;"/>
    </defs>
    <g clip-path="url(#p32b2c9f331)">
     <use style="fill:#3272a0;stroke:#2d2d2d;stroke-width:1.5;" x="0" xlink:href="#m0e535087ac" y="360"/>
    </g>
   </g>
   <g id="PolyCollection_10">
    <defs>
     <path d="M 475.713231 -86.815385 
L 449.486769 -86.815385 
L 449.413832 -87.486857 
L 449.342466 -88.158329 
L 449.272679 -88.829801 
L 449.204474 -89.501273 
L 449.137855 -90.172745 
L 449.072825 -90.844217 
L 449.009385 -91.515689 
L 448.947536 -92.187162 
L 448.887277 -92.858634 
L 448.828609 -93.530106 
L 448.77153 -94.201578 
L 448.716036 -94.87305 
L 448.662125 -95.544522 
L 448.609792 -96.215994 
L 448.559035 -96.887466 
L 448.509847 -97.558938 
L 448.462223 -98.230411 
L 448.416157 -98.901883 
L 448.371642 -99.573355 
L 448.328672 -100.244827 
L 448.28724 -100.916299 
L 448.247338 -101.587771 
L 448.208957 -102.259243 
L 448.172091 -102.930715 
L 448.136732 -103.602188 
L 448.102869 -104.27366 
L 448.070497 -104.945132 
L 448.039606 -105.616604 
L 448.010187 -106.288076 
L 447.982233 -106.959548 
L 447.955735 -107.63102 
L 447.930685 -108.302492 
L 447.907076 -108.973964 
L 447.8849 -109.645437 
L 447.864149 -110.316909 
L 447.844816 -110.988381 
L 447.826894 -111.659853 
L 447.810377 -112.331325 
L 447.79526 -113.002797 
L 447.781535 -113.674269 
L 447.769198 -114.345741 
L 447.758245 -115.017214 
L 447.74867 -115.688686 
L 447.74047 -116.360158 
L 447.733642 -117.03163 
L 447.728183 -117.703102 
L 447.724091 -118.374574 
L 447.721363 -119.046046 
L 447.72 -119.717518 
L 447.72 -120.38899 
L 447.721363 -121.060463 
L 447.724091 -121.731935 
L 447.728183 -122.403407 
L 447.733642 -123.074879 
L 447.74047 -123.746351 
L 447.74867 -124.417823 
L 447.758245 -125.089295 
L 447.769198 -125.760767 
L 447.781535 -126.43224 
L 447.79526 -127.103712 
L 447.810377 -127.775184 
L 447.826894 -128.446656 
L 447.844816 -129.118128 
L 447.864149 -129.7896 
L 447.8849 -130.461072 
L 447.907076 -131.132544 
L 447.930685 -131.804016 
L 447.955735 -132.475489 
L 447.982233 -133.146961 
L 448.010187 -133.818433 
L 448.039606 -134.489905 
L 448.070497 -135.161377 
L 448.102869 -135.832849 
L 448.136732 -136.504321 
L 448.172091 -137.175793 
L 448.208957 -137.847266 
L 448.247338 -138.518738 
L 448.28724 -139.19021 
L 448.328672 -139.861682 
L 448.371642 -140.533154 
L 448.416157 -141.204626 
L 448.462223 -141.876098 
L 448.509847 -142.54757 
L 448.559035 -143.219042 
L 448.609792 -143.890515 
L 448.662125 -144.561987 
L 448.716036 -145.233459 
L 448.77153 -145.904931 
L 448.828609 -146.576403 
L 448.887277 -147.247875 
L 448.947536 -147.919347 
L 449.009385 -148.590819 
L 449.072825 -149.262292 
L 449.137855 -149.933764 
L 449.204474 -150.605236 
L 449.272679 -151.276708 
L 449.342466 -151.94818 
L 449.413832 -152.619652 
L 449.486769 -153.291124 
L 475.713231 -153.291124 
L 475.713231 -153.291124 
L 475.786168 -152.619652 
L 475.857534 -151.94818 
L 475.927321 -151.276708 
L 475.995526 -150.605236 
L 476.062145 -149.933764 
L 476.127175 -149.262292 
L 476.190615 -148.590819 
L 476.252464 -147.919347 
L 476.312723 -147.247875 
L 476.371391 -146.576403 
L 476.42847 -145.904931 
L 476.483964 -145.233459 
L 476.537875 -144.561987 
L 476.590208 -143.890515 
L 476.640965 -143.219042 
L 476.690153 -142.54757 
L 476.737777 -141.876098 
L 476.783843 -141.204626 
L 476.828358 -140.533154 
L 476.871328 -139.861682 
L 476.91276 -139.19021 
L 476.952662 -138.518738 
L 476.991043 -137.847266 
L 477.027909 -137.175793 
L 477.063268 -136.504321 
L 477.097131 -135.832849 
L 477.129503 -135.161377 
L 477.160394 -134.489905 
L 477.189813 -133.818433 
L 477.217767 -133.146961 
L 477.244265 -132.475489 
L 477.269315 -131.804016 
L 477.292924 -131.132544 
L 477.3151 -130.461072 
L 477.335851 -129.7896 
L 477.355184 -129.118128 
L 477.373106 -128.446656 
L 477.389623 -127.775184 
L 477.40474 -127.103712 
L 477.418465 -126.43224 
L 477.430802 -125.760767 
L 477.441755 -125.089295 
L 477.45133 -124.417823 
L 477.45953 -123.746351 
L 477.466358 -123.074879 
L 477.471817 -122.403407 
L 477.475909 -121.731935 
L 477.478637 -121.060463 
L 477.48 -120.38899 
L 477.48 -119.717518 
L 477.478637 -119.046046 
L 477.475909 -118.374574 
L 477.471817 -117.703102 
L 477.466358 -117.03163 
L 477.45953 -116.360158 
L 477.45133 -115.688686 
L 477.441755 -115.017214 
L 477.430802 -114.345741 
L 477.418465 -113.674269 
L 477.40474 -113.002797 
L 477.389623 -112.331325 
L 477.373106 -111.659853 
L 477.355184 -110.988381 
L 477.335851 -110.316909 
L 477.3151 -109.645437 
L 477.292924 -108.973964 
L 477.269315 -108.302492 
L 477.244265 -107.63102 
L 477.217767 -106.959548 
L 477.189813 -106.288076 
L 477.160394 -105.616604 
L 477.129503 -104.945132 
L 477.097131 -104.27366 
L 477.063268 -103.602188 
L 477.027909 -102.930715 
L 476.991043 -102.259243 
L 476.952662 -101.587771 
L 476.91276 -100.916299 
L 476.871328 -100.244827 
L 476.828358 -99.573355 
L 476.783843 -98.901883 
L 476.737777 -98.230411 
L 476.690153 -97.558938 
L 476.640965 -96.887466 
L 476.590208 -96.215994 
L 476.537875 -95.544522 
L 476.483964 -94.87305 
L 476.42847 -94.201578 
L 476.371391 -93.530106 
L 476.312723 -92.858634 
L 476.252464 -92.187162 
L 476.190615 -91.515689 
L 476.127175 -90.844217 
L 476.062145 -90.172745 
L 475.995526 -89.501273 
L 475.927321 -88.829801 
L 475.857534 -88.158329 
L 475.786168 -87.486857 
L 475.713231 -86.815385 
z
" id="mcfea700da5" style="stroke:#2d2d2d;stroke-width:1.5;"/>
    </defs>
    <g clip-path="url(#p32b2c9f331)">
     <use style="fill:#33468a;stroke:#2d2d2d;stroke-width:1.5;" x="0" xlink:href="#mcfea700da5" y="360"/>
    </g>
   </g>
   <g id="matplotlib.axis_1">
    <g id="xtick_1">
     <g id="line2d_1">
      <defs>
       <path d="M 0 0 
L 0 3.5 
" id="m4e79a2d6b5" style="stroke:#000000;stroke-width:0.8;"/>
      </defs>
      <g>
       <use style="stroke:#000000;stroke-width:0.8;" x="90.6" xlink:href="#m4e79a2d6b5" y="315"/>
      </g>
     </g>
     <g id="text_1">
      <!-- 1 -->
      <defs>
       <path d="M 12.40625 8.296875 
L 28.515625 8.296875 
L 28.515625 63.921875 
L 10.984375 60.40625 
L 10.984375 69.390625 
L 28.421875 72.90625 
L 38.28125 72.90625 
L 38.28125 8.296875 
L 54.390625 8.296875 
L 54.390625 0 
L 12.40625 0 
z
" id="DejaVuSans-49"/>
      </defs>
      <g transform="translate(87.41875 329.598437)scale(0.1 -0.1)">
       <use xlink:href="#DejaVuSans-49"/>
      </g>
     </g>
    </g>
    <g id="xtick_2">
     <g id="line2d_2">
      <g>
       <use style="stroke:#000000;stroke-width:0.8;" x="127.8" xlink:href="#m4e79a2d6b5" y="315"/>
      </g>
     </g>
     <g id="text_2">
      <!-- 2 -->
      <defs>
       <path d="M 19.1875 8.296875 
L 53.609375 8.296875 
L 53.609375 0 
L 7.328125 0 
L 7.328125 8.296875 
Q 12.9375 14.109375 22.625 23.890625 
Q 32.328125 33.6875 34.8125 36.53125 
Q 39.546875 41.84375 41.421875 45.53125 
Q 43.3125 49.21875 43.3125 52.78125 
Q 43.3125 58.59375 39.234375 62.25 
Q 35.15625 65.921875 28.609375 65.921875 
Q 23.96875 65.921875 18.8125 64.3125 
Q 13.671875 62.703125 7.8125 59.421875 
L 7.8125 69.390625 
Q 13.765625 71.78125 18.9375 73 
Q 24.125 74.21875 28.421875 74.21875 
Q 39.75 74.21875 46.484375 68.546875 
Q 53.21875 62.890625 53.21875 53.421875 
Q 53.21875 48.921875 51.53125 44.890625 
Q 49.859375 40.875 45.40625 35.40625 
Q 44.1875 33.984375 37.640625 27.21875 
Q 31.109375 20.453125 19.1875 8.296875 
z
" id="DejaVuSans-50"/>
      </defs>
      <g transform="translate(124.61875 329.598437)scale(0.1 -0.1)">
       <use xlink:href="#DejaVuSans-50"/>
      </g>
     </g>
    </g>
    <g id="xtick_3">
     <g id="line2d_3">
      <g>
       <use style="stroke:#000000;stroke-width:0.8;" x="165" xlink:href="#m4e79a2d6b5" y="315"/>
      </g>
     </g>
     <g id="text_3">
      <!-- 3 -->
      <defs>
       <path d="M 40.578125 39.3125 
Q 47.65625 37.796875 51.625 33 
Q 55.609375 28.21875 55.609375 21.1875 
Q 55.609375 10.40625 48.1875 4.484375 
Q 40.765625 -1.421875 27.09375 -1.421875 
Q 22.515625 -1.421875 17.65625 -0.515625 
Q 12.796875 0.390625 7.625 2.203125 
L 7.625 11.71875 
Q 11.71875 9.328125 16.59375 8.109375 
Q 21.484375 6.890625 26.8125 6.890625 
Q 36.078125 6.890625 40.9375 10.546875 
Q 45.796875 14.203125 45.796875 21.1875 
Q 45.796875 27.640625 41.28125 31.265625 
Q 36.765625 34.90625 28.71875 34.90625 
L 20.21875 34.90625 
L 20.21875 43.015625 
L 29.109375 43.015625 
Q 36.375 43.015625 40.234375 45.921875 
Q 44.09375 48.828125 44.09375 54.296875 
Q 44.09375 59.90625 40.109375 62.90625 
Q 36.140625 65.921875 28.71875 65.921875 
Q 24.65625 65.921875 20.015625 65.03125 
Q 15.375 64.15625 9.8125 62.3125 
L 9.8125 71.09375 
Q 15.4375 72.65625 20.34375 73.4375 
Q 25.25 74.21875 29.59375 74.21875 
Q 40.828125 74.21875 47.359375 69.109375 
Q 53.90625 64.015625 53.90625 55.328125 
Q 53.90625 49.265625 50.4375 45.09375 
Q 46.96875 40.921875 40.578125 39.3125 
z
" id="DejaVuSans-51"/>
      </defs>
      <g transform="translate(161.81875 329.598437)scale(0.1 -0.1)">
       <use xlink:href="#DejaVuSans-51"/>
      </g>
     </g>
    </g>
    <g id="xtick_4">
     <g id="line2d_4">
      <g>
       <use style="stroke:#000000;stroke-width:0.8;" x="202.2" xlink:href="#m4e79a2d6b5" y="315"/>
      </g>
     </g>
     <g id="text_4">
      <!-- 4 -->
      <defs>
       <path d="M 37.796875 64.3125 
L 12.890625 25.390625 
L 37.796875 25.390625 
z
M 35.203125 72.90625 
L 47.609375 72.90625 
L 47.609375 25.390625 
L 58.015625 25.390625 
L 58.015625 17.1875 
L 47.609375 17.1875 
L 47.609375 0 
L 37.796875 0 
L 37.796875 17.1875 
L 4.890625 17.1875 
L 4.890625 26.703125 
z
" id="DejaVuSans-52"/>
      </defs>
      <g transform="translate(199.01875 329.598437)scale(0.1 -0.1)">
       <use xlink:href="#DejaVuSans-52"/>
      </g>
     </g>
    </g>
    <g id="xtick_5">
     <g id="line2d_5">
      <g>
       <use style="stroke:#000000;stroke-width:0.8;" x="239.4" xlink:href="#m4e79a2d6b5" y="315"/>
      </g>
     </g>
     <g id="text_5">
      <!-- 5 -->
      <defs>
       <path d="M 10.796875 72.90625 
L 49.515625 72.90625 
L 49.515625 64.59375 
L 19.828125 64.59375 
L 19.828125 46.734375 
Q 21.96875 47.46875 24.109375 47.828125 
Q 26.265625 48.1875 28.421875 48.1875 
Q 40.625 48.1875 47.75 41.5 
Q 54.890625 34.8125 54.890625 23.390625 
Q 54.890625 11.625 47.5625 5.09375 
Q 40.234375 -1.421875 26.90625 -1.421875 
Q 22.3125 -1.421875 17.546875 -0.640625 
Q 12.796875 0.140625 7.71875 1.703125 
L 7.71875 11.625 
Q 12.109375 9.234375 16.796875 8.0625 
Q 21.484375 6.890625 26.703125 6.890625 
Q 35.15625 6.890625 40.078125 11.328125 
Q 45.015625 15.765625 45.015625 23.390625 
Q 45.015625 31 40.078125 35.4375 
Q 35.15625 39.890625 26.703125 39.890625 
Q 22.75 39.890625 18.8125 39.015625 
Q 14.890625 38.140625 10.796875 36.28125 
z
" id="DejaVuSans-53"/>
      </defs>
      <g transform="translate(236.21875 329.598437)scale(0.1 -0.1)">
       <use xlink:href="#DejaVuSans-53"/>
      </g>
     </g>
    </g>
    <g id="xtick_6">
     <g id="line2d_6">
      <g>
       <use style="stroke:#000000;stroke-width:0.8;" x="276.6" xlink:href="#m4e79a2d6b5" y="315"/>
      </g>
     </g>
     <g id="text_6">
      <!-- 6 -->
      <defs>
       <path d="M 33.015625 40.375 
Q 26.375 40.375 22.484375 35.828125 
Q 18.609375 31.296875 18.609375 23.390625 
Q 18.609375 15.53125 22.484375 10.953125 
Q 26.375 6.390625 33.015625 6.390625 
Q 39.65625 6.390625 43.53125 10.953125 
Q 47.40625 15.53125 47.40625 23.390625 
Q 47.40625 31.296875 43.53125 35.828125 
Q 39.65625 40.375 33.015625 40.375 
z
M 52.59375 71.296875 
L 52.59375 62.3125 
Q 48.875 64.0625 45.09375 64.984375 
Q 41.3125 65.921875 37.59375 65.921875 
Q 27.828125 65.921875 22.671875 59.328125 
Q 17.53125 52.734375 16.796875 39.40625 
Q 19.671875 43.65625 24.015625 45.921875 
Q 28.375 48.1875 33.59375 48.1875 
Q 44.578125 48.1875 50.953125 41.515625 
Q 57.328125 34.859375 57.328125 23.390625 
Q 57.328125 12.15625 50.6875 5.359375 
Q 44.046875 -1.421875 33.015625 -1.421875 
Q 20.359375 -1.421875 13.671875 8.265625 
Q 6.984375 17.96875 6.984375 36.375 
Q 6.984375 53.65625 15.1875 63.9375 
Q 23.390625 74.21875 37.203125 74.21875 
Q 40.921875 74.21875 44.703125 73.484375 
Q 48.484375 72.75 52.59375 71.296875 
z
" id="DejaVuSans-54"/>
      </defs>
      <g transform="translate(273.41875 329.598437)scale(0.1 -0.1)">
       <use xlink:href="#DejaVuSans-54"/>
      </g>
     </g>
    </g>
    <g id="xtick_7">
     <g id="line2d_7">
      <g>
       <use style="stroke:#000000;stroke-width:0.8;" x="313.8" xlink:href="#m4e79a2d6b5" y="315"/>
      </g>
     </g>
     <g id="text_7">
      <!-- 7 -->
      <defs>
       <path d="M 8.203125 72.90625 
L 55.078125 72.90625 
L 55.078125 68.703125 
L 28.609375 0 
L 18.3125 0 
L 43.21875 64.59375 
L 8.203125 64.59375 
z
" id="DejaVuSans-55"/>
      </defs>
      <g transform="translate(310.61875 329.598437)scale(0.1 -0.1)">
       <use xlink:href="#DejaVuSans-55"/>
      </g>
     </g>
    </g>
    <g id="xtick_8">
     <g id="line2d_8">
      <g>
       <use style="stroke:#000000;stroke-width:0.8;" x="351" xlink:href="#m4e79a2d6b5" y="315"/>
      </g>
     </g>
     <g id="text_8">
      <!-- 8 -->
      <defs>
       <path d="M 31.78125 34.625 
Q 24.75 34.625 20.71875 30.859375 
Q 16.703125 27.09375 16.703125 20.515625 
Q 16.703125 13.921875 20.71875 10.15625 
Q 24.75 6.390625 31.78125 6.390625 
Q 38.8125 6.390625 42.859375 10.171875 
Q 46.921875 13.96875 46.921875 20.515625 
Q 46.921875 27.09375 42.890625 30.859375 
Q 38.875 34.625 31.78125 34.625 
z
M 21.921875 38.8125 
Q 15.578125 40.375 12.03125 44.71875 
Q 8.5 49.078125 8.5 55.328125 
Q 8.5 64.0625 14.71875 69.140625 
Q 20.953125 74.21875 31.78125 74.21875 
Q 42.671875 74.21875 48.875 69.140625 
Q 55.078125 64.0625 55.078125 55.328125 
Q 55.078125 49.078125 51.53125 44.71875 
Q 48 40.375 41.703125 38.8125 
Q 48.828125 37.15625 52.796875 32.3125 
Q 56.78125 27.484375 56.78125 20.515625 
Q 56.78125 9.90625 50.3125 4.234375 
Q 43.84375 -1.421875 31.78125 -1.421875 
Q 19.734375 -1.421875 13.25 4.234375 
Q 6.78125 9.90625 6.78125 20.515625 
Q 6.78125 27.484375 10.78125 32.3125 
Q 14.796875 37.15625 21.921875 38.8125 
z
M 18.3125 54.390625 
Q 18.3125 48.734375 21.84375 45.5625 
Q 25.390625 42.390625 31.78125 42.390625 
Q 38.140625 42.390625 41.71875 45.5625 
Q 45.3125 48.734375 45.3125 54.390625 
Q 45.3125 60.0625 41.71875 63.234375 
Q 38.140625 66.40625 31.78125 66.40625 
Q 25.390625 66.40625 21.84375 63.234375 
Q 18.3125 60.0625 18.3125 54.390625 
z
" id="DejaVuSans-56"/>
      </defs>
      <g transform="translate(347.81875 329.598437)scale(0.1 -0.1)">
       <use xlink:href="#DejaVuSans-56"/>
      </g>
     </g>
    </g>
    <g id="xtick_9">
     <g id="line2d_9">
      <g>
       <use style="stroke:#000000;stroke-width:0.8;" x="388.2" xlink:href="#m4e79a2d6b5" y="315"/>
      </g>
     </g>
     <g id="text_9">
      <!-- 9 -->
      <defs>
       <path d="M 10.984375 1.515625 
L 10.984375 10.5 
Q 14.703125 8.734375 18.5 7.8125 
Q 22.3125 6.890625 25.984375 6.890625 
Q 35.75 6.890625 40.890625 13.453125 
Q 46.046875 20.015625 46.78125 33.40625 
Q 43.953125 29.203125 39.59375 26.953125 
Q 35.25 24.703125 29.984375 24.703125 
Q 19.046875 24.703125 12.671875 31.3125 
Q 6.296875 37.9375 6.296875 49.421875 
Q 6.296875 60.640625 12.9375 67.421875 
Q 19.578125 74.21875 30.609375 74.21875 
Q 43.265625 74.21875 49.921875 64.515625 
Q 56.59375 54.828125 56.59375 36.375 
Q 56.59375 19.140625 48.40625 8.859375 
Q 40.234375 -1.421875 26.421875 -1.421875 
Q 22.703125 -1.421875 18.890625 -0.6875 
Q 15.09375 0.046875 10.984375 1.515625 
z
M 30.609375 32.421875 
Q 37.25 32.421875 41.125 36.953125 
Q 45.015625 41.5 45.015625 49.421875 
Q 45.015625 57.28125 41.125 61.84375 
Q 37.25 66.40625 30.609375 66.40625 
Q 23.96875 66.40625 20.09375 61.84375 
Q 16.21875 57.28125 16.21875 49.421875 
Q 16.21875 41.5 20.09375 36.953125 
Q 23.96875 32.421875 30.609375 32.421875 
z
" id="DejaVuSans-57"/>
      </defs>
      <g transform="translate(385.01875 329.598437)scale(0.1 -0.1)">
       <use xlink:href="#DejaVuSans-57"/>
      </g>
     </g>
    </g>
    <g id="xtick_10">
     <g id="line2d_10">
      <g>
       <use style="stroke:#000000;stroke-width:0.8;" x="425.4" xlink:href="#m4e79a2d6b5" y="315"/>
      </g>
     </g>
     <g id="text_10">
      <!-- 10 -->
      <defs>
       <path d="M 31.78125 66.40625 
Q 24.171875 66.40625 20.328125 58.90625 
Q 16.5 51.421875 16.5 36.375 
Q 16.5 21.390625 20.328125 13.890625 
Q 24.171875 6.390625 31.78125 6.390625 
Q 39.453125 6.390625 43.28125 13.890625 
Q 47.125 21.390625 47.125 36.375 
Q 47.125 51.421875 43.28125 58.90625 
Q 39.453125 66.40625 31.78125 66.40625 
z
M 31.78125 74.21875 
Q 44.046875 74.21875 50.515625 64.515625 
Q 56.984375 54.828125 56.984375 36.375 
Q 56.984375 17.96875 50.515625 8.265625 
Q 44.046875 -1.421875 31.78125 -1.421875 
Q 19.53125 -1.421875 13.0625 8.265625 
Q 6.59375 17.96875 6.59375 36.375 
Q 6.59375 54.828125 13.0625 64.515625 
Q 19.53125 74.21875 31.78125 74.21875 
z
" id="DejaVuSans-48"/>
      </defs>
      <g transform="translate(419.0375 329.598437)scale(0.1 -0.1)">
       <use xlink:href="#DejaVuSans-49"/>
       <use x="63.623047" xlink:href="#DejaVuSans-48"/>
      </g>
     </g>
    </g>
    <g id="xtick_11">
     <g id="line2d_11">
      <g>
       <use style="stroke:#000000;stroke-width:0.8;" x="462.6" xlink:href="#m4e79a2d6b5" y="315"/>
      </g>
     </g>
     <g id="text_11">
      <!-- 11 -->
      <g transform="translate(456.2375 329.598437)scale(0.1 -0.1)">
       <use xlink:href="#DejaVuSans-49"/>
       <use x="63.623047" xlink:href="#DejaVuSans-49"/>
      </g>
     </g>
    </g>
    <g id="xtick_12">
     <g id="line2d_12">
      <g>
       <use style="stroke:#000000;stroke-width:0.8;" x="499.8" xlink:href="#m4e79a2d6b5" y="315"/>
      </g>
     </g>
     <g id="text_12">
      <!-- 12 -->
      <g transform="translate(493.4375 329.598437)scale(0.1 -0.1)">
       <use xlink:href="#DejaVuSans-49"/>
       <use x="63.623047" xlink:href="#DejaVuSans-50"/>
      </g>
     </g>
    </g>
    <g id="text_13">
     <!-- # of Preprint Versions -->
     <defs>
      <path d="M 51.125 44 
L 36.921875 44 
L 32.8125 27.6875 
L 47.125 27.6875 
z
M 43.796875 71.78125 
L 38.71875 51.515625 
L 52.984375 51.515625 
L 58.109375 71.78125 
L 65.921875 71.78125 
L 60.890625 51.515625 
L 76.125 51.515625 
L 76.125 44 
L 58.984375 44 
L 54.984375 27.6875 
L 70.515625 27.6875 
L 70.515625 20.21875 
L 53.078125 20.21875 
L 48 0 
L 40.1875 0 
L 45.21875 20.21875 
L 30.90625 20.21875 
L 25.875 0 
L 18.015625 0 
L 23.09375 20.21875 
L 7.71875 20.21875 
L 7.71875 27.6875 
L 24.90625 27.6875 
L 29 44 
L 13.28125 44 
L 13.28125 51.515625 
L 30.90625 51.515625 
L 35.890625 71.78125 
z
" id="DejaVuSans-35"/>
      <path id="DejaVuSans-32"/>
      <path d="M 30.609375 48.390625 
Q 23.390625 48.390625 19.1875 42.75 
Q 14.984375 37.109375 14.984375 27.296875 
Q 14.984375 17.484375 19.15625 11.84375 
Q 23.34375 6.203125 30.609375 6.203125 
Q 37.796875 6.203125 41.984375 11.859375 
Q 46.1875 17.53125 46.1875 27.296875 
Q 46.1875 37.015625 41.984375 42.703125 
Q 37.796875 48.390625 30.609375 48.390625 
z
M 30.609375 56 
Q 42.328125 56 49.015625 48.375 
Q 55.71875 40.765625 55.71875 27.296875 
Q 55.71875 13.875 49.015625 6.21875 
Q 42.328125 -1.421875 30.609375 -1.421875 
Q 18.84375 -1.421875 12.171875 6.21875 
Q 5.515625 13.875 5.515625 27.296875 
Q 5.515625 40.765625 12.171875 48.375 
Q 18.84375 56 30.609375 56 
z
" id="DejaVuSans-111"/>
      <path d="M 37.109375 75.984375 
L 37.109375 68.5 
L 28.515625 68.5 
Q 23.6875 68.5 21.796875 66.546875 
Q 19.921875 64.59375 19.921875 59.515625 
L 19.921875 54.6875 
L 34.71875 54.6875 
L 34.71875 47.703125 
L 19.921875 47.703125 
L 19.921875 0 
L 10.890625 0 
L 10.890625 47.703125 
L 2.296875 47.703125 
L 2.296875 54.6875 
L 10.890625 54.6875 
L 10.890625 58.5 
Q 10.890625 67.625 15.140625 71.796875 
Q 19.390625 75.984375 28.609375 75.984375 
z
" id="DejaVuSans-102"/>
      <path d="M 19.671875 64.796875 
L 19.671875 37.40625 
L 32.078125 37.40625 
Q 38.96875 37.40625 42.71875 40.96875 
Q 46.484375 44.53125 46.484375 51.125 
Q 46.484375 57.671875 42.71875 61.234375 
Q 38.96875 64.796875 32.078125 64.796875 
z
M 9.8125 72.90625 
L 32.078125 72.90625 
Q 44.34375 72.90625 50.609375 67.359375 
Q 56.890625 61.8125 56.890625 51.125 
Q 56.890625 40.328125 50.609375 34.8125 
Q 44.34375 29.296875 32.078125 29.296875 
L 19.671875 29.296875 
L 19.671875 0 
L 9.8125 0 
z
" id="DejaVuSans-80"/>
      <path d="M 41.109375 46.296875 
Q 39.59375 47.171875 37.8125 47.578125 
Q 36.03125 48 33.890625 48 
Q 26.265625 48 22.1875 43.046875 
Q 18.109375 38.09375 18.109375 28.8125 
L 18.109375 0 
L 9.078125 0 
L 9.078125 54.6875 
L 18.109375 54.6875 
L 18.109375 46.1875 
Q 20.953125 51.171875 25.484375 53.578125 
Q 30.03125 56 36.53125 56 
Q 37.453125 56 38.578125 55.875 
Q 39.703125 55.765625 41.0625 55.515625 
z
" id="DejaVuSans-114"/>
      <path d="M 56.203125 29.59375 
L 56.203125 25.203125 
L 14.890625 25.203125 
Q 15.484375 15.921875 20.484375 11.0625 
Q 25.484375 6.203125 34.421875 6.203125 
Q 39.59375 6.203125 44.453125 7.46875 
Q 49.3125 8.734375 54.109375 11.28125 
L 54.109375 2.78125 
Q 49.265625 0.734375 44.1875 -0.34375 
Q 39.109375 -1.421875 33.890625 -1.421875 
Q 20.796875 -1.421875 13.15625 6.1875 
Q 5.515625 13.8125 5.515625 26.8125 
Q 5.515625 40.234375 12.765625 48.109375 
Q 20.015625 56 32.328125 56 
Q 43.359375 56 49.78125 48.890625 
Q 56.203125 41.796875 56.203125 29.59375 
z
M 47.21875 32.234375 
Q 47.125 39.59375 43.09375 43.984375 
Q 39.0625 48.390625 32.421875 48.390625 
Q 24.90625 48.390625 20.390625 44.140625 
Q 15.875 39.890625 15.1875 32.171875 
z
" id="DejaVuSans-101"/>
      <path d="M 18.109375 8.203125 
L 18.109375 -20.796875 
L 9.078125 -20.796875 
L 9.078125 54.6875 
L 18.109375 54.6875 
L 18.109375 46.390625 
Q 20.953125 51.265625 25.265625 53.625 
Q 29.59375 56 35.59375 56 
Q 45.5625 56 51.78125 48.09375 
Q 58.015625 40.1875 58.015625 27.296875 
Q 58.015625 14.40625 51.78125 6.484375 
Q 45.5625 -1.421875 35.59375 -1.421875 
Q 29.59375 -1.421875 25.265625 0.953125 
Q 20.953125 3.328125 18.109375 8.203125 
z
M 48.6875 27.296875 
Q 48.6875 37.203125 44.609375 42.84375 
Q 40.53125 48.484375 33.40625 48.484375 
Q 26.265625 48.484375 22.1875 42.84375 
Q 18.109375 37.203125 18.109375 27.296875 
Q 18.109375 17.390625 22.1875 11.75 
Q 26.265625 6.109375 33.40625 6.109375 
Q 40.53125 6.109375 44.609375 11.75 
Q 48.6875 17.390625 48.6875 27.296875 
z
" id="DejaVuSans-112"/>
      <path d="M 9.421875 54.6875 
L 18.40625 54.6875 
L 18.40625 0 
L 9.421875 0 
z
M 9.421875 75.984375 
L 18.40625 75.984375 
L 18.40625 64.59375 
L 9.421875 64.59375 
z
" id="DejaVuSans-105"/>
      <path d="M 54.890625 33.015625 
L 54.890625 0 
L 45.90625 0 
L 45.90625 32.71875 
Q 45.90625 40.484375 42.875 44.328125 
Q 39.84375 48.1875 33.796875 48.1875 
Q 26.515625 48.1875 22.3125 43.546875 
Q 18.109375 38.921875 18.109375 30.90625 
L 18.109375 0 
L 9.078125 0 
L 9.078125 54.6875 
L 18.109375 54.6875 
L 18.109375 46.1875 
Q 21.34375 51.125 25.703125 53.5625 
Q 30.078125 56 35.796875 56 
Q 45.21875 56 50.046875 50.171875 
Q 54.890625 44.34375 54.890625 33.015625 
z
" id="DejaVuSans-110"/>
      <path d="M 18.3125 70.21875 
L 18.3125 54.6875 
L 36.8125 54.6875 
L 36.8125 47.703125 
L 18.3125 47.703125 
L 18.3125 18.015625 
Q 18.3125 11.328125 20.140625 9.421875 
Q 21.96875 7.515625 27.59375 7.515625 
L 36.8125 7.515625 
L 36.8125 0 
L 27.59375 0 
Q 17.1875 0 13.234375 3.875 
Q 9.28125 7.765625 9.28125 18.015625 
L 9.28125 47.703125 
L 2.6875 47.703125 
L 2.6875 54.6875 
L 9.28125 54.6875 
L 9.28125 70.21875 
z
" id="DejaVuSans-116"/>
      <path d="M 28.609375 0 
L 0.78125 72.90625 
L 11.078125 72.90625 
L 34.1875 11.53125 
L 57.328125 72.90625 
L 67.578125 72.90625 
L 39.796875 0 
z
" id="DejaVuSans-86"/>
      <path d="M 44.28125 53.078125 
L 44.28125 44.578125 
Q 40.484375 46.53125 36.375 47.5 
Q 32.28125 48.484375 27.875 48.484375 
Q 21.1875 48.484375 17.84375 46.4375 
Q 14.5 44.390625 14.5 40.28125 
Q 14.5 37.15625 16.890625 35.375 
Q 19.28125 33.59375 26.515625 31.984375 
L 29.59375 31.296875 
Q 39.15625 29.25 43.1875 25.515625 
Q 47.21875 21.78125 47.21875 15.09375 
Q 47.21875 7.46875 41.1875 3.015625 
Q 35.15625 -1.421875 24.609375 -1.421875 
Q 20.21875 -1.421875 15.453125 -0.5625 
Q 10.6875 0.296875 5.421875 2 
L 5.421875 11.28125 
Q 10.40625 8.6875 15.234375 7.390625 
Q 20.0625 6.109375 24.8125 6.109375 
Q 31.15625 6.109375 34.5625 8.28125 
Q 37.984375 10.453125 37.984375 14.40625 
Q 37.984375 18.0625 35.515625 20.015625 
Q 33.0625 21.96875 24.703125 23.78125 
L 21.578125 24.515625 
Q 13.234375 26.265625 9.515625 29.90625 
Q 5.8125 33.546875 5.8125 39.890625 
Q 5.8125 47.609375 11.28125 51.796875 
Q 16.75 56 26.8125 56 
Q 31.78125 56 36.171875 55.265625 
Q 40.578125 54.546875 44.28125 53.078125 
z
" id="DejaVuSans-115"/>
     </defs>
     <g transform="translate(240.7375 343.276563)scale(0.1 -0.1)">
      <use xlink:href="#DejaVuSans-35"/>
      <use x="83.789062" xlink:href="#DejaVuSans-32"/>
      <use x="115.576172" xlink:href="#DejaVuSans-111"/>
      <use x="176.757812" xlink:href="#DejaVuSans-102"/>
      <use x="211.962891" xlink:href="#DejaVuSans-32"/>
      <use x="243.75" xlink:href="#DejaVuSans-80"/>
      <use x="302.302734" xlink:href="#DejaVuSans-114"/>
      <use x="341.166016" xlink:href="#DejaVuSans-101"/>
      <use x="402.689453" xlink:href="#DejaVuSans-112"/>
      <use x="466.166016" xlink:href="#DejaVuSans-114"/>
      <use x="507.279297" xlink:href="#DejaVuSans-105"/>
      <use x="535.0625" xlink:href="#DejaVuSans-110"/>
      <use x="598.441406" xlink:href="#DejaVuSans-116"/>
      <use x="637.650391" xlink:href="#DejaVuSans-32"/>
      <use x="669.4375" xlink:href="#DejaVuSans-86"/>
      <use x="730.095703" xlink:href="#DejaVuSans-101"/>
      <use x="791.619141" xlink:href="#DejaVuSans-114"/>
      <use x="832.732422" xlink:href="#DejaVuSans-115"/>
      <use x="884.832031" xlink:href="#DejaVuSans-105"/>
      <use x="912.615234" xlink:href="#DejaVuSans-111"/>
      <use x="973.796875" xlink:href="#DejaVuSans-110"/>
      <use x="1037.175781" xlink:href="#DejaVuSans-115"/>
     </g>
    </g>
   </g>
   <g id="matplotlib.axis_2">
    <g id="ytick_1">
     <g id="line2d_13">
      <defs>
       <path d="M 0 0 
L -3.5 0 
" id="m4517ec5c66" style="stroke:#000000;stroke-width:0.8;"/>
      </defs>
      <g>
       <use style="stroke:#000000;stroke-width:0.8;" x="72" xlink:href="#m4517ec5c66" y="315"/>
      </g>
     </g>
     <g id="text_14">
      <!-- 0 -->
      <g transform="translate(58.6375 318.799219)scale(0.1 -0.1)">
       <use xlink:href="#DejaVuSans-48"/>
      </g>
     </g>
    </g>
    <g id="ytick_2">
     <g id="line2d_14">
      <g>
       <use style="stroke:#000000;stroke-width:0.8;" x="72" xlink:href="#m4517ec5c66" y="284.366019"/>
      </g>
     </g>
     <g id="text_15">
      <!-- 200 -->
      <g transform="translate(45.9125 288.165237)scale(0.1 -0.1)">
       <use xlink:href="#DejaVuSans-50"/>
       <use x="63.623047" xlink:href="#DejaVuSans-48"/>
       <use x="127.246094" xlink:href="#DejaVuSans-48"/>
      </g>
     </g>
    </g>
    <g id="ytick_3">
     <g id="line2d_15">
      <g>
       <use style="stroke:#000000;stroke-width:0.8;" x="72" xlink:href="#m4517ec5c66" y="253.732037"/>
      </g>
     </g>
     <g id="text_16">
      <!-- 400 -->
      <g transform="translate(45.9125 257.531256)scale(0.1 -0.1)">
       <use xlink:href="#DejaVuSans-52"/>
       <use x="63.623047" xlink:href="#DejaVuSans-48"/>
       <use x="127.246094" xlink:href="#DejaVuSans-48"/>
      </g>
     </g>
    </g>
    <g id="ytick_4">
     <g id="line2d_16">
      <g>
       <use style="stroke:#000000;stroke-width:0.8;" x="72" xlink:href="#m4517ec5c66" y="223.098056"/>
      </g>
     </g>
     <g id="text_17">
      <!-- 600 -->
      <g transform="translate(45.9125 226.897275)scale(0.1 -0.1)">
       <use xlink:href="#DejaVuSans-54"/>
       <use x="63.623047" xlink:href="#DejaVuSans-48"/>
       <use x="127.246094" xlink:href="#DejaVuSans-48"/>
      </g>
     </g>
    </g>
    <g id="ytick_5">
     <g id="line2d_17">
      <g>
       <use style="stroke:#000000;stroke-width:0.8;" x="72" xlink:href="#m4517ec5c66" y="192.464074"/>
      </g>
     </g>
     <g id="text_18">
      <!-- 800 -->
      <g transform="translate(45.9125 196.263293)scale(0.1 -0.1)">
       <use xlink:href="#DejaVuSans-56"/>
       <use x="63.623047" xlink:href="#DejaVuSans-48"/>
       <use x="127.246094" xlink:href="#DejaVuSans-48"/>
      </g>
     </g>
    </g>
    <g id="ytick_6">
     <g id="line2d_18">
      <g>
       <use style="stroke:#000000;stroke-width:0.8;" x="72" xlink:href="#m4517ec5c66" y="161.830093"/>
      </g>
     </g>
     <g id="text_19">
      <!-- 1000 -->
      <g transform="translate(39.55 165.629312)scale(0.1 -0.1)">
       <use xlink:href="#DejaVuSans-49"/>
       <use x="63.623047" xlink:href="#DejaVuSans-48"/>
       <use x="127.246094" xlink:href="#DejaVuSans-48"/>
       <use x="190.869141" xlink:href="#DejaVuSans-48"/>
      </g>
     </g>
    </g>
    <g id="ytick_7">
     <g id="line2d_19">
      <g>
       <use style="stroke:#000000;stroke-width:0.8;" x="72" xlink:href="#m4517ec5c66" y="131.196112"/>
      </g>
     </g>
     <g id="text_20">
      <!-- 1200 -->
      <g transform="translate(39.55 134.99533)scale(0.1 -0.1)">
       <use xlink:href="#DejaVuSans-49"/>
       <use x="63.623047" xlink:href="#DejaVuSans-50"/>
       <use x="127.246094" xlink:href="#DejaVuSans-48"/>
       <use x="190.869141" xlink:href="#DejaVuSans-48"/>
      </g>
     </g>
    </g>
    <g id="ytick_8">
     <g id="line2d_20">
      <g>
       <use style="stroke:#000000;stroke-width:0.8;" x="72" xlink:href="#m4517ec5c66" y="100.56213"/>
      </g>
     </g>
     <g id="text_21">
      <!-- 1400 -->
      <g transform="translate(39.55 104.361349)scale(0.1 -0.1)">
       <use xlink:href="#DejaVuSans-49"/>
       <use x="63.623047" xlink:href="#DejaVuSans-52"/>
       <use x="127.246094" xlink:href="#DejaVuSans-48"/>
       <use x="190.869141" xlink:href="#DejaVuSans-48"/>
      </g>
     </g>
    </g>
    <g id="ytick_9">
     <g id="line2d_21">
      <g>
       <use style="stroke:#000000;stroke-width:0.8;" x="72" xlink:href="#m4517ec5c66" y="69.928149"/>
      </g>
     </g>
     <g id="text_22">
      <!-- 1600 -->
      <g transform="translate(39.55 73.727368)scale(0.1 -0.1)">
       <use xlink:href="#DejaVuSans-49"/>
       <use x="63.623047" xlink:href="#DejaVuSans-54"/>
       <use x="127.246094" xlink:href="#DejaVuSans-48"/>
       <use x="190.869141" xlink:href="#DejaVuSans-48"/>
      </g>
     </g>
    </g>
    <g id="text_23">
     <!-- Time Elapsed Until Preprint is Published (Days) -->
     <defs>
      <path d="M -0.296875 72.90625 
L 61.375 72.90625 
L 61.375 64.59375 
L 35.5 64.59375 
L 35.5 0 
L 25.59375 0 
L 25.59375 64.59375 
L -0.296875 64.59375 
z
" id="DejaVuSans-84"/>
      <path d="M 52 44.1875 
Q 55.375 50.25 60.0625 53.125 
Q 64.75 56 71.09375 56 
Q 79.640625 56 84.28125 50.015625 
Q 88.921875 44.046875 88.921875 33.015625 
L 88.921875 0 
L 79.890625 0 
L 79.890625 32.71875 
Q 79.890625 40.578125 77.09375 44.375 
Q 74.3125 48.1875 68.609375 48.1875 
Q 61.625 48.1875 57.5625 43.546875 
Q 53.515625 38.921875 53.515625 30.90625 
L 53.515625 0 
L 44.484375 0 
L 44.484375 32.71875 
Q 44.484375 40.625 41.703125 44.40625 
Q 38.921875 48.1875 33.109375 48.1875 
Q 26.21875 48.1875 22.15625 43.53125 
Q 18.109375 38.875 18.109375 30.90625 
L 18.109375 0 
L 9.078125 0 
L 9.078125 54.6875 
L 18.109375 54.6875 
L 18.109375 46.1875 
Q 21.1875 51.21875 25.484375 53.609375 
Q 29.78125 56 35.6875 56 
Q 41.65625 56 45.828125 52.96875 
Q 50 49.953125 52 44.1875 
z
" id="DejaVuSans-109"/>
      <path d="M 9.8125 72.90625 
L 55.90625 72.90625 
L 55.90625 64.59375 
L 19.671875 64.59375 
L 19.671875 43.015625 
L 54.390625 43.015625 
L 54.390625 34.71875 
L 19.671875 34.71875 
L 19.671875 8.296875 
L 56.78125 8.296875 
L 56.78125 0 
L 9.8125 0 
z
" id="DejaVuSans-69"/>
      <path d="M 9.421875 75.984375 
L 18.40625 75.984375 
L 18.40625 0 
L 9.421875 0 
z
" id="DejaVuSans-108"/>
      <path d="M 34.28125 27.484375 
Q 23.390625 27.484375 19.1875 25 
Q 14.984375 22.515625 14.984375 16.5 
Q 14.984375 11.71875 18.140625 8.90625 
Q 21.296875 6.109375 26.703125 6.109375 
Q 34.1875 6.109375 38.703125 11.40625 
Q 43.21875 16.703125 43.21875 25.484375 
L 43.21875 27.484375 
z
M 52.203125 31.203125 
L 52.203125 0 
L 43.21875 0 
L 43.21875 8.296875 
Q 40.140625 3.328125 35.546875 0.953125 
Q 30.953125 -1.421875 24.3125 -1.421875 
Q 15.921875 -1.421875 10.953125 3.296875 
Q 6 8.015625 6 15.921875 
Q 6 25.140625 12.171875 29.828125 
Q 18.359375 34.515625 30.609375 34.515625 
L 43.21875 34.515625 
L 43.21875 35.40625 
Q 43.21875 41.609375 39.140625 45 
Q 35.0625 48.390625 27.6875 48.390625 
Q 23 48.390625 18.546875 47.265625 
Q 14.109375 46.140625 10.015625 43.890625 
L 10.015625 52.203125 
Q 14.9375 54.109375 19.578125 55.046875 
Q 24.21875 56 28.609375 56 
Q 40.484375 56 46.34375 49.84375 
Q 52.203125 43.703125 52.203125 31.203125 
z
" id="DejaVuSans-97"/>
      <path d="M 45.40625 46.390625 
L 45.40625 75.984375 
L 54.390625 75.984375 
L 54.390625 0 
L 45.40625 0 
L 45.40625 8.203125 
Q 42.578125 3.328125 38.25 0.953125 
Q 33.9375 -1.421875 27.875 -1.421875 
Q 17.96875 -1.421875 11.734375 6.484375 
Q 5.515625 14.40625 5.515625 27.296875 
Q 5.515625 40.1875 11.734375 48.09375 
Q 17.96875 56 27.875 56 
Q 33.9375 56 38.25 53.625 
Q 42.578125 51.265625 45.40625 46.390625 
z
M 14.796875 27.296875 
Q 14.796875 17.390625 18.875 11.75 
Q 22.953125 6.109375 30.078125 6.109375 
Q 37.203125 6.109375 41.296875 11.75 
Q 45.40625 17.390625 45.40625 27.296875 
Q 45.40625 37.203125 41.296875 42.84375 
Q 37.203125 48.484375 30.078125 48.484375 
Q 22.953125 48.484375 18.875 42.84375 
Q 14.796875 37.203125 14.796875 27.296875 
z
" id="DejaVuSans-100"/>
      <path d="M 8.6875 72.90625 
L 18.609375 72.90625 
L 18.609375 28.609375 
Q 18.609375 16.890625 22.84375 11.734375 
Q 27.09375 6.59375 36.625 6.59375 
Q 46.09375 6.59375 50.34375 11.734375 
Q 54.59375 16.890625 54.59375 28.609375 
L 54.59375 72.90625 
L 64.5 72.90625 
L 64.5 27.390625 
Q 64.5 13.140625 57.4375 5.859375 
Q 50.390625 -1.421875 36.625 -1.421875 
Q 22.796875 -1.421875 15.734375 5.859375 
Q 8.6875 13.140625 8.6875 27.390625 
z
" id="DejaVuSans-85"/>
      <path d="M 8.5 21.578125 
L 8.5 54.6875 
L 17.484375 54.6875 
L 17.484375 21.921875 
Q 17.484375 14.15625 20.5 10.265625 
Q 23.53125 6.390625 29.59375 6.390625 
Q 36.859375 6.390625 41.078125 11.03125 
Q 45.3125 15.671875 45.3125 23.6875 
L 45.3125 54.6875 
L 54.296875 54.6875 
L 54.296875 0 
L 45.3125 0 
L 45.3125 8.40625 
Q 42.046875 3.421875 37.71875 1 
Q 33.40625 -1.421875 27.6875 -1.421875 
Q 18.265625 -1.421875 13.375 4.4375 
Q 8.5 10.296875 8.5 21.578125 
z
M 31.109375 56 
z
" id="DejaVuSans-117"/>
      <path d="M 48.6875 27.296875 
Q 48.6875 37.203125 44.609375 42.84375 
Q 40.53125 48.484375 33.40625 48.484375 
Q 26.265625 48.484375 22.1875 42.84375 
Q 18.109375 37.203125 18.109375 27.296875 
Q 18.109375 17.390625 22.1875 11.75 
Q 26.265625 6.109375 33.40625 6.109375 
Q 40.53125 6.109375 44.609375 11.75 
Q 48.6875 17.390625 48.6875 27.296875 
z
M 18.109375 46.390625 
Q 20.953125 51.265625 25.265625 53.625 
Q 29.59375 56 35.59375 56 
Q 45.5625 56 51.78125 48.09375 
Q 58.015625 40.1875 58.015625 27.296875 
Q 58.015625 14.40625 51.78125 6.484375 
Q 45.5625 -1.421875 35.59375 -1.421875 
Q 29.59375 -1.421875 25.265625 0.953125 
Q 20.953125 3.328125 18.109375 8.203125 
L 18.109375 0 
L 9.078125 0 
L 9.078125 75.984375 
L 18.109375 75.984375 
z
" id="DejaVuSans-98"/>
      <path d="M 54.890625 33.015625 
L 54.890625 0 
L 45.90625 0 
L 45.90625 32.71875 
Q 45.90625 40.484375 42.875 44.328125 
Q 39.84375 48.1875 33.796875 48.1875 
Q 26.515625 48.1875 22.3125 43.546875 
Q 18.109375 38.921875 18.109375 30.90625 
L 18.109375 0 
L 9.078125 0 
L 9.078125 75.984375 
L 18.109375 75.984375 
L 18.109375 46.1875 
Q 21.34375 51.125 25.703125 53.5625 
Q 30.078125 56 35.796875 56 
Q 45.21875 56 50.046875 50.171875 
Q 54.890625 44.34375 54.890625 33.015625 
z
" id="DejaVuSans-104"/>
      <path d="M 31 75.875 
Q 24.46875 64.65625 21.28125 53.65625 
Q 18.109375 42.671875 18.109375 31.390625 
Q 18.109375 20.125 21.3125 9.0625 
Q 24.515625 -2 31 -13.1875 
L 23.1875 -13.1875 
Q 15.875 -1.703125 12.234375 9.375 
Q 8.59375 20.453125 8.59375 31.390625 
Q 8.59375 42.28125 12.203125 53.3125 
Q 15.828125 64.359375 23.1875 75.875 
z
" id="DejaVuSans-40"/>
      <path d="M 19.671875 64.796875 
L 19.671875 8.109375 
L 31.59375 8.109375 
Q 46.6875 8.109375 53.6875 14.9375 
Q 60.6875 21.78125 60.6875 36.53125 
Q 60.6875 51.171875 53.6875 57.984375 
Q 46.6875 64.796875 31.59375 64.796875 
z
M 9.8125 72.90625 
L 30.078125 72.90625 
Q 51.265625 72.90625 61.171875 64.09375 
Q 71.09375 55.28125 71.09375 36.53125 
Q 71.09375 17.671875 61.125 8.828125 
Q 51.171875 0 30.078125 0 
L 9.8125 0 
z
" id="DejaVuSans-68"/>
      <path d="M 32.171875 -5.078125 
Q 28.375 -14.84375 24.75 -17.8125 
Q 21.140625 -20.796875 15.09375 -20.796875 
L 7.90625 -20.796875 
L 7.90625 -13.28125 
L 13.1875 -13.28125 
Q 16.890625 -13.28125 18.9375 -11.515625 
Q 21 -9.765625 23.484375 -3.21875 
L 25.09375 0.875 
L 2.984375 54.6875 
L 12.5 54.6875 
L 29.59375 11.921875 
L 46.6875 54.6875 
L 56.203125 54.6875 
z
" id="DejaVuSans-121"/>
      <path d="M 8.015625 75.875 
L 15.828125 75.875 
Q 23.140625 64.359375 26.78125 53.3125 
Q 30.421875 42.28125 30.421875 31.390625 
Q 30.421875 20.453125 26.78125 9.375 
Q 23.140625 -1.703125 15.828125 -13.1875 
L 8.015625 -13.1875 
Q 14.5 -2 17.703125 9.0625 
Q 20.90625 20.125 20.90625 31.390625 
Q 20.90625 42.671875 17.703125 53.65625 
Q 14.5 64.65625 8.015625 75.875 
z
" id="DejaVuSans-41"/>
     </defs>
     <g transform="translate(33.470312 296.217188)rotate(-90)scale(0.1 -0.1)">
      <use xlink:href="#DejaVuSans-84"/>
      <use x="57.958984" xlink:href="#DejaVuSans-105"/>
      <use x="85.742188" xlink:href="#DejaVuSans-109"/>
      <use x="183.154297" xlink:href="#DejaVuSans-101"/>
      <use x="244.677734" xlink:href="#DejaVuSans-32"/>
      <use x="276.464844" xlink:href="#DejaVuSans-69"/>
      <use x="339.648438" xlink:href="#DejaVuSans-108"/>
      <use x="367.431641" xlink:href="#DejaVuSans-97"/>
      <use x="428.710938" xlink:href="#DejaVuSans-112"/>
      <use x="492.1875" xlink:href="#DejaVuSans-115"/>
      <use x="544.287109" xlink:href="#DejaVuSans-101"/>
      <use x="605.810547" xlink:href="#DejaVuSans-100"/>
      <use x="669.287109" xlink:href="#DejaVuSans-32"/>
      <use x="701.074219" xlink:href="#DejaVuSans-85"/>
      <use x="774.267578" xlink:href="#DejaVuSans-110"/>
      <use x="837.646484" xlink:href="#DejaVuSans-116"/>
      <use x="876.855469" xlink:href="#DejaVuSans-105"/>
      <use x="904.638672" xlink:href="#DejaVuSans-108"/>
      <use x="932.421875" xlink:href="#DejaVuSans-32"/>
      <use x="964.208984" xlink:href="#DejaVuSans-80"/>
      <use x="1022.761719" xlink:href="#DejaVuSans-114"/>
      <use x="1061.625" xlink:href="#DejaVuSans-101"/>
      <use x="1123.148438" xlink:href="#DejaVuSans-112"/>
      <use x="1186.625" xlink:href="#DejaVuSans-114"/>
      <use x="1227.738281" xlink:href="#DejaVuSans-105"/>
      <use x="1255.521484" xlink:href="#DejaVuSans-110"/>
      <use x="1318.900391" xlink:href="#DejaVuSans-116"/>
      <use x="1358.109375" xlink:href="#DejaVuSans-32"/>
      <use x="1389.896484" xlink:href="#DejaVuSans-105"/>
      <use x="1417.679688" xlink:href="#DejaVuSans-115"/>
      <use x="1469.779297" xlink:href="#DejaVuSans-32"/>
      <use x="1501.566406" xlink:href="#DejaVuSans-80"/>
      <use x="1560.119141" xlink:href="#DejaVuSans-117"/>
      <use x="1623.498047" xlink:href="#DejaVuSans-98"/>
      <use x="1686.974609" xlink:href="#DejaVuSans-108"/>
      <use x="1714.757812" xlink:href="#DejaVuSans-105"/>
      <use x="1742.541016" xlink:href="#DejaVuSans-115"/>
      <use x="1794.640625" xlink:href="#DejaVuSans-104"/>
      <use x="1858.019531" xlink:href="#DejaVuSans-101"/>
      <use x="1919.542969" xlink:href="#DejaVuSans-100"/>
      <use x="1983.019531" xlink:href="#DejaVuSans-32"/>
      <use x="2014.806641" xlink:href="#DejaVuSans-40"/>
      <use x="2053.820312" xlink:href="#DejaVuSans-68"/>
      <use x="2130.822266" xlink:href="#DejaVuSans-97"/>
      <use x="2192.101562" xlink:href="#DejaVuSans-121"/>
      <use x="2251.28125" xlink:href="#DejaVuSans-115"/>
      <use x="2303.380859" xlink:href="#DejaVuSans-41"/>
     </g>
    </g>
   </g>
   <g id="line2d_22">
    <path clip-path="url(#p32b2c9f331)" d="M 90.6 315 
L 90.6 249.44328 
" style="fill:none;stroke:#2d2d2d;stroke-linecap:square;stroke-width:1.5;"/>
   </g>
   <g id="line2d_23">
    <path clip-path="url(#p32b2c9f331)" d="M 90.6 299.2235 
L 90.6 279.311412 
" style="fill:none;stroke:#2d2d2d;stroke-linecap:square;stroke-width:4.5;"/>
   </g>
   <g id="line2d_24">
    <path clip-path="url(#p32b2c9f331)" d="M 127.8 314.69366 
L 127.8 231.98191 
" style="fill:none;stroke:#2d2d2d;stroke-linecap:square;stroke-width:1.5;"/>
   </g>
   <g id="line2d_25">
    <path clip-path="url(#p32b2c9f331)" d="M 127.8 293.709383 
L 127.8 268.895858 
" style="fill:none;stroke:#2d2d2d;stroke-linecap:square;stroke-width:4.5;"/>
   </g>
   <g id="line2d_26">
    <path clip-path="url(#p32b2c9f331)" d="M 165 312.396112 
L 165 219.115638 
" style="fill:none;stroke:#2d2d2d;stroke-linecap:square;stroke-width:1.5;"/>
   </g>
   <g id="line2d_27">
    <path clip-path="url(#p32b2c9f331)" d="M 165 287.735757 
L 165 260.165173 
" style="fill:none;stroke:#2d2d2d;stroke-linecap:square;stroke-width:4.5;"/>
   </g>
   <g id="line2d_28">
    <path clip-path="url(#p32b2c9f331)" d="M 202.2 311.783432 
L 202.2 203.492308 
" style="fill:none;stroke:#2d2d2d;stroke-linecap:square;stroke-width:1.5;"/>
   </g>
   <g id="line2d_29">
    <path clip-path="url(#p32b2c9f331)" d="M 202.2 282.68115 
L 202.2 249.481572 
" style="fill:none;stroke:#2d2d2d;stroke-linecap:square;stroke-width:4.5;"/>
   </g>
   <g id="line2d_30">
    <path clip-path="url(#p32b2c9f331)" d="M 239.4 305.503466 
L 239.4 204.870837 
" style="fill:none;stroke:#2d2d2d;stroke-linecap:square;stroke-width:1.5;"/>
   </g>
   <g id="line2d_31">
    <path clip-path="url(#p32b2c9f331)" d="M 239.4 279.732629 
L 239.4 246.494759 
" style="fill:none;stroke:#2d2d2d;stroke-linecap:square;stroke-width:4.5;"/>
   </g>
   <g id="line2d_32">
    <path clip-path="url(#p32b2c9f331)" d="M 276.6 294.934742 
L 276.6 163.821302 
" style="fill:none;stroke:#2d2d2d;stroke-linecap:square;stroke-width:1.5;"/>
   </g>
   <g id="line2d_33">
    <path clip-path="url(#p32b2c9f331)" d="M 276.6 271.269992 
L 276.6 226.161454 
" style="fill:none;stroke:#2d2d2d;stroke-linecap:square;stroke-width:4.5;"/>
   </g>
   <g id="line2d_34">
    <path clip-path="url(#p32b2c9f331)" d="M 313.8 263.994421 
L 313.8 252.353508 
" style="fill:none;stroke:#2d2d2d;stroke-linecap:square;stroke-width:1.5;"/>
   </g>
   <g id="line2d_35">
    <path clip-path="url(#p32b2c9f331)" d="M 313.8 263.994421 
L 313.8 259.246154 
" style="fill:none;stroke:#2d2d2d;stroke-linecap:square;stroke-width:4.5;"/>
   </g>
   <g id="line2d_36">
    <path clip-path="url(#p32b2c9f331)" d="M 351 296.006932 
L 351 158.000845 
" style="fill:none;stroke:#2d2d2d;stroke-linecap:square;stroke-width:1.5;"/>
   </g>
   <g id="line2d_37">
    <path clip-path="url(#p32b2c9f331)" d="M 351 245.57574 
L 351 187.29459 
" style="fill:none;stroke:#2d2d2d;stroke-linecap:square;stroke-width:4.5;"/>
   </g>
   <g id="line2d_38">
    <path clip-path="url(#p32b2c9f331)" d="M 388.2 286.050888 
L 388.2 213.601522 
" style="fill:none;stroke:#2d2d2d;stroke-linecap:square;stroke-width:1.5;"/>
   </g>
   <g id="line2d_39">
    <path clip-path="url(#p32b2c9f331)" d="M 388.2 267.938546 
L 388.2 231.713863 
" style="fill:none;stroke:#2d2d2d;stroke-linecap:square;stroke-width:4.5;"/>
   </g>
   <g id="line2d_40">
    <path clip-path="url(#p32b2c9f331)" d="M 410.52 195.221133 
L 440.28 195.221133 
" style="fill:none;stroke:#2d2d2d;stroke-linecap:square;stroke-width:1.5;"/>
   </g>
   <g id="line2d_41">
    <path clip-path="url(#p32b2c9f331)" d="M 462.6 273.184615 
L 462.6 206.708876 
" style="fill:none;stroke:#2d2d2d;stroke-linecap:square;stroke-width:1.5;"/>
   </g>
   <g id="line2d_42">
    <path clip-path="url(#p32b2c9f331)" d="M 462.6 256.56568 
L 462.6 223.327811 
" style="fill:none;stroke:#2d2d2d;stroke-linecap:square;stroke-width:4.5;"/>
   </g>
   <g id="line2d_43">
    <path clip-path="url(#p32b2c9f331)" d="M 484.92 207.781065 
L 514.68 207.781065 
" style="fill:none;stroke:#2d2d2d;stroke-linecap:square;stroke-width:1.5;"/>
   </g>
   <g id="line2d_44">
    <path clip-path="url(#p32b2c9f331)" d="M 90.6 286.784926 
L 499.8 201.407424 
" style="fill:none;stroke:#000000;stroke-dasharray:5.55,2.4;stroke-dashoffset:0;stroke-width:1.5;"/>
   </g>
   <g id="patch_3">
    <path d="M 72 315 
L 72 43.2 
" style="fill:none;stroke:#000000;stroke-linecap:square;stroke-linejoin:miter;stroke-width:0.8;"/>
   </g>
   <g id="patch_4">
    <path d="M 518.4 315 
L 518.4 43.2 
" style="fill:none;stroke:#000000;stroke-linecap:square;stroke-linejoin:miter;stroke-width:0.8;"/>
   </g>
   <g id="patch_5">
    <path d="M 72 315 
L 518.4 315 
" style="fill:none;stroke:#000000;stroke-linecap:square;stroke-linejoin:miter;stroke-width:0.8;"/>
   </g>
   <g id="patch_6">
    <path d="M 72 43.2 
L 518.4 43.2 
" style="fill:none;stroke:#000000;stroke-linecap:square;stroke-linejoin:miter;stroke-width:0.8;"/>
   </g>
   <g id="PathCollection_1">
    <defs>
     <path d="M 0 1.5 
C 0.397805 1.5 0.77937 1.341951 1.06066 1.06066 
C 1.341951 0.77937 1.5 0.397805 1.5 0 
C 1.5 -0.397805 1.341951 -0.77937 1.06066 -1.06066 
C 0.77937 -1.341951 0.397805 -1.5 0 -1.5 
C -0.397805 -1.5 -0.77937 -1.341951 -1.06066 -1.06066 
C -1.341951 -0.77937 -1.5 -0.397805 -1.5 0 
C -1.5 0.397805 -1.341951 0.77937 -1.06066 1.06066 
C -0.77937 1.341951 -0.397805 1.5 0 1.5 
z
" id="m6703c999c8" style="stroke:#2d2d2d;"/>
    </defs>
    <g clip-path="url(#p32b2c9f331)">
     <use style="fill:#ffffff;stroke:#2d2d2d;" x="90.6" xlink:href="#m6703c999c8" y="290.492815"/>
    </g>
   </g>
   <g id="PathCollection_2">
    <g clip-path="url(#p32b2c9f331)">
     <use style="fill:#ffffff;stroke:#2d2d2d;" x="127.8" xlink:href="#m6703c999c8" y="283.140659"/>
    </g>
   </g>
   <g id="PathCollection_3">
    <g clip-path="url(#p32b2c9f331)">
     <use style="fill:#ffffff;stroke:#2d2d2d;" x="165" xlink:href="#m6703c999c8" y="275.941674"/>
    </g>
   </g>
   <g id="PathCollection_4">
    <g clip-path="url(#p32b2c9f331)">
     <use style="fill:#ffffff;stroke:#2d2d2d;" x="202.2" xlink:href="#m6703c999c8" y="270.197802"/>
    </g>
   </g>
   <g id="PathCollection_5">
    <g clip-path="url(#p32b2c9f331)">
     <use style="fill:#ffffff;stroke:#2d2d2d;" x="239.4" xlink:href="#m6703c999c8" y="265.755875"/>
    </g>
   </g>
   <g id="PathCollection_6">
    <g clip-path="url(#p32b2c9f331)">
     <use style="fill:#ffffff;stroke:#2d2d2d;" x="276.6" xlink:href="#m6703c999c8" y="251.740828"/>
    </g>
   </g>
   <g id="PathCollection_7">
    <g clip-path="url(#p32b2c9f331)">
     <use style="fill:#ffffff;stroke:#2d2d2d;" x="313.8" xlink:href="#m6703c999c8" y="263.381741"/>
    </g>
   </g>
   <g id="PathCollection_8">
    <g clip-path="url(#p32b2c9f331)">
     <use style="fill:#ffffff;stroke:#2d2d2d;" x="351" xlink:href="#m6703c999c8" y="212.912257"/>
    </g>
   </g>
   <g id="PathCollection_9">
    <g clip-path="url(#p32b2c9f331)">
     <use style="fill:#ffffff;stroke:#2d2d2d;" x="388.2" xlink:href="#m6703c999c8" y="249.826205"/>
    </g>
   </g>
   <g id="PathCollection_10">
    <g clip-path="url(#p32b2c9f331)">
     <use style="fill:#ffffff;stroke:#2d2d2d;" x="462.6" xlink:href="#m6703c999c8" y="239.946746"/>
    </g>
   </g>
   <g id="text_24">
    <!-- Y=50.67*X+133.53 -->
    <defs>
     <path d="M -0.203125 72.90625 
L 10.40625 72.90625 
L 30.609375 42.921875 
L 50.6875 72.90625 
L 61.28125 72.90625 
L 35.5 34.71875 
L 35.5 0 
L 25.59375 0 
L 25.59375 34.71875 
z
" id="DejaVuSans-89"/>
     <path d="M 10.59375 45.40625 
L 73.1875 45.40625 
L 73.1875 37.203125 
L 10.59375 37.203125 
z
M 10.59375 25.484375 
L 73.1875 25.484375 
L 73.1875 17.1875 
L 10.59375 17.1875 
z
" id="DejaVuSans-61"/>
     <path d="M 10.6875 12.40625 
L 21 12.40625 
L 21 0 
L 10.6875 0 
z
" id="DejaVuSans-46"/>
     <path d="M 47.015625 60.890625 
L 29.5 51.421875 
L 47.015625 41.890625 
L 44.1875 37.109375 
L 27.78125 47.015625 
L 27.78125 28.609375 
L 22.21875 28.609375 
L 22.21875 47.015625 
L 5.8125 37.109375 
L 2.984375 41.890625 
L 20.515625 51.421875 
L 2.984375 60.890625 
L 5.8125 65.71875 
L 22.21875 55.8125 
L 22.21875 74.21875 
L 27.78125 74.21875 
L 27.78125 55.8125 
L 44.1875 65.71875 
z
" id="DejaVuSans-42"/>
     <path d="M 6.296875 72.90625 
L 16.890625 72.90625 
L 35.015625 45.796875 
L 53.21875 72.90625 
L 63.8125 72.90625 
L 40.375 37.890625 
L 65.375 0 
L 54.78125 0 
L 34.28125 31 
L 13.625 0 
L 2.984375 0 
L 29 38.921875 
z
" id="DejaVuSans-88"/>
     <path d="M 46 62.703125 
L 46 35.5 
L 73.1875 35.5 
L 73.1875 27.203125 
L 46 27.203125 
L 46 0 
L 37.796875 0 
L 37.796875 27.203125 
L 10.59375 27.203125 
L 10.59375 35.5 
L 37.796875 35.5 
L 37.796875 62.703125 
z
" id="DejaVuSans-43"/>
    </defs>
    <g transform="translate(351 89.840237)scale(0.1 -0.1)">
     <use xlink:href="#DejaVuSans-89"/>
     <use x="61.083984" xlink:href="#DejaVuSans-61"/>
     <use x="144.873047" xlink:href="#DejaVuSans-53"/>
     <use x="208.496094" xlink:href="#DejaVuSans-48"/>
     <use x="272.119141" xlink:href="#DejaVuSans-46"/>
     <use x="303.90625" xlink:href="#DejaVuSans-54"/>
     <use x="367.529297" xlink:href="#DejaVuSans-55"/>
     <use x="431.152344" xlink:href="#DejaVuSans-42"/>
     <use x="481.152344" xlink:href="#DejaVuSans-88"/>
     <use x="549.658203" xlink:href="#DejaVuSans-43"/>
     <use x="633.447266" xlink:href="#DejaVuSans-49"/>
     <use x="697.070312" xlink:href="#DejaVuSans-51"/>
     <use x="760.693359" xlink:href="#DejaVuSans-51"/>
     <use x="824.316406" xlink:href="#DejaVuSans-46"/>
     <use x="856.103516" xlink:href="#DejaVuSans-53"/>
     <use x="919.726562" xlink:href="#DejaVuSans-51"/>
    </g>
   </g>
  </g>
 </g>
 <defs>
  <clipPath id="p32b2c9f331">
   <rect height="271.8" width="446.4" x="72" y="43.2"/>
  </clipPath>
 </defs>
</svg>
