<?xml version="1.0" encoding="utf-8" standalone="no"?>
<!DOCTYPE svg PUBLIC "-//W3C//DTD SVG 1.1//EN"
  "http://www.w3.org/Graphics/SVG/1.1/DTD/svg11.dtd">
<!-- Created with matplotlib (https://matplotlib.org/) -->
<svg height="612pt" version="1.1" viewBox="0 0 792 612" width="792pt" xmlns="http://www.w3.org/2000/svg" xmlns:xlink="http://www.w3.org/1999/xlink">
 <defs>
  <style type="text/css">
*{stroke-linecap:butt;stroke-linejoin:round;}
  </style>
 </defs>
 <g id="figure_1">
  <g id="patch_1">
   <path d="M 0 612
L 792 612
L 792 0
L 0 0
z
" style="fill:#ffffff;"/>
  </g>
  <g id="axes_1">
   <g id="patch_2">
    <path d="M 99 535.5
L 712.8 535.5
L 712.8 73.44
L 99 73.44
z
" style="fill:#ffffff;"/>
   </g>
   <g id="PolyCollection_1">
    <defs>
     <path d="M 126.941196 -76.5
L 122.208804 -76.5
L 119.950622 -80.053387
L 117.338669 -83.606774
L 114.851448 -87.160161
L 112.659742 -90.713549
L 110.569893 -94.266936
L 108.376518 -97.820323
L 106.316052 -101.37371
L 104.876354 -104.927097
L 104.213531 -108.480484
L 104.115 -112.033871
L 104.448795 -115.587258
L 105.249778 -119.140646
L 106.454539 -122.694033
L 107.926349 -126.24742
L 109.558209 -129.800807
L 111.187671 -133.354194
L 112.723845 -136.907581
L 114.21557 -140.460968
L 115.606594 -144.014355
L 116.745062 -147.567743
L 117.679955 -151.12113
L 118.575584 -154.674517
L 119.413552 -158.227904
L 120.097088 -161.781291
L 120.670176 -165.334678
L 121.234379 -168.888065
L 121.767202 -172.441452
L 122.186861 -175.99484
L 122.500341 -179.548227
L 122.749887 -183.101614
L 122.961168 -186.655001
L 123.142686 -190.208388
L 123.29746 -193.761775
L 123.455109 -197.315162
L 123.618493 -200.868549
L 123.739165 -204.421937
L 123.80008 -207.975324
L 123.845252 -211.528711
L 123.903264 -215.082098
L 123.956676 -218.635485
L 124.005537 -222.188872
L 124.068228 -225.742259
L 124.128897 -229.295646
L 124.165405 -232.849034
L 124.190101 -236.402421
L 124.221025 -239.955808
L 124.258513 -243.509195
L 124.299008 -247.062582
L 124.343623 -250.615969
L 124.387133 -254.169356
L 124.419321 -257.722743
L 124.439503 -261.276131
L 124.450405 -264.829518
L 124.45344 -268.382905
L 124.456182 -271.936292
L 124.463618 -275.489679
L 124.473916 -279.043066
L 124.488383 -282.596453
L 124.504678 -286.14984
L 124.512879 -289.703228
L 124.513305 -293.256615
L 124.517055 -296.810002
L 124.526273 -300.363389
L 124.532857 -303.916776
L 124.529985 -307.470163
L 124.521712 -311.02355
L 124.521025 -314.576937
L 124.533496 -318.130325
L 124.551302 -321.683712
L 124.562943 -325.237099
L 124.563619 -328.790486
L 124.558139 -332.343873
L 124.553152 -335.89726
L 124.547501 -339.450647
L 124.540265 -343.004034
L 124.539403 -346.557422
L 124.546575 -350.110809
L 124.553416 -353.664196
L 124.556045 -357.217583
L 124.554448 -360.77097
L 124.548386 -364.324357
L 124.542572 -367.877744
L 124.542967 -371.431131
L 124.550012 -374.984519
L 124.560584 -378.537906
L 124.569451 -382.091293
L 124.573673 -385.64468
L 124.574779 -389.198067
L 124.5747 -392.751454
L 124.57353 -396.304841
L 124.570566 -399.858228
L 124.56719 -403.411616
L 124.56697 -406.965003
L 124.570172 -410.51839
L 124.573199 -414.071777
L 124.573904 -417.625164
L 124.572072 -421.178551
L 124.568521 -424.731938
L 124.566523 -428.285325
L 124.583477 -428.285325
L 124.583477 -428.285325
L 124.581479 -424.731938
L 124.577928 -421.178551
L 124.576096 -417.625164
L 124.576801 -414.071777
L 124.579828 -410.51839
L 124.58303 -406.965003
L 124.58281 -403.411616
L 124.579434 -399.858228
L 124.57647 -396.304841
L 124.5753 -392.751454
L 124.575221 -389.198067
L 124.576327 -385.64468
L 124.580549 -382.091293
L 124.589416 -378.537906
L 124.599988 -374.984519
L 124.607033 -371.431131
L 124.607428 -367.877744
L 124.601614 -364.324357
L 124.595552 -360.77097
L 124.593955 -357.217583
L 124.596584 -353.664196
L 124.603425 -350.110809
L 124.610597 -346.557422
L 124.609735 -343.004034
L 124.602499 -339.450647
L 124.596848 -335.89726
L 124.591861 -332.343873
L 124.586381 -328.790486
L 124.587057 -325.237099
L 124.598698 -321.683712
L 124.616504 -318.130325
L 124.628975 -314.576937
L 124.628288 -311.02355
L 124.620015 -307.470163
L 124.617143 -303.916776
L 124.623727 -300.363389
L 124.632945 -296.810002
L 124.636695 -293.256615
L 124.637121 -289.703228
L 124.645322 -286.14984
L 124.661617 -282.596453
L 124.676084 -279.043066
L 124.686382 -275.489679
L 124.693818 -271.936292
L 124.69656 -268.382905
L 124.699595 -264.829518
L 124.710497 -261.276131
L 124.730679 -257.722743
L 124.762867 -254.169356
L 124.806377 -250.615969
L 124.850992 -247.062582
L 124.891487 -243.509195
L 124.928975 -239.955808
L 124.959899 -236.402421
L 124.984595 -232.849034
L 125.021103 -229.295646
L 125.081772 -225.742259
L 125.144463 -222.188872
L 125.193324 -218.635485
L 125.246736 -215.082098
L 125.304748 -211.528711
L 125.34992 -207.975324
L 125.410835 -204.421937
L 125.531507 -200.868549
L 125.694891 -197.315162
L 125.85254 -193.761775
L 126.007314 -190.208388
L 126.188832 -186.655001
L 126.400113 -183.101614
L 126.649659 -179.548227
L 126.963139 -175.99484
L 127.382798 -172.441452
L 127.915621 -168.888065
L 128.479824 -165.334678
L 129.052912 -161.781291
L 129.736448 -158.227904
L 130.574416 -154.674517
L 131.470045 -151.12113
L 132.404938 -147.567743
L 133.543406 -144.014355
L 134.93443 -140.460968
L 136.426155 -136.907581
L 137.962329 -133.354194
L 139.591791 -129.800807
L 141.223651 -126.24742
L 142.695461 -122.694033
L 143.900222 -119.140646
L 144.701205 -115.587258
L 145.035 -112.033871
L 144.936469 -108.480484
L 144.273646 -104.927097
L 142.833948 -101.37371
L 140.773482 -97.820323
L 138.580107 -94.266936
L 136.490258 -90.713549
L 134.298552 -87.160161
L 131.811331 -83.606774
L 129.199378 -80.053387
L 126.941196 -76.5
z
" id="m747a401151" style="stroke:#2d2d2d;stroke-width:1.5;"/>
    </defs>
    <g clip-path="url(#p48dad2eff7)">
     <use style="fill:#eff4c8;stroke:#2d2d2d;stroke-width:1.5;" x="0" xlink:href="#m747a401151" y="612"/>
    </g>
   </g>
   <g id="PolyCollection_2">
    <defs>
     <path d="M 177.237437 -77.020778
L 174.212563 -77.020778
L 172.835873 -81.460539
L 170.92904 -85.9003
L 168.511109 -90.340061
L 165.677985 -94.779823
L 162.664173 -99.219584
L 159.812676 -103.659345
L 157.501645 -108.099107
L 155.998024 -112.538868
L 155.308884 -116.978629
L 155.265 -121.41839
L 155.715052 -125.858152
L 156.560358 -130.297913
L 157.717992 -134.737674
L 159.123238 -139.177435
L 160.711383 -143.617197
L 162.374841 -148.056958
L 163.96848 -152.496719
L 165.391643 -156.93648
L 166.626922 -161.376242
L 167.67291 -165.816003
L 168.537905 -170.255764
L 169.303454 -174.695526
L 170.063033 -179.135287
L 170.822615 -183.575048
L 171.541538 -188.014809
L 172.199177 -192.454571
L 172.764452 -196.894332
L 173.174669 -201.334093
L 173.40827 -205.773854
L 173.525726 -210.213616
L 173.612651 -214.653377
L 173.741577 -219.093138
L 173.961664 -223.532899
L 174.254263 -227.972661
L 174.53758 -232.412422
L 174.751778 -236.852183
L 174.902068 -241.291944
L 175.024926 -245.731706
L 175.143213 -250.171467
L 175.247797 -254.611228
L 175.32091 -259.05099
L 175.368911 -263.490751
L 175.410067 -267.930512
L 175.447096 -272.370273
L 175.473596 -276.810035
L 175.488577 -281.249796
L 175.494863 -285.689557
L 175.499735 -290.129318
L 175.517935 -294.56908
L 175.556208 -299.008841
L 175.598354 -303.448602
L 175.622569 -307.888363
L 175.62672 -312.328125
L 175.626488 -316.767886
L 175.636177 -321.207647
L 175.656578 -325.647408
L 175.678352 -330.08717
L 175.691658 -334.526931
L 175.691289 -338.966692
L 175.679014 -343.406454
L 175.662923 -347.846215
L 175.651311 -352.285976
L 175.648253 -356.725737
L 175.654265 -361.165499
L 175.666398 -365.60526
L 175.678899 -370.045021
L 175.687079 -374.484782
L 175.689625 -378.924544
L 175.688705 -383.364305
L 175.688894 -387.804066
L 175.693807 -392.243827
L 175.702687 -396.683589
L 175.709874 -401.12335
L 175.708579 -405.563111
L 175.697031 -410.002873
L 175.681973 -414.442634
L 175.674018 -418.882395
L 175.677814 -423.322156
L 175.689767 -427.761918
L 175.703766 -432.201679
L 175.715029 -436.64144
L 175.72151 -441.081201
L 175.724119 -445.520963
L 175.724843 -449.960724
L 175.72498 -454.400485
L 175.724998 -458.840246
L 175.725 -463.280008
L 175.725 -467.719769
L 175.725 -472.15953
L 175.725 -476.599291
L 175.725 -481.039053
L 175.724997 -485.478814
L 175.724971 -489.918575
L 175.724786 -494.358337
L 175.723892 -498.798098
L 175.721024 -503.237859
L 175.715098 -507.67762
L 175.707882 -512.117382
L 175.704454 -516.557143
L 175.745546 -516.557143
L 175.745546 -516.557143
L 175.742118 -512.117382
L 175.734902 -507.67762
L 175.728976 -503.237859
L 175.726108 -498.798098
L 175.725214 -494.358337
L 175.725029 -489.918575
L 175.725003 -485.478814
L 175.725 -481.039053
L 175.725 -476.599291
L 175.725 -472.15953
L 175.725 -467.719769
L 175.725 -463.280008
L 175.725002 -458.840246
L 175.72502 -454.400485
L 175.725157 -449.960724
L 175.725881 -445.520963
L 175.72849 -441.081201
L 175.734971 -436.64144
L 175.746234 -432.201679
L 175.760233 -427.761918
L 175.772186 -423.322156
L 175.775982 -418.882395
L 175.768027 -414.442634
L 175.752969 -410.002873
L 175.741421 -405.563111
L 175.740126 -401.12335
L 175.747313 -396.683589
L 175.756193 -392.243827
L 175.761106 -387.804066
L 175.761295 -383.364305
L 175.760375 -378.924544
L 175.762921 -374.484782
L 175.771101 -370.045021
L 175.783602 -365.60526
L 175.795735 -361.165499
L 175.801747 -356.725737
L 175.798689 -352.285976
L 175.787077 -347.846215
L 175.770986 -343.406454
L 175.758711 -338.966692
L 175.758342 -334.526931
L 175.771648 -330.08717
L 175.793422 -325.647408
L 175.813823 -321.207647
L 175.823512 -316.767886
L 175.82328 -312.328125
L 175.827431 -307.888363
L 175.851646 -303.448602
L 175.893792 -299.008841
L 175.932065 -294.56908
L 175.950265 -290.129318
L 175.955137 -285.689557
L 175.961423 -281.249796
L 175.976404 -276.810035
L 176.002904 -272.370273
L 176.039933 -267.930512
L 176.081089 -263.490751
L 176.12909 -259.05099
L 176.202203 -254.611228
L 176.306787 -250.171467
L 176.425074 -245.731706
L 176.547932 -241.291944
L 176.698222 -236.852183
L 176.91242 -232.412422
L 177.195737 -227.972661
L 177.488336 -223.532899
L 177.708423 -219.093138
L 177.837349 -214.653377
L 177.924274 -210.213616
L 178.04173 -205.773854
L 178.275331 -201.334093
L 178.685548 -196.894332
L 179.250823 -192.454571
L 179.908462 -188.014809
L 180.627385 -183.575048
L 181.386967 -179.135287
L 182.146546 -174.695526
L 182.912095 -170.255764
L 183.77709 -165.816003
L 184.823078 -161.376242
L 186.058357 -156.93648
L 187.48152 -152.496719
L 189.075159 -148.056958
L 190.738617 -143.617197
L 192.326762 -139.177435
L 193.732008 -134.737674
L 194.889642 -130.297913
L 195.734948 -125.858152
L 196.185 -121.41839
L 196.141116 -116.978629
L 195.451976 -112.538868
L 193.948355 -108.099107
L 191.637324 -103.659345
L 188.785827 -99.219584
L 185.772015 -94.779823
L 182.938891 -90.340061
L 180.52096 -85.9003
L 178.614127 -81.460539
L 177.237437 -77.020778
z
" id="mf6a0e08dd2" style="stroke:#2d2d2d;stroke-width:1.5;"/>
    </defs>
    <g clip-path="url(#p48dad2eff7)">
     <use style="fill:#e0ecba;stroke:#2d2d2d;stroke-width:1.5;" x="0" xlink:href="#mf6a0e08dd2" y="612"/>
    </g>
   </g>
   <g id="PolyCollection_3">
    <defs>
     <path d="M 228.52471 -80.92661
L 225.22529 -80.92661
L 224.303477 -84.950802
L 223.057405 -88.974993
L 221.443215 -92.999184
L 219.457455 -97.023375
L 217.169839 -101.047566
L 214.736459 -105.071757
L 212.374194 -109.095949
L 210.300331 -113.12014
L 208.666781 -117.144331
L 207.52334 -121.168522
L 206.826268 -125.192713
L 206.483921 -129.216905
L 206.415 -133.241096
L 206.589466 -137.265287
L 207.02823 -141.289478
L 207.76024 -145.313669
L 208.767658 -149.337861
L 209.964965 -153.362052
L 211.233734 -157.386243
L 212.485434 -161.410434
L 213.696934 -165.434625
L 214.889202 -169.458817
L 216.074741 -173.483008
L 217.2258 -177.507199
L 218.288401 -181.53139
L 219.220909 -185.555581
L 220.018354 -189.579773
L 220.704613 -193.603964
L 221.306095 -197.628155
L 221.833871 -201.652346
L 222.288707 -205.676537
L 222.678648 -209.700729
L 223.026042 -213.72492
L 223.354455 -217.749111
L 223.671028 -221.773302
L 223.965107 -225.797493
L 224.223328 -229.821684
L 224.443199 -233.845876
L 224.633234 -237.870067
L 224.804996 -241.894258
L 224.968206 -245.918449
L 225.131964 -249.94264
L 225.3064 -253.966832
L 225.49895 -257.991023
L 225.706892 -262.015214
L 225.914051 -266.039405
L 226.097112 -270.063596
L 226.237589 -274.087788
L 226.329999 -278.111979
L 226.381304 -282.13617
L 226.405154 -286.160361
L 226.416929 -290.184552
L 226.4309 -294.208744
L 226.45692 -298.232935
L 226.49666 -302.257126
L 226.543553 -306.281317
L 226.588657 -310.305508
L 226.627755 -314.3297
L 226.662702 -318.353891
L 226.696139 -322.378082
L 226.72591 -326.402273
L 226.745356 -330.426464
L 226.749186 -334.450655
L 226.739205 -338.474847
L 226.724783 -342.499038
L 226.717739 -346.523229
L 226.725721 -350.54742
L 226.748737 -354.571611
L 226.780476 -358.595803
L 226.812594 -362.619994
L 226.838789 -366.644185
L 226.856605 -370.668376
L 226.866854 -374.692567
L 226.871868 -378.716759
L 226.873959 -382.74095
L 226.874701 -386.765141
L 226.874926 -390.789332
L 226.874984 -394.813523
L 226.874997 -398.837715
L 226.875 -402.861906
L 226.875 -406.886097
L 226.875 -410.910288
L 226.875 -414.934479
L 226.875 -418.958671
L 226.875 -422.982862
L 226.875 -427.007053
L 226.874999 -431.031244
L 226.874996 -435.055435
L 226.87498 -439.079627
L 226.874909 -443.103818
L 226.874649 -447.128009
L 226.873847 -451.1522
L 226.871767 -455.176391
L 226.867262 -459.200582
L 226.859198 -463.224774
L 226.847464 -467.248965
L 226.834057 -471.273156
L 226.823054 -475.297347
L 226.818765 -479.321538
L 226.931235 -479.321538
L 226.931235 -479.321538
L 226.926946 -475.297347
L 226.915943 -471.273156
L 226.902536 -467.248965
L 226.890802 -463.224774
L 226.882738 -459.200582
L 226.878233 -455.176391
L 226.876153 -451.1522
L 226.875351 -447.128009
L 226.875091 -443.103818
L 226.87502 -439.079627
L 226.875004 -435.055435
L 226.875001 -431.031244
L 226.875 -427.007053
L 226.875 -422.982862
L 226.875 -418.958671
L 226.875 -414.934479
L 226.875 -410.910288
L 226.875 -406.886097
L 226.875 -402.861906
L 226.875003 -398.837715
L 226.875016 -394.813523
L 226.875074 -390.789332
L 226.875299 -386.765141
L 226.876041 -382.74095
L 226.878132 -378.716759
L 226.883146 -374.692567
L 226.893395 -370.668376
L 226.911211 -366.644185
L 226.937406 -362.619994
L 226.969524 -358.595803
L 227.001263 -354.571611
L 227.024279 -350.54742
L 227.032261 -346.523229
L 227.025217 -342.499038
L 227.010795 -338.474847
L 227.000814 -334.450655
L 227.004644 -330.426464
L 227.02409 -326.402273
L 227.053861 -322.378082
L 227.087298 -318.353891
L 227.122245 -314.3297
L 227.161343 -310.305508
L 227.206447 -306.281317
L 227.25334 -302.257126
L 227.29308 -298.232935
L 227.3191 -294.208744
L 227.333071 -290.184552
L 227.344846 -286.160361
L 227.368696 -282.13617
L 227.420001 -278.111979
L 227.512411 -274.087788
L 227.652888 -270.063596
L 227.835949 -266.039405
L 228.043108 -262.015214
L 228.25105 -257.991023
L 228.4436 -253.966832
L 228.618036 -249.94264
L 228.781794 -245.918449
L 228.945004 -241.894258
L 229.116766 -237.870067
L 229.306801 -233.845876
L 229.526672 -229.821684
L 229.784893 -225.797493
L 230.078972 -221.773302
L 230.395545 -217.749111
L 230.723958 -213.72492
L 231.071352 -209.700729
L 231.461293 -205.676537
L 231.916129 -201.652346
L 232.443905 -197.628155
L 233.045387 -193.603964
L 233.731646 -189.579773
L 234.529091 -185.555581
L 235.461599 -181.53139
L 236.5242 -177.507199
L 237.675259 -173.483008
L 238.860798 -169.458817
L 240.053066 -165.434625
L 241.264566 -161.410434
L 242.516266 -157.386243
L 243.785035 -153.362052
L 244.982342 -149.337861
L 245.98976 -145.313669
L 246.72177 -141.289478
L 247.160534 -137.265287
L 247.335 -133.241096
L 247.266079 -129.216905
L 246.923732 -125.192713
L 246.22666 -121.168522
L 245.083219 -117.144331
L 243.449669 -113.12014
L 241.375806 -109.095949
L 239.013541 -105.071757
L 236.580161 -101.047566
L 234.292545 -97.023375
L 232.306785 -92.999184
L 230.692595 -88.974993
L 229.446523 -84.950802
L 228.52471 -80.92661
z
" id="m8540c057d2" style="stroke:#2d2d2d;stroke-width:1.5;"/>
    </defs>
    <g clip-path="url(#p48dad2eff7)">
     <use style="fill:#cde4bb;stroke:#2d2d2d;stroke-width:1.5;" x="0" xlink:href="#m8540c057d2" y="612"/>
    </g>
   </g>
   <g id="PolyCollection_4">
    <defs>
     <path d="M 280.45058 -81.968166
L 275.59942 -81.968166
L 274.971512 -84.971843
L 274.252336 -87.97552
L 273.444414 -90.979198
L 272.552987 -93.982875
L 271.585763 -96.986552
L 270.552596 -99.99023
L 269.465169 -102.993907
L 268.336721 -105.997584
L 267.181797 -109.001262
L 266.01601 -112.004939
L 264.855769 -115.008617
L 263.717998 -118.012294
L 262.619956 -121.015971
L 261.579251 -124.019649
L 260.614127 -127.023326
L 259.743936 -130.027003
L 258.989517 -133.030681
L 258.373065 -136.034358
L 257.917109 -139.038035
L 257.642412 -142.041713
L 257.565 -145.04539
L 257.692895 -148.049067
L 258.023379 -151.052745
L 258.541583 -154.056422
L 259.220924 -157.060099
L 260.025447 -160.063777
L 260.91365 -163.067454
L 261.843049 -166.071131
L 262.774595 -169.074809
L 263.676163 -172.078486
L 264.524573 -175.082163
L 265.305975 -178.085841
L 266.014743 -181.089518
L 266.651364 -184.093196
L 267.219982 -187.096873
L 267.726296 -190.10055
L 268.176336 -193.104228
L 268.576345 -196.107905
L 268.933533 -199.111582
L 269.257182 -202.11526
L 269.559375 -205.118937
L 269.854783 -208.122614
L 270.159269 -211.126292
L 270.487582 -214.129969
L 270.850763 -217.133646
L 271.254053 -220.137324
L 271.695954 -223.141001
L 272.168701 -226.144678
L 272.65994 -229.148356
L 273.155075 -232.152033
L 273.639592 -235.15571
L 274.100806 -238.159388
L 274.528773 -241.163065
L 274.916392 -244.166742
L 275.259021 -247.17042
L 275.553944 -250.174097
L 275.799998 -253.177775
L 275.9975 -256.181452
L 276.148417 -259.185129
L 276.25665 -262.188807
L 276.328209 -265.192484
L 276.371128 -268.196161
L 276.395021 -271.199839
L 276.410284 -274.203516
L 276.427053 -277.207193
L 276.454083 -280.210871
L 276.497771 -283.214548
L 276.561511 -286.218225
L 276.645512 -289.221903
L 276.74712 -292.22558
L 276.861521 -295.229257
L 276.982682 -298.232935
L 277.104286 -301.236612
L 277.220505 -304.240289
L 277.326496 -307.243967
L 277.418645 -310.247644
L 277.494613 -313.251321
L 277.553293 -316.254999
L 277.594757 -319.258676
L 277.620203 -322.262354
L 277.631871 -325.266031
L 277.632874 -328.269708
L 277.626909 -331.273386
L 277.617851 -334.277063
L 277.609294 -337.28074
L 277.604127 -340.284418
L 277.604232 -343.288095
L 277.61037 -346.291772
L 277.622258 -349.29545
L 277.63881 -352.299127
L 277.658471 -355.302804
L 277.67958 -358.306482
L 277.7007 -361.310159
L 277.720856 -364.313836
L 277.739666 -367.317514
L 277.757328 -370.321191
L 277.774492 -373.324868
L 277.792025 -376.328546
L 277.81074 -379.332223
L 278.23926 -379.332223
L 278.23926 -379.332223
L 278.257975 -376.328546
L 278.275508 -373.324868
L 278.292672 -370.321191
L 278.310334 -367.317514
L 278.329144 -364.313836
L 278.3493 -361.310159
L 278.37042 -358.306482
L 278.391529 -355.302804
L 278.41119 -352.299127
L 278.427742 -349.29545
L 278.43963 -346.291772
L 278.445768 -343.288095
L 278.445873 -340.284418
L 278.440706 -337.28074
L 278.432149 -334.277063
L 278.423091 -331.273386
L 278.417126 -328.269708
L 278.418129 -325.266031
L 278.429797 -322.262354
L 278.455243 -319.258676
L 278.496707 -316.254999
L 278.555387 -313.251321
L 278.631355 -310.247644
L 278.723504 -307.243967
L 278.829495 -304.240289
L 278.945714 -301.236612
L 279.067318 -298.232935
L 279.188479 -295.229257
L 279.30288 -292.22558
L 279.404488 -289.221903
L 279.488489 -286.218225
L 279.552229 -283.214548
L 279.595917 -280.210871
L 279.622947 -277.207193
L 279.639716 -274.203516
L 279.654979 -271.199839
L 279.678872 -268.196161
L 279.721791 -265.192484
L 279.79335 -262.188807
L 279.901583 -259.185129
L 280.0525 -256.181452
L 280.250002 -253.177775
L 280.496056 -250.174097
L 280.790979 -247.17042
L 281.133608 -244.166742
L 281.521227 -241.163065
L 281.949194 -238.159388
L 282.410408 -235.15571
L 282.894925 -232.152033
L 283.39006 -229.148356
L 283.881299 -226.144678
L 284.354046 -223.141001
L 284.795947 -220.137324
L 285.199237 -217.133646
L 285.562418 -214.129969
L 285.890731 -211.126292
L 286.195217 -208.122614
L 286.490625 -205.118937
L 286.792818 -202.11526
L 287.116467 -199.111582
L 287.473655 -196.107905
L 287.873664 -193.104228
L 288.323704 -190.10055
L 288.830018 -187.096873
L 289.398636 -184.093196
L 290.035257 -181.089518
L 290.744025 -178.085841
L 291.525427 -175.082163
L 292.373837 -172.078486
L 293.275405 -169.074809
L 294.206951 -166.071131
L 295.13635 -163.067454
L 296.024553 -160.063777
L 296.829076 -157.060099
L 297.508417 -154.056422
L 298.026621 -151.052745
L 298.357105 -148.049067
L 298.485 -145.04539
L 298.407588 -142.041713
L 298.132891 -139.038035
L 297.676935 -136.034358
L 297.060483 -133.030681
L 296.306064 -130.027003
L 295.435873 -127.023326
L 294.470749 -124.019649
L 293.430044 -121.015971
L 292.332002 -118.012294
L 291.194231 -115.008617
L 290.03399 -112.004939
L 288.868203 -109.001262
L 287.713279 -105.997584
L 286.584831 -102.993907
L 285.497404 -99.99023
L 284.464237 -96.986552
L 283.497013 -93.982875
L 282.605586 -90.979198
L 281.797664 -87.97552
L 281.078488 -84.971843
L 280.45058 -81.968166
z
" id="m449f14ab98" style="stroke:#2d2d2d;stroke-width:1.5;"/>
    </defs>
    <g clip-path="url(#p48dad2eff7)">
     <use style="fill:#aed6ba;stroke:#2d2d2d;stroke-width:1.5;" x="0" xlink:href="#m449f14ab98" y="612"/>
    </g>
   </g>
   <g id="PolyCollection_5">
    <defs>
     <path d="M 334.428205 -92.644108
L 323.921795 -92.644108
L 323.199327 -95.229585
L 322.431035 -97.815062
L 321.620764 -100.400539
L 320.773157 -102.986017
L 319.893701 -105.571494
L 318.988791 -108.156971
L 318.065772 -110.742448
L 317.132972 -113.327925
L 316.199676 -115.913402
L 315.276051 -118.498879
L 314.37299 -121.084356
L 313.501887 -123.669833
L 312.67434 -126.25531
L 311.901793 -128.840787
L 311.195135 -131.426265
L 310.564286 -134.011742
L 310.017793 -136.597219
L 309.562466 -139.182696
L 309.20309 -141.768173
L 308.942232 -144.35365
L 308.78018 -146.939127
L 308.715 -149.524604
L 308.742737 -152.110081
L 308.857734 -154.695558
L 309.053041 -157.281035
L 309.320885 -159.866512
L 309.653147 -162.45199
L 310.041803 -165.037467
L 310.479293 -167.622944
L 310.958762 -170.208421
L 311.474187 -172.793898
L 312.020354 -175.379375
L 312.592729 -177.964852
L 313.187232 -180.550329
L 313.799964 -183.135806
L 314.426932 -185.721283
L 315.063811 -188.30676
L 315.705782 -190.892238
L 316.347471 -193.477715
L 316.982999 -196.063192
L 317.606143 -198.648669
L 318.210587 -201.234146
L 318.790248 -203.819623
L 319.339624 -206.4051
L 319.854148 -208.990577
L 320.330492 -211.576054
L 320.766811 -214.161531
L 321.162868 -216.747008
L 321.520067 -219.332485
L 321.841349 -221.917963
L 322.130988 -224.50344
L 322.394286 -227.088917
L 322.637207 -229.674394
L 322.865973 -232.259871
L 323.086652 -234.845348
L 323.304791 -237.430825
L 323.525095 -240.016302
L 323.751195 -242.601779
L 323.985507 -245.187256
L 324.229187 -247.772733
L 324.482183 -250.358211
L 324.743359 -252.943688
L 325.010687 -255.529165
L 325.281482 -258.114642
L 325.55265 -260.700119
L 325.820943 -263.285596
L 326.083188 -265.871073
L 326.336481 -268.45655
L 326.578339 -271.042027
L 326.806786 -273.627504
L 327.020397 -276.212981
L 327.218279 -278.798458
L 327.400008 -281.383936
L 327.565528 -283.969413
L 327.715038 -286.55489
L 327.848861 -289.140367
L 327.967332 -291.725844
L 328.070709 -294.311321
L 328.159119 -296.896798
L 328.23255 -299.482275
L 328.290891 -302.067752
L 328.334006 -304.653229
L 328.361854 -307.238706
L 328.374611 -309.824184
L 328.372811 -312.409661
L 328.357455 -314.995138
L 328.330095 -317.580615
L 328.292865 -320.166092
L 328.248451 -322.751569
L 328.20001 -325.337046
L 328.151017 -327.922523
L 328.10508 -330.508
L 328.06572 -333.093477
L 328.036137 -335.678954
L 328.019002 -338.264431
L 328.016278 -340.849909
L 328.029089 -343.435386
L 328.057666 -346.020863
L 328.101354 -348.60634
L 330.248646 -348.60634
L 330.248646 -348.60634
L 330.292334 -346.020863
L 330.320911 -343.435386
L 330.333722 -340.849909
L 330.330998 -338.264431
L 330.313863 -335.678954
L 330.28428 -333.093477
L 330.24492 -330.508
L 330.198983 -327.922523
L 330.14999 -325.337046
L 330.101549 -322.751569
L 330.057135 -320.166092
L 330.019905 -317.580615
L 329.992545 -314.995138
L 329.977189 -312.409661
L 329.975389 -309.824184
L 329.988146 -307.238706
L 330.015994 -304.653229
L 330.059109 -302.067752
L 330.11745 -299.482275
L 330.190881 -296.896798
L 330.279291 -294.311321
L 330.382668 -291.725844
L 330.501139 -289.140367
L 330.634962 -286.55489
L 330.784472 -283.969413
L 330.949992 -281.383936
L 331.131721 -278.798458
L 331.329603 -276.212981
L 331.543214 -273.627504
L 331.771661 -271.042027
L 332.013519 -268.45655
L 332.266812 -265.871073
L 332.529057 -263.285596
L 332.79735 -260.700119
L 333.068518 -258.114642
L 333.339313 -255.529165
L 333.606641 -252.943688
L 333.867817 -250.358211
L 334.120813 -247.772733
L 334.364493 -245.187256
L 334.598805 -242.601779
L 334.824905 -240.016302
L 335.045209 -237.430825
L 335.263348 -234.845348
L 335.484027 -232.259871
L 335.712793 -229.674394
L 335.955714 -227.088917
L 336.219012 -224.50344
L 336.508651 -221.917963
L 336.829933 -219.332485
L 337.187132 -216.747008
L 337.583189 -214.161531
L 338.019508 -211.576054
L 338.495852 -208.990577
L 339.010376 -206.4051
L 339.559752 -203.819623
L 340.139413 -201.234146
L 340.743857 -198.648669
L 341.367001 -196.063192
L 342.002529 -193.477715
L 342.644218 -190.892238
L 343.286189 -188.30676
L 343.923068 -185.721283
L 344.550036 -183.135806
L 345.162768 -180.550329
L 345.757271 -177.964852
L 346.329646 -175.379375
L 346.875813 -172.793898
L 347.391238 -170.208421
L 347.870707 -167.622944
L 348.308197 -165.037467
L 348.696853 -162.45199
L 349.029115 -159.866512
L 349.296959 -157.281035
L 349.492266 -154.695558
L 349.607263 -152.110081
L 349.635 -149.524604
L 349.56982 -146.939127
L 349.407768 -144.35365
L 349.14691 -141.768173
L 348.787534 -139.182696
L 348.332207 -136.597219
L 347.785714 -134.011742
L 347.154865 -131.426265
L 346.448207 -128.840787
L 345.67566 -126.25531
L 344.848113 -123.669833
L 343.97701 -121.084356
L 343.073949 -118.498879
L 342.150324 -115.913402
L 341.217028 -113.327925
L 340.284228 -110.742448
L 339.361209 -108.156971
L 338.456299 -105.571494
L 337.576843 -102.986017
L 336.729236 -100.400539
L 335.918965 -97.815062
L 335.150673 -95.229585
L 334.428205 -92.644108
z
" id="m045be670f6" style="stroke:#2d2d2d;stroke-width:1.5;"/>
    </defs>
    <g clip-path="url(#p48dad2eff7)">
     <use style="fill:#84c1b5;stroke:#2d2d2d;stroke-width:1.5;" x="0" xlink:href="#m045be670f6" y="612"/>
    </g>
   </g>
   <g id="PolyCollection_6">
    <defs>
     <path d="M 387.482481 -110.610938
L 373.167519 -110.610938
L 372.447859 -112.862381
L 371.696221 -115.113824
L 370.916252 -117.365267
L 370.112412 -119.61671
L 369.289999 -121.868153
L 368.455171 -124.119596
L 367.614914 -126.371039
L 366.776986 -128.622482
L 365.949804 -130.873925
L 365.142297 -133.125367
L 364.363699 -135.37681
L 363.623312 -137.628253
L 362.930236 -139.879696
L 362.293071 -142.131139
L 361.719627 -144.382582
L 361.216632 -146.634025
L 360.78948 -148.885468
L 360.442014 -151.136911
L 360.176374 -153.388354
L 359.992913 -155.639797
L 359.890182 -157.89124
L 359.865 -160.142682
L 359.912591 -162.394125
L 360.026789 -164.645568
L 360.200292 -166.897011
L 360.424953 -169.148454
L 360.692097 -171.399897
L 360.992832 -173.65134
L 361.318347 -175.902783
L 361.660188 -178.154226
L 362.010484 -180.405669
L 362.362132 -182.657112
L 362.70893 -184.908555
L 363.045659 -187.159997
L 363.368115 -189.41144
L 363.673108 -191.662883
L 363.958423 -193.914326
L 364.222761 -196.165769
L 364.465665 -198.417212
L 364.687442 -200.668655
L 364.889081 -202.920098
L 365.072177 -205.171541
L 365.23886 -207.422984
L 365.39173 -209.674427
L 365.533796 -211.92587
L 365.668409 -214.177312
L 365.799199 -216.428755
L 365.930008 -218.680198
L 366.064803 -220.931641
L 366.20759 -223.183084
L 366.362318 -225.434527
L 366.532767 -227.68597
L 366.722444 -229.937413
L 366.934469 -232.188856
L 367.171475 -234.440299
L 367.435511 -236.691742
L 367.727969 -238.943185
L 368.049528 -241.194627
L 368.40012 -243.44607
L 368.778924 -245.697513
L 369.184392 -247.948956
L 369.614286 -250.200399
L 370.065753 -252.451842
L 370.53541 -254.703285
L 371.019442 -256.954728
L 371.513715 -259.206171
L 372.013888 -261.457614
L 372.515525 -263.709057
L 373.014204 -265.9605
L 373.505613 -268.211942
L 373.985638 -270.463385
L 374.450438 -272.714828
L 374.896506 -274.966271
L 375.320717 -277.217714
L 375.720371 -279.469157
L 376.093215 -281.7206
L 376.437467 -283.972043
L 376.751831 -286.223486
L 377.035501 -288.474929
L 377.288171 -290.726372
L 377.510028 -292.977814
L 377.701749 -295.229257
L 377.864487 -297.4807
L 377.999851 -299.732143
L 378.109878 -301.983586
L 378.196986 -304.235029
L 378.263928 -306.486472
L 378.313725 -308.737915
L 378.34959 -310.989358
L 378.374842 -313.240801
L 378.392818 -315.492244
L 378.40677 -317.743687
L 378.419774 -319.995129
L 378.434639 -322.246572
L 378.453823 -324.498015
L 378.479366 -326.749458
L 378.512843 -329.000901
L 378.555328 -331.252344
L 378.607388 -333.503787
L 382.042612 -333.503787
L 382.042612 -333.503787
L 382.094672 -331.252344
L 382.137157 -329.000901
L 382.170634 -326.749458
L 382.196177 -324.498015
L 382.215361 -322.246572
L 382.230226 -319.995129
L 382.24323 -317.743687
L 382.257182 -315.492244
L 382.275158 -313.240801
L 382.30041 -310.989358
L 382.336275 -308.737915
L 382.386072 -306.486472
L 382.453014 -304.235029
L 382.540122 -301.983586
L 382.650149 -299.732143
L 382.785513 -297.4807
L 382.948251 -295.229257
L 383.139972 -292.977814
L 383.361829 -290.726372
L 383.614499 -288.474929
L 383.898169 -286.223486
L 384.212533 -283.972043
L 384.556785 -281.7206
L 384.929629 -279.469157
L 385.329283 -277.217714
L 385.753494 -274.966271
L 386.199562 -272.714828
L 386.664362 -270.463385
L 387.144387 -268.211942
L 387.635796 -265.9605
L 388.134475 -263.709057
L 388.636112 -261.457614
L 389.136285 -259.206171
L 389.630558 -256.954728
L 390.11459 -254.703285
L 390.584247 -252.451842
L 391.035714 -250.200399
L 391.465608 -247.948956
L 391.871076 -245.697513
L 392.24988 -243.44607
L 392.600472 -241.194627
L 392.922031 -238.943185
L 393.214489 -236.691742
L 393.478525 -234.440299
L 393.715531 -232.188856
L 393.927556 -229.937413
L 394.117233 -227.68597
L 394.287682 -225.434527
L 394.44241 -223.183084
L 394.585197 -220.931641
L 394.719992 -218.680198
L 394.850801 -216.428755
L 394.981591 -214.177312
L 395.116204 -211.92587
L 395.25827 -209.674427
L 395.41114 -207.422984
L 395.577823 -205.171541
L 395.760919 -202.920098
L 395.962558 -200.668655
L 396.184335 -198.417212
L 396.427239 -196.165769
L 396.691577 -193.914326
L 396.976892 -191.662883
L 397.281885 -189.41144
L 397.604341 -187.159997
L 397.94107 -184.908555
L 398.287868 -182.657112
L 398.639516 -180.405669
L 398.989812 -178.154226
L 399.331653 -175.902783
L 399.657168 -173.65134
L 399.957903 -171.399897
L 400.225047 -169.148454
L 400.449708 -166.897011
L 400.623211 -164.645568
L 400.737409 -162.394125
L 400.785 -160.142682
L 400.759818 -157.89124
L 400.657087 -155.639797
L 400.473626 -153.388354
L 400.207986 -151.136911
L 399.86052 -148.885468
L 399.433368 -146.634025
L 398.930373 -144.382582
L 398.356929 -142.131139
L 397.719764 -139.879696
L 397.026688 -137.628253
L 396.286301 -135.37681
L 395.507703 -133.125367
L 394.700196 -130.873925
L 393.873014 -128.622482
L 393.035086 -126.371039
L 392.194829 -124.119596
L 391.360001 -121.868153
L 390.537588 -119.61671
L 389.733748 -117.365267
L 388.953779 -115.113824
L 388.202141 -112.862381
L 387.482481 -110.610938
z
" id="mfdb28c271b" style="stroke:#2d2d2d;stroke-width:1.5;"/>
    </defs>
    <g clip-path="url(#p48dad2eff7)">
     <use style="fill:#61b0b4;stroke:#2d2d2d;stroke-width:1.5;" x="0" xlink:href="#mfdb28c271b" y="612"/>
    </g>
   </g>
   <g id="PolyCollection_7">
    <defs>
     <path d="M 435.764516 -117.641437
L 427.185484 -117.641437
L 427.105578 -118.301615
L 427.029898 -118.961793
L 426.958401 -119.62197
L 426.891002 -120.282148
L 426.827578 -120.942326
L 426.767965 -121.602504
L 426.711963 -122.262681
L 426.659334 -122.922859
L 426.609806 -123.583037
L 426.563072 -124.243215
L 426.518793 -124.903393
L 426.476597 -125.56357
L 426.436082 -126.223748
L 426.396815 -126.883926
L 426.358332 -127.544104
L 426.320137 -128.204281
L 426.281705 -128.864459
L 426.242479 -129.524637
L 426.201868 -130.184815
L 426.15925 -130.844992
L 426.113968 -131.50517
L 426.065333 -132.165348
L 426.01262 -132.825526
L 425.955074 -133.485704
L 425.891903 -134.145881
L 425.822289 -134.806059
L 425.745383 -135.466237
L 425.660311 -136.126415
L 425.56618 -136.786592
L 425.462082 -137.44677
L 425.347102 -138.106948
L 425.220325 -138.767126
L 425.080843 -139.427303
L 424.927771 -140.087481
L 424.760254 -140.747659
L 424.577481 -141.407837
L 424.378696 -142.068015
L 424.163216 -142.728192
L 423.930441 -143.38837
L 423.679875 -144.048548
L 423.41113 -144.708726
L 423.123953 -145.368903
L 422.818229 -146.029081
L 422.494001 -146.689259
L 422.151477 -147.349437
L 421.791043 -148.009614
L 421.413271 -148.669792
L 421.018925 -149.32997
L 420.608964 -149.990148
L 420.184548 -150.650326
L 419.747032 -151.310503
L 419.297967 -151.970681
L 418.83909 -152.630859
L 418.372318 -153.291037
L 417.899736 -153.951214
L 417.42358 -154.611392
L 416.946223 -155.27157
L 416.470154 -155.931748
L 415.997958 -156.591926
L 415.532291 -157.252103
L 415.075856 -157.912281
L 414.631378 -158.572459
L 414.201576 -159.232637
L 413.789138 -159.892814
L 413.396689 -160.552992
L 413.026772 -161.21317
L 412.681813 -161.873348
L 412.364103 -162.533525
L 412.075775 -163.193703
L 411.818776 -163.853881
L 411.594856 -164.514059
L 411.405546 -165.174237
L 411.252146 -165.834414
L 411.135713 -166.494592
L 411.057053 -167.15477
L 411.016718 -167.814948
L 411.015 -168.475125
L 411.051933 -169.135303
L 411.1273 -169.795481
L 411.240632 -170.455659
L 411.391227 -171.115836
L 411.578151 -171.776014
L 411.800261 -172.436192
L 412.056212 -173.09637
L 412.344481 -173.756548
L 412.663379 -174.416725
L 413.011078 -175.076903
L 413.385622 -175.737081
L 413.784954 -176.397259
L 414.206935 -177.057436
L 414.649362 -177.717614
L 415.109991 -178.377792
L 415.586555 -179.03797
L 416.076782 -179.698147
L 416.578413 -180.358325
L 417.08922 -181.018503
L 417.607019 -181.678681
L 418.129682 -182.338859
L 418.655156 -182.999036
L 444.294844 -182.999036
L 444.294844 -182.999036
L 444.820318 -182.338859
L 445.342981 -181.678681
L 445.86078 -181.018503
L 446.371587 -180.358325
L 446.873218 -179.698147
L 447.363445 -179.03797
L 447.840009 -178.377792
L 448.300638 -177.717614
L 448.743065 -177.057436
L 449.165046 -176.397259
L 449.564378 -175.737081
L 449.938922 -175.076903
L 450.286621 -174.416725
L 450.605519 -173.756548
L 450.893788 -173.09637
L 451.149739 -172.436192
L 451.371849 -171.776014
L 451.558773 -171.115836
L 451.709368 -170.455659
L 451.8227 -169.795481
L 451.898067 -169.135303
L 451.935 -168.475125
L 451.933282 -167.814948
L 451.892947 -167.15477
L 451.814287 -166.494592
L 451.697854 -165.834414
L 451.544454 -165.174237
L 451.355144 -164.514059
L 451.131224 -163.853881
L 450.874225 -163.193703
L 450.585897 -162.533525
L 450.268187 -161.873348
L 449.923228 -161.21317
L 449.553311 -160.552992
L 449.160862 -159.892814
L 448.748424 -159.232637
L 448.318622 -158.572459
L 447.874144 -157.912281
L 447.417709 -157.252103
L 446.952042 -156.591926
L 446.479846 -155.931748
L 446.003777 -155.27157
L 445.52642 -154.611392
L 445.050264 -153.951214
L 444.577682 -153.291037
L 444.11091 -152.630859
L 443.652033 -151.970681
L 443.202968 -151.310503
L 442.765452 -150.650326
L 442.341036 -149.990148
L 441.931075 -149.32997
L 441.536729 -148.669792
L 441.158957 -148.009614
L 440.798523 -147.349437
L 440.455999 -146.689259
L 440.131771 -146.029081
L 439.826047 -145.368903
L 439.53887 -144.708726
L 439.270125 -144.048548
L 439.019559 -143.38837
L 438.786784 -142.728192
L 438.571304 -142.068015
L 438.372519 -141.407837
L 438.189746 -140.747659
L 438.022229 -140.087481
L 437.869157 -139.427303
L 437.729675 -138.767126
L 437.602898 -138.106948
L 437.487918 -137.44677
L 437.38382 -136.786592
L 437.289689 -136.126415
L 437.204617 -135.466237
L 437.127711 -134.806059
L 437.058097 -134.145881
L 436.994926 -133.485704
L 436.93738 -132.825526
L 436.884667 -132.165348
L 436.836032 -131.50517
L 436.79075 -130.844992
L 436.748132 -130.184815
L 436.707521 -129.524637
L 436.668295 -128.864459
L 436.629863 -128.204281
L 436.591668 -127.544104
L 436.553185 -126.883926
L 436.513918 -126.223748
L 436.473403 -125.56357
L 436.431207 -124.903393
L 436.386928 -124.243215
L 436.340194 -123.583037
L 436.290666 -122.922859
L 436.238037 -122.262681
L 436.182035 -121.602504
L 436.122422 -120.942326
L 436.058998 -120.282148
L 435.991599 -119.62197
L 435.920102 -118.961793
L 435.844422 -118.301615
L 435.764516 -117.641437
z
" id="m4c526fbc06" style="stroke:#2d2d2d;stroke-width:1.5;"/>
    </defs>
    <g clip-path="url(#p48dad2eff7)">
     <use style="fill:#489fb1;stroke:#2d2d2d;stroke-width:1.5;" x="0" xlink:href="#m4c526fbc06" y="612"/>
    </g>
   </g>
   <g id="PolyCollection_8">
    <defs>
     <path d="M 493.936047 -108.788216
L 471.313953 -108.788216
L 471.140593 -111.158018
L 470.96871 -113.527819
L 470.798238 -115.897621
L 470.629102 -118.267422
L 470.461217 -120.637224
L 470.294494 -123.007025
L 470.128834 -125.376827
L 469.964133 -127.746628
L 469.800286 -130.11643
L 469.637182 -132.486231
L 469.47471 -134.856033
L 469.312759 -137.225834
L 469.151217 -139.595636
L 468.989976 -141.965437
L 468.828933 -144.335239
L 468.667988 -146.70504
L 468.507048 -149.074842
L 468.346029 -151.444643
L 468.184853 -153.814445
L 468.023455 -156.184246
L 467.86178 -158.554047
L 467.699784 -160.923849
L 467.537438 -163.29365
L 467.374725 -165.663452
L 467.211645 -168.033253
L 467.048212 -170.403055
L 466.884455 -172.772856
L 466.720422 -175.142658
L 466.556176 -177.512459
L 466.391798 -179.882261
L 466.227384 -182.252062
L 466.063049 -184.621864
L 465.898926 -186.991665
L 465.735162 -189.361467
L 465.571922 -191.731268
L 465.409389 -194.10107
L 465.247758 -196.470871
L 465.08724 -198.840673
L 464.928062 -201.210474
L 464.770462 -203.580276
L 464.614692 -205.950077
L 464.461016 -208.319879
L 464.309705 -210.68968
L 464.161043 -213.059482
L 464.015322 -215.429283
L 463.872838 -217.799085
L 463.733897 -220.168886
L 463.598805 -222.538687
L 463.467876 -224.908489
L 463.341422 -227.27829
L 463.219759 -229.648092
L 463.103199 -232.017893
L 462.992055 -234.387695
L 462.886636 -236.757496
L 462.787247 -239.127298
L 462.694186 -241.497099
L 462.607746 -243.866901
L 462.528213 -246.236702
L 462.455861 -248.606504
L 462.390956 -250.976305
L 462.333755 -253.346107
L 462.284499 -255.715908
L 462.24342 -258.08571
L 462.210735 -260.455511
L 462.186647 -262.825313
L 462.171345 -265.195114
L 462.165 -267.564916
L 462.16777 -269.934717
L 462.179795 -272.304519
L 462.201198 -274.67432
L 462.232085 -277.044122
L 462.272544 -279.413923
L 462.322646 -281.783724
L 462.382442 -284.153526
L 462.451968 -286.523327
L 462.531239 -288.893129
L 462.620252 -291.26293
L 462.718986 -293.632732
L 462.827403 -296.002533
L 462.945445 -298.372335
L 463.073037 -300.742136
L 463.210086 -303.111938
L 463.356482 -305.481739
L 463.512096 -307.851541
L 463.676784 -310.221342
L 463.850384 -312.591144
L 464.032719 -314.960945
L 464.223595 -317.330747
L 464.422804 -319.700548
L 464.630122 -322.07035
L 464.84531 -324.440151
L 465.068118 -326.809953
L 465.29828 -329.179754
L 465.535518 -331.549556
L 465.779542 -333.919357
L 466.030053 -336.289159
L 466.286738 -338.65896
L 466.549275 -341.028761
L 466.817335 -343.398563
L 498.432665 -343.398563
L 498.432665 -343.398563
L 498.700725 -341.028761
L 498.963262 -338.65896
L 499.219947 -336.289159
L 499.470458 -333.919357
L 499.714482 -331.549556
L 499.95172 -329.179754
L 500.181882 -326.809953
L 500.40469 -324.440151
L 500.619878 -322.07035
L 500.827196 -319.700548
L 501.026405 -317.330747
L 501.217281 -314.960945
L 501.399616 -312.591144
L 501.573216 -310.221342
L 501.737904 -307.851541
L 501.893518 -305.481739
L 502.039914 -303.111938
L 502.176963 -300.742136
L 502.304555 -298.372335
L 502.422597 -296.002533
L 502.531014 -293.632732
L 502.629748 -291.26293
L 502.718761 -288.893129
L 502.798032 -286.523327
L 502.867558 -284.153526
L 502.927354 -281.783724
L 502.977456 -279.413923
L 503.017915 -277.044122
L 503.048802 -274.67432
L 503.070205 -272.304519
L 503.08223 -269.934717
L 503.085 -267.564916
L 503.078655 -265.195114
L 503.063353 -262.825313
L 503.039265 -260.455511
L 503.00658 -258.08571
L 502.965501 -255.715908
L 502.916245 -253.346107
L 502.859044 -250.976305
L 502.794139 -248.606504
L 502.721787 -246.236702
L 502.642254 -243.866901
L 502.555814 -241.497099
L 502.462753 -239.127298
L 502.363364 -236.757496
L 502.257945 -234.387695
L 502.146801 -232.017893
L 502.030241 -229.648092
L 501.908578 -227.27829
L 501.782124 -224.908489
L 501.651195 -222.538687
L 501.516103 -220.168886
L 501.377162 -217.799085
L 501.234678 -215.429283
L 501.088957 -213.059482
L 500.940295 -210.68968
L 500.788984 -208.319879
L 500.635308 -205.950077
L 500.479538 -203.580276
L 500.321938 -201.210474
L 500.16276 -198.840673
L 500.002242 -196.470871
L 499.840611 -194.10107
L 499.678078 -191.731268
L 499.514838 -189.361467
L 499.351074 -186.991665
L 499.186951 -184.621864
L 499.022616 -182.252062
L 498.858202 -179.882261
L 498.693824 -177.512459
L 498.529578 -175.142658
L 498.365545 -172.772856
L 498.201788 -170.403055
L 498.038355 -168.033253
L 497.875275 -165.663452
L 497.712562 -163.29365
L 497.550216 -160.923849
L 497.38822 -158.554047
L 497.226545 -156.184246
L 497.065147 -153.814445
L 496.903971 -151.444643
L 496.742952 -149.074842
L 496.582012 -146.70504
L 496.421067 -144.335239
L 496.260024 -141.965437
L 496.098783 -139.595636
L 495.937241 -137.225834
L 495.77529 -134.856033
L 495.612818 -132.486231
L 495.449714 -130.11643
L 495.285867 -127.746628
L 495.121166 -125.376827
L 494.955506 -123.007025
L 494.788783 -120.637224
L 494.620898 -118.267422
L 494.451762 -115.897621
L 494.28129 -113.527819
L 494.109407 -111.158018
L 493.936047 -108.788216
z
" id="m5400123944" style="stroke:#2d2d2d;stroke-width:1.5;"/>
    </defs>
    <g clip-path="url(#p48dad2eff7)">
     <use style="fill:#348bac;stroke:#2d2d2d;stroke-width:1.5;" x="0" xlink:href="#m5400123944" y="612"/>
    </g>
   </g>
   <g id="PolyCollection_9">
    <defs>
     <path d="M 551.805693 -125.713491
L 515.744307 -125.713491
L 515.644018 -126.957571
L 515.545891 -128.201651
L 515.449934 -129.445731
L 515.356152 -130.689811
L 515.264551 -131.933891
L 515.175134 -133.177971
L 515.087904 -134.422051
L 515.002861 -135.666131
L 514.920006 -136.910211
L 514.839338 -138.154291
L 514.760853 -139.398371
L 514.684549 -140.642451
L 514.610421 -141.886531
L 514.538465 -143.130611
L 514.468673 -144.374691
L 514.401039 -145.618771
L 514.335556 -146.862852
L 514.272216 -148.106932
L 514.211008 -149.351012
L 514.151925 -150.595092
L 514.094955 -151.839172
L 514.040089 -153.083252
L 513.987316 -154.327332
L 513.936626 -155.571412
L 513.888006 -156.815492
L 513.841446 -158.059572
L 513.796933 -159.303652
L 513.754458 -160.547732
L 513.714007 -161.791812
L 513.67557 -163.035892
L 513.639136 -164.279972
L 513.604692 -165.524052
L 513.57223 -166.768132
L 513.541737 -168.012212
L 513.513204 -169.256292
L 513.486622 -170.500372
L 513.461979 -171.744452
L 513.439269 -172.988532
L 513.418482 -174.232612
L 513.399611 -175.476692
L 513.382647 -176.720772
L 513.367586 -177.964852
L 513.354421 -179.208932
L 513.343146 -180.453012
L 513.333758 -181.697092
L 513.326252 -182.941172
L 513.320625 -184.185252
L 513.316875 -185.429332
L 513.315 -186.673412
L 513.315 -187.917492
L 513.316875 -189.161572
L 513.320625 -190.405652
L 513.326252 -191.649732
L 513.333758 -192.893812
L 513.343146 -194.137892
L 513.354421 -195.381972
L 513.367586 -196.626052
L 513.382647 -197.870132
L 513.399611 -199.114212
L 513.418482 -200.358292
L 513.439269 -201.602372
L 513.461979 -202.846453
L 513.486622 -204.090533
L 513.513204 -205.334613
L 513.541737 -206.578693
L 513.57223 -207.822773
L 513.604692 -209.066853
L 513.639136 -210.310933
L 513.67557 -211.555013
L 513.714007 -212.799093
L 513.754458 -214.043173
L 513.796933 -215.287253
L 513.841446 -216.531333
L 513.888006 -217.775413
L 513.936626 -219.019493
L 513.987316 -220.263573
L 514.040089 -221.507653
L 514.094955 -222.751733
L 514.151925 -223.995813
L 514.211008 -225.239893
L 514.272216 -226.483973
L 514.335556 -227.728053
L 514.401039 -228.972133
L 514.468673 -230.216213
L 514.538465 -231.460293
L 514.610421 -232.704373
L 514.684549 -233.948453
L 514.760853 -235.192533
L 514.839338 -236.436613
L 514.920006 -237.680693
L 515.002861 -238.924773
L 515.087904 -240.168853
L 515.175134 -241.412933
L 515.264551 -242.657013
L 515.356152 -243.901093
L 515.449934 -245.145173
L 515.545891 -246.389253
L 515.644018 -247.633333
L 515.744307 -248.877413
L 551.805693 -248.877413
L 551.805693 -248.877413
L 551.905982 -247.633333
L 552.004109 -246.389253
L 552.100066 -245.145173
L 552.193848 -243.901093
L 552.285449 -242.657013
L 552.374866 -241.412933
L 552.462096 -240.168853
L 552.547139 -238.924773
L 552.629994 -237.680693
L 552.710662 -236.436613
L 552.789147 -235.192533
L 552.865451 -233.948453
L 552.939579 -232.704373
L 553.011535 -231.460293
L 553.081327 -230.216213
L 553.148961 -228.972133
L 553.214444 -227.728053
L 553.277784 -226.483973
L 553.338992 -225.239893
L 553.398075 -223.995813
L 553.455045 -222.751733
L 553.509911 -221.507653
L 553.562684 -220.263573
L 553.613374 -219.019493
L 553.661994 -217.775413
L 553.708554 -216.531333
L 553.753067 -215.287253
L 553.795542 -214.043173
L 553.835993 -212.799093
L 553.87443 -211.555013
L 553.910864 -210.310933
L 553.945308 -209.066853
L 553.97777 -207.822773
L 554.008263 -206.578693
L 554.036796 -205.334613
L 554.063378 -204.090533
L 554.088021 -202.846453
L 554.110731 -201.602372
L 554.131518 -200.358292
L 554.150389 -199.114212
L 554.167353 -197.870132
L 554.182414 -196.626052
L 554.195579 -195.381972
L 554.206854 -194.137892
L 554.216242 -192.893812
L 554.223748 -191.649732
L 554.229375 -190.405652
L 554.233125 -189.161572
L 554.235 -187.917492
L 554.235 -186.673412
L 554.233125 -185.429332
L 554.229375 -184.185252
L 554.223748 -182.941172
L 554.216242 -181.697092
L 554.206854 -180.453012
L 554.195579 -179.208932
L 554.182414 -177.964852
L 554.167353 -176.720772
L 554.150389 -175.476692
L 554.131518 -174.232612
L 554.110731 -172.988532
L 554.088021 -171.744452
L 554.063378 -170.500372
L 554.036796 -169.256292
L 554.008263 -168.012212
L 553.97777 -166.768132
L 553.945308 -165.524052
L 553.910864 -164.279972
L 553.87443 -163.035892
L 553.835993 -161.791812
L 553.795542 -160.547732
L 553.753067 -159.303652
L 553.708554 -158.059572
L 553.661994 -156.815492
L 553.613374 -155.571412
L 553.562684 -154.327332
L 553.509911 -153.083252
L 553.455045 -151.839172
L 553.398075 -150.595092
L 553.338992 -149.351012
L 553.277784 -148.106932
L 553.214444 -146.862852
L 553.148961 -145.618771
L 553.081327 -144.374691
L 553.011535 -143.130611
L 552.939579 -141.886531
L 552.865451 -140.642451
L 552.789147 -139.398371
L 552.710662 -138.154291
L 552.629994 -136.910211
L 552.547139 -135.666131
L 552.462096 -134.422051
L 552.374866 -133.177971
L 552.285449 -131.933891
L 552.193848 -130.689811
L 552.100066 -129.445731
L 552.004109 -128.201651
L 551.905982 -126.957571
L 551.805693 -125.713491
z
" id="ma3c7f6a8b7" style="stroke:#2d2d2d;stroke-width:1.5;"/>
    </defs>
    <g clip-path="url(#p48dad2eff7)">
     <use style="fill:#3272a0;stroke:#2d2d2d;stroke-width:1.5;" x="0" xlink:href="#ma3c7f6a8b7" y="612"/>
    </g>
   </g>
   <g id="PolyCollection_10">
    <defs>
     <path d="M 654.105693 -147.586154
L 618.044307 -147.586154
L 617.944018 -148.727656
L 617.845891 -149.869159
L 617.749934 -151.010662
L 617.656152 -152.152164
L 617.564551 -153.293667
L 617.475134 -154.435169
L 617.387904 -155.576672
L 617.302861 -156.718175
L 617.220006 -157.859677
L 617.139338 -159.00118
L 617.060853 -160.142682
L 616.984549 -161.284185
L 616.910421 -162.425688
L 616.838465 -163.56719
L 616.768673 -164.708693
L 616.701039 -165.850195
L 616.635556 -166.991698
L 616.572216 -168.133201
L 616.511008 -169.274703
L 616.451925 -170.416206
L 616.394955 -171.557708
L 616.340089 -172.699211
L 616.287316 -173.840714
L 616.236626 -174.982216
L 616.188006 -176.123719
L 616.141446 -177.265221
L 616.096933 -178.406724
L 616.054458 -179.548227
L 616.014007 -180.689729
L 615.97557 -181.831232
L 615.939136 -182.972734
L 615.904692 -184.114237
L 615.87223 -185.25574
L 615.841737 -186.397242
L 615.813204 -187.538745
L 615.786622 -188.680247
L 615.761979 -189.82175
L 615.739269 -190.963253
L 615.718482 -192.104755
L 615.699611 -193.246258
L 615.682647 -194.38776
L 615.667586 -195.529263
L 615.654421 -196.670766
L 615.643146 -197.812268
L 615.633758 -198.953771
L 615.626252 -200.095273
L 615.620625 -201.236776
L 615.616875 -202.378279
L 615.615 -203.519781
L 615.615 -204.661284
L 615.616875 -205.802786
L 615.620625 -206.944289
L 615.626252 -208.085792
L 615.633758 -209.227294
L 615.643146 -210.368797
L 615.654421 -211.510299
L 615.667586 -212.651802
L 615.682647 -213.793305
L 615.699611 -214.934807
L 615.718482 -216.07631
L 615.739269 -217.217812
L 615.761979 -218.359315
L 615.786622 -219.500818
L 615.813204 -220.64232
L 615.841737 -221.783823
L 615.87223 -222.925325
L 615.904692 -224.066828
L 615.939136 -225.208331
L 615.97557 -226.349833
L 616.014007 -227.491336
L 616.054458 -228.632838
L 616.096933 -229.774341
L 616.141446 -230.915844
L 616.188006 -232.057346
L 616.236626 -233.198849
L 616.287316 -234.340351
L 616.340089 -235.481854
L 616.394955 -236.623357
L 616.451925 -237.764859
L 616.511008 -238.906362
L 616.572216 -240.047864
L 616.635556 -241.189367
L 616.701039 -242.33087
L 616.768673 -243.472372
L 616.838465 -244.613875
L 616.910421 -245.755377
L 616.984549 -246.89688
L 617.060853 -248.038383
L 617.139338 -249.179885
L 617.220006 -250.321388
L 617.302861 -251.46289
L 617.387904 -252.604393
L 617.475134 -253.745896
L 617.564551 -254.887398
L 617.656152 -256.028901
L 617.749934 -257.170403
L 617.845891 -258.311906
L 617.944018 -259.453409
L 618.044307 -260.594911
L 654.105693 -260.594911
L 654.105693 -260.594911
L 654.205982 -259.453409
L 654.304109 -258.311906
L 654.400066 -257.170403
L 654.493848 -256.028901
L 654.585449 -254.887398
L 654.674866 -253.745896
L 654.762096 -252.604393
L 654.847139 -251.46289
L 654.929994 -250.321388
L 655.010662 -249.179885
L 655.089147 -248.038383
L 655.165451 -246.89688
L 655.239579 -245.755377
L 655.311535 -244.613875
L 655.381327 -243.472372
L 655.448961 -242.33087
L 655.514444 -241.189367
L 655.577784 -240.047864
L 655.638992 -238.906362
L 655.698075 -237.764859
L 655.755045 -236.623357
L 655.809911 -235.481854
L 655.862684 -234.340351
L 655.913374 -233.198849
L 655.961994 -232.057346
L 656.008554 -230.915844
L 656.053067 -229.774341
L 656.095542 -228.632838
L 656.135993 -227.491336
L 656.17443 -226.349833
L 656.210864 -225.208331
L 656.245308 -224.066828
L 656.27777 -222.925325
L 656.308263 -221.783823
L 656.336796 -220.64232
L 656.363378 -219.500818
L 656.388021 -218.359315
L 656.410731 -217.217812
L 656.431518 -216.07631
L 656.450389 -214.934807
L 656.467353 -213.793305
L 656.482414 -212.651802
L 656.495579 -211.510299
L 656.506854 -210.368797
L 656.516242 -209.227294
L 656.523748 -208.085792
L 656.529375 -206.944289
L 656.533125 -205.802786
L 656.535 -204.661284
L 656.535 -203.519781
L 656.533125 -202.378279
L 656.529375 -201.236776
L 656.523748 -200.095273
L 656.516242 -198.953771
L 656.506854 -197.812268
L 656.495579 -196.670766
L 656.482414 -195.529263
L 656.467353 -194.38776
L 656.450389 -193.246258
L 656.431518 -192.104755
L 656.410731 -190.963253
L 656.388021 -189.82175
L 656.363378 -188.680247
L 656.336796 -187.538745
L 656.308263 -186.397242
L 656.27777 -185.25574
L 656.245308 -184.114237
L 656.210864 -182.972734
L 656.17443 -181.831232
L 656.135993 -180.689729
L 656.095542 -179.548227
L 656.053067 -178.406724
L 656.008554 -177.265221
L 655.961994 -176.123719
L 655.913374 -174.982216
L 655.862684 -173.840714
L 655.809911 -172.699211
L 655.755045 -171.557708
L 655.698075 -170.416206
L 655.638992 -169.274703
L 655.577784 -168.133201
L 655.514444 -166.991698
L 655.448961 -165.850195
L 655.381327 -164.708693
L 655.311535 -163.56719
L 655.239579 -162.425688
L 655.165451 -161.284185
L 655.089147 -160.142682
L 655.010662 -159.00118
L 654.929994 -157.859677
L 654.847139 -156.718175
L 654.762096 -155.576672
L 654.674866 -154.435169
L 654.585449 -153.293667
L 654.493848 -152.152164
L 654.400066 -151.010662
L 654.304109 -149.869159
L 654.205982 -148.727656
L 654.105693 -147.586154
z
" id="m49ba3747c6" style="stroke:#2d2d2d;stroke-width:1.5;"/>
    </defs>
    <g clip-path="url(#p48dad2eff7)">
     <use style="fill:#33468a;stroke:#2d2d2d;stroke-width:1.5;" x="0" xlink:href="#m49ba3747c6" y="612"/>
    </g>
   </g>
   <g id="matplotlib.axis_1">
    <g id="xtick_1">
     <g id="line2d_1">
      <defs>
       <path d="M 0 0
L 0 3.5
" id="mf67139e2a7" style="stroke:#000000;stroke-width:0.8;"/>
      </defs>
      <g>
       <use style="stroke:#000000;stroke-width:0.8;" x="124.575" xlink:href="#mf67139e2a7" y="535.5"/>
      </g>
     </g>
     <g id="text_1">
      <!-- 1 -->
      <defs>
       <path d="M 12.40625 8.296875
L 28.515625 8.296875
L 28.515625 63.921875
L 10.984375 60.40625
L 10.984375 69.390625
L 28.421875 72.90625
L 38.28125 72.90625
L 38.28125 8.296875
L 54.390625 8.296875
L 54.390625 0
L 12.40625 0
z
" id="DejaVuSans-49"/>
      </defs>
      <g transform="translate(117.57625 559.216563)scale(0.22 -0.22)">
       <use xlink:href="#DejaVuSans-49"/>
      </g>
     </g>
    </g>
    <g id="xtick_2">
     <g id="line2d_2">
      <g>
       <use style="stroke:#000000;stroke-width:0.8;" x="175.725" xlink:href="#mf67139e2a7" y="535.5"/>
      </g>
     </g>
     <g id="text_2">
      <!-- 2 -->
      <defs>
       <path d="M 19.1875 8.296875
L 53.609375 8.296875
L 53.609375 0
L 7.328125 0
L 7.328125 8.296875
Q 12.9375 14.109375 22.625 23.890625
Q 32.328125 33.6875 34.8125 36.53125
Q 39.546875 41.84375 41.421875 45.53125
Q 43.3125 49.21875 43.3125 52.78125
Q 43.3125 58.59375 39.234375 62.25
Q 35.15625 65.921875 28.609375 65.921875
Q 23.96875 65.921875 18.8125 64.3125
Q 13.671875 62.703125 7.8125 59.421875
L 7.8125 69.390625
Q 13.765625 71.78125 18.9375 73
Q 24.125 74.21875 28.421875 74.21875
Q 39.75 74.21875 46.484375 68.546875
Q 53.21875 62.890625 53.21875 53.421875
Q 53.21875 48.921875 51.53125 44.890625
Q 49.859375 40.875 45.40625 35.40625
Q 44.1875 33.984375 37.640625 27.21875
Q 31.109375 20.453125 19.1875 8.296875
z
" id="DejaVuSans-50"/>
      </defs>
      <g transform="translate(168.72625 559.216563)scale(0.22 -0.22)">
       <use xlink:href="#DejaVuSans-50"/>
      </g>
     </g>
    </g>
    <g id="xtick_3">
     <g id="line2d_3">
      <g>
       <use style="stroke:#000000;stroke-width:0.8;" x="226.875" xlink:href="#mf67139e2a7" y="535.5"/>
      </g>
     </g>
     <g id="text_3">
      <!-- 3 -->
      <defs>
       <path d="M 40.578125 39.3125
Q 47.65625 37.796875 51.625 33
Q 55.609375 28.21875 55.609375 21.1875
Q 55.609375 10.40625 48.1875 4.484375
Q 40.765625 -1.421875 27.09375 -1.421875
Q 22.515625 -1.421875 17.65625 -0.515625
Q 12.796875 0.390625 7.625 2.203125
L 7.625 11.71875
Q 11.71875 9.328125 16.59375 8.109375
Q 21.484375 6.890625 26.8125 6.890625
Q 36.078125 6.890625 40.9375 10.546875
Q 45.796875 14.203125 45.796875 21.1875
Q 45.796875 27.640625 41.28125 31.265625
Q 36.765625 34.90625 28.71875 34.90625
L 20.21875 34.90625
L 20.21875 43.015625
L 29.109375 43.015625
Q 36.375 43.015625 40.234375 45.921875
Q 44.09375 48.828125 44.09375 54.296875
Q 44.09375 59.90625 40.109375 62.90625
Q 36.140625 65.921875 28.71875 65.921875
Q 24.65625 65.921875 20.015625 65.03125
Q 15.375 64.15625 9.8125 62.3125
L 9.8125 71.09375
Q 15.4375 72.65625 20.34375 73.4375
Q 25.25 74.21875 29.59375 74.21875
Q 40.828125 74.21875 47.359375 69.109375
Q 53.90625 64.015625 53.90625 55.328125
Q 53.90625 49.265625 50.4375 45.09375
Q 46.96875 40.921875 40.578125 39.3125
z
" id="DejaVuSans-51"/>
      </defs>
      <g transform="translate(219.87625 559.216563)scale(0.22 -0.22)">
       <use xlink:href="#DejaVuSans-51"/>
      </g>
     </g>
    </g>
    <g id="xtick_4">
     <g id="line2d_4">
      <g>
       <use style="stroke:#000000;stroke-width:0.8;" x="278.025" xlink:href="#mf67139e2a7" y="535.5"/>
      </g>
     </g>
     <g id="text_4">
      <!-- 4 -->
      <defs>
       <path d="M 37.796875 64.3125
L 12.890625 25.390625
L 37.796875 25.390625
z
M 35.203125 72.90625
L 47.609375 72.90625
L 47.609375 25.390625
L 58.015625 25.390625
L 58.015625 17.1875
L 47.609375 17.1875
L 47.609375 0
L 37.796875 0
L 37.796875 17.1875
L 4.890625 17.1875
L 4.890625 26.703125
z
" id="DejaVuSans-52"/>
      </defs>
      <g transform="translate(271.02625 559.216563)scale(0.22 -0.22)">
       <use xlink:href="#DejaVuSans-52"/>
      </g>
     </g>
    </g>
    <g id="xtick_5">
     <g id="line2d_5">
      <g>
       <use style="stroke:#000000;stroke-width:0.8;" x="329.175" xlink:href="#mf67139e2a7" y="535.5"/>
      </g>
     </g>
     <g id="text_5">
      <!-- 5 -->
      <defs>
       <path d="M 10.796875 72.90625
L 49.515625 72.90625
L 49.515625 64.59375
L 19.828125 64.59375
L 19.828125 46.734375
Q 21.96875 47.46875 24.109375 47.828125
Q 26.265625 48.1875 28.421875 48.1875
Q 40.625 48.1875 47.75 41.5
Q 54.890625 34.8125 54.890625 23.390625
Q 54.890625 11.625 47.5625 5.09375
Q 40.234375 -1.421875 26.90625 -1.421875
Q 22.3125 -1.421875 17.546875 -0.640625
Q 12.796875 0.140625 7.71875 1.703125
L 7.71875 11.625
Q 12.109375 9.234375 16.796875 8.0625
Q 21.484375 6.890625 26.703125 6.890625
Q 35.15625 6.890625 40.078125 11.328125
Q 45.015625 15.765625 45.015625 23.390625
Q 45.015625 31 40.078125 35.4375
Q 35.15625 39.890625 26.703125 39.890625
Q 22.75 39.890625 18.8125 39.015625
Q 14.890625 38.140625 10.796875 36.28125
z
" id="DejaVuSans-53"/>
      </defs>
      <g transform="translate(322.17625 559.216563)scale(0.22 -0.22)">
       <use xlink:href="#DejaVuSans-53"/>
      </g>
     </g>
    </g>
    <g id="xtick_6">
     <g id="line2d_6">
      <g>
       <use style="stroke:#000000;stroke-width:0.8;" x="380.325" xlink:href="#mf67139e2a7" y="535.5"/>
      </g>
     </g>
     <g id="text_6">
      <!-- 6 -->
      <defs>
       <path d="M 33.015625 40.375
Q 26.375 40.375 22.484375 35.828125
Q 18.609375 31.296875 18.609375 23.390625
Q 18.609375 15.53125 22.484375 10.953125
Q 26.375 6.390625 33.015625 6.390625
Q 39.65625 6.390625 43.53125 10.953125
Q 47.40625 15.53125 47.40625 23.390625
Q 47.40625 31.296875 43.53125 35.828125
Q 39.65625 40.375 33.015625 40.375
z
M 52.59375 71.296875
L 52.59375 62.3125
Q 48.875 64.0625 45.09375 64.984375
Q 41.3125 65.921875 37.59375 65.921875
Q 27.828125 65.921875 22.671875 59.328125
Q 17.53125 52.734375 16.796875 39.40625
Q 19.671875 43.65625 24.015625 45.921875
Q 28.375 48.1875 33.59375 48.1875
Q 44.578125 48.1875 50.953125 41.515625
Q 57.328125 34.859375 57.328125 23.390625
Q 57.328125 12.15625 50.6875 5.359375
Q 44.046875 -1.421875 33.015625 -1.421875
Q 20.359375 -1.421875 13.671875 8.265625
Q 6.984375 17.96875 6.984375 36.375
Q 6.984375 53.65625 15.1875 63.9375
Q 23.390625 74.21875 37.203125 74.21875
Q 40.921875 74.21875 44.703125 73.484375
Q 48.484375 72.75 52.59375 71.296875
z
" id="DejaVuSans-54"/>
      </defs>
      <g transform="translate(373.32625 559.216563)scale(0.22 -0.22)">
       <use xlink:href="#DejaVuSans-54"/>
      </g>
     </g>
    </g>
    <g id="xtick_7">
     <g id="line2d_7">
      <g>
       <use style="stroke:#000000;stroke-width:0.8;" x="431.475" xlink:href="#mf67139e2a7" y="535.5"/>
      </g>
     </g>
     <g id="text_7">
      <!-- 7 -->
      <defs>
       <path d="M 8.203125 72.90625
L 55.078125 72.90625
L 55.078125 68.703125
L 28.609375 0
L 18.3125 0
L 43.21875 64.59375
L 8.203125 64.59375
z
" id="DejaVuSans-55"/>
      </defs>
      <g transform="translate(424.47625 559.216563)scale(0.22 -0.22)">
       <use xlink:href="#DejaVuSans-55"/>
      </g>
     </g>
    </g>
    <g id="xtick_8">
     <g id="line2d_8">
      <g>
       <use style="stroke:#000000;stroke-width:0.8;" x="482.625" xlink:href="#mf67139e2a7" y="535.5"/>
      </g>
     </g>
     <g id="text_8">
      <!-- 8 -->
      <defs>
       <path d="M 31.78125 34.625
Q 24.75 34.625 20.71875 30.859375
Q 16.703125 27.09375 16.703125 20.515625
Q 16.703125 13.921875 20.71875 10.15625
Q 24.75 6.390625 31.78125 6.390625
Q 38.8125 6.390625 42.859375 10.171875
Q 46.921875 13.96875 46.921875 20.515625
Q 46.921875 27.09375 42.890625 30.859375
Q 38.875 34.625 31.78125 34.625
z
M 21.921875 38.8125
Q 15.578125 40.375 12.03125 44.71875
Q 8.5 49.078125 8.5 55.328125
Q 8.5 64.0625 14.71875 69.140625
Q 20.953125 74.21875 31.78125 74.21875
Q 42.671875 74.21875 48.875 69.140625
Q 55.078125 64.0625 55.078125 55.328125
Q 55.078125 49.078125 51.53125 44.71875
Q 48 40.375 41.703125 38.8125
Q 48.828125 37.15625 52.796875 32.3125
Q 56.78125 27.484375 56.78125 20.515625
Q 56.78125 9.90625 50.3125 4.234375
Q 43.84375 -1.421875 31.78125 -1.421875
Q 19.734375 -1.421875 13.25 4.234375
Q 6.78125 9.90625 6.78125 20.515625
Q 6.78125 27.484375 10.78125 32.3125
Q 14.796875 37.15625 21.921875 38.8125
z
M 18.3125 54.390625
Q 18.3125 48.734375 21.84375 45.5625
Q 25.390625 42.390625 31.78125 42.390625
Q 38.140625 42.390625 41.71875 45.5625
Q 45.3125 48.734375 45.3125 54.390625
Q 45.3125 60.0625 41.71875 63.234375
Q 38.140625 66.40625 31.78125 66.40625
Q 25.390625 66.40625 21.84375 63.234375
Q 18.3125 60.0625 18.3125 54.390625
z
" id="DejaVuSans-56"/>
      </defs>
      <g transform="translate(475.62625 559.216563)scale(0.22 -0.22)">
       <use xlink:href="#DejaVuSans-56"/>
      </g>
     </g>
    </g>
    <g id="xtick_9">
     <g id="line2d_9">
      <g>
       <use style="stroke:#000000;stroke-width:0.8;" x="533.775" xlink:href="#mf67139e2a7" y="535.5"/>
      </g>
     </g>
     <g id="text_9">
      <!-- 9 -->
      <defs>
       <path d="M 10.984375 1.515625
L 10.984375 10.5
Q 14.703125 8.734375 18.5 7.8125
Q 22.3125 6.890625 25.984375 6.890625
Q 35.75 6.890625 40.890625 13.453125
Q 46.046875 20.015625 46.78125 33.40625
Q 43.953125 29.203125 39.59375 26.953125
Q 35.25 24.703125 29.984375 24.703125
Q 19.046875 24.703125 12.671875 31.3125
Q 6.296875 37.9375 6.296875 49.421875
Q 6.296875 60.640625 12.9375 67.421875
Q 19.578125 74.21875 30.609375 74.21875
Q 43.265625 74.21875 49.921875 64.515625
Q 56.59375 54.828125 56.59375 36.375
Q 56.59375 19.140625 48.40625 8.859375
Q 40.234375 -1.421875 26.421875 -1.421875
Q 22.703125 -1.421875 18.890625 -0.6875
Q 15.09375 0.046875 10.984375 1.515625
z
M 30.609375 32.421875
Q 37.25 32.421875 41.125 36.953125
Q 45.015625 41.5 45.015625 49.421875
Q 45.015625 57.28125 41.125 61.84375
Q 37.25 66.40625 30.609375 66.40625
Q 23.96875 66.40625 20.09375 61.84375
Q 16.21875 57.28125 16.21875 49.421875
Q 16.21875 41.5 20.09375 36.953125
Q 23.96875 32.421875 30.609375 32.421875
z
" id="DejaVuSans-57"/>
      </defs>
      <g transform="translate(526.77625 559.216563)scale(0.22 -0.22)">
       <use xlink:href="#DejaVuSans-57"/>
      </g>
     </g>
    </g>
    <g id="xtick_10">
     <g id="line2d_10">
      <g>
       <use style="stroke:#000000;stroke-width:0.8;" x="584.925" xlink:href="#mf67139e2a7" y="535.5"/>
      </g>
     </g>
     <g id="text_10">
      <!-- 10 -->
      <defs>
       <path d="M 31.78125 66.40625
Q 24.171875 66.40625 20.328125 58.90625
Q 16.5 51.421875 16.5 36.375
Q 16.5 21.390625 20.328125 13.890625
Q 24.171875 6.390625 31.78125 6.390625
Q 39.453125 6.390625 43.28125 13.890625
Q 47.125 21.390625 47.125 36.375
Q 47.125 51.421875 43.28125 58.90625
Q 39.453125 66.40625 31.78125 66.40625
z
M 31.78125 74.21875
Q 44.046875 74.21875 50.515625 64.515625
Q 56.984375 54.828125 56.984375 36.375
Q 56.984375 17.96875 50.515625 8.265625
Q 44.046875 -1.421875 31.78125 -1.421875
Q 19.53125 -1.421875 13.0625 8.265625
Q 6.59375 17.96875 6.59375 36.375
Q 6.59375 54.828125 13.0625 64.515625
Q 19.53125 74.21875 31.78125 74.21875
z
" id="DejaVuSans-48"/>
      </defs>
      <g transform="translate(570.9275 559.216563)scale(0.22 -0.22)">
       <use xlink:href="#DejaVuSans-49"/>
       <use x="63.623047" xlink:href="#DejaVuSans-48"/>
      </g>
     </g>
    </g>
    <g id="xtick_11">
     <g id="line2d_11">
      <g>
       <use style="stroke:#000000;stroke-width:0.8;" x="636.075" xlink:href="#mf67139e2a7" y="535.5"/>
      </g>
     </g>
     <g id="text_11">
      <!-- 11 -->
      <g transform="translate(622.0775 559.216563)scale(0.22 -0.22)">
       <use xlink:href="#DejaVuSans-49"/>
       <use x="63.623047" xlink:href="#DejaVuSans-49"/>
      </g>
     </g>
    </g>
    <g id="xtick_12">
     <g id="line2d_12">
      <g>
       <use style="stroke:#000000;stroke-width:0.8;" x="687.225" xlink:href="#mf67139e2a7" y="535.5"/>
      </g>
     </g>
     <g id="text_12">
      <!-- 12 -->
      <g transform="translate(673.2275 559.216563)scale(0.22 -0.22)">
       <use xlink:href="#DejaVuSans-49"/>
       <use x="63.623047" xlink:href="#DejaVuSans-50"/>
      </g>
     </g>
    </g>
    <g id="text_13">
     <!-- # of Preprint Versions -->
     <defs>
      <path d="M 51.125 44
L 36.921875 44
L 32.8125 27.6875
L 47.125 27.6875
z
M 43.796875 71.78125
L 38.71875 51.515625
L 52.984375 51.515625
L 58.109375 71.78125
L 65.921875 71.78125
L 60.890625 51.515625
L 76.125 51.515625
L 76.125 44
L 58.984375 44
L 54.984375 27.6875
L 70.515625 27.6875
L 70.515625 20.21875
L 53.078125 20.21875
L 48 0
L 40.1875 0
L 45.21875 20.21875
L 30.90625 20.21875
L 25.875 0
L 18.015625 0
L 23.09375 20.21875
L 7.71875 20.21875
L 7.71875 27.6875
L 24.90625 27.6875
L 29 44
L 13.28125 44
L 13.28125 51.515625
L 30.90625 51.515625
L 35.890625 71.78125
z
" id="DejaVuSans-35"/>
      <path id="DejaVuSans-32"/>
      <path d="M 30.609375 48.390625
Q 23.390625 48.390625 19.1875 42.75
Q 14.984375 37.109375 14.984375 27.296875
Q 14.984375 17.484375 19.15625 11.84375
Q 23.34375 6.203125 30.609375 6.203125
Q 37.796875 6.203125 41.984375 11.859375
Q 46.1875 17.53125 46.1875 27.296875
Q 46.1875 37.015625 41.984375 42.703125
Q 37.796875 48.390625 30.609375 48.390625
z
M 30.609375 56
Q 42.328125 56 49.015625 48.375
Q 55.71875 40.765625 55.71875 27.296875
Q 55.71875 13.875 49.015625 6.21875
Q 42.328125 -1.421875 30.609375 -1.421875
Q 18.84375 -1.421875 12.171875 6.21875
Q 5.515625 13.875 5.515625 27.296875
Q 5.515625 40.765625 12.171875 48.375
Q 18.84375 56 30.609375 56
z
" id="DejaVuSans-111"/>
      <path d="M 37.109375 75.984375
L 37.109375 68.5
L 28.515625 68.5
Q 23.6875 68.5 21.796875 66.546875
Q 19.921875 64.59375 19.921875 59.515625
L 19.921875 54.6875
L 34.71875 54.6875
L 34.71875 47.703125
L 19.921875 47.703125
L 19.921875 0
L 10.890625 0
L 10.890625 47.703125
L 2.296875 47.703125
L 2.296875 54.6875
L 10.890625 54.6875
L 10.890625 58.5
Q 10.890625 67.625 15.140625 71.796875
Q 19.390625 75.984375 28.609375 75.984375
z
" id="DejaVuSans-102"/>
      <path d="M 19.671875 64.796875
L 19.671875 37.40625
L 32.078125 37.40625
Q 38.96875 37.40625 42.71875 40.96875
Q 46.484375 44.53125 46.484375 51.125
Q 46.484375 57.671875 42.71875 61.234375
Q 38.96875 64.796875 32.078125 64.796875
z
M 9.8125 72.90625
L 32.078125 72.90625
Q 44.34375 72.90625 50.609375 67.359375
Q 56.890625 61.8125 56.890625 51.125
Q 56.890625 40.328125 50.609375 34.8125
Q 44.34375 29.296875 32.078125 29.296875
L 19.671875 29.296875
L 19.671875 0
L 9.8125 0
z
" id="DejaVuSans-80"/>
      <path d="M 41.109375 46.296875
Q 39.59375 47.171875 37.8125 47.578125
Q 36.03125 48 33.890625 48
Q 26.265625 48 22.1875 43.046875
Q 18.109375 38.09375 18.109375 28.8125
L 18.109375 0
L 9.078125 0
L 9.078125 54.6875
L 18.109375 54.6875
L 18.109375 46.1875
Q 20.953125 51.171875 25.484375 53.578125
Q 30.03125 56 36.53125 56
Q 37.453125 56 38.578125 55.875
Q 39.703125 55.765625 41.0625 55.515625
z
" id="DejaVuSans-114"/>
      <path d="M 56.203125 29.59375
L 56.203125 25.203125
L 14.890625 25.203125
Q 15.484375 15.921875 20.484375 11.0625
Q 25.484375 6.203125 34.421875 6.203125
Q 39.59375 6.203125 44.453125 7.46875
Q 49.3125 8.734375 54.109375 11.28125
L 54.109375 2.78125
Q 49.265625 0.734375 44.1875 -0.34375
Q 39.109375 -1.421875 33.890625 -1.421875
Q 20.796875 -1.421875 13.15625 6.1875
Q 5.515625 13.8125 5.515625 26.8125
Q 5.515625 40.234375 12.765625 48.109375
Q 20.015625 56 32.328125 56
Q 43.359375 56 49.78125 48.890625
Q 56.203125 41.796875 56.203125 29.59375
z
M 47.21875 32.234375
Q 47.125 39.59375 43.09375 43.984375
Q 39.0625 48.390625 32.421875 48.390625
Q 24.90625 48.390625 20.390625 44.140625
Q 15.875 39.890625 15.1875 32.171875
z
" id="DejaVuSans-101"/>
      <path d="M 18.109375 8.203125
L 18.109375 -20.796875
L 9.078125 -20.796875
L 9.078125 54.6875
L 18.109375 54.6875
L 18.109375 46.390625
Q 20.953125 51.265625 25.265625 53.625
Q 29.59375 56 35.59375 56
Q 45.5625 56 51.78125 48.09375
Q 58.015625 40.1875 58.015625 27.296875
Q 58.015625 14.40625 51.78125 6.484375
Q 45.5625 -1.421875 35.59375 -1.421875
Q 29.59375 -1.421875 25.265625 0.953125
Q 20.953125 3.328125 18.109375 8.203125
z
M 48.6875 27.296875
Q 48.6875 37.203125 44.609375 42.84375
Q 40.53125 48.484375 33.40625 48.484375
Q 26.265625 48.484375 22.1875 42.84375
Q 18.109375 37.203125 18.109375 27.296875
Q 18.109375 17.390625 22.1875 11.75
Q 26.265625 6.109375 33.40625 6.109375
Q 40.53125 6.109375 44.609375 11.75
Q 48.6875 17.390625 48.6875 27.296875
z
" id="DejaVuSans-112"/>
      <path d="M 9.421875 54.6875
L 18.40625 54.6875
L 18.40625 0
L 9.421875 0
z
M 9.421875 75.984375
L 18.40625 75.984375
L 18.40625 64.59375
L 9.421875 64.59375
z
" id="DejaVuSans-105"/>
      <path d="M 54.890625 33.015625
L 54.890625 0
L 45.90625 0
L 45.90625 32.71875
Q 45.90625 40.484375 42.875 44.328125
Q 39.84375 48.1875 33.796875 48.1875
Q 26.515625 48.1875 22.3125 43.546875
Q 18.109375 38.921875 18.109375 30.90625
L 18.109375 0
L 9.078125 0
L 9.078125 54.6875
L 18.109375 54.6875
L 18.109375 46.1875
Q 21.34375 51.125 25.703125 53.5625
Q 30.078125 56 35.796875 56
Q 45.21875 56 50.046875 50.171875
Q 54.890625 44.34375 54.890625 33.015625
z
" id="DejaVuSans-110"/>
      <path d="M 18.3125 70.21875
L 18.3125 54.6875
L 36.8125 54.6875
L 36.8125 47.703125
L 18.3125 47.703125
L 18.3125 18.015625
Q 18.3125 11.328125 20.140625 9.421875
Q 21.96875 7.515625 27.59375 7.515625
L 36.8125 7.515625
L 36.8125 0
L 27.59375 0
Q 17.1875 0 13.234375 3.875
Q 9.28125 7.765625 9.28125 18.015625
L 9.28125 47.703125
L 2.6875 47.703125
L 2.6875 54.6875
L 9.28125 54.6875
L 9.28125 70.21875
z
" id="DejaVuSans-116"/>
      <path d="M 28.609375 0
L 0.78125 72.90625
L 11.078125 72.90625
L 34.1875 11.53125
L 57.328125 72.90625
L 67.578125 72.90625
L 39.796875 0
z
" id="DejaVuSans-86"/>
      <path d="M 44.28125 53.078125
L 44.28125 44.578125
Q 40.484375 46.53125 36.375 47.5
Q 32.28125 48.484375 27.875 48.484375
Q 21.1875 48.484375 17.84375 46.4375
Q 14.5 44.390625 14.5 40.28125
Q 14.5 37.15625 16.890625 35.375
Q 19.28125 33.59375 26.515625 31.984375
L 29.59375 31.296875
Q 39.15625 29.25 43.1875 25.515625
Q 47.21875 21.78125 47.21875 15.09375
Q 47.21875 7.46875 41.1875 3.015625
Q 35.15625 -1.421875 24.609375 -1.421875
Q 20.21875 -1.421875 15.453125 -0.5625
Q 10.6875 0.296875 5.421875 2
L 5.421875 11.28125
Q 10.40625 8.6875 15.234375 7.390625
Q 20.0625 6.109375 24.8125 6.109375
Q 31.15625 6.109375 34.5625 8.28125
Q 37.984375 10.453125 37.984375 14.40625
Q 37.984375 18.0625 35.515625 20.015625
Q 33.0625 21.96875 24.703125 23.78125
L 21.578125 24.515625
Q 13.234375 26.265625 9.515625 29.90625
Q 5.8125 33.546875 5.8125 39.890625
Q 5.8125 47.609375 11.28125 51.796875
Q 16.75 56 26.8125 56
Q 31.78125 56 36.171875 55.265625
Q 40.578125 54.546875 44.28125 53.078125
z
" id="DejaVuSans-115"/>
     </defs>
     <g transform="translate(284.807188 584.508438)scale(0.22 -0.22)">
      <use xlink:href="#DejaVuSans-35"/>
      <use x="83.789062" xlink:href="#DejaVuSans-32"/>
      <use x="115.576172" xlink:href="#DejaVuSans-111"/>
      <use x="176.757812" xlink:href="#DejaVuSans-102"/>
      <use x="211.962891" xlink:href="#DejaVuSans-32"/>
      <use x="243.75" xlink:href="#DejaVuSans-80"/>
      <use x="304.037109" xlink:href="#DejaVuSans-114"/>
      <use x="345.119141" xlink:href="#DejaVuSans-101"/>
      <use x="406.642578" xlink:href="#DejaVuSans-112"/>
      <use x="470.119141" xlink:href="#DejaVuSans-114"/>
      <use x="511.232422" xlink:href="#DejaVuSans-105"/>
      <use x="539.015625" xlink:href="#DejaVuSans-110"/>
      <use x="602.394531" xlink:href="#DejaVuSans-116"/>
      <use x="641.603516" xlink:href="#DejaVuSans-32"/>
      <use x="673.390625" xlink:href="#DejaVuSans-86"/>
      <use x="741.689453" xlink:href="#DejaVuSans-101"/>
      <use x="803.212891" xlink:href="#DejaVuSans-114"/>
      <use x="844.326172" xlink:href="#DejaVuSans-115"/>
      <use x="896.425781" xlink:href="#DejaVuSans-105"/>
      <use x="924.208984" xlink:href="#DejaVuSans-111"/>
      <use x="985.390625" xlink:href="#DejaVuSans-110"/>
      <use x="1048.769531" xlink:href="#DejaVuSans-115"/>
     </g>
    </g>
   </g>
   <g id="matplotlib.axis_2">
    <g id="ytick_1">
     <g id="line2d_13">
      <defs>
       <path d="M 0 0
L -3.5 0
" id="mce37c0a071" style="stroke:#000000;stroke-width:0.8;"/>
      </defs>
      <g>
       <use style="stroke:#000000;stroke-width:0.8;" x="99" xlink:href="#mce37c0a071" y="535.5"/>
      </g>
     </g>
     <g id="text_14">
      <!-- 0 -->
      <g transform="translate(78.0025 543.858281)scale(0.22 -0.22)">
       <use xlink:href="#DejaVuSans-48"/>
      </g>
     </g>
    </g>
    <g id="ytick_2">
     <g id="line2d_14">
      <g>
       <use style="stroke:#000000;stroke-width:0.8;" x="99" xlink:href="#mce37c0a071" y="483.422232"/>
      </g>
     </g>
     <g id="text_15">
      <!-- 200 -->
      <g transform="translate(50.0075 491.780513)scale(0.22 -0.22)">
       <use xlink:href="#DejaVuSans-50"/>
       <use x="63.623047" xlink:href="#DejaVuSans-48"/>
       <use x="127.246094" xlink:href="#DejaVuSans-48"/>
      </g>
     </g>
    </g>
    <g id="ytick_3">
     <g id="line2d_15">
      <g>
       <use style="stroke:#000000;stroke-width:0.8;" x="99" xlink:href="#mce37c0a071" y="431.344463"/>
      </g>
     </g>
     <g id="text_16">
      <!-- 400 -->
      <g transform="translate(50.0075 439.702744)scale(0.22 -0.22)">
       <use xlink:href="#DejaVuSans-52"/>
       <use x="63.623047" xlink:href="#DejaVuSans-48"/>
       <use x="127.246094" xlink:href="#DejaVuSans-48"/>
      </g>
     </g>
    </g>
    <g id="ytick_4">
     <g id="line2d_16">
      <g>
       <use style="stroke:#000000;stroke-width:0.8;" x="99" xlink:href="#mce37c0a071" y="379.266695"/>
      </g>
     </g>
     <g id="text_17">
      <!-- 600 -->
      <g transform="translate(50.0075 387.624976)scale(0.22 -0.22)">
       <use xlink:href="#DejaVuSans-54"/>
       <use x="63.623047" xlink:href="#DejaVuSans-48"/>
       <use x="127.246094" xlink:href="#DejaVuSans-48"/>
      </g>
     </g>
    </g>
    <g id="ytick_5">
     <g id="line2d_17">
      <g>
       <use style="stroke:#000000;stroke-width:0.8;" x="99" xlink:href="#mce37c0a071" y="327.188926"/>
      </g>
     </g>
     <g id="text_18">
      <!-- 800 -->
      <g transform="translate(50.0075 335.547208)scale(0.22 -0.22)">
       <use xlink:href="#DejaVuSans-56"/>
       <use x="63.623047" xlink:href="#DejaVuSans-48"/>
       <use x="127.246094" xlink:href="#DejaVuSans-48"/>
      </g>
     </g>
    </g>
    <g id="ytick_6">
     <g id="line2d_18">
      <g>
       <use style="stroke:#000000;stroke-width:0.8;" x="99" xlink:href="#mce37c0a071" y="275.111158"/>
      </g>
     </g>
     <g id="text_19">
      <!-- 1000 -->
      <g transform="translate(36.01 283.469439)scale(0.22 -0.22)">
       <use xlink:href="#DejaVuSans-49"/>
       <use x="63.623047" xlink:href="#DejaVuSans-48"/>
       <use x="127.246094" xlink:href="#DejaVuSans-48"/>
       <use x="190.869141" xlink:href="#DejaVuSans-48"/>
      </g>
     </g>
    </g>
    <g id="ytick_7">
     <g id="line2d_19">
      <g>
       <use style="stroke:#000000;stroke-width:0.8;" x="99" xlink:href="#mce37c0a071" y="223.03339"/>
      </g>
     </g>
     <g id="text_20">
      <!-- 1200 -->
      <g transform="translate(36.01 231.391671)scale(0.22 -0.22)">
       <use xlink:href="#DejaVuSans-49"/>
       <use x="63.623047" xlink:href="#DejaVuSans-50"/>
       <use x="127.246094" xlink:href="#DejaVuSans-48"/>
       <use x="190.869141" xlink:href="#DejaVuSans-48"/>
      </g>
     </g>
    </g>
    <g id="ytick_8">
     <g id="line2d_20">
      <g>
       <use style="stroke:#000000;stroke-width:0.8;" x="99" xlink:href="#mce37c0a071" y="170.955621"/>
      </g>
     </g>
     <g id="text_21">
      <!-- 1400 -->
      <g transform="translate(36.01 179.313903)scale(0.22 -0.22)">
       <use xlink:href="#DejaVuSans-49"/>
       <use x="63.623047" xlink:href="#DejaVuSans-52"/>
       <use x="127.246094" xlink:href="#DejaVuSans-48"/>
       <use x="190.869141" xlink:href="#DejaVuSans-48"/>
      </g>
     </g>
    </g>
    <g id="ytick_9">
     <g id="line2d_21">
      <g>
       <use style="stroke:#000000;stroke-width:0.8;" x="99" xlink:href="#mce37c0a071" y="118.877853"/>
      </g>
     </g>
     <g id="text_22">
      <!-- 1600 -->
      <g transform="translate(36.01 127.236134)scale(0.22 -0.22)">
       <use xlink:href="#DejaVuSans-49"/>
       <use x="63.623047" xlink:href="#DejaVuSans-54"/>
       <use x="127.246094" xlink:href="#DejaVuSans-48"/>
       <use x="190.869141" xlink:href="#DejaVuSans-48"/>
      </g>
     </g>
    </g>
    <g id="text_23">
     <!-- Time Elapsed Until Preprint is Published (Days) -->
     <defs>
      <path d="M -0.296875 72.90625
L 61.375 72.90625
L 61.375 64.59375
L 35.5 64.59375
L 35.5 0
L 25.59375 0
L 25.59375 64.59375
L -0.296875 64.59375
z
" id="DejaVuSans-84"/>
      <path d="M 52 44.1875
Q 55.375 50.25 60.0625 53.125
Q 64.75 56 71.09375 56
Q 79.640625 56 84.28125 50.015625
Q 88.921875 44.046875 88.921875 33.015625
L 88.921875 0
L 79.890625 0
L 79.890625 32.71875
Q 79.890625 40.578125 77.09375 44.375
Q 74.3125 48.1875 68.609375 48.1875
Q 61.625 48.1875 57.5625 43.546875
Q 53.515625 38.921875 53.515625 30.90625
L 53.515625 0
L 44.484375 0
L 44.484375 32.71875
Q 44.484375 40.625 41.703125 44.40625
Q 38.921875 48.1875 33.109375 48.1875
Q 26.21875 48.1875 22.15625 43.53125
Q 18.109375 38.875 18.109375 30.90625
L 18.109375 0
L 9.078125 0
L 9.078125 54.6875
L 18.109375 54.6875
L 18.109375 46.1875
Q 21.1875 51.21875 25.484375 53.609375
Q 29.78125 56 35.6875 56
Q 41.65625 56 45.828125 52.96875
Q 50 49.953125 52 44.1875
z
" id="DejaVuSans-109"/>
      <path d="M 9.8125 72.90625
L 55.90625 72.90625
L 55.90625 64.59375
L 19.671875 64.59375
L 19.671875 43.015625
L 54.390625 43.015625
L 54.390625 34.71875
L 19.671875 34.71875
L 19.671875 8.296875
L 56.78125 8.296875
L 56.78125 0
L 9.8125 0
z
" id="DejaVuSans-69"/>
      <path d="M 9.421875 75.984375
L 18.40625 75.984375
L 18.40625 0
L 9.421875 0
z
" id="DejaVuSans-108"/>
      <path d="M 34.28125 27.484375
Q 23.390625 27.484375 19.1875 25
Q 14.984375 22.515625 14.984375 16.5
Q 14.984375 11.71875 18.140625 8.90625
Q 21.296875 6.109375 26.703125 6.109375
Q 34.1875 6.109375 38.703125 11.40625
Q 43.21875 16.703125 43.21875 25.484375
L 43.21875 27.484375
z
M 52.203125 31.203125
L 52.203125 0
L 43.21875 0
L 43.21875 8.296875
Q 40.140625 3.328125 35.546875 0.953125
Q 30.953125 -1.421875 24.3125 -1.421875
Q 15.921875 -1.421875 10.953125 3.296875
Q 6 8.015625 6 15.921875
Q 6 25.140625 12.171875 29.828125
Q 18.359375 34.515625 30.609375 34.515625
L 43.21875 34.515625
L 43.21875 35.40625
Q 43.21875 41.609375 39.140625 45
Q 35.0625 48.390625 27.6875 48.390625
Q 23 48.390625 18.546875 47.265625
Q 14.109375 46.140625 10.015625 43.890625
L 10.015625 52.203125
Q 14.9375 54.109375 19.578125 55.046875
Q 24.21875 56 28.609375 56
Q 40.484375 56 46.34375 49.84375
Q 52.203125 43.703125 52.203125 31.203125
z
" id="DejaVuSans-97"/>
      <path d="M 45.40625 46.390625
L 45.40625 75.984375
L 54.390625 75.984375
L 54.390625 0
L 45.40625 0
L 45.40625 8.203125
Q 42.578125 3.328125 38.25 0.953125
Q 33.9375 -1.421875 27.875 -1.421875
Q 17.96875 -1.421875 11.734375 6.484375
Q 5.515625 14.40625 5.515625 27.296875
Q 5.515625 40.1875 11.734375 48.09375
Q 17.96875 56 27.875 56
Q 33.9375 56 38.25 53.625
Q 42.578125 51.265625 45.40625 46.390625
z
M 14.796875 27.296875
Q 14.796875 17.390625 18.875 11.75
Q 22.953125 6.109375 30.078125 6.109375
Q 37.203125 6.109375 41.296875 11.75
Q 45.40625 17.390625 45.40625 27.296875
Q 45.40625 37.203125 41.296875 42.84375
Q 37.203125 48.484375 30.078125 48.484375
Q 22.953125 48.484375 18.875 42.84375
Q 14.796875 37.203125 14.796875 27.296875
z
" id="DejaVuSans-100"/>
      <path d="M 8.6875 72.90625
L 18.609375 72.90625
L 18.609375 28.609375
Q 18.609375 16.890625 22.84375 11.734375
Q 27.09375 6.59375 36.625 6.59375
Q 46.09375 6.59375 50.34375 11.734375
Q 54.59375 16.890625 54.59375 28.609375
L 54.59375 72.90625
L 64.5 72.90625
L 64.5 27.390625
Q 64.5 13.140625 57.4375 5.859375
Q 50.390625 -1.421875 36.625 -1.421875
Q 22.796875 -1.421875 15.734375 5.859375
Q 8.6875 13.140625 8.6875 27.390625
z
" id="DejaVuSans-85"/>
      <path d="M 8.5 21.578125
L 8.5 54.6875
L 17.484375 54.6875
L 17.484375 21.921875
Q 17.484375 14.15625 20.5 10.265625
Q 23.53125 6.390625 29.59375 6.390625
Q 36.859375 6.390625 41.078125 11.03125
Q 45.3125 15.671875 45.3125 23.6875
L 45.3125 54.6875
L 54.296875 54.6875
L 54.296875 0
L 45.3125 0
L 45.3125 8.40625
Q 42.046875 3.421875 37.71875 1
Q 33.40625 -1.421875 27.6875 -1.421875
Q 18.265625 -1.421875 13.375 4.4375
Q 8.5 10.296875 8.5 21.578125
z
M 31.109375 56
z
" id="DejaVuSans-117"/>
      <path d="M 48.6875 27.296875
Q 48.6875 37.203125 44.609375 42.84375
Q 40.53125 48.484375 33.40625 48.484375
Q 26.265625 48.484375 22.1875 42.84375
Q 18.109375 37.203125 18.109375 27.296875
Q 18.109375 17.390625 22.1875 11.75
Q 26.265625 6.109375 33.40625 6.109375
Q 40.53125 6.109375 44.609375 11.75
Q 48.6875 17.390625 48.6875 27.296875
z
M 18.109375 46.390625
Q 20.953125 51.265625 25.265625 53.625
Q 29.59375 56 35.59375 56
Q 45.5625 56 51.78125 48.09375
Q 58.015625 40.1875 58.015625 27.296875
Q 58.015625 14.40625 51.78125 6.484375
Q 45.5625 -1.421875 35.59375 -1.421875
Q 29.59375 -1.421875 25.265625 0.953125
Q 20.953125 3.328125 18.109375 8.203125
L 18.109375 0
L 9.078125 0
L 9.078125 75.984375
L 18.109375 75.984375
z
" id="DejaVuSans-98"/>
      <path d="M 54.890625 33.015625
L 54.890625 0
L 45.90625 0
L 45.90625 32.71875
Q 45.90625 40.484375 42.875 44.328125
Q 39.84375 48.1875 33.796875 48.1875
Q 26.515625 48.1875 22.3125 43.546875
Q 18.109375 38.921875 18.109375 30.90625
L 18.109375 0
L 9.078125 0
L 9.078125 75.984375
L 18.109375 75.984375
L 18.109375 46.1875
Q 21.34375 51.125 25.703125 53.5625
Q 30.078125 56 35.796875 56
Q 45.21875 56 50.046875 50.171875
Q 54.890625 44.34375 54.890625 33.015625
z
" id="DejaVuSans-104"/>
      <path d="M 31 75.875
Q 24.46875 64.65625 21.28125 53.65625
Q 18.109375 42.671875 18.109375 31.390625
Q 18.109375 20.125 21.3125 9.0625
Q 24.515625 -2 31 -13.1875
L 23.1875 -13.1875
Q 15.875 -1.703125 12.234375 9.375
Q 8.59375 20.453125 8.59375 31.390625
Q 8.59375 42.28125 12.203125 53.3125
Q 15.828125 64.359375 23.1875 75.875
z
" id="DejaVuSans-40"/>
      <path d="M 19.671875 64.796875
L 19.671875 8.109375
L 31.59375 8.109375
Q 46.6875 8.109375 53.6875 14.9375
Q 60.6875 21.78125 60.6875 36.53125
Q 60.6875 51.171875 53.6875 57.984375
Q 46.6875 64.796875 31.59375 64.796875
z
M 9.8125 72.90625
L 30.078125 72.90625
Q 51.265625 72.90625 61.171875 64.09375
Q 71.09375 55.28125 71.09375 36.53125
Q 71.09375 17.671875 61.125 8.828125
Q 51.171875 0 30.078125 0
L 9.8125 0
z
" id="DejaVuSans-68"/>
      <path d="M 32.171875 -5.078125
Q 28.375 -14.84375 24.75 -17.8125
Q 21.140625 -20.796875 15.09375 -20.796875
L 7.90625 -20.796875
L 7.90625 -13.28125
L 13.1875 -13.28125
Q 16.890625 -13.28125 18.9375 -11.515625
Q 21 -9.765625 23.484375 -3.21875
L 25.09375 0.875
L 2.984375 54.6875
L 12.5 54.6875
L 29.59375 11.921875
L 46.6875 54.6875
L 56.203125 54.6875
z
" id="DejaVuSans-121"/>
      <path d="M 8.015625 75.875
L 15.828125 75.875
Q 23.140625 64.359375 26.78125 53.3125
Q 30.421875 42.28125 30.421875 31.390625
Q 30.421875 20.453125 26.78125 9.375
Q 23.140625 -1.703125 15.828125 -13.1875
L 8.015625 -13.1875
Q 14.5 -2 17.703125 9.0625
Q 20.90625 20.125 20.90625 31.390625
Q 20.90625 42.671875 17.703125 53.65625
Q 14.5 64.65625 8.015625 75.875
z
" id="DejaVuSans-41"/>
     </defs>
     <g transform="translate(27.434687 563.092031)rotate(-90)scale(0.22 -0.22)">
      <use xlink:href="#DejaVuSans-84"/>
      <use x="61.037109" xlink:href="#DejaVuSans-105"/>
      <use x="88.820312" xlink:href="#DejaVuSans-109"/>
      <use x="186.232422" xlink:href="#DejaVuSans-101"/>
      <use x="247.755859" xlink:href="#DejaVuSans-32"/>
      <use x="279.542969" xlink:href="#DejaVuSans-69"/>
      <use x="342.726562" xlink:href="#DejaVuSans-108"/>
      <use x="370.509766" xlink:href="#DejaVuSans-97"/>
      <use x="431.789062" xlink:href="#DejaVuSans-112"/>
      <use x="495.265625" xlink:href="#DejaVuSans-115"/>
      <use x="547.365234" xlink:href="#DejaVuSans-101"/>
      <use x="608.888672" xlink:href="#DejaVuSans-100"/>
      <use x="672.365234" xlink:href="#DejaVuSans-32"/>
      <use x="704.152344" xlink:href="#DejaVuSans-85"/>
      <use x="777.345703" xlink:href="#DejaVuSans-110"/>
      <use x="840.724609" xlink:href="#DejaVuSans-116"/>
      <use x="879.933594" xlink:href="#DejaVuSans-105"/>
      <use x="907.716797" xlink:href="#DejaVuSans-108"/>
      <use x="935.5" xlink:href="#DejaVuSans-32"/>
      <use x="967.287109" xlink:href="#DejaVuSans-80"/>
      <use x="1027.574219" xlink:href="#DejaVuSans-114"/>
      <use x="1068.65625" xlink:href="#DejaVuSans-101"/>
      <use x="1130.179688" xlink:href="#DejaVuSans-112"/>
      <use x="1193.65625" xlink:href="#DejaVuSans-114"/>
      <use x="1234.769531" xlink:href="#DejaVuSans-105"/>
      <use x="1262.552734" xlink:href="#DejaVuSans-110"/>
      <use x="1325.931641" xlink:href="#DejaVuSans-116"/>
      <use x="1365.140625" xlink:href="#DejaVuSans-32"/>
      <use x="1396.927734" xlink:href="#DejaVuSans-105"/>
      <use x="1424.710938" xlink:href="#DejaVuSans-115"/>
      <use x="1476.810547" xlink:href="#DejaVuSans-32"/>
      <use x="1508.597656" xlink:href="#DejaVuSans-80"/>
      <use x="1568.884766" xlink:href="#DejaVuSans-117"/>
      <use x="1632.263672" xlink:href="#DejaVuSans-98"/>
      <use x="1695.740234" xlink:href="#DejaVuSans-108"/>
      <use x="1723.523438" xlink:href="#DejaVuSans-105"/>
      <use x="1751.306641" xlink:href="#DejaVuSans-115"/>
      <use x="1803.40625" xlink:href="#DejaVuSans-104"/>
      <use x="1866.785156" xlink:href="#DejaVuSans-101"/>
      <use x="1928.308594" xlink:href="#DejaVuSans-100"/>
      <use x="1991.785156" xlink:href="#DejaVuSans-32"/>
      <use x="2023.572266" xlink:href="#DejaVuSans-40"/>
      <use x="2062.585938" xlink:href="#DejaVuSans-68"/>
      <use x="2139.587891" xlink:href="#DejaVuSans-97"/>
      <use x="2200.867188" xlink:href="#DejaVuSans-121"/>
      <use x="2260.046875" xlink:href="#DejaVuSans-115"/>
      <use x="2312.146484" xlink:href="#DejaVuSans-41"/>
     </g>
    </g>
   </g>
   <g id="line2d_22">
    <path clip-path="url(#p48dad2eff7)" d="M 124.575 535.5
L 124.575 424.053576
" style="fill:none;stroke:#2d2d2d;stroke-linecap:square;stroke-width:1.5;"/>
   </g>
   <g id="line2d_23">
    <path clip-path="url(#p48dad2eff7)" d="M 124.575 508.679949
L 124.575 474.8294
" style="fill:none;stroke:#2d2d2d;stroke-linecap:square;stroke-width:4.5;"/>
   </g>
   <g id="line2d_24">
    <path clip-path="url(#p48dad2eff7)" d="M 175.725 534.979222
L 175.725 394.369248
" style="fill:none;stroke:#2d2d2d;stroke-linecap:square;stroke-width:1.5;"/>
   </g>
   <g id="line2d_25">
    <path clip-path="url(#p48dad2eff7)" d="M 175.725 499.305951
L 175.725 457.122959
" style="fill:none;stroke:#2d2d2d;stroke-linecap:square;stroke-width:4.5;"/>
   </g>
   <g id="line2d_26">
    <path clip-path="url(#p48dad2eff7)" d="M 226.875 531.07339
L 226.875 372.496585
" style="fill:none;stroke:#2d2d2d;stroke-linecap:square;stroke-width:1.5;"/>
   </g>
   <g id="line2d_27">
    <path clip-path="url(#p48dad2eff7)" d="M 226.875 489.150786
L 226.875 442.280795
" style="fill:none;stroke:#2d2d2d;stroke-linecap:square;stroke-width:4.5;"/>
   </g>
   <g id="line2d_28">
    <path clip-path="url(#p48dad2eff7)" d="M 278.025 530.031834
L 278.025 345.936923
" style="fill:none;stroke:#2d2d2d;stroke-linecap:square;stroke-width:1.5;"/>
   </g>
   <g id="line2d_29">
    <path clip-path="url(#p48dad2eff7)" d="M 278.025 480.557954
L 278.025 424.118673
" style="fill:none;stroke:#2d2d2d;stroke-linecap:square;stroke-width:4.5;"/>
   </g>
   <g id="line2d_30">
    <path clip-path="url(#p48dad2eff7)" d="M 329.175 519.355892
L 329.175 348.280423
" style="fill:none;stroke:#2d2d2d;stroke-linecap:square;stroke-width:1.5;"/>
   </g>
   <g id="line2d_31">
    <path clip-path="url(#p48dad2eff7)" d="M 329.175 475.545469
L 329.175 419.04109
" style="fill:none;stroke:#2d2d2d;stroke-linecap:square;stroke-width:4.5;"/>
   </g>
   <g id="line2d_32">
    <path clip-path="url(#p48dad2eff7)" d="M 380.325 501.389062
L 380.325 278.496213
" style="fill:none;stroke:#2d2d2d;stroke-linecap:square;stroke-width:1.5;"/>
   </g>
   <g id="line2d_33">
    <path clip-path="url(#p48dad2eff7)" d="M 380.325 461.158986
L 380.325 384.474472
" style="fill:none;stroke:#2d2d2d;stroke-linecap:square;stroke-width:4.5;"/>
   </g>
   <g id="line2d_34">
    <path clip-path="url(#p48dad2eff7)" d="M 431.475 448.790516
L 431.475 429.000964
" style="fill:none;stroke:#2d2d2d;stroke-linecap:square;stroke-width:1.5;"/>
   </g>
   <g id="line2d_35">
    <path clip-path="url(#p48dad2eff7)" d="M 431.475 448.790516
L 431.475 440.718462
" style="fill:none;stroke:#2d2d2d;stroke-linecap:square;stroke-width:4.5;"/>
   </g>
   <g id="line2d_36">
    <path clip-path="url(#p48dad2eff7)" d="M 482.625 503.211784
L 482.625 268.601437
" style="fill:none;stroke:#2d2d2d;stroke-linecap:square;stroke-width:1.5;"/>
   </g>
   <g id="line2d_37">
    <path clip-path="url(#p48dad2eff7)" d="M 482.625 417.478757
L 482.625 318.400803
" style="fill:none;stroke:#2d2d2d;stroke-linecap:square;stroke-width:4.5;"/>
   </g>
   <g id="line2d_38">
    <path clip-path="url(#p48dad2eff7)" d="M 533.775 486.286509
L 533.775 363.122587
" style="fill:none;stroke:#2d2d2d;stroke-linecap:square;stroke-width:1.5;"/>
   </g>
   <g id="line2d_39">
    <path clip-path="url(#p48dad2eff7)" d="M 533.775 455.495528
L 533.775 393.913567
" style="fill:none;stroke:#2d2d2d;stroke-linecap:square;stroke-width:4.5;"/>
   </g>
   <g id="line2d_40">
    <path clip-path="url(#p48dad2eff7)" d="M 564.465 331.875926
L 605.385 331.875926
" style="fill:none;stroke:#2d2d2d;stroke-linecap:square;stroke-width:1.5;"/>
   </g>
   <g id="line2d_41">
    <path clip-path="url(#p48dad2eff7)" d="M 636.075 464.413846
L 636.075 351.405089
" style="fill:none;stroke:#2d2d2d;stroke-linecap:square;stroke-width:1.5;"/>
   </g>
   <g id="line2d_42">
    <path clip-path="url(#p48dad2eff7)" d="M 636.075 436.161657
L 636.075 379.657278
" style="fill:none;stroke:#2d2d2d;stroke-linecap:square;stroke-width:4.5;"/>
   </g>
   <g id="line2d_43">
    <path clip-path="url(#p48dad2eff7)" d="M 666.765 353.227811
L 707.685 353.227811
" style="fill:none;stroke:#2d2d2d;stroke-linecap:square;stroke-width:1.5;"/>
   </g>
   <g id="line2d_44">
    <path clip-path="url(#p48dad2eff7)" d="M 124.575 487.534375
L 687.225 342.392622
" style="fill:none;stroke:#000000;stroke-dasharray:5.55,2.4;stroke-dashoffset:0;stroke-width:1.5;"/>
   </g>
   <g id="patch_3">
    <path d="M 99 535.5
L 99 73.44
" style="fill:none;stroke:#000000;stroke-linecap:square;stroke-linejoin:miter;stroke-width:0.8;"/>
   </g>
   <g id="patch_4">
    <path d="M 712.8 535.5
L 712.8 73.44
" style="fill:none;stroke:#000000;stroke-linecap:square;stroke-linejoin:miter;stroke-width:0.8;"/>
   </g>
   <g id="patch_5">
    <path d="M 99 535.5
L 712.8 535.5
" style="fill:none;stroke:#000000;stroke-linecap:square;stroke-linejoin:miter;stroke-width:0.8;"/>
   </g>
   <g id="patch_6">
    <path d="M 99 73.44
L 712.8 73.44
" style="fill:none;stroke:#000000;stroke-linecap:square;stroke-linejoin:miter;stroke-width:0.8;"/>
   </g>
   <g id="PathCollection_1">
    <defs>
     <path d="M 0 1.5
C 0.397805 1.5 0.77937 1.341951 1.06066 1.06066
C 1.341951 0.77937 1.5 0.397805 1.5 0
C 1.5 -0.397805 1.341951 -0.77937 1.06066 -1.06066
C 0.77937 -1.341951 0.397805 -1.5 0 -1.5
C -0.397805 -1.5 -0.77937 -1.341951 -1.06066 -1.06066
C -1.341951 -0.77937 -1.5 -0.397805 -1.5 0
C -1.5 0.397805 -1.341951 0.77937 -1.06066 1.06066
C -0.77937 1.341951 -0.397805 1.5 0 1.5
z
" id="m20d4657a7f" style="stroke:#2d2d2d;"/>
    </defs>
    <g clip-path="url(#p48dad2eff7)">
     <use style="fill:#ffffff;stroke:#2d2d2d;" x="124.575" xlink:href="#m20d4657a7f" y="493.837785"/>
    </g>
   </g>
   <g id="PathCollection_2">
    <g clip-path="url(#p48dad2eff7)">
     <use style="fill:#ffffff;stroke:#2d2d2d;" x="175.725" xlink:href="#m20d4657a7f" y="481.339121"/>
    </g>
   </g>
   <g id="PathCollection_3">
    <g clip-path="url(#p48dad2eff7)">
     <use style="fill:#ffffff;stroke:#2d2d2d;" x="226.875" xlink:href="#m20d4657a7f" y="469.100845"/>
    </g>
   </g>
   <g id="PathCollection_4">
    <g clip-path="url(#p48dad2eff7)">
     <use style="fill:#ffffff;stroke:#2d2d2d;" x="278.025" xlink:href="#m20d4657a7f" y="459.336264"/>
    </g>
   </g>
   <g id="PathCollection_5">
    <g clip-path="url(#p48dad2eff7)">
     <use style="fill:#ffffff;stroke:#2d2d2d;" x="329.175" xlink:href="#m20d4657a7f" y="451.784987"/>
    </g>
   </g>
   <g id="PathCollection_6">
    <g clip-path="url(#p48dad2eff7)">
     <use style="fill:#ffffff;stroke:#2d2d2d;" x="380.325" xlink:href="#m20d4657a7f" y="427.959408"/>
    </g>
   </g>
   <g id="PathCollection_7">
    <g clip-path="url(#p48dad2eff7)">
     <use style="fill:#ffffff;stroke:#2d2d2d;" x="431.475" xlink:href="#m20d4657a7f" y="447.74896"/>
    </g>
   </g>
   <g id="PathCollection_8">
    <g clip-path="url(#p48dad2eff7)">
     <use style="fill:#ffffff;stroke:#2d2d2d;" x="482.625" xlink:href="#m20d4657a7f" y="361.950837"/>
    </g>
   </g>
   <g id="PathCollection_9">
    <g clip-path="url(#p48dad2eff7)">
     <use style="fill:#ffffff;stroke:#2d2d2d;" x="533.775" xlink:href="#m20d4657a7f" y="424.704548"/>
    </g>
   </g>
   <g id="PathCollection_10">
    <g clip-path="url(#p48dad2eff7)">
     <use style="fill:#ffffff;stroke:#2d2d2d;" x="636.075" xlink:href="#m20d4657a7f" y="407.909467"/>
    </g>
   </g>
   <g id="text_24">
    <!-- Y=50.67*X+133.53 -->
    <defs>
     <path d="M -0.203125 72.90625
L 10.40625 72.90625
L 30.609375 42.921875
L 50.6875 72.90625
L 61.28125 72.90625
L 35.5 34.71875
L 35.5 0
L 25.59375 0
L 25.59375 34.71875
z
" id="DejaVuSans-89"/>
     <path d="M 10.59375 45.40625
L 73.1875 45.40625
L 73.1875 37.203125
L 10.59375 37.203125
z
M 10.59375 25.484375
L 73.1875 25.484375
L 73.1875 17.1875
L 10.59375 17.1875
z
" id="DejaVuSans-61"/>
     <path d="M 10.6875 12.40625
L 21 12.40625
L 21 0
L 10.6875 0
z
" id="DejaVuSans-46"/>
     <path d="M 47.015625 60.890625
L 29.5 51.421875
L 47.015625 41.890625
L 44.1875 37.109375
L 27.78125 47.015625
L 27.78125 28.609375
L 22.21875 28.609375
L 22.21875 47.015625
L 5.8125 37.109375
L 2.984375 41.890625
L 20.515625 51.421875
L 2.984375 60.890625
L 5.8125 65.71875
L 22.21875 55.8125
L 22.21875 74.21875
L 27.78125 74.21875
L 27.78125 55.8125
L 44.1875 65.71875
z
" id="DejaVuSans-42"/>
     <path d="M 6.296875 72.90625
L 16.890625 72.90625
L 35.015625 45.796875
L 53.21875 72.90625
L 63.8125 72.90625
L 40.375 37.890625
L 65.375 0
L 54.78125 0
L 34.28125 31
L 13.625 0
L 2.984375 0
L 29 38.921875
z
" id="DejaVuSans-88"/>
     <path d="M 46 62.703125
L 46 35.5
L 73.1875 35.5
L 73.1875 27.203125
L 46 27.203125
L 46 0
L 37.796875 0
L 37.796875 27.203125
L 10.59375 27.203125
L 10.59375 35.5
L 37.796875 35.5
L 37.796875 62.703125
z
" id="DejaVuSans-43"/>
    </defs>
    <g transform="translate(482.625 152.728402)scale(0.22 -0.22)">
     <use xlink:href="#DejaVuSans-89"/>
     <use x="61.083984" xlink:href="#DejaVuSans-61"/>
     <use x="144.873047" xlink:href="#DejaVuSans-53"/>
     <use x="208.496094" xlink:href="#DejaVuSans-48"/>
     <use x="272.119141" xlink:href="#DejaVuSans-46"/>
     <use x="303.90625" xlink:href="#DejaVuSans-54"/>
     <use x="367.529297" xlink:href="#DejaVuSans-55"/>
     <use x="431.152344" xlink:href="#DejaVuSans-42"/>
     <use x="481.152344" xlink:href="#DejaVuSans-88"/>
     <use x="549.658203" xlink:href="#DejaVuSans-43"/>
     <use x="633.447266" xlink:href="#DejaVuSans-49"/>
     <use x="697.070312" xlink:href="#DejaVuSans-51"/>
     <use x="760.693359" xlink:href="#DejaVuSans-51"/>
     <use x="824.316406" xlink:href="#DejaVuSans-46"/>
     <use x="856.103516" xlink:href="#DejaVuSans-53"/>
     <use x="919.726562" xlink:href="#DejaVuSans-51"/>
    </g>
   </g>
  </g>
 </g>
 <defs>
  <clipPath id="p48dad2eff7">
   <rect height="462.06" width="613.8" x="99" y="73.44"/>
  </clipPath>
 </defs>
</svg>
