<?xml version="1.0" encoding="utf-8" standalone="no"?>
<!DOCTYPE svg PUBLIC "-//W3C//DTD SVG 1.1//EN"
  "http://www.w3.org/Graphics/SVG/1.1/DTD/svg11.dtd">
<!-- Created with matplotlib (https://matplotlib.org/) -->
<svg height="520.083125pt" version="1.1" viewBox="0 0 714.103125 520.083125" width="714.103125pt" xmlns="http://www.w3.org/2000/svg" xmlns:xlink="http://www.w3.org/1999/xlink">
 <defs>
  <style type="text/css">
*{stroke-linecap:butt;stroke-linejoin:round;}
  </style>
 </defs>
 <g id="figure_1">
  <g id="patch_1">
   <path d="M 0 520.083125
L 714.103125 520.083125
L 714.103125 0
L 0 0
z
" style="fill:#ffffff;"/>
  </g>
  <g id="axes_1">
   <g id="patch_2">
    <path d="M 93.103125 478.44
L 706.903125 478.44
L 706.903125 7.2
L 93.103125 7.2
z
" style="fill:#ffffff;"/>
   </g>
   <g id="matplotlib.axis_1">
    <g id="xtick_1">
     <g id="line2d_1">
      <defs>
       <path d="M 0 0
L 0 4.8
" id="m3d66593191" style="stroke:#262626;"/>
      </defs>
      <g>
       <use style="fill:#262626;stroke:#262626;" x="146.366761" xlink:href="#m3d66593191" y="478.44"/>
      </g>
     </g>
     <g id="text_1">
      <!-- −10 -->
      <defs>
       <path d="M 52.828125 31.203125
L 5.5625 31.203125
L 5.5625 39.40625
L 52.828125 39.40625
z
" id="ArialMT-8722"/>
       <path d="M 37.25 0
L 28.46875 0
L 28.46875 56
Q 25.296875 52.984375 20.140625 49.953125
Q 14.984375 46.921875 10.890625 45.40625
L 10.890625 53.90625
Q 18.265625 57.375 23.78125 62.296875
Q 29.296875 67.234375 31.59375 71.875
L 37.25 71.875
z
" id="ArialMT-49"/>
       <path d="M 4.15625 35.296875
Q 4.15625 48 6.765625 55.734375
Q 9.375 63.484375 14.515625 67.671875
Q 19.671875 71.875 27.484375 71.875
Q 33.25 71.875 37.59375 69.546875
Q 41.9375 67.234375 44.765625 62.859375
Q 47.609375 58.5 49.21875 52.21875
Q 50.828125 45.953125 50.828125 35.296875
Q 50.828125 22.703125 48.234375 14.96875
Q 45.65625 7.234375 40.5 3
Q 35.359375 -1.21875 27.484375 -1.21875
Q 17.140625 -1.21875 11.234375 6.203125
Q 4.15625 15.140625 4.15625 35.296875
z
M 13.1875 35.296875
Q 13.1875 17.671875 17.3125 11.828125
Q 21.4375 6 27.484375 6
Q 33.546875 6 37.671875 11.859375
Q 41.796875 17.71875 41.796875 35.296875
Q 41.796875 52.984375 37.671875 58.78125
Q 33.546875 64.59375 27.390625 64.59375
Q 21.34375 64.59375 17.71875 59.46875
Q 13.1875 52.9375 13.1875 35.296875
z
" id="ArialMT-48"/>
      </defs>
      <g style="fill:#262626;" transform="translate(136.189261 494.229375)scale(0.12 -0.12)">
       <use xlink:href="#ArialMT-8722"/>
       <use x="58.398438" xlink:href="#ArialMT-49"/>
       <use x="114.013672" xlink:href="#ArialMT-48"/>
      </g>
     </g>
    </g>
    <g id="xtick_2">
     <g id="line2d_2">
      <g>
       <use style="fill:#262626;stroke:#262626;" x="273.184943" xlink:href="#m3d66593191" y="478.44"/>
      </g>
     </g>
     <g id="text_2">
      <!-- −5 -->
      <defs>
       <path d="M 4.15625 18.75
L 13.375 19.53125
Q 14.40625 12.796875 18.140625 9.390625
Q 21.875 6 27.15625 6
Q 33.5 6 37.890625 10.78125
Q 42.28125 15.578125 42.28125 23.484375
Q 42.28125 31 38.0625 35.34375
Q 33.84375 39.703125 27 39.703125
Q 22.75 39.703125 19.328125 37.765625
Q 15.921875 35.84375 13.96875 32.765625
L 5.71875 33.84375
L 12.640625 70.609375
L 48.25 70.609375
L 48.25 62.203125
L 19.671875 62.203125
L 15.828125 42.96875
Q 22.265625 47.46875 29.34375 47.46875
Q 38.71875 47.46875 45.15625 40.96875
Q 51.609375 34.46875 51.609375 24.265625
Q 51.609375 14.546875 45.953125 7.46875
Q 39.0625 -1.21875 27.15625 -1.21875
Q 17.390625 -1.21875 11.203125 4.25
Q 5.03125 9.71875 4.15625 18.75
z
" id="ArialMT-53"/>
      </defs>
      <g style="fill:#262626;" transform="translate(266.344006 494.229375)scale(0.12 -0.12)">
       <use xlink:href="#ArialMT-8722"/>
       <use x="58.398438" xlink:href="#ArialMT-53"/>
      </g>
     </g>
    </g>
    <g id="xtick_3">
     <g id="line2d_3">
      <g>
       <use style="fill:#262626;stroke:#262626;" x="400.003125" xlink:href="#m3d66593191" y="478.44"/>
      </g>
     </g>
     <g id="text_3">
      <!-- 0 -->
      <g style="fill:#262626;" transform="translate(396.666563 494.229375)scale(0.12 -0.12)">
       <use xlink:href="#ArialMT-48"/>
      </g>
     </g>
    </g>
    <g id="xtick_4">
     <g id="line2d_4">
      <g>
       <use style="fill:#262626;stroke:#262626;" x="526.821307" xlink:href="#m3d66593191" y="478.44"/>
      </g>
     </g>
     <g id="text_4">
      <!-- 5 -->
      <g style="fill:#262626;" transform="translate(523.484744 494.229375)scale(0.12 -0.12)">
       <use xlink:href="#ArialMT-53"/>
      </g>
     </g>
    </g>
    <g id="xtick_5">
     <g id="line2d_5">
      <g>
       <use style="fill:#262626;stroke:#262626;" x="653.639489" xlink:href="#m3d66593191" y="478.44"/>
      </g>
     </g>
     <g id="text_5">
      <!-- 10 -->
      <g style="fill:#262626;" transform="translate(646.966364 494.229375)scale(0.12 -0.12)">
       <use xlink:href="#ArialMT-49"/>
       <use x="55.615234" xlink:href="#ArialMT-48"/>
      </g>
     </g>
    </g>
    <g id="xtick_6">
     <g id="line2d_6">
      <defs>
       <path d="M 0 0
L 0 3.2
" id="m0f226103c1" style="stroke:#262626;stroke-width:0.8;"/>
      </defs>
      <g>
       <use style="fill:#262626;stroke:#262626;stroke-width:0.8;" x="209.775852" xlink:href="#m0f226103c1" y="478.44"/>
      </g>
     </g>
    </g>
    <g id="xtick_7">
     <g id="line2d_7">
      <g>
       <use style="fill:#262626;stroke:#262626;stroke-width:0.8;" x="336.594034" xlink:href="#m0f226103c1" y="478.44"/>
      </g>
     </g>
    </g>
    <g id="xtick_8">
     <g id="line2d_8">
      <g>
       <use style="fill:#262626;stroke:#262626;stroke-width:0.8;" x="463.412216" xlink:href="#m0f226103c1" y="478.44"/>
      </g>
     </g>
    </g>
    <g id="xtick_9">
     <g id="line2d_9">
      <g>
       <use style="fill:#262626;stroke:#262626;stroke-width:0.8;" x="590.230398" xlink:href="#m0f226103c1" y="478.44"/>
      </g>
     </g>
    </g>
    <g id="text_6">
     <!-- Preprint vs Published log2(Odds Ratio) -->
     <defs>
      <path d="M 7.71875 0
L 7.71875 71.578125
L 34.71875 71.578125
Q 41.84375 71.578125 45.609375 70.90625
Q 50.875 70.015625 54.4375 67.546875
Q 58.015625 65.09375 60.1875 60.640625
Q 62.359375 56.203125 62.359375 50.875
Q 62.359375 41.75 56.546875 35.421875
Q 50.734375 29.109375 35.546875 29.109375
L 17.1875 29.109375
L 17.1875 0
z
M 17.1875 37.546875
L 35.6875 37.546875
Q 44.875 37.546875 48.734375 40.96875
Q 52.59375 44.390625 52.59375 50.59375
Q 52.59375 55.078125 50.3125 58.265625
Q 48.046875 61.46875 44.34375 62.5
Q 41.9375 63.140625 35.5 63.140625
L 17.1875 63.140625
z
" id="ArialMT-80"/>
      <path d="M 6.5 0
L 6.5 51.859375
L 14.40625 51.859375
L 14.40625 44
Q 17.4375 49.515625 20 51.265625
Q 22.5625 53.03125 25.640625 53.03125
Q 30.078125 53.03125 34.671875 50.203125
L 31.640625 42.046875
Q 28.421875 43.953125 25.203125 43.953125
Q 22.3125 43.953125 20.015625 42.21875
Q 17.71875 40.484375 16.75 37.40625
Q 15.28125 32.71875 15.28125 27.15625
L 15.28125 0
z
" id="ArialMT-114"/>
      <path d="M 42.09375 16.703125
L 51.171875 15.578125
Q 49.03125 7.625 43.21875 3.21875
Q 37.40625 -1.171875 28.375 -1.171875
Q 17 -1.171875 10.328125 5.828125
Q 3.65625 12.84375 3.65625 25.484375
Q 3.65625 38.578125 10.390625 45.796875
Q 17.140625 53.03125 27.875 53.03125
Q 38.28125 53.03125 44.875 45.953125
Q 51.46875 38.875 51.46875 26.03125
Q 51.46875 25.25 51.421875 23.6875
L 12.75 23.6875
Q 13.234375 15.140625 17.578125 10.59375
Q 21.921875 6.0625 28.421875 6.0625
Q 33.25 6.0625 36.671875 8.59375
Q 40.09375 11.140625 42.09375 16.703125
z
M 13.234375 30.90625
L 42.1875 30.90625
Q 41.609375 37.453125 38.875 40.71875
Q 34.671875 45.796875 27.984375 45.796875
Q 21.921875 45.796875 17.796875 41.75
Q 13.671875 37.703125 13.234375 30.90625
z
" id="ArialMT-101"/>
      <path d="M 6.59375 -19.875
L 6.59375 51.859375
L 14.59375 51.859375
L 14.59375 45.125
Q 17.4375 49.078125 21 51.046875
Q 24.5625 53.03125 29.640625 53.03125
Q 36.28125 53.03125 41.359375 49.609375
Q 46.4375 46.1875 49.015625 39.953125
Q 51.609375 33.734375 51.609375 26.3125
Q 51.609375 18.359375 48.75 11.984375
Q 45.90625 5.609375 40.453125 2.21875
Q 35.015625 -1.171875 29 -1.171875
Q 24.609375 -1.171875 21.109375 0.6875
Q 17.625 2.546875 15.375 5.375
L 15.375 -19.875
z
M 14.546875 25.640625
Q 14.546875 15.625 18.59375 10.84375
Q 22.65625 6.0625 28.421875 6.0625
Q 34.28125 6.0625 38.453125 11.015625
Q 42.625 15.96875 42.625 26.375
Q 42.625 36.28125 38.546875 41.203125
Q 34.46875 46.140625 28.8125 46.140625
Q 23.1875 46.140625 18.859375 40.890625
Q 14.546875 35.640625 14.546875 25.640625
z
" id="ArialMT-112"/>
      <path d="M 6.640625 61.46875
L 6.640625 71.578125
L 15.4375 71.578125
L 15.4375 61.46875
z
M 6.640625 0
L 6.640625 51.859375
L 15.4375 51.859375
L 15.4375 0
z
" id="ArialMT-105"/>
      <path d="M 6.59375 0
L 6.59375 51.859375
L 14.5 51.859375
L 14.5 44.484375
Q 20.21875 53.03125 31 53.03125
Q 35.6875 53.03125 39.625 51.34375
Q 43.5625 49.65625 45.515625 46.921875
Q 47.46875 44.1875 48.25 40.4375
Q 48.734375 37.984375 48.734375 31.890625
L 48.734375 0
L 39.9375 0
L 39.9375 31.546875
Q 39.9375 36.921875 38.90625 39.578125
Q 37.890625 42.234375 35.28125 43.8125
Q 32.671875 45.40625 29.15625 45.40625
Q 23.53125 45.40625 19.453125 41.84375
Q 15.375 38.28125 15.375 28.328125
L 15.375 0
z
" id="ArialMT-110"/>
      <path d="M 25.78125 7.859375
L 27.046875 0.09375
Q 23.34375 -0.6875 20.40625 -0.6875
Q 15.625 -0.6875 12.984375 0.828125
Q 10.359375 2.34375 9.28125 4.8125
Q 8.203125 7.28125 8.203125 15.1875
L 8.203125 45.015625
L 1.765625 45.015625
L 1.765625 51.859375
L 8.203125 51.859375
L 8.203125 64.703125
L 16.9375 69.96875
L 16.9375 51.859375
L 25.78125 51.859375
L 25.78125 45.015625
L 16.9375 45.015625
L 16.9375 14.703125
Q 16.9375 10.9375 17.40625 9.859375
Q 17.875 8.796875 18.921875 8.15625
Q 19.96875 7.515625 21.921875 7.515625
Q 23.390625 7.515625 25.78125 7.859375
z
" id="ArialMT-116"/>
      <path id="ArialMT-32"/>
      <path d="M 21 0
L 1.265625 51.859375
L 10.546875 51.859375
L 21.6875 20.796875
Q 23.484375 15.765625 25 10.359375
Q 26.171875 14.453125 28.265625 20.21875
L 39.796875 51.859375
L 48.828125 51.859375
L 29.203125 0
z
" id="ArialMT-118"/>
      <path d="M 3.078125 15.484375
L 11.765625 16.84375
Q 12.5 11.625 15.84375 8.84375
Q 19.1875 6.0625 25.203125 6.0625
Q 31.25 6.0625 34.171875 8.515625
Q 37.109375 10.984375 37.109375 14.3125
Q 37.109375 17.28125 34.515625 19
Q 32.71875 20.171875 25.53125 21.96875
Q 15.875 24.421875 12.140625 26.203125
Q 8.40625 27.984375 6.46875 31.125
Q 4.546875 34.28125 4.546875 38.09375
Q 4.546875 41.546875 6.125 44.5
Q 7.71875 47.46875 10.453125 49.421875
Q 12.5 50.921875 16.03125 51.96875
Q 19.578125 53.03125 23.640625 53.03125
Q 29.734375 53.03125 34.34375 51.265625
Q 38.96875 49.515625 41.15625 46.5
Q 43.359375 43.5 44.1875 38.484375
L 35.59375 37.3125
Q 35.015625 41.3125 32.203125 43.546875
Q 29.390625 45.796875 24.265625 45.796875
Q 18.21875 45.796875 15.625 43.796875
Q 13.03125 41.796875 13.03125 39.109375
Q 13.03125 37.40625 14.109375 36.03125
Q 15.1875 34.625 17.484375 33.6875
Q 18.796875 33.203125 25.25 31.453125
Q 34.578125 28.953125 38.25 27.359375
Q 41.9375 25.78125 44.03125 22.75
Q 46.140625 19.734375 46.140625 15.234375
Q 46.140625 10.84375 43.578125 6.953125
Q 41.015625 3.078125 36.171875 0.953125
Q 31.34375 -1.171875 25.25 -1.171875
Q 15.140625 -1.171875 9.84375 3.03125
Q 4.546875 7.234375 3.078125 15.484375
z
" id="ArialMT-115"/>
      <path d="M 40.578125 0
L 40.578125 7.625
Q 34.515625 -1.171875 24.125 -1.171875
Q 19.53125 -1.171875 15.546875 0.578125
Q 11.578125 2.34375 9.640625 5
Q 7.71875 7.671875 6.9375 11.53125
Q 6.390625 14.109375 6.390625 19.734375
L 6.390625 51.859375
L 15.1875 51.859375
L 15.1875 23.09375
Q 15.1875 16.21875 15.71875 13.8125
Q 16.546875 10.359375 19.234375 8.375
Q 21.921875 6.390625 25.875 6.390625
Q 29.828125 6.390625 33.296875 8.421875
Q 36.765625 10.453125 38.203125 13.9375
Q 39.65625 17.4375 39.65625 24.078125
L 39.65625 51.859375
L 48.4375 51.859375
L 48.4375 0
z
" id="ArialMT-117"/>
      <path d="M 14.703125 0
L 6.546875 0
L 6.546875 71.578125
L 15.328125 71.578125
L 15.328125 46.046875
Q 20.90625 53.03125 29.546875 53.03125
Q 34.328125 53.03125 38.59375 51.09375
Q 42.875 49.171875 45.625 45.671875
Q 48.390625 42.1875 49.953125 37.25
Q 51.515625 32.328125 51.515625 26.703125
Q 51.515625 13.375 44.921875 6.09375
Q 38.328125 -1.171875 29.109375 -1.171875
Q 19.921875 -1.171875 14.703125 6.5
z
M 14.59375 26.3125
Q 14.59375 17 17.140625 12.84375
Q 21.296875 6.0625 28.375 6.0625
Q 34.125 6.0625 38.328125 11.0625
Q 42.53125 16.0625 42.53125 25.984375
Q 42.53125 36.140625 38.5 40.96875
Q 34.46875 45.796875 28.765625 45.796875
Q 23 45.796875 18.796875 40.796875
Q 14.59375 35.796875 14.59375 26.3125
z
" id="ArialMT-98"/>
      <path d="M 6.390625 0
L 6.390625 71.578125
L 15.1875 71.578125
L 15.1875 0
z
" id="ArialMT-108"/>
      <path d="M 6.59375 0
L 6.59375 71.578125
L 15.375 71.578125
L 15.375 45.90625
Q 21.53125 53.03125 30.90625 53.03125
Q 36.671875 53.03125 40.921875 50.75
Q 45.171875 48.484375 47 44.484375
Q 48.828125 40.484375 48.828125 32.859375
L 48.828125 0
L 40.046875 0
L 40.046875 32.859375
Q 40.046875 39.453125 37.1875 42.453125
Q 34.328125 45.453125 29.109375 45.453125
Q 25.203125 45.453125 21.75 43.421875
Q 18.3125 41.40625 16.84375 37.9375
Q 15.375 34.46875 15.375 28.375
L 15.375 0
z
" id="ArialMT-104"/>
      <path d="M 40.234375 0
L 40.234375 6.546875
Q 35.296875 -1.171875 25.734375 -1.171875
Q 19.53125 -1.171875 14.328125 2.25
Q 9.125 5.671875 6.265625 11.796875
Q 3.421875 17.921875 3.421875 25.875
Q 3.421875 33.640625 6 39.96875
Q 8.59375 46.296875 13.765625 49.65625
Q 18.953125 53.03125 25.34375 53.03125
Q 30.03125 53.03125 33.6875 51.046875
Q 37.359375 49.078125 39.65625 45.90625
L 39.65625 71.578125
L 48.390625 71.578125
L 48.390625 0
z
M 12.453125 25.875
Q 12.453125 15.921875 16.640625 10.984375
Q 20.84375 6.0625 26.5625 6.0625
Q 32.328125 6.0625 36.34375 10.765625
Q 40.375 15.484375 40.375 25.140625
Q 40.375 35.796875 36.265625 40.765625
Q 32.171875 45.75 26.171875 45.75
Q 20.3125 45.75 16.375 40.96875
Q 12.453125 36.1875 12.453125 25.875
z
" id="ArialMT-100"/>
      <path d="M 3.328125 25.921875
Q 3.328125 40.328125 11.328125 47.265625
Q 18.015625 53.03125 27.640625 53.03125
Q 38.328125 53.03125 45.109375 46.015625
Q 51.90625 39.015625 51.90625 26.65625
Q 51.90625 16.65625 48.90625 10.90625
Q 45.90625 5.171875 40.15625 2
Q 34.421875 -1.171875 27.640625 -1.171875
Q 16.75 -1.171875 10.03125 5.8125
Q 3.328125 12.796875 3.328125 25.921875
z
M 12.359375 25.921875
Q 12.359375 15.96875 16.703125 11.015625
Q 21.046875 6.0625 27.640625 6.0625
Q 34.1875 6.0625 38.53125 11.03125
Q 42.875 16.015625 42.875 26.21875
Q 42.875 35.84375 38.5 40.796875
Q 34.125 45.75 27.640625 45.75
Q 21.046875 45.75 16.703125 40.8125
Q 12.359375 35.890625 12.359375 25.921875
z
" id="ArialMT-111"/>
      <path d="M 4.984375 -4.296875
L 13.53125 -5.5625
Q 14.0625 -9.515625 16.5 -11.328125
Q 19.78125 -13.765625 25.4375 -13.765625
Q 31.546875 -13.765625 34.859375 -11.328125
Q 38.1875 -8.890625 39.359375 -4.5
Q 40.046875 -1.8125 39.984375 6.78125
Q 34.234375 0 25.640625 0
Q 14.9375 0 9.078125 7.71875
Q 3.21875 15.4375 3.21875 26.21875
Q 3.21875 33.640625 5.90625 39.90625
Q 8.59375 46.1875 13.6875 49.609375
Q 18.796875 53.03125 25.6875 53.03125
Q 34.859375 53.03125 40.828125 45.609375
L 40.828125 51.859375
L 48.921875 51.859375
L 48.921875 7.03125
Q 48.921875 -5.078125 46.453125 -10.125
Q 44 -15.1875 38.640625 -18.109375
Q 33.296875 -21.046875 25.484375 -21.046875
Q 16.21875 -21.046875 10.5 -16.875
Q 4.78125 -12.703125 4.984375 -4.296875
z
M 12.25 26.859375
Q 12.25 16.65625 16.296875 11.96875
Q 20.359375 7.28125 26.46875 7.28125
Q 32.515625 7.28125 36.609375 11.9375
Q 40.71875 16.609375 40.71875 26.5625
Q 40.71875 36.078125 36.5 40.90625
Q 32.28125 45.75 26.3125 45.75
Q 20.453125 45.75 16.34375 40.984375
Q 12.25 36.234375 12.25 26.859375
z
" id="ArialMT-103"/>
      <path d="M 50.34375 8.453125
L 50.34375 0
L 3.03125 0
Q 2.9375 3.171875 4.046875 6.109375
Q 5.859375 10.9375 9.828125 15.625
Q 13.8125 20.3125 21.34375 26.46875
Q 33.015625 36.03125 37.109375 41.625
Q 41.21875 47.21875 41.21875 52.203125
Q 41.21875 57.421875 37.46875 61
Q 33.734375 64.59375 27.734375 64.59375
Q 21.390625 64.59375 17.578125 60.78125
Q 13.765625 56.984375 13.71875 50.25
L 4.6875 51.171875
Q 5.609375 61.28125 11.65625 66.578125
Q 17.71875 71.875 27.9375 71.875
Q 38.234375 71.875 44.234375 66.15625
Q 50.25 60.453125 50.25 52
Q 50.25 47.703125 48.484375 43.546875
Q 46.734375 39.40625 42.65625 34.8125
Q 38.578125 30.21875 29.109375 22.21875
Q 21.1875 15.578125 18.9375 13.203125
Q 16.703125 10.84375 15.234375 8.453125
z
" id="ArialMT-50"/>
      <path d="M 23.390625 -21.046875
Q 16.109375 -11.859375 11.078125 0.4375
Q 6.0625 12.75 6.0625 25.921875
Q 6.0625 37.546875 9.8125 48.1875
Q 14.203125 60.546875 23.390625 72.796875
L 29.6875 72.796875
Q 23.78125 62.640625 21.875 58.296875
Q 18.890625 51.5625 17.1875 44.234375
Q 15.09375 35.109375 15.09375 25.875
Q 15.09375 2.390625 29.6875 -21.046875
z
" id="ArialMT-40"/>
      <path d="M 4.828125 34.859375
Q 4.828125 52.6875 14.390625 62.765625
Q 23.96875 72.859375 39.109375 72.859375
Q 49.03125 72.859375 56.984375 68.109375
Q 64.9375 63.375 69.109375 54.90625
Q 73.296875 46.4375 73.296875 35.6875
Q 73.296875 24.8125 68.890625 16.21875
Q 64.5 7.625 56.4375 3.203125
Q 48.390625 -1.21875 39.0625 -1.21875
Q 28.953125 -1.21875 20.984375 3.65625
Q 13.03125 8.546875 8.921875 16.984375
Q 4.828125 25.4375 4.828125 34.859375
z
M 14.59375 34.71875
Q 14.59375 21.78125 21.546875 14.328125
Q 28.515625 6.890625 39.015625 6.890625
Q 49.703125 6.890625 56.609375 14.40625
Q 63.53125 21.921875 63.53125 35.75
Q 63.53125 44.484375 60.578125 51
Q 57.625 57.515625 51.921875 61.109375
Q 46.234375 64.703125 39.15625 64.703125
Q 29.109375 64.703125 21.84375 57.78125
Q 14.59375 50.875 14.59375 34.71875
z
" id="ArialMT-79"/>
      <path d="M 7.859375 0
L 7.859375 71.578125
L 39.59375 71.578125
Q 49.171875 71.578125 54.140625 69.640625
Q 59.125 67.71875 62.109375 62.828125
Q 65.09375 57.953125 65.09375 52.046875
Q 65.09375 44.4375 60.15625 39.203125
Q 55.21875 33.984375 44.921875 32.5625
Q 48.6875 30.765625 50.640625 29
Q 54.78125 25.203125 58.5 19.484375
L 70.953125 0
L 59.03125 0
L 49.5625 14.890625
Q 45.40625 21.34375 42.71875 24.75
Q 40.046875 28.171875 37.921875 29.53125
Q 35.796875 30.90625 33.59375 31.453125
Q 31.984375 31.78125 28.328125 31.78125
L 17.328125 31.78125
L 17.328125 0
z
M 17.328125 39.984375
L 37.703125 39.984375
Q 44.1875 39.984375 47.84375 41.328125
Q 51.515625 42.671875 53.421875 45.625
Q 55.328125 48.578125 55.328125 52.046875
Q 55.328125 57.125 51.640625 60.390625
Q 47.953125 63.671875 39.984375 63.671875
L 17.328125 63.671875
z
" id="ArialMT-82"/>
      <path d="M 40.4375 6.390625
Q 35.546875 2.25 31.03125 0.53125
Q 26.515625 -1.171875 21.34375 -1.171875
Q 12.796875 -1.171875 8.203125 3
Q 3.609375 7.171875 3.609375 13.671875
Q 3.609375 17.484375 5.34375 20.625
Q 7.078125 23.78125 9.890625 25.6875
Q 12.703125 27.59375 16.21875 28.5625
Q 18.796875 29.25 24.03125 29.890625
Q 34.671875 31.15625 39.703125 32.90625
Q 39.75 34.71875 39.75 35.203125
Q 39.75 40.578125 37.25 42.78125
Q 33.890625 45.75 27.25 45.75
Q 21.046875 45.75 18.09375 43.578125
Q 15.140625 41.40625 13.71875 35.890625
L 5.125 37.0625
Q 6.296875 42.578125 8.984375 45.96875
Q 11.671875 49.359375 16.75 51.1875
Q 21.828125 53.03125 28.515625 53.03125
Q 35.15625 53.03125 39.296875 51.46875
Q 43.453125 49.90625 45.40625 47.53125
Q 47.359375 45.171875 48.140625 41.546875
Q 48.578125 39.3125 48.578125 33.453125
L 48.578125 21.734375
Q 48.578125 9.46875 49.140625 6.21875
Q 49.703125 2.984375 51.375 0
L 42.1875 0
Q 40.828125 2.734375 40.4375 6.390625
z
M 39.703125 26.03125
Q 34.90625 24.078125 25.34375 22.703125
Q 19.921875 21.921875 17.671875 20.9375
Q 15.4375 19.96875 14.203125 18.09375
Q 12.984375 16.21875 12.984375 13.921875
Q 12.984375 10.40625 15.640625 8.0625
Q 18.3125 5.71875 23.4375 5.71875
Q 28.515625 5.71875 32.46875 7.9375
Q 36.421875 10.15625 38.28125 14.015625
Q 39.703125 17 39.703125 22.796875
z
" id="ArialMT-97"/>
      <path d="M 12.359375 -21.046875
L 6.0625 -21.046875
Q 20.65625 2.390625 20.65625 25.875
Q 20.65625 35.0625 18.5625 44.09375
Q 16.890625 51.421875 13.921875 58.15625
Q 12.015625 62.546875 6.0625 72.796875
L 12.359375 72.796875
Q 21.53125 60.546875 25.921875 48.1875
Q 29.6875 37.546875 29.6875 25.921875
Q 29.6875 12.75 24.625 0.4375
Q 19.578125 -11.859375 12.359375 -21.046875
z
" id="ArialMT-41"/>
     </defs>
     <g style="fill:#262626;" transform="translate(286.392187 510.3575)scale(0.12 -0.12)">
      <use xlink:href="#ArialMT-80"/>
      <use x="66.699219" xlink:href="#ArialMT-114"/>
      <use x="100" xlink:href="#ArialMT-101"/>
      <use x="155.615234" xlink:href="#ArialMT-112"/>
      <use x="211.230469" xlink:href="#ArialMT-114"/>
      <use x="244.53125" xlink:href="#ArialMT-105"/>
      <use x="266.748047" xlink:href="#ArialMT-110"/>
      <use x="322.363281" xlink:href="#ArialMT-116"/>
      <use x="350.146484" xlink:href="#ArialMT-32"/>
      <use x="377.929688" xlink:href="#ArialMT-118"/>
      <use x="427.929688" xlink:href="#ArialMT-115"/>
      <use x="477.929688" xlink:href="#ArialMT-32"/>
      <use x="505.712891" xlink:href="#ArialMT-80"/>
      <use x="572.412109" xlink:href="#ArialMT-117"/>
      <use x="628.027344" xlink:href="#ArialMT-98"/>
      <use x="683.642578" xlink:href="#ArialMT-108"/>
      <use x="705.859375" xlink:href="#ArialMT-105"/>
      <use x="728.076172" xlink:href="#ArialMT-115"/>
      <use x="778.076172" xlink:href="#ArialMT-104"/>
      <use x="833.691406" xlink:href="#ArialMT-101"/>
      <use x="889.306641" xlink:href="#ArialMT-100"/>
      <use x="944.921875" xlink:href="#ArialMT-32"/>
      <use x="972.705078" xlink:href="#ArialMT-108"/>
      <use x="994.921875" xlink:href="#ArialMT-111"/>
      <use x="1050.537109" xlink:href="#ArialMT-103"/>
      <use x="1106.152344" xlink:href="#ArialMT-50"/>
      <use x="1161.767578" xlink:href="#ArialMT-40"/>
      <use x="1195.068359" xlink:href="#ArialMT-79"/>
      <use x="1272.851562" xlink:href="#ArialMT-100"/>
      <use x="1328.466797" xlink:href="#ArialMT-100"/>
      <use x="1384.082031" xlink:href="#ArialMT-115"/>
      <use x="1434.082031" xlink:href="#ArialMT-32"/>
      <use x="1461.865234" xlink:href="#ArialMT-82"/>
      <use x="1534.082031" xlink:href="#ArialMT-97"/>
      <use x="1589.697266" xlink:href="#ArialMT-116"/>
      <use x="1617.480469" xlink:href="#ArialMT-105"/>
      <use x="1639.697266" xlink:href="#ArialMT-111"/>
      <use x="1695.3125" xlink:href="#ArialMT-41"/>
     </g>
    </g>
   </g>
   <g id="matplotlib.axis_2">
    <g id="ytick_1">
     <g id="line2d_10">
      <defs>
       <path d="M 0 0
L -4.8 0
" id="m321d747e90" style="stroke:#262626;"/>
      </defs>
      <g>
       <use style="fill:#262626;stroke:#262626;" x="93.103125" xlink:href="#m321d747e90" y="471.406567"/>
      </g>
     </g>
     <g id="text_7">
      <!-- fviii -->
      <defs>
       <path d="M 8.6875 0
L 8.6875 45.015625
L 0.921875 45.015625
L 0.921875 51.859375
L 8.6875 51.859375
L 8.6875 57.375
Q 8.6875 62.59375 9.625 65.140625
Q 10.890625 68.5625 14.078125 70.671875
Q 17.28125 72.796875 23.046875 72.796875
Q 26.765625 72.796875 31.25 71.921875
L 29.9375 64.265625
Q 27.203125 64.75 24.75 64.75
Q 20.75 64.75 19.09375 63.03125
Q 17.4375 61.328125 17.4375 56.640625
L 17.4375 51.859375
L 27.546875 51.859375
L 27.546875 45.015625
L 17.4375 45.015625
L 17.4375 0
z
" id="ArialMT-102"/>
      </defs>
      <g style="fill:#262626;" transform="translate(68.570625 475.701255)scale(0.12 -0.12)">
       <use xlink:href="#ArialMT-102"/>
       <use x="27.783203" xlink:href="#ArialMT-118"/>
       <use x="77.783203" xlink:href="#ArialMT-105"/>
       <use x="100" xlink:href="#ArialMT-105"/>
       <use x="122.216797" xlink:href="#ArialMT-105"/>
      </g>
     </g>
    </g>
    <g id="ytick_2">
     <g id="line2d_11">
      <g>
       <use style="fill:#262626;stroke:#262626;" x="93.103125" xlink:href="#m321d747e90" y="459.684179"/>
      </g>
     </g>
     <g id="text_8">
      <!-- collagen -->
      <defs>
       <path d="M 40.4375 19
L 49.078125 17.875
Q 47.65625 8.9375 41.8125 3.875
Q 35.984375 -1.171875 27.484375 -1.171875
Q 16.84375 -1.171875 10.375 5.78125
Q 3.90625 12.75 3.90625 25.734375
Q 3.90625 34.125 6.6875 40.421875
Q 9.46875 46.734375 15.15625 49.875
Q 20.84375 53.03125 27.546875 53.03125
Q 35.984375 53.03125 41.359375 48.75
Q 46.734375 44.484375 48.25 36.625
L 39.703125 35.296875
Q 38.484375 40.53125 35.375 43.15625
Q 32.28125 45.796875 27.875 45.796875
Q 21.234375 45.796875 17.078125 41.03125
Q 12.9375 36.28125 12.9375 25.984375
Q 12.9375 15.53125 16.9375 10.796875
Q 20.953125 6.0625 27.390625 6.0625
Q 32.5625 6.0625 36.03125 9.234375
Q 39.5 12.40625 40.4375 19
z
" id="ArialMT-99"/>
      </defs>
      <g style="fill:#262626;" transform="translate(41.205 463.978867)scale(0.12 -0.12)">
       <use xlink:href="#ArialMT-99"/>
       <use x="50" xlink:href="#ArialMT-111"/>
       <use x="105.615234" xlink:href="#ArialMT-108"/>
       <use x="127.832031" xlink:href="#ArialMT-108"/>
       <use x="150.048828" xlink:href="#ArialMT-97"/>
       <use x="205.664062" xlink:href="#ArialMT-103"/>
       <use x="261.279297" xlink:href="#ArialMT-101"/>
       <use x="316.894531" xlink:href="#ArialMT-110"/>
      </g>
     </g>
    </g>
    <g id="ytick_3">
     <g id="line2d_12">
      <g>
       <use style="fill:#262626;stroke:#262626;" x="93.103125" xlink:href="#m321d747e90" y="447.961791"/>
      </g>
     </g>
     <g id="text_9">
      <!-- pair -->
      <g style="fill:#262626;" transform="translate(65.895 452.256479)scale(0.12 -0.12)">
       <use xlink:href="#ArialMT-112"/>
       <use x="55.615234" xlink:href="#ArialMT-97"/>
       <use x="111.230469" xlink:href="#ArialMT-105"/>
       <use x="133.447266" xlink:href="#ArialMT-114"/>
      </g>
     </g>
    </g>
    <g id="ytick_4">
     <g id="line2d_13">
      <g>
       <use style="fill:#262626;stroke:#262626;" x="93.103125" xlink:href="#m321d747e90" y="436.239403"/>
      </g>
     </g>
     <g id="text_10">
      <!-- treat -->
      <g style="fill:#262626;" transform="translate(61.89375 440.53409)scale(0.12 -0.12)">
       <use xlink:href="#ArialMT-116"/>
       <use x="27.783203" xlink:href="#ArialMT-114"/>
       <use x="61.083984" xlink:href="#ArialMT-101"/>
       <use x="116.699219" xlink:href="#ArialMT-97"/>
       <use x="172.314453" xlink:href="#ArialMT-116"/>
      </g>
     </g>
    </g>
    <g id="ytick_5">
     <g id="line2d_14">
      <g>
       <use style="fill:#262626;stroke:#262626;" x="93.103125" xlink:href="#m321d747e90" y="424.517015"/>
      </g>
     </g>
     <g id="text_11">
      <!-- invasion -->
      <g style="fill:#262626;" transform="translate(41.878125 428.811702)scale(0.12 -0.12)">
       <use xlink:href="#ArialMT-105"/>
       <use x="22.216797" xlink:href="#ArialMT-110"/>
       <use x="77.832031" xlink:href="#ArialMT-118"/>
       <use x="127.832031" xlink:href="#ArialMT-97"/>
       <use x="183.447266" xlink:href="#ArialMT-115"/>
       <use x="233.447266" xlink:href="#ArialMT-105"/>
       <use x="255.664062" xlink:href="#ArialMT-111"/>
       <use x="311.279297" xlink:href="#ArialMT-110"/>
      </g>
     </g>
    </g>
    <g id="ytick_6">
     <g id="line2d_15">
      <g>
       <use style="fill:#262626;stroke:#262626;" x="93.103125" xlink:href="#m321d747e90" y="412.794627"/>
      </g>
     </g>
     <g id="text_12">
      <!-- dna -->
      <g style="fill:#262626;" transform="translate(65.88375 417.089314)scale(0.12 -0.12)">
       <use xlink:href="#ArialMT-100"/>
       <use x="55.615234" xlink:href="#ArialMT-110"/>
       <use x="111.230469" xlink:href="#ArialMT-97"/>
      </g>
     </g>
    </g>
    <g id="ytick_7">
     <g id="line2d_16">
      <g>
       <use style="fill:#262626;stroke:#262626;" x="93.103125" xlink:href="#m321d747e90" y="401.072239"/>
      </g>
     </g>
     <g id="text_13">
      <!-- specie -->
      <g style="fill:#262626;" transform="translate(51.2175 405.366926)scale(0.12 -0.12)">
       <use xlink:href="#ArialMT-115"/>
       <use x="50" xlink:href="#ArialMT-112"/>
       <use x="105.615234" xlink:href="#ArialMT-101"/>
       <use x="161.230469" xlink:href="#ArialMT-99"/>
       <use x="211.230469" xlink:href="#ArialMT-105"/>
       <use x="233.447266" xlink:href="#ArialMT-101"/>
      </g>
     </g>
    </g>
    <g id="ytick_8">
     <g id="line2d_17">
      <g>
       <use style="fill:#262626;stroke:#262626;" x="93.103125" xlink:href="#m321d747e90" y="389.349851"/>
      </g>
     </g>
     <g id="text_14">
      <!-- stage -->
      <g style="fill:#262626;" transform="translate(56.55 393.574226)scale(0.12 -0.12)">
       <use xlink:href="#ArialMT-115"/>
       <use x="50" xlink:href="#ArialMT-116"/>
       <use x="77.783203" xlink:href="#ArialMT-97"/>
       <use x="133.398438" xlink:href="#ArialMT-103"/>
       <use x="189.013672" xlink:href="#ArialMT-101"/>
      </g>
     </g>
    </g>
    <g id="ytick_9">
     <g id="line2d_18">
      <g>
       <use style="fill:#262626;stroke:#262626;" x="93.103125" xlink:href="#m321d747e90" y="377.627463"/>
      </g>
     </g>
     <g id="text_15">
      <!-- surface -->
      <g style="fill:#262626;" transform="translate(46.554375 381.92215)scale(0.12 -0.12)">
       <use xlink:href="#ArialMT-115"/>
       <use x="50" xlink:href="#ArialMT-117"/>
       <use x="105.615234" xlink:href="#ArialMT-114"/>
       <use x="138.916016" xlink:href="#ArialMT-102"/>
       <use x="166.699219" xlink:href="#ArialMT-97"/>
       <use x="222.314453" xlink:href="#ArialMT-99"/>
       <use x="272.314453" xlink:href="#ArialMT-101"/>
      </g>
     </g>
    </g>
    <g id="ytick_10">
     <g id="line2d_19">
      <g>
       <use style="fill:#262626;stroke:#262626;" x="93.103125" xlink:href="#m321d747e90" y="365.905075"/>
      </g>
     </g>
     <g id="text_16">
      <!-- treatment -->
      <defs>
       <path d="M 6.59375 0
L 6.59375 51.859375
L 14.453125 51.859375
L 14.453125 44.578125
Q 16.890625 48.390625 20.9375 50.703125
Q 25 53.03125 30.171875 53.03125
Q 35.9375 53.03125 39.625 50.640625
Q 43.3125 48.25 44.828125 43.953125
Q 50.984375 53.03125 60.84375 53.03125
Q 68.5625 53.03125 72.703125 48.75
Q 76.859375 44.484375 76.859375 35.59375
L 76.859375 0
L 68.109375 0
L 68.109375 32.671875
Q 68.109375 37.9375 67.25 40.25
Q 66.40625 42.578125 64.15625 43.984375
Q 61.921875 45.40625 58.890625 45.40625
Q 53.421875 45.40625 49.796875 41.765625
Q 46.1875 38.140625 46.1875 30.125
L 46.1875 0
L 37.40625 0
L 37.40625 33.6875
Q 37.40625 39.546875 35.25 42.46875
Q 33.109375 45.40625 28.21875 45.40625
Q 24.515625 45.40625 21.359375 43.453125
Q 18.21875 41.5 16.796875 37.734375
Q 15.375 33.984375 15.375 26.90625
L 15.375 0
z
" id="ArialMT-109"/>
      </defs>
      <g style="fill:#262626;" transform="translate(35.218125 370.199762)scale(0.12 -0.12)">
       <use xlink:href="#ArialMT-116"/>
       <use x="27.783203" xlink:href="#ArialMT-114"/>
       <use x="61.083984" xlink:href="#ArialMT-101"/>
       <use x="116.699219" xlink:href="#ArialMT-97"/>
       <use x="172.314453" xlink:href="#ArialMT-116"/>
       <use x="200.097656" xlink:href="#ArialMT-109"/>
       <use x="283.398438" xlink:href="#ArialMT-101"/>
       <use x="339.013672" xlink:href="#ArialMT-110"/>
       <use x="394.628906" xlink:href="#ArialMT-116"/>
      </g>
     </g>
    </g>
    <g id="ytick_11">
     <g id="line2d_20">
      <g>
       <use style="fill:#262626;stroke:#262626;" x="93.103125" xlink:href="#m321d747e90" y="354.182687"/>
      </g>
     </g>
     <g id="text_17">
      <!-- control -->
      <g style="fill:#262626;" transform="translate(49.888125 358.477374)scale(0.12 -0.12)">
       <use xlink:href="#ArialMT-99"/>
       <use x="50" xlink:href="#ArialMT-111"/>
       <use x="105.615234" xlink:href="#ArialMT-110"/>
       <use x="161.230469" xlink:href="#ArialMT-116"/>
       <use x="189.013672" xlink:href="#ArialMT-114"/>
       <use x="222.314453" xlink:href="#ArialMT-111"/>
       <use x="277.929688" xlink:href="#ArialMT-108"/>
      </g>
     </g>
    </g>
    <g id="ytick_12">
     <g id="line2d_21">
      <g>
       <use style="fill:#262626;stroke:#262626;" x="93.103125" xlink:href="#m321d747e90" y="342.460299"/>
      </g>
     </g>
     <g id="text_18">
      <!-- mers -->
      <g style="fill:#262626;" transform="translate(59.23875 346.754986)scale(0.12 -0.12)">
       <use xlink:href="#ArialMT-109"/>
       <use x="83.300781" xlink:href="#ArialMT-101"/>
       <use x="138.916016" xlink:href="#ArialMT-114"/>
       <use x="172.216797" xlink:href="#ArialMT-115"/>
      </g>
     </g>
    </g>
    <g id="ytick_13">
     <g id="line2d_22">
      <g>
       <use style="fill:#262626;stroke:#262626;" x="93.103125" xlink:href="#m321d747e90" y="330.73791"/>
      </g>
     </g>
     <g id="text_19">
      <!-- mm -->
      <g style="fill:#262626;" transform="translate(65.911875 335.032598)scale(0.12 -0.12)">
       <use xlink:href="#ArialMT-109"/>
       <use x="83.300781" xlink:href="#ArialMT-109"/>
      </g>
     </g>
    </g>
    <g id="ytick_14">
     <g id="line2d_23">
      <g>
       <use style="fill:#262626;stroke:#262626;" x="93.103125" xlink:href="#m321d747e90" y="319.015522"/>
      </g>
     </g>
     <g id="text_20">
      <!-- activity -->
      <defs>
       <path d="M 6.203125 -19.96875
L 5.21875 -11.71875
Q 8.109375 -12.5 10.25 -12.5
Q 13.1875 -12.5 14.9375 -11.515625
Q 16.703125 -10.546875 17.828125 -8.796875
Q 18.65625 -7.46875 20.515625 -2.25
Q 20.75 -1.515625 21.296875 -0.09375
L 1.609375 51.859375
L 11.078125 51.859375
L 21.875 21.828125
Q 23.96875 16.109375 25.640625 9.8125
Q 27.15625 15.875 29.25 21.625
L 40.328125 51.859375
L 49.125 51.859375
L 29.390625 -0.875
Q 26.21875 -9.421875 24.46875 -12.640625
Q 22.125 -17 19.09375 -19.015625
Q 16.0625 -21.046875 11.859375 -21.046875
Q 9.328125 -21.046875 6.203125 -19.96875
z
" id="ArialMT-121"/>
      </defs>
      <g style="fill:#262626;" transform="translate(49.23 323.31021)scale(0.12 -0.12)">
       <use xlink:href="#ArialMT-97"/>
       <use x="55.615234" xlink:href="#ArialMT-99"/>
       <use x="105.615234" xlink:href="#ArialMT-116"/>
       <use x="133.398438" xlink:href="#ArialMT-105"/>
       <use x="155.615234" xlink:href="#ArialMT-118"/>
       <use x="205.615234" xlink:href="#ArialMT-105"/>
       <use x="227.832031" xlink:href="#ArialMT-116"/>
       <use x="255.615234" xlink:href="#ArialMT-121"/>
      </g>
     </g>
    </g>
    <g id="ytick_15">
     <g id="line2d_24">
      <g>
       <use style="fill:#262626;stroke:#262626;" x="93.103125" xlink:href="#m321d747e90" y="307.293134"/>
      </g>
     </g>
     <g id="text_21">
      <!-- figure -->
      <g style="fill:#262626;" transform="translate(55.888125 311.660947)scale(0.12 -0.12)">
       <use xlink:href="#ArialMT-102"/>
       <use x="27.783203" xlink:href="#ArialMT-105"/>
       <use x="50" xlink:href="#ArialMT-103"/>
       <use x="105.615234" xlink:href="#ArialMT-117"/>
       <use x="161.230469" xlink:href="#ArialMT-114"/>
       <use x="194.53125" xlink:href="#ArialMT-101"/>
      </g>
     </g>
    </g>
    <g id="ytick_16">
     <g id="line2d_25">
      <g>
       <use style="fill:#262626;stroke:#262626;" x="93.103125" xlink:href="#m321d747e90" y="295.570746"/>
      </g>
     </g>
     <g id="text_22">
      <!-- 2019-ncov -->
      <defs>
       <path d="M 5.46875 16.546875
L 13.921875 17.328125
Q 14.984375 11.375 18.015625 8.6875
Q 21.046875 6 25.78125 6
Q 29.828125 6 32.875 7.859375
Q 35.9375 9.71875 37.890625 12.8125
Q 39.84375 15.921875 41.15625 21.1875
Q 42.484375 26.46875 42.484375 31.9375
Q 42.484375 32.515625 42.4375 33.6875
Q 39.796875 29.5 35.234375 26.875
Q 30.671875 24.265625 25.34375 24.265625
Q 16.453125 24.265625 10.296875 30.703125
Q 4.15625 37.15625 4.15625 47.703125
Q 4.15625 58.59375 10.578125 65.234375
Q 17 71.875 26.65625 71.875
Q 33.640625 71.875 39.421875 68.109375
Q 45.21875 64.359375 48.21875 57.390625
Q 51.21875 50.4375 51.21875 37.25
Q 51.21875 23.53125 48.234375 15.40625
Q 45.265625 7.28125 39.375 3.03125
Q 33.5 -1.21875 25.59375 -1.21875
Q 17.1875 -1.21875 11.859375 3.4375
Q 6.546875 8.109375 5.46875 16.546875
z
M 41.453125 48.140625
Q 41.453125 55.71875 37.421875 60.15625
Q 33.40625 64.59375 27.734375 64.59375
Q 21.875 64.59375 17.53125 59.8125
Q 13.1875 55.03125 13.1875 47.40625
Q 13.1875 40.578125 17.3125 36.296875
Q 21.4375 32.03125 27.484375 32.03125
Q 33.59375 32.03125 37.515625 36.296875
Q 41.453125 40.578125 41.453125 48.140625
z
" id="ArialMT-57"/>
       <path d="M 3.171875 21.484375
L 3.171875 30.328125
L 30.171875 30.328125
L 30.171875 21.484375
z
" id="ArialMT-45"/>
      </defs>
      <g style="fill:#262626;" transform="translate(29.86875 299.865434)scale(0.12 -0.12)">
       <use xlink:href="#ArialMT-50"/>
       <use x="55.615234" xlink:href="#ArialMT-48"/>
       <use x="111.230469" xlink:href="#ArialMT-49"/>
       <use x="166.845703" xlink:href="#ArialMT-57"/>
       <use x="222.460938" xlink:href="#ArialMT-45"/>
       <use x="255.761719" xlink:href="#ArialMT-110"/>
       <use x="311.376953" xlink:href="#ArialMT-99"/>
       <use x="361.376953" xlink:href="#ArialMT-111"/>
       <use x="416.992188" xlink:href="#ArialMT-118"/>
      </g>
     </g>
    </g>
    <g id="ytick_17">
     <g id="line2d_26">
      <g>
       <use style="fill:#262626;stroke:#262626;" x="93.103125" xlink:href="#m321d747e90" y="283.848358"/>
      </g>
     </g>
     <g id="text_23">
      <!-- increase -->
      <g style="fill:#262626;" transform="translate(40.54875 288.143046)scale(0.12 -0.12)">
       <use xlink:href="#ArialMT-105"/>
       <use x="22.216797" xlink:href="#ArialMT-110"/>
       <use x="77.832031" xlink:href="#ArialMT-99"/>
       <use x="127.832031" xlink:href="#ArialMT-114"/>
       <use x="161.132812" xlink:href="#ArialMT-101"/>
       <use x="216.748047" xlink:href="#ArialMT-97"/>
       <use x="272.363281" xlink:href="#ArialMT-115"/>
       <use x="322.363281" xlink:href="#ArialMT-101"/>
      </g>
     </g>
    </g>
    <g id="ytick_18">
     <g id="line2d_27">
      <g>
       <use style="fill:#262626;stroke:#262626;" x="93.103125" xlink:href="#m321d747e90" y="272.12597"/>
      </g>
     </g>
     <g id="text_24">
      <!-- mutant -->
      <g style="fill:#262626;" transform="translate(49.220625 276.420658)scale(0.12 -0.12)">
       <use xlink:href="#ArialMT-109"/>
       <use x="83.300781" xlink:href="#ArialMT-117"/>
       <use x="138.916016" xlink:href="#ArialMT-116"/>
       <use x="166.699219" xlink:href="#ArialMT-97"/>
       <use x="222.314453" xlink:href="#ArialMT-110"/>
       <use x="277.929688" xlink:href="#ArialMT-116"/>
      </g>
     </g>
    </g>
    <g id="ytick_19">
     <g id="line2d_28">
      <g>
       <use style="fill:#262626;stroke:#262626;" x="93.103125" xlink:href="#m321d747e90" y="260.403582"/>
      </g>
     </g>
     <g id="text_25">
      <!-- target -->
      <g style="fill:#262626;" transform="translate(55.220625 264.627957)scale(0.12 -0.12)">
       <use xlink:href="#ArialMT-116"/>
       <use x="27.783203" xlink:href="#ArialMT-97"/>
       <use x="83.398438" xlink:href="#ArialMT-114"/>
       <use x="116.699219" xlink:href="#ArialMT-103"/>
       <use x="172.314453" xlink:href="#ArialMT-101"/>
       <use x="227.929688" xlink:href="#ArialMT-116"/>
      </g>
     </g>
    </g>
    <g id="ytick_20">
     <g id="line2d_29">
      <g>
       <use style="fill:#262626;stroke:#262626;" x="93.103125" xlink:href="#m321d747e90" y="248.681194"/>
      </g>
     </g>
     <g id="text_26">
      <!-- host -->
      <g style="fill:#262626;" transform="translate(63.223125 252.975882)scale(0.12 -0.12)">
       <use xlink:href="#ArialMT-104"/>
       <use x="55.615234" xlink:href="#ArialMT-111"/>
       <use x="111.230469" xlink:href="#ArialMT-115"/>
       <use x="161.230469" xlink:href="#ArialMT-116"/>
      </g>
     </g>
    </g>
    <g id="ytick_21">
     <g id="line2d_30">
      <g>
       <use style="fill:#262626;stroke:#262626;" x="93.103125" xlink:href="#m321d747e90" y="236.958806"/>
      </g>
     </g>
     <g id="text_27">
      <!-- pcr -->
      <g style="fill:#262626;" transform="translate(69.234375 241.253493)scale(0.12 -0.12)">
       <use xlink:href="#ArialMT-112"/>
       <use x="55.615234" xlink:href="#ArialMT-99"/>
       <use x="105.615234" xlink:href="#ArialMT-114"/>
      </g>
     </g>
    </g>
    <g id="ytick_22">
     <g id="line2d_31">
      <g>
       <use style="fill:#262626;stroke:#262626;" x="93.103125" xlink:href="#m321d747e90" y="225.236418"/>
      </g>
     </g>
     <g id="text_28">
      <!-- rbd -->
      <g style="fill:#262626;" transform="translate(68.56125 229.531105)scale(0.12 -0.12)">
       <use xlink:href="#ArialMT-114"/>
       <use x="33.300781" xlink:href="#ArialMT-98"/>
       <use x="88.916016" xlink:href="#ArialMT-100"/>
      </g>
     </g>
    </g>
    <g id="ytick_23">
     <g id="line2d_32">
      <g>
       <use style="fill:#262626;stroke:#262626;" x="93.103125" xlink:href="#m321d747e90" y="213.51403"/>
      </g>
     </g>
     <g id="text_29">
      <!-- sample -->
      <g style="fill:#262626;" transform="translate(47.221875 217.808717)scale(0.12 -0.12)">
       <use xlink:href="#ArialMT-115"/>
       <use x="50" xlink:href="#ArialMT-97"/>
       <use x="105.615234" xlink:href="#ArialMT-109"/>
       <use x="188.916016" xlink:href="#ArialMT-112"/>
       <use x="244.53125" xlink:href="#ArialMT-108"/>
       <use x="266.748047" xlink:href="#ArialMT-101"/>
      </g>
     </g>
    </g>
    <g id="ytick_24">
     <g id="line2d_33">
      <g>
       <use style="fill:#262626;stroke:#262626;" x="93.103125" xlink:href="#m321d747e90" y="201.791642"/>
      </g>
     </g>
     <g id="text_30">
      <!-- epitope -->
      <g style="fill:#262626;" transform="translate(46.5375 206.086329)scale(0.12 -0.12)">
       <use xlink:href="#ArialMT-101"/>
       <use x="55.615234" xlink:href="#ArialMT-112"/>
       <use x="111.230469" xlink:href="#ArialMT-105"/>
       <use x="133.447266" xlink:href="#ArialMT-116"/>
       <use x="161.230469" xlink:href="#ArialMT-111"/>
       <use x="216.845703" xlink:href="#ArialMT-112"/>
       <use x="272.460938" xlink:href="#ArialMT-101"/>
      </g>
     </g>
    </g>
    <g id="ytick_25">
     <g id="line2d_34">
      <g>
       <use style="fill:#262626;stroke:#262626;" x="93.103125" xlink:href="#m321d747e90" y="190.069254"/>
      </g>
     </g>
     <g id="text_31">
      <!-- human -->
      <g style="fill:#262626;" transform="translate(49.215 194.363941)scale(0.12 -0.12)">
       <use xlink:href="#ArialMT-104"/>
       <use x="55.615234" xlink:href="#ArialMT-117"/>
       <use x="111.230469" xlink:href="#ArialMT-109"/>
       <use x="194.53125" xlink:href="#ArialMT-97"/>
       <use x="250.146484" xlink:href="#ArialMT-110"/>
      </g>
     </g>
    </g>
    <g id="ytick_26">
     <g id="line2d_35">
      <g>
       <use style="fill:#262626;stroke:#262626;" x="93.103125" xlink:href="#m321d747e90" y="178.346866"/>
      </g>
     </g>
     <g id="text_32">
      <!-- actin -->
      <g style="fill:#262626;" transform="translate(60.556875 182.641553)scale(0.12 -0.12)">
       <use xlink:href="#ArialMT-97"/>
       <use x="55.615234" xlink:href="#ArialMT-99"/>
       <use x="105.615234" xlink:href="#ArialMT-116"/>
       <use x="133.398438" xlink:href="#ArialMT-105"/>
       <use x="155.615234" xlink:href="#ArialMT-110"/>
      </g>
     </g>
    </g>
    <g id="ytick_27">
     <g id="line2d_36">
      <g>
       <use style="fill:#262626;stroke:#262626;" x="93.103125" xlink:href="#m321d747e90" y="166.624478"/>
      </g>
     </g>
     <g id="text_33">
      <!-- report -->
      <g style="fill:#262626;" transform="translate(54.55875 170.919165)scale(0.12 -0.12)">
       <use xlink:href="#ArialMT-114"/>
       <use x="33.300781" xlink:href="#ArialMT-101"/>
       <use x="88.916016" xlink:href="#ArialMT-112"/>
       <use x="144.53125" xlink:href="#ArialMT-111"/>
       <use x="200.146484" xlink:href="#ArialMT-114"/>
       <use x="233.447266" xlink:href="#ArialMT-116"/>
      </g>
     </g>
    </g>
    <g id="ytick_28">
     <g id="line2d_37">
      <g>
       <use style="fill:#262626;stroke:#262626;" x="93.103125" xlink:href="#m321d747e90" y="154.90209"/>
      </g>
     </g>
     <g id="text_34">
      <!-- module -->
      <g style="fill:#262626;" transform="translate(46.54875 159.196777)scale(0.12 -0.12)">
       <use xlink:href="#ArialMT-109"/>
       <use x="83.300781" xlink:href="#ArialMT-111"/>
       <use x="138.916016" xlink:href="#ArialMT-100"/>
       <use x="194.53125" xlink:href="#ArialMT-117"/>
       <use x="250.146484" xlink:href="#ArialMT-108"/>
       <use x="272.363281" xlink:href="#ArialMT-101"/>
      </g>
     </g>
    </g>
    <g id="ytick_29">
     <g id="line2d_38">
      <g>
       <use style="fill:#262626;stroke:#262626;" x="93.103125" xlink:href="#m321d747e90" y="143.179701"/>
      </g>
     </g>
     <g id="text_35">
      <!-- type -->
      <g style="fill:#262626;" transform="translate(63.223125 147.404076)scale(0.12 -0.12)">
       <use xlink:href="#ArialMT-116"/>
       <use x="27.783203" xlink:href="#ArialMT-121"/>
       <use x="77.783203" xlink:href="#ArialMT-112"/>
       <use x="133.398438" xlink:href="#ArialMT-101"/>
      </g>
     </g>
    </g>
    <g id="ytick_30">
     <g id="line2d_39">
      <g>
       <use style="fill:#262626;stroke:#262626;" x="93.103125" xlink:href="#m321d747e90" y="131.457313"/>
      </g>
     </g>
     <g id="text_36">
      <!-- rdna -->
      <g style="fill:#262626;" transform="translate(61.888125 135.752001)scale(0.12 -0.12)">
       <use xlink:href="#ArialMT-114"/>
       <use x="33.300781" xlink:href="#ArialMT-100"/>
       <use x="88.916016" xlink:href="#ArialMT-110"/>
       <use x="144.53125" xlink:href="#ArialMT-97"/>
      </g>
     </g>
    </g>
    <g id="ytick_31">
     <g id="line2d_40">
      <g>
       <use style="fill:#262626;stroke:#262626;" x="93.103125" xlink:href="#m321d747e90" y="119.734925"/>
      </g>
     </g>
     <g id="text_37">
      <!-- sars -->
      <g style="fill:#262626;" transform="translate(63.234375 124.029613)scale(0.12 -0.12)">
       <use xlink:href="#ArialMT-115"/>
       <use x="50" xlink:href="#ArialMT-97"/>
       <use x="105.615234" xlink:href="#ArialMT-114"/>
       <use x="138.916016" xlink:href="#ArialMT-115"/>
      </g>
     </g>
    </g>
    <g id="ytick_32">
     <g id="line2d_41">
      <g>
       <use style="fill:#262626;stroke:#262626;" x="93.103125" xlink:href="#m321d747e90" y="108.012537"/>
      </g>
     </g>
     <g id="text_38">
      <!-- coronavirus -->
      <g style="fill:#262626;" transform="translate(23.88 112.307225)scale(0.12 -0.12)">
       <use xlink:href="#ArialMT-99"/>
       <use x="50" xlink:href="#ArialMT-111"/>
       <use x="105.615234" xlink:href="#ArialMT-114"/>
       <use x="138.916016" xlink:href="#ArialMT-111"/>
       <use x="194.53125" xlink:href="#ArialMT-110"/>
       <use x="250.146484" xlink:href="#ArialMT-97"/>
       <use x="305.761719" xlink:href="#ArialMT-118"/>
       <use x="355.761719" xlink:href="#ArialMT-105"/>
       <use x="377.978516" xlink:href="#ArialMT-114"/>
       <use x="411.279297" xlink:href="#ArialMT-117"/>
       <use x="466.894531" xlink:href="#ArialMT-115"/>
      </g>
     </g>
    </g>
    <g id="ytick_33">
     <g id="line2d_42">
      <g>
       <use style="fill:#262626;stroke:#262626;" x="93.103125" xlink:href="#m321d747e90" y="96.290149"/>
      </g>
     </g>
     <g id="text_39">
      <!-- spike -->
      <defs>
       <path d="M 6.640625 0
L 6.640625 71.578125
L 15.4375 71.578125
L 15.4375 30.765625
L 36.234375 51.859375
L 47.609375 51.859375
L 27.78125 32.625
L 49.609375 0
L 38.765625 0
L 21.625 26.515625
L 15.4375 20.5625
L 15.4375 0
z
" id="ArialMT-107"/>
      </defs>
      <g style="fill:#262626;" transform="translate(57.890625 100.584837)scale(0.12 -0.12)">
       <use xlink:href="#ArialMT-115"/>
       <use x="50" xlink:href="#ArialMT-112"/>
       <use x="105.615234" xlink:href="#ArialMT-105"/>
       <use x="127.832031" xlink:href="#ArialMT-107"/>
       <use x="177.832031" xlink:href="#ArialMT-101"/>
      </g>
     </g>
    </g>
    <g id="ytick_34">
     <g id="line2d_43">
      <g>
       <use style="fill:#262626;stroke:#262626;" x="93.103125" xlink:href="#m321d747e90" y="84.567761"/>
      </g>
     </g>
     <g id="text_40">
      <!-- mutation -->
      <g style="fill:#262626;" transform="translate(39.88125 88.862449)scale(0.12 -0.12)">
       <use xlink:href="#ArialMT-109"/>
       <use x="83.300781" xlink:href="#ArialMT-117"/>
       <use x="138.916016" xlink:href="#ArialMT-116"/>
       <use x="166.699219" xlink:href="#ArialMT-97"/>
       <use x="222.314453" xlink:href="#ArialMT-116"/>
       <use x="250.097656" xlink:href="#ArialMT-105"/>
       <use x="272.314453" xlink:href="#ArialMT-111"/>
       <use x="327.929688" xlink:href="#ArialMT-110"/>
      </g>
     </g>
    </g>
    <g id="ytick_35">
     <g id="line2d_44">
      <g>
       <use style="fill:#262626;stroke:#262626;" x="93.103125" xlink:href="#m321d747e90" y="72.845373"/>
      </g>
     </g>
     <g id="text_41">
      <!-- strain -->
      <g style="fill:#262626;" transform="translate(56.56125 77.140061)scale(0.12 -0.12)">
       <use xlink:href="#ArialMT-115"/>
       <use x="50" xlink:href="#ArialMT-116"/>
       <use x="77.783203" xlink:href="#ArialMT-114"/>
       <use x="111.083984" xlink:href="#ArialMT-97"/>
       <use x="166.699219" xlink:href="#ArialMT-105"/>
       <use x="188.916016" xlink:href="#ArialMT-110"/>
      </g>
     </g>
    </g>
    <g id="ytick_36">
     <g id="line2d_45">
      <g>
       <use style="fill:#262626;stroke:#262626;" x="93.103125" xlink:href="#m321d747e90" y="61.122985"/>
      </g>
     </g>
     <g id="text_42">
      <!-- bead -->
      <g style="fill:#262626;" transform="translate(59.210625 65.417673)scale(0.12 -0.12)">
       <use xlink:href="#ArialMT-98"/>
       <use x="55.615234" xlink:href="#ArialMT-101"/>
       <use x="111.230469" xlink:href="#ArialMT-97"/>
       <use x="166.845703" xlink:href="#ArialMT-100"/>
      </g>
     </g>
    </g>
    <g id="ytick_37">
     <g id="line2d_46">
      <g>
       <use style="fill:#262626;stroke:#262626;" x="93.103125" xlink:href="#m321d747e90" y="49.400597"/>
      </g>
     </g>
     <g id="text_43">
      <!-- filament -->
      <g style="fill:#262626;" transform="translate(43.888125 53.695285)scale(0.12 -0.12)">
       <use xlink:href="#ArialMT-102"/>
       <use x="27.783203" xlink:href="#ArialMT-105"/>
       <use x="50" xlink:href="#ArialMT-108"/>
       <use x="72.216797" xlink:href="#ArialMT-97"/>
       <use x="127.832031" xlink:href="#ArialMT-109"/>
       <use x="211.132812" xlink:href="#ArialMT-101"/>
       <use x="266.748047" xlink:href="#ArialMT-110"/>
       <use x="322.363281" xlink:href="#ArialMT-116"/>
      </g>
     </g>
    </g>
    <g id="ytick_38">
     <g id="line2d_47">
      <g>
       <use style="fill:#262626;stroke:#262626;" x="93.103125" xlink:href="#m321d747e90" y="37.678209"/>
      </g>
     </g>
     <g id="text_44">
      <!-- supplementary -->
      <g style="fill:#262626;" transform="translate(7.2 41.972896)scale(0.12 -0.12)">
       <use xlink:href="#ArialMT-115"/>
       <use x="50" xlink:href="#ArialMT-117"/>
       <use x="105.615234" xlink:href="#ArialMT-112"/>
       <use x="161.230469" xlink:href="#ArialMT-112"/>
       <use x="216.845703" xlink:href="#ArialMT-108"/>
       <use x="239.0625" xlink:href="#ArialMT-101"/>
       <use x="294.677734" xlink:href="#ArialMT-109"/>
       <use x="377.978516" xlink:href="#ArialMT-101"/>
       <use x="433.59375" xlink:href="#ArialMT-110"/>
       <use x="489.208984" xlink:href="#ArialMT-116"/>
       <use x="516.992188" xlink:href="#ArialMT-97"/>
       <use x="572.607422" xlink:href="#ArialMT-114"/>
       <use x="605.908203" xlink:href="#ArialMT-121"/>
      </g>
     </g>
    </g>
    <g id="ytick_39">
     <g id="line2d_48">
      <g>
       <use style="fill:#262626;stroke:#262626;" x="93.103125" xlink:href="#m321d747e90" y="25.955821"/>
      </g>
     </g>
     <g id="text_45">
      <!-- line -->
      <g style="fill:#262626;" transform="translate(67.224375 30.250508)scale(0.12 -0.12)">
       <use xlink:href="#ArialMT-108"/>
       <use x="22.216797" xlink:href="#ArialMT-105"/>
       <use x="44.433594" xlink:href="#ArialMT-110"/>
       <use x="100.048828" xlink:href="#ArialMT-101"/>
      </g>
     </g>
    </g>
    <g id="ytick_40">
     <g id="line2d_49">
      <g>
       <use style="fill:#262626;stroke:#262626;" x="93.103125" xlink:href="#m321d747e90" y="14.233433"/>
      </g>
     </g>
     <g id="text_46">
      <!-- cov-2 -->
      <g style="fill:#262626;" transform="translate(56.56125 18.52812)scale(0.12 -0.12)">
       <use xlink:href="#ArialMT-99"/>
       <use x="50" xlink:href="#ArialMT-111"/>
       <use x="105.615234" xlink:href="#ArialMT-118"/>
       <use x="155.615234" xlink:href="#ArialMT-45"/>
       <use x="188.916016" xlink:href="#ArialMT-50"/>
      </g>
     </g>
    </g>
   </g>
   <g id="LineCollection_1">
    <path clip-path="url(#p0208cd34c3)" d="M 380.45371 298.501343
L 380.45371 292.640149
" style="fill:none;stroke:#253494;stroke-width:0.886227;"/>
    <path clip-path="url(#p0208cd34c3)" d="M 392.068457 298.501343
L 392.068457 292.640149
" style="fill:none;stroke:#253494;stroke-width:0.886227;"/>
    <path clip-path="url(#p0208cd34c3)" d="M 380.45371 295.570746
L 392.068457 295.570746
" style="fill:none;stroke:#253494;stroke-width:0.886227;"/>
   </g>
   <g id="LineCollection_2">
    <path clip-path="url(#p0208cd34c3)" d="M 401.231953 181.277463
L 401.231953 175.416269
" style="fill:none;stroke:#253494;stroke-width:0.886227;"/>
    <path clip-path="url(#p0208cd34c3)" d="M 417.533909 181.277463
L 417.533909 175.416269
" style="fill:none;stroke:#253494;stroke-width:0.886227;"/>
    <path clip-path="url(#p0208cd34c3)" d="M 401.231953 178.346866
L 417.533909 178.346866
" style="fill:none;stroke:#253494;stroke-width:0.886227;"/>
   </g>
   <g id="LineCollection_3">
    <path clip-path="url(#p0208cd34c3)" d="M 377.633297 321.946119
L 377.633297 316.084925
" style="fill:none;stroke:#253494;stroke-width:0.886227;"/>
    <path clip-path="url(#p0208cd34c3)" d="M 392.697424 321.946119
L 392.697424 316.084925
" style="fill:none;stroke:#253494;stroke-width:0.886227;"/>
    <path clip-path="url(#p0208cd34c3)" d="M 377.633297 319.015522
L 392.697424 319.015522
" style="fill:none;stroke:#253494;stroke-width:0.886227;"/>
   </g>
   <g id="LineCollection_4">
    <path clip-path="url(#p0208cd34c3)" d="M 407.792623 64.053582
L 407.792623 58.192388
" style="fill:none;stroke:#253494;stroke-width:0.886227;"/>
    <path clip-path="url(#p0208cd34c3)" d="M 423.071313 64.053582
L 423.071313 58.192388
" style="fill:none;stroke:#253494;stroke-width:0.886227;"/>
    <path clip-path="url(#p0208cd34c3)" d="M 407.792623 61.122985
L 423.071313 61.122985
" style="fill:none;stroke:#253494;stroke-width:0.886227;"/>
   </g>
   <g id="LineCollection_5">
    <path clip-path="url(#p0208cd34c3)" d="M 179.324704 462.614776
L 179.324704 456.753582
" style="fill:none;stroke:#253494;stroke-width:0.886227;"/>
    <path clip-path="url(#p0208cd34c3)" d="M 281.127374 462.614776
L 281.127374 456.753582
" style="fill:none;stroke:#253494;stroke-width:0.886227;"/>
    <path clip-path="url(#p0208cd34c3)" d="M 179.324704 459.684179
L 281.127374 459.684179
" style="fill:none;stroke:#253494;stroke-width:0.886227;"/>
   </g>
   <g id="LineCollection_6">
    <path clip-path="url(#p0208cd34c3)" d="M 370.521913 357.113284
L 370.521913 351.25209
" style="fill:none;stroke:#253494;stroke-width:0.886227;"/>
    <path clip-path="url(#p0208cd34c3)" d="M 386.714384 357.113284
L 386.714384 351.25209
" style="fill:none;stroke:#253494;stroke-width:0.886227;"/>
    <path clip-path="url(#p0208cd34c3)" d="M 370.521913 354.182687
L 386.714384 354.182687
" style="fill:none;stroke:#253494;stroke-width:0.886227;"/>
   </g>
   <g id="LineCollection_7">
    <path clip-path="url(#p0208cd34c3)" d="M 407.143467 110.943134
L 407.143467 105.08194
" style="fill:none;stroke:#253494;stroke-width:0.886227;"/>
    <path clip-path="url(#p0208cd34c3)" d="M 418.037031 110.943134
L 418.037031 105.08194
" style="fill:none;stroke:#253494;stroke-width:0.886227;"/>
    <path clip-path="url(#p0208cd34c3)" d="M 407.143467 108.012537
L 418.037031 108.012537
" style="fill:none;stroke:#253494;stroke-width:0.886227;"/>
   </g>
   <g id="LineCollection_8">
    <path clip-path="url(#p0208cd34c3)" d="M 415.128838 17.16403
L 415.128838 11.302836
" style="fill:none;stroke:#253494;stroke-width:0.886227;"/>
    <path clip-path="url(#p0208cd34c3)" d="M 422.95996 17.16403
L 422.95996 11.302836
" style="fill:none;stroke:#253494;stroke-width:0.886227;"/>
    <path clip-path="url(#p0208cd34c3)" d="M 415.128838 14.233433
L 422.95996 14.233433
" style="fill:none;stroke:#253494;stroke-width:0.886227;"/>
   </g>
   <g id="LineCollection_9">
    <path clip-path="url(#p0208cd34c3)" d="M 344.63618 415.725224
L 344.63618 409.86403
" style="fill:none;stroke:#253494;stroke-width:0.886227;"/>
    <path clip-path="url(#p0208cd34c3)" d="M 358.286148 415.725224
L 358.286148 409.86403
" style="fill:none;stroke:#253494;stroke-width:0.886227;"/>
    <path clip-path="url(#p0208cd34c3)" d="M 344.63618 412.794627
L 358.286148 412.794627
" style="fill:none;stroke:#253494;stroke-width:0.886227;"/>
   </g>
   <g id="LineCollection_10">
    <path clip-path="url(#p0208cd34c3)" d="M 401.218513 204.722239
L 401.218513 198.861045
" style="fill:none;stroke:#253494;stroke-width:0.886227;"/>
    <path clip-path="url(#p0208cd34c3)" d="M 417.140544 204.722239
L 417.140544 198.861045
" style="fill:none;stroke:#253494;stroke-width:0.886227;"/>
    <path clip-path="url(#p0208cd34c3)" d="M 401.218513 201.791642
L 417.140544 201.791642
" style="fill:none;stroke:#253494;stroke-width:0.886227;"/>
   </g>
   <g id="LineCollection_11">
    <path clip-path="url(#p0208cd34c3)" d="M 381.546637 310.223731
L 381.546637 304.362537
" style="fill:none;stroke:#253494;stroke-width:0.886227;"/>
    <path clip-path="url(#p0208cd34c3)" d="M 389.957212 310.223731
L 389.957212 304.362537
" style="fill:none;stroke:#253494;stroke-width:0.886227;"/>
    <path clip-path="url(#p0208cd34c3)" d="M 381.546637 307.293134
L 389.957212 307.293134
" style="fill:none;stroke:#253494;stroke-width:0.886227;"/>
   </g>
   <g id="LineCollection_12">
    <path clip-path="url(#p0208cd34c3)" d="M 407.377642 52.331194
L 407.377642 46.47
" style="fill:none;stroke:#253494;stroke-width:0.886227;"/>
    <path clip-path="url(#p0208cd34c3)" d="M 423.836009 52.331194
L 423.836009 46.47
" style="fill:none;stroke:#253494;stroke-width:0.886227;"/>
    <path clip-path="url(#p0208cd34c3)" d="M 407.377642 49.400597
L 423.836009 49.400597
" style="fill:none;stroke:#253494;stroke-width:0.886227;"/>
   </g>
   <g id="LineCollection_13">
    <path clip-path="url(#p0208cd34c3)" d="M 135.085308 474.337164
L 135.085308 468.47597
" style="fill:none;stroke:#253494;stroke-width:0.886227;"/>
    <path clip-path="url(#p0208cd34c3)" d="M 278.806694 474.337164
L 278.806694 468.47597
" style="fill:none;stroke:#253494;stroke-width:0.886227;"/>
    <path clip-path="url(#p0208cd34c3)" d="M 135.085308 471.406567
L 278.806694 471.406567
" style="fill:none;stroke:#253494;stroke-width:0.886227;"/>
   </g>
   <g id="LineCollection_14">
    <path clip-path="url(#p0208cd34c3)" d="M 382.050971 251.611791
L 382.050971 245.750597
" style="fill:none;stroke:#253494;stroke-width:0.886227;"/>
    <path clip-path="url(#p0208cd34c3)" d="M 395.738161 251.611791
L 395.738161 245.750597
" style="fill:none;stroke:#253494;stroke-width:0.886227;"/>
    <path clip-path="url(#p0208cd34c3)" d="M 382.050971 248.681194
L 395.738161 248.681194
" style="fill:none;stroke:#253494;stroke-width:0.886227;"/>
   </g>
   <g id="LineCollection_15">
    <path clip-path="url(#p0208cd34c3)" d="M 404.604421 192.999851
L 404.604421 187.138657
" style="fill:none;stroke:#253494;stroke-width:0.886227;"/>
    <path clip-path="url(#p0208cd34c3)" d="M 414.13856 192.999851
L 414.13856 187.138657
" style="fill:none;stroke:#253494;stroke-width:0.886227;"/>
    <path clip-path="url(#p0208cd34c3)" d="M 404.604421 190.069254
L 414.13856 190.069254
" style="fill:none;stroke:#253494;stroke-width:0.886227;"/>
   </g>
   <g id="LineCollection_16">
    <path clip-path="url(#p0208cd34c3)" d="M 380.306477 286.778955
L 380.306477 280.917761
" style="fill:none;stroke:#253494;stroke-width:0.886227;"/>
    <path clip-path="url(#p0208cd34c3)" d="M 392.733008 286.778955
L 392.733008 280.917761
" style="fill:none;stroke:#253494;stroke-width:0.886227;"/>
    <path clip-path="url(#p0208cd34c3)" d="M 380.306477 283.848358
L 392.733008 283.848358
" style="fill:none;stroke:#253494;stroke-width:0.886227;"/>
   </g>
   <g id="LineCollection_17">
    <path clip-path="url(#p0208cd34c3)" d="M 336.901361 427.447612
L 336.901361 421.586418
" style="fill:none;stroke:#253494;stroke-width:0.886227;"/>
    <path clip-path="url(#p0208cd34c3)" d="M 359.447919 427.447612
L 359.447919 421.586418
" style="fill:none;stroke:#253494;stroke-width:0.886227;"/>
    <path clip-path="url(#p0208cd34c3)" d="M 336.901361 424.517015
L 359.447919 424.517015
" style="fill:none;stroke:#253494;stroke-width:0.886227;"/>
   </g>
   <g id="LineCollection_18">
    <path clip-path="url(#p0208cd34c3)" d="M 409.714679 28.886418
L 409.714679 23.025224
" style="fill:none;stroke:#253494;stroke-width:0.886227;"/>
    <path clip-path="url(#p0208cd34c3)" d="M 422.58901 28.886418
L 422.58901 23.025224
" style="fill:none;stroke:#253494;stroke-width:0.886227;"/>
    <path clip-path="url(#p0208cd34c3)" d="M 409.714679 25.955821
L 422.58901 25.955821
" style="fill:none;stroke:#253494;stroke-width:0.886227;"/>
   </g>
   <g id="LineCollection_19">
    <path clip-path="url(#p0208cd34c3)" d="M 373.575813 345.390896
L 373.575813 339.529701
" style="fill:none;stroke:#253494;stroke-width:0.886227;"/>
    <path clip-path="url(#p0208cd34c3)" d="M 389.015062 345.390896
L 389.015062 339.529701
" style="fill:none;stroke:#253494;stroke-width:0.886227;"/>
    <path clip-path="url(#p0208cd34c3)" d="M 373.575813 342.460299
L 389.015062 342.460299
" style="fill:none;stroke:#253494;stroke-width:0.886227;"/>
   </g>
   <g id="LineCollection_20">
    <path clip-path="url(#p0208cd34c3)" d="M 374.535577 333.668507
L 374.535577 327.807313
" style="fill:none;stroke:#253494;stroke-width:0.886227;"/>
    <path clip-path="url(#p0208cd34c3)" d="M 388.516415 333.668507
L 388.516415 327.807313
" style="fill:none;stroke:#253494;stroke-width:0.886227;"/>
    <path clip-path="url(#p0208cd34c3)" d="M 374.535577 330.73791
L 388.516415 330.73791
" style="fill:none;stroke:#253494;stroke-width:0.886227;"/>
   </g>
   <g id="LineCollection_21">
    <path clip-path="url(#p0208cd34c3)" d="M 402.89136 157.832687
L 402.89136 151.971493
" style="fill:none;stroke:#253494;stroke-width:0.886227;"/>
    <path clip-path="url(#p0208cd34c3)" d="M 416.190632 157.832687
L 416.190632 151.971493
" style="fill:none;stroke:#253494;stroke-width:0.886227;"/>
    <path clip-path="url(#p0208cd34c3)" d="M 402.89136 154.90209
L 416.190632 154.90209
" style="fill:none;stroke:#253494;stroke-width:0.886227;"/>
   </g>
   <g id="LineCollection_22">
    <path clip-path="url(#p0208cd34c3)" d="M 379.759322 275.056567
L 379.759322 269.195373
" style="fill:none;stroke:#253494;stroke-width:0.886227;"/>
    <path clip-path="url(#p0208cd34c3)" d="M 395.337933 275.056567
L 395.337933 269.195373
" style="fill:none;stroke:#253494;stroke-width:0.886227;"/>
    <path clip-path="url(#p0208cd34c3)" d="M 379.759322 272.12597
L 395.337933 272.12597
" style="fill:none;stroke:#253494;stroke-width:0.886227;"/>
   </g>
   <g id="LineCollection_23">
    <path clip-path="url(#p0208cd34c3)" d="M 408.384324 87.498358
L 408.384324 81.637164
" style="fill:none;stroke:#253494;stroke-width:0.886227;"/>
    <path clip-path="url(#p0208cd34c3)" d="M 420.147978 87.498358
L 420.147978 81.637164
" style="fill:none;stroke:#253494;stroke-width:0.886227;"/>
    <path clip-path="url(#p0208cd34c3)" d="M 408.384324 84.567761
L 420.147978 84.567761
" style="fill:none;stroke:#253494;stroke-width:0.886227;"/>
   </g>
   <g id="LineCollection_24">
    <path clip-path="url(#p0208cd34c3)" d="M 333.029064 450.892388
L 333.029064 445.031194
" style="fill:none;stroke:#253494;stroke-width:0.886227;"/>
    <path clip-path="url(#p0208cd34c3)" d="M 358.581757 450.892388
L 358.581757 445.031194
" style="fill:none;stroke:#253494;stroke-width:0.886227;"/>
    <path clip-path="url(#p0208cd34c3)" d="M 333.029064 447.961791
L 358.581757 447.961791
" style="fill:none;stroke:#253494;stroke-width:0.886227;"/>
   </g>
   <g id="LineCollection_25">
    <path clip-path="url(#p0208cd34c3)" d="M 399.789447 239.889403
L 399.789447 234.028209
" style="fill:none;stroke:#253494;stroke-width:0.886227;"/>
    <path clip-path="url(#p0208cd34c3)" d="M 415.815886 239.889403
L 415.815886 234.028209
" style="fill:none;stroke:#253494;stroke-width:0.886227;"/>
    <path clip-path="url(#p0208cd34c3)" d="M 399.789447 236.958806
L 415.815886 236.958806
" style="fill:none;stroke:#253494;stroke-width:0.886227;"/>
   </g>
   <g id="LineCollection_26">
    <path clip-path="url(#p0208cd34c3)" d="M 402.725085 228.167015
L 402.725085 222.305821
" style="fill:none;stroke:#253494;stroke-width:0.886227;"/>
    <path clip-path="url(#p0208cd34c3)" d="M 414.034648 228.167015
L 414.034648 222.305821
" style="fill:none;stroke:#253494;stroke-width:0.886227;"/>
    <path clip-path="url(#p0208cd34c3)" d="M 402.725085 225.236418
L 414.034648 225.236418
" style="fill:none;stroke:#253494;stroke-width:0.886227;"/>
   </g>
   <g id="LineCollection_27">
    <path clip-path="url(#p0208cd34c3)" d="M 404.705592 134.38791
L 404.705592 128.526716
" style="fill:none;stroke:#253494;stroke-width:0.886227;"/>
    <path clip-path="url(#p0208cd34c3)" d="M 418.272277 134.38791
L 418.272277 128.526716
" style="fill:none;stroke:#253494;stroke-width:0.886227;"/>
    <path clip-path="url(#p0208cd34c3)" d="M 404.705592 131.457313
L 418.272277 131.457313
" style="fill:none;stroke:#253494;stroke-width:0.886227;"/>
   </g>
   <g id="LineCollection_28">
    <path clip-path="url(#p0208cd34c3)" d="M 403.046489 169.555075
L 403.046489 163.693881
" style="fill:none;stroke:#253494;stroke-width:0.886227;"/>
    <path clip-path="url(#p0208cd34c3)" d="M 415.797603 169.555075
L 415.797603 163.693881
" style="fill:none;stroke:#253494;stroke-width:0.886227;"/>
    <path clip-path="url(#p0208cd34c3)" d="M 403.046489 166.624478
L 415.797603 166.624478
" style="fill:none;stroke:#253494;stroke-width:0.886227;"/>
   </g>
   <g id="LineCollection_29">
    <path clip-path="url(#p0208cd34c3)" d="M 403.084802 216.444627
L 403.084802 210.583433
" style="fill:none;stroke:#253494;stroke-width:0.886227;"/>
    <path clip-path="url(#p0208cd34c3)" d="M 413.918411 216.444627
L 413.918411 210.583433
" style="fill:none;stroke:#253494;stroke-width:0.886227;"/>
    <path clip-path="url(#p0208cd34c3)" d="M 403.084802 213.51403
L 413.918411 213.51403
" style="fill:none;stroke:#253494;stroke-width:0.886227;"/>
   </g>
   <g id="LineCollection_30">
    <path clip-path="url(#p0208cd34c3)" d="M 409.770392 122.665522
L 409.770392 116.804328
" style="fill:none;stroke:#253494;stroke-width:0.886227;"/>
    <path clip-path="url(#p0208cd34c3)" d="M 415.216127 122.665522
L 415.216127 116.804328
" style="fill:none;stroke:#253494;stroke-width:0.886227;"/>
    <path clip-path="url(#p0208cd34c3)" d="M 409.770392 119.734925
L 415.216127 119.734925
" style="fill:none;stroke:#253494;stroke-width:0.886227;"/>
   </g>
   <g id="LineCollection_31">
    <path clip-path="url(#p0208cd34c3)" d="M 356.641712 404.002836
L 356.641712 398.141642
" style="fill:none;stroke:#253494;stroke-width:0.886227;"/>
    <path clip-path="url(#p0208cd34c3)" d="M 370.905338 404.002836
L 370.905338 398.141642
" style="fill:none;stroke:#253494;stroke-width:0.886227;"/>
    <path clip-path="url(#p0208cd34c3)" d="M 356.641712 401.072239
L 370.905338 401.072239
" style="fill:none;stroke:#253494;stroke-width:0.886227;"/>
   </g>
   <g id="LineCollection_32">
    <path clip-path="url(#p0208cd34c3)" d="M 406.705984 99.220746
L 406.705984 93.359552
" style="fill:none;stroke:#253494;stroke-width:0.886227;"/>
    <path clip-path="url(#p0208cd34c3)" d="M 421.22737 99.220746
L 421.22737 93.359552
" style="fill:none;stroke:#253494;stroke-width:0.886227;"/>
    <path clip-path="url(#p0208cd34c3)" d="M 406.705984 96.290149
L 421.22737 96.290149
" style="fill:none;stroke:#253494;stroke-width:0.886227;"/>
   </g>
   <g id="LineCollection_33">
    <path clip-path="url(#p0208cd34c3)" d="M 358.014748 392.280448
L 358.014748 386.419254
" style="fill:none;stroke:#253494;stroke-width:0.886227;"/>
    <path clip-path="url(#p0208cd34c3)" d="M 373.266407 392.280448
L 373.266407 386.419254
" style="fill:none;stroke:#253494;stroke-width:0.886227;"/>
    <path clip-path="url(#p0208cd34c3)" d="M 358.014748 389.349851
L 373.266407 389.349851
" style="fill:none;stroke:#253494;stroke-width:0.886227;"/>
   </g>
   <g id="LineCollection_34">
    <path clip-path="url(#p0208cd34c3)" d="M 407.388811 75.77597
L 407.388811 69.914776
" style="fill:none;stroke:#253494;stroke-width:0.886227;"/>
    <path clip-path="url(#p0208cd34c3)" d="M 422.70476 75.77597
L 422.70476 69.914776
" style="fill:none;stroke:#253494;stroke-width:0.886227;"/>
    <path clip-path="url(#p0208cd34c3)" d="M 407.388811 72.845373
L 422.70476 72.845373
" style="fill:none;stroke:#253494;stroke-width:0.886227;"/>
   </g>
   <g id="LineCollection_35">
    <path clip-path="url(#p0208cd34c3)" d="M 408.026311 40.608806
L 408.026311 34.747612
" style="fill:none;stroke:#253494;stroke-width:0.886227;"/>
    <path clip-path="url(#p0208cd34c3)" d="M 423.418387 40.608806
L 423.418387 34.747612
" style="fill:none;stroke:#253494;stroke-width:0.886227;"/>
    <path clip-path="url(#p0208cd34c3)" d="M 408.026311 37.678209
L 423.418387 37.678209
" style="fill:none;stroke:#253494;stroke-width:0.886227;"/>
   </g>
   <g id="LineCollection_36">
    <path clip-path="url(#p0208cd34c3)" d="M 362.124489 380.55806
L 362.124489 374.696866
" style="fill:none;stroke:#253494;stroke-width:0.886227;"/>
    <path clip-path="url(#p0208cd34c3)" d="M 379.66592 380.55806
L 379.66592 374.696866
" style="fill:none;stroke:#253494;stroke-width:0.886227;"/>
    <path clip-path="url(#p0208cd34c3)" d="M 362.124489 377.627463
L 379.66592 377.627463
" style="fill:none;stroke:#253494;stroke-width:0.886227;"/>
   </g>
   <g id="LineCollection_37">
    <path clip-path="url(#p0208cd34c3)" d="M 382.36108 263.334179
L 382.36108 257.472985
" style="fill:none;stroke:#253494;stroke-width:0.886227;"/>
    <path clip-path="url(#p0208cd34c3)" d="M 395.313167 263.334179
L 395.313167 257.472985
" style="fill:none;stroke:#253494;stroke-width:0.886227;"/>
    <path clip-path="url(#p0208cd34c3)" d="M 382.36108 260.403582
L 395.313167 260.403582
" style="fill:none;stroke:#253494;stroke-width:0.886227;"/>
   </g>
   <g id="LineCollection_38">
    <path clip-path="url(#p0208cd34c3)" d="M 335.405163 439.17
L 335.405163 433.308806
" style="fill:none;stroke:#253494;stroke-width:0.886227;"/>
    <path clip-path="url(#p0208cd34c3)" d="M 360.402732 439.17
L 360.402732 433.308806
" style="fill:none;stroke:#253494;stroke-width:0.886227;"/>
    <path clip-path="url(#p0208cd34c3)" d="M 335.405163 436.239403
L 360.402732 436.239403
" style="fill:none;stroke:#253494;stroke-width:0.886227;"/>
   </g>
   <g id="LineCollection_39">
    <path clip-path="url(#p0208cd34c3)" d="M 366.858931 368.835672
L 366.858931 362.974478
" style="fill:none;stroke:#253494;stroke-width:0.886227;"/>
    <path clip-path="url(#p0208cd34c3)" d="M 383.772458 368.835672
L 383.772458 362.974478
" style="fill:none;stroke:#253494;stroke-width:0.886227;"/>
    <path clip-path="url(#p0208cd34c3)" d="M 366.858931 365.905075
L 383.772458 365.905075
" style="fill:none;stroke:#253494;stroke-width:0.886227;"/>
   </g>
   <g id="LineCollection_40">
    <path clip-path="url(#p0208cd34c3)" d="M 403.753147 146.110299
L 403.753147 140.249104
" style="fill:none;stroke:#253494;stroke-width:0.886227;"/>
    <path clip-path="url(#p0208cd34c3)" d="M 417.679093 146.110299
L 417.679093 140.249104
" style="fill:none;stroke:#253494;stroke-width:0.886227;"/>
    <path clip-path="url(#p0208cd34c3)" d="M 403.753147 143.179701
L 417.679093 143.179701
" style="fill:none;stroke:#253494;stroke-width:0.886227;"/>
   </g>
   <g id="LineCollection_41">
    <path clip-path="url(#p0208cd34c3)" d="M 400.003125 478.44
L 400.003125 7.2
" style="fill:none;stroke:#808080;stroke-dasharray:3.27904,1.417963;stroke-dashoffset:0;stroke-width:0.886227;"/>
   </g>
   <g id="patch_3">
    <path d="M 93.103125 478.44
L 93.103125 7.2
" style="fill:none;stroke:#262626;stroke-linecap:square;stroke-linejoin:miter;"/>
   </g>
   <g id="patch_4">
    <path d="M 706.903125 478.44
L 706.903125 7.2
" style="fill:none;stroke:#262626;stroke-linecap:square;stroke-linejoin:miter;"/>
   </g>
   <g id="patch_5">
    <path d="M 93.103125 478.44
L 706.903125 478.44
" style="fill:none;stroke:#262626;stroke-linecap:square;stroke-linejoin:miter;"/>
   </g>
   <g id="patch_6">
    <path d="M 93.103125 7.2
L 706.903125 7.2
" style="fill:none;stroke:#262626;stroke-linecap:square;stroke-linejoin:miter;"/>
   </g>
   <g id="LineCollection_42">
    <path clip-path="url(#p0208cd34c3)" d="M 349.275852 20.094627
L 197.094034 20.094627
" style="fill:none;stroke:#000000;stroke-width:0.886227;"/>
   </g>
   <g id="PathCollection_1">
    <defs>
     <path d="M 203.329417 -503.588498
L 197.094034 -499.988498
L 203.329417 -496.388498
" id="m327e8f9276" style="stroke:#000000;stroke-width:0.886227;"/>
    </defs>
    <g clip-path="url(#p0208cd34c3)">
     <use style="fill-opacity:0;stroke:#000000;stroke-width:0.886227;" x="0" xlink:href="#m327e8f9276" y="520.083125"/>
    </g>
   </g>
   <g id="text_47">
    <g clip-path="url(#p0208cd34c3)">
     <!-- Preprint Enriched -->
     <defs>
      <path d="M 7.90625 0
L 7.90625 71.578125
L 59.671875 71.578125
L 59.671875 63.140625
L 17.390625 63.140625
L 17.390625 41.21875
L 56.984375 41.21875
L 56.984375 32.8125
L 17.390625 32.8125
L 17.390625 8.453125
L 61.328125 8.453125
L 61.328125 0
z
" id="ArialMT-69"/>
     </defs>
     <g style="opacity:0.698039;" transform="translate(226.831193 34.919202)scale(0.12 -0.12)">
      <use xlink:href="#ArialMT-80"/>
      <use x="66.699219" xlink:href="#ArialMT-114"/>
      <use x="100" xlink:href="#ArialMT-101"/>
      <use x="155.615234" xlink:href="#ArialMT-112"/>
      <use x="211.230469" xlink:href="#ArialMT-114"/>
      <use x="244.53125" xlink:href="#ArialMT-105"/>
      <use x="266.748047" xlink:href="#ArialMT-110"/>
      <use x="322.363281" xlink:href="#ArialMT-116"/>
      <use x="350.146484" xlink:href="#ArialMT-32"/>
      <use x="377.929688" xlink:href="#ArialMT-69"/>
      <use x="444.628906" xlink:href="#ArialMT-110"/>
      <use x="500.244141" xlink:href="#ArialMT-114"/>
      <use x="533.544922" xlink:href="#ArialMT-105"/>
      <use x="555.761719" xlink:href="#ArialMT-99"/>
      <use x="605.761719" xlink:href="#ArialMT-104"/>
      <use x="661.376953" xlink:href="#ArialMT-101"/>
      <use x="716.992188" xlink:href="#ArialMT-100"/>
     </g>
    </g>
   </g>
   <g id="LineCollection_43">
    <path clip-path="url(#p0208cd34c3)" d="M 450.730398 465.545373
L 602.912216 465.545373
" style="fill:none;stroke:#000000;stroke-width:0.886227;"/>
   </g>
   <g id="PathCollection_2">
    <defs>
     <path d="M 596.676833 -50.937752
L 602.912216 -54.537752
L 596.676833 -58.137752
" id="mf3fa61cfb5" style="stroke:#000000;stroke-width:0.886227;"/>
    </defs>
    <g clip-path="url(#p0208cd34c3)">
     <use style="fill-opacity:0;stroke:#000000;stroke-width:0.886227;" x="0" xlink:href="#mf3fa61cfb5" y="520.083125"/>
    </g>
   </g>
   <g id="text_48">
    <g clip-path="url(#p0208cd34c3)">
     <!-- Published Enriched -->
     <g style="opacity:0.698039;" transform="translate(475.123807 456.925173)scale(0.12 -0.12)">
      <use xlink:href="#ArialMT-80"/>
      <use x="66.699219" xlink:href="#ArialMT-117"/>
      <use x="122.314453" xlink:href="#ArialMT-98"/>
      <use x="177.929688" xlink:href="#ArialMT-108"/>
      <use x="200.146484" xlink:href="#ArialMT-105"/>
      <use x="222.363281" xlink:href="#ArialMT-115"/>
      <use x="272.363281" xlink:href="#ArialMT-104"/>
      <use x="327.978516" xlink:href="#ArialMT-101"/>
      <use x="383.59375" xlink:href="#ArialMT-100"/>
      <use x="439.208984" xlink:href="#ArialMT-32"/>
      <use x="466.992188" xlink:href="#ArialMT-69"/>
      <use x="533.691406" xlink:href="#ArialMT-110"/>
      <use x="589.306641" xlink:href="#ArialMT-114"/>
      <use x="622.607422" xlink:href="#ArialMT-105"/>
      <use x="644.824219" xlink:href="#ArialMT-99"/>
      <use x="694.824219" xlink:href="#ArialMT-104"/>
      <use x="750.439453" xlink:href="#ArialMT-101"/>
      <use x="806.054688" xlink:href="#ArialMT-100"/>
     </g>
    </g>
   </g>
  </g>
 </g>
 <defs>
  <clipPath id="p0208cd34c3">
   <rect height="471.24" width="613.8" x="93.103125" y="7.2"/>
  </clipPath>
 </defs>
</svg>
