<?xml version="1.0" encoding="utf-8" standalone="no"?>
<!DOCTYPE svg PUBLIC "-//W3C//DTD SVG 1.1//EN"
  "http://www.w3.org/Graphics/SVG/1.1/DTD/svg11.dtd">
<!-- Created with matplotlib (https://matplotlib.org/) -->
<svg height="541.617812pt" version="1.1" viewBox="0 0 751.467338 541.617812" width="751.467338pt" xmlns="http://www.w3.org/2000/svg" xmlns:xlink="http://www.w3.org/1999/xlink">
 <defs>
  <style type="text/css">
*{stroke-linecap:butt;stroke-linejoin:round;}
  </style>
 </defs>
 <g id="figure_1">
  <g id="patch_1">
   <path d="M 0 541.617812
L 751.467338 541.617812
L 751.467338 0
L 0 0
z
" style="fill:#ffffff;"/>
  </g>
  <g id="axes_1">
   <g id="patch_2">
    <path d="M 118.288125 498.44
L 421.588125 498.44
L 421.588125 27.2
L 118.288125 27.2
z
" style="fill:#ffffff;"/>
   </g>
   <g id="matplotlib.axis_1">
    <g id="xtick_1">
     <g id="line2d_1">
      <defs>
       <path d="M 0 0
L 0 4.8
" id="m0bc747f098" style="stroke:#262626;"/>
      </defs>
      <g>
       <use style="fill:#262626;stroke:#262626;" x="132.074489" xlink:href="#m0bc747f098" y="498.44"/>
      </g>
     </g>
     <g id="text_1">
      <!-- 0 -->
      <defs>
       <path d="M 4.15625 35.296875
Q 4.15625 48 6.765625 55.734375
Q 9.375 63.484375 14.515625 67.671875
Q 19.671875 71.875 27.484375 71.875
Q 33.25 71.875 37.59375 69.546875
Q 41.9375 67.234375 44.765625 62.859375
Q 47.609375 58.5 49.21875 52.21875
Q 50.828125 45.953125 50.828125 35.296875
Q 50.828125 22.703125 48.234375 14.96875
Q 45.65625 7.234375 40.5 3
Q 35.359375 -1.21875 27.484375 -1.21875
Q 17.140625 -1.21875 11.234375 6.203125
Q 4.15625 15.140625 4.15625 35.296875
z
M 13.1875 35.296875
Q 13.1875 17.671875 17.3125 11.828125
Q 21.4375 6 27.484375 6
Q 33.546875 6 37.671875 11.859375
Q 41.796875 17.71875 41.796875 35.296875
Q 41.796875 52.984375 37.671875 58.78125
Q 33.546875 64.59375 27.390625 64.59375
Q 21.34375 64.59375 17.71875 59.46875
Q 13.1875 52.9375 13.1875 35.296875
z
" id="ArialMT-48"/>
      </defs>
      <g style="fill:#262626;" transform="translate(128.737926 514.229375)scale(0.12 -0.12)">
       <use xlink:href="#ArialMT-48"/>
      </g>
     </g>
    </g>
    <g id="xtick_2">
     <g id="line2d_2">
      <g>
       <use style="fill:#262626;stroke:#262626;" x="234.120111" xlink:href="#m0bc747f098" y="498.44"/>
      </g>
     </g>
     <g id="text_2">
      <!-- 5e+02 -->
      <defs>
       <path d="M 4.15625 18.75
L 13.375 19.53125
Q 14.40625 12.796875 18.140625 9.390625
Q 21.875 6 27.15625 6
Q 33.5 6 37.890625 10.78125
Q 42.28125 15.578125 42.28125 23.484375
Q 42.28125 31 38.0625 35.34375
Q 33.84375 39.703125 27 39.703125
Q 22.75 39.703125 19.328125 37.765625
Q 15.921875 35.84375 13.96875 32.765625
L 5.71875 33.84375
L 12.640625 70.609375
L 48.25 70.609375
L 48.25 62.203125
L 19.671875 62.203125
L 15.828125 42.96875
Q 22.265625 47.46875 29.34375 47.46875
Q 38.71875 47.46875 45.15625 40.96875
Q 51.609375 34.46875 51.609375 24.265625
Q 51.609375 14.546875 45.953125 7.46875
Q 39.0625 -1.21875 27.15625 -1.21875
Q 17.390625 -1.21875 11.203125 4.25
Q 5.03125 9.71875 4.15625 18.75
z
" id="ArialMT-53"/>
       <path d="M 42.09375 16.703125
L 51.171875 15.578125
Q 49.03125 7.625 43.21875 3.21875
Q 37.40625 -1.171875 28.375 -1.171875
Q 17 -1.171875 10.328125 5.828125
Q 3.65625 12.84375 3.65625 25.484375
Q 3.65625 38.578125 10.390625 45.796875
Q 17.140625 53.03125 27.875 53.03125
Q 38.28125 53.03125 44.875 45.953125
Q 51.46875 38.875 51.46875 26.03125
Q 51.46875 25.25 51.421875 23.6875
L 12.75 23.6875
Q 13.234375 15.140625 17.578125 10.59375
Q 21.921875 6.0625 28.421875 6.0625
Q 33.25 6.0625 36.671875 8.59375
Q 40.09375 11.140625 42.09375 16.703125
z
M 13.234375 30.90625
L 42.1875 30.90625
Q 41.609375 37.453125 38.875 40.71875
Q 34.671875 45.796875 27.984375 45.796875
Q 21.921875 45.796875 17.796875 41.75
Q 13.671875 37.703125 13.234375 30.90625
z
" id="ArialMT-101"/>
       <path d="M 25.046875 11.578125
L 25.046875 31.203125
L 5.5625 31.203125
L 5.5625 39.40625
L 25.046875 39.40625
L 25.046875 58.890625
L 33.34375 58.890625
L 33.34375 39.40625
L 52.828125 39.40625
L 52.828125 31.203125
L 33.34375 31.203125
L 33.34375 11.578125
z
" id="ArialMT-43"/>
       <path d="M 50.34375 8.453125
L 50.34375 0
L 3.03125 0
Q 2.9375 3.171875 4.046875 6.109375
Q 5.859375 10.9375 9.828125 15.625
Q 13.8125 20.3125 21.34375 26.46875
Q 33.015625 36.03125 37.109375 41.625
Q 41.21875 47.21875 41.21875 52.203125
Q 41.21875 57.421875 37.46875 61
Q 33.734375 64.59375 27.734375 64.59375
Q 21.390625 64.59375 17.578125 60.78125
Q 13.765625 56.984375 13.71875 50.25
L 4.6875 51.171875
Q 5.609375 61.28125 11.65625 66.578125
Q 17.71875 71.875 27.9375 71.875
Q 38.234375 71.875 44.234375 66.15625
Q 50.25 60.453125 50.25 52
Q 50.25 47.703125 48.484375 43.546875
Q 46.734375 39.40625 42.65625 34.8125
Q 38.578125 30.21875 29.109375 22.21875
Q 21.1875 15.578125 18.9375 13.203125
Q 16.703125 10.84375 15.234375 8.453125
z
" id="ArialMT-50"/>
      </defs>
      <g style="fill:#262626;" transform="translate(217.269486 514.229375)scale(0.12 -0.12)">
       <use xlink:href="#ArialMT-53"/>
       <use x="55.615234" xlink:href="#ArialMT-101"/>
       <use x="111.230469" xlink:href="#ArialMT-43"/>
       <use x="169.628906" xlink:href="#ArialMT-48"/>
       <use x="225.244141" xlink:href="#ArialMT-50"/>
      </g>
     </g>
    </g>
    <g id="xtick_3">
     <g id="line2d_3">
      <g>
       <use style="fill:#262626;stroke:#262626;" x="336.165734" xlink:href="#m0bc747f098" y="498.44"/>
      </g>
     </g>
     <g id="text_3">
      <!-- 1e+03 -->
      <defs>
       <path d="M 37.25 0
L 28.46875 0
L 28.46875 56
Q 25.296875 52.984375 20.140625 49.953125
Q 14.984375 46.921875 10.890625 45.40625
L 10.890625 53.90625
Q 18.265625 57.375 23.78125 62.296875
Q 29.296875 67.234375 31.59375 71.875
L 37.25 71.875
z
" id="ArialMT-49"/>
       <path d="M 4.203125 18.890625
L 12.984375 20.0625
Q 14.5 12.59375 18.140625 9.296875
Q 21.78125 6 27 6
Q 33.203125 6 37.46875 10.296875
Q 41.75 14.59375 41.75 20.953125
Q 41.75 27 37.796875 30.921875
Q 33.84375 34.859375 27.734375 34.859375
Q 25.25 34.859375 21.53125 33.890625
L 22.515625 41.609375
Q 23.390625 41.5 23.921875 41.5
Q 29.546875 41.5 34.03125 44.421875
Q 38.53125 47.359375 38.53125 53.46875
Q 38.53125 58.296875 35.25 61.46875
Q 31.984375 64.65625 26.8125 64.65625
Q 21.6875 64.65625 18.265625 61.421875
Q 14.84375 58.203125 13.875 51.765625
L 5.078125 53.328125
Q 6.6875 62.15625 12.390625 67.015625
Q 18.109375 71.875 26.609375 71.875
Q 32.46875 71.875 37.390625 69.359375
Q 42.328125 66.84375 44.9375 62.5
Q 47.5625 58.15625 47.5625 53.265625
Q 47.5625 48.640625 45.0625 44.828125
Q 42.578125 41.015625 37.703125 38.765625
Q 44.046875 37.3125 47.5625 32.6875
Q 51.078125 28.078125 51.078125 21.140625
Q 51.078125 11.765625 44.234375 5.25
Q 37.40625 -1.265625 26.953125 -1.265625
Q 17.53125 -1.265625 11.296875 4.34375
Q 5.078125 9.96875 4.203125 18.890625
z
" id="ArialMT-51"/>
      </defs>
      <g style="fill:#262626;" transform="translate(319.315109 514.229375)scale(0.12 -0.12)">
       <use xlink:href="#ArialMT-49"/>
       <use x="55.615234" xlink:href="#ArialMT-101"/>
       <use x="111.230469" xlink:href="#ArialMT-43"/>
       <use x="169.628906" xlink:href="#ArialMT-48"/>
       <use x="225.244141" xlink:href="#ArialMT-51"/>
      </g>
     </g>
    </g>
    <g id="xtick_4">
     <g id="line2d_4">
      <defs>
       <path d="M 0 0
L 0 3.2
" id="m55c4cdfc90" style="stroke:#262626;stroke-width:0.8;"/>
      </defs>
      <g>
       <use style="fill:#262626;stroke:#262626;stroke-width:0.8;" x="183.0973" xlink:href="#m55c4cdfc90" y="498.44"/>
      </g>
     </g>
    </g>
    <g id="xtick_5">
     <g id="line2d_5">
      <g>
       <use style="fill:#262626;stroke:#262626;stroke-width:0.8;" x="285.142923" xlink:href="#m55c4cdfc90" y="498.44"/>
      </g>
     </g>
    </g>
    <g id="xtick_6">
     <g id="line2d_6">
      <g>
       <use style="fill:#262626;stroke:#262626;stroke-width:0.8;" x="387.188546" xlink:href="#m55c4cdfc90" y="498.44"/>
      </g>
     </g>
    </g>
   </g>
   <g id="matplotlib.axis_2">
    <g id="ytick_1">
     <g id="line2d_7">
      <defs>
       <path d="M 0 0
L -4.8 0
" id="m1c24495676" style="stroke:#262626;"/>
      </defs>
      <g>
       <use style="fill:#262626;stroke:#262626;" x="118.288125" xlink:href="#m1c24495676" y="491.406567"/>
      </g>
     </g>
     <g id="text_4">
      <!-- fviii -->
      <defs>
       <path d="M 8.6875 0
L 8.6875 45.015625
L 0.921875 45.015625
L 0.921875 51.859375
L 8.6875 51.859375
L 8.6875 57.375
Q 8.6875 62.59375 9.625 65.140625
Q 10.890625 68.5625 14.078125 70.671875
Q 17.28125 72.796875 23.046875 72.796875
Q 26.765625 72.796875 31.25 71.921875
L 29.9375 64.265625
Q 27.203125 64.75 24.75 64.75
Q 20.75 64.75 19.09375 63.03125
Q 17.4375 61.328125 17.4375 56.640625
L 17.4375 51.859375
L 27.546875 51.859375
L 27.546875 45.015625
L 17.4375 45.015625
L 17.4375 0
z
" id="ArialMT-102"/>
       <path d="M 21 0
L 1.265625 51.859375
L 10.546875 51.859375
L 21.6875 20.796875
Q 23.484375 15.765625 25 10.359375
Q 26.171875 14.453125 28.265625 20.21875
L 39.796875 51.859375
L 48.828125 51.859375
L 29.203125 0
z
" id="ArialMT-118"/>
       <path d="M 6.640625 61.46875
L 6.640625 71.578125
L 15.4375 71.578125
L 15.4375 61.46875
z
M 6.640625 0
L 6.640625 51.859375
L 15.4375 51.859375
L 15.4375 0
z
" id="ArialMT-105"/>
      </defs>
      <g style="fill:#262626;" transform="translate(88.209225 497.075555)scale(0.1584 -0.1584)">
       <use xlink:href="#ArialMT-102"/>
       <use x="27.783203" xlink:href="#ArialMT-118"/>
       <use x="77.783203" xlink:href="#ArialMT-105"/>
       <use x="100" xlink:href="#ArialMT-105"/>
       <use x="122.216797" xlink:href="#ArialMT-105"/>
      </g>
     </g>
    </g>
    <g id="ytick_2">
     <g id="line2d_8">
      <g>
       <use style="fill:#262626;stroke:#262626;" x="118.288125" xlink:href="#m1c24495676" y="479.684179"/>
      </g>
     </g>
     <g id="text_5">
      <!-- collagen -->
      <defs>
       <path d="M 40.4375 19
L 49.078125 17.875
Q 47.65625 8.9375 41.8125 3.875
Q 35.984375 -1.171875 27.484375 -1.171875
Q 16.84375 -1.171875 10.375 5.78125
Q 3.90625 12.75 3.90625 25.734375
Q 3.90625 34.125 6.6875 40.421875
Q 9.46875 46.734375 15.15625 49.875
Q 20.84375 53.03125 27.546875 53.03125
Q 35.984375 53.03125 41.359375 48.75
Q 46.734375 44.484375 48.25 36.625
L 39.703125 35.296875
Q 38.484375 40.53125 35.375 43.15625
Q 32.28125 45.796875 27.875 45.796875
Q 21.234375 45.796875 17.078125 41.03125
Q 12.9375 36.28125 12.9375 25.984375
Q 12.9375 15.53125 16.9375 10.796875
Q 20.953125 6.0625 27.390625 6.0625
Q 32.5625 6.0625 36.03125 9.234375
Q 39.5 12.40625 40.4375 19
z
" id="ArialMT-99"/>
       <path d="M 3.328125 25.921875
Q 3.328125 40.328125 11.328125 47.265625
Q 18.015625 53.03125 27.640625 53.03125
Q 38.328125 53.03125 45.109375 46.015625
Q 51.90625 39.015625 51.90625 26.65625
Q 51.90625 16.65625 48.90625 10.90625
Q 45.90625 5.171875 40.15625 2
Q 34.421875 -1.171875 27.640625 -1.171875
Q 16.75 -1.171875 10.03125 5.8125
Q 3.328125 12.796875 3.328125 25.921875
z
M 12.359375 25.921875
Q 12.359375 15.96875 16.703125 11.015625
Q 21.046875 6.0625 27.640625 6.0625
Q 34.1875 6.0625 38.53125 11.03125
Q 42.875 16.015625 42.875 26.21875
Q 42.875 35.84375 38.5 40.796875
Q 34.125 45.75 27.640625 45.75
Q 21.046875 45.75 16.703125 40.8125
Q 12.359375 35.890625 12.359375 25.921875
z
" id="ArialMT-111"/>
       <path d="M 6.390625 0
L 6.390625 71.578125
L 15.1875 71.578125
L 15.1875 0
z
" id="ArialMT-108"/>
       <path d="M 40.4375 6.390625
Q 35.546875 2.25 31.03125 0.53125
Q 26.515625 -1.171875 21.34375 -1.171875
Q 12.796875 -1.171875 8.203125 3
Q 3.609375 7.171875 3.609375 13.671875
Q 3.609375 17.484375 5.34375 20.625
Q 7.078125 23.78125 9.890625 25.6875
Q 12.703125 27.59375 16.21875 28.5625
Q 18.796875 29.25 24.03125 29.890625
Q 34.671875 31.15625 39.703125 32.90625
Q 39.75 34.71875 39.75 35.203125
Q 39.75 40.578125 37.25 42.78125
Q 33.890625 45.75 27.25 45.75
Q 21.046875 45.75 18.09375 43.578125
Q 15.140625 41.40625 13.71875 35.890625
L 5.125 37.0625
Q 6.296875 42.578125 8.984375 45.96875
Q 11.671875 49.359375 16.75 51.1875
Q 21.828125 53.03125 28.515625 53.03125
Q 35.15625 53.03125 39.296875 51.46875
Q 43.453125 49.90625 45.40625 47.53125
Q 47.359375 45.171875 48.140625 41.546875
Q 48.578125 39.3125 48.578125 33.453125
L 48.578125 21.734375
Q 48.578125 9.46875 49.140625 6.21875
Q 49.703125 2.984375 51.375 0
L 42.1875 0
Q 40.828125 2.734375 40.4375 6.390625
z
M 39.703125 26.03125
Q 34.90625 24.078125 25.34375 22.703125
Q 19.921875 21.921875 17.671875 20.9375
Q 15.4375 19.96875 14.203125 18.09375
Q 12.984375 16.21875 12.984375 13.921875
Q 12.984375 10.40625 15.640625 8.0625
Q 18.3125 5.71875 23.4375 5.71875
Q 28.515625 5.71875 32.46875 7.9375
Q 36.421875 10.15625 38.28125 14.015625
Q 39.703125 17 39.703125 22.796875
z
" id="ArialMT-97"/>
       <path d="M 4.984375 -4.296875
L 13.53125 -5.5625
Q 14.0625 -9.515625 16.5 -11.328125
Q 19.78125 -13.765625 25.4375 -13.765625
Q 31.546875 -13.765625 34.859375 -11.328125
Q 38.1875 -8.890625 39.359375 -4.5
Q 40.046875 -1.8125 39.984375 6.78125
Q 34.234375 0 25.640625 0
Q 14.9375 0 9.078125 7.71875
Q 3.21875 15.4375 3.21875 26.21875
Q 3.21875 33.640625 5.90625 39.90625
Q 8.59375 46.1875 13.6875 49.609375
Q 18.796875 53.03125 25.6875 53.03125
Q 34.859375 53.03125 40.828125 45.609375
L 40.828125 51.859375
L 48.921875 51.859375
L 48.921875 7.03125
Q 48.921875 -5.078125 46.453125 -10.125
Q 44 -15.1875 38.640625 -18.109375
Q 33.296875 -21.046875 25.484375 -21.046875
Q 16.21875 -21.046875 10.5 -16.875
Q 4.78125 -12.703125 4.984375 -4.296875
z
M 12.25 26.859375
Q 12.25 16.65625 16.296875 11.96875
Q 20.359375 7.28125 26.46875 7.28125
Q 32.515625 7.28125 36.609375 11.9375
Q 40.71875 16.609375 40.71875 26.5625
Q 40.71875 36.078125 36.5 40.90625
Q 32.28125 45.75 26.3125 45.75
Q 20.453125 45.75 16.34375 40.984375
Q 12.25 36.234375 12.25 26.859375
z
" id="ArialMT-103"/>
       <path d="M 6.59375 0
L 6.59375 51.859375
L 14.5 51.859375
L 14.5 44.484375
Q 20.21875 53.03125 31 53.03125
Q 35.6875 53.03125 39.625 51.34375
Q 43.5625 49.65625 45.515625 46.921875
Q 47.46875 44.1875 48.25 40.4375
Q 48.734375 37.984375 48.734375 31.890625
L 48.734375 0
L 39.9375 0
L 39.9375 31.546875
Q 39.9375 36.921875 38.90625 39.578125
Q 37.890625 42.234375 35.28125 43.8125
Q 32.671875 45.40625 29.15625 45.40625
Q 23.53125 45.40625 19.453125 41.84375
Q 15.375 38.28125 15.375 28.328125
L 15.375 0
z
" id="ArialMT-110"/>
      </defs>
      <g style="fill:#262626;" transform="translate(52.0866 485.353167)scale(0.1584 -0.1584)">
       <use xlink:href="#ArialMT-99"/>
       <use x="50" xlink:href="#ArialMT-111"/>
       <use x="105.615234" xlink:href="#ArialMT-108"/>
       <use x="127.832031" xlink:href="#ArialMT-108"/>
       <use x="150.048828" xlink:href="#ArialMT-97"/>
       <use x="205.664062" xlink:href="#ArialMT-103"/>
       <use x="261.279297" xlink:href="#ArialMT-101"/>
       <use x="316.894531" xlink:href="#ArialMT-110"/>
      </g>
     </g>
    </g>
    <g id="ytick_3">
     <g id="line2d_9">
      <g>
       <use style="fill:#262626;stroke:#262626;" x="118.288125" xlink:href="#m1c24495676" y="467.961791"/>
      </g>
     </g>
     <g id="text_6">
      <!-- pair -->
      <defs>
       <path d="M 6.59375 -19.875
L 6.59375 51.859375
L 14.59375 51.859375
L 14.59375 45.125
Q 17.4375 49.078125 21 51.046875
Q 24.5625 53.03125 29.640625 53.03125
Q 36.28125 53.03125 41.359375 49.609375
Q 46.4375 46.1875 49.015625 39.953125
Q 51.609375 33.734375 51.609375 26.3125
Q 51.609375 18.359375 48.75 11.984375
Q 45.90625 5.609375 40.453125 2.21875
Q 35.015625 -1.171875 29 -1.171875
Q 24.609375 -1.171875 21.109375 0.6875
Q 17.625 2.546875 15.375 5.375
L 15.375 -19.875
z
M 14.546875 25.640625
Q 14.546875 15.625 18.59375 10.84375
Q 22.65625 6.0625 28.421875 6.0625
Q 34.28125 6.0625 38.453125 11.015625
Q 42.625 15.96875 42.625 26.375
Q 42.625 36.28125 38.546875 41.203125
Q 34.46875 46.140625 28.8125 46.140625
Q 23.1875 46.140625 18.859375 40.890625
Q 14.546875 35.640625 14.546875 25.640625
z
" id="ArialMT-112"/>
       <path d="M 6.5 0
L 6.5 51.859375
L 14.40625 51.859375
L 14.40625 44
Q 17.4375 49.515625 20 51.265625
Q 22.5625 53.03125 25.640625 53.03125
Q 30.078125 53.03125 34.671875 50.203125
L 31.640625 42.046875
Q 28.421875 43.953125 25.203125 43.953125
Q 22.3125 43.953125 20.015625 42.21875
Q 17.71875 40.484375 16.75 37.40625
Q 15.28125 32.71875 15.28125 27.15625
L 15.28125 0
z
" id="ArialMT-114"/>
      </defs>
      <g style="fill:#262626;" transform="translate(84.6774 473.630779)scale(0.1584 -0.1584)">
       <use xlink:href="#ArialMT-112"/>
       <use x="55.615234" xlink:href="#ArialMT-97"/>
       <use x="111.230469" xlink:href="#ArialMT-105"/>
       <use x="133.447266" xlink:href="#ArialMT-114"/>
      </g>
     </g>
    </g>
    <g id="ytick_4">
     <g id="line2d_10">
      <g>
       <use style="fill:#262626;stroke:#262626;" x="118.288125" xlink:href="#m1c24495676" y="456.239403"/>
      </g>
     </g>
     <g id="text_7">
      <!-- treat -->
      <defs>
       <path d="M 25.78125 7.859375
L 27.046875 0.09375
Q 23.34375 -0.6875 20.40625 -0.6875
Q 15.625 -0.6875 12.984375 0.828125
Q 10.359375 2.34375 9.28125 4.8125
Q 8.203125 7.28125 8.203125 15.1875
L 8.203125 45.015625
L 1.765625 45.015625
L 1.765625 51.859375
L 8.203125 51.859375
L 8.203125 64.703125
L 16.9375 69.96875
L 16.9375 51.859375
L 25.78125 51.859375
L 25.78125 45.015625
L 16.9375 45.015625
L 16.9375 14.703125
Q 16.9375 10.9375 17.40625 9.859375
Q 17.875 8.796875 18.921875 8.15625
Q 19.96875 7.515625 21.921875 7.515625
Q 23.390625 7.515625 25.78125 7.859375
z
" id="ArialMT-116"/>
      </defs>
      <g style="fill:#262626;" transform="translate(79.39575 461.90839)scale(0.1584 -0.1584)">
       <use xlink:href="#ArialMT-116"/>
       <use x="27.783203" xlink:href="#ArialMT-114"/>
       <use x="61.083984" xlink:href="#ArialMT-101"/>
       <use x="116.699219" xlink:href="#ArialMT-97"/>
       <use x="172.314453" xlink:href="#ArialMT-116"/>
      </g>
     </g>
    </g>
    <g id="ytick_5">
     <g id="line2d_11">
      <g>
       <use style="fill:#262626;stroke:#262626;" x="118.288125" xlink:href="#m1c24495676" y="444.517015"/>
      </g>
     </g>
     <g id="text_8">
      <!-- invasion -->
      <defs>
       <path d="M 3.078125 15.484375
L 11.765625 16.84375
Q 12.5 11.625 15.84375 8.84375
Q 19.1875 6.0625 25.203125 6.0625
Q 31.25 6.0625 34.171875 8.515625
Q 37.109375 10.984375 37.109375 14.3125
Q 37.109375 17.28125 34.515625 19
Q 32.71875 20.171875 25.53125 21.96875
Q 15.875 24.421875 12.140625 26.203125
Q 8.40625 27.984375 6.46875 31.125
Q 4.546875 34.28125 4.546875 38.09375
Q 4.546875 41.546875 6.125 44.5
Q 7.71875 47.46875 10.453125 49.421875
Q 12.5 50.921875 16.03125 51.96875
Q 19.578125 53.03125 23.640625 53.03125
Q 29.734375 53.03125 34.34375 51.265625
Q 38.96875 49.515625 41.15625 46.5
Q 43.359375 43.5 44.1875 38.484375
L 35.59375 37.3125
Q 35.015625 41.3125 32.203125 43.546875
Q 29.390625 45.796875 24.265625 45.796875
Q 18.21875 45.796875 15.625 43.796875
Q 13.03125 41.796875 13.03125 39.109375
Q 13.03125 37.40625 14.109375 36.03125
Q 15.1875 34.625 17.484375 33.6875
Q 18.796875 33.203125 25.25 31.453125
Q 34.578125 28.953125 38.25 27.359375
Q 41.9375 25.78125 44.03125 22.75
Q 46.140625 19.734375 46.140625 15.234375
Q 46.140625 10.84375 43.578125 6.953125
Q 41.015625 3.078125 36.171875 0.953125
Q 31.34375 -1.171875 25.25 -1.171875
Q 15.140625 -1.171875 9.84375 3.03125
Q 4.546875 7.234375 3.078125 15.484375
z
" id="ArialMT-115"/>
      </defs>
      <g style="fill:#262626;" transform="translate(52.975125 450.186002)scale(0.1584 -0.1584)">
       <use xlink:href="#ArialMT-105"/>
       <use x="22.216797" xlink:href="#ArialMT-110"/>
       <use x="77.832031" xlink:href="#ArialMT-118"/>
       <use x="127.832031" xlink:href="#ArialMT-97"/>
       <use x="183.447266" xlink:href="#ArialMT-115"/>
       <use x="233.447266" xlink:href="#ArialMT-105"/>
       <use x="255.664062" xlink:href="#ArialMT-111"/>
       <use x="311.279297" xlink:href="#ArialMT-110"/>
      </g>
     </g>
    </g>
    <g id="ytick_6">
     <g id="line2d_12">
      <g>
       <use style="fill:#262626;stroke:#262626;" x="118.288125" xlink:href="#m1c24495676" y="432.794627"/>
      </g>
     </g>
     <g id="text_9">
      <!-- dna -->
      <defs>
       <path d="M 40.234375 0
L 40.234375 6.546875
Q 35.296875 -1.171875 25.734375 -1.171875
Q 19.53125 -1.171875 14.328125 2.25
Q 9.125 5.671875 6.265625 11.796875
Q 3.421875 17.921875 3.421875 25.875
Q 3.421875 33.640625 6 39.96875
Q 8.59375 46.296875 13.765625 49.65625
Q 18.953125 53.03125 25.34375 53.03125
Q 30.03125 53.03125 33.6875 51.046875
Q 37.359375 49.078125 39.65625 45.90625
L 39.65625 71.578125
L 48.390625 71.578125
L 48.390625 0
z
M 12.453125 25.875
Q 12.453125 15.921875 16.640625 10.984375
Q 20.84375 6.0625 26.5625 6.0625
Q 32.328125 6.0625 36.34375 10.765625
Q 40.375 15.484375 40.375 25.140625
Q 40.375 35.796875 36.265625 40.765625
Q 32.171875 45.75 26.171875 45.75
Q 20.3125 45.75 16.375 40.96875
Q 12.453125 36.1875 12.453125 25.875
z
" id="ArialMT-100"/>
      </defs>
      <g style="fill:#262626;" transform="translate(84.66255 438.463614)scale(0.1584 -0.1584)">
       <use xlink:href="#ArialMT-100"/>
       <use x="55.615234" xlink:href="#ArialMT-110"/>
       <use x="111.230469" xlink:href="#ArialMT-97"/>
      </g>
     </g>
    </g>
    <g id="ytick_7">
     <g id="line2d_13">
      <g>
       <use style="fill:#262626;stroke:#262626;" x="118.288125" xlink:href="#m1c24495676" y="421.072239"/>
      </g>
     </g>
     <g id="text_10">
      <!-- specie -->
      <g style="fill:#262626;" transform="translate(65.3031 426.741226)scale(0.1584 -0.1584)">
       <use xlink:href="#ArialMT-115"/>
       <use x="50" xlink:href="#ArialMT-112"/>
       <use x="105.615234" xlink:href="#ArialMT-101"/>
       <use x="161.230469" xlink:href="#ArialMT-99"/>
       <use x="211.230469" xlink:href="#ArialMT-105"/>
       <use x="233.447266" xlink:href="#ArialMT-101"/>
      </g>
     </g>
    </g>
    <g id="ytick_8">
     <g id="line2d_14">
      <g>
       <use style="fill:#262626;stroke:#262626;" x="118.288125" xlink:href="#m1c24495676" y="409.349851"/>
      </g>
     </g>
     <g id="text_11">
      <!-- stage -->
      <g style="fill:#262626;" transform="translate(72.342 414.926026)scale(0.1584 -0.1584)">
       <use xlink:href="#ArialMT-115"/>
       <use x="50" xlink:href="#ArialMT-116"/>
       <use x="77.783203" xlink:href="#ArialMT-97"/>
       <use x="133.398438" xlink:href="#ArialMT-103"/>
       <use x="189.013672" xlink:href="#ArialMT-101"/>
      </g>
     </g>
    </g>
    <g id="ytick_9">
     <g id="line2d_15">
      <g>
       <use style="fill:#262626;stroke:#262626;" x="118.288125" xlink:href="#m1c24495676" y="397.627463"/>
      </g>
     </g>
     <g id="text_12">
      <!-- surface -->
      <defs>
       <path d="M 40.578125 0
L 40.578125 7.625
Q 34.515625 -1.171875 24.125 -1.171875
Q 19.53125 -1.171875 15.546875 0.578125
Q 11.578125 2.34375 9.640625 5
Q 7.71875 7.671875 6.9375 11.53125
Q 6.390625 14.109375 6.390625 19.734375
L 6.390625 51.859375
L 15.1875 51.859375
L 15.1875 23.09375
Q 15.1875 16.21875 15.71875 13.8125
Q 16.546875 10.359375 19.234375 8.375
Q 21.921875 6.390625 25.875 6.390625
Q 29.828125 6.390625 33.296875 8.421875
Q 36.765625 10.453125 38.203125 13.9375
Q 39.65625 17.4375 39.65625 24.078125
L 39.65625 51.859375
L 48.4375 51.859375
L 48.4375 0
z
" id="ArialMT-117"/>
      </defs>
      <g style="fill:#262626;" transform="translate(59.147775 403.29645)scale(0.1584 -0.1584)">
       <use xlink:href="#ArialMT-115"/>
       <use x="50" xlink:href="#ArialMT-117"/>
       <use x="105.615234" xlink:href="#ArialMT-114"/>
       <use x="138.916016" xlink:href="#ArialMT-102"/>
       <use x="166.699219" xlink:href="#ArialMT-97"/>
       <use x="222.314453" xlink:href="#ArialMT-99"/>
       <use x="272.314453" xlink:href="#ArialMT-101"/>
      </g>
     </g>
    </g>
    <g id="ytick_10">
     <g id="line2d_16">
      <g>
       <use style="fill:#262626;stroke:#262626;" x="118.288125" xlink:href="#m1c24495676" y="385.905075"/>
      </g>
     </g>
     <g id="text_13">
      <!-- treatment -->
      <defs>
       <path d="M 6.59375 0
L 6.59375 51.859375
L 14.453125 51.859375
L 14.453125 44.578125
Q 16.890625 48.390625 20.9375 50.703125
Q 25 53.03125 30.171875 53.03125
Q 35.9375 53.03125 39.625 50.640625
Q 43.3125 48.25 44.828125 43.953125
Q 50.984375 53.03125 60.84375 53.03125
Q 68.5625 53.03125 72.703125 48.75
Q 76.859375 44.484375 76.859375 35.59375
L 76.859375 0
L 68.109375 0
L 68.109375 32.671875
Q 68.109375 37.9375 67.25 40.25
Q 66.40625 42.578125 64.15625 43.984375
Q 61.921875 45.40625 58.890625 45.40625
Q 53.421875 45.40625 49.796875 41.765625
Q 46.1875 38.140625 46.1875 30.125
L 46.1875 0
L 37.40625 0
L 37.40625 33.6875
Q 37.40625 39.546875 35.25 42.46875
Q 33.109375 45.40625 28.21875 45.40625
Q 24.515625 45.40625 21.359375 43.453125
Q 18.21875 41.5 16.796875 37.734375
Q 15.375 33.984375 15.375 26.90625
L 15.375 0
z
" id="ArialMT-109"/>
      </defs>
      <g style="fill:#262626;" transform="translate(44.183925 391.574062)scale(0.1584 -0.1584)">
       <use xlink:href="#ArialMT-116"/>
       <use x="27.783203" xlink:href="#ArialMT-114"/>
       <use x="61.083984" xlink:href="#ArialMT-101"/>
       <use x="116.699219" xlink:href="#ArialMT-97"/>
       <use x="172.314453" xlink:href="#ArialMT-116"/>
       <use x="200.097656" xlink:href="#ArialMT-109"/>
       <use x="283.398438" xlink:href="#ArialMT-101"/>
       <use x="339.013672" xlink:href="#ArialMT-110"/>
       <use x="394.628906" xlink:href="#ArialMT-116"/>
      </g>
     </g>
    </g>
    <g id="ytick_11">
     <g id="line2d_17">
      <g>
       <use style="fill:#262626;stroke:#262626;" x="118.288125" xlink:href="#m1c24495676" y="374.182687"/>
      </g>
     </g>
     <g id="text_14">
      <!-- control -->
      <g style="fill:#262626;" transform="translate(63.548325 379.851674)scale(0.1584 -0.1584)">
       <use xlink:href="#ArialMT-99"/>
       <use x="50" xlink:href="#ArialMT-111"/>
       <use x="105.615234" xlink:href="#ArialMT-110"/>
       <use x="161.230469" xlink:href="#ArialMT-116"/>
       <use x="189.013672" xlink:href="#ArialMT-114"/>
       <use x="222.314453" xlink:href="#ArialMT-111"/>
       <use x="277.929688" xlink:href="#ArialMT-108"/>
      </g>
     </g>
    </g>
    <g id="ytick_12">
     <g id="line2d_18">
      <g>
       <use style="fill:#262626;stroke:#262626;" x="118.288125" xlink:href="#m1c24495676" y="362.460299"/>
      </g>
     </g>
     <g id="text_15">
      <!-- mers -->
      <g style="fill:#262626;" transform="translate(75.89115 368.129286)scale(0.1584 -0.1584)">
       <use xlink:href="#ArialMT-109"/>
       <use x="83.300781" xlink:href="#ArialMT-101"/>
       <use x="138.916016" xlink:href="#ArialMT-114"/>
       <use x="172.216797" xlink:href="#ArialMT-115"/>
      </g>
     </g>
    </g>
    <g id="ytick_13">
     <g id="line2d_19">
      <g>
       <use style="fill:#262626;stroke:#262626;" x="118.288125" xlink:href="#m1c24495676" y="350.73791"/>
      </g>
     </g>
     <g id="text_16">
      <!-- mm -->
      <g style="fill:#262626;" transform="translate(84.699675 356.406898)scale(0.1584 -0.1584)">
       <use xlink:href="#ArialMT-109"/>
       <use x="83.300781" xlink:href="#ArialMT-109"/>
      </g>
     </g>
    </g>
    <g id="ytick_14">
     <g id="line2d_20">
      <g>
       <use style="fill:#262626;stroke:#262626;" x="118.288125" xlink:href="#m1c24495676" y="339.015522"/>
      </g>
     </g>
     <g id="text_17">
      <!-- activity -->
      <defs>
       <path d="M 6.203125 -19.96875
L 5.21875 -11.71875
Q 8.109375 -12.5 10.25 -12.5
Q 13.1875 -12.5 14.9375 -11.515625
Q 16.703125 -10.546875 17.828125 -8.796875
Q 18.65625 -7.46875 20.515625 -2.25
Q 20.75 -1.515625 21.296875 -0.09375
L 1.609375 51.859375
L 11.078125 51.859375
L 21.875 21.828125
Q 23.96875 16.109375 25.640625 9.8125
Q 27.15625 15.875 29.25 21.625
L 40.328125 51.859375
L 49.125 51.859375
L 29.390625 -0.875
Q 26.21875 -9.421875 24.46875 -12.640625
Q 22.125 -17 19.09375 -19.015625
Q 16.0625 -21.046875 11.859375 -21.046875
Q 9.328125 -21.046875 6.203125 -19.96875
z
" id="ArialMT-121"/>
      </defs>
      <g style="fill:#262626;" transform="translate(62.6796 344.68451)scale(0.1584 -0.1584)">
       <use xlink:href="#ArialMT-97"/>
       <use x="55.615234" xlink:href="#ArialMT-99"/>
       <use x="105.615234" xlink:href="#ArialMT-116"/>
       <use x="133.398438" xlink:href="#ArialMT-105"/>
       <use x="155.615234" xlink:href="#ArialMT-118"/>
       <use x="205.615234" xlink:href="#ArialMT-105"/>
       <use x="227.832031" xlink:href="#ArialMT-116"/>
       <use x="255.615234" xlink:href="#ArialMT-121"/>
      </g>
     </g>
    </g>
    <g id="ytick_15">
     <g id="line2d_21">
      <g>
       <use style="fill:#262626;stroke:#262626;" x="118.288125" xlink:href="#m1c24495676" y="327.293134"/>
      </g>
     </g>
     <g id="text_18">
      <!-- figure -->
      <g style="fill:#262626;" transform="translate(71.468325 333.058647)scale(0.1584 -0.1584)">
       <use xlink:href="#ArialMT-102"/>
       <use x="27.783203" xlink:href="#ArialMT-105"/>
       <use x="50" xlink:href="#ArialMT-103"/>
       <use x="105.615234" xlink:href="#ArialMT-117"/>
       <use x="161.230469" xlink:href="#ArialMT-114"/>
       <use x="194.53125" xlink:href="#ArialMT-101"/>
      </g>
     </g>
    </g>
    <g id="ytick_16">
     <g id="line2d_22">
      <g>
       <use style="fill:#262626;stroke:#262626;" x="118.288125" xlink:href="#m1c24495676" y="315.570746"/>
      </g>
     </g>
     <g id="text_19">
      <!-- 2019-ncov -->
      <defs>
       <path d="M 5.46875 16.546875
L 13.921875 17.328125
Q 14.984375 11.375 18.015625 8.6875
Q 21.046875 6 25.78125 6
Q 29.828125 6 32.875 7.859375
Q 35.9375 9.71875 37.890625 12.8125
Q 39.84375 15.921875 41.15625 21.1875
Q 42.484375 26.46875 42.484375 31.9375
Q 42.484375 32.515625 42.4375 33.6875
Q 39.796875 29.5 35.234375 26.875
Q 30.671875 24.265625 25.34375 24.265625
Q 16.453125 24.265625 10.296875 30.703125
Q 4.15625 37.15625 4.15625 47.703125
Q 4.15625 58.59375 10.578125 65.234375
Q 17 71.875 26.65625 71.875
Q 33.640625 71.875 39.421875 68.109375
Q 45.21875 64.359375 48.21875 57.390625
Q 51.21875 50.4375 51.21875 37.25
Q 51.21875 23.53125 48.234375 15.40625
Q 45.265625 7.28125 39.375 3.03125
Q 33.5 -1.21875 25.59375 -1.21875
Q 17.1875 -1.21875 11.859375 3.4375
Q 6.546875 8.109375 5.46875 16.546875
z
M 41.453125 48.140625
Q 41.453125 55.71875 37.421875 60.15625
Q 33.40625 64.59375 27.734375 64.59375
Q 21.875 64.59375 17.53125 59.8125
Q 13.1875 55.03125 13.1875 47.40625
Q 13.1875 40.578125 17.3125 36.296875
Q 21.4375 32.03125 27.484375 32.03125
Q 33.59375 32.03125 37.515625 36.296875
Q 41.453125 40.578125 41.453125 48.140625
z
" id="ArialMT-57"/>
       <path d="M 3.171875 21.484375
L 3.171875 30.328125
L 30.171875 30.328125
L 30.171875 21.484375
z
" id="ArialMT-45"/>
      </defs>
      <g style="fill:#262626;" transform="translate(37.12275 321.239734)scale(0.1584 -0.1584)">
       <use xlink:href="#ArialMT-50"/>
       <use x="55.615234" xlink:href="#ArialMT-48"/>
       <use x="111.230469" xlink:href="#ArialMT-49"/>
       <use x="166.845703" xlink:href="#ArialMT-57"/>
       <use x="222.460938" xlink:href="#ArialMT-45"/>
       <use x="255.761719" xlink:href="#ArialMT-110"/>
       <use x="311.376953" xlink:href="#ArialMT-99"/>
       <use x="361.376953" xlink:href="#ArialMT-111"/>
       <use x="416.992188" xlink:href="#ArialMT-118"/>
      </g>
     </g>
    </g>
    <g id="ytick_17">
     <g id="line2d_23">
      <g>
       <use style="fill:#262626;stroke:#262626;" x="118.288125" xlink:href="#m1c24495676" y="303.848358"/>
      </g>
     </g>
     <g id="text_20">
      <!-- increase -->
      <g style="fill:#262626;" transform="translate(51.22035 309.517346)scale(0.1584 -0.1584)">
       <use xlink:href="#ArialMT-105"/>
       <use x="22.216797" xlink:href="#ArialMT-110"/>
       <use x="77.832031" xlink:href="#ArialMT-99"/>
       <use x="127.832031" xlink:href="#ArialMT-114"/>
       <use x="161.132812" xlink:href="#ArialMT-101"/>
       <use x="216.748047" xlink:href="#ArialMT-97"/>
       <use x="272.363281" xlink:href="#ArialMT-115"/>
       <use x="322.363281" xlink:href="#ArialMT-101"/>
      </g>
     </g>
    </g>
    <g id="ytick_18">
     <g id="line2d_24">
      <g>
       <use style="fill:#262626;stroke:#262626;" x="118.288125" xlink:href="#m1c24495676" y="292.12597"/>
      </g>
     </g>
     <g id="text_21">
      <!-- mutant -->
      <g style="fill:#262626;" transform="translate(62.667225 297.794958)scale(0.1584 -0.1584)">
       <use xlink:href="#ArialMT-109"/>
       <use x="83.300781" xlink:href="#ArialMT-117"/>
       <use x="138.916016" xlink:href="#ArialMT-116"/>
       <use x="166.699219" xlink:href="#ArialMT-97"/>
       <use x="222.314453" xlink:href="#ArialMT-110"/>
       <use x="277.929688" xlink:href="#ArialMT-116"/>
      </g>
     </g>
    </g>
    <g id="ytick_19">
     <g id="line2d_25">
      <g>
       <use style="fill:#262626;stroke:#262626;" x="118.288125" xlink:href="#m1c24495676" y="280.403582"/>
      </g>
     </g>
     <g id="text_22">
      <!-- target -->
      <g style="fill:#262626;" transform="translate(70.587225 285.979757)scale(0.1584 -0.1584)">
       <use xlink:href="#ArialMT-116"/>
       <use x="27.783203" xlink:href="#ArialMT-97"/>
       <use x="83.398438" xlink:href="#ArialMT-114"/>
       <use x="116.699219" xlink:href="#ArialMT-103"/>
       <use x="172.314453" xlink:href="#ArialMT-101"/>
       <use x="227.929688" xlink:href="#ArialMT-116"/>
      </g>
     </g>
    </g>
    <g id="ytick_20">
     <g id="line2d_26">
      <g>
       <use style="fill:#262626;stroke:#262626;" x="118.288125" xlink:href="#m1c24495676" y="268.681194"/>
      </g>
     </g>
     <g id="text_23">
      <!-- host -->
      <defs>
       <path d="M 6.59375 0
L 6.59375 71.578125
L 15.375 71.578125
L 15.375 45.90625
Q 21.53125 53.03125 30.90625 53.03125
Q 36.671875 53.03125 40.921875 50.75
Q 45.171875 48.484375 47 44.484375
Q 48.828125 40.484375 48.828125 32.859375
L 48.828125 0
L 40.046875 0
L 40.046875 32.859375
Q 40.046875 39.453125 37.1875 42.453125
Q 34.328125 45.453125 29.109375 45.453125
Q 25.203125 45.453125 21.75 43.421875
Q 18.3125 41.40625 16.84375 37.9375
Q 15.375 34.46875 15.375 28.375
L 15.375 0
z
" id="ArialMT-104"/>
      </defs>
      <g style="fill:#262626;" transform="translate(81.150525 274.350182)scale(0.1584 -0.1584)">
       <use xlink:href="#ArialMT-104"/>
       <use x="55.615234" xlink:href="#ArialMT-111"/>
       <use x="111.230469" xlink:href="#ArialMT-115"/>
       <use x="161.230469" xlink:href="#ArialMT-116"/>
      </g>
     </g>
    </g>
    <g id="ytick_21">
     <g id="line2d_27">
      <g>
       <use style="fill:#262626;stroke:#262626;" x="118.288125" xlink:href="#m1c24495676" y="256.958806"/>
      </g>
     </g>
     <g id="text_24">
      <!-- pcr -->
      <g style="fill:#262626;" transform="translate(89.085375 262.627793)scale(0.1584 -0.1584)">
       <use xlink:href="#ArialMT-112"/>
       <use x="55.615234" xlink:href="#ArialMT-99"/>
       <use x="105.615234" xlink:href="#ArialMT-114"/>
      </g>
     </g>
    </g>
    <g id="ytick_22">
     <g id="line2d_28">
      <g>
       <use style="fill:#262626;stroke:#262626;" x="118.288125" xlink:href="#m1c24495676" y="245.236418"/>
      </g>
     </g>
     <g id="text_25">
      <!-- rbd -->
      <defs>
       <path d="M 14.703125 0
L 6.546875 0
L 6.546875 71.578125
L 15.328125 71.578125
L 15.328125 46.046875
Q 20.90625 53.03125 29.546875 53.03125
Q 34.328125 53.03125 38.59375 51.09375
Q 42.875 49.171875 45.625 45.671875
Q 48.390625 42.1875 49.953125 37.25
Q 51.515625 32.328125 51.515625 26.703125
Q 51.515625 13.375 44.921875 6.09375
Q 38.328125 -1.171875 29.109375 -1.171875
Q 19.921875 -1.171875 14.703125 6.5
z
M 14.59375 26.3125
Q 14.59375 17 17.140625 12.84375
Q 21.296875 6.0625 28.375 6.0625
Q 34.125 6.0625 38.328125 11.0625
Q 42.53125 16.0625 42.53125 25.984375
Q 42.53125 36.140625 38.5 40.96875
Q 34.46875 45.796875 28.765625 45.796875
Q 23 45.796875 18.796875 40.796875
Q 14.59375 35.796875 14.59375 26.3125
z
" id="ArialMT-98"/>
      </defs>
      <g style="fill:#262626;" transform="translate(88.19685 250.905405)scale(0.1584 -0.1584)">
       <use xlink:href="#ArialMT-114"/>
       <use x="33.300781" xlink:href="#ArialMT-98"/>
       <use x="88.916016" xlink:href="#ArialMT-100"/>
      </g>
     </g>
    </g>
    <g id="ytick_23">
     <g id="line2d_29">
      <g>
       <use style="fill:#262626;stroke:#262626;" x="118.288125" xlink:href="#m1c24495676" y="233.51403"/>
      </g>
     </g>
     <g id="text_26">
      <!-- sample -->
      <g style="fill:#262626;" transform="translate(60.028875 239.183017)scale(0.1584 -0.1584)">
       <use xlink:href="#ArialMT-115"/>
       <use x="50" xlink:href="#ArialMT-97"/>
       <use x="105.615234" xlink:href="#ArialMT-109"/>
       <use x="188.916016" xlink:href="#ArialMT-112"/>
       <use x="244.53125" xlink:href="#ArialMT-108"/>
       <use x="266.748047" xlink:href="#ArialMT-101"/>
      </g>
     </g>
    </g>
    <g id="ytick_24">
     <g id="line2d_30">
      <g>
       <use style="fill:#262626;stroke:#262626;" x="118.288125" xlink:href="#m1c24495676" y="221.791642"/>
      </g>
     </g>
     <g id="text_27">
      <!-- epitope -->
      <g style="fill:#262626;" transform="translate(59.1255 227.460629)scale(0.1584 -0.1584)">
       <use xlink:href="#ArialMT-101"/>
       <use x="55.615234" xlink:href="#ArialMT-112"/>
       <use x="111.230469" xlink:href="#ArialMT-105"/>
       <use x="133.447266" xlink:href="#ArialMT-116"/>
       <use x="161.230469" xlink:href="#ArialMT-111"/>
       <use x="216.845703" xlink:href="#ArialMT-112"/>
       <use x="272.460938" xlink:href="#ArialMT-101"/>
      </g>
     </g>
    </g>
    <g id="ytick_25">
     <g id="line2d_31">
      <g>
       <use style="fill:#262626;stroke:#262626;" x="118.288125" xlink:href="#m1c24495676" y="210.069254"/>
      </g>
     </g>
     <g id="text_28">
      <!-- human -->
      <g style="fill:#262626;" transform="translate(62.6598 215.738241)scale(0.1584 -0.1584)">
       <use xlink:href="#ArialMT-104"/>
       <use x="55.615234" xlink:href="#ArialMT-117"/>
       <use x="111.230469" xlink:href="#ArialMT-109"/>
       <use x="194.53125" xlink:href="#ArialMT-97"/>
       <use x="250.146484" xlink:href="#ArialMT-110"/>
      </g>
     </g>
    </g>
    <g id="ytick_26">
     <g id="line2d_32">
      <g>
       <use style="fill:#262626;stroke:#262626;" x="118.288125" xlink:href="#m1c24495676" y="198.346866"/>
      </g>
     </g>
     <g id="text_29">
      <!-- actin -->
      <g style="fill:#262626;" transform="translate(77.631075 204.015853)scale(0.1584 -0.1584)">
       <use xlink:href="#ArialMT-97"/>
       <use x="55.615234" xlink:href="#ArialMT-99"/>
       <use x="105.615234" xlink:href="#ArialMT-116"/>
       <use x="133.398438" xlink:href="#ArialMT-105"/>
       <use x="155.615234" xlink:href="#ArialMT-110"/>
      </g>
     </g>
    </g>
    <g id="ytick_27">
     <g id="line2d_33">
      <g>
       <use style="fill:#262626;stroke:#262626;" x="118.288125" xlink:href="#m1c24495676" y="186.624478"/>
      </g>
     </g>
     <g id="text_30">
      <!-- report -->
      <g style="fill:#262626;" transform="translate(69.71355 192.293465)scale(0.1584 -0.1584)">
       <use xlink:href="#ArialMT-114"/>
       <use x="33.300781" xlink:href="#ArialMT-101"/>
       <use x="88.916016" xlink:href="#ArialMT-112"/>
       <use x="144.53125" xlink:href="#ArialMT-111"/>
       <use x="200.146484" xlink:href="#ArialMT-114"/>
       <use x="233.447266" xlink:href="#ArialMT-116"/>
      </g>
     </g>
    </g>
    <g id="ytick_28">
     <g id="line2d_34">
      <g>
       <use style="fill:#262626;stroke:#262626;" x="118.288125" xlink:href="#m1c24495676" y="174.90209"/>
      </g>
     </g>
     <g id="text_31">
      <!-- module -->
      <g style="fill:#262626;" transform="translate(59.14035 180.571077)scale(0.1584 -0.1584)">
       <use xlink:href="#ArialMT-109"/>
       <use x="83.300781" xlink:href="#ArialMT-111"/>
       <use x="138.916016" xlink:href="#ArialMT-100"/>
       <use x="194.53125" xlink:href="#ArialMT-117"/>
       <use x="250.146484" xlink:href="#ArialMT-108"/>
       <use x="272.363281" xlink:href="#ArialMT-101"/>
      </g>
     </g>
    </g>
    <g id="ytick_29">
     <g id="line2d_35">
      <g>
       <use style="fill:#262626;stroke:#262626;" x="118.288125" xlink:href="#m1c24495676" y="163.179701"/>
      </g>
     </g>
     <g id="text_32">
      <!-- type -->
      <g style="fill:#262626;" transform="translate(81.150525 168.755876)scale(0.1584 -0.1584)">
       <use xlink:href="#ArialMT-116"/>
       <use x="27.783203" xlink:href="#ArialMT-121"/>
       <use x="77.783203" xlink:href="#ArialMT-112"/>
       <use x="133.398438" xlink:href="#ArialMT-101"/>
      </g>
     </g>
    </g>
    <g id="ytick_30">
     <g id="line2d_36">
      <g>
       <use style="fill:#262626;stroke:#262626;" x="118.288125" xlink:href="#m1c24495676" y="151.457313"/>
      </g>
     </g>
     <g id="text_33">
      <!-- rdna -->
      <g style="fill:#262626;" transform="translate(79.388325 157.126301)scale(0.1584 -0.1584)">
       <use xlink:href="#ArialMT-114"/>
       <use x="33.300781" xlink:href="#ArialMT-100"/>
       <use x="88.916016" xlink:href="#ArialMT-110"/>
       <use x="144.53125" xlink:href="#ArialMT-97"/>
      </g>
     </g>
    </g>
    <g id="ytick_31">
     <g id="line2d_37">
      <g>
       <use style="fill:#262626;stroke:#262626;" x="118.288125" xlink:href="#m1c24495676" y="139.734925"/>
      </g>
     </g>
     <g id="text_34">
      <!-- sars -->
      <g style="fill:#262626;" transform="translate(81.165375 145.403913)scale(0.1584 -0.1584)">
       <use xlink:href="#ArialMT-115"/>
       <use x="50" xlink:href="#ArialMT-97"/>
       <use x="105.615234" xlink:href="#ArialMT-114"/>
       <use x="138.916016" xlink:href="#ArialMT-115"/>
      </g>
     </g>
    </g>
    <g id="ytick_32">
     <g id="line2d_38">
      <g>
       <use style="fill:#262626;stroke:#262626;" x="118.288125" xlink:href="#m1c24495676" y="128.012537"/>
      </g>
     </g>
     <g id="text_35">
      <!-- coronavirus -->
      <g style="fill:#262626;" transform="translate(29.2176 133.681525)scale(0.1584 -0.1584)">
       <use xlink:href="#ArialMT-99"/>
       <use x="50" xlink:href="#ArialMT-111"/>
       <use x="105.615234" xlink:href="#ArialMT-114"/>
       <use x="138.916016" xlink:href="#ArialMT-111"/>
       <use x="194.53125" xlink:href="#ArialMT-110"/>
       <use x="250.146484" xlink:href="#ArialMT-97"/>
       <use x="305.761719" xlink:href="#ArialMT-118"/>
       <use x="355.761719" xlink:href="#ArialMT-105"/>
       <use x="377.978516" xlink:href="#ArialMT-114"/>
       <use x="411.279297" xlink:href="#ArialMT-117"/>
       <use x="466.894531" xlink:href="#ArialMT-115"/>
      </g>
     </g>
    </g>
    <g id="ytick_33">
     <g id="line2d_39">
      <g>
       <use style="fill:#262626;stroke:#262626;" x="118.288125" xlink:href="#m1c24495676" y="116.290149"/>
      </g>
     </g>
     <g id="text_36">
      <!-- spike -->
      <defs>
       <path d="M 6.640625 0
L 6.640625 71.578125
L 15.4375 71.578125
L 15.4375 30.765625
L 36.234375 51.859375
L 47.609375 51.859375
L 27.78125 32.625
L 49.609375 0
L 38.765625 0
L 21.625 26.515625
L 15.4375 20.5625
L 15.4375 0
z
" id="ArialMT-107"/>
      </defs>
      <g style="fill:#262626;" transform="translate(74.111625 121.959137)scale(0.1584 -0.1584)">
       <use xlink:href="#ArialMT-115"/>
       <use x="50" xlink:href="#ArialMT-112"/>
       <use x="105.615234" xlink:href="#ArialMT-105"/>
       <use x="127.832031" xlink:href="#ArialMT-107"/>
       <use x="177.832031" xlink:href="#ArialMT-101"/>
      </g>
     </g>
    </g>
    <g id="ytick_34">
     <g id="line2d_40">
      <g>
       <use style="fill:#262626;stroke:#262626;" x="118.288125" xlink:href="#m1c24495676" y="104.567761"/>
      </g>
     </g>
     <g id="text_37">
      <!-- mutation -->
      <g style="fill:#262626;" transform="translate(50.33925 110.236749)scale(0.1584 -0.1584)">
       <use xlink:href="#ArialMT-109"/>
       <use x="83.300781" xlink:href="#ArialMT-117"/>
       <use x="138.916016" xlink:href="#ArialMT-116"/>
       <use x="166.699219" xlink:href="#ArialMT-97"/>
       <use x="222.314453" xlink:href="#ArialMT-116"/>
       <use x="250.097656" xlink:href="#ArialMT-105"/>
       <use x="272.314453" xlink:href="#ArialMT-111"/>
       <use x="327.929688" xlink:href="#ArialMT-110"/>
      </g>
     </g>
    </g>
    <g id="ytick_35">
     <g id="line2d_41">
      <g>
       <use style="fill:#262626;stroke:#262626;" x="118.288125" xlink:href="#m1c24495676" y="92.845373"/>
      </g>
     </g>
     <g id="text_38">
      <!-- strain -->
      <g style="fill:#262626;" transform="translate(72.35685 98.514361)scale(0.1584 -0.1584)">
       <use xlink:href="#ArialMT-115"/>
       <use x="50" xlink:href="#ArialMT-116"/>
       <use x="77.783203" xlink:href="#ArialMT-114"/>
       <use x="111.083984" xlink:href="#ArialMT-97"/>
       <use x="166.699219" xlink:href="#ArialMT-105"/>
       <use x="188.916016" xlink:href="#ArialMT-110"/>
      </g>
     </g>
    </g>
    <g id="ytick_36">
     <g id="line2d_42">
      <g>
       <use style="fill:#262626;stroke:#262626;" x="118.288125" xlink:href="#m1c24495676" y="81.122985"/>
      </g>
     </g>
     <g id="text_39">
      <!-- bead -->
      <g style="fill:#262626;" transform="translate(75.854025 86.791973)scale(0.1584 -0.1584)">
       <use xlink:href="#ArialMT-98"/>
       <use x="55.615234" xlink:href="#ArialMT-101"/>
       <use x="111.230469" xlink:href="#ArialMT-97"/>
       <use x="166.845703" xlink:href="#ArialMT-100"/>
      </g>
     </g>
    </g>
    <g id="ytick_37">
     <g id="line2d_43">
      <g>
       <use style="fill:#262626;stroke:#262626;" x="118.288125" xlink:href="#m1c24495676" y="69.400597"/>
      </g>
     </g>
     <g id="text_40">
      <!-- filament -->
      <g style="fill:#262626;" transform="translate(55.628325 75.069585)scale(0.1584 -0.1584)">
       <use xlink:href="#ArialMT-102"/>
       <use x="27.783203" xlink:href="#ArialMT-105"/>
       <use x="50" xlink:href="#ArialMT-108"/>
       <use x="72.216797" xlink:href="#ArialMT-97"/>
       <use x="127.832031" xlink:href="#ArialMT-109"/>
       <use x="211.132812" xlink:href="#ArialMT-101"/>
       <use x="266.748047" xlink:href="#ArialMT-110"/>
       <use x="322.363281" xlink:href="#ArialMT-116"/>
      </g>
     </g>
    </g>
    <g id="ytick_38">
     <g id="line2d_44">
      <g>
       <use style="fill:#262626;stroke:#262626;" x="118.288125" xlink:href="#m1c24495676" y="57.678209"/>
      </g>
     </g>
     <g id="text_41">
      <!-- supplementary -->
      <g style="fill:#262626;" transform="translate(7.2 63.347196)scale(0.1584 -0.1584)">
       <use xlink:href="#ArialMT-115"/>
       <use x="50" xlink:href="#ArialMT-117"/>
       <use x="105.615234" xlink:href="#ArialMT-112"/>
       <use x="161.230469" xlink:href="#ArialMT-112"/>
       <use x="216.845703" xlink:href="#ArialMT-108"/>
       <use x="239.0625" xlink:href="#ArialMT-101"/>
       <use x="294.677734" xlink:href="#ArialMT-109"/>
       <use x="377.978516" xlink:href="#ArialMT-101"/>
       <use x="433.59375" xlink:href="#ArialMT-110"/>
       <use x="489.208984" xlink:href="#ArialMT-116"/>
       <use x="516.992188" xlink:href="#ArialMT-97"/>
       <use x="572.607422" xlink:href="#ArialMT-114"/>
       <use x="605.908203" xlink:href="#ArialMT-121"/>
      </g>
     </g>
    </g>
    <g id="ytick_39">
     <g id="line2d_45">
      <g>
       <use style="fill:#262626;stroke:#262626;" x="118.288125" xlink:href="#m1c24495676" y="45.955821"/>
      </g>
     </g>
     <g id="text_42">
      <!-- line -->
      <g style="fill:#262626;" transform="translate(86.432175 51.624808)scale(0.1584 -0.1584)">
       <use xlink:href="#ArialMT-108"/>
       <use x="22.216797" xlink:href="#ArialMT-105"/>
       <use x="44.433594" xlink:href="#ArialMT-110"/>
       <use x="100.048828" xlink:href="#ArialMT-101"/>
      </g>
     </g>
    </g>
    <g id="ytick_40">
     <g id="line2d_46">
      <g>
       <use style="fill:#262626;stroke:#262626;" x="118.288125" xlink:href="#m1c24495676" y="34.233433"/>
      </g>
     </g>
     <g id="text_43">
      <!-- cov-2 -->
      <g style="fill:#262626;" transform="translate(72.35685 39.90242)scale(0.1584 -0.1584)">
       <use xlink:href="#ArialMT-99"/>
       <use x="50" xlink:href="#ArialMT-111"/>
       <use x="105.615234" xlink:href="#ArialMT-118"/>
       <use x="155.615234" xlink:href="#ArialMT-45"/>
       <use x="188.916016" xlink:href="#ArialMT-50"/>
      </g>
     </g>
    </g>
   </g>
   <g id="PolyCollection_1">
    <path clip-path="url(#p0eb0331b2a)" d="M 132.074489 496.681642
L 132.074489 486.131493
L 184.321847 486.131493
L 184.321847 496.681642
z
" style="fill:#253494;"/>
    <path clip-path="url(#p0eb0331b2a)" d="M 132.074489 484.959254
L 132.074489 474.409104
L 187.383216 474.409104
L 187.383216 484.959254
z
" style="fill:#253494;"/>
    <path clip-path="url(#p0eb0331b2a)" d="M 132.074489 473.236866
L 132.074489 462.686716
L 175.545924 462.686716
L 175.545924 473.236866
z
" style="fill:#253494;"/>
    <path clip-path="url(#p0eb0331b2a)" d="M 132.074489 461.514478
L 132.074489 450.964328
L 175.341833 450.964328
L 175.341833 461.514478
z
" style="fill:#253494;"/>
    <path clip-path="url(#p0eb0331b2a)" d="M 132.074489 449.79209
L 132.074489 439.24194
L 184.934121 439.24194
L 184.934121 449.79209
z
" style="fill:#253494;"/>
    <path clip-path="url(#p0eb0331b2a)" d="M 132.074489 438.069701
L 132.074489 427.519552
L 265.958346 427.519552
L 265.958346 438.069701
z
" style="fill:#253494;"/>
    <path clip-path="url(#p0eb0331b2a)" d="M 132.074489 426.347313
L 132.074489 415.797164
L 225.548279 415.797164
L 225.548279 426.347313
z
" style="fill:#253494;"/>
    <path clip-path="url(#p0eb0331b2a)" d="M 132.074489 414.624925
L 132.074489 404.074776
L 210.649618 404.074776
L 210.649618 414.624925
z
" style="fill:#253494;"/>
    <path clip-path="url(#p0eb0331b2a)" d="M 132.074489 402.902537
L 132.074489 392.352388
L 185.342304 392.352388
L 185.342304 402.902537
z
" style="fill:#253494;"/>
    <path clip-path="url(#p0eb0331b2a)" d="M 132.074489 391.180149
L 132.074489 380.63
L 184.525939 380.63
L 184.525939 391.180149
z
" style="fill:#253494;"/>
    <path clip-path="url(#p0eb0331b2a)" d="M 132.074489 379.457761
L 132.074489 368.907612
L 185.750486 368.907612
L 185.750486 379.457761
z
" style="fill:#253494;"/>
    <path clip-path="url(#p0eb0331b2a)" d="M 132.074489 367.735373
L 132.074489 357.185224
L 188.199581 357.185224
L 188.199581 367.735373
z
" style="fill:#253494;"/>
    <path clip-path="url(#p0eb0331b2a)" d="M 132.074489 356.012985
L 132.074489 345.462836
L 200.240965 345.462836
L 200.240965 356.012985
z
" style="fill:#253494;"/>
    <path clip-path="url(#p0eb0331b2a)" d="M 132.074489 344.290597
L 132.074489 333.740448
L 186.975034 333.740448
L 186.975034 344.290597
z
" style="fill:#253494;"/>
    <path clip-path="url(#p0eb0331b2a)" d="M 132.074489 332.568209
L 132.074489 322.01806
L 306.776595 322.01806
L 306.776595 332.568209
z
" style="fill:#253494;"/>
    <path clip-path="url(#p0eb0331b2a)" d="M 132.074489 320.845821
L 132.074489 310.295672
L 222.691002 310.295672
L 222.691002 320.845821
z
" style="fill:#253494;"/>
    <path clip-path="url(#p0eb0331b2a)" d="M 132.074489 309.123433
L 132.074489 298.573284
L 210.853709 298.573284
L 210.853709 309.123433
z
" style="fill:#253494;"/>
    <path clip-path="url(#p0eb0331b2a)" d="M 132.074489 297.401045
L 132.074489 286.850896
L 181.260479 286.850896
L 181.260479 297.401045
z
" style="fill:#253494;"/>
    <path clip-path="url(#p0eb0331b2a)" d="M 132.074489 285.678657
L 132.074489 275.128507
L 201.669603 275.128507
L 201.669603 285.678657
z
" style="fill:#253494;"/>
    <path clip-path="url(#p0eb0331b2a)" d="M 132.074489 273.956269
L 132.074489 263.406119
L 194.322319 263.406119
L 194.322319 273.956269
z
" style="fill:#253494;"/>
    <path clip-path="url(#p0eb0331b2a)" d="M 132.074489 262.233881
L 132.074489 251.683731
L 165.749544 251.683731
L 165.749544 262.233881
z
" style="fill:#253494;"/>
    <path clip-path="url(#p0eb0331b2a)" d="M 132.074489 250.511493
L 132.074489 239.961343
L 199.220508 239.961343
L 199.220508 250.511493
z
" style="fill:#253494;"/>
    <path clip-path="url(#p0eb0331b2a)" d="M 132.074489 238.789104
L 132.074489 228.238955
L 205.139155 228.238955
L 205.139155 238.789104
z
" style="fill:#253494;"/>
    <path clip-path="url(#p0eb0331b2a)" d="M 132.074489 227.066716
L 132.074489 216.516567
L 165.545453 216.516567
L 165.545453 227.066716
z
" style="fill:#253494;"/>
    <path clip-path="url(#p0eb0331b2a)" d="M 132.074489 215.344328
L 132.074489 204.794179
L 225.344188 204.794179
L 225.344188 215.344328
z
" style="fill:#253494;"/>
    <path clip-path="url(#p0eb0331b2a)" d="M 132.074489 203.62194
L 132.074489 193.071791
L 163.912723 193.071791
L 163.912723 203.62194
z
" style="fill:#253494;"/>
    <path clip-path="url(#p0eb0331b2a)" d="M 132.074489 191.899552
L 132.074489 181.349403
L 184.117756 181.349403
L 184.117756 191.899552
z
" style="fill:#253494;"/>
    <path clip-path="url(#p0eb0331b2a)" d="M 132.074489 180.177164
L 132.074489 169.627015
L 179.83184 169.627015
L 179.83184 180.177164
z
" style="fill:#253494;"/>
    <path clip-path="url(#p0eb0331b2a)" d="M 132.074489 168.454776
L 132.074489 157.904627
L 174.93365 157.904627
L 174.93365 168.454776
z
" style="fill:#253494;"/>
    <path clip-path="url(#p0eb0331b2a)" d="M 132.074489 156.732388
L 132.074489 146.182239
L 176.770471 146.182239
L 176.770471 156.732388
z
" style="fill:#253494;"/>
    <path clip-path="url(#p0eb0331b2a)" d="M 132.074489 145.01
L 132.074489 134.459851
L 407.801761 134.459851
L 407.801761 145.01
z
" style="fill:#253494;"/>
    <path clip-path="url(#p0eb0331b2a)" d="M 132.074489 133.287612
L 132.074489 122.737463
L 200.445056 122.737463
L 200.445056 133.287612
z
" style="fill:#253494;"/>
    <path clip-path="url(#p0eb0331b2a)" d="M 132.074489 121.565224
L 132.074489 111.015075
L 169.831369 111.015075
L 169.831369 121.565224
z
" style="fill:#253494;"/>
    <path clip-path="url(#p0eb0331b2a)" d="M 132.074489 109.842836
L 132.074489 99.292687
L 189.424129 99.292687
L 189.424129 109.842836
z
" style="fill:#253494;"/>
    <path clip-path="url(#p0eb0331b2a)" d="M 132.074489 98.120448
L 132.074489 87.570299
L 165.545453 87.570299
L 165.545453 98.120448
z
" style="fill:#253494;"/>
    <path clip-path="url(#p0eb0331b2a)" d="M 132.074489 86.39806
L 132.074489 75.84791
L 165.545453 75.84791
L 165.545453 86.39806
z
" style="fill:#253494;"/>
    <path clip-path="url(#p0eb0331b2a)" d="M 132.074489 74.675672
L 132.074489 64.125522
L 160.851354 64.125522
L 160.851354 74.675672
z
" style="fill:#253494;"/>
    <path clip-path="url(#p0eb0331b2a)" d="M 132.074489 62.953284
L 132.074489 52.403134
L 164.933179 52.403134
L 164.933179 62.953284
z
" style="fill:#253494;"/>
    <path clip-path="url(#p0eb0331b2a)" d="M 132.074489 51.230896
L 132.074489 40.680746
L 178.811384 40.680746
L 178.811384 51.230896
z
" style="fill:#253494;"/>
    <path clip-path="url(#p0eb0331b2a)" d="M 132.074489 39.508507
L 132.074489 28.958358
L 254.325145 28.958358
L 254.325145 39.508507
z
" style="fill:#253494;"/>
   </g>
   <g id="patch_3">
    <path d="M 118.288125 27.2
L 421.588125 27.2
L 421.588125 7.2
L 118.288125 7.2
z
" style="fill:#ffffff;"/>
   </g>
   <g id="patch_4">
    <path d="M 118.288125 498.44
L 118.288125 27.2
" style="fill:none;stroke:#262626;stroke-linecap:square;stroke-linejoin:miter;"/>
   </g>
   <g id="patch_5">
    <path d="M 421.588125 498.44
L 421.588125 27.2
" style="fill:none;stroke:#262626;stroke-linecap:square;stroke-linejoin:miter;"/>
   </g>
   <g id="patch_6">
    <path d="M 118.288125 498.44
L 421.588125 498.44
" style="fill:none;stroke:#262626;stroke-linecap:square;stroke-linejoin:miter;"/>
   </g>
   <g id="patch_7">
    <path d="M 118.288125 27.2
L 421.588125 27.2
" style="fill:none;stroke:#262626;stroke-linecap:square;stroke-linejoin:miter;"/>
   </g>
   <g id="text_44">
    <!-- preprint -->
    <g style="fill:#262626;" transform="translate(246.205938 20.819219)scale(0.14 -0.14)">
     <use xlink:href="#ArialMT-112"/>
     <use x="55.615234" xlink:href="#ArialMT-114"/>
     <use x="88.916016" xlink:href="#ArialMT-101"/>
     <use x="144.53125" xlink:href="#ArialMT-112"/>
     <use x="200.146484" xlink:href="#ArialMT-114"/>
     <use x="233.447266" xlink:href="#ArialMT-105"/>
     <use x="255.664062" xlink:href="#ArialMT-110"/>
     <use x="311.279297" xlink:href="#ArialMT-116"/>
    </g>
   </g>
  </g>
  <g id="axes_2">
   <g id="patch_8">
    <path d="M 428.788125 498.44
L 732.088125 498.44
L 732.088125 27.2
L 428.788125 27.2
z
" style="fill:#ffffff;"/>
   </g>
   <g id="matplotlib.axis_3">
    <g id="xtick_7">
     <g id="line2d_47">
      <g>
       <use style="fill:#262626;stroke:#262626;" x="442.574489" xlink:href="#m0bc747f098" y="498.44"/>
      </g>
     </g>
     <g id="text_45">
      <!-- 0 -->
      <g style="fill:#262626;" transform="translate(439.237926 514.229375)scale(0.12 -0.12)">
       <use xlink:href="#ArialMT-48"/>
      </g>
     </g>
    </g>
    <g id="xtick_8">
     <g id="line2d_48">
      <g>
       <use style="fill:#262626;stroke:#262626;" x="537.521897" xlink:href="#m0bc747f098" y="498.44"/>
      </g>
     </g>
     <g id="text_46">
      <!-- 5e+02 -->
      <g style="fill:#262626;" transform="translate(520.671272 514.229375)scale(0.12 -0.12)">
       <use xlink:href="#ArialMT-53"/>
       <use x="55.615234" xlink:href="#ArialMT-101"/>
       <use x="111.230469" xlink:href="#ArialMT-43"/>
       <use x="169.628906" xlink:href="#ArialMT-48"/>
       <use x="225.244141" xlink:href="#ArialMT-50"/>
      </g>
     </g>
    </g>
    <g id="xtick_9">
     <g id="line2d_49">
      <g>
       <use style="fill:#262626;stroke:#262626;" x="632.469305" xlink:href="#m0bc747f098" y="498.44"/>
      </g>
     </g>
     <g id="text_47">
      <!-- 1e+03 -->
      <g style="fill:#262626;" transform="translate(615.61868 514.229375)scale(0.12 -0.12)">
       <use xlink:href="#ArialMT-49"/>
       <use x="55.615234" xlink:href="#ArialMT-101"/>
       <use x="111.230469" xlink:href="#ArialMT-43"/>
       <use x="169.628906" xlink:href="#ArialMT-48"/>
       <use x="225.244141" xlink:href="#ArialMT-51"/>
      </g>
     </g>
    </g>
    <g id="xtick_10">
     <g id="line2d_50">
      <g>
       <use style="fill:#262626;stroke:#262626;" x="727.416713" xlink:href="#m0bc747f098" y="498.44"/>
      </g>
     </g>
     <g id="text_48">
      <!-- 2e+03 -->
      <g style="fill:#262626;" transform="translate(710.566088 514.229375)scale(0.12 -0.12)">
       <use xlink:href="#ArialMT-50"/>
       <use x="55.615234" xlink:href="#ArialMT-101"/>
       <use x="111.230469" xlink:href="#ArialMT-43"/>
       <use x="169.628906" xlink:href="#ArialMT-48"/>
       <use x="225.244141" xlink:href="#ArialMT-51"/>
      </g>
     </g>
    </g>
    <g id="xtick_11">
     <g id="line2d_51">
      <g>
       <use style="fill:#262626;stroke:#262626;stroke-width:0.8;" x="490.048193" xlink:href="#m55c4cdfc90" y="498.44"/>
      </g>
     </g>
    </g>
    <g id="xtick_12">
     <g id="line2d_52">
      <g>
       <use style="fill:#262626;stroke:#262626;stroke-width:0.8;" x="584.995601" xlink:href="#m55c4cdfc90" y="498.44"/>
      </g>
     </g>
    </g>
    <g id="xtick_13">
     <g id="line2d_53">
      <g>
       <use style="fill:#262626;stroke:#262626;stroke-width:0.8;" x="679.943009" xlink:href="#m55c4cdfc90" y="498.44"/>
      </g>
     </g>
    </g>
    <g id="text_49">
     <!-- count -->
     <g style="fill:#262626;" transform="translate(398.165469 531.635312)scale(0.14 -0.14)">
      <use xlink:href="#ArialMT-99"/>
      <use x="50" xlink:href="#ArialMT-111"/>
      <use x="105.615234" xlink:href="#ArialMT-117"/>
      <use x="161.230469" xlink:href="#ArialMT-110"/>
      <use x="216.845703" xlink:href="#ArialMT-116"/>
     </g>
    </g>
   </g>
   <g id="matplotlib.axis_4">
    <g id="ytick_41"/>
    <g id="ytick_42"/>
    <g id="ytick_43"/>
    <g id="ytick_44"/>
    <g id="ytick_45"/>
    <g id="ytick_46"/>
    <g id="ytick_47"/>
    <g id="ytick_48"/>
    <g id="ytick_49"/>
    <g id="ytick_50"/>
    <g id="ytick_51"/>
    <g id="ytick_52"/>
    <g id="ytick_53"/>
    <g id="ytick_54"/>
    <g id="ytick_55"/>
    <g id="ytick_56"/>
    <g id="ytick_57"/>
    <g id="ytick_58"/>
    <g id="ytick_59"/>
    <g id="ytick_60"/>
    <g id="ytick_61"/>
    <g id="ytick_62"/>
    <g id="ytick_63"/>
    <g id="ytick_64"/>
    <g id="ytick_65"/>
    <g id="ytick_66"/>
    <g id="ytick_67"/>
    <g id="ytick_68"/>
    <g id="ytick_69"/>
    <g id="ytick_70"/>
    <g id="ytick_71"/>
    <g id="ytick_72"/>
    <g id="ytick_73"/>
    <g id="ytick_74"/>
    <g id="ytick_75"/>
    <g id="ytick_76"/>
    <g id="ytick_77"/>
    <g id="ytick_78"/>
    <g id="ytick_79"/>
    <g id="ytick_80"/>
   </g>
   <g id="PolyCollection_2">
    <path clip-path="url(#pec9b42201d)" d="M 442.574489 496.681642
L 442.574489 486.131493
L 442.764383 486.131493
L 442.764383 496.681642
z
" style="fill:#253494;"/>
    <path clip-path="url(#pec9b42201d)" d="M 442.574489 484.959254
L 442.574489 474.409104
L 442.954278 474.409104
L 442.954278 484.959254
z
" style="fill:#253494;"/>
    <path clip-path="url(#pec9b42201d)" d="M 442.574489 473.236866
L 442.574489 462.686716
L 449.600597 462.686716
L 449.600597 473.236866
z
" style="fill:#253494;"/>
    <path clip-path="url(#pec9b42201d)" d="M 442.574489 461.514478
L 442.574489 450.964328
L 449.980386 450.964328
L 449.980386 461.514478
z
" style="fill:#253494;"/>
    <path clip-path="url(#pec9b42201d)" d="M 442.574489 449.79209
L 442.574489 439.24194
L 451.68944 439.24194
L 451.68944 449.79209
z
" style="fill:#253494;"/>
    <path clip-path="url(#pec9b42201d)" d="M 442.574489 438.069701
L 442.574489 427.519552
L 467.830499 427.519552
L 467.830499 438.069701
z
" style="fill:#253494;"/>
    <path clip-path="url(#pec9b42201d)" d="M 442.574489 426.347313
L 442.574489 415.797164
L 467.260815 415.797164
L 467.260815 426.347313
z
" style="fill:#253494;"/>
    <path clip-path="url(#pec9b42201d)" d="M 442.574489 414.624925
L 442.574489 404.074776
L 464.412392 404.074776
L 464.412392 414.624925
z
" style="fill:#253494;"/>
    <path clip-path="url(#pec9b42201d)" d="M 442.574489 402.902537
L 442.574489 392.352388
L 459.665022 392.352388
L 459.665022 402.902537
z
" style="fill:#253494;"/>
    <path clip-path="url(#pec9b42201d)" d="M 442.574489 391.180149
L 442.574489 380.63
L 461.56397 380.63
L 461.56397 391.180149
z
" style="fill:#253494;"/>
    <path clip-path="url(#pec9b42201d)" d="M 442.574489 379.457761
L 442.574489 368.907612
L 463.842708 368.907612
L 463.842708 379.457761
z
" style="fill:#253494;"/>
    <path clip-path="url(#pec9b42201d)" d="M 442.574489 367.735373
L 442.574489 357.185224
L 466.501235 357.185224
L 466.501235 367.735373
z
" style="fill:#253494;"/>
    <path clip-path="url(#pec9b42201d)" d="M 442.574489 356.012985
L 442.574489 345.462836
L 471.81829 345.462836
L 471.81829 356.012985
z
" style="fill:#253494;"/>
    <path clip-path="url(#pec9b42201d)" d="M 442.574489 344.290597
L 442.574489 333.740448
L 468.590078 333.740448
L 468.590078 344.290597
z
" style="fill:#253494;"/>
    <path clip-path="url(#pec9b42201d)" d="M 442.574489 332.568209
L 442.574489 322.01806
L 526.697892 322.01806
L 526.697892 332.568209
z
" style="fill:#253494;"/>
    <path clip-path="url(#pec9b42201d)" d="M 442.574489 320.845821
L 442.574489 310.295672
L 486.819981 310.295672
L 486.819981 320.845821
z
" style="fill:#253494;"/>
    <path clip-path="url(#pec9b42201d)" d="M 442.574489 309.123433
L 442.574489 298.573284
L 481.313031 298.573284
L 481.313031 309.123433
z
" style="fill:#253494;"/>
    <path clip-path="url(#pec9b42201d)" d="M 442.574489 297.401045
L 442.574489 286.850896
L 467.45071 286.850896
L 467.45071 297.401045
z
" style="fill:#253494;"/>
    <path clip-path="url(#pec9b42201d)" d="M 442.574489 285.678657
L 442.574489 275.128507
L 479.034293 275.128507
L 479.034293 285.678657
z
" style="fill:#253494;"/>
    <path clip-path="url(#pec9b42201d)" d="M 442.574489 273.956269
L 442.574489 263.406119
L 475.236397 263.406119
L 475.236397 273.956269
z
" style="fill:#253494;"/>
    <path clip-path="url(#pec9b42201d)" d="M 442.574489 262.233881
L 442.574489 251.683731
L 472.19808 251.683731
L 472.19808 262.233881
z
" style="fill:#253494;"/>
    <path clip-path="url(#pec9b42201d)" d="M 442.574489 250.511493
L 442.574489 239.961343
L 502.58125 239.961343
L 502.58125 250.511493
z
" style="fill:#253494;"/>
    <path clip-path="url(#pec9b42201d)" d="M 442.574489 238.789104
L 442.574489 228.238955
L 508.0882 228.238955
L 508.0882 238.789104
z
" style="fill:#253494;"/>
    <path clip-path="url(#pec9b42201d)" d="M 442.574489 227.066716
L 442.574489 216.516567
L 473.147554 216.516567
L 473.147554 227.066716
z
" style="fill:#253494;"/>
    <path clip-path="url(#pec9b42201d)" d="M 442.574489 215.344328
L 442.574489 204.794179
L 528.217051 204.794179
L 528.217051 215.344328
z
" style="fill:#253494;"/>
    <path clip-path="url(#pec9b42201d)" d="M 442.574489 203.62194
L 442.574489 193.071791
L 471.81829 193.071791
L 471.81829 203.62194
z
" style="fill:#253494;"/>
    <path clip-path="url(#pec9b42201d)" d="M 442.574489 191.899552
L 442.574489 181.349403
L 490.427982 181.349403
L 490.427982 191.899552
z
" style="fill:#253494;"/>
    <path clip-path="url(#pec9b42201d)" d="M 442.574489 180.177164
L 442.574489 169.627015
L 486.630086 169.627015
L 486.630086 180.177164
z
" style="fill:#253494;"/>
    <path clip-path="url(#pec9b42201d)" d="M 442.574489 168.454776
L 442.574489 157.904627
L 483.401874 157.904627
L 483.401874 168.454776
z
" style="fill:#253494;"/>
    <path clip-path="url(#pec9b42201d)" d="M 442.574489 156.732388
L 442.574489 146.182239
L 486.060401 146.182239
L 486.060401 156.732388
z
" style="fill:#253494;"/>
    <path clip-path="url(#pec9b42201d)" d="M 442.574489 145.01
L 442.574489 134.459851
L 718.301761 134.459851
L 718.301761 145.01
z
" style="fill:#253494;"/>
    <path clip-path="url(#pec9b42201d)" d="M 442.574489 133.287612
L 442.574489 122.737463
L 511.126517 122.737463
L 511.126517 133.287612
z
" style="fill:#253494;"/>
    <path clip-path="url(#pec9b42201d)" d="M 442.574489 121.565224
L 442.574489 111.015075
L 481.882716 111.015075
L 481.882716 121.565224
z
" style="fill:#253494;"/>
    <path clip-path="url(#pec9b42201d)" d="M 442.574489 109.842836
L 442.574489 99.292687
L 502.771145 99.292687
L 502.771145 109.842836
z
" style="fill:#253494;"/>
    <path clip-path="url(#pec9b42201d)" d="M 442.574489 98.120448
L 442.574489 87.570299
L 478.464609 87.570299
L 478.464609 98.120448
z
" style="fill:#253494;"/>
    <path clip-path="url(#pec9b42201d)" d="M 442.574489 86.39806
L 442.574489 75.84791
L 478.844398 75.84791
L 478.844398 86.39806
z
" style="fill:#253494;"/>
    <path clip-path="url(#pec9b42201d)" d="M 442.574489 74.675672
L 442.574489 64.125522
L 473.907133 64.125522
L 473.907133 74.675672
z
" style="fill:#253494;"/>
    <path clip-path="url(#pec9b42201d)" d="M 442.574489 62.953284
L 442.574489 52.403134
L 478.464609 52.403134
L 478.464609 62.953284
z
" style="fill:#253494;"/>
    <path clip-path="url(#pec9b42201d)" d="M 442.574489 51.230896
L 442.574489 40.680746
L 494.225879 40.680746
L 494.225879 51.230896
z
" style="fill:#253494;"/>
    <path clip-path="url(#pec9b42201d)" d="M 442.574489 39.508507
L 442.574489 28.958358
L 588.793497 28.958358
L 588.793497 39.508507
z
" style="fill:#253494;"/>
   </g>
   <g id="patch_9">
    <path d="M 428.788125 27.2
L 732.088125 27.2
L 732.088125 7.2
L 428.788125 7.2
z
" style="fill:#ffffff;"/>
   </g>
   <g id="patch_10">
    <path d="M 428.788125 498.44
L 428.788125 27.2
" style="fill:none;stroke:#262626;stroke-linecap:square;stroke-linejoin:miter;"/>
   </g>
   <g id="patch_11">
    <path d="M 732.088125 498.44
L 732.088125 27.2
" style="fill:none;stroke:#262626;stroke-linecap:square;stroke-linejoin:miter;"/>
   </g>
   <g id="patch_12">
    <path d="M 428.788125 498.44
L 732.088125 498.44
" style="fill:none;stroke:#262626;stroke-linecap:square;stroke-linejoin:miter;"/>
   </g>
   <g id="patch_13">
    <path d="M 428.788125 27.2
L 732.088125 27.2
" style="fill:none;stroke:#262626;stroke-linecap:square;stroke-linejoin:miter;"/>
   </g>
   <g id="text_50">
    <!-- published -->
    <g style="fill:#262626;" transform="translate(550.471563 20.819219)scale(0.14 -0.14)">
     <use xlink:href="#ArialMT-112"/>
     <use x="55.615234" xlink:href="#ArialMT-117"/>
     <use x="111.230469" xlink:href="#ArialMT-98"/>
     <use x="166.845703" xlink:href="#ArialMT-108"/>
     <use x="189.0625" xlink:href="#ArialMT-105"/>
     <use x="211.279297" xlink:href="#ArialMT-115"/>
     <use x="261.279297" xlink:href="#ArialMT-104"/>
     <use x="316.894531" xlink:href="#ArialMT-101"/>
     <use x="372.509766" xlink:href="#ArialMT-100"/>
    </g>
   </g>
  </g>
 </g>
 <defs>
  <clipPath id="p0eb0331b2a">
   <rect height="471.24" width="303.3" x="118.288125" y="27.2"/>
  </clipPath>
  <clipPath id="pec9b42201d">
   <rect height="471.24" width="303.3" x="428.788125" y="27.2"/>
  </clipPath>
 </defs>
</svg>
