<?xml version="1.0" encoding="utf-8" standalone="no"?>
<!DOCTYPE svg PUBLIC "-//W3C//DTD SVG 1.1//EN"
  "http://www.w3.org/Graphics/SVG/1.1/DTD/svg11.dtd">
<!-- Created with matplotlib (https://matplotlib.org/) -->
<svg height="323.919688pt" version="1.1" viewBox="0 0 435.7815 323.919688" width="435.7815pt" xmlns="http://www.w3.org/2000/svg" xmlns:xlink="http://www.w3.org/1999/xlink">
 <defs>
  <style type="text/css">
*{stroke-linecap:butt;stroke-linejoin:round;}
  </style>
 </defs>
 <g id="figure_1">
  <g id="patch_1">
   <path d="M 0 323.919688 
L 435.7815 323.919688 
L 435.7815 0 
L 0 0 
z
" style="fill:#ffffff;"/>
  </g>
  <g id="axes_1">
   <g id="patch_2">
    <path d="M 56.9535 284.4 
L 428.5815 284.4 
L 428.5815 7.2 
L 56.9535 7.2 
z
" style="fill:#ffffff;"/>
   </g>
   <g id="matplotlib.axis_1">
    <g id="xtick_1">
     <g id="line2d_1">
      <defs>
       <path d="M 0 0 
L 0 4.8 
" id="mb19589511e" style="stroke:#262626;"/>
      </defs>
      <g>
       <use style="fill:#262626;stroke:#262626;" x="73.845682" xlink:href="#mb19589511e" y="284.4"/>
      </g>
     </g>
     <g id="text_1">
      <!-- 0 -->
      <defs>
       <path d="M 4.15625 35.296875 
Q 4.15625 48 6.765625 55.734375 
Q 9.375 63.484375 14.515625 67.671875 
Q 19.671875 71.875 27.484375 71.875 
Q 33.25 71.875 37.59375 69.546875 
Q 41.9375 67.234375 44.765625 62.859375 
Q 47.609375 58.5 49.21875 52.21875 
Q 50.828125 45.953125 50.828125 35.296875 
Q 50.828125 22.703125 48.234375 14.96875 
Q 45.65625 7.234375 40.5 3 
Q 35.359375 -1.21875 27.484375 -1.21875 
Q 17.140625 -1.21875 11.234375 6.203125 
Q 4.15625 15.140625 4.15625 35.296875 
z
M 13.1875 35.296875 
Q 13.1875 17.671875 17.3125 11.828125 
Q 21.4375 6 27.484375 6 
Q 33.546875 6 37.671875 11.859375 
Q 41.796875 17.71875 41.796875 35.296875 
Q 41.796875 52.984375 37.671875 58.78125 
Q 33.546875 64.59375 27.390625 64.59375 
Q 21.34375 64.59375 17.71875 59.46875 
Q 13.1875 52.9375 13.1875 35.296875 
z
" id="ArialMT-48"/>
      </defs>
      <g style="fill:#262626;" transform="translate(71.065213 298.757812)scale(0.1 -0.1)">
       <use xlink:href="#ArialMT-48"/>
      </g>
     </g>
    </g>
    <g id="xtick_2">
     <g id="line2d_2">
      <g>
       <use style="fill:#262626;stroke:#262626;" x="179.421818" xlink:href="#mb19589511e" y="284.4"/>
      </g>
     </g>
     <g id="text_2">
      <!-- 1 -->
      <defs>
       <path d="M 37.25 0 
L 28.46875 0 
L 28.46875 56 
Q 25.296875 52.984375 20.140625 49.953125 
Q 14.984375 46.921875 10.890625 45.40625 
L 10.890625 53.90625 
Q 18.265625 57.375 23.78125 62.296875 
Q 29.296875 67.234375 31.59375 71.875 
L 37.25 71.875 
z
" id="ArialMT-49"/>
      </defs>
      <g style="fill:#262626;" transform="translate(176.641349 298.757812)scale(0.1 -0.1)">
       <use xlink:href="#ArialMT-49"/>
      </g>
     </g>
    </g>
    <g id="xtick_3">
     <g id="line2d_3">
      <g>
       <use style="fill:#262626;stroke:#262626;" x="284.997955" xlink:href="#mb19589511e" y="284.4"/>
      </g>
     </g>
     <g id="text_3">
      <!-- 2 -->
      <defs>
       <path d="M 50.34375 8.453125 
L 50.34375 0 
L 3.03125 0 
Q 2.9375 3.171875 4.046875 6.109375 
Q 5.859375 10.9375 9.828125 15.625 
Q 13.8125 20.3125 21.34375 26.46875 
Q 33.015625 36.03125 37.109375 41.625 
Q 41.21875 47.21875 41.21875 52.203125 
Q 41.21875 57.421875 37.46875 61 
Q 33.734375 64.59375 27.734375 64.59375 
Q 21.390625 64.59375 17.578125 60.78125 
Q 13.765625 56.984375 13.71875 50.25 
L 4.6875 51.171875 
Q 5.609375 61.28125 11.65625 66.578125 
Q 17.71875 71.875 27.9375 71.875 
Q 38.234375 71.875 44.234375 66.15625 
Q 50.25 60.453125 50.25 52 
Q 50.25 47.703125 48.484375 43.546875 
Q 46.734375 39.40625 42.65625 34.8125 
Q 38.578125 30.21875 29.109375 22.21875 
Q 21.1875 15.578125 18.9375 13.203125 
Q 16.703125 10.84375 15.234375 8.453125 
z
" id="ArialMT-50"/>
      </defs>
      <g style="fill:#262626;" transform="translate(282.217486 298.757812)scale(0.1 -0.1)">
       <use xlink:href="#ArialMT-50"/>
      </g>
     </g>
    </g>
    <g id="xtick_4">
     <g id="line2d_4">
      <g>
       <use style="fill:#262626;stroke:#262626;" x="390.574091" xlink:href="#mb19589511e" y="284.4"/>
      </g>
     </g>
     <g id="text_4">
      <!-- 3 -->
      <defs>
       <path d="M 4.203125 18.890625 
L 12.984375 20.0625 
Q 14.5 12.59375 18.140625 9.296875 
Q 21.78125 6 27 6 
Q 33.203125 6 37.46875 10.296875 
Q 41.75 14.59375 41.75 20.953125 
Q 41.75 27 37.796875 30.921875 
Q 33.84375 34.859375 27.734375 34.859375 
Q 25.25 34.859375 21.53125 33.890625 
L 22.515625 41.609375 
Q 23.390625 41.5 23.921875 41.5 
Q 29.546875 41.5 34.03125 44.421875 
Q 38.53125 47.359375 38.53125 53.46875 
Q 38.53125 58.296875 35.25 61.46875 
Q 31.984375 64.65625 26.8125 64.65625 
Q 21.6875 64.65625 18.265625 61.421875 
Q 14.84375 58.203125 13.875 51.765625 
L 5.078125 53.328125 
Q 6.6875 62.15625 12.390625 67.015625 
Q 18.109375 71.875 26.609375 71.875 
Q 32.46875 71.875 37.390625 69.359375 
Q 42.328125 66.84375 44.9375 62.5 
Q 47.5625 58.15625 47.5625 53.265625 
Q 47.5625 48.640625 45.0625 44.828125 
Q 42.578125 41.015625 37.703125 38.765625 
Q 44.046875 37.3125 47.5625 32.6875 
Q 51.078125 28.078125 51.078125 21.140625 
Q 51.078125 11.765625 44.234375 5.25 
Q 37.40625 -1.265625 26.953125 -1.265625 
Q 17.53125 -1.265625 11.296875 4.34375 
Q 5.078125 9.96875 4.203125 18.890625 
z
" id="ArialMT-51"/>
      </defs>
      <g style="fill:#262626;" transform="translate(387.793622 298.757812)scale(0.1 -0.1)">
       <use xlink:href="#ArialMT-51"/>
      </g>
     </g>
    </g>
    <g id="xtick_5">
     <g id="line2d_5">
      <defs>
       <path d="M 0 0 
L 0 3.2 
" id="m8f9d87def4" style="stroke:#262626;stroke-width:0.8;"/>
      </defs>
      <g>
       <use style="fill:#262626;stroke:#262626;stroke-width:0.8;" x="126.63375" xlink:href="#m8f9d87def4" y="284.4"/>
      </g>
     </g>
    </g>
    <g id="xtick_6">
     <g id="line2d_6">
      <g>
       <use style="fill:#262626;stroke:#262626;stroke-width:0.8;" x="232.209886" xlink:href="#m8f9d87def4" y="284.4"/>
      </g>
     </g>
    </g>
    <g id="xtick_7">
     <g id="line2d_7">
      <g>
       <use style="fill:#262626;stroke:#262626;stroke-width:0.8;" x="337.786023" xlink:href="#m8f9d87def4" y="284.4"/>
      </g>
     </g>
    </g>
    <g id="text_5">
     <!-- bioRxiv vs PMC Odds Ratio -->
     <defs>
      <path d="M 14.703125 0 
L 6.546875 0 
L 6.546875 71.578125 
L 15.328125 71.578125 
L 15.328125 46.046875 
Q 20.90625 53.03125 29.546875 53.03125 
Q 34.328125 53.03125 38.59375 51.09375 
Q 42.875 49.171875 45.625 45.671875 
Q 48.390625 42.1875 49.953125 37.25 
Q 51.515625 32.328125 51.515625 26.703125 
Q 51.515625 13.375 44.921875 6.09375 
Q 38.328125 -1.171875 29.109375 -1.171875 
Q 19.921875 -1.171875 14.703125 6.5 
z
M 14.59375 26.3125 
Q 14.59375 17 17.140625 12.84375 
Q 21.296875 6.0625 28.375 6.0625 
Q 34.125 6.0625 38.328125 11.0625 
Q 42.53125 16.0625 42.53125 25.984375 
Q 42.53125 36.140625 38.5 40.96875 
Q 34.46875 45.796875 28.765625 45.796875 
Q 23 45.796875 18.796875 40.796875 
Q 14.59375 35.796875 14.59375 26.3125 
z
" id="ArialMT-98"/>
      <path d="M 6.640625 61.46875 
L 6.640625 71.578125 
L 15.4375 71.578125 
L 15.4375 61.46875 
z
M 6.640625 0 
L 6.640625 51.859375 
L 15.4375 51.859375 
L 15.4375 0 
z
" id="ArialMT-105"/>
      <path d="M 3.328125 25.921875 
Q 3.328125 40.328125 11.328125 47.265625 
Q 18.015625 53.03125 27.640625 53.03125 
Q 38.328125 53.03125 45.109375 46.015625 
Q 51.90625 39.015625 51.90625 26.65625 
Q 51.90625 16.65625 48.90625 10.90625 
Q 45.90625 5.171875 40.15625 2 
Q 34.421875 -1.171875 27.640625 -1.171875 
Q 16.75 -1.171875 10.03125 5.8125 
Q 3.328125 12.796875 3.328125 25.921875 
z
M 12.359375 25.921875 
Q 12.359375 15.96875 16.703125 11.015625 
Q 21.046875 6.0625 27.640625 6.0625 
Q 34.1875 6.0625 38.53125 11.03125 
Q 42.875 16.015625 42.875 26.21875 
Q 42.875 35.84375 38.5 40.796875 
Q 34.125 45.75 27.640625 45.75 
Q 21.046875 45.75 16.703125 40.8125 
Q 12.359375 35.890625 12.359375 25.921875 
z
" id="ArialMT-111"/>
      <path d="M 7.859375 0 
L 7.859375 71.578125 
L 39.59375 71.578125 
Q 49.171875 71.578125 54.140625 69.640625 
Q 59.125 67.71875 62.109375 62.828125 
Q 65.09375 57.953125 65.09375 52.046875 
Q 65.09375 44.4375 60.15625 39.203125 
Q 55.21875 33.984375 44.921875 32.5625 
Q 48.6875 30.765625 50.640625 29 
Q 54.78125 25.203125 58.5 19.484375 
L 70.953125 0 
L 59.03125 0 
L 49.5625 14.890625 
Q 45.40625 21.34375 42.71875 24.75 
Q 40.046875 28.171875 37.921875 29.53125 
Q 35.796875 30.90625 33.59375 31.453125 
Q 31.984375 31.78125 28.328125 31.78125 
L 17.328125 31.78125 
L 17.328125 0 
z
M 17.328125 39.984375 
L 37.703125 39.984375 
Q 44.1875 39.984375 47.84375 41.328125 
Q 51.515625 42.671875 53.421875 45.625 
Q 55.328125 48.578125 55.328125 52.046875 
Q 55.328125 57.125 51.640625 60.390625 
Q 47.953125 63.671875 39.984375 63.671875 
L 17.328125 63.671875 
z
" id="ArialMT-82"/>
      <path d="M 0.734375 0 
L 19.671875 26.953125 
L 2.15625 51.859375 
L 13.140625 51.859375 
L 21.09375 39.703125 
Q 23.34375 36.234375 24.703125 33.890625 
Q 26.859375 37.109375 28.65625 39.59375 
L 37.40625 51.859375 
L 47.90625 51.859375 
L 29.984375 27.4375 
L 49.265625 0 
L 38.484375 0 
L 27.828125 16.109375 
L 25 20.453125 
L 11.375 0 
z
" id="ArialMT-120"/>
      <path d="M 21 0 
L 1.265625 51.859375 
L 10.546875 51.859375 
L 21.6875 20.796875 
Q 23.484375 15.765625 25 10.359375 
Q 26.171875 14.453125 28.265625 20.21875 
L 39.796875 51.859375 
L 48.828125 51.859375 
L 29.203125 0 
z
" id="ArialMT-118"/>
      <path id="ArialMT-32"/>
      <path d="M 3.078125 15.484375 
L 11.765625 16.84375 
Q 12.5 11.625 15.84375 8.84375 
Q 19.1875 6.0625 25.203125 6.0625 
Q 31.25 6.0625 34.171875 8.515625 
Q 37.109375 10.984375 37.109375 14.3125 
Q 37.109375 17.28125 34.515625 19 
Q 32.71875 20.171875 25.53125 21.96875 
Q 15.875 24.421875 12.140625 26.203125 
Q 8.40625 27.984375 6.46875 31.125 
Q 4.546875 34.28125 4.546875 38.09375 
Q 4.546875 41.546875 6.125 44.5 
Q 7.71875 47.46875 10.453125 49.421875 
Q 12.5 50.921875 16.03125 51.96875 
Q 19.578125 53.03125 23.640625 53.03125 
Q 29.734375 53.03125 34.34375 51.265625 
Q 38.96875 49.515625 41.15625 46.5 
Q 43.359375 43.5 44.1875 38.484375 
L 35.59375 37.3125 
Q 35.015625 41.3125 32.203125 43.546875 
Q 29.390625 45.796875 24.265625 45.796875 
Q 18.21875 45.796875 15.625 43.796875 
Q 13.03125 41.796875 13.03125 39.109375 
Q 13.03125 37.40625 14.109375 36.03125 
Q 15.1875 34.625 17.484375 33.6875 
Q 18.796875 33.203125 25.25 31.453125 
Q 34.578125 28.953125 38.25 27.359375 
Q 41.9375 25.78125 44.03125 22.75 
Q 46.140625 19.734375 46.140625 15.234375 
Q 46.140625 10.84375 43.578125 6.953125 
Q 41.015625 3.078125 36.171875 0.953125 
Q 31.34375 -1.171875 25.25 -1.171875 
Q 15.140625 -1.171875 9.84375 3.03125 
Q 4.546875 7.234375 3.078125 15.484375 
z
" id="ArialMT-115"/>
      <path d="M 7.71875 0 
L 7.71875 71.578125 
L 34.71875 71.578125 
Q 41.84375 71.578125 45.609375 70.90625 
Q 50.875 70.015625 54.4375 67.546875 
Q 58.015625 65.09375 60.1875 60.640625 
Q 62.359375 56.203125 62.359375 50.875 
Q 62.359375 41.75 56.546875 35.421875 
Q 50.734375 29.109375 35.546875 29.109375 
L 17.1875 29.109375 
L 17.1875 0 
z
M 17.1875 37.546875 
L 35.6875 37.546875 
Q 44.875 37.546875 48.734375 40.96875 
Q 52.59375 44.390625 52.59375 50.59375 
Q 52.59375 55.078125 50.3125 58.265625 
Q 48.046875 61.46875 44.34375 62.5 
Q 41.9375 63.140625 35.5 63.140625 
L 17.1875 63.140625 
z
" id="ArialMT-80"/>
      <path d="M 7.421875 0 
L 7.421875 71.578125 
L 21.6875 71.578125 
L 38.625 20.90625 
Q 40.96875 13.8125 42.046875 10.296875 
Q 43.265625 14.203125 45.84375 21.78125 
L 62.984375 71.578125 
L 75.734375 71.578125 
L 75.734375 0 
L 66.609375 0 
L 66.609375 59.90625 
L 45.796875 0 
L 37.25 0 
L 16.546875 60.9375 
L 16.546875 0 
z
" id="ArialMT-77"/>
      <path d="M 58.796875 25.09375 
L 68.265625 22.703125 
Q 65.28125 11.03125 57.546875 4.90625 
Q 49.8125 -1.21875 38.625 -1.21875 
Q 27.046875 -1.21875 19.796875 3.484375 
Q 12.546875 8.203125 8.765625 17.140625 
Q 4.984375 26.078125 4.984375 36.328125 
Q 4.984375 47.515625 9.25 55.828125 
Q 13.53125 64.15625 21.40625 68.46875 
Q 29.296875 72.796875 38.765625 72.796875 
Q 49.515625 72.796875 56.828125 67.328125 
Q 64.15625 61.859375 67.046875 51.953125 
L 57.71875 49.75 
Q 55.21875 57.5625 50.484375 61.125 
Q 45.75 64.703125 38.578125 64.703125 
Q 30.328125 64.703125 24.78125 60.734375 
Q 19.234375 56.78125 16.984375 50.109375 
Q 14.75 43.453125 14.75 36.375 
Q 14.75 27.25 17.40625 20.4375 
Q 20.0625 13.625 25.671875 10.25 
Q 31.296875 6.890625 37.84375 6.890625 
Q 45.796875 6.890625 51.3125 11.46875 
Q 56.84375 16.0625 58.796875 25.09375 
z
" id="ArialMT-67"/>
      <path d="M 4.828125 34.859375 
Q 4.828125 52.6875 14.390625 62.765625 
Q 23.96875 72.859375 39.109375 72.859375 
Q 49.03125 72.859375 56.984375 68.109375 
Q 64.9375 63.375 69.109375 54.90625 
Q 73.296875 46.4375 73.296875 35.6875 
Q 73.296875 24.8125 68.890625 16.21875 
Q 64.5 7.625 56.4375 3.203125 
Q 48.390625 -1.21875 39.0625 -1.21875 
Q 28.953125 -1.21875 20.984375 3.65625 
Q 13.03125 8.546875 8.921875 16.984375 
Q 4.828125 25.4375 4.828125 34.859375 
z
M 14.59375 34.71875 
Q 14.59375 21.78125 21.546875 14.328125 
Q 28.515625 6.890625 39.015625 6.890625 
Q 49.703125 6.890625 56.609375 14.40625 
Q 63.53125 21.921875 63.53125 35.75 
Q 63.53125 44.484375 60.578125 51 
Q 57.625 57.515625 51.921875 61.109375 
Q 46.234375 64.703125 39.15625 64.703125 
Q 29.109375 64.703125 21.84375 57.78125 
Q 14.59375 50.875 14.59375 34.71875 
z
" id="ArialMT-79"/>
      <path d="M 40.234375 0 
L 40.234375 6.546875 
Q 35.296875 -1.171875 25.734375 -1.171875 
Q 19.53125 -1.171875 14.328125 2.25 
Q 9.125 5.671875 6.265625 11.796875 
Q 3.421875 17.921875 3.421875 25.875 
Q 3.421875 33.640625 6 39.96875 
Q 8.59375 46.296875 13.765625 49.65625 
Q 18.953125 53.03125 25.34375 53.03125 
Q 30.03125 53.03125 33.6875 51.046875 
Q 37.359375 49.078125 39.65625 45.90625 
L 39.65625 71.578125 
L 48.390625 71.578125 
L 48.390625 0 
z
M 12.453125 25.875 
Q 12.453125 15.921875 16.640625 10.984375 
Q 20.84375 6.0625 26.5625 6.0625 
Q 32.328125 6.0625 36.34375 10.765625 
Q 40.375 15.484375 40.375 25.140625 
Q 40.375 35.796875 36.265625 40.765625 
Q 32.171875 45.75 26.171875 45.75 
Q 20.3125 45.75 16.375 40.96875 
Q 12.453125 36.1875 12.453125 25.875 
z
" id="ArialMT-100"/>
      <path d="M 40.4375 6.390625 
Q 35.546875 2.25 31.03125 0.53125 
Q 26.515625 -1.171875 21.34375 -1.171875 
Q 12.796875 -1.171875 8.203125 3 
Q 3.609375 7.171875 3.609375 13.671875 
Q 3.609375 17.484375 5.34375 20.625 
Q 7.078125 23.78125 9.890625 25.6875 
Q 12.703125 27.59375 16.21875 28.5625 
Q 18.796875 29.25 24.03125 29.890625 
Q 34.671875 31.15625 39.703125 32.90625 
Q 39.75 34.71875 39.75 35.203125 
Q 39.75 40.578125 37.25 42.78125 
Q 33.890625 45.75 27.25 45.75 
Q 21.046875 45.75 18.09375 43.578125 
Q 15.140625 41.40625 13.71875 35.890625 
L 5.125 37.0625 
Q 6.296875 42.578125 8.984375 45.96875 
Q 11.671875 49.359375 16.75 51.1875 
Q 21.828125 53.03125 28.515625 53.03125 
Q 35.15625 53.03125 39.296875 51.46875 
Q 43.453125 49.90625 45.40625 47.53125 
Q 47.359375 45.171875 48.140625 41.546875 
Q 48.578125 39.3125 48.578125 33.453125 
L 48.578125 21.734375 
Q 48.578125 9.46875 49.140625 6.21875 
Q 49.703125 2.984375 51.375 0 
L 42.1875 0 
Q 40.828125 2.734375 40.4375 6.390625 
z
M 39.703125 26.03125 
Q 34.90625 24.078125 25.34375 22.703125 
Q 19.921875 21.921875 17.671875 20.9375 
Q 15.4375 19.96875 14.203125 18.09375 
Q 12.984375 16.21875 12.984375 13.921875 
Q 12.984375 10.40625 15.640625 8.0625 
Q 18.3125 5.71875 23.4375 5.71875 
Q 28.515625 5.71875 32.46875 7.9375 
Q 36.421875 10.15625 38.28125 14.015625 
Q 39.703125 17 39.703125 22.796875 
z
" id="ArialMT-97"/>
      <path d="M 25.78125 7.859375 
L 27.046875 0.09375 
Q 23.34375 -0.6875 20.40625 -0.6875 
Q 15.625 -0.6875 12.984375 0.828125 
Q 10.359375 2.34375 9.28125 4.8125 
Q 8.203125 7.28125 8.203125 15.1875 
L 8.203125 45.015625 
L 1.765625 45.015625 
L 1.765625 51.859375 
L 8.203125 51.859375 
L 8.203125 64.703125 
L 16.9375 69.96875 
L 16.9375 51.859375 
L 25.78125 51.859375 
L 25.78125 45.015625 
L 16.9375 45.015625 
L 16.9375 14.703125 
Q 16.9375 10.9375 17.40625 9.859375 
Q 17.875 8.796875 18.921875 8.15625 
Q 19.96875 7.515625 21.921875 7.515625 
Q 23.390625 7.515625 25.78125 7.859375 
z
" id="ArialMT-116"/>
     </defs>
     <g style="fill:#262626;" transform="translate(162.754125 314.334688)scale(0.12 -0.12)">
      <use xlink:href="#ArialMT-98"/>
      <use x="55.615234" xlink:href="#ArialMT-105"/>
      <use x="77.832031" xlink:href="#ArialMT-111"/>
      <use x="133.447266" xlink:href="#ArialMT-82"/>
      <use x="205.664062" xlink:href="#ArialMT-120"/>
      <use x="255.664062" xlink:href="#ArialMT-105"/>
      <use x="277.880859" xlink:href="#ArialMT-118"/>
      <use x="327.880859" xlink:href="#ArialMT-32"/>
      <use x="355.664062" xlink:href="#ArialMT-118"/>
      <use x="405.664062" xlink:href="#ArialMT-115"/>
      <use x="455.664062" xlink:href="#ArialMT-32"/>
      <use x="483.447266" xlink:href="#ArialMT-80"/>
      <use x="550.146484" xlink:href="#ArialMT-77"/>
      <use x="633.447266" xlink:href="#ArialMT-67"/>
      <use x="705.664062" xlink:href="#ArialMT-32"/>
      <use x="733.447266" xlink:href="#ArialMT-79"/>
      <use x="811.230469" xlink:href="#ArialMT-100"/>
      <use x="866.845703" xlink:href="#ArialMT-100"/>
      <use x="922.460938" xlink:href="#ArialMT-115"/>
      <use x="972.460938" xlink:href="#ArialMT-32"/>
      <use x="1000.244141" xlink:href="#ArialMT-82"/>
      <use x="1072.460938" xlink:href="#ArialMT-97"/>
      <use x="1128.076172" xlink:href="#ArialMT-116"/>
      <use x="1155.859375" xlink:href="#ArialMT-105"/>
      <use x="1178.076172" xlink:href="#ArialMT-111"/>
     </g>
    </g>
   </g>
   <g id="matplotlib.axis_2">
    <g id="ytick_1">
     <g id="line2d_8">
      <defs>
       <path d="M 0 0 
L -4.8 0 
" id="m8e334d9579" style="stroke:#262626;"/>
      </defs>
      <g>
       <use style="fill:#262626;stroke:#262626;" x="56.9535" xlink:href="#m8e334d9579" y="280.262687"/>
      </g>
     </g>
     <g id="text_6">
      <!-- patients -->
      <defs>
       <path d="M 6.59375 -19.875 
L 6.59375 51.859375 
L 14.59375 51.859375 
L 14.59375 45.125 
Q 17.4375 49.078125 21 51.046875 
Q 24.5625 53.03125 29.640625 53.03125 
Q 36.28125 53.03125 41.359375 49.609375 
Q 46.4375 46.1875 49.015625 39.953125 
Q 51.609375 33.734375 51.609375 26.3125 
Q 51.609375 18.359375 48.75 11.984375 
Q 45.90625 5.609375 40.453125 2.21875 
Q 35.015625 -1.171875 29 -1.171875 
Q 24.609375 -1.171875 21.109375 0.6875 
Q 17.625 2.546875 15.375 5.375 
L 15.375 -19.875 
z
M 14.546875 25.640625 
Q 14.546875 15.625 18.59375 10.84375 
Q 22.65625 6.0625 28.421875 6.0625 
Q 34.28125 6.0625 38.453125 11.015625 
Q 42.625 15.96875 42.625 26.375 
Q 42.625 36.28125 38.546875 41.203125 
Q 34.46875 46.140625 28.8125 46.140625 
Q 23.1875 46.140625 18.859375 40.890625 
Q 14.546875 35.640625 14.546875 25.640625 
z
" id="ArialMT-112"/>
       <path d="M 42.09375 16.703125 
L 51.171875 15.578125 
Q 49.03125 7.625 43.21875 3.21875 
Q 37.40625 -1.171875 28.375 -1.171875 
Q 17 -1.171875 10.328125 5.828125 
Q 3.65625 12.84375 3.65625 25.484375 
Q 3.65625 38.578125 10.390625 45.796875 
Q 17.140625 53.03125 27.875 53.03125 
Q 38.28125 53.03125 44.875 45.953125 
Q 51.46875 38.875 51.46875 26.03125 
Q 51.46875 25.25 51.421875 23.6875 
L 12.75 23.6875 
Q 13.234375 15.140625 17.578125 10.59375 
Q 21.921875 6.0625 28.421875 6.0625 
Q 33.25 6.0625 36.671875 8.59375 
Q 40.09375 11.140625 42.09375 16.703125 
z
M 13.234375 30.90625 
L 42.1875 30.90625 
Q 41.609375 37.453125 38.875 40.71875 
Q 34.671875 45.796875 27.984375 45.796875 
Q 21.921875 45.796875 17.796875 41.75 
Q 13.671875 37.703125 13.234375 30.90625 
z
" id="ArialMT-101"/>
       <path d="M 6.59375 0 
L 6.59375 51.859375 
L 14.5 51.859375 
L 14.5 44.484375 
Q 20.21875 53.03125 31 53.03125 
Q 35.6875 53.03125 39.625 51.34375 
Q 43.5625 49.65625 45.515625 46.921875 
Q 47.46875 44.1875 48.25 40.4375 
Q 48.734375 37.984375 48.734375 31.890625 
L 48.734375 0 
L 39.9375 0 
L 39.9375 31.546875 
Q 39.9375 36.921875 38.90625 39.578125 
Q 37.890625 42.234375 35.28125 43.8125 
Q 32.671875 45.40625 29.15625 45.40625 
Q 23.53125 45.40625 19.453125 41.84375 
Q 15.375 38.28125 15.375 28.328125 
L 15.375 0 
z
" id="ArialMT-110"/>
      </defs>
      <g style="fill:#262626;" transform="translate(18.93425 283.412124)scale(0.088 -0.088)">
       <use xlink:href="#ArialMT-112"/>
       <use x="55.615234" xlink:href="#ArialMT-97"/>
       <use x="111.230469" xlink:href="#ArialMT-116"/>
       <use x="139.013672" xlink:href="#ArialMT-105"/>
       <use x="161.230469" xlink:href="#ArialMT-101"/>
       <use x="216.845703" xlink:href="#ArialMT-110"/>
       <use x="272.460938" xlink:href="#ArialMT-116"/>
       <use x="300.244141" xlink:href="#ArialMT-115"/>
      </g>
     </g>
    </g>
    <g id="ytick_2">
     <g id="line2d_9">
      <g>
       <use style="fill:#262626;stroke:#262626;" x="56.9535" xlink:href="#m8e334d9579" y="273.367164"/>
      </g>
     </g>
     <g id="text_7">
      <!-- health -->
      <defs>
       <path d="M 6.59375 0 
L 6.59375 71.578125 
L 15.375 71.578125 
L 15.375 45.90625 
Q 21.53125 53.03125 30.90625 53.03125 
Q 36.671875 53.03125 40.921875 50.75 
Q 45.171875 48.484375 47 44.484375 
Q 48.828125 40.484375 48.828125 32.859375 
L 48.828125 0 
L 40.046875 0 
L 40.046875 32.859375 
Q 40.046875 39.453125 37.1875 42.453125 
Q 34.328125 45.453125 29.109375 45.453125 
Q 25.203125 45.453125 21.75 43.421875 
Q 18.3125 41.40625 16.84375 37.9375 
Q 15.375 34.46875 15.375 28.375 
L 15.375 0 
z
" id="ArialMT-104"/>
       <path d="M 6.390625 0 
L 6.390625 71.578125 
L 15.1875 71.578125 
L 15.1875 0 
z
" id="ArialMT-108"/>
      </defs>
      <g style="fill:#262626;" transform="translate(25.779 276.516602)scale(0.088 -0.088)">
       <use xlink:href="#ArialMT-104"/>
       <use x="55.615234" xlink:href="#ArialMT-101"/>
       <use x="111.230469" xlink:href="#ArialMT-97"/>
       <use x="166.845703" xlink:href="#ArialMT-108"/>
       <use x="189.0625" xlink:href="#ArialMT-116"/>
       <use x="216.845703" xlink:href="#ArialMT-104"/>
      </g>
     </g>
    </g>
    <g id="ytick_3">
     <g id="line2d_10">
      <g>
       <use style="fill:#262626;stroke:#262626;" x="56.9535" xlink:href="#m8e334d9579" y="266.471642"/>
      </g>
     </g>
     <g id="text_8">
      <!-- ± -->
      <defs>
       <path d="M 23.296875 12.703125 
L 23.296875 32.375 
L 3.8125 32.375 
L 3.8125 40.53125 
L 23.296875 40.53125 
L 23.296875 60.015625 
L 31.59375 60.015625 
L 31.59375 40.53125 
L 51.078125 40.53125 
L 51.078125 32.375 
L 31.59375 32.375 
L 31.59375 12.703125 
z
M 51.078125 0 
L 3.8125 0 
L 3.8125 8.203125 
L 51.078125 8.203125 
z
" id="ArialMT-177"/>
      </defs>
      <g style="fill:#262626;" transform="translate(44.923125 269.621079)scale(0.088 -0.088)">
       <use xlink:href="#ArialMT-177"/>
      </g>
     </g>
    </g>
    <g id="ytick_4">
     <g id="line2d_11">
      <g>
       <use style="fill:#262626;stroke:#262626;" x="56.9535" xlink:href="#m8e334d9579" y="259.576119"/>
      </g>
     </g>
     <g id="text_9">
      <!-- years -->
      <defs>
       <path d="M 6.203125 -19.96875 
L 5.21875 -11.71875 
Q 8.109375 -12.5 10.25 -12.5 
Q 13.1875 -12.5 14.9375 -11.515625 
Q 16.703125 -10.546875 17.828125 -8.796875 
Q 18.65625 -7.46875 20.515625 -2.25 
Q 20.75 -1.515625 21.296875 -0.09375 
L 1.609375 51.859375 
L 11.078125 51.859375 
L 21.875 21.828125 
Q 23.96875 16.109375 25.640625 9.8125 
Q 27.15625 15.875 29.25 21.625 
L 40.328125 51.859375 
L 49.125 51.859375 
L 29.390625 -0.875 
Q 26.21875 -9.421875 24.46875 -12.640625 
Q 22.125 -17 19.09375 -19.015625 
Q 16.0625 -21.046875 11.859375 -21.046875 
Q 9.328125 -21.046875 6.203125 -19.96875 
z
" id="ArialMT-121"/>
       <path d="M 6.5 0 
L 6.5 51.859375 
L 14.40625 51.859375 
L 14.40625 44 
Q 17.4375 49.515625 20 51.265625 
Q 22.5625 53.03125 25.640625 53.03125 
Q 30.078125 53.03125 34.671875 50.203125 
L 31.640625 42.046875 
Q 28.421875 43.953125 25.203125 43.953125 
Q 22.3125 43.953125 20.015625 42.21875 
Q 17.71875 40.484375 16.75 37.40625 
Q 15.28125 32.71875 15.28125 27.15625 
L 15.28125 0 
z
" id="ArialMT-114"/>
      </defs>
      <g style="fill:#262626;" transform="translate(28.236125 262.673994)scale(0.088 -0.088)">
       <use xlink:href="#ArialMT-121"/>
       <use x="50" xlink:href="#ArialMT-101"/>
       <use x="105.615234" xlink:href="#ArialMT-97"/>
       <use x="161.230469" xlink:href="#ArialMT-114"/>
       <use x="194.53125" xlink:href="#ArialMT-115"/>
      </g>
     </g>
    </g>
    <g id="ytick_5">
     <g id="line2d_12">
      <g>
       <use style="fill:#262626;stroke:#262626;" x="56.9535" xlink:href="#m8e334d9579" y="252.680597"/>
      </g>
     </g>
     <g id="text_10">
      <!-- risk -->
      <defs>
       <path d="M 6.640625 0 
L 6.640625 71.578125 
L 15.4375 71.578125 
L 15.4375 30.765625 
L 36.234375 51.859375 
L 47.609375 51.859375 
L 27.78125 32.625 
L 49.609375 0 
L 38.765625 0 
L 21.625 26.515625 
L 15.4375 20.5625 
L 15.4375 0 
z
" id="ArialMT-107"/>
      </defs>
      <g style="fill:#262626;" transform="translate(36.068125 255.830035)scale(0.088 -0.088)">
       <use xlink:href="#ArialMT-114"/>
       <use x="33.300781" xlink:href="#ArialMT-105"/>
       <use x="55.517578" xlink:href="#ArialMT-115"/>
       <use x="105.517578" xlink:href="#ArialMT-107"/>
      </g>
     </g>
    </g>
    <g id="ytick_6">
     <g id="line2d_13">
      <g>
       <use style="fill:#262626;stroke:#262626;" x="56.9535" xlink:href="#m8e334d9579" y="245.785075"/>
      </g>
     </g>
     <g id="text_11">
      <!-- clinical -->
      <defs>
       <path d="M 40.4375 19 
L 49.078125 17.875 
Q 47.65625 8.9375 41.8125 3.875 
Q 35.984375 -1.171875 27.484375 -1.171875 
Q 16.84375 -1.171875 10.375 5.78125 
Q 3.90625 12.75 3.90625 25.734375 
Q 3.90625 34.125 6.6875 40.421875 
Q 9.46875 46.734375 15.15625 49.875 
Q 20.84375 53.03125 27.546875 53.03125 
Q 35.984375 53.03125 41.359375 48.75 
Q 46.734375 44.484375 48.25 36.625 
L 39.703125 35.296875 
Q 38.484375 40.53125 35.375 43.15625 
Q 32.28125 45.796875 27.875 45.796875 
Q 21.234375 45.796875 17.078125 41.03125 
Q 12.9375 36.28125 12.9375 25.984375 
Q 12.9375 15.53125 16.9375 10.796875 
Q 20.953125 6.0625 27.390625 6.0625 
Q 32.5625 6.0625 36.03125 9.234375 
Q 39.5 12.40625 40.4375 19 
z
" id="ArialMT-99"/>
      </defs>
      <g style="fill:#262626;" transform="translate(23.34525 248.934512)scale(0.088 -0.088)">
       <use xlink:href="#ArialMT-99"/>
       <use x="50" xlink:href="#ArialMT-108"/>
       <use x="72.216797" xlink:href="#ArialMT-105"/>
       <use x="94.433594" xlink:href="#ArialMT-110"/>
       <use x="150.048828" xlink:href="#ArialMT-105"/>
       <use x="172.265625" xlink:href="#ArialMT-99"/>
       <use x="222.265625" xlink:href="#ArialMT-97"/>
       <use x="277.880859" xlink:href="#ArialMT-108"/>
      </g>
     </g>
    </g>
    <g id="ytick_7">
     <g id="line2d_14">
      <g>
       <use style="fill:#262626;stroke:#262626;" x="56.9535" xlink:href="#m8e334d9579" y="238.889552"/>
      </g>
     </g>
     <g id="text_12">
      <!-- treatment -->
      <defs>
       <path d="M 6.59375 0 
L 6.59375 51.859375 
L 14.453125 51.859375 
L 14.453125 44.578125 
Q 16.890625 48.390625 20.9375 50.703125 
Q 25 53.03125 30.171875 53.03125 
Q 35.9375 53.03125 39.625 50.640625 
Q 43.3125 48.25 44.828125 43.953125 
Q 50.984375 53.03125 60.84375 53.03125 
Q 68.5625 53.03125 72.703125 48.75 
Q 76.859375 44.484375 76.859375 35.59375 
L 76.859375 0 
L 68.109375 0 
L 68.109375 32.671875 
Q 68.109375 37.9375 67.25 40.25 
Q 66.40625 42.578125 64.15625 43.984375 
Q 61.921875 45.40625 58.890625 45.40625 
Q 53.421875 45.40625 49.796875 41.765625 
Q 46.1875 38.140625 46.1875 30.125 
L 46.1875 0 
L 37.40625 0 
L 37.40625 33.6875 
Q 37.40625 39.546875 35.25 42.46875 
Q 33.109375 45.40625 28.21875 45.40625 
Q 24.515625 45.40625 21.359375 43.453125 
Q 18.21875 41.5 16.796875 37.734375 
Q 15.375 33.984375 15.375 26.90625 
L 15.375 0 
z
" id="ArialMT-109"/>
      </defs>
      <g style="fill:#262626;" transform="translate(12.5845 242.03899)scale(0.088 -0.088)">
       <use xlink:href="#ArialMT-116"/>
       <use x="27.783203" xlink:href="#ArialMT-114"/>
       <use x="61.083984" xlink:href="#ArialMT-101"/>
       <use x="116.699219" xlink:href="#ArialMT-97"/>
       <use x="172.314453" xlink:href="#ArialMT-116"/>
       <use x="200.097656" xlink:href="#ArialMT-109"/>
       <use x="283.398438" xlink:href="#ArialMT-101"/>
       <use x="339.013672" xlink:href="#ArialMT-110"/>
       <use x="394.628906" xlink:href="#ArialMT-116"/>
      </g>
     </g>
    </g>
    <g id="ytick_8">
     <g id="line2d_15">
      <g>
       <use style="fill:#262626;stroke:#262626;" x="56.9535" xlink:href="#m8e334d9579" y="231.99403"/>
      </g>
     </g>
     <g id="text_13">
      <!-- study -->
      <defs>
       <path d="M 40.578125 0 
L 40.578125 7.625 
Q 34.515625 -1.171875 24.125 -1.171875 
Q 19.53125 -1.171875 15.546875 0.578125 
Q 11.578125 2.34375 9.640625 5 
Q 7.71875 7.671875 6.9375 11.53125 
Q 6.390625 14.109375 6.390625 19.734375 
L 6.390625 51.859375 
L 15.1875 51.859375 
L 15.1875 23.09375 
Q 15.1875 16.21875 15.71875 13.8125 
Q 16.546875 10.359375 19.234375 8.375 
Q 21.921875 6.390625 25.875 6.390625 
Q 29.828125 6.390625 33.296875 8.421875 
Q 36.765625 10.453125 38.203125 13.9375 
Q 39.65625 17.4375 39.65625 24.078125 
L 39.65625 51.859375 
L 48.4375 51.859375 
L 48.4375 0 
z
" id="ArialMT-117"/>
      </defs>
      <g style="fill:#262626;" transform="translate(28.7215 235.143467)scale(0.088 -0.088)">
       <use xlink:href="#ArialMT-115"/>
       <use x="50" xlink:href="#ArialMT-116"/>
       <use x="77.783203" xlink:href="#ArialMT-117"/>
       <use x="133.398438" xlink:href="#ArialMT-100"/>
       <use x="189.013672" xlink:href="#ArialMT-121"/>
      </g>
     </g>
    </g>
    <g id="ytick_9">
     <g id="line2d_16">
      <g>
       <use style="fill:#262626;stroke:#262626;" x="56.9535" xlink:href="#m8e334d9579" y="225.098507"/>
      </g>
     </g>
     <g id="text_14">
      <!-- group -->
      <defs>
       <path d="M 4.984375 -4.296875 
L 13.53125 -5.5625 
Q 14.0625 -9.515625 16.5 -11.328125 
Q 19.78125 -13.765625 25.4375 -13.765625 
Q 31.546875 -13.765625 34.859375 -11.328125 
Q 38.1875 -8.890625 39.359375 -4.5 
Q 40.046875 -1.8125 39.984375 6.78125 
Q 34.234375 0 25.640625 0 
Q 14.9375 0 9.078125 7.71875 
Q 3.21875 15.4375 3.21875 26.21875 
Q 3.21875 33.640625 5.90625 39.90625 
Q 8.59375 46.1875 13.6875 49.609375 
Q 18.796875 53.03125 25.6875 53.03125 
Q 34.859375 53.03125 40.828125 45.609375 
L 40.828125 51.859375 
L 48.921875 51.859375 
L 48.921875 7.03125 
Q 48.921875 -5.078125 46.453125 -10.125 
Q 44 -15.1875 38.640625 -18.109375 
Q 33.296875 -21.046875 25.484375 -21.046875 
Q 16.21875 -21.046875 10.5 -16.875 
Q 4.78125 -12.703125 4.984375 -4.296875 
z
M 12.25 26.859375 
Q 12.25 16.65625 16.296875 11.96875 
Q 20.359375 7.28125 26.46875 7.28125 
Q 32.515625 7.28125 36.609375 11.9375 
Q 40.71875 16.609375 40.71875 26.5625 
Q 40.71875 36.078125 36.5 40.90625 
Q 32.28125 45.75 26.3125 45.75 
Q 20.453125 45.75 16.34375 40.984375 
Q 12.25 36.234375 12.25 26.859375 
z
" id="ArialMT-103"/>
      </defs>
      <g style="fill:#262626;" transform="translate(27.248875 228.196382)scale(0.088 -0.088)">
       <use xlink:href="#ArialMT-103"/>
       <use x="55.615234" xlink:href="#ArialMT-114"/>
       <use x="88.916016" xlink:href="#ArialMT-111"/>
       <use x="144.53125" xlink:href="#ArialMT-117"/>
       <use x="200.146484" xlink:href="#ArialMT-112"/>
      </g>
     </g>
    </g>
    <g id="ytick_10">
     <g id="line2d_17">
      <g>
       <use style="fill:#262626;stroke:#262626;" x="56.9535" xlink:href="#m8e334d9579" y="218.202985"/>
      </g>
     </g>
     <g id="text_15">
      <!-- age -->
      <g style="fill:#262626;" transform="translate(35.072625 221.30086)scale(0.088 -0.088)">
       <use xlink:href="#ArialMT-97"/>
       <use x="55.615234" xlink:href="#ArialMT-103"/>
       <use x="111.230469" xlink:href="#ArialMT-101"/>
      </g>
     </g>
    </g>
    <g id="ytick_11">
     <g id="line2d_18">
      <g>
       <use style="fill:#262626;stroke:#262626;" x="56.9535" xlink:href="#m8e334d9579" y="211.307463"/>
      </g>
     </g>
     <g id="text_16">
      <!-- reported -->
      <g style="fill:#262626;" transform="translate(16.980375 214.4569)scale(0.088 -0.088)">
       <use xlink:href="#ArialMT-114"/>
       <use x="33.300781" xlink:href="#ArialMT-101"/>
       <use x="88.916016" xlink:href="#ArialMT-112"/>
       <use x="144.53125" xlink:href="#ArialMT-111"/>
       <use x="200.146484" xlink:href="#ArialMT-114"/>
       <use x="233.447266" xlink:href="#ArialMT-116"/>
       <use x="261.230469" xlink:href="#ArialMT-101"/>
       <use x="316.845703" xlink:href="#ArialMT-100"/>
      </g>
     </g>
    </g>
    <g id="ytick_12">
     <g id="line2d_19">
      <g>
       <use style="fill:#262626;stroke:#262626;" x="56.9535" xlink:href="#m8e334d9579" y="204.41194"/>
      </g>
     </g>
     <g id="text_17">
      <!-- groups -->
      <g style="fill:#262626;" transform="translate(22.848875 207.509815)scale(0.088 -0.088)">
       <use xlink:href="#ArialMT-103"/>
       <use x="55.615234" xlink:href="#ArialMT-114"/>
       <use x="88.916016" xlink:href="#ArialMT-111"/>
       <use x="144.53125" xlink:href="#ArialMT-117"/>
       <use x="200.146484" xlink:href="#ArialMT-112"/>
       <use x="255.761719" xlink:href="#ArialMT-115"/>
      </g>
     </g>
    </g>
    <g id="ytick_13">
     <g id="line2d_20">
      <g>
       <use style="fill:#262626;stroke:#262626;" x="56.9535" xlink:href="#m8e334d9579" y="197.516418"/>
      </g>
     </g>
     <g id="text_18">
      <!-- h -->
      <g style="fill:#262626;" transform="translate(44.859875 200.665855)scale(0.088 -0.088)">
       <use xlink:href="#ArialMT-104"/>
      </g>
     </g>
    </g>
    <g id="ytick_14">
     <g id="line2d_21">
      <g>
       <use style="fill:#262626;stroke:#262626;" x="56.9535" xlink:href="#m8e334d9579" y="190.620896"/>
      </g>
     </g>
     <g id="text_19">
      <!-- – -->
      <defs>
       <path d="M -0.203125 22.359375 
L -0.203125 29.4375 
L 55.421875 29.4375 
L 55.421875 22.359375 
z
" id="ArialMT-8211"/>
      </defs>
      <g style="fill:#262626;" transform="translate(44.859875 193.770333)scale(0.088 -0.088)">
       <use xlink:href="#ArialMT-8211"/>
      </g>
     </g>
    </g>
    <g id="ytick_15">
     <g id="line2d_22">
      <g>
       <use style="fill:#262626;stroke:#262626;" x="56.9535" xlink:href="#m8e334d9579" y="183.725373"/>
      </g>
     </g>
     <g id="text_20">
      <!-- cancer -->
      <g style="fill:#262626;" transform="translate(23.3425 186.874811)scale(0.088 -0.088)">
       <use xlink:href="#ArialMT-99"/>
       <use x="50" xlink:href="#ArialMT-97"/>
       <use x="105.615234" xlink:href="#ArialMT-110"/>
       <use x="161.230469" xlink:href="#ArialMT-99"/>
       <use x="211.230469" xlink:href="#ArialMT-101"/>
       <use x="266.845703" xlink:href="#ArialMT-114"/>
      </g>
     </g>
    </g>
    <g id="ytick_16">
     <g id="line2d_23">
      <g>
       <use style="fill:#262626;stroke:#262626;" x="56.9535" xlink:href="#m8e334d9579" y="176.829851"/>
      </g>
     </g>
     <g id="text_21">
      <!-- min -->
      <g style="fill:#262626;" transform="translate(35.5745 179.979288)scale(0.088 -0.088)">
       <use xlink:href="#ArialMT-109"/>
       <use x="83.300781" xlink:href="#ArialMT-105"/>
       <use x="105.517578" xlink:href="#ArialMT-110"/>
      </g>
     </g>
    </g>
    <g id="ytick_17">
     <g id="line2d_24">
      <g>
       <use style="fill:#262626;stroke:#262626;" x="56.9535" xlink:href="#m8e334d9579" y="169.934328"/>
      </g>
     </g>
     <g id="text_22">
      <!-- ml -->
      <g style="fill:#262626;" transform="translate(40.468125 173.083766)scale(0.088 -0.088)">
       <use xlink:href="#ArialMT-109"/>
       <use x="83.300781" xlink:href="#ArialMT-108"/>
      </g>
     </g>
    </g>
    <g id="ytick_18">
     <g id="line2d_25">
      <g>
       <use style="fill:#262626;stroke:#262626;" x="56.9535" xlink:href="#m8e334d9579" y="163.038806"/>
      </g>
     </g>
     <g id="text_23">
      <!-- disease -->
      <g style="fill:#262626;" transform="translate(19.42375 166.188243)scale(0.088 -0.088)">
       <use xlink:href="#ArialMT-100"/>
       <use x="55.615234" xlink:href="#ArialMT-105"/>
       <use x="77.832031" xlink:href="#ArialMT-115"/>
       <use x="127.832031" xlink:href="#ArialMT-101"/>
       <use x="183.447266" xlink:href="#ArialMT-97"/>
       <use x="239.0625" xlink:href="#ArialMT-115"/>
       <use x="289.0625" xlink:href="#ArialMT-101"/>
      </g>
     </g>
    </g>
    <g id="ytick_19">
     <g id="line2d_26">
      <g>
       <use style="fill:#262626;stroke:#262626;" x="56.9535" xlink:href="#m8e334d9579" y="156.143284"/>
      </g>
     </g>
     <g id="text_24">
      <!-- n -->
      <g style="fill:#262626;" transform="translate(44.859875 159.292721)scale(0.088 -0.088)">
       <use xlink:href="#ArialMT-110"/>
      </g>
     </g>
    </g>
    <g id="ytick_20">
     <g id="line2d_27">
      <g>
       <use style="fill:#262626;stroke:#262626;" x="56.9535" xlink:href="#m8e334d9579" y="149.247761"/>
      </g>
     </g>
     <g id="text_25">
      <!-- studies -->
      <g style="fill:#262626;" transform="translate(21.872625 152.397199)scale(0.088 -0.088)">
       <use xlink:href="#ArialMT-115"/>
       <use x="50" xlink:href="#ArialMT-116"/>
       <use x="77.783203" xlink:href="#ArialMT-117"/>
       <use x="133.398438" xlink:href="#ArialMT-100"/>
       <use x="189.013672" xlink:href="#ArialMT-105"/>
       <use x="211.230469" xlink:href="#ArialMT-101"/>
       <use x="266.845703" xlink:href="#ArialMT-115"/>
      </g>
     </g>
    </g>
    <g id="ytick_21">
     <g id="line2d_28">
      <g>
       <use style="fill:#262626;stroke:#262626;" x="56.9535" xlink:href="#m8e334d9579" y="142.352239"/>
      </g>
     </g>
     <g id="text_26">
      <!-- population -->
      <g style="fill:#262626;" transform="translate(9.142875 145.501676)scale(0.088 -0.088)">
       <use xlink:href="#ArialMT-112"/>
       <use x="55.615234" xlink:href="#ArialMT-111"/>
       <use x="111.230469" xlink:href="#ArialMT-112"/>
       <use x="166.845703" xlink:href="#ArialMT-117"/>
       <use x="222.460938" xlink:href="#ArialMT-108"/>
       <use x="244.677734" xlink:href="#ArialMT-97"/>
       <use x="300.292969" xlink:href="#ArialMT-116"/>
       <use x="328.076172" xlink:href="#ArialMT-105"/>
       <use x="350.292969" xlink:href="#ArialMT-111"/>
       <use x="405.908203" xlink:href="#ArialMT-110"/>
      </g>
     </g>
    </g>
    <g id="ytick_22">
     <g id="line2d_29">
      <g>
       <use style="fill:#262626;stroke:#262626;" x="56.9535" xlink:href="#m8e334d9579" y="135.456716"/>
      </g>
     </g>
     <g id="text_27">
      <!-- binding -->
      <g style="fill:#262626;" transform="translate(21.374875 138.606154)scale(0.088 -0.088)">
       <use xlink:href="#ArialMT-98"/>
       <use x="55.615234" xlink:href="#ArialMT-105"/>
       <use x="77.832031" xlink:href="#ArialMT-110"/>
       <use x="133.447266" xlink:href="#ArialMT-100"/>
       <use x="189.0625" xlink:href="#ArialMT-105"/>
       <use x="211.279297" xlink:href="#ArialMT-110"/>
       <use x="266.894531" xlink:href="#ArialMT-103"/>
      </g>
     </g>
    </g>
    <g id="ytick_23">
     <g id="line2d_30">
      <g>
       <use style="fill:#262626;stroke:#262626;" x="56.9535" xlink:href="#m8e334d9579" y="128.561194"/>
      </g>
     </g>
     <g id="text_28">
      <!-- fig -->
      <defs>
       <path d="M 8.6875 0 
L 8.6875 45.015625 
L 0.921875 45.015625 
L 0.921875 51.859375 
L 8.6875 51.859375 
L 8.6875 57.375 
Q 8.6875 62.59375 9.625 65.140625 
Q 10.890625 68.5625 14.078125 70.671875 
Q 17.28125 72.796875 23.046875 72.796875 
Q 26.765625 72.796875 31.25 71.921875 
L 29.9375 64.265625 
Q 27.203125 64.75 24.75 64.75 
Q 20.75 64.75 19.09375 63.03125 
Q 17.4375 61.328125 17.4375 56.640625 
L 17.4375 51.859375 
L 27.546875 51.859375 
L 27.546875 45.015625 
L 17.4375 45.015625 
L 17.4375 0 
z
" id="ArialMT-102"/>
      </defs>
      <g style="fill:#262626;" transform="translate(40.459875 131.764257)scale(0.088 -0.088)">
       <use xlink:href="#ArialMT-102"/>
       <use x="27.783203" xlink:href="#ArialMT-105"/>
       <use x="50" xlink:href="#ArialMT-103"/>
      </g>
     </g>
    </g>
    <g id="ytick_24">
     <g id="line2d_31">
      <g>
       <use style="fill:#262626;stroke:#262626;" x="56.9535" xlink:href="#m8e334d9579" y="121.665672"/>
      </g>
     </g>
     <g id="text_29">
      <!-- individual -->
      <g style="fill:#262626;" transform="translate(13.064375 124.815109)scale(0.088 -0.088)">
       <use xlink:href="#ArialMT-105"/>
       <use x="22.216797" xlink:href="#ArialMT-110"/>
       <use x="77.832031" xlink:href="#ArialMT-100"/>
       <use x="133.447266" xlink:href="#ArialMT-105"/>
       <use x="155.664062" xlink:href="#ArialMT-118"/>
       <use x="205.664062" xlink:href="#ArialMT-105"/>
       <use x="227.880859" xlink:href="#ArialMT-100"/>
       <use x="283.496094" xlink:href="#ArialMT-117"/>
       <use x="339.111328" xlink:href="#ArialMT-97"/>
       <use x="394.726562" xlink:href="#ArialMT-108"/>
      </g>
     </g>
    </g>
    <g id="ytick_25">
     <g id="line2d_32">
      <g>
       <use style="fill:#262626;stroke:#262626;" x="56.9535" xlink:href="#m8e334d9579" y="114.770149"/>
      </g>
     </g>
     <g id="text_30">
      <!-- distribution -->
      <g style="fill:#262626;" transform="translate(7.2 117.919587)scale(0.088 -0.088)">
       <use xlink:href="#ArialMT-100"/>
       <use x="55.615234" xlink:href="#ArialMT-105"/>
       <use x="77.832031" xlink:href="#ArialMT-115"/>
       <use x="127.832031" xlink:href="#ArialMT-116"/>
       <use x="155.615234" xlink:href="#ArialMT-114"/>
       <use x="188.916016" xlink:href="#ArialMT-105"/>
       <use x="211.132812" xlink:href="#ArialMT-98"/>
       <use x="266.748047" xlink:href="#ArialMT-117"/>
       <use x="322.363281" xlink:href="#ArialMT-116"/>
       <use x="350.146484" xlink:href="#ArialMT-105"/>
       <use x="372.363281" xlink:href="#ArialMT-111"/>
       <use x="427.978516" xlink:href="#ArialMT-110"/>
      </g>
     </g>
    </g>
    <g id="ytick_26">
     <g id="line2d_33">
      <g>
       <use style="fill:#262626;stroke:#262626;" x="56.9535" xlink:href="#m8e334d9579" y="107.874627"/>
      </g>
     </g>
     <g id="text_31">
      <!-- sequence -->
      <defs>
       <path d="M 39.65625 -19.875 
L 39.65625 5.515625 
Q 37.59375 2.640625 33.90625 0.734375 
Q 30.21875 -1.171875 26.078125 -1.171875 
Q 16.84375 -1.171875 10.171875 6.203125 
Q 3.515625 13.578125 3.515625 26.421875 
Q 3.515625 34.234375 6.21875 40.421875 
Q 8.9375 46.625 14.078125 49.828125 
Q 19.234375 53.03125 25.390625 53.03125 
Q 35.015625 53.03125 40.53125 44.921875 
L 40.53125 51.859375 
L 48.4375 51.859375 
L 48.4375 -19.875 
z
M 12.546875 26.078125 
Q 12.546875 16.0625 16.75 11.0625 
Q 20.953125 6.0625 26.8125 6.0625 
Q 32.421875 6.0625 36.46875 10.8125 
Q 40.53125 15.578125 40.53125 25.296875 
Q 40.53125 35.640625 36.25 40.859375 
Q 31.984375 46.09375 26.21875 46.09375 
Q 20.515625 46.09375 16.53125 41.234375 
Q 12.546875 36.375 12.546875 26.078125 
z
" id="ArialMT-113"/>
      </defs>
      <g style="fill:#262626;" transform="translate(11.59175 111.024064)scale(0.088 -0.088)">
       <use xlink:href="#ArialMT-115"/>
       <use x="50" xlink:href="#ArialMT-101"/>
       <use x="105.615234" xlink:href="#ArialMT-113"/>
       <use x="161.230469" xlink:href="#ArialMT-117"/>
       <use x="216.845703" xlink:href="#ArialMT-101"/>
       <use x="272.460938" xlink:href="#ArialMT-110"/>
       <use x="328.076172" xlink:href="#ArialMT-99"/>
       <use x="378.076172" xlink:href="#ArialMT-101"/>
      </g>
     </g>
    </g>
    <g id="ytick_27">
     <g id="line2d_34">
      <g>
       <use style="fill:#262626;stroke:#262626;" x="56.9535" xlink:href="#m8e334d9579" y="100.979104"/>
      </g>
     </g>
     <g id="text_32">
      <!-- gene -->
      <g style="fill:#262626;" transform="translate(30.179 104.076979)scale(0.088 -0.088)">
       <use xlink:href="#ArialMT-103"/>
       <use x="55.615234" xlink:href="#ArialMT-101"/>
       <use x="111.230469" xlink:href="#ArialMT-110"/>
       <use x="166.845703" xlink:href="#ArialMT-101"/>
      </g>
     </g>
    </g>
    <g id="ytick_28">
     <g id="line2d_35">
      <g>
       <use style="fill:#262626;stroke:#262626;" x="56.9535" xlink:href="#m8e334d9579" y="94.083582"/>
      </g>
     </g>
     <g id="text_33">
      <!-- set -->
      <g style="fill:#262626;" transform="translate(38.015125 97.23302)scale(0.088 -0.088)">
       <use xlink:href="#ArialMT-115"/>
       <use x="50" xlink:href="#ArialMT-101"/>
       <use x="105.615234" xlink:href="#ArialMT-116"/>
      </g>
     </g>
    </g>
    <g id="ytick_29">
     <g id="line2d_36">
      <g>
       <use style="fill:#262626;stroke:#262626;" x="56.9535" xlink:href="#m8e334d9579" y="87.18806"/>
      </g>
     </g>
     <g id="text_34">
      <!-- model -->
      <g style="fill:#262626;" transform="translate(25.78725 90.337497)scale(0.088 -0.088)">
       <use xlink:href="#ArialMT-109"/>
       <use x="83.300781" xlink:href="#ArialMT-111"/>
       <use x="138.916016" xlink:href="#ArialMT-100"/>
       <use x="194.53125" xlink:href="#ArialMT-101"/>
       <use x="250.146484" xlink:href="#ArialMT-108"/>
      </g>
     </g>
    </g>
    <g id="ytick_30">
     <g id="line2d_37">
      <g>
       <use style="fill:#262626;stroke:#262626;" x="56.9535" xlink:href="#m8e334d9579" y="80.292537"/>
      </g>
     </g>
     <g id="text_35">
      <!-- RNA -->
      <defs>
       <path d="M 7.625 0 
L 7.625 71.578125 
L 17.328125 71.578125 
L 54.9375 15.375 
L 54.9375 71.578125 
L 64.015625 71.578125 
L 64.015625 0 
L 54.296875 0 
L 16.703125 56.25 
L 16.703125 0 
z
" id="ArialMT-78"/>
       <path d="M -0.140625 0 
L 27.34375 71.578125 
L 37.546875 71.578125 
L 66.84375 0 
L 56.0625 0 
L 47.703125 21.6875 
L 17.78125 21.6875 
L 9.90625 0 
z
M 20.515625 29.390625 
L 44.78125 29.390625 
L 37.3125 49.21875 
Q 33.890625 58.25 32.234375 64.0625 
Q 30.859375 57.171875 28.375 50.390625 
z
" id="ArialMT-65"/>
      </defs>
      <g style="fill:#262626;" transform="translate(31.173125 83.441975)scale(0.088 -0.088)">
       <use xlink:href="#ArialMT-82"/>
       <use x="72.216797" xlink:href="#ArialMT-78"/>
       <use x="144.433594" xlink:href="#ArialMT-65"/>
      </g>
     </g>
    </g>
    <g id="ytick_31">
     <g id="line2d_38">
      <g>
       <use style="fill:#262626;stroke:#262626;" x="56.9535" xlink:href="#m8e334d9579" y="73.397015"/>
      </g>
     </g>
     <g id="text_36">
      <!-- species -->
      <g style="fill:#262626;" transform="translate(19.917375 76.546452)scale(0.088 -0.088)">
       <use xlink:href="#ArialMT-115"/>
       <use x="50" xlink:href="#ArialMT-112"/>
       <use x="105.615234" xlink:href="#ArialMT-101"/>
       <use x="161.230469" xlink:href="#ArialMT-99"/>
       <use x="211.230469" xlink:href="#ArialMT-105"/>
       <use x="233.447266" xlink:href="#ArialMT-101"/>
       <use x="289.0625" xlink:href="#ArialMT-115"/>
      </g>
     </g>
    </g>
    <g id="ytick_32">
     <g id="line2d_39">
      <g>
       <use style="fill:#262626;stroke:#262626;" x="56.9535" xlink:href="#m8e334d9579" y="66.501493"/>
      </g>
     </g>
     <g id="text_37">
      <!-- models -->
      <g style="fill:#262626;" transform="translate(21.38725 69.65093)scale(0.088 -0.088)">
       <use xlink:href="#ArialMT-109"/>
       <use x="83.300781" xlink:href="#ArialMT-111"/>
       <use x="138.916016" xlink:href="#ArialMT-100"/>
       <use x="194.53125" xlink:href="#ArialMT-101"/>
       <use x="250.146484" xlink:href="#ArialMT-108"/>
       <use x="272.363281" xlink:href="#ArialMT-115"/>
      </g>
     </g>
    </g>
    <g id="ytick_33">
     <g id="line2d_40">
      <g>
       <use style="fill:#262626;stroke:#262626;" x="56.9535" xlink:href="#m8e334d9579" y="59.60597"/>
      </g>
     </g>
     <g id="text_38">
      <!-- single -->
      <g style="fill:#262626;" transform="translate(26.762125 62.755408)scale(0.088 -0.088)">
       <use xlink:href="#ArialMT-115"/>
       <use x="50" xlink:href="#ArialMT-105"/>
       <use x="72.216797" xlink:href="#ArialMT-110"/>
       <use x="127.832031" xlink:href="#ArialMT-103"/>
       <use x="183.447266" xlink:href="#ArialMT-108"/>
       <use x="205.664062" xlink:href="#ArialMT-101"/>
      </g>
     </g>
    </g>
    <g id="ytick_34">
     <g id="line2d_41">
      <g>
       <use style="fill:#262626;stroke:#262626;" x="56.9535" xlink:href="#m8e334d9579" y="52.710448"/>
      </g>
     </g>
     <g id="text_39">
      <!-- genes -->
      <g style="fill:#262626;" transform="translate(25.779 55.808323)scale(0.088 -0.088)">
       <use xlink:href="#ArialMT-103"/>
       <use x="55.615234" xlink:href="#ArialMT-101"/>
       <use x="111.230469" xlink:href="#ArialMT-110"/>
       <use x="166.845703" xlink:href="#ArialMT-101"/>
       <use x="222.460938" xlink:href="#ArialMT-115"/>
      </g>
     </g>
    </g>
    <g id="ytick_35">
     <g id="line2d_42">
      <g>
       <use style="fill:#262626;stroke:#262626;" x="56.9535" xlink:href="#m8e334d9579" y="45.814925"/>
      </g>
     </g>
     <g id="text_40">
      <!-- et -->
      <g style="fill:#262626;" transform="translate(42.415125 48.964363)scale(0.088 -0.088)">
       <use xlink:href="#ArialMT-101"/>
       <use x="55.615234" xlink:href="#ArialMT-116"/>
      </g>
     </g>
    </g>
    <g id="ytick_36">
     <g id="line2d_43">
      <g>
       <use style="fill:#262626;stroke:#262626;" x="56.9535" xlink:href="#m8e334d9579" y="38.919403"/>
      </g>
     </g>
     <g id="text_41">
      <!-- al -->
      <g style="fill:#262626;" transform="translate(42.904625 42.06884)scale(0.088 -0.088)">
       <use xlink:href="#ArialMT-97"/>
       <use x="55.615234" xlink:href="#ArialMT-108"/>
      </g>
     </g>
    </g>
    <g id="ytick_37">
     <g id="line2d_44">
      <g>
       <use style="fill:#262626;stroke:#262626;" x="56.9535" xlink:href="#m8e334d9579" y="32.023881"/>
      </g>
     </g>
     <g id="text_42">
      <!-- regions -->
      <g style="fill:#262626;" transform="translate(20.893625 35.173318)scale(0.088 -0.088)">
       <use xlink:href="#ArialMT-114"/>
       <use x="33.300781" xlink:href="#ArialMT-101"/>
       <use x="88.916016" xlink:href="#ArialMT-103"/>
       <use x="144.53125" xlink:href="#ArialMT-105"/>
       <use x="166.748047" xlink:href="#ArialMT-111"/>
       <use x="222.363281" xlink:href="#ArialMT-110"/>
       <use x="277.978516" xlink:href="#ArialMT-115"/>
      </g>
     </g>
    </g>
    <g id="ytick_38">
     <g id="line2d_45">
      <g>
       <use style="fill:#262626;stroke:#262626;" x="56.9535" xlink:href="#m8e334d9579" y="25.128358"/>
      </g>
     </g>
     <g id="text_43">
      <!-- genetic -->
      <g style="fill:#262626;" transform="translate(21.379 28.277796)scale(0.088 -0.088)">
       <use xlink:href="#ArialMT-103"/>
       <use x="55.615234" xlink:href="#ArialMT-101"/>
       <use x="111.230469" xlink:href="#ArialMT-110"/>
       <use x="166.845703" xlink:href="#ArialMT-101"/>
       <use x="222.460938" xlink:href="#ArialMT-116"/>
       <use x="250.244141" xlink:href="#ArialMT-105"/>
       <use x="272.460938" xlink:href="#ArialMT-99"/>
      </g>
     </g>
    </g>
    <g id="ytick_39">
     <g id="line2d_46">
      <g>
       <use style="fill:#262626;stroke:#262626;" x="56.9535" xlink:href="#m8e334d9579" y="18.232836"/>
      </g>
     </g>
     <g id="text_44">
      <!-- genome -->
      <g style="fill:#262626;" transform="translate(17.95525 21.330711)scale(0.088 -0.088)">
       <use xlink:href="#ArialMT-103"/>
       <use x="55.615234" xlink:href="#ArialMT-101"/>
       <use x="111.230469" xlink:href="#ArialMT-110"/>
       <use x="166.845703" xlink:href="#ArialMT-111"/>
       <use x="222.460938" xlink:href="#ArialMT-109"/>
       <use x="305.761719" xlink:href="#ArialMT-101"/>
      </g>
     </g>
    </g>
    <g id="ytick_40">
     <g id="line2d_47">
      <g>
       <use style="fill:#262626;stroke:#262626;" x="56.9535" xlink:href="#m8e334d9579" y="11.337313"/>
      </g>
     </g>
     <g id="text_45">
      <!-- neurons -->
      <g style="fill:#262626;" transform="translate(17.95525 14.486751)scale(0.088 -0.088)">
       <use xlink:href="#ArialMT-110"/>
       <use x="55.615234" xlink:href="#ArialMT-101"/>
       <use x="111.230469" xlink:href="#ArialMT-117"/>
       <use x="166.845703" xlink:href="#ArialMT-114"/>
       <use x="200.146484" xlink:href="#ArialMT-111"/>
       <use x="255.761719" xlink:href="#ArialMT-110"/>
       <use x="311.376953" xlink:href="#ArialMT-115"/>
      </g>
     </g>
    </g>
   </g>
   <g id="LineCollection_1">
    <path clip-path="url(#p432c9f9979)" d="M 269.727665 80.292537 
L 271.249919 80.292537 
" style="fill:none;stroke:#253494;stroke-width:0.531736;"/>
   </g>
   <g id="PathCollection_1">
    <defs>
     <path d="M 0 1.506586 
C 0.399551 1.506586 0.782792 1.347842 1.065317 1.065317 
C 1.347842 0.782792 1.506586 0.399551 1.506586 0 
C 1.506586 -0.399551 1.347842 -0.782792 1.065317 -1.065317 
C 0.782792 -1.347842 0.399551 -1.506586 0 -1.506586 
C -0.399551 -1.506586 -0.782792 -1.347842 -1.065317 -1.065317 
C -1.347842 -0.782792 -1.506586 -0.399551 -1.506586 0 
C -1.506586 0.399551 -1.347842 0.782792 -1.065317 1.065317 
C -0.782792 1.347842 -0.399551 1.506586 0 1.506586 
z
" id="m94cd739743" style="stroke:#253494;stroke-width:0.886227;"/>
    </defs>
    <g clip-path="url(#p432c9f9979)">
     <use style="fill:#253494;stroke:#253494;stroke-width:0.886227;" x="270.487319" xlink:href="#m94cd739743" y="80.292537"/>
    </g>
   </g>
   <g id="LineCollection_2">
    <path clip-path="url(#p432c9f9979)" d="M 130.88844 218.202985 
L 131.467149 218.202985 
" style="fill:none;stroke:#253494;stroke-width:0.531736;"/>
   </g>
   <g id="PathCollection_2">
    <g clip-path="url(#p432c9f9979)">
     <use style="fill:#253494;stroke:#253494;stroke-width:0.886227;" x="131.177065" xlink:href="#m94cd739743" y="218.202985"/>
    </g>
   </g>
   <g id="LineCollection_3">
    <path clip-path="url(#p432c9f9979)" d="M 290.41903 38.919403 
L 291.094635 38.919403 
" style="fill:none;stroke:#253494;stroke-width:0.531736;"/>
   </g>
   <g id="PathCollection_3">
    <g clip-path="url(#p432c9f9979)">
     <use style="fill:#253494;stroke:#253494;stroke-width:0.886227;" x="290.75657" xlink:href="#m94cd739743" y="38.919403"/>
    </g>
   </g>
   <g id="LineCollection_4">
    <path clip-path="url(#p432c9f9979)" d="M 233.237584 135.456716 
L 234.478392 135.456716 
" style="fill:none;stroke:#253494;stroke-width:0.531736;"/>
   </g>
   <g id="PathCollection_4">
    <g clip-path="url(#p432c9f9979)">
     <use style="fill:#253494;stroke:#253494;stroke-width:0.886227;" x="233.856786" xlink:href="#m94cd739743" y="135.456716"/>
    </g>
   </g>
   <g id="LineCollection_5">
    <path clip-path="url(#p432c9f9979)" d="M 133.723764 183.725373 
L 134.326089 183.725373 
" style="fill:none;stroke:#253494;stroke-width:0.531736;"/>
   </g>
   <g id="PathCollection_5">
    <g clip-path="url(#p432c9f9979)">
     <use style="fill:#253494;stroke:#253494;stroke-width:0.886227;" x="134.024173" xlink:href="#m94cd739743" y="183.725373"/>
    </g>
   </g>
   <g id="LineCollection_6">
    <path clip-path="url(#p432c9f9979)" d="M 112.182678 245.785075 
L 112.683831 245.785075 
" style="fill:none;stroke:#253494;stroke-width:0.531736;"/>
   </g>
   <g id="PathCollection_6">
    <g clip-path="url(#p432c9f9979)">
     <use style="fill:#253494;stroke:#253494;stroke-width:0.886227;" x="112.432441" xlink:href="#m94cd739743" y="245.785075"/>
    </g>
   </g>
   <g id="LineCollection_7">
    <path clip-path="url(#p432c9f9979)" d="M 139.892205 163.038806 
L 140.560041 163.038806 
" style="fill:none;stroke:#253494;stroke-width:0.531736;"/>
   </g>
   <g id="PathCollection_7">
    <g clip-path="url(#p432c9f9979)">
     <use style="fill:#253494;stroke:#253494;stroke-width:0.886227;" x="140.225283" xlink:href="#m94cd739743" y="163.038806"/>
    </g>
   </g>
   <g id="LineCollection_8">
    <path clip-path="url(#p432c9f9979)" d="M 254.423643 114.770149 
L 255.922488 114.770149 
" style="fill:none;stroke:#253494;stroke-width:0.531736;"/>
   </g>
   <g id="PathCollection_8">
    <g clip-path="url(#p432c9f9979)">
     <use style="fill:#253494;stroke:#253494;stroke-width:0.886227;" x="255.171516" xlink:href="#m94cd739743" y="114.770149"/>
    </g>
   </g>
   <g id="LineCollection_9">
    <path clip-path="url(#p432c9f9979)" d="M 283.429509 45.814925 
L 284.080799 45.814925 
" style="fill:none;stroke:#253494;stroke-width:0.531736;"/>
   </g>
   <g id="PathCollection_9">
    <g clip-path="url(#p432c9f9979)">
     <use style="fill:#253494;stroke:#253494;stroke-width:0.886227;" x="283.754901" xlink:href="#m94cd739743" y="45.814925"/>
    </g>
   </g>
   <g id="LineCollection_10">
    <path clip-path="url(#p432c9f9979)" d="M 240.784775 128.561194 
L 241.456139 128.561194 
" style="fill:none;stroke:#253494;stroke-width:0.531736;"/>
   </g>
   <g id="PathCollection_10">
    <g clip-path="url(#p432c9f9979)">
     <use style="fill:#253494;stroke:#253494;stroke-width:0.886227;" x="241.12012" xlink:href="#m94cd739743" y="128.561194"/>
    </g>
   </g>
   <g id="LineCollection_11">
    <path clip-path="url(#p432c9f9979)" d="M 262.109608 100.979104 
L 263.068227 100.979104 
" style="fill:none;stroke:#253494;stroke-width:0.531736;"/>
   </g>
   <g id="PathCollection_11">
    <g clip-path="url(#p432c9f9979)">
     <use style="fill:#253494;stroke:#253494;stroke-width:0.886227;" x="262.588309" xlink:href="#m94cd739743" y="100.979104"/>
    </g>
   </g>
   <g id="LineCollection_12">
    <path clip-path="url(#p432c9f9979)" d="M 280.074639 52.710448 
L 281.087844 52.710448 
" style="fill:none;stroke:#253494;stroke-width:0.531736;"/>
   </g>
   <g id="PathCollection_12">
    <g clip-path="url(#p432c9f9979)">
     <use style="fill:#253494;stroke:#253494;stroke-width:0.886227;" x="280.580621" xlink:href="#m94cd739743" y="52.710448"/>
    </g>
   </g>
   <g id="LineCollection_13">
    <path clip-path="url(#p432c9f9979)" d="M 314.997154 25.128358 
L 317.016011 25.128358 
" style="fill:none;stroke:#253494;stroke-width:0.531736;"/>
   </g>
   <g id="PathCollection_13">
    <g clip-path="url(#p432c9f9979)">
     <use style="fill:#253494;stroke:#253494;stroke-width:0.886227;" x="316.004479" xlink:href="#m94cd739743" y="25.128358"/>
    </g>
   </g>
   <g id="LineCollection_14">
    <path clip-path="url(#p432c9f9979)" d="M 383.282265 18.232836 
L 385.62038 18.232836 
" style="fill:none;stroke:#253494;stroke-width:0.531736;"/>
   </g>
   <g id="PathCollection_14">
    <g clip-path="url(#p432c9f9979)">
     <use style="fill:#253494;stroke:#253494;stroke-width:0.886227;" x="384.449123" xlink:href="#m94cd739743" y="18.232836"/>
    </g>
   </g>
   <g id="LineCollection_15">
    <path clip-path="url(#p432c9f9979)" d="M 121.974738 225.098507 
L 122.357615 225.098507 
" style="fill:none;stroke:#253494;stroke-width:0.531736;"/>
   </g>
   <g id="PathCollection_15">
    <g clip-path="url(#p432c9f9979)">
     <use style="fill:#253494;stroke:#253494;stroke-width:0.886227;" x="122.165798" xlink:href="#m94cd739743" y="225.098507"/>
    </g>
   </g>
   <g id="LineCollection_16">
    <path clip-path="url(#p432c9f9979)" d="M 132.589057 204.41194 
L 133.152648 204.41194 
" style="fill:none;stroke:#253494;stroke-width:0.531736;"/>
   </g>
   <g id="PathCollection_16">
    <g clip-path="url(#p432c9f9979)">
     <use style="fill:#253494;stroke:#253494;stroke-width:0.886227;" x="132.87018" xlink:href="#m94cd739743" y="204.41194"/>
    </g>
   </g>
   <g id="LineCollection_17">
    <path clip-path="url(#p432c9f9979)" d="M 132.918197 197.516418 
L 133.496422 197.516418 
" style="fill:none;stroke:#253494;stroke-width:0.531736;"/>
   </g>
   <g id="PathCollection_17">
    <g clip-path="url(#p432c9f9979)">
     <use style="fill:#253494;stroke:#253494;stroke-width:0.886227;" x="133.206605" xlink:href="#m94cd739743" y="197.516418"/>
    </g>
   </g>
   <g id="LineCollection_18">
    <path clip-path="url(#p432c9f9979)" d="M 91.786066 273.367164 
L 92.093735 273.367164 
" style="fill:none;stroke:#253494;stroke-width:0.531736;"/>
   </g>
   <g id="PathCollection_18">
    <g clip-path="url(#p432c9f9979)">
     <use style="fill:#253494;stroke:#253494;stroke-width:0.886227;" x="91.939247" xlink:href="#m94cd739743" y="273.367164"/>
    </g>
   </g>
   <g id="LineCollection_19">
    <path clip-path="url(#p432c9f9979)" d="M 248.371056 121.665672 
L 249.834505 121.665672 
" style="fill:none;stroke:#253494;stroke-width:0.531736;"/>
   </g>
   <g id="PathCollection_19">
    <g clip-path="url(#p432c9f9979)">
     <use style="fill:#253494;stroke:#253494;stroke-width:0.886227;" x="249.101253" xlink:href="#m94cd739743" y="121.665672"/>
    </g>
   </g>
   <g id="LineCollection_20">
    <path clip-path="url(#p432c9f9979)" d="M 136.438028 176.829851 
L 137.097009 176.829851 
" style="fill:none;stroke:#253494;stroke-width:0.531736;"/>
   </g>
   <g id="PathCollection_20">
    <g clip-path="url(#p432c9f9979)">
     <use style="fill:#253494;stroke:#253494;stroke-width:0.886227;" x="136.766656" xlink:href="#m94cd739743" y="176.829851"/>
    </g>
   </g>
   <g id="LineCollection_21">
    <path clip-path="url(#p432c9f9979)" d="M 137.280062 169.934328 
L 137.895253 169.934328 
" style="fill:none;stroke:#253494;stroke-width:0.531736;"/>
   </g>
   <g id="PathCollection_21">
    <g clip-path="url(#p432c9f9979)">
     <use style="fill:#253494;stroke:#253494;stroke-width:0.886227;" x="137.586916" xlink:href="#m94cd739743" y="169.934328"/>
    </g>
   </g>
   <g id="LineCollection_22">
    <path clip-path="url(#p432c9f9979)" d="M 267.008877 87.18806 
L 267.937404 87.18806 
" style="fill:none;stroke:#253494;stroke-width:0.531736;"/>
   </g>
   <g id="PathCollection_22">
    <g clip-path="url(#p432c9f9979)">
     <use style="fill:#253494;stroke:#253494;stroke-width:0.886227;" x="267.472584" xlink:href="#m94cd739743" y="87.18806"/>
    </g>
   </g>
   <g id="LineCollection_23">
    <path clip-path="url(#p432c9f9979)" d="M 272.998727 66.501493 
L 274.534603 66.501493 
" style="fill:none;stroke:#253494;stroke-width:0.531736;"/>
   </g>
   <g id="PathCollection_23">
    <g clip-path="url(#p432c9f9979)">
     <use style="fill:#253494;stroke:#253494;stroke-width:0.886227;" x="273.76519" xlink:href="#m94cd739743" y="66.501493"/>
    </g>
   </g>
   <g id="LineCollection_24">
    <path clip-path="url(#p432c9f9979)" d="M 142.74237 156.143284 
L 143.257987 156.143284 
" style="fill:none;stroke:#253494;stroke-width:0.531736;"/>
   </g>
   <g id="PathCollection_24">
    <g clip-path="url(#p432c9f9979)">
     <use style="fill:#253494;stroke:#253494;stroke-width:0.886227;" x="142.999698" xlink:href="#m94cd739743" y="156.143284"/>
    </g>
   </g>
   <g id="LineCollection_25">
    <path clip-path="url(#p432c9f9979)" d="M 398.008392 11.337313 
L 400.771592 11.337313 
" style="fill:none;stroke:#253494;stroke-width:0.531736;"/>
   </g>
   <g id="PathCollection_25">
    <g clip-path="url(#p432c9f9979)">
     <use style="fill:#253494;stroke:#253494;stroke-width:0.886227;" x="399.38706" xlink:href="#m94cd739743" y="11.337313"/>
    </g>
   </g>
   <g id="LineCollection_26">
    <path clip-path="url(#p432c9f9979)" d="M 91.634999 280.262687 
L 91.81597 280.262687 
" style="fill:none;stroke:#253494;stroke-width:0.531736;"/>
   </g>
   <g id="PathCollection_26">
    <g clip-path="url(#p432c9f9979)">
     <use style="fill:#253494;stroke:#253494;stroke-width:0.886227;" x="91.725256" xlink:href="#m94cd739743" y="280.262687"/>
    </g>
   </g>
   <g id="LineCollection_27">
    <path clip-path="url(#p432c9f9979)" d="M 227.830723 142.352239 
L 228.947011 142.352239 
" style="fill:none;stroke:#253494;stroke-width:0.531736;"/>
   </g>
   <g id="PathCollection_27">
    <g clip-path="url(#p432c9f9979)">
     <use style="fill:#253494;stroke:#253494;stroke-width:0.886227;" x="228.387859" xlink:href="#m94cd739743" y="142.352239"/>
    </g>
   </g>
   <g id="LineCollection_28">
    <path clip-path="url(#p432c9f9979)" d="M 301.368328 32.023881 
L 303.159503 32.023881 
" style="fill:none;stroke:#253494;stroke-width:0.531736;"/>
   </g>
   <g id="PathCollection_28">
    <g clip-path="url(#p432c9f9979)">
     <use style="fill:#253494;stroke:#253494;stroke-width:0.886227;" x="302.26216" xlink:href="#m94cd739743" y="32.023881"/>
    </g>
   </g>
   <g id="LineCollection_29">
    <path clip-path="url(#p432c9f9979)" d="M 131.178605 211.307463 
L 131.711188 211.307463 
" style="fill:none;stroke:#253494;stroke-width:0.531736;"/>
   </g>
   <g id="PathCollection_29">
    <g clip-path="url(#p432c9f9979)">
     <use style="fill:#253494;stroke:#253494;stroke-width:0.886227;" x="131.444281" xlink:href="#m94cd739743" y="211.307463"/>
    </g>
   </g>
   <g id="LineCollection_30">
    <path clip-path="url(#p432c9f9979)" d="M 111.659928 252.680597 
L 112.150495 252.680597 
" style="fill:none;stroke:#253494;stroke-width:0.531736;"/>
   </g>
   <g id="PathCollection_30">
    <g clip-path="url(#p432c9f9979)">
     <use style="fill:#253494;stroke:#253494;stroke-width:0.886227;" x="111.904421" xlink:href="#m94cd739743" y="252.680597"/>
    </g>
   </g>
   <g id="LineCollection_31">
    <path clip-path="url(#p432c9f9979)" d="M 260.734264 107.874627 
L 262.186119 107.874627 
" style="fill:none;stroke:#253494;stroke-width:0.531736;"/>
   </g>
   <g id="PathCollection_31">
    <g clip-path="url(#p432c9f9979)">
     <use style="fill:#253494;stroke:#253494;stroke-width:0.886227;" x="261.458787" xlink:href="#m94cd739743" y="107.874627"/>
    </g>
   </g>
   <g id="LineCollection_32">
    <path clip-path="url(#p432c9f9979)" d="M 265.251822 94.083582 
L 266.659941 94.083582 
" style="fill:none;stroke:#253494;stroke-width:0.531736;"/>
   </g>
   <g id="PathCollection_32">
    <g clip-path="url(#p432c9f9979)">
     <use style="fill:#253494;stroke:#253494;stroke-width:0.886227;" x="265.954591" xlink:href="#m94cd739743" y="94.083582"/>
    </g>
   </g>
   <g id="LineCollection_33">
    <path clip-path="url(#p432c9f9979)" d="M 274.835477 59.60597 
L 276.220336 59.60597 
" style="fill:none;stroke:#253494;stroke-width:0.531736;"/>
   </g>
   <g id="PathCollection_33">
    <g clip-path="url(#p432c9f9979)">
     <use style="fill:#253494;stroke:#253494;stroke-width:0.886227;" x="275.526718" xlink:href="#m94cd739743" y="59.60597"/>
    </g>
   </g>
   <g id="LineCollection_34">
    <path clip-path="url(#p432c9f9979)" d="M 270.568229 73.397015 
L 271.810843 73.397015 
" style="fill:none;stroke:#253494;stroke-width:0.531736;"/>
   </g>
   <g id="PathCollection_34">
    <g clip-path="url(#p432c9f9979)">
     <use style="fill:#253494;stroke:#253494;stroke-width:0.886227;" x="271.188558" xlink:href="#m94cd739743" y="73.397015"/>
    </g>
   </g>
   <g id="LineCollection_35">
    <path clip-path="url(#p432c9f9979)" d="M 148.696264 149.247761 
L 149.222504 149.247761 
" style="fill:none;stroke:#253494;stroke-width:0.531736;"/>
   </g>
   <g id="PathCollection_35">
    <g clip-path="url(#p432c9f9979)">
     <use style="fill:#253494;stroke:#253494;stroke-width:0.886227;" x="148.958923" xlink:href="#m94cd739743" y="149.247761"/>
    </g>
   </g>
   <g id="LineCollection_36">
    <path clip-path="url(#p432c9f9979)" d="M 120.81764 231.99403 
L 121.098296 231.99403 
" style="fill:none;stroke:#253494;stroke-width:0.531736;"/>
   </g>
   <g id="PathCollection_36">
    <g clip-path="url(#p432c9f9979)">
     <use style="fill:#253494;stroke:#253494;stroke-width:0.886227;" x="120.957759" xlink:href="#m94cd739743" y="231.99403"/>
    </g>
   </g>
   <g id="LineCollection_37">
    <path clip-path="url(#p432c9f9979)" d="M 120.003945 238.889552 
L 120.413001 238.889552 
" style="fill:none;stroke:#253494;stroke-width:0.531736;"/>
   </g>
   <g id="PathCollection_37">
    <g clip-path="url(#p432c9f9979)">
     <use style="fill:#253494;stroke:#253494;stroke-width:0.886227;" x="120.208022" xlink:href="#m94cd739743" y="238.889552"/>
    </g>
   </g>
   <g id="LineCollection_38">
    <path clip-path="url(#p432c9f9979)" d="M 109.876642 259.576119 
L 110.376602 259.576119 
" style="fill:none;stroke:#253494;stroke-width:0.531736;"/>
   </g>
   <g id="PathCollection_38">
    <g clip-path="url(#p432c9f9979)">
     <use style="fill:#253494;stroke:#253494;stroke-width:0.886227;" x="110.125761" xlink:href="#m94cd739743" y="259.576119"/>
    </g>
   </g>
   <g id="LineCollection_39">
    <path clip-path="url(#p432c9f9979)" d="M 102.475146 266.471642 
L 102.77149 266.471642 
" style="fill:none;stroke:#253494;stroke-width:0.531736;"/>
   </g>
   <g id="PathCollection_39">
    <g clip-path="url(#p432c9f9979)">
     <use style="fill:#253494;stroke:#253494;stroke-width:0.886227;" x="102.622937" xlink:href="#m94cd739743" y="266.471642"/>
    </g>
   </g>
   <g id="LineCollection_40">
    <path clip-path="url(#p432c9f9979)" d="M 133.3983 190.620896 
L 133.915872 190.620896 
" style="fill:none;stroke:#253494;stroke-width:0.531736;"/>
   </g>
   <g id="PathCollection_40">
    <g clip-path="url(#p432c9f9979)">
     <use style="fill:#253494;stroke:#253494;stroke-width:0.886227;" x="133.656526" xlink:href="#m94cd739743" y="190.620896"/>
    </g>
   </g>
   <g id="LineCollection_41">
    <path clip-path="url(#p432c9f9979)" d="M 179.421818 284.4 
L 179.421818 7.2 
" style="fill:none;stroke:#808080;stroke-dasharray:3.27904,1.417963;stroke-dashoffset:0;stroke-width:0.886227;"/>
   </g>
   <g id="patch_3">
    <path d="M 56.9535 284.4 
L 56.9535 7.2 
" style="fill:none;stroke:#262626;stroke-linecap:square;stroke-linejoin:miter;"/>
   </g>
   <g id="patch_4">
    <path d="M 428.5815 284.4 
L 428.5815 7.2 
" style="fill:none;stroke:#262626;stroke-linecap:square;stroke-linejoin:miter;"/>
   </g>
   <g id="patch_5">
    <path d="M 56.9535 284.4 
L 428.5815 284.4 
" style="fill:none;stroke:#262626;stroke-linecap:square;stroke-linejoin:miter;"/>
   </g>
   <g id="patch_6">
    <path d="M 56.9535 7.2 
L 428.5815 7.2 
" style="fill:none;stroke:#262626;stroke-linecap:square;stroke-linejoin:miter;"/>
   </g>
  </g>
 </g>
 <defs>
  <clipPath id="p432c9f9979">
   <rect height="277.2" width="371.628" x="56.9535" y="7.2"/>
  </clipPath>
 </defs>
</svg>
