<?xml version="1.0" encoding="utf-8" standalone="no"?>
<!DOCTYPE svg PUBLIC "-//W3C//DTD SVG 1.1//EN"
  "http://www.w3.org/Graphics/SVG/1.1/DTD/svg11.dtd">
<!-- Created with matplotlib (https://matplotlib.org/) -->
<svg height="638.468725pt" version="1.1" viewBox="0 0 899.764399 638.468725" width="899.764399pt" xmlns="http://www.w3.org/2000/svg" xmlns:xlink="http://www.w3.org/1999/xlink">
 <defs>
  <style type="text/css">
*{stroke-linecap:butt;stroke-linejoin:round;}
  </style>
 </defs>
 <g id="figure_1">
  <g id="patch_1">
   <path d="M 0 638.468725 
L 899.764399 638.468725 
L 899.764399 0 
L 0 0 
z
" style="fill:#ffffff;"/>
  </g>
  <g id="axes_1">
   <g id="patch_2">
    <path d="M 104.98125 593.9056 
L 482.30925 593.9056 
L 482.30925 26.2 
L 104.98125 26.2 
z
" style="fill:#eaeaf2;"/>
   </g>
   <g id="matplotlib.axis_1">
    <g id="xtick_1">
     <g id="line2d_1">
      <path clip-path="url(#p92534b7d58)" d="M 122.132523 593.9056 
L 122.132523 26.2 
" style="fill:none;stroke:#ffffff;stroke-linecap:round;stroke-width:0.8;"/>
     </g>
     <g id="line2d_2">
      <defs>
       <path d="M 0 0 
L 0 4.8 
" id="m03ee35d191" style="stroke:#262626;"/>
      </defs>
      <g>
       <use style="fill:#262626;stroke:#262626;" x="122.132523" xlink:href="#m03ee35d191" y="593.9056"/>
      </g>
     </g>
     <g id="text_1">
      <!-- 0 -->
      <defs>
       <path d="M 46 36.53125 
Q 46 50.203125 43.4375 55.78125 
Q 40.875 61.375 34.8125 61.375 
Q 28.765625 61.375 26.171875 55.78125 
Q 23.578125 50.203125 23.578125 36.53125 
Q 23.578125 22.703125 26.171875 17.03125 
Q 28.765625 11.375 34.8125 11.375 
Q 40.828125 11.375 43.40625 17.03125 
Q 46 22.703125 46 36.53125 
z
M 64.796875 36.375 
Q 64.796875 18.265625 56.984375 8.421875 
Q 49.171875 -1.421875 34.8125 -1.421875 
Q 20.40625 -1.421875 12.59375 8.421875 
Q 4.78125 18.265625 4.78125 36.375 
Q 4.78125 54.546875 12.59375 64.375 
Q 20.40625 74.21875 34.8125 74.21875 
Q 49.171875 74.21875 56.984375 64.375 
Q 64.796875 54.546875 64.796875 36.375 
z
" id="DejaVuSans-Bold-48"/>
      </defs>
      <g style="fill:#262626;" transform="translate(118.305726 609.463881)scale(0.11 -0.11)">
       <use xlink:href="#DejaVuSans-Bold-48"/>
      </g>
     </g>
    </g>
    <g id="xtick_2">
     <g id="line2d_3">
      <path clip-path="url(#p92534b7d58)" d="M 219.432674 593.9056 
L 219.432674 26.2 
" style="fill:none;stroke:#ffffff;stroke-linecap:round;stroke-width:0.8;"/>
     </g>
     <g id="line2d_4">
      <g>
       <use style="fill:#262626;stroke:#262626;" x="219.432674" xlink:href="#m03ee35d191" y="593.9056"/>
      </g>
     </g>
     <g id="text_2">
      <!-- 500,000 -->
      <defs>
       <path d="M 10.59375 72.90625 
L 57.328125 72.90625 
L 57.328125 59.078125 
L 25.59375 59.078125 
L 25.59375 47.796875 
Q 27.734375 48.390625 29.90625 48.703125 
Q 32.078125 49.03125 34.421875 49.03125 
Q 47.75 49.03125 55.171875 42.359375 
Q 62.59375 35.6875 62.59375 23.78125 
Q 62.59375 11.96875 54.515625 5.265625 
Q 46.4375 -1.421875 32.078125 -1.421875 
Q 25.875 -1.421875 19.796875 -0.21875 
Q 13.71875 0.984375 7.71875 3.421875 
L 7.71875 18.21875 
Q 13.671875 14.796875 19.015625 13.078125 
Q 24.359375 11.375 29.109375 11.375 
Q 35.9375 11.375 39.859375 14.71875 
Q 43.796875 18.0625 43.796875 23.78125 
Q 43.796875 29.546875 39.859375 32.859375 
Q 35.9375 36.1875 29.109375 36.1875 
Q 25.046875 36.1875 20.453125 35.125 
Q 15.875 34.078125 10.59375 31.890625 
z
" id="DejaVuSans-Bold-53"/>
       <path d="M 10.203125 18.890625 
L 27.78125 18.890625 
L 27.78125 4 
L 15.71875 -14.203125 
L 5.328125 -14.203125 
L 10.203125 4 
z
" id="DejaVuSans-Bold-44"/>
      </defs>
      <g style="fill:#262626;" transform="translate(194.382752 609.463881)scale(0.11 -0.11)">
       <use xlink:href="#DejaVuSans-Bold-53"/>
       <use x="69.580078" xlink:href="#DejaVuSans-Bold-48"/>
       <use x="139.160156" xlink:href="#DejaVuSans-Bold-48"/>
       <use x="208.740234" xlink:href="#DejaVuSans-Bold-44"/>
       <use x="246.728516" xlink:href="#DejaVuSans-Bold-48"/>
       <use x="316.308594" xlink:href="#DejaVuSans-Bold-48"/>
       <use x="385.888672" xlink:href="#DejaVuSans-Bold-48"/>
      </g>
     </g>
    </g>
    <g id="xtick_3">
     <g id="line2d_5">
      <path clip-path="url(#p92534b7d58)" d="M 316.732824 593.9056 
L 316.732824 26.2 
" style="fill:none;stroke:#ffffff;stroke-linecap:round;stroke-width:0.8;"/>
     </g>
     <g id="line2d_6">
      <g>
       <use style="fill:#262626;stroke:#262626;" x="316.732824" xlink:href="#m03ee35d191" y="593.9056"/>
      </g>
     </g>
     <g id="text_3">
      <!-- 1,000,000 -->
      <defs>
       <path d="M 11.71875 12.984375 
L 28.328125 12.984375 
L 28.328125 60.109375 
L 11.28125 56.59375 
L 11.28125 69.390625 
L 28.21875 72.90625 
L 46.09375 72.90625 
L 46.09375 12.984375 
L 62.703125 12.984375 
L 62.703125 0 
L 11.71875 0 
z
" id="DejaVuSans-Bold-49"/>
      </defs>
      <g style="fill:#262626;" transform="translate(285.766965 609.463881)scale(0.11 -0.11)">
       <use xlink:href="#DejaVuSans-Bold-49"/>
       <use x="69.580078" xlink:href="#DejaVuSans-Bold-44"/>
       <use x="107.568359" xlink:href="#DejaVuSans-Bold-48"/>
       <use x="177.148438" xlink:href="#DejaVuSans-Bold-48"/>
       <use x="246.728516" xlink:href="#DejaVuSans-Bold-48"/>
       <use x="316.308594" xlink:href="#DejaVuSans-Bold-44"/>
       <use x="354.296875" xlink:href="#DejaVuSans-Bold-48"/>
       <use x="423.876953" xlink:href="#DejaVuSans-Bold-48"/>
       <use x="493.457031" xlink:href="#DejaVuSans-Bold-48"/>
      </g>
     </g>
    </g>
    <g id="xtick_4">
     <g id="line2d_7">
      <path clip-path="url(#p92534b7d58)" d="M 414.032975 593.9056 
L 414.032975 26.2 
" style="fill:none;stroke:#ffffff;stroke-linecap:round;stroke-width:0.8;"/>
     </g>
     <g id="line2d_8">
      <g>
       <use style="fill:#262626;stroke:#262626;" x="414.032975" xlink:href="#m03ee35d191" y="593.9056"/>
      </g>
     </g>
     <g id="text_4">
      <!-- 1,500,000 -->
      <g style="fill:#262626;" transform="translate(383.067116 609.463881)scale(0.11 -0.11)">
       <use xlink:href="#DejaVuSans-Bold-49"/>
       <use x="69.580078" xlink:href="#DejaVuSans-Bold-44"/>
       <use x="107.568359" xlink:href="#DejaVuSans-Bold-53"/>
       <use x="177.148438" xlink:href="#DejaVuSans-Bold-48"/>
       <use x="246.728516" xlink:href="#DejaVuSans-Bold-48"/>
       <use x="316.308594" xlink:href="#DejaVuSans-Bold-44"/>
       <use x="354.296875" xlink:href="#DejaVuSans-Bold-48"/>
       <use x="423.876953" xlink:href="#DejaVuSans-Bold-48"/>
       <use x="493.457031" xlink:href="#DejaVuSans-Bold-48"/>
      </g>
     </g>
    </g>
    <g id="xtick_5">
     <g id="line2d_9">
      <defs>
       <path d="M 0 0 
L 0 3.2 
" id="m31cac9b009" style="stroke:#262626;stroke-width:0.8;"/>
      </defs>
      <g>
       <use style="fill:#262626;stroke:#262626;stroke-width:0.8;" x="170.782598" xlink:href="#m31cac9b009" y="593.9056"/>
      </g>
     </g>
    </g>
    <g id="xtick_6">
     <g id="line2d_10">
      <g>
       <use style="fill:#262626;stroke:#262626;stroke-width:0.8;" x="268.082749" xlink:href="#m31cac9b009" y="593.9056"/>
      </g>
     </g>
    </g>
    <g id="xtick_7">
     <g id="line2d_11">
      <g>
       <use style="fill:#262626;stroke:#262626;stroke-width:0.8;" x="365.3829" xlink:href="#m31cac9b009" y="593.9056"/>
      </g>
     </g>
    </g>
    <g id="xtick_8">
     <g id="line2d_12">
      <g>
       <use style="fill:#262626;stroke:#262626;stroke-width:0.8;" x="462.683051" xlink:href="#m31cac9b009" y="593.9056"/>
      </g>
     </g>
    </g>
   </g>
   <g id="matplotlib.axis_2">
    <g id="ytick_1">
     <g id="line2d_13">
      <path clip-path="url(#p92534b7d58)" d="M 104.98125 585.432382 
L 482.30925 585.432382 
" style="fill:none;stroke:#ffffff;stroke-linecap:round;stroke-width:0.8;"/>
     </g>
     <g id="line2d_14">
      <defs>
       <path d="M 0 0 
L -4.8 0 
" id="mc850480543" style="stroke:#262626;"/>
      </defs>
      <g>
       <use style="fill:#262626;stroke:#262626;" x="104.98125" xlink:href="#mc850480543" y="585.432382"/>
      </g>
     </g>
     <g id="text_5">
      <!-- president -->
      <defs>
       <path d="M 18.109375 8.203125 
L 18.109375 -20.796875 
L 9.078125 -20.796875 
L 9.078125 54.6875 
L 18.109375 54.6875 
L 18.109375 46.390625 
Q 20.953125 51.265625 25.265625 53.625 
Q 29.59375 56 35.59375 56 
Q 45.5625 56 51.78125 48.09375 
Q 58.015625 40.1875 58.015625 27.296875 
Q 58.015625 14.40625 51.78125 6.484375 
Q 45.5625 -1.421875 35.59375 -1.421875 
Q 29.59375 -1.421875 25.265625 0.953125 
Q 20.953125 3.328125 18.109375 8.203125 
z
M 48.6875 27.296875 
Q 48.6875 37.203125 44.609375 42.84375 
Q 40.53125 48.484375 33.40625 48.484375 
Q 26.265625 48.484375 22.1875 42.84375 
Q 18.109375 37.203125 18.109375 27.296875 
Q 18.109375 17.390625 22.1875 11.75 
Q 26.265625 6.109375 33.40625 6.109375 
Q 40.53125 6.109375 44.609375 11.75 
Q 48.6875 17.390625 48.6875 27.296875 
z
" id="DejaVuSans-112"/>
       <path d="M 41.109375 46.296875 
Q 39.59375 47.171875 37.8125 47.578125 
Q 36.03125 48 33.890625 48 
Q 26.265625 48 22.1875 43.046875 
Q 18.109375 38.09375 18.109375 28.8125 
L 18.109375 0 
L 9.078125 0 
L 9.078125 54.6875 
L 18.109375 54.6875 
L 18.109375 46.1875 
Q 20.953125 51.171875 25.484375 53.578125 
Q 30.03125 56 36.53125 56 
Q 37.453125 56 38.578125 55.875 
Q 39.703125 55.765625 41.0625 55.515625 
z
" id="DejaVuSans-114"/>
       <path d="M 56.203125 29.59375 
L 56.203125 25.203125 
L 14.890625 25.203125 
Q 15.484375 15.921875 20.484375 11.0625 
Q 25.484375 6.203125 34.421875 6.203125 
Q 39.59375 6.203125 44.453125 7.46875 
Q 49.3125 8.734375 54.109375 11.28125 
L 54.109375 2.78125 
Q 49.265625 0.734375 44.1875 -0.34375 
Q 39.109375 -1.421875 33.890625 -1.421875 
Q 20.796875 -1.421875 13.15625 6.1875 
Q 5.515625 13.8125 5.515625 26.8125 
Q 5.515625 40.234375 12.765625 48.109375 
Q 20.015625 56 32.328125 56 
Q 43.359375 56 49.78125 48.890625 
Q 56.203125 41.796875 56.203125 29.59375 
z
M 47.21875 32.234375 
Q 47.125 39.59375 43.09375 43.984375 
Q 39.0625 48.390625 32.421875 48.390625 
Q 24.90625 48.390625 20.390625 44.140625 
Q 15.875 39.890625 15.1875 32.171875 
z
" id="DejaVuSans-101"/>
       <path d="M 44.28125 53.078125 
L 44.28125 44.578125 
Q 40.484375 46.53125 36.375 47.5 
Q 32.28125 48.484375 27.875 48.484375 
Q 21.1875 48.484375 17.84375 46.4375 
Q 14.5 44.390625 14.5 40.28125 
Q 14.5 37.15625 16.890625 35.375 
Q 19.28125 33.59375 26.515625 31.984375 
L 29.59375 31.296875 
Q 39.15625 29.25 43.1875 25.515625 
Q 47.21875 21.78125 47.21875 15.09375 
Q 47.21875 7.46875 41.1875 3.015625 
Q 35.15625 -1.421875 24.609375 -1.421875 
Q 20.21875 -1.421875 15.453125 -0.5625 
Q 10.6875 0.296875 5.421875 2 
L 5.421875 11.28125 
Q 10.40625 8.6875 15.234375 7.390625 
Q 20.0625 6.109375 24.8125 6.109375 
Q 31.15625 6.109375 34.5625 8.28125 
Q 37.984375 10.453125 37.984375 14.40625 
Q 37.984375 18.0625 35.515625 20.015625 
Q 33.0625 21.96875 24.703125 23.78125 
L 21.578125 24.515625 
Q 13.234375 26.265625 9.515625 29.90625 
Q 5.8125 33.546875 5.8125 39.890625 
Q 5.8125 47.609375 11.28125 51.796875 
Q 16.75 56 26.8125 56 
Q 31.78125 56 36.171875 55.265625 
Q 40.578125 54.546875 44.28125 53.078125 
z
" id="DejaVuSans-115"/>
       <path d="M 9.421875 54.6875 
L 18.40625 54.6875 
L 18.40625 0 
L 9.421875 0 
z
M 9.421875 75.984375 
L 18.40625 75.984375 
L 18.40625 64.59375 
L 9.421875 64.59375 
z
" id="DejaVuSans-105"/>
       <path d="M 45.40625 46.390625 
L 45.40625 75.984375 
L 54.390625 75.984375 
L 54.390625 0 
L 45.40625 0 
L 45.40625 8.203125 
Q 42.578125 3.328125 38.25 0.953125 
Q 33.9375 -1.421875 27.875 -1.421875 
Q 17.96875 -1.421875 11.734375 6.484375 
Q 5.515625 14.40625 5.515625 27.296875 
Q 5.515625 40.1875 11.734375 48.09375 
Q 17.96875 56 27.875 56 
Q 33.9375 56 38.25 53.625 
Q 42.578125 51.265625 45.40625 46.390625 
z
M 14.796875 27.296875 
Q 14.796875 17.390625 18.875 11.75 
Q 22.953125 6.109375 30.078125 6.109375 
Q 37.203125 6.109375 41.296875 11.75 
Q 45.40625 17.390625 45.40625 27.296875 
Q 45.40625 37.203125 41.296875 42.84375 
Q 37.203125 48.484375 30.078125 48.484375 
Q 22.953125 48.484375 18.875 42.84375 
Q 14.796875 37.203125 14.796875 27.296875 
z
" id="DejaVuSans-100"/>
       <path d="M 54.890625 33.015625 
L 54.890625 0 
L 45.90625 0 
L 45.90625 32.71875 
Q 45.90625 40.484375 42.875 44.328125 
Q 39.84375 48.1875 33.796875 48.1875 
Q 26.515625 48.1875 22.3125 43.546875 
Q 18.109375 38.921875 18.109375 30.90625 
L 18.109375 0 
L 9.078125 0 
L 9.078125 54.6875 
L 18.109375 54.6875 
L 18.109375 46.1875 
Q 21.34375 51.125 25.703125 53.5625 
Q 30.078125 56 35.796875 56 
Q 45.21875 56 50.046875 50.171875 
Q 54.890625 44.34375 54.890625 33.015625 
z
" id="DejaVuSans-110"/>
       <path d="M 18.3125 70.21875 
L 18.3125 54.6875 
L 36.8125 54.6875 
L 36.8125 47.703125 
L 18.3125 47.703125 
L 18.3125 18.015625 
Q 18.3125 11.328125 20.140625 9.421875 
Q 21.96875 7.515625 27.59375 7.515625 
L 36.8125 7.515625 
L 36.8125 0 
L 27.59375 0 
Q 17.1875 0 13.234375 3.875 
Q 9.28125 7.765625 9.28125 18.015625 
L 9.28125 47.703125 
L 2.6875 47.703125 
L 2.6875 54.6875 
L 9.28125 54.6875 
L 9.28125 70.21875 
z
" id="DejaVuSans-116"/>
      </defs>
      <g style="fill:#262626;" transform="translate(40.95375 589.991445)scale(0.12 -0.12)">
       <use xlink:href="#DejaVuSans-112"/>
       <use x="63.476562" xlink:href="#DejaVuSans-114"/>
       <use x="104.558594" xlink:href="#DejaVuSans-101"/>
       <use x="166.082031" xlink:href="#DejaVuSans-115"/>
       <use x="218.181641" xlink:href="#DejaVuSans-105"/>
       <use x="245.964844" xlink:href="#DejaVuSans-100"/>
       <use x="309.441406" xlink:href="#DejaVuSans-101"/>
       <use x="370.964844" xlink:href="#DejaVuSans-110"/>
       <use x="434.34375" xlink:href="#DejaVuSans-116"/>
      </g>
     </g>
    </g>
    <g id="ytick_2">
     <g id="line2d_15">
      <path clip-path="url(#p92534b7d58)" d="M 104.98125 571.310352 
L 482.30925 571.310352 
" style="fill:none;stroke:#ffffff;stroke-linecap:round;stroke-width:0.8;"/>
     </g>
     <g id="line2d_16">
      <g>
       <use style="fill:#262626;stroke:#262626;" x="104.98125" xlink:href="#mc850480543" y="571.310352"/>
      </g>
     </g>
     <g id="text_6">
      <!-- yesterday -->
      <defs>
       <path d="M 32.171875 -5.078125 
Q 28.375 -14.84375 24.75 -17.8125 
Q 21.140625 -20.796875 15.09375 -20.796875 
L 7.90625 -20.796875 
L 7.90625 -13.28125 
L 13.1875 -13.28125 
Q 16.890625 -13.28125 18.9375 -11.515625 
Q 21 -9.765625 23.484375 -3.21875 
L 25.09375 0.875 
L 2.984375 54.6875 
L 12.5 54.6875 
L 29.59375 11.921875 
L 46.6875 54.6875 
L 56.203125 54.6875 
z
" id="DejaVuSans-121"/>
       <path d="M 34.28125 27.484375 
Q 23.390625 27.484375 19.1875 25 
Q 14.984375 22.515625 14.984375 16.5 
Q 14.984375 11.71875 18.140625 8.90625 
Q 21.296875 6.109375 26.703125 6.109375 
Q 34.1875 6.109375 38.703125 11.40625 
Q 43.21875 16.703125 43.21875 25.484375 
L 43.21875 27.484375 
z
M 52.203125 31.203125 
L 52.203125 0 
L 43.21875 0 
L 43.21875 8.296875 
Q 40.140625 3.328125 35.546875 0.953125 
Q 30.953125 -1.421875 24.3125 -1.421875 
Q 15.921875 -1.421875 10.953125 3.296875 
Q 6 8.015625 6 15.921875 
Q 6 25.140625 12.171875 29.828125 
Q 18.359375 34.515625 30.609375 34.515625 
L 43.21875 34.515625 
L 43.21875 35.40625 
Q 43.21875 41.609375 39.140625 45 
Q 35.0625 48.390625 27.6875 48.390625 
Q 23 48.390625 18.546875 47.265625 
Q 14.109375 46.140625 10.015625 43.890625 
L 10.015625 52.203125 
Q 14.9375 54.109375 19.578125 55.046875 
Q 24.21875 56 28.609375 56 
Q 40.484375 56 46.34375 49.84375 
Q 52.203125 43.703125 52.203125 31.203125 
z
" id="DejaVuSans-97"/>
      </defs>
      <g style="fill:#262626;" transform="translate(37.95 575.869415)scale(0.12 -0.12)">
       <use xlink:href="#DejaVuSans-121"/>
       <use x="59.179688" xlink:href="#DejaVuSans-101"/>
       <use x="120.703125" xlink:href="#DejaVuSans-115"/>
       <use x="172.802734" xlink:href="#DejaVuSans-116"/>
       <use x="212.011719" xlink:href="#DejaVuSans-101"/>
       <use x="273.535156" xlink:href="#DejaVuSans-114"/>
       <use x="314.632812" xlink:href="#DejaVuSans-100"/>
       <use x="378.109375" xlink:href="#DejaVuSans-97"/>
       <use x="439.388672" xlink:href="#DejaVuSans-121"/>
      </g>
     </g>
    </g>
    <g id="ytick_3">
     <g id="line2d_17">
      <path clip-path="url(#p92534b7d58)" d="M 104.98125 557.188322 
L 482.30925 557.188322 
" style="fill:none;stroke:#ffffff;stroke-linecap:round;stroke-width:0.8;"/>
     </g>
     <g id="line2d_18">
      <g>
       <use style="fill:#262626;stroke:#262626;" x="104.98125" xlink:href="#mc850480543" y="557.188322"/>
      </g>
     </g>
     <g id="text_7">
      <!-- officials -->
      <defs>
       <path d="M 30.609375 48.390625 
Q 23.390625 48.390625 19.1875 42.75 
Q 14.984375 37.109375 14.984375 27.296875 
Q 14.984375 17.484375 19.15625 11.84375 
Q 23.34375 6.203125 30.609375 6.203125 
Q 37.796875 6.203125 41.984375 11.859375 
Q 46.1875 17.53125 46.1875 27.296875 
Q 46.1875 37.015625 41.984375 42.703125 
Q 37.796875 48.390625 30.609375 48.390625 
z
M 30.609375 56 
Q 42.328125 56 49.015625 48.375 
Q 55.71875 40.765625 55.71875 27.296875 
Q 55.71875 13.875 49.015625 6.21875 
Q 42.328125 -1.421875 30.609375 -1.421875 
Q 18.84375 -1.421875 12.171875 6.21875 
Q 5.515625 13.875 5.515625 27.296875 
Q 5.515625 40.765625 12.171875 48.375 
Q 18.84375 56 30.609375 56 
z
" id="DejaVuSans-111"/>
       <path d="M 37.109375 75.984375 
L 37.109375 68.5 
L 28.515625 68.5 
Q 23.6875 68.5 21.796875 66.546875 
Q 19.921875 64.59375 19.921875 59.515625 
L 19.921875 54.6875 
L 34.71875 54.6875 
L 34.71875 47.703125 
L 19.921875 47.703125 
L 19.921875 0 
L 10.890625 0 
L 10.890625 47.703125 
L 2.296875 47.703125 
L 2.296875 54.6875 
L 10.890625 54.6875 
L 10.890625 58.5 
Q 10.890625 67.625 15.140625 71.796875 
Q 19.390625 75.984375 28.609375 75.984375 
z
" id="DejaVuSans-102"/>
       <path d="M 48.78125 52.59375 
L 48.78125 44.1875 
Q 44.96875 46.296875 41.140625 47.34375 
Q 37.3125 48.390625 33.40625 48.390625 
Q 24.65625 48.390625 19.8125 42.84375 
Q 14.984375 37.3125 14.984375 27.296875 
Q 14.984375 17.28125 19.8125 11.734375 
Q 24.65625 6.203125 33.40625 6.203125 
Q 37.3125 6.203125 41.140625 7.25 
Q 44.96875 8.296875 48.78125 10.40625 
L 48.78125 2.09375 
Q 45.015625 0.34375 40.984375 -0.53125 
Q 36.96875 -1.421875 32.421875 -1.421875 
Q 20.0625 -1.421875 12.78125 6.34375 
Q 5.515625 14.109375 5.515625 27.296875 
Q 5.515625 40.671875 12.859375 48.328125 
Q 20.21875 56 33.015625 56 
Q 37.15625 56 41.109375 55.140625 
Q 45.0625 54.296875 48.78125 52.59375 
z
" id="DejaVuSans-99"/>
       <path d="M 9.421875 75.984375 
L 18.40625 75.984375 
L 18.40625 0 
L 9.421875 0 
z
" id="DejaVuSans-108"/>
      </defs>
      <g style="fill:#262626;" transform="translate(51.785625 561.747385)scale(0.12 -0.12)">
       <use xlink:href="#DejaVuSans-111"/>
       <use x="61.181641" xlink:href="#DejaVuSans-102"/>
       <use x="96.386719" xlink:href="#DejaVuSans-102"/>
       <use x="131.591797" xlink:href="#DejaVuSans-105"/>
       <use x="159.375" xlink:href="#DejaVuSans-99"/>
       <use x="214.355469" xlink:href="#DejaVuSans-105"/>
       <use x="242.138672" xlink:href="#DejaVuSans-97"/>
       <use x="303.417969" xlink:href="#DejaVuSans-108"/>
       <use x="331.201172" xlink:href="#DejaVuSans-115"/>
      </g>
     </g>
    </g>
    <g id="ytick_4">
     <g id="line2d_19">
      <path clip-path="url(#p92534b7d58)" d="M 104.98125 543.066293 
L 482.30925 543.066293 
" style="fill:none;stroke:#ffffff;stroke-linecap:round;stroke-width:0.8;"/>
     </g>
     <g id="line2d_20">
      <g>
       <use style="fill:#262626;stroke:#262626;" x="104.98125" xlink:href="#mc850480543" y="543.066293"/>
      </g>
     </g>
     <g id="text_8">
      <!-- police -->
      <g style="fill:#262626;" transform="translate(62.17125 547.625355)scale(0.12 -0.12)">
       <use xlink:href="#DejaVuSans-112"/>
       <use x="63.476562" xlink:href="#DejaVuSans-111"/>
       <use x="124.658203" xlink:href="#DejaVuSans-108"/>
       <use x="152.441406" xlink:href="#DejaVuSans-105"/>
       <use x="180.224609" xlink:href="#DejaVuSans-99"/>
       <use x="235.205078" xlink:href="#DejaVuSans-101"/>
      </g>
     </g>
    </g>
    <g id="ytick_5">
     <g id="line2d_21">
      <path clip-path="url(#p92534b7d58)" d="M 104.98125 528.944263 
L 482.30925 528.944263 
" style="fill:none;stroke:#ffffff;stroke-linecap:round;stroke-width:0.8;"/>
     </g>
     <g id="line2d_22">
      <g>
       <use style="fill:#262626;stroke:#262626;" x="104.98125" xlink:href="#mc850480543" y="528.944263"/>
      </g>
     </g>
     <g id="text_9">
      <!-- p.m. -->
      <defs>
       <path d="M 10.6875 12.40625 
L 21 12.40625 
L 21 0 
L 10.6875 0 
z
" id="DejaVuSans-46"/>
       <path d="M 52 44.1875 
Q 55.375 50.25 60.0625 53.125 
Q 64.75 56 71.09375 56 
Q 79.640625 56 84.28125 50.015625 
Q 88.921875 44.046875 88.921875 33.015625 
L 88.921875 0 
L 79.890625 0 
L 79.890625 32.71875 
Q 79.890625 40.578125 77.09375 44.375 
Q 74.3125 48.1875 68.609375 48.1875 
Q 61.625 48.1875 57.5625 43.546875 
Q 53.515625 38.921875 53.515625 30.90625 
L 53.515625 0 
L 44.484375 0 
L 44.484375 32.71875 
Q 44.484375 40.625 41.703125 44.40625 
Q 38.921875 48.1875 33.109375 48.1875 
Q 26.21875 48.1875 22.15625 43.53125 
Q 18.109375 38.875 18.109375 30.90625 
L 18.109375 0 
L 9.078125 0 
L 9.078125 54.6875 
L 18.109375 54.6875 
L 18.109375 46.1875 
Q 21.1875 51.21875 25.484375 53.609375 
Q 29.78125 56 35.6875 56 
Q 41.65625 56 45.828125 52.96875 
Q 50 49.953125 52 44.1875 
z
" id="DejaVuSans-109"/>
      </defs>
      <g style="fill:#262626;" transform="translate(70.846875 533.503325)scale(0.12 -0.12)">
       <use xlink:href="#DejaVuSans-112"/>
       <use x="63.476562" xlink:href="#DejaVuSans-46"/>
       <use x="95.263672" xlink:href="#DejaVuSans-109"/>
       <use x="192.675781" xlink:href="#DejaVuSans-46"/>
      </g>
     </g>
    </g>
    <g id="ytick_6">
     <g id="line2d_23">
      <path clip-path="url(#p92534b7d58)" d="M 104.98125 514.822233 
L 482.30925 514.822233 
" style="fill:none;stroke:#ffffff;stroke-linecap:round;stroke-width:0.8;"/>
     </g>
     <g id="line2d_24">
      <g>
       <use style="fill:#262626;stroke:#262626;" x="104.98125" xlink:href="#mc850480543" y="514.822233"/>
      </g>
     </g>
     <g id="text_10">
      <!-- director -->
      <g style="fill:#262626;" transform="translate(50.938125 519.381295)scale(0.12 -0.12)">
       <use xlink:href="#DejaVuSans-100"/>
       <use x="63.476562" xlink:href="#DejaVuSans-105"/>
       <use x="91.259766" xlink:href="#DejaVuSans-114"/>
       <use x="132.341797" xlink:href="#DejaVuSans-101"/>
       <use x="193.865234" xlink:href="#DejaVuSans-99"/>
       <use x="248.845703" xlink:href="#DejaVuSans-116"/>
       <use x="288.054688" xlink:href="#DejaVuSans-111"/>
       <use x="349.236328" xlink:href="#DejaVuSans-114"/>
      </g>
     </g>
    </g>
    <g id="ytick_7">
     <g id="line2d_25">
      <path clip-path="url(#p92534b7d58)" d="M 104.98125 500.700203 
L 482.30925 500.700203 
" style="fill:none;stroke:#ffffff;stroke-linecap:round;stroke-width:0.8;"/>
     </g>
     <g id="line2d_26">
      <g>
       <use style="fill:#262626;stroke:#262626;" x="104.98125" xlink:href="#mc850480543" y="500.700203"/>
      </g>
     </g>
     <g id="text_11">
      <!-- said -->
      <g style="fill:#262626;" transform="translate(73.224375 505.259265)scale(0.12 -0.12)">
       <use xlink:href="#DejaVuSans-115"/>
       <use x="52.099609" xlink:href="#DejaVuSans-97"/>
       <use x="113.378906" xlink:href="#DejaVuSans-105"/>
       <use x="141.162109" xlink:href="#DejaVuSans-100"/>
      </g>
     </g>
    </g>
    <g id="ytick_8">
     <g id="line2d_27">
      <path clip-path="url(#p92534b7d58)" d="M 104.98125 486.578173 
L 482.30925 486.578173 
" style="fill:none;stroke:#ffffff;stroke-linecap:round;stroke-width:0.8;"/>
     </g>
     <g id="line2d_28">
      <g>
       <use style="fill:#262626;stroke:#262626;" x="104.98125" xlink:href="#mc850480543" y="486.578173"/>
      </g>
     </g>
     <g id="text_12">
      <!-- says -->
      <g style="fill:#262626;" transform="translate(70.8225 491.137236)scale(0.12 -0.12)">
       <use xlink:href="#DejaVuSans-115"/>
       <use x="52.099609" xlink:href="#DejaVuSans-97"/>
       <use x="113.378906" xlink:href="#DejaVuSans-121"/>
       <use x="172.558594" xlink:href="#DejaVuSans-115"/>
      </g>
     </g>
    </g>
    <g id="ytick_9">
     <g id="line2d_29">
      <path clip-path="url(#p92534b7d58)" d="M 104.98125 472.456143 
L 482.30925 472.456143 
" style="fill:none;stroke:#ffffff;stroke-linecap:round;stroke-width:0.8;"/>
     </g>
     <g id="line2d_30">
      <g>
       <use style="fill:#262626;stroke:#262626;" x="104.98125" xlink:href="#mc850480543" y="472.456143"/>
      </g>
     </g>
     <g id="text_13">
      <!-- street -->
      <g style="fill:#262626;" transform="translate(62.424375 477.015206)scale(0.12 -0.12)">
       <use xlink:href="#DejaVuSans-115"/>
       <use x="52.099609" xlink:href="#DejaVuSans-116"/>
       <use x="91.308594" xlink:href="#DejaVuSans-114"/>
       <use x="132.390625" xlink:href="#DejaVuSans-101"/>
       <use x="193.914062" xlink:href="#DejaVuSans-101"/>
       <use x="255.4375" xlink:href="#DejaVuSans-116"/>
      </g>
     </g>
    </g>
    <g id="ytick_10">
     <g id="line2d_31">
      <path clip-path="url(#p92534b7d58)" d="M 104.98125 458.334113 
L 482.30925 458.334113 
" style="fill:none;stroke:#ffffff;stroke-linecap:round;stroke-width:0.8;"/>
     </g>
     <g id="line2d_32">
      <g>
       <use style="fill:#262626;stroke:#262626;" x="104.98125" xlink:href="#mc850480543" y="458.334113"/>
      </g>
     </g>
     <g id="text_14">
      <!-- business -->
      <defs>
       <path d="M 48.6875 27.296875 
Q 48.6875 37.203125 44.609375 42.84375 
Q 40.53125 48.484375 33.40625 48.484375 
Q 26.265625 48.484375 22.1875 42.84375 
Q 18.109375 37.203125 18.109375 27.296875 
Q 18.109375 17.390625 22.1875 11.75 
Q 26.265625 6.109375 33.40625 6.109375 
Q 40.53125 6.109375 44.609375 11.75 
Q 48.6875 17.390625 48.6875 27.296875 
z
M 18.109375 46.390625 
Q 20.953125 51.265625 25.265625 53.625 
Q 29.59375 56 35.59375 56 
Q 45.5625 56 51.78125 48.09375 
Q 58.015625 40.1875 58.015625 27.296875 
Q 58.015625 14.40625 51.78125 6.484375 
Q 45.5625 -1.421875 35.59375 -1.421875 
Q 29.59375 -1.421875 25.265625 0.953125 
Q 20.953125 3.328125 18.109375 8.203125 
L 18.109375 0 
L 9.078125 0 
L 9.078125 75.984375 
L 18.109375 75.984375 
z
" id="DejaVuSans-98"/>
       <path d="M 8.5 21.578125 
L 8.5 54.6875 
L 17.484375 54.6875 
L 17.484375 21.921875 
Q 17.484375 14.15625 20.5 10.265625 
Q 23.53125 6.390625 29.59375 6.390625 
Q 36.859375 6.390625 41.078125 11.03125 
Q 45.3125 15.671875 45.3125 23.6875 
L 45.3125 54.6875 
L 54.296875 54.6875 
L 54.296875 0 
L 45.3125 0 
L 45.3125 8.40625 
Q 42.046875 3.421875 37.71875 1 
Q 33.40625 -1.421875 27.6875 -1.421875 
Q 18.265625 -1.421875 13.375 4.4375 
Q 8.5 10.296875 8.5 21.578125 
z
M 31.109375 56 
z
" id="DejaVuSans-117"/>
      </defs>
      <g style="fill:#262626;" transform="translate(45.481875 462.893176)scale(0.12 -0.12)">
       <use xlink:href="#DejaVuSans-98"/>
       <use x="63.476562" xlink:href="#DejaVuSans-117"/>
       <use x="126.855469" xlink:href="#DejaVuSans-115"/>
       <use x="178.955078" xlink:href="#DejaVuSans-105"/>
       <use x="206.738281" xlink:href="#DejaVuSans-110"/>
       <use x="270.117188" xlink:href="#DejaVuSans-101"/>
       <use x="331.640625" xlink:href="#DejaVuSans-115"/>
       <use x="383.740234" xlink:href="#DejaVuSans-115"/>
      </g>
     </g>
    </g>
    <g id="ytick_11">
     <g id="line2d_33">
      <path clip-path="url(#p92534b7d58)" d="M 104.98125 444.212084 
L 482.30925 444.212084 
" style="fill:none;stroke:#ffffff;stroke-linecap:round;stroke-width:0.8;"/>
     </g>
     <g id="line2d_34">
      <g>
       <use style="fill:#262626;stroke:#262626;" x="104.98125" xlink:href="#mc850480543" y="444.212084"/>
      </g>
     </g>
     <g id="text_15">
      <!-- court -->
      <g style="fill:#262626;" transform="translate(66.598125 448.771146)scale(0.12 -0.12)">
       <use xlink:href="#DejaVuSans-99"/>
       <use x="54.980469" xlink:href="#DejaVuSans-111"/>
       <use x="116.162109" xlink:href="#DejaVuSans-117"/>
       <use x="179.541016" xlink:href="#DejaVuSans-114"/>
       <use x="220.654297" xlink:href="#DejaVuSans-116"/>
      </g>
     </g>
    </g>
    <g id="ytick_12">
     <g id="line2d_35">
      <path clip-path="url(#p92534b7d58)" d="M 104.98125 430.090054 
L 482.30925 430.090054 
" style="fill:none;stroke:#ffffff;stroke-linecap:round;stroke-width:0.8;"/>
     </g>
     <g id="line2d_36">
      <g>
       <use style="fill:#262626;stroke:#262626;" x="104.98125" xlink:href="#mc850480543" y="430.090054"/>
      </g>
     </g>
     <g id="text_16">
      <!-- - - -->
      <defs>
       <path d="M 4.890625 31.390625 
L 31.203125 31.390625 
L 31.203125 23.390625 
L 4.890625 23.390625 
z
" id="DejaVuSans-45"/>
      </defs>
      <g style="fill:#262626;" transform="translate(89.1225 434.649116)scale(0.12 -0.12)">
       <use xlink:href="#DejaVuSans-45"/>
       <use x="36.083984" xlink:href="#DejaVuSans-45"/>
      </g>
     </g>
    </g>
    <g id="ytick_13">
     <g id="line2d_37">
      <path clip-path="url(#p92534b7d58)" d="M 104.98125 415.968024 
L 482.30925 415.968024 
" style="fill:none;stroke:#ffffff;stroke-linecap:round;stroke-width:0.8;"/>
     </g>
     <g id="line2d_38">
      <g>
       <use style="fill:#262626;stroke:#262626;" x="104.98125" xlink:href="#mc850480543" y="415.968024"/>
      </g>
     </g>
     <g id="text_17">
      <!-- war -->
      <defs>
       <path d="M 4.203125 54.6875 
L 13.1875 54.6875 
L 24.421875 12.015625 
L 35.59375 54.6875 
L 46.1875 54.6875 
L 57.421875 12.015625 
L 68.609375 54.6875 
L 77.59375 54.6875 
L 63.28125 0 
L 52.6875 0 
L 40.921875 44.828125 
L 29.109375 0 
L 18.5 0 
z
" id="DejaVuSans-119"/>
      </defs>
      <g style="fill:#262626;" transform="translate(75.680625 420.527086)scale(0.12 -0.12)">
       <use xlink:href="#DejaVuSans-119"/>
       <use x="81.787109" xlink:href="#DejaVuSans-97"/>
       <use x="143.066406" xlink:href="#DejaVuSans-114"/>
      </g>
     </g>
    </g>
    <g id="ytick_14">
     <g id="line2d_39">
      <path clip-path="url(#p92534b7d58)" d="M 104.98125 401.845994 
L 482.30925 401.845994 
" style="fill:none;stroke:#ffffff;stroke-linecap:round;stroke-width:0.8;"/>
     </g>
     <g id="line2d_40">
      <g>
       <use style="fill:#262626;stroke:#262626;" x="104.98125" xlink:href="#mc850480543" y="401.845994"/>
      </g>
     </g>
     <g id="text_18">
      <!-- york -->
      <defs>
       <path d="M 9.078125 75.984375 
L 18.109375 75.984375 
L 18.109375 31.109375 
L 44.921875 54.6875 
L 56.390625 54.6875 
L 27.390625 29.109375 
L 57.625 0 
L 45.90625 0 
L 18.109375 26.703125 
L 18.109375 0 
L 9.078125 0 
z
" id="DejaVuSans-107"/>
      </defs>
      <g style="fill:#262626;" transform="translate(71.454375 406.405057)scale(0.12 -0.12)">
       <use xlink:href="#DejaVuSans-121"/>
       <use x="59.179688" xlink:href="#DejaVuSans-111"/>
       <use x="120.361328" xlink:href="#DejaVuSans-114"/>
       <use x="161.474609" xlink:href="#DejaVuSans-107"/>
      </g>
     </g>
    </g>
    <g id="ytick_15">
     <g id="line2d_41">
      <path clip-path="url(#p92534b7d58)" d="M 104.98125 387.723964 
L 482.30925 387.723964 
" style="fill:none;stroke:#ffffff;stroke-linecap:round;stroke-width:0.8;"/>
     </g>
     <g id="line2d_42">
      <g>
       <use style="fill:#262626;stroke:#262626;" x="104.98125" xlink:href="#mc850480543" y="387.723964"/>
      </g>
     </g>
     <g id="text_19">
      <!-- company -->
      <g style="fill:#262626;" transform="translate(42.4725 392.283027)scale(0.12 -0.12)">
       <use xlink:href="#DejaVuSans-99"/>
       <use x="54.980469" xlink:href="#DejaVuSans-111"/>
       <use x="116.162109" xlink:href="#DejaVuSans-109"/>
       <use x="213.574219" xlink:href="#DejaVuSans-112"/>
       <use x="277.050781" xlink:href="#DejaVuSans-97"/>
       <use x="338.330078" xlink:href="#DejaVuSans-110"/>
       <use x="401.708984" xlink:href="#DejaVuSans-121"/>
      </g>
     </g>
    </g>
    <g id="ytick_16">
     <g id="line2d_43">
      <path clip-path="url(#p92534b7d58)" d="M 104.98125 373.601934 
L 482.30925 373.601934 
" style="fill:none;stroke:#ffffff;stroke-linecap:round;stroke-width:0.8;"/>
     </g>
     <g id="line2d_44">
      <g>
       <use style="fill:#262626;stroke:#262626;" x="104.98125" xlink:href="#mc850480543" y="373.601934"/>
      </g>
     </g>
     <g id="text_20">
      <!-- political -->
      <g style="fill:#262626;" transform="translate(50.829375 378.160997)scale(0.12 -0.12)">
       <use xlink:href="#DejaVuSans-112"/>
       <use x="63.476562" xlink:href="#DejaVuSans-111"/>
       <use x="124.658203" xlink:href="#DejaVuSans-108"/>
       <use x="152.441406" xlink:href="#DejaVuSans-105"/>
       <use x="180.224609" xlink:href="#DejaVuSans-116"/>
       <use x="219.433594" xlink:href="#DejaVuSans-105"/>
       <use x="247.216797" xlink:href="#DejaVuSans-99"/>
       <use x="302.197266" xlink:href="#DejaVuSans-97"/>
       <use x="363.476562" xlink:href="#DejaVuSans-108"/>
      </g>
     </g>
    </g>
    <g id="ytick_17">
     <g id="line2d_45">
      <path clip-path="url(#p92534b7d58)" d="M 104.98125 359.479904 
L 482.30925 359.479904 
" style="fill:none;stroke:#ffffff;stroke-linecap:round;stroke-width:0.8;"/>
     </g>
     <g id="line2d_46">
      <g>
       <use style="fill:#262626;stroke:#262626;" x="104.98125" xlink:href="#mc850480543" y="359.479904"/>
      </g>
     </g>
     <g id="text_21">
      <!-- federal -->
      <g style="fill:#262626;" transform="translate(55.550625 364.038967)scale(0.12 -0.12)">
       <use xlink:href="#DejaVuSans-102"/>
       <use x="35.205078" xlink:href="#DejaVuSans-101"/>
       <use x="96.728516" xlink:href="#DejaVuSans-100"/>
       <use x="160.205078" xlink:href="#DejaVuSans-101"/>
       <use x="221.728516" xlink:href="#DejaVuSans-114"/>
       <use x="262.841797" xlink:href="#DejaVuSans-97"/>
       <use x="324.121094" xlink:href="#DejaVuSans-108"/>
      </g>
     </g>
    </g>
    <g id="ytick_18">
     <g id="line2d_47">
      <path clip-path="url(#p92534b7d58)" d="M 104.98125 345.357875 
L 482.30925 345.357875 
" style="fill:none;stroke:#ffffff;stroke-linecap:round;stroke-width:0.8;"/>
     </g>
     <g id="line2d_48">
      <g>
       <use style="fill:#262626;stroke:#262626;" x="104.98125" xlink:href="#mc850480543" y="345.357875"/>
      </g>
     </g>
     <g id="text_22">
      <!-- money -->
      <g style="fill:#262626;" transform="translate(56.65875 349.916937)scale(0.12 -0.12)">
       <use xlink:href="#DejaVuSans-109"/>
       <use x="97.412109" xlink:href="#DejaVuSans-111"/>
       <use x="158.59375" xlink:href="#DejaVuSans-110"/>
       <use x="221.972656" xlink:href="#DejaVuSans-101"/>
       <use x="283.496094" xlink:href="#DejaVuSans-121"/>
      </g>
     </g>
    </g>
    <g id="ytick_19">
     <g id="line2d_49">
      <path clip-path="url(#p92534b7d58)" d="M 104.98125 331.235845 
L 482.30925 331.235845 
" style="fill:none;stroke:#ffffff;stroke-linecap:round;stroke-width:0.8;"/>
     </g>
     <g id="line2d_50">
      <g>
       <use style="fill:#262626;stroke:#262626;" x="104.98125" xlink:href="#mc850480543" y="331.235845"/>
      </g>
     </g>
     <g id="text_23">
      <!-- companies -->
      <g style="fill:#262626;" transform="translate(32.60625 335.794907)scale(0.12 -0.12)">
       <use xlink:href="#DejaVuSans-99"/>
       <use x="54.980469" xlink:href="#DejaVuSans-111"/>
       <use x="116.162109" xlink:href="#DejaVuSans-109"/>
       <use x="213.574219" xlink:href="#DejaVuSans-112"/>
       <use x="277.050781" xlink:href="#DejaVuSans-97"/>
       <use x="338.330078" xlink:href="#DejaVuSans-110"/>
       <use x="401.708984" xlink:href="#DejaVuSans-105"/>
       <use x="429.492188" xlink:href="#DejaVuSans-101"/>
       <use x="491.015625" xlink:href="#DejaVuSans-115"/>
      </g>
     </g>
    </g>
    <g id="ytick_20">
     <g id="line2d_51">
      <path clip-path="url(#p92534b7d58)" d="M 104.98125 317.113815 
L 482.30925 317.113815 
" style="fill:none;stroke:#ffffff;stroke-linecap:round;stroke-width:0.8;"/>
     </g>
     <g id="line2d_52">
      <g>
       <use style="fill:#262626;stroke:#262626;" x="104.98125" xlink:href="#mc850480543" y="317.113815"/>
      </g>
     </g>
     <g id="text_24">
      <!-- john -->
      <defs>
       <path d="M 9.421875 54.6875 
L 18.40625 54.6875 
L 18.40625 -0.984375 
Q 18.40625 -11.421875 14.421875 -16.109375 
Q 10.453125 -20.796875 1.609375 -20.796875 
L -1.8125 -20.796875 
L -1.8125 -13.1875 
L 0.59375 -13.1875 
Q 5.71875 -13.1875 7.5625 -10.8125 
Q 9.421875 -8.453125 9.421875 -0.984375 
z
M 9.421875 75.984375 
L 18.40625 75.984375 
L 18.40625 64.59375 
L 9.421875 64.59375 
z
" id="DejaVuSans-106"/>
       <path d="M 54.890625 33.015625 
L 54.890625 0 
L 45.90625 0 
L 45.90625 32.71875 
Q 45.90625 40.484375 42.875 44.328125 
Q 39.84375 48.1875 33.796875 48.1875 
Q 26.515625 48.1875 22.3125 43.546875 
Q 18.109375 38.921875 18.109375 30.90625 
L 18.109375 0 
L 9.078125 0 
L 9.078125 75.984375 
L 18.109375 75.984375 
L 18.109375 46.1875 
Q 21.34375 51.125 25.703125 53.5625 
Q 30.078125 56 35.796875 56 
Q 45.21875 56 50.046875 50.171875 
Q 54.890625 44.34375 54.890625 33.015625 
z
" id="DejaVuSans-104"/>
      </defs>
      <g style="fill:#262626;" transform="translate(71.895 321.672877)scale(0.12 -0.12)">
       <use xlink:href="#DejaVuSans-106"/>
       <use x="27.783203" xlink:href="#DejaVuSans-111"/>
       <use x="88.964844" xlink:href="#DejaVuSans-104"/>
       <use x="152.34375" xlink:href="#DejaVuSans-110"/>
      </g>
     </g>
    </g>
    <g id="ytick_21">
     <g id="line2d_53">
      <path clip-path="url(#p92534b7d58)" d="M 104.98125 302.991785 
L 482.30925 302.991785 
" style="fill:none;stroke:#ffffff;stroke-linecap:round;stroke-width:0.8;"/>
     </g>
     <g id="line2d_54">
      <g>
       <use style="fill:#262626;stroke:#262626;" x="104.98125" xlink:href="#mc850480543" y="302.991785"/>
      </g>
     </g>
     <g id="text_25">
      <!-- samples -->
      <g style="fill:#262626;" transform="translate(47.900625 307.550848)scale(0.12 -0.12)">
       <use xlink:href="#DejaVuSans-115"/>
       <use x="52.099609" xlink:href="#DejaVuSans-97"/>
       <use x="113.378906" xlink:href="#DejaVuSans-109"/>
       <use x="210.791016" xlink:href="#DejaVuSans-112"/>
       <use x="274.267578" xlink:href="#DejaVuSans-108"/>
       <use x="302.050781" xlink:href="#DejaVuSans-101"/>
       <use x="363.574219" xlink:href="#DejaVuSans-115"/>
      </g>
     </g>
    </g>
    <g id="ytick_22">
     <g id="line2d_55">
      <path clip-path="url(#p92534b7d58)" d="M 104.98125 288.869755 
L 482.30925 288.869755 
" style="fill:none;stroke:#ffffff;stroke-linecap:round;stroke-width:0.8;"/>
     </g>
     <g id="line2d_56">
      <g>
       <use style="fill:#262626;stroke:#262626;" x="104.98125" xlink:href="#mc850480543" y="288.869755"/>
      </g>
     </g>
     <g id="text_26">
      <!-- cell -->
      <g style="fill:#262626;" transform="translate(77.131875 293.428818)scale(0.12 -0.12)">
       <use xlink:href="#DejaVuSans-99"/>
       <use x="54.980469" xlink:href="#DejaVuSans-101"/>
       <use x="116.503906" xlink:href="#DejaVuSans-108"/>
       <use x="144.287109" xlink:href="#DejaVuSans-108"/>
      </g>
     </g>
    </g>
    <g id="ytick_23">
     <g id="line2d_57">
      <path clip-path="url(#p92534b7d58)" d="M 104.98125 274.747725 
L 482.30925 274.747725 
" style="fill:none;stroke:#ffffff;stroke-linecap:round;stroke-width:0.8;"/>
     </g>
     <g id="line2d_58">
      <g>
       <use style="fill:#262626;stroke:#262626;" x="104.98125" xlink:href="#mc850480543" y="274.747725"/>
      </g>
     </g>
     <g id="text_27">
      <!-- expression -->
      <defs>
       <path d="M 54.890625 54.6875 
L 35.109375 28.078125 
L 55.90625 0 
L 45.3125 0 
L 29.390625 21.484375 
L 13.484375 0 
L 2.875 0 
L 24.125 28.609375 
L 4.6875 54.6875 
L 15.28125 54.6875 
L 29.78125 35.203125 
L 44.28125 54.6875 
z
" id="DejaVuSans-120"/>
      </defs>
      <g style="fill:#262626;" transform="translate(32.581875 279.306788)scale(0.12 -0.12)">
       <use xlink:href="#DejaVuSans-101"/>
       <use x="61.507812" xlink:href="#DejaVuSans-120"/>
       <use x="120.6875" xlink:href="#DejaVuSans-112"/>
       <use x="184.164062" xlink:href="#DejaVuSans-114"/>
       <use x="225.246094" xlink:href="#DejaVuSans-101"/>
       <use x="286.769531" xlink:href="#DejaVuSans-115"/>
       <use x="338.869141" xlink:href="#DejaVuSans-115"/>
       <use x="390.96875" xlink:href="#DejaVuSans-105"/>
       <use x="418.751953" xlink:href="#DejaVuSans-111"/>
       <use x="479.933594" xlink:href="#DejaVuSans-110"/>
      </g>
     </g>
    </g>
    <g id="ytick_24">
     <g id="line2d_59">
      <path clip-path="url(#p92534b7d58)" d="M 104.98125 260.625696 
L 482.30925 260.625696 
" style="fill:none;stroke:#ffffff;stroke-linecap:round;stroke-width:0.8;"/>
     </g>
     <g id="line2d_60">
      <g>
       <use style="fill:#262626;stroke:#262626;" x="104.98125" xlink:href="#mc850480543" y="260.625696"/>
      </g>
     </g>
     <g id="text_28">
      <!-- cells -->
      <g style="fill:#262626;" transform="translate(70.880625 265.184758)scale(0.12 -0.12)">
       <use xlink:href="#DejaVuSans-99"/>
       <use x="54.980469" xlink:href="#DejaVuSans-101"/>
       <use x="116.503906" xlink:href="#DejaVuSans-108"/>
       <use x="144.287109" xlink:href="#DejaVuSans-108"/>
       <use x="172.070312" xlink:href="#DejaVuSans-115"/>
      </g>
     </g>
    </g>
    <g id="ytick_25">
     <g id="line2d_61">
      <path clip-path="url(#p92534b7d58)" d="M 104.98125 246.503666 
L 482.30925 246.503666 
" style="fill:none;stroke:#ffffff;stroke-linecap:round;stroke-width:0.8;"/>
     </g>
     <g id="line2d_62">
      <g>
       <use style="fill:#262626;stroke:#262626;" x="104.98125" xlink:href="#mc850480543" y="246.503666"/>
      </g>
     </g>
     <g id="text_29">
      <!-- binding -->
      <defs>
       <path d="M 45.40625 27.984375 
Q 45.40625 37.75 41.375 43.109375 
Q 37.359375 48.484375 30.078125 48.484375 
Q 22.859375 48.484375 18.828125 43.109375 
Q 14.796875 37.75 14.796875 27.984375 
Q 14.796875 18.265625 18.828125 12.890625 
Q 22.859375 7.515625 30.078125 7.515625 
Q 37.359375 7.515625 41.375 12.890625 
Q 45.40625 18.265625 45.40625 27.984375 
z
M 54.390625 6.78125 
Q 54.390625 -7.171875 48.1875 -13.984375 
Q 42 -20.796875 29.203125 -20.796875 
Q 24.46875 -20.796875 20.265625 -20.09375 
Q 16.0625 -19.390625 12.109375 -17.921875 
L 12.109375 -9.1875 
Q 16.0625 -11.328125 19.921875 -12.34375 
Q 23.78125 -13.375 27.78125 -13.375 
Q 36.625 -13.375 41.015625 -8.765625 
Q 45.40625 -4.15625 45.40625 5.171875 
L 45.40625 9.625 
Q 42.625 4.78125 38.28125 2.390625 
Q 33.9375 0 27.875 0 
Q 17.828125 0 11.671875 7.65625 
Q 5.515625 15.328125 5.515625 27.984375 
Q 5.515625 40.671875 11.671875 48.328125 
Q 17.828125 56 27.875 56 
Q 33.9375 56 38.28125 53.609375 
Q 42.625 51.21875 45.40625 46.390625 
L 45.40625 54.6875 
L 54.390625 54.6875 
z
" id="DejaVuSans-103"/>
      </defs>
      <g style="fill:#262626;" transform="translate(53.049375 251.062728)scale(0.12 -0.12)">
       <use xlink:href="#DejaVuSans-98"/>
       <use x="63.476562" xlink:href="#DejaVuSans-105"/>
       <use x="91.259766" xlink:href="#DejaVuSans-110"/>
       <use x="154.638672" xlink:href="#DejaVuSans-100"/>
       <use x="218.115234" xlink:href="#DejaVuSans-105"/>
       <use x="245.898438" xlink:href="#DejaVuSans-110"/>
       <use x="309.277344" xlink:href="#DejaVuSans-103"/>
      </g>
     </g>
    </g>
    <g id="ytick_26">
     <g id="line2d_63">
      <path clip-path="url(#p92534b7d58)" d="M 104.98125 232.381636 
L 482.30925 232.381636 
" style="fill:none;stroke:#ffffff;stroke-linecap:round;stroke-width:0.8;"/>
     </g>
     <g id="line2d_64">
      <g>
       <use style="fill:#262626;stroke:#262626;" x="104.98125" xlink:href="#mc850480543" y="232.381636"/>
      </g>
     </g>
     <g id="text_30">
      <!-- mice -->
      <g style="fill:#262626;" transform="translate(68.776875 236.940698)scale(0.12 -0.12)">
       <use xlink:href="#DejaVuSans-109"/>
       <use x="97.412109" xlink:href="#DejaVuSans-105"/>
       <use x="125.195312" xlink:href="#DejaVuSans-99"/>
       <use x="180.175781" xlink:href="#DejaVuSans-101"/>
      </g>
     </g>
    </g>
    <g id="ytick_27">
     <g id="line2d_65">
      <path clip-path="url(#p92534b7d58)" d="M 104.98125 218.259606 
L 482.30925 218.259606 
" style="fill:none;stroke:#ffffff;stroke-linecap:round;stroke-width:0.8;"/>
     </g>
     <g id="line2d_66">
      <g>
       <use style="fill:#262626;stroke:#262626;" x="104.98125" xlink:href="#mc850480543" y="218.259606"/>
      </g>
     </g>
     <g id="text_31">
      <!-- protein -->
      <g style="fill:#262626;" transform="translate(54.864375 222.818668)scale(0.12 -0.12)">
       <use xlink:href="#DejaVuSans-112"/>
       <use x="63.476562" xlink:href="#DejaVuSans-114"/>
       <use x="104.558594" xlink:href="#DejaVuSans-111"/>
       <use x="165.740234" xlink:href="#DejaVuSans-116"/>
       <use x="204.949219" xlink:href="#DejaVuSans-101"/>
       <use x="266.472656" xlink:href="#DejaVuSans-105"/>
       <use x="294.255859" xlink:href="#DejaVuSans-110"/>
      </g>
     </g>
    </g>
    <g id="ytick_28">
     <g id="line2d_67">
      <path clip-path="url(#p92534b7d58)" d="M 104.98125 204.137576 
L 482.30925 204.137576 
" style="fill:none;stroke:#ffffff;stroke-linecap:round;stroke-width:0.8;"/>
     </g>
     <g id="line2d_68">
      <g>
       <use style="fill:#262626;stroke:#262626;" x="104.98125" xlink:href="#mc850480543" y="204.137576"/>
      </g>
     </g>
     <g id="text_32">
      <!-- genes -->
      <g style="fill:#262626;" transform="translate(61.539375 208.696639)scale(0.12 -0.12)">
       <use xlink:href="#DejaVuSans-103"/>
       <use x="63.476562" xlink:href="#DejaVuSans-101"/>
       <use x="125" xlink:href="#DejaVuSans-110"/>
       <use x="188.378906" xlink:href="#DejaVuSans-101"/>
       <use x="249.902344" xlink:href="#DejaVuSans-115"/>
      </g>
     </g>
    </g>
    <g id="ytick_29">
     <g id="line2d_69">
      <path clip-path="url(#p92534b7d58)" d="M 104.98125 190.015546 
L 482.30925 190.015546 
" style="fill:none;stroke:#ffffff;stroke-linecap:round;stroke-width:0.8;"/>
     </g>
     <g id="line2d_70">
      <g>
       <use style="fill:#262626;stroke:#262626;" x="104.98125" xlink:href="#mc850480543" y="190.015546"/>
      </g>
     </g>
     <g id="text_33">
      <!-- genome -->
      <g style="fill:#262626;" transform="translate(48.759375 194.574609)scale(0.12 -0.12)">
       <use xlink:href="#DejaVuSans-103"/>
       <use x="63.476562" xlink:href="#DejaVuSans-101"/>
       <use x="125" xlink:href="#DejaVuSans-110"/>
       <use x="188.378906" xlink:href="#DejaVuSans-111"/>
       <use x="249.560547" xlink:href="#DejaVuSans-109"/>
       <use x="346.972656" xlink:href="#DejaVuSans-101"/>
      </g>
     </g>
    </g>
    <g id="ytick_30">
     <g id="line2d_71">
      <path clip-path="url(#p92534b7d58)" d="M 104.98125 175.893516 
L 482.30925 175.893516 
" style="fill:none;stroke:#ffffff;stroke-linecap:round;stroke-width:0.8;"/>
     </g>
     <g id="line2d_72">
      <g>
       <use style="fill:#262626;stroke:#262626;" x="104.98125" xlink:href="#mc850480543" y="175.893516"/>
      </g>
     </g>
     <g id="text_34">
      <!-- proteins -->
      <g style="fill:#262626;" transform="translate(48.613125 180.452579)scale(0.12 -0.12)">
       <use xlink:href="#DejaVuSans-112"/>
       <use x="63.476562" xlink:href="#DejaVuSans-114"/>
       <use x="104.558594" xlink:href="#DejaVuSans-111"/>
       <use x="165.740234" xlink:href="#DejaVuSans-116"/>
       <use x="204.949219" xlink:href="#DejaVuSans-101"/>
       <use x="266.472656" xlink:href="#DejaVuSans-105"/>
       <use x="294.255859" xlink:href="#DejaVuSans-110"/>
       <use x="357.634766" xlink:href="#DejaVuSans-115"/>
      </g>
     </g>
    </g>
    <g id="ytick_31">
     <g id="line2d_73">
      <path clip-path="url(#p92534b7d58)" d="M 104.98125 161.771487 
L 482.30925 161.771487 
" style="fill:none;stroke:#ffffff;stroke-linecap:round;stroke-width:0.8;"/>
     </g>
     <g id="line2d_74">
      <g>
       <use style="fill:#262626;stroke:#262626;" x="104.98125" xlink:href="#mc850480543" y="161.771487"/>
      </g>
     </g>
     <g id="text_35">
      <!-- “ -->
      <defs>
       <path d="M 18.796875 48.875 
L 8.5 48.875 
L 8.5 57.328125 
L 16.5 72.90625 
L 22.796875 72.90625 
L 18.796875 57.328125 
z
M 38.8125 48.875 
L 28.515625 48.875 
L 28.515625 57.328125 
L 36.53125 72.90625 
L 42.828125 72.90625 
L 38.8125 57.328125 
z
" id="DejaVuSans-8220"/>
      </defs>
      <g style="fill:#262626;" transform="translate(91.56375 166.330549)scale(0.12 -0.12)">
       <use xlink:href="#DejaVuSans-8220"/>
      </g>
     </g>
    </g>
    <g id="ytick_32">
     <g id="line2d_75">
      <path clip-path="url(#p92534b7d58)" d="M 104.98125 147.649457 
L 482.30925 147.649457 
" style="fill:none;stroke:#ffffff;stroke-linecap:round;stroke-width:0.8;"/>
     </g>
     <g id="line2d_76">
      <g>
       <use style="fill:#262626;stroke:#262626;" x="104.98125" xlink:href="#mc850480543" y="147.649457"/>
      </g>
     </g>
     <g id="text_36">
      <!-- ” -->
      <defs>
       <path d="M 12.5 72.90625 
L 22.796875 72.90625 
L 22.796875 64.5 
L 14.796875 48.875 
L 8.5 48.875 
L 12.5 64.5 
z
M 32.515625 72.90625 
L 42.828125 72.90625 
L 42.828125 64.5 
L 34.8125 48.875 
L 28.515625 48.875 
L 32.515625 64.5 
z
" id="DejaVuSans-8221"/>
      </defs>
      <g style="fill:#262626;" transform="translate(91.56375 152.208519)scale(0.12 -0.12)">
       <use xlink:href="#DejaVuSans-8221"/>
      </g>
     </g>
    </g>
    <g id="ytick_33">
     <g id="line2d_77">
      <path clip-path="url(#p92534b7d58)" d="M 104.98125 133.527427 
L 482.30925 133.527427 
" style="fill:none;stroke:#ffffff;stroke-linecap:round;stroke-width:0.8;"/>
     </g>
     <g id="line2d_78">
      <g>
       <use style="fill:#262626;stroke:#262626;" x="104.98125" xlink:href="#mc850480543" y="133.527427"/>
      </g>
     </g>
     <g id="text_37">
      <!-- neurons -->
      <g style="fill:#262626;" transform="translate(49.059375 138.086489)scale(0.12 -0.12)">
       <use xlink:href="#DejaVuSans-110"/>
       <use x="63.378906" xlink:href="#DejaVuSans-101"/>
       <use x="124.902344" xlink:href="#DejaVuSans-117"/>
       <use x="188.28125" xlink:href="#DejaVuSans-114"/>
       <use x="229.363281" xlink:href="#DejaVuSans-111"/>
       <use x="290.544922" xlink:href="#DejaVuSans-110"/>
       <use x="353.923828" xlink:href="#DejaVuSans-115"/>
      </g>
     </g>
    </g>
    <g id="ytick_34">
     <g id="line2d_79">
      <path clip-path="url(#p92534b7d58)" d="M 104.98125 119.405397 
L 482.30925 119.405397 
" style="fill:none;stroke:#ffffff;stroke-linecap:round;stroke-width:0.8;"/>
     </g>
     <g id="line2d_80">
      <g>
       <use style="fill:#262626;stroke:#262626;" x="104.98125" xlink:href="#mc850480543" y="119.405397"/>
      </g>
     </g>
     <g id="text_38">
      <!-- supplementary -->
      <g style="fill:#262626;" transform="translate(7.2 123.96446)scale(0.12 -0.12)">
       <use xlink:href="#DejaVuSans-115"/>
       <use x="52.099609" xlink:href="#DejaVuSans-117"/>
       <use x="115.478516" xlink:href="#DejaVuSans-112"/>
       <use x="178.955078" xlink:href="#DejaVuSans-112"/>
       <use x="242.431641" xlink:href="#DejaVuSans-108"/>
       <use x="270.214844" xlink:href="#DejaVuSans-101"/>
       <use x="331.738281" xlink:href="#DejaVuSans-109"/>
       <use x="429.150391" xlink:href="#DejaVuSans-101"/>
       <use x="490.673828" xlink:href="#DejaVuSans-110"/>
       <use x="554.052734" xlink:href="#DejaVuSans-116"/>
       <use x="593.261719" xlink:href="#DejaVuSans-97"/>
       <use x="654.541016" xlink:href="#DejaVuSans-114"/>
       <use x="695.654297" xlink:href="#DejaVuSans-121"/>
      </g>
     </g>
    </g>
    <g id="ytick_35">
     <g id="line2d_81">
      <path clip-path="url(#p92534b7d58)" d="M 104.98125 105.283367 
L 482.30925 105.283367 
" style="fill:none;stroke:#ffffff;stroke-linecap:round;stroke-width:0.8;"/>
     </g>
     <g id="line2d_82">
      <g>
       <use style="fill:#262626;stroke:#262626;" x="104.98125" xlink:href="#mc850480543" y="105.283367"/>
      </g>
     </g>
     <g id="text_39">
      <!-- et -->
      <g style="fill:#262626;" transform="translate(85.693125 109.84243)scale(0.12 -0.12)">
       <use xlink:href="#DejaVuSans-101"/>
       <use x="61.523438" xlink:href="#DejaVuSans-116"/>
      </g>
     </g>
    </g>
    <g id="ytick_36">
     <g id="line2d_83">
      <path clip-path="url(#p92534b7d58)" d="M 104.98125 91.161337 
L 482.30925 91.161337 
" style="fill:none;stroke:#ffffff;stroke-linecap:round;stroke-width:0.8;"/>
     </g>
     <g id="line2d_84">
      <g>
       <use style="fill:#262626;stroke:#262626;" x="104.98125" xlink:href="#mc850480543" y="91.161337"/>
      </g>
     </g>
     <g id="text_40">
      <!-- RNA -->
      <defs>
       <path d="M 44.390625 34.1875 
Q 47.5625 33.109375 50.5625 29.59375 
Q 53.5625 26.078125 56.59375 19.921875 
L 66.609375 0 
L 56 0 
L 46.6875 18.703125 
Q 43.0625 26.03125 39.671875 28.421875 
Q 36.28125 30.8125 30.421875 30.8125 
L 19.671875 30.8125 
L 19.671875 0 
L 9.8125 0 
L 9.8125 72.90625 
L 32.078125 72.90625 
Q 44.578125 72.90625 50.734375 67.671875 
Q 56.890625 62.453125 56.890625 51.90625 
Q 56.890625 45.015625 53.6875 40.46875 
Q 50.484375 35.9375 44.390625 34.1875 
z
M 19.671875 64.796875 
L 19.671875 38.921875 
L 32.078125 38.921875 
Q 39.203125 38.921875 42.84375 42.21875 
Q 46.484375 45.515625 46.484375 51.90625 
Q 46.484375 58.296875 42.84375 61.546875 
Q 39.203125 64.796875 32.078125 64.796875 
z
" id="DejaVuSans-82"/>
       <path d="M 9.8125 72.90625 
L 23.09375 72.90625 
L 55.421875 11.921875 
L 55.421875 72.90625 
L 64.984375 72.90625 
L 64.984375 0 
L 51.703125 0 
L 19.390625 60.984375 
L 19.390625 0 
L 9.8125 0 
z
" id="DejaVuSans-78"/>
       <path d="M 34.1875 63.1875 
L 20.796875 26.90625 
L 47.609375 26.90625 
z
M 28.609375 72.90625 
L 39.796875 72.90625 
L 67.578125 0 
L 57.328125 0 
L 50.6875 18.703125 
L 17.828125 18.703125 
L 11.1875 0 
L 0.78125 0 
z
" id="DejaVuSans-65"/>
      </defs>
      <g style="fill:#262626;" transform="translate(72.256875 95.7204)scale(0.12 -0.12)">
       <use xlink:href="#DejaVuSans-82"/>
       <use x="69.482422" xlink:href="#DejaVuSans-78"/>
       <use x="144.287109" xlink:href="#DejaVuSans-65"/>
      </g>
     </g>
    </g>
    <g id="ytick_37">
     <g id="line2d_85">
      <path clip-path="url(#p92534b7d58)" d="M 104.98125 77.039307 
L 482.30925 77.039307 
" style="fill:none;stroke:#ffffff;stroke-linecap:round;stroke-width:0.8;"/>
     </g>
     <g id="line2d_86">
      <g>
       <use style="fill:#262626;stroke:#262626;" x="104.98125" xlink:href="#mc850480543" y="77.039307"/>
      </g>
     </g>
     <g id="text_41">
      <!-- ’ -->
      <defs>
       <path d="M 12.703125 72.90625 
L 23 72.90625 
L 23 65.484375 
L 14.984375 49.90625 
L 8.6875 49.90625 
L 12.703125 65.484375 
z
" id="DejaVuSans-8217"/>
      </defs>
      <g style="fill:#262626;" transform="translate(93.9675 81.59837)scale(0.12 -0.12)">
       <use xlink:href="#DejaVuSans-8217"/>
      </g>
     </g>
    </g>
    <g id="ytick_38">
     <g id="line2d_87">
      <path clip-path="url(#p92534b7d58)" d="M 104.98125 62.917278 
L 482.30925 62.917278 
" style="fill:none;stroke:#ffffff;stroke-linecap:round;stroke-width:0.8;"/>
     </g>
     <g id="line2d_88">
      <g>
       <use style="fill:#262626;stroke:#262626;" x="104.98125" xlink:href="#mc850480543" y="62.917278"/>
      </g>
     </g>
     <g id="text_42">
      <!-- fig -->
      <g style="fill:#262626;" transform="translate(82.605 67.47634)scale(0.12 -0.12)">
       <use xlink:href="#DejaVuSans-102"/>
       <use x="35.205078" xlink:href="#DejaVuSans-105"/>
       <use x="62.988281" xlink:href="#DejaVuSans-103"/>
      </g>
     </g>
    </g>
    <g id="ytick_39">
     <g id="line2d_89">
      <path clip-path="url(#p92534b7d58)" d="M 104.98125 48.795248 
L 482.30925 48.795248 
" style="fill:none;stroke:#ffffff;stroke-linecap:round;stroke-width:0.8;"/>
     </g>
     <g id="line2d_90">
      <g>
       <use style="fill:#262626;stroke:#262626;" x="104.98125" xlink:href="#mc850480543" y="48.795248"/>
      </g>
     </g>
     <g id="text_43">
      <!-- mm -->
      <g style="fill:#262626;" transform="translate(74.40375 53.35431)scale(0.12 -0.12)">
       <use xlink:href="#DejaVuSans-109"/>
       <use x="97.412109" xlink:href="#DejaVuSans-109"/>
      </g>
     </g>
    </g>
    <g id="ytick_40">
     <g id="line2d_91">
      <path clip-path="url(#p92534b7d58)" d="M 104.98125 34.673218 
L 482.30925 34.673218 
" style="fill:none;stroke:#ffffff;stroke-linecap:round;stroke-width:0.8;"/>
     </g>
     <g id="line2d_92">
      <g>
       <use style="fill:#262626;stroke:#262626;" x="104.98125" xlink:href="#mc850480543" y="34.673218"/>
      </g>
     </g>
     <g id="text_44">
      <!-- ° -->
      <defs>
       <path d="M 25 67.921875 
Q 21.09375 67.921875 18.40625 65.203125 
Q 15.71875 62.5 15.71875 58.59375 
Q 15.71875 54.734375 18.40625 52.078125 
Q 21.09375 49.421875 25 49.421875 
Q 28.90625 49.421875 31.59375 52.078125 
Q 34.28125 54.734375 34.28125 58.59375 
Q 34.28125 62.453125 31.5625 65.1875 
Q 28.859375 67.921875 25 67.921875 
z
M 25 74.21875 
Q 28.125 74.21875 31 73.015625 
Q 33.890625 71.828125 35.984375 69.578125 
Q 38.234375 67.390625 39.359375 64.59375 
Q 40.484375 61.8125 40.484375 58.59375 
Q 40.484375 52.15625 35.96875 47.6875 
Q 31.453125 43.21875 24.90625 43.21875 
Q 18.3125 43.21875 13.90625 47.609375 
Q 9.515625 52 9.515625 58.59375 
Q 9.515625 65.140625 14 69.671875 
Q 18.5 74.21875 25 74.21875 
z
" id="DejaVuSans-176"/>
      </defs>
      <g style="fill:#262626;" transform="translate(91.78125 39.23228)scale(0.12 -0.12)">
       <use xlink:href="#DejaVuSans-176"/>
      </g>
     </g>
    </g>
   </g>
   <g id="PolyCollection_1">
    <path clip-path="url(#p92534b7d58)" d="M 122.132523 591.787296 
L 122.132523 579.077469 
L 122.150815 579.077469 
L 122.150815 591.787296 
z
" style="fill:#595959;"/>
    <path clip-path="url(#p92534b7d58)" d="M 122.132523 577.665266 
L 122.132523 564.955439 
L 122.145172 564.955439 
L 122.145172 577.665266 
z
" style="fill:#595959;"/>
    <path clip-path="url(#p92534b7d58)" d="M 122.132523 563.543236 
L 122.132523 550.833409 
L 122.164048 550.833409 
L 122.164048 563.543236 
z
" style="fill:#595959;"/>
    <path clip-path="url(#p92534b7d58)" d="M 122.132523 549.421206 
L 122.132523 536.711379 
L 122.159378 536.711379 
L 122.159378 549.421206 
z
" style="fill:#595959;"/>
    <path clip-path="url(#p92534b7d58)" d="M 122.132523 535.299176 
L 122.132523 522.589349 
L 122.185649 522.589349 
L 122.185649 535.299176 
z
" style="fill:#595959;"/>
    <path clip-path="url(#p92534b7d58)" d="M 122.132523 521.177146 
L 122.132523 508.467319 
L 122.185259 508.467319 
L 122.185259 521.177146 
z
" style="fill:#595959;"/>
    <path clip-path="url(#p92534b7d58)" d="M 122.132523 507.055116 
L 122.132523 494.34529 
L 122.905086 494.34529 
L 122.905086 507.055116 
z
" style="fill:#595959;"/>
    <path clip-path="url(#p92534b7d58)" d="M 122.132523 492.933087 
L 122.132523 480.22326 
L 122.196935 480.22326 
L 122.196935 492.933087 
z
" style="fill:#595959;"/>
    <path clip-path="url(#p92534b7d58)" d="M 122.132523 478.811057 
L 122.132523 466.10123 
L 122.256094 466.10123 
L 122.256094 478.811057 
z
" style="fill:#595959;"/>
    <path clip-path="url(#p92534b7d58)" d="M 122.132523 464.689027 
L 122.132523 451.9792 
L 122.224958 451.9792 
L 122.224958 464.689027 
z
" style="fill:#595959;"/>
    <path clip-path="url(#p92534b7d58)" d="M 122.132523 450.566997 
L 122.132523 437.85717 
L 122.212698 437.85717 
L 122.212698 450.566997 
z
" style="fill:#595959;"/>
    <path clip-path="url(#p92534b7d58)" d="M 122.132523 436.444967 
L 122.132523 423.73514 
L 122.820435 423.73514 
L 122.820435 436.444967 
z
" style="fill:#595959;"/>
    <path clip-path="url(#p92534b7d58)" d="M 122.132523 422.322937 
L 122.132523 409.61311 
L 122.276332 409.61311 
L 122.276332 422.322937 
z
" style="fill:#595959;"/>
    <path clip-path="url(#p92534b7d58)" d="M 122.132523 408.200907 
L 122.132523 395.491081 
L 122.624667 395.491081 
L 122.624667 408.200907 
z
" style="fill:#595959;"/>
    <path clip-path="url(#p92534b7d58)" d="M 122.132523 394.078878 
L 122.132523 381.369051 
L 122.616104 381.369051 
L 122.616104 394.078878 
z
" style="fill:#595959;"/>
    <path clip-path="url(#p92534b7d58)" d="M 122.132523 379.956848 
L 122.132523 367.247021 
L 122.311944 367.247021 
L 122.311944 379.956848 
z
" style="fill:#595959;"/>
    <path clip-path="url(#p92534b7d58)" d="M 122.132523 365.834818 
L 122.132523 353.124991 
L 122.381611 353.124991 
L 122.381611 365.834818 
z
" style="fill:#595959;"/>
    <path clip-path="url(#p92534b7d58)" d="M 122.132523 351.712788 
L 122.132523 339.002961 
L 122.37733 339.002961 
L 122.37733 351.712788 
z
" style="fill:#595959;"/>
    <path clip-path="url(#p92534b7d58)" d="M 122.132523 337.590758 
L 122.132523 324.880931 
L 122.342107 324.880931 
L 122.342107 337.590758 
z
" style="fill:#595959;"/>
    <path clip-path="url(#p92534b7d58)" d="M 122.132523 323.468728 
L 122.132523 310.758901 
L 122.396206 310.758901 
L 122.396206 323.468728 
z
" style="fill:#595959;"/>
    <path clip-path="url(#p92534b7d58)" d="M 122.132523 309.346699 
L 122.132523 296.636872 
L 192.091331 296.636872 
L 192.091331 309.346699 
z
" style="fill:#595959;"/>
    <path clip-path="url(#p92534b7d58)" d="M 122.132523 295.224669 
L 122.132523 282.514842 
L 310.231034 282.514842 
L 310.231034 295.224669 
z
" style="fill:#595959;"/>
    <path clip-path="url(#p92534b7d58)" d="M 122.132523 281.102639 
L 122.132523 268.392812 
L 260.261763 268.392812 
L 260.261763 281.102639 
z
" style="fill:#595959;"/>
    <path clip-path="url(#p92534b7d58)" d="M 122.132523 266.980609 
L 122.132523 254.270782 
L 371.598433 254.270782 
L 371.598433 266.980609 
z
" style="fill:#595959;"/>
    <path clip-path="url(#p92534b7d58)" d="M 122.132523 252.858579 
L 122.132523 240.148752 
L 175.603626 240.148752 
L 175.603626 252.858579 
z
" style="fill:#595959;"/>
    <path clip-path="url(#p92534b7d58)" d="M 122.132523 238.736549 
L 122.132523 226.026722 
L 181.508188 226.026722 
L 181.508188 238.736549 
z
" style="fill:#595959;"/>
    <path clip-path="url(#p92534b7d58)" d="M 122.132523 224.614519 
L 122.132523 211.904693 
L 222.400134 211.904693 
L 222.400134 224.614519 
z
" style="fill:#595959;"/>
    <path clip-path="url(#p92534b7d58)" d="M 122.132523 210.49249 
L 122.132523 197.782663 
L 258.904037 197.782663 
L 258.904037 210.49249 
z
" style="fill:#595959;"/>
    <path clip-path="url(#p92534b7d58)" d="M 122.132523 196.37046 
L 122.132523 183.660633 
L 182.565452 183.660633 
L 182.565452 196.37046 
z
" style="fill:#595959;"/>
    <path clip-path="url(#p92534b7d58)" d="M 122.132523 182.24843 
L 122.132523 169.538603 
L 183.951006 169.538603 
L 183.951006 182.24843 
z
" style="fill:#595959;"/>
    <path clip-path="url(#p92534b7d58)" d="M 122.132523 168.1264 
L 122.132523 155.416573 
L 185.777914 155.416573 
L 185.777914 168.1264 
z
" style="fill:#595959;"/>
    <path clip-path="url(#p92534b7d58)" d="M 122.132523 154.00437 
L 122.132523 141.294543 
L 186.351595 141.294543 
L 186.351595 154.00437 
z
" style="fill:#595959;"/>
    <path clip-path="url(#p92534b7d58)" d="M 122.132523 139.88234 
L 122.132523 127.172513 
L 169.940563 127.172513 
L 169.940563 139.88234 
z
" style="fill:#595959;"/>
    <path clip-path="url(#p92534b7d58)" d="M 122.132523 125.76031 
L 122.132523 113.050484 
L 168.998308 113.050484 
L 168.998308 125.76031 
z
" style="fill:#595959;"/>
    <path clip-path="url(#p92534b7d58)" d="M 122.132523 111.638281 
L 122.132523 98.928454 
L 465.157977 98.928454 
L 465.157977 111.638281 
z
" style="fill:#595959;"/>
    <path clip-path="url(#p92534b7d58)" d="M 122.132523 97.516251 
L 122.132523 84.806424 
L 176.635008 84.806424 
L 176.635008 97.516251 
z
" style="fill:#595959;"/>
    <path clip-path="url(#p92534b7d58)" d="M 122.132523 83.394221 
L 122.132523 70.684394 
L 189.396506 70.684394 
L 189.396506 83.394221 
z
" style="fill:#595959;"/>
    <path clip-path="url(#p92534b7d58)" d="M 122.132523 69.272191 
L 122.132523 56.562364 
L 322.923449 56.562364 
L 322.923449 69.272191 
z
" style="fill:#595959;"/>
    <path clip-path="url(#p92534b7d58)" d="M 122.132523 55.150161 
L 122.132523 42.440334 
L 168.562598 42.440334 
L 168.562598 55.150161 
z
" style="fill:#595959;"/>
    <path clip-path="url(#p92534b7d58)" d="M 122.132523 41.028131 
L 122.132523 28.318304 
L 181.009233 28.318304 
L 181.009233 41.028131 
z
" style="fill:#595959;"/>
   </g>
   <g id="patch_3">
    <path d="M 104.98125 26.2 
L 482.30925 26.2 
L 482.30925 7.2 
L 104.98125 7.2 
z
" style="fill:#d3d3d3;"/>
   </g>
   <g id="patch_4">
    <path d="M 104.98125 593.9056 
L 104.98125 26.2 
" style="fill:none;stroke:#ffffff;stroke-linecap:square;stroke-linejoin:miter;"/>
   </g>
   <g id="patch_5">
    <path d="M 482.30925 593.9056 
L 482.30925 26.2 
" style="fill:none;stroke:#ffffff;stroke-linecap:square;stroke-linejoin:miter;"/>
   </g>
   <g id="patch_6">
    <path d="M 104.98125 593.9056 
L 482.30925 593.9056 
" style="fill:none;stroke:#ffffff;stroke-linecap:square;stroke-linejoin:miter;"/>
   </g>
   <g id="patch_7">
    <path d="M 104.98125 26.2 
L 482.30925 26.2 
" style="fill:none;stroke:#ffffff;stroke-linecap:square;stroke-linejoin:miter;"/>
   </g>
   <g id="text_45">
    <!-- bioRxiv -->
    <defs>
     <path d="M 2.984375 54.6875 
L 12.5 54.6875 
L 29.59375 8.796875 
L 46.6875 54.6875 
L 56.203125 54.6875 
L 35.6875 0 
L 23.484375 0 
z
" id="DejaVuSans-118"/>
    </defs>
    <g style="fill:#262626;" transform="translate(269.719156 20.287188)scale(0.13 -0.13)">
     <use xlink:href="#DejaVuSans-98"/>
     <use x="63.476562" xlink:href="#DejaVuSans-105"/>
     <use x="91.259766" xlink:href="#DejaVuSans-111"/>
     <use x="152.441406" xlink:href="#DejaVuSans-82"/>
     <use x="221.923828" xlink:href="#DejaVuSans-120"/>
     <use x="281.103516" xlink:href="#DejaVuSans-105"/>
     <use x="308.886719" xlink:href="#DejaVuSans-118"/>
    </g>
   </g>
  </g>
  <g id="axes_2">
   <g id="patch_8">
    <path d="M 489.50925 593.9056 
L 866.83725 593.9056 
L 866.83725 26.2 
L 489.50925 26.2 
z
" style="fill:#eaeaf2;"/>
   </g>
   <g id="matplotlib.axis_3">
    <g id="xtick_9">
     <g id="line2d_93">
      <path clip-path="url(#p3e1ef778bd)" d="M 506.660523 593.9056 
L 506.660523 26.2 
" style="fill:none;stroke:#ffffff;stroke-linecap:round;stroke-width:0.8;"/>
     </g>
     <g id="line2d_94">
      <g>
       <use style="fill:#262626;stroke:#262626;" x="506.660523" xlink:href="#m03ee35d191" y="593.9056"/>
      </g>
     </g>
     <g id="text_46">
      <!-- 0 -->
      <g style="fill:#262626;" transform="translate(502.833726 609.463881)scale(0.11 -0.11)">
       <use xlink:href="#DejaVuSans-Bold-48"/>
      </g>
     </g>
    </g>
    <g id="xtick_10">
     <g id="line2d_95">
      <path clip-path="url(#p3e1ef778bd)" d="M 595.395027 593.9056 
L 595.395027 26.2 
" style="fill:none;stroke:#ffffff;stroke-linecap:round;stroke-width:0.8;"/>
     </g>
     <g id="line2d_96">
      <g>
       <use style="fill:#262626;stroke:#262626;" x="595.395027" xlink:href="#m03ee35d191" y="593.9056"/>
      </g>
     </g>
     <g id="text_47">
      <!-- 2,000,000 -->
      <defs>
       <path d="M 28.8125 13.8125 
L 60.890625 13.8125 
L 60.890625 0 
L 7.90625 0 
L 7.90625 13.8125 
L 34.515625 37.3125 
Q 38.09375 40.53125 39.796875 43.609375 
Q 41.5 46.6875 41.5 50 
Q 41.5 55.125 38.0625 58.25 
Q 34.625 61.375 28.90625 61.375 
Q 24.515625 61.375 19.28125 59.5 
Q 14.0625 57.625 8.109375 53.90625 
L 8.109375 69.921875 
Q 14.453125 72.015625 20.65625 73.109375 
Q 26.859375 74.21875 32.8125 74.21875 
Q 45.90625 74.21875 53.15625 68.453125 
Q 60.40625 62.703125 60.40625 52.390625 
Q 60.40625 46.4375 57.328125 41.28125 
Q 54.25 36.140625 44.390625 27.484375 
z
" id="DejaVuSans-Bold-50"/>
      </defs>
      <g style="fill:#262626;" transform="translate(564.429168 609.463881)scale(0.11 -0.11)">
       <use xlink:href="#DejaVuSans-Bold-50"/>
       <use x="69.580078" xlink:href="#DejaVuSans-Bold-44"/>
       <use x="107.568359" xlink:href="#DejaVuSans-Bold-48"/>
       <use x="177.148438" xlink:href="#DejaVuSans-Bold-48"/>
       <use x="246.728516" xlink:href="#DejaVuSans-Bold-48"/>
       <use x="316.308594" xlink:href="#DejaVuSans-Bold-44"/>
       <use x="354.296875" xlink:href="#DejaVuSans-Bold-48"/>
       <use x="423.876953" xlink:href="#DejaVuSans-Bold-48"/>
       <use x="493.457031" xlink:href="#DejaVuSans-Bold-48"/>
      </g>
     </g>
    </g>
    <g id="xtick_11">
     <g id="line2d_97">
      <path clip-path="url(#p3e1ef778bd)" d="M 684.129531 593.9056 
L 684.129531 26.2 
" style="fill:none;stroke:#ffffff;stroke-linecap:round;stroke-width:0.8;"/>
     </g>
     <g id="line2d_98">
      <g>
       <use style="fill:#262626;stroke:#262626;" x="684.129531" xlink:href="#m03ee35d191" y="593.9056"/>
      </g>
     </g>
     <g id="text_48">
      <!-- 4,000,000 -->
      <defs>
       <path d="M 36.8125 57.421875 
L 16.21875 26.90625 
L 36.8125 26.90625 
z
M 33.6875 72.90625 
L 54.59375 72.90625 
L 54.59375 26.90625 
L 64.984375 26.90625 
L 64.984375 13.28125 
L 54.59375 13.28125 
L 54.59375 0 
L 36.8125 0 
L 36.8125 13.28125 
L 4.5 13.28125 
L 4.5 29.390625 
z
" id="DejaVuSans-Bold-52"/>
      </defs>
      <g style="fill:#262626;" transform="translate(653.163672 609.463881)scale(0.11 -0.11)">
       <use xlink:href="#DejaVuSans-Bold-52"/>
       <use x="69.580078" xlink:href="#DejaVuSans-Bold-44"/>
       <use x="107.568359" xlink:href="#DejaVuSans-Bold-48"/>
       <use x="177.148438" xlink:href="#DejaVuSans-Bold-48"/>
       <use x="246.728516" xlink:href="#DejaVuSans-Bold-48"/>
       <use x="316.308594" xlink:href="#DejaVuSans-Bold-44"/>
       <use x="354.296875" xlink:href="#DejaVuSans-Bold-48"/>
       <use x="423.876953" xlink:href="#DejaVuSans-Bold-48"/>
       <use x="493.457031" xlink:href="#DejaVuSans-Bold-48"/>
      </g>
     </g>
    </g>
    <g id="xtick_12">
     <g id="line2d_99">
      <path clip-path="url(#p3e1ef778bd)" d="M 772.864036 593.9056 
L 772.864036 26.2 
" style="fill:none;stroke:#ffffff;stroke-linecap:round;stroke-width:0.8;"/>
     </g>
     <g id="line2d_100">
      <g>
       <use style="fill:#262626;stroke:#262626;" x="772.864036" xlink:href="#m03ee35d191" y="593.9056"/>
      </g>
     </g>
     <g id="text_49">
      <!-- 6,000,000 -->
      <defs>
       <path d="M 36.1875 35.984375 
Q 31.25 35.984375 28.78125 32.78125 
Q 26.3125 29.59375 26.3125 23.1875 
Q 26.3125 16.796875 28.78125 13.59375 
Q 31.25 10.40625 36.1875 10.40625 
Q 41.15625 10.40625 43.625 13.59375 
Q 46.09375 16.796875 46.09375 23.1875 
Q 46.09375 29.59375 43.625 32.78125 
Q 41.15625 35.984375 36.1875 35.984375 
z
M 59.421875 71 
L 59.421875 57.515625 
Q 54.78125 59.71875 50.671875 60.765625 
Q 46.578125 61.8125 42.671875 61.8125 
Q 34.28125 61.8125 29.59375 57.140625 
Q 24.90625 52.484375 24.125 43.3125 
Q 27.34375 45.703125 31.09375 46.890625 
Q 34.859375 48.09375 39.3125 48.09375 
Q 50.484375 48.09375 57.34375 41.546875 
Q 64.203125 35.015625 64.203125 24.421875 
Q 64.203125 12.703125 56.53125 5.640625 
Q 48.875 -1.421875 35.984375 -1.421875 
Q 21.78125 -1.421875 13.984375 8.171875 
Q 6.203125 17.78125 6.203125 35.40625 
Q 6.203125 53.46875 15.3125 63.796875 
Q 24.421875 74.125 40.28125 74.125 
Q 45.3125 74.125 50.046875 73.34375 
Q 54.78125 72.5625 59.421875 71 
z
" id="DejaVuSans-Bold-54"/>
      </defs>
      <g style="fill:#262626;" transform="translate(741.898176 609.463881)scale(0.11 -0.11)">
       <use xlink:href="#DejaVuSans-Bold-54"/>
       <use x="69.580078" xlink:href="#DejaVuSans-Bold-44"/>
       <use x="107.568359" xlink:href="#DejaVuSans-Bold-48"/>
       <use x="177.148438" xlink:href="#DejaVuSans-Bold-48"/>
       <use x="246.728516" xlink:href="#DejaVuSans-Bold-48"/>
       <use x="316.308594" xlink:href="#DejaVuSans-Bold-44"/>
       <use x="354.296875" xlink:href="#DejaVuSans-Bold-48"/>
       <use x="423.876953" xlink:href="#DejaVuSans-Bold-48"/>
       <use x="493.457031" xlink:href="#DejaVuSans-Bold-48"/>
      </g>
     </g>
    </g>
    <g id="xtick_13">
     <g id="line2d_101">
      <path clip-path="url(#p3e1ef778bd)" d="M 861.59854 593.9056 
L 861.59854 26.2 
" style="fill:none;stroke:#ffffff;stroke-linecap:round;stroke-width:0.8;"/>
     </g>
     <g id="line2d_102">
      <g>
       <use style="fill:#262626;stroke:#262626;" x="861.59854" xlink:href="#m03ee35d191" y="593.9056"/>
      </g>
     </g>
     <g id="text_50">
      <!-- 8,000,000 -->
      <defs>
       <path d="M 34.8125 32.625 
Q 29.546875 32.625 26.703125 29.734375 
Q 23.875 26.859375 23.875 21.484375 
Q 23.875 16.109375 26.703125 13.25 
Q 29.546875 10.40625 34.8125 10.40625 
Q 40.046875 10.40625 42.828125 13.25 
Q 45.609375 16.109375 45.609375 21.484375 
Q 45.609375 26.90625 42.828125 29.765625 
Q 40.046875 32.625 34.8125 32.625 
z
M 21.09375 38.8125 
Q 14.453125 40.828125 11.078125 44.96875 
Q 7.71875 49.125 7.71875 55.328125 
Q 7.71875 64.546875 14.59375 69.375 
Q 21.484375 74.21875 34.8125 74.21875 
Q 48.046875 74.21875 54.921875 69.40625 
Q 61.8125 64.59375 61.8125 55.328125 
Q 61.8125 49.125 58.421875 44.96875 
Q 55.03125 40.828125 48.390625 38.8125 
Q 55.8125 36.765625 59.59375 32.15625 
Q 63.375 27.546875 63.375 20.515625 
Q 63.375 9.671875 56.171875 4.125 
Q 48.96875 -1.421875 34.8125 -1.421875 
Q 20.609375 -1.421875 13.359375 4.125 
Q 6.109375 9.671875 6.109375 20.515625 
Q 6.109375 27.546875 9.890625 32.15625 
Q 13.671875 36.765625 21.09375 38.8125 
z
M 25.484375 53.421875 
Q 25.484375 49.078125 27.90625 46.734375 
Q 30.328125 44.390625 34.8125 44.390625 
Q 39.203125 44.390625 41.59375 46.734375 
Q 44 49.078125 44 53.421875 
Q 44 57.765625 41.59375 60.078125 
Q 39.203125 62.40625 34.8125 62.40625 
Q 30.328125 62.40625 27.90625 60.0625 
Q 25.484375 57.71875 25.484375 53.421875 
z
" id="DejaVuSans-Bold-56"/>
      </defs>
      <g style="fill:#262626;" transform="translate(830.632681 609.463881)scale(0.11 -0.11)">
       <use xlink:href="#DejaVuSans-Bold-56"/>
       <use x="69.580078" xlink:href="#DejaVuSans-Bold-44"/>
       <use x="107.568359" xlink:href="#DejaVuSans-Bold-48"/>
       <use x="177.148438" xlink:href="#DejaVuSans-Bold-48"/>
       <use x="246.728516" xlink:href="#DejaVuSans-Bold-48"/>
       <use x="316.308594" xlink:href="#DejaVuSans-Bold-44"/>
       <use x="354.296875" xlink:href="#DejaVuSans-Bold-48"/>
       <use x="423.876953" xlink:href="#DejaVuSans-Bold-48"/>
       <use x="493.457031" xlink:href="#DejaVuSans-Bold-48"/>
      </g>
     </g>
    </g>
    <g id="xtick_14">
     <g id="line2d_103">
      <g>
       <use style="fill:#262626;stroke:#262626;stroke-width:0.8;" x="551.027775" xlink:href="#m31cac9b009" y="593.9056"/>
      </g>
     </g>
    </g>
    <g id="xtick_15">
     <g id="line2d_104">
      <g>
       <use style="fill:#262626;stroke:#262626;stroke-width:0.8;" x="639.762279" xlink:href="#m31cac9b009" y="593.9056"/>
      </g>
     </g>
    </g>
    <g id="xtick_16">
     <g id="line2d_105">
      <g>
       <use style="fill:#262626;stroke:#262626;stroke-width:0.8;" x="728.496784" xlink:href="#m31cac9b009" y="593.9056"/>
      </g>
     </g>
    </g>
    <g id="xtick_17">
     <g id="line2d_106">
      <g>
       <use style="fill:#262626;stroke:#262626;stroke-width:0.8;" x="817.231288" xlink:href="#m31cac9b009" y="593.9056"/>
      </g>
     </g>
    </g>
    <g id="text_51">
     <!-- count -->
     <g style="fill:#262626;" transform="translate(452.461875 628.149194)scale(0.15 -0.15)">
      <use xlink:href="#DejaVuSans-99"/>
      <use x="54.980469" xlink:href="#DejaVuSans-111"/>
      <use x="116.162109" xlink:href="#DejaVuSans-117"/>
      <use x="179.541016" xlink:href="#DejaVuSans-110"/>
      <use x="242.919922" xlink:href="#DejaVuSans-116"/>
     </g>
    </g>
   </g>
   <g id="matplotlib.axis_4">
    <g id="ytick_41">
     <g id="line2d_107">
      <path clip-path="url(#p3e1ef778bd)" d="M 489.50925 585.432382 
L 866.83725 585.432382 
" style="fill:none;stroke:#ffffff;stroke-linecap:round;stroke-width:0.8;"/>
     </g>
    </g>
    <g id="ytick_42">
     <g id="line2d_108">
      <path clip-path="url(#p3e1ef778bd)" d="M 489.50925 571.310352 
L 866.83725 571.310352 
" style="fill:none;stroke:#ffffff;stroke-linecap:round;stroke-width:0.8;"/>
     </g>
    </g>
    <g id="ytick_43">
     <g id="line2d_109">
      <path clip-path="url(#p3e1ef778bd)" d="M 489.50925 557.188322 
L 866.83725 557.188322 
" style="fill:none;stroke:#ffffff;stroke-linecap:round;stroke-width:0.8;"/>
     </g>
    </g>
    <g id="ytick_44">
     <g id="line2d_110">
      <path clip-path="url(#p3e1ef778bd)" d="M 489.50925 543.066293 
L 866.83725 543.066293 
" style="fill:none;stroke:#ffffff;stroke-linecap:round;stroke-width:0.8;"/>
     </g>
    </g>
    <g id="ytick_45">
     <g id="line2d_111">
      <path clip-path="url(#p3e1ef778bd)" d="M 489.50925 528.944263 
L 866.83725 528.944263 
" style="fill:none;stroke:#ffffff;stroke-linecap:round;stroke-width:0.8;"/>
     </g>
    </g>
    <g id="ytick_46">
     <g id="line2d_112">
      <path clip-path="url(#p3e1ef778bd)" d="M 489.50925 514.822233 
L 866.83725 514.822233 
" style="fill:none;stroke:#ffffff;stroke-linecap:round;stroke-width:0.8;"/>
     </g>
    </g>
    <g id="ytick_47">
     <g id="line2d_113">
      <path clip-path="url(#p3e1ef778bd)" d="M 489.50925 500.700203 
L 866.83725 500.700203 
" style="fill:none;stroke:#ffffff;stroke-linecap:round;stroke-width:0.8;"/>
     </g>
    </g>
    <g id="ytick_48">
     <g id="line2d_114">
      <path clip-path="url(#p3e1ef778bd)" d="M 489.50925 486.578173 
L 866.83725 486.578173 
" style="fill:none;stroke:#ffffff;stroke-linecap:round;stroke-width:0.8;"/>
     </g>
    </g>
    <g id="ytick_49">
     <g id="line2d_115">
      <path clip-path="url(#p3e1ef778bd)" d="M 489.50925 472.456143 
L 866.83725 472.456143 
" style="fill:none;stroke:#ffffff;stroke-linecap:round;stroke-width:0.8;"/>
     </g>
    </g>
    <g id="ytick_50">
     <g id="line2d_116">
      <path clip-path="url(#p3e1ef778bd)" d="M 489.50925 458.334113 
L 866.83725 458.334113 
" style="fill:none;stroke:#ffffff;stroke-linecap:round;stroke-width:0.8;"/>
     </g>
    </g>
    <g id="ytick_51">
     <g id="line2d_117">
      <path clip-path="url(#p3e1ef778bd)" d="M 489.50925 444.212084 
L 866.83725 444.212084 
" style="fill:none;stroke:#ffffff;stroke-linecap:round;stroke-width:0.8;"/>
     </g>
    </g>
    <g id="ytick_52">
     <g id="line2d_118">
      <path clip-path="url(#p3e1ef778bd)" d="M 489.50925 430.090054 
L 866.83725 430.090054 
" style="fill:none;stroke:#ffffff;stroke-linecap:round;stroke-width:0.8;"/>
     </g>
    </g>
    <g id="ytick_53">
     <g id="line2d_119">
      <path clip-path="url(#p3e1ef778bd)" d="M 489.50925 415.968024 
L 866.83725 415.968024 
" style="fill:none;stroke:#ffffff;stroke-linecap:round;stroke-width:0.8;"/>
     </g>
    </g>
    <g id="ytick_54">
     <g id="line2d_120">
      <path clip-path="url(#p3e1ef778bd)" d="M 489.50925 401.845994 
L 866.83725 401.845994 
" style="fill:none;stroke:#ffffff;stroke-linecap:round;stroke-width:0.8;"/>
     </g>
    </g>
    <g id="ytick_55">
     <g id="line2d_121">
      <path clip-path="url(#p3e1ef778bd)" d="M 489.50925 387.723964 
L 866.83725 387.723964 
" style="fill:none;stroke:#ffffff;stroke-linecap:round;stroke-width:0.8;"/>
     </g>
    </g>
    <g id="ytick_56">
     <g id="line2d_122">
      <path clip-path="url(#p3e1ef778bd)" d="M 489.50925 373.601934 
L 866.83725 373.601934 
" style="fill:none;stroke:#ffffff;stroke-linecap:round;stroke-width:0.8;"/>
     </g>
    </g>
    <g id="ytick_57">
     <g id="line2d_123">
      <path clip-path="url(#p3e1ef778bd)" d="M 489.50925 359.479904 
L 866.83725 359.479904 
" style="fill:none;stroke:#ffffff;stroke-linecap:round;stroke-width:0.8;"/>
     </g>
    </g>
    <g id="ytick_58">
     <g id="line2d_124">
      <path clip-path="url(#p3e1ef778bd)" d="M 489.50925 345.357875 
L 866.83725 345.357875 
" style="fill:none;stroke:#ffffff;stroke-linecap:round;stroke-width:0.8;"/>
     </g>
    </g>
    <g id="ytick_59">
     <g id="line2d_125">
      <path clip-path="url(#p3e1ef778bd)" d="M 489.50925 331.235845 
L 866.83725 331.235845 
" style="fill:none;stroke:#ffffff;stroke-linecap:round;stroke-width:0.8;"/>
     </g>
    </g>
    <g id="ytick_60">
     <g id="line2d_126">
      <path clip-path="url(#p3e1ef778bd)" d="M 489.50925 317.113815 
L 866.83725 317.113815 
" style="fill:none;stroke:#ffffff;stroke-linecap:round;stroke-width:0.8;"/>
     </g>
    </g>
    <g id="ytick_61">
     <g id="line2d_127">
      <path clip-path="url(#p3e1ef778bd)" d="M 489.50925 302.991785 
L 866.83725 302.991785 
" style="fill:none;stroke:#ffffff;stroke-linecap:round;stroke-width:0.8;"/>
     </g>
    </g>
    <g id="ytick_62">
     <g id="line2d_128">
      <path clip-path="url(#p3e1ef778bd)" d="M 489.50925 288.869755 
L 866.83725 288.869755 
" style="fill:none;stroke:#ffffff;stroke-linecap:round;stroke-width:0.8;"/>
     </g>
    </g>
    <g id="ytick_63">
     <g id="line2d_129">
      <path clip-path="url(#p3e1ef778bd)" d="M 489.50925 274.747725 
L 866.83725 274.747725 
" style="fill:none;stroke:#ffffff;stroke-linecap:round;stroke-width:0.8;"/>
     </g>
    </g>
    <g id="ytick_64">
     <g id="line2d_130">
      <path clip-path="url(#p3e1ef778bd)" d="M 489.50925 260.625696 
L 866.83725 260.625696 
" style="fill:none;stroke:#ffffff;stroke-linecap:round;stroke-width:0.8;"/>
     </g>
    </g>
    <g id="ytick_65">
     <g id="line2d_131">
      <path clip-path="url(#p3e1ef778bd)" d="M 489.50925 246.503666 
L 866.83725 246.503666 
" style="fill:none;stroke:#ffffff;stroke-linecap:round;stroke-width:0.8;"/>
     </g>
    </g>
    <g id="ytick_66">
     <g id="line2d_132">
      <path clip-path="url(#p3e1ef778bd)" d="M 489.50925 232.381636 
L 866.83725 232.381636 
" style="fill:none;stroke:#ffffff;stroke-linecap:round;stroke-width:0.8;"/>
     </g>
    </g>
    <g id="ytick_67">
     <g id="line2d_133">
      <path clip-path="url(#p3e1ef778bd)" d="M 489.50925 218.259606 
L 866.83725 218.259606 
" style="fill:none;stroke:#ffffff;stroke-linecap:round;stroke-width:0.8;"/>
     </g>
    </g>
    <g id="ytick_68">
     <g id="line2d_134">
      <path clip-path="url(#p3e1ef778bd)" d="M 489.50925 204.137576 
L 866.83725 204.137576 
" style="fill:none;stroke:#ffffff;stroke-linecap:round;stroke-width:0.8;"/>
     </g>
    </g>
    <g id="ytick_69">
     <g id="line2d_135">
      <path clip-path="url(#p3e1ef778bd)" d="M 489.50925 190.015546 
L 866.83725 190.015546 
" style="fill:none;stroke:#ffffff;stroke-linecap:round;stroke-width:0.8;"/>
     </g>
    </g>
    <g id="ytick_70">
     <g id="line2d_136">
      <path clip-path="url(#p3e1ef778bd)" d="M 489.50925 175.893516 
L 866.83725 175.893516 
" style="fill:none;stroke:#ffffff;stroke-linecap:round;stroke-width:0.8;"/>
     </g>
    </g>
    <g id="ytick_71">
     <g id="line2d_137">
      <path clip-path="url(#p3e1ef778bd)" d="M 489.50925 161.771487 
L 866.83725 161.771487 
" style="fill:none;stroke:#ffffff;stroke-linecap:round;stroke-width:0.8;"/>
     </g>
    </g>
    <g id="ytick_72">
     <g id="line2d_138">
      <path clip-path="url(#p3e1ef778bd)" d="M 489.50925 147.649457 
L 866.83725 147.649457 
" style="fill:none;stroke:#ffffff;stroke-linecap:round;stroke-width:0.8;"/>
     </g>
    </g>
    <g id="ytick_73">
     <g id="line2d_139">
      <path clip-path="url(#p3e1ef778bd)" d="M 489.50925 133.527427 
L 866.83725 133.527427 
" style="fill:none;stroke:#ffffff;stroke-linecap:round;stroke-width:0.8;"/>
     </g>
    </g>
    <g id="ytick_74">
     <g id="line2d_140">
      <path clip-path="url(#p3e1ef778bd)" d="M 489.50925 119.405397 
L 866.83725 119.405397 
" style="fill:none;stroke:#ffffff;stroke-linecap:round;stroke-width:0.8;"/>
     </g>
    </g>
    <g id="ytick_75">
     <g id="line2d_141">
      <path clip-path="url(#p3e1ef778bd)" d="M 489.50925 105.283367 
L 866.83725 105.283367 
" style="fill:none;stroke:#ffffff;stroke-linecap:round;stroke-width:0.8;"/>
     </g>
    </g>
    <g id="ytick_76">
     <g id="line2d_142">
      <path clip-path="url(#p3e1ef778bd)" d="M 489.50925 91.161337 
L 866.83725 91.161337 
" style="fill:none;stroke:#ffffff;stroke-linecap:round;stroke-width:0.8;"/>
     </g>
    </g>
    <g id="ytick_77">
     <g id="line2d_143">
      <path clip-path="url(#p3e1ef778bd)" d="M 489.50925 77.039307 
L 866.83725 77.039307 
" style="fill:none;stroke:#ffffff;stroke-linecap:round;stroke-width:0.8;"/>
     </g>
    </g>
    <g id="ytick_78">
     <g id="line2d_144">
      <path clip-path="url(#p3e1ef778bd)" d="M 489.50925 62.917278 
L 866.83725 62.917278 
" style="fill:none;stroke:#ffffff;stroke-linecap:round;stroke-width:0.8;"/>
     </g>
    </g>
    <g id="ytick_79">
     <g id="line2d_145">
      <path clip-path="url(#p3e1ef778bd)" d="M 489.50925 48.795248 
L 866.83725 48.795248 
" style="fill:none;stroke:#ffffff;stroke-linecap:round;stroke-width:0.8;"/>
     </g>
    </g>
    <g id="ytick_80">
     <g id="line2d_146">
      <path clip-path="url(#p3e1ef778bd)" d="M 489.50925 34.673218 
L 866.83725 34.673218 
" style="fill:none;stroke:#ffffff;stroke-linecap:round;stroke-width:0.8;"/>
     </g>
    </g>
   </g>
   <g id="PolyCollection_2">
    <path clip-path="url(#p3e1ef778bd)" d="M 506.660523 591.787296 
L 506.660523 579.077469 
L 564.240875 579.077469 
L 564.240875 591.787296 
z
" style="fill:#595959;"/>
    <path clip-path="url(#p3e1ef778bd)" d="M 506.660523 577.665266 
L 506.660523 564.955439 
L 542.897077 564.955439 
L 542.897077 577.665266 
z
" style="fill:#595959;"/>
    <path clip-path="url(#p3e1ef778bd)" d="M 506.660523 563.543236 
L 506.660523 550.833409 
L 540.394187 550.833409 
L 540.394187 563.543236 
z
" style="fill:#595959;"/>
    <path clip-path="url(#p3e1ef778bd)" d="M 506.660523 549.421206 
L 506.660523 536.711379 
L 531.257328 536.711379 
L 531.257328 549.421206 
z
" style="fill:#595959;"/>
    <path clip-path="url(#p3e1ef778bd)" d="M 506.660523 535.299176 
L 506.660523 522.589349 
L 534.657679 522.589349 
L 534.657679 535.299176 
z
" style="fill:#595959;"/>
    <path clip-path="url(#p3e1ef778bd)" d="M 506.660523 521.177146 
L 506.660523 508.467319 
L 530.986466 508.467319 
L 530.986466 521.177146 
z
" style="fill:#595959;"/>
    <path clip-path="url(#p3e1ef778bd)" d="M 506.660523 507.055116 
L 506.660523 494.34529 
L 849.685977 494.34529 
L 849.685977 507.055116 
z
" style="fill:#595959;"/>
    <path clip-path="url(#p3e1ef778bd)" d="M 506.660523 492.933087 
L 506.660523 480.22326 
L 527.906447 480.22326 
L 527.906447 492.933087 
z
" style="fill:#595959;"/>
    <path clip-path="url(#p3e1ef778bd)" d="M 506.660523 478.811057 
L 506.660523 466.10123 
L 546.822735 466.10123 
L 546.822735 478.811057 
z
" style="fill:#595959;"/>
    <path clip-path="url(#p3e1ef778bd)" d="M 506.660523 464.689027 
L 506.660523 451.9792 
L 535.957728 451.9792 
L 535.957728 464.689027 
z
" style="fill:#595959;"/>
    <path clip-path="url(#p3e1ef778bd)" d="M 506.660523 450.566997 
L 506.660523 437.85717 
L 531.253113 437.85717 
L 531.253113 450.566997 
z
" style="fill:#595959;"/>
    <path clip-path="url(#p3e1ef778bd)" d="M 506.660523 436.444967 
L 506.660523 423.73514 
L 632.46533 423.73514 
L 632.46533 436.444967 
z
" style="fill:#595959;"/>
    <path clip-path="url(#p3e1ef778bd)" d="M 506.660523 422.322937 
L 506.660523 409.61311 
L 529.033819 409.61311 
L 529.033819 422.322937 
z
" style="fill:#595959;"/>
    <path clip-path="url(#p3e1ef778bd)" d="M 506.660523 408.200907 
L 506.660523 395.491081 
L 582.998063 395.491081 
L 582.998063 408.200907 
z
" style="fill:#595959;"/>
    <path clip-path="url(#p3e1ef778bd)" d="M 506.660523 394.078878 
L 506.660523 381.369051 
L 574.392812 381.369051 
L 574.392812 394.078878 
z
" style="fill:#595959;"/>
    <path clip-path="url(#p3e1ef778bd)" d="M 506.660523 379.956848 
L 506.660523 367.247021 
L 528.248518 367.247021 
L 528.248518 379.956848 
z
" style="fill:#595959;"/>
    <path clip-path="url(#p3e1ef778bd)" d="M 506.660523 365.834818 
L 506.660523 353.124991 
L 532.726594 353.124991 
L 532.726594 365.834818 
z
" style="fill:#595959;"/>
    <path clip-path="url(#p3e1ef778bd)" d="M 506.660523 351.712788 
L 506.660523 339.002961 
L 531.772964 339.002961 
L 531.772964 351.712788 
z
" style="fill:#595959;"/>
    <path clip-path="url(#p3e1ef778bd)" d="M 506.660523 337.590758 
L 506.660523 324.880931 
L 527.966032 324.880931 
L 527.966032 337.590758 
z
" style="fill:#595959;"/>
    <path clip-path="url(#p3e1ef778bd)" d="M 506.660523 323.468728 
L 506.660523 310.758901 
L 531.914939 310.758901 
L 531.914939 323.468728 
z
" style="fill:#595959;"/>
    <path clip-path="url(#p3e1ef778bd)" d="M 506.660523 309.346699 
L 506.660523 296.636872 
L 507.419513 296.636872 
L 507.419513 309.346699 
z
" style="fill:#595959;"/>
    <path clip-path="url(#p3e1ef778bd)" d="M 506.660523 295.224669 
L 506.660523 282.514842 
L 508.40806 282.514842 
L 508.40806 295.224669 
z
" style="fill:#595959;"/>
    <path clip-path="url(#p3e1ef778bd)" d="M 506.660523 281.102639 
L 506.660523 268.392812 
L 507.918024 268.392812 
L 507.918024 281.102639 
z
" style="fill:#595959;"/>
    <path clip-path="url(#p3e1ef778bd)" d="M 506.660523 266.980609 
L 506.660523 254.270782 
L 508.529271 254.270782 
L 508.529271 266.980609 
z
" style="fill:#595959;"/>
    <path clip-path="url(#p3e1ef778bd)" d="M 506.660523 252.858579 
L 506.660523 240.148752 
L 507.00956 240.148752 
L 507.00956 252.858579 
z
" style="fill:#595959;"/>
    <path clip-path="url(#p3e1ef778bd)" d="M 506.660523 238.736549 
L 506.660523 226.026722 
L 507.035204 226.026722 
L 507.035204 238.736549 
z
" style="fill:#595959;"/>
    <path clip-path="url(#p3e1ef778bd)" d="M 506.660523 224.614519 
L 506.660523 211.904693 
L 507.234502 211.904693 
L 507.234502 224.614519 
z
" style="fill:#595959;"/>
    <path clip-path="url(#p3e1ef778bd)" d="M 506.660523 210.49249 
L 506.660523 197.782663 
L 507.343113 197.782663 
L 507.343113 210.49249 
z
" style="fill:#595959;"/>
    <path clip-path="url(#p3e1ef778bd)" d="M 506.660523 196.37046 
L 506.660523 183.660633 
L 506.933692 183.660633 
L 506.933692 196.37046 
z
" style="fill:#595959;"/>
    <path clip-path="url(#p3e1ef778bd)" d="M 506.660523 182.24843 
L 506.660523 169.538603 
L 506.890611 169.538603 
L 506.890611 182.24843 
z
" style="fill:#595959;"/>
    <path clip-path="url(#p3e1ef778bd)" d="M 506.660523 168.1264 
L 506.660523 155.416573 
L 506.841231 155.416573 
L 506.841231 168.1264 
z
" style="fill:#595959;"/>
    <path clip-path="url(#p3e1ef778bd)" d="M 506.660523 154.00437 
L 506.660523 141.294543 
L 506.840609 141.294543 
L 506.840609 154.00437 
z
" style="fill:#595959;"/>
    <path clip-path="url(#p3e1ef778bd)" d="M 506.660523 139.88234 
L 506.660523 127.172513 
L 506.735282 127.172513 
L 506.735282 139.88234 
z
" style="fill:#595959;"/>
    <path clip-path="url(#p3e1ef778bd)" d="M 506.660523 125.76031 
L 506.660523 113.050484 
L 506.711767 113.050484 
L 506.711767 125.76031 
z
" style="fill:#595959;"/>
    <path clip-path="url(#p3e1ef778bd)" d="M 506.660523 111.638281 
L 506.660523 98.928454 
L 506.982274 98.928454 
L 506.982274 111.638281 
z
" style="fill:#595959;"/>
    <path clip-path="url(#p3e1ef778bd)" d="M 506.660523 97.516251 
L 506.660523 84.806424 
L 506.708794 84.806424 
L 506.708794 97.516251 
z
" style="fill:#595959;"/>
    <path clip-path="url(#p3e1ef778bd)" d="M 506.660523 83.394221 
L 506.660523 70.684394 
L 506.707996 70.684394 
L 506.707996 83.394221 
z
" style="fill:#595959;"/>
    <path clip-path="url(#p3e1ef778bd)" d="M 506.660523 69.272191 
L 506.660523 56.562364 
L 506.77326 56.562364 
L 506.77326 69.272191 
z
" style="fill:#595959;"/>
    <path clip-path="url(#p3e1ef778bd)" d="M 506.660523 55.150161 
L 506.660523 42.440334 
L 506.676495 42.440334 
L 506.676495 55.150161 
z
" style="fill:#595959;"/>
    <path clip-path="url(#p3e1ef778bd)" d="M 506.660523 41.028131 
L 506.660523 28.318304 
L 506.660611 28.318304 
L 506.660611 41.028131 
z
" style="fill:#595959;"/>
   </g>
   <g id="patch_9">
    <path d="M 489.50925 26.2 
L 866.83725 26.2 
L 866.83725 7.2 
L 489.50925 7.2 
z
" style="fill:#d3d3d3;"/>
   </g>
   <g id="patch_10">
    <path d="M 489.50925 593.9056 
L 489.50925 26.2 
" style="fill:none;stroke:#ffffff;stroke-linecap:square;stroke-linejoin:miter;"/>
   </g>
   <g id="patch_11">
    <path d="M 866.83725 593.9056 
L 866.83725 26.2 
" style="fill:none;stroke:#ffffff;stroke-linecap:square;stroke-linejoin:miter;"/>
   </g>
   <g id="patch_12">
    <path d="M 489.50925 593.9056 
L 866.83725 593.9056 
" style="fill:none;stroke:#ffffff;stroke-linecap:square;stroke-linejoin:miter;"/>
   </g>
   <g id="patch_13">
    <path d="M 489.50925 26.2 
L 866.83725 26.2 
" style="fill:none;stroke:#ffffff;stroke-linecap:square;stroke-linejoin:miter;"/>
   </g>
   <g id="text_52">
    <!-- reference -->
    <g style="fill:#262626;" transform="translate(646.853406 20.287188)scale(0.13 -0.13)">
     <use xlink:href="#DejaVuSans-114"/>
     <use x="41.082031" xlink:href="#DejaVuSans-101"/>
     <use x="102.605469" xlink:href="#DejaVuSans-102"/>
     <use x="137.810547" xlink:href="#DejaVuSans-101"/>
     <use x="199.333984" xlink:href="#DejaVuSans-114"/>
     <use x="240.416016" xlink:href="#DejaVuSans-101"/>
     <use x="301.939453" xlink:href="#DejaVuSans-110"/>
     <use x="365.318359" xlink:href="#DejaVuSans-99"/>
     <use x="420.298828" xlink:href="#DejaVuSans-101"/>
    </g>
   </g>
  </g>
 </g>
 <defs>
  <clipPath id="p92534b7d58">
   <rect height="567.7056" width="377.328" x="104.98125" y="26.2"/>
  </clipPath>
  <clipPath id="p3e1ef778bd">
   <rect height="567.7056" width="377.328" x="489.50925" y="26.2"/>
  </clipPath>
 </defs>
</svg>
