<?xml version="1.0" encoding="utf-8" standalone="no"?>
<!DOCTYPE svg PUBLIC "-//W3C//DTD SVG 1.1//EN"
  "http://www.w3.org/Graphics/SVG/1.1/DTD/svg11.dtd">
<!-- Created with matplotlib (https://matplotlib.org/) -->
<svg height="541.617812pt" version="1.1" viewBox="0 0 711.9963 541.617812" width="711.9963pt" xmlns="http://www.w3.org/2000/svg" xmlns:xlink="http://www.w3.org/1999/xlink">
 <defs>
  <style type="text/css">
*{stroke-linecap:butt;stroke-linejoin:round;}
  </style>
 </defs>
 <g id="figure_1">
  <g id="patch_1">
   <path d="M 0 541.617812
L 711.9963 541.617812
L 711.9963 0
L 0 0
z
" style="fill:#ffffff;"/>
  </g>
  <g id="axes_1">
   <g id="patch_2">
    <path d="M 90.9963 498.44
L 394.2963 498.44
L 394.2963 27.2
L 90.9963 27.2
z
" style="fill:#ffffff;"/>
   </g>
   <g id="matplotlib.axis_1">
    <g id="xtick_1">
     <g id="line2d_1">
      <defs>
       <path d="M 0 0
L 0 4.8
" id="ma538d5814b" style="stroke:#262626;"/>
      </defs>
      <g>
       <use style="fill:#262626;stroke:#262626;" x="104.782664" xlink:href="#ma538d5814b" y="498.44"/>
      </g>
     </g>
     <g id="text_1">
      <!-- 0 -->
      <defs>
       <path d="M 4.15625 35.296875
Q 4.15625 48 6.765625 55.734375
Q 9.375 63.484375 14.515625 67.671875
Q 19.671875 71.875 27.484375 71.875
Q 33.25 71.875 37.59375 69.546875
Q 41.9375 67.234375 44.765625 62.859375
Q 47.609375 58.5 49.21875 52.21875
Q 50.828125 45.953125 50.828125 35.296875
Q 50.828125 22.703125 48.234375 14.96875
Q 45.65625 7.234375 40.5 3
Q 35.359375 -1.21875 27.484375 -1.21875
Q 17.140625 -1.21875 11.234375 6.203125
Q 4.15625 15.140625 4.15625 35.296875
z
M 13.1875 35.296875
Q 13.1875 17.671875 17.3125 11.828125
Q 21.4375 6 27.484375 6
Q 33.546875 6 37.671875 11.859375
Q 41.796875 17.71875 41.796875 35.296875
Q 41.796875 52.984375 37.671875 58.78125
Q 33.546875 64.59375 27.390625 64.59375
Q 21.34375 64.59375 17.71875 59.46875
Q 13.1875 52.9375 13.1875 35.296875
z
" id="ArialMT-48"/>
      </defs>
      <g style="fill:#262626;" transform="translate(101.446101 514.229375)scale(0.12 -0.12)">
       <use xlink:href="#ArialMT-48"/>
      </g>
     </g>
    </g>
    <g id="xtick_2">
     <g id="line2d_2">
      <g>
       <use style="fill:#262626;stroke:#262626;" x="182.993493" xlink:href="#ma538d5814b" y="498.44"/>
      </g>
     </g>
     <g id="text_2">
      <!-- 5e+05 -->
      <defs>
       <path d="M 4.15625 18.75
L 13.375 19.53125
Q 14.40625 12.796875 18.140625 9.390625
Q 21.875 6 27.15625 6
Q 33.5 6 37.890625 10.78125
Q 42.28125 15.578125 42.28125 23.484375
Q 42.28125 31 38.0625 35.34375
Q 33.84375 39.703125 27 39.703125
Q 22.75 39.703125 19.328125 37.765625
Q 15.921875 35.84375 13.96875 32.765625
L 5.71875 33.84375
L 12.640625 70.609375
L 48.25 70.609375
L 48.25 62.203125
L 19.671875 62.203125
L 15.828125 42.96875
Q 22.265625 47.46875 29.34375 47.46875
Q 38.71875 47.46875 45.15625 40.96875
Q 51.609375 34.46875 51.609375 24.265625
Q 51.609375 14.546875 45.953125 7.46875
Q 39.0625 -1.21875 27.15625 -1.21875
Q 17.390625 -1.21875 11.203125 4.25
Q 5.03125 9.71875 4.15625 18.75
z
" id="ArialMT-53"/>
       <path d="M 42.09375 16.703125
L 51.171875 15.578125
Q 49.03125 7.625 43.21875 3.21875
Q 37.40625 -1.171875 28.375 -1.171875
Q 17 -1.171875 10.328125 5.828125
Q 3.65625 12.84375 3.65625 25.484375
Q 3.65625 38.578125 10.390625 45.796875
Q 17.140625 53.03125 27.875 53.03125
Q 38.28125 53.03125 44.875 45.953125
Q 51.46875 38.875 51.46875 26.03125
Q 51.46875 25.25 51.421875 23.6875
L 12.75 23.6875
Q 13.234375 15.140625 17.578125 10.59375
Q 21.921875 6.0625 28.421875 6.0625
Q 33.25 6.0625 36.671875 8.59375
Q 40.09375 11.140625 42.09375 16.703125
z
M 13.234375 30.90625
L 42.1875 30.90625
Q 41.609375 37.453125 38.875 40.71875
Q 34.671875 45.796875 27.984375 45.796875
Q 21.921875 45.796875 17.796875 41.75
Q 13.671875 37.703125 13.234375 30.90625
z
" id="ArialMT-101"/>
       <path d="M 25.046875 11.578125
L 25.046875 31.203125
L 5.5625 31.203125
L 5.5625 39.40625
L 25.046875 39.40625
L 25.046875 58.890625
L 33.34375 58.890625
L 33.34375 39.40625
L 52.828125 39.40625
L 52.828125 31.203125
L 33.34375 31.203125
L 33.34375 11.578125
z
" id="ArialMT-43"/>
      </defs>
      <g style="fill:#262626;" transform="translate(166.142868 514.229375)scale(0.12 -0.12)">
       <use xlink:href="#ArialMT-53"/>
       <use x="55.615234" xlink:href="#ArialMT-101"/>
       <use x="111.230469" xlink:href="#ArialMT-43"/>
       <use x="169.628906" xlink:href="#ArialMT-48"/>
       <use x="225.244141" xlink:href="#ArialMT-53"/>
      </g>
     </g>
    </g>
    <g id="xtick_3">
     <g id="line2d_3">
      <g>
       <use style="fill:#262626;stroke:#262626;" x="261.204322" xlink:href="#ma538d5814b" y="498.44"/>
      </g>
     </g>
     <g id="text_3">
      <!-- 1e+06 -->
      <defs>
       <path d="M 37.25 0
L 28.46875 0
L 28.46875 56
Q 25.296875 52.984375 20.140625 49.953125
Q 14.984375 46.921875 10.890625 45.40625
L 10.890625 53.90625
Q 18.265625 57.375 23.78125 62.296875
Q 29.296875 67.234375 31.59375 71.875
L 37.25 71.875
z
" id="ArialMT-49"/>
       <path d="M 49.75 54.046875
L 41.015625 53.375
Q 39.84375 58.546875 37.703125 60.890625
Q 34.125 64.65625 28.90625 64.65625
Q 24.703125 64.65625 21.53125 62.3125
Q 17.390625 59.28125 14.984375 53.46875
Q 12.59375 47.65625 12.5 36.921875
Q 15.671875 41.75 20.265625 44.09375
Q 24.859375 46.4375 29.890625 46.4375
Q 38.671875 46.4375 44.84375 39.96875
Q 51.03125 33.5 51.03125 23.25
Q 51.03125 16.5 48.125 10.71875
Q 45.21875 4.9375 40.140625 1.859375
Q 35.0625 -1.21875 28.609375 -1.21875
Q 17.625 -1.21875 10.6875 6.859375
Q 3.765625 14.9375 3.765625 33.5
Q 3.765625 54.25 11.421875 63.671875
Q 18.109375 71.875 29.4375 71.875
Q 37.890625 71.875 43.28125 67.140625
Q 48.6875 62.40625 49.75 54.046875
z
M 13.875 23.1875
Q 13.875 18.65625 15.796875 14.5
Q 17.71875 10.359375 21.1875 8.171875
Q 24.65625 6 28.46875 6
Q 34.03125 6 38.03125 10.484375
Q 42.046875 14.984375 42.046875 22.703125
Q 42.046875 30.125 38.078125 34.390625
Q 34.125 38.671875 28.125 38.671875
Q 22.171875 38.671875 18.015625 34.390625
Q 13.875 30.125 13.875 23.1875
z
" id="ArialMT-54"/>
      </defs>
      <g style="fill:#262626;" transform="translate(244.353697 514.229375)scale(0.12 -0.12)">
       <use xlink:href="#ArialMT-49"/>
       <use x="55.615234" xlink:href="#ArialMT-101"/>
       <use x="111.230469" xlink:href="#ArialMT-43"/>
       <use x="169.628906" xlink:href="#ArialMT-48"/>
       <use x="225.244141" xlink:href="#ArialMT-54"/>
      </g>
     </g>
    </g>
    <g id="xtick_4">
     <g id="line2d_4">
      <g>
       <use style="fill:#262626;stroke:#262626;" x="339.415151" xlink:href="#ma538d5814b" y="498.44"/>
      </g>
     </g>
     <g id="text_4">
      <!-- 2e+06 -->
      <defs>
       <path d="M 50.34375 8.453125
L 50.34375 0
L 3.03125 0
Q 2.9375 3.171875 4.046875 6.109375
Q 5.859375 10.9375 9.828125 15.625
Q 13.8125 20.3125 21.34375 26.46875
Q 33.015625 36.03125 37.109375 41.625
Q 41.21875 47.21875 41.21875 52.203125
Q 41.21875 57.421875 37.46875 61
Q 33.734375 64.59375 27.734375 64.59375
Q 21.390625 64.59375 17.578125 60.78125
Q 13.765625 56.984375 13.71875 50.25
L 4.6875 51.171875
Q 5.609375 61.28125 11.65625 66.578125
Q 17.71875 71.875 27.9375 71.875
Q 38.234375 71.875 44.234375 66.15625
Q 50.25 60.453125 50.25 52
Q 50.25 47.703125 48.484375 43.546875
Q 46.734375 39.40625 42.65625 34.8125
Q 38.578125 30.21875 29.109375 22.21875
Q 21.1875 15.578125 18.9375 13.203125
Q 16.703125 10.84375 15.234375 8.453125
z
" id="ArialMT-50"/>
      </defs>
      <g style="fill:#262626;" transform="translate(322.564526 514.229375)scale(0.12 -0.12)">
       <use xlink:href="#ArialMT-50"/>
       <use x="55.615234" xlink:href="#ArialMT-101"/>
       <use x="111.230469" xlink:href="#ArialMT-43"/>
       <use x="169.628906" xlink:href="#ArialMT-48"/>
       <use x="225.244141" xlink:href="#ArialMT-54"/>
      </g>
     </g>
    </g>
    <g id="xtick_5">
     <g id="line2d_5">
      <defs>
       <path d="M 0 0
L 0 3.2
" id="m06c68c172a" style="stroke:#262626;stroke-width:0.8;"/>
      </defs>
      <g>
       <use style="fill:#262626;stroke:#262626;stroke-width:0.8;" x="143.888078" xlink:href="#m06c68c172a" y="498.44"/>
      </g>
     </g>
    </g>
    <g id="xtick_6">
     <g id="line2d_6">
      <g>
       <use style="fill:#262626;stroke:#262626;stroke-width:0.8;" x="222.098907" xlink:href="#m06c68c172a" y="498.44"/>
      </g>
     </g>
    </g>
    <g id="xtick_7">
     <g id="line2d_7">
      <g>
       <use style="fill:#262626;stroke:#262626;stroke-width:0.8;" x="300.309737" xlink:href="#m06c68c172a" y="498.44"/>
      </g>
     </g>
    </g>
    <g id="xtick_8">
     <g id="line2d_8">
      <g>
       <use style="fill:#262626;stroke:#262626;stroke-width:0.8;" x="378.520566" xlink:href="#m06c68c172a" y="498.44"/>
      </g>
     </g>
    </g>
   </g>
   <g id="matplotlib.axis_2">
    <g id="ytick_1">
     <g id="line2d_9">
      <defs>
       <path d="M 0 0
L -4.8 0
" id="m13345719a0" style="stroke:#262626;"/>
      </defs>
      <g>
       <use style="fill:#262626;stroke:#262626;" x="90.9963" xlink:href="#m13345719a0" y="491.406567"/>
      </g>
     </g>
     <g id="text_5">
      <!-- patients -->
      <defs>
       <path d="M 6.59375 -19.875
L 6.59375 51.859375
L 14.59375 51.859375
L 14.59375 45.125
Q 17.4375 49.078125 21 51.046875
Q 24.5625 53.03125 29.640625 53.03125
Q 36.28125 53.03125 41.359375 49.609375
Q 46.4375 46.1875 49.015625 39.953125
Q 51.609375 33.734375 51.609375 26.3125
Q 51.609375 18.359375 48.75 11.984375
Q 45.90625 5.609375 40.453125 2.21875
Q 35.015625 -1.171875 29 -1.171875
Q 24.609375 -1.171875 21.109375 0.6875
Q 17.625 2.546875 15.375 5.375
L 15.375 -19.875
z
M 14.546875 25.640625
Q 14.546875 15.625 18.59375 10.84375
Q 22.65625 6.0625 28.421875 6.0625
Q 34.28125 6.0625 38.453125 11.015625
Q 42.625 15.96875 42.625 26.375
Q 42.625 36.28125 38.546875 41.203125
Q 34.46875 46.140625 28.8125 46.140625
Q 23.1875 46.140625 18.859375 40.890625
Q 14.546875 35.640625 14.546875 25.640625
z
" id="ArialMT-112"/>
       <path d="M 40.4375 6.390625
Q 35.546875 2.25 31.03125 0.53125
Q 26.515625 -1.171875 21.34375 -1.171875
Q 12.796875 -1.171875 8.203125 3
Q 3.609375 7.171875 3.609375 13.671875
Q 3.609375 17.484375 5.34375 20.625
Q 7.078125 23.78125 9.890625 25.6875
Q 12.703125 27.59375 16.21875 28.5625
Q 18.796875 29.25 24.03125 29.890625
Q 34.671875 31.15625 39.703125 32.90625
Q 39.75 34.71875 39.75 35.203125
Q 39.75 40.578125 37.25 42.78125
Q 33.890625 45.75 27.25 45.75
Q 21.046875 45.75 18.09375 43.578125
Q 15.140625 41.40625 13.71875 35.890625
L 5.125 37.0625
Q 6.296875 42.578125 8.984375 45.96875
Q 11.671875 49.359375 16.75 51.1875
Q 21.828125 53.03125 28.515625 53.03125
Q 35.15625 53.03125 39.296875 51.46875
Q 43.453125 49.90625 45.40625 47.53125
Q 47.359375 45.171875 48.140625 41.546875
Q 48.578125 39.3125 48.578125 33.453125
L 48.578125 21.734375
Q 48.578125 9.46875 49.140625 6.21875
Q 49.703125 2.984375 51.375 0
L 42.1875 0
Q 40.828125 2.734375 40.4375 6.390625
z
M 39.703125 26.03125
Q 34.90625 24.078125 25.34375 22.703125
Q 19.921875 21.921875 17.671875 20.9375
Q 15.4375 19.96875 14.203125 18.09375
Q 12.984375 16.21875 12.984375 13.921875
Q 12.984375 10.40625 15.640625 8.0625
Q 18.3125 5.71875 23.4375 5.71875
Q 28.515625 5.71875 32.46875 7.9375
Q 36.421875 10.15625 38.28125 14.015625
Q 39.703125 17 39.703125 22.796875
z
" id="ArialMT-97"/>
       <path d="M 25.78125 7.859375
L 27.046875 0.09375
Q 23.34375 -0.6875 20.40625 -0.6875
Q 15.625 -0.6875 12.984375 0.828125
Q 10.359375 2.34375 9.28125 4.8125
Q 8.203125 7.28125 8.203125 15.1875
L 8.203125 45.015625
L 1.765625 45.015625
L 1.765625 51.859375
L 8.203125 51.859375
L 8.203125 64.703125
L 16.9375 69.96875
L 16.9375 51.859375
L 25.78125 51.859375
L 25.78125 45.015625
L 16.9375 45.015625
L 16.9375 14.703125
Q 16.9375 10.9375 17.40625 9.859375
Q 17.875 8.796875 18.921875 8.15625
Q 19.96875 7.515625 21.921875 7.515625
Q 23.390625 7.515625 25.78125 7.859375
z
" id="ArialMT-116"/>
       <path d="M 6.640625 61.46875
L 6.640625 71.578125
L 15.4375 71.578125
L 15.4375 61.46875
z
M 6.640625 0
L 6.640625 51.859375
L 15.4375 51.859375
L 15.4375 0
z
" id="ArialMT-105"/>
       <path d="M 6.59375 0
L 6.59375 51.859375
L 14.5 51.859375
L 14.5 44.484375
Q 20.21875 53.03125 31 53.03125
Q 35.6875 53.03125 39.625 51.34375
Q 43.5625 49.65625 45.515625 46.921875
Q 47.46875 44.1875 48.25 40.4375
Q 48.734375 37.984375 48.734375 31.890625
L 48.734375 0
L 39.9375 0
L 39.9375 31.546875
Q 39.9375 36.921875 38.90625 39.578125
Q 37.890625 42.234375 35.28125 43.8125
Q 32.671875 45.40625 29.15625 45.40625
Q 23.53125 45.40625 19.453125 41.84375
Q 15.375 38.28125 15.375 28.328125
L 15.375 0
z
" id="ArialMT-110"/>
       <path d="M 3.078125 15.484375
L 11.765625 16.84375
Q 12.5 11.625 15.84375 8.84375
Q 19.1875 6.0625 25.203125 6.0625
Q 31.25 6.0625 34.171875 8.515625
Q 37.109375 10.984375 37.109375 14.3125
Q 37.109375 17.28125 34.515625 19
Q 32.71875 20.171875 25.53125 21.96875
Q 15.875 24.421875 12.140625 26.203125
Q 8.40625 27.984375 6.46875 31.125
Q 4.546875 34.28125 4.546875 38.09375
Q 4.546875 41.546875 6.125 44.5
Q 7.71875 47.46875 10.453125 49.421875
Q 12.5 50.921875 16.03125 51.96875
Q 19.578125 53.03125 23.640625 53.03125
Q 29.734375 53.03125 34.34375 51.265625
Q 38.96875 49.515625 41.15625 46.5
Q 43.359375 43.5 44.1875 38.484375
L 35.59375 37.3125
Q 35.015625 41.3125 32.203125 43.546875
Q 29.390625 45.796875 24.265625 45.796875
Q 18.21875 45.796875 15.625 43.796875
Q 13.03125 41.796875 13.03125 39.109375
Q 13.03125 37.40625 14.109375 36.03125
Q 15.1875 34.625 17.484375 33.6875
Q 18.796875 33.203125 25.25 31.453125
Q 34.578125 28.953125 38.25 27.359375
Q 41.9375 25.78125 44.03125 22.75
Q 46.140625 19.734375 46.140625 15.234375
Q 46.140625 10.84375 43.578125 6.953125
Q 41.015625 3.078125 36.171875 0.953125
Q 31.34375 -1.171875 25.25 -1.171875
Q 15.140625 -1.171875 9.84375 3.03125
Q 4.546875 7.234375 3.078125 15.484375
z
" id="ArialMT-115"/>
      </defs>
      <g style="fill:#262626;" transform="translate(28.32165 497.075555)scale(0.1584 -0.1584)">
       <use xlink:href="#ArialMT-112"/>
       <use x="55.615234" xlink:href="#ArialMT-97"/>
       <use x="111.230469" xlink:href="#ArialMT-116"/>
       <use x="139.013672" xlink:href="#ArialMT-105"/>
       <use x="161.230469" xlink:href="#ArialMT-101"/>
       <use x="216.845703" xlink:href="#ArialMT-110"/>
       <use x="272.460938" xlink:href="#ArialMT-116"/>
       <use x="300.244141" xlink:href="#ArialMT-115"/>
      </g>
     </g>
    </g>
    <g id="ytick_2">
     <g id="line2d_10">
      <g>
       <use style="fill:#262626;stroke:#262626;" x="90.9963" xlink:href="#m13345719a0" y="479.684179"/>
      </g>
     </g>
     <g id="text_6">
      <!-- health -->
      <defs>
       <path d="M 6.59375 0
L 6.59375 71.578125
L 15.375 71.578125
L 15.375 45.90625
Q 21.53125 53.03125 30.90625 53.03125
Q 36.671875 53.03125 40.921875 50.75
Q 45.171875 48.484375 47 44.484375
Q 48.828125 40.484375 48.828125 32.859375
L 48.828125 0
L 40.046875 0
L 40.046875 32.859375
Q 40.046875 39.453125 37.1875 42.453125
Q 34.328125 45.453125 29.109375 45.453125
Q 25.203125 45.453125 21.75 43.421875
Q 18.3125 41.40625 16.84375 37.9375
Q 15.375 34.46875 15.375 28.375
L 15.375 0
z
" id="ArialMT-104"/>
       <path d="M 6.390625 0
L 6.390625 71.578125
L 15.1875 71.578125
L 15.1875 0
z
" id="ArialMT-108"/>
      </defs>
      <g style="fill:#262626;" transform="translate(40.6422 485.353167)scale(0.1584 -0.1584)">
       <use xlink:href="#ArialMT-104"/>
       <use x="55.615234" xlink:href="#ArialMT-101"/>
       <use x="111.230469" xlink:href="#ArialMT-97"/>
       <use x="166.845703" xlink:href="#ArialMT-108"/>
       <use x="189.0625" xlink:href="#ArialMT-116"/>
       <use x="216.845703" xlink:href="#ArialMT-104"/>
      </g>
     </g>
    </g>
    <g id="ytick_3">
     <g id="line2d_11">
      <g>
       <use style="fill:#262626;stroke:#262626;" x="90.9963" xlink:href="#m13345719a0" y="467.961791"/>
      </g>
     </g>
     <g id="text_7">
      <!-- ± -->
      <defs>
       <path d="M 23.296875 12.703125
L 23.296875 32.375
L 3.8125 32.375
L 3.8125 40.53125
L 23.296875 40.53125
L 23.296875 60.015625
L 31.59375 60.015625
L 31.59375 40.53125
L 51.078125 40.53125
L 51.078125 32.375
L 31.59375 32.375
L 31.59375 12.703125
z
M 51.078125 0
L 3.8125 0
L 3.8125 8.203125
L 51.078125 8.203125
z
" id="ArialMT-177"/>
      </defs>
      <g style="fill:#262626;" transform="translate(75.101625 473.630779)scale(0.1584 -0.1584)">
       <use xlink:href="#ArialMT-177"/>
      </g>
     </g>
    </g>
    <g id="ytick_4">
     <g id="line2d_12">
      <g>
       <use style="fill:#262626;stroke:#262626;" x="90.9963" xlink:href="#m13345719a0" y="456.239403"/>
      </g>
     </g>
     <g id="text_8">
      <!-- years -->
      <defs>
       <path d="M 6.203125 -19.96875
L 5.21875 -11.71875
Q 8.109375 -12.5 10.25 -12.5
Q 13.1875 -12.5 14.9375 -11.515625
Q 16.703125 -10.546875 17.828125 -8.796875
Q 18.65625 -7.46875 20.515625 -2.25
Q 20.75 -1.515625 21.296875 -0.09375
L 1.609375 51.859375
L 11.078125 51.859375
L 21.875 21.828125
Q 23.96875 16.109375 25.640625 9.8125
Q 27.15625 15.875 29.25 21.625
L 40.328125 51.859375
L 49.125 51.859375
L 29.390625 -0.875
Q 26.21875 -9.421875 24.46875 -12.640625
Q 22.125 -17 19.09375 -19.015625
Q 16.0625 -21.046875 11.859375 -21.046875
Q 9.328125 -21.046875 6.203125 -19.96875
z
" id="ArialMT-121"/>
       <path d="M 6.5 0
L 6.5 51.859375
L 14.40625 51.859375
L 14.40625 44
Q 17.4375 49.515625 20 51.265625
Q 22.5625 53.03125 25.640625 53.03125
Q 30.078125 53.03125 34.671875 50.203125
L 31.640625 42.046875
Q 28.421875 43.953125 25.203125 43.953125
Q 22.3125 43.953125 20.015625 42.21875
Q 17.71875 40.484375 16.75 37.40625
Q 15.28125 32.71875 15.28125 27.15625
L 15.28125 0
z
" id="ArialMT-114"/>
      </defs>
      <g style="fill:#262626;" transform="translate(45.065025 461.815578)scale(0.1584 -0.1584)">
       <use xlink:href="#ArialMT-121"/>
       <use x="50" xlink:href="#ArialMT-101"/>
       <use x="105.615234" xlink:href="#ArialMT-97"/>
       <use x="161.230469" xlink:href="#ArialMT-114"/>
       <use x="194.53125" xlink:href="#ArialMT-115"/>
      </g>
     </g>
    </g>
    <g id="ytick_5">
     <g id="line2d_13">
      <g>
       <use style="fill:#262626;stroke:#262626;" x="90.9963" xlink:href="#m13345719a0" y="444.517015"/>
      </g>
     </g>
     <g id="text_9">
      <!-- risk -->
      <defs>
       <path d="M 6.640625 0
L 6.640625 71.578125
L 15.4375 71.578125
L 15.4375 30.765625
L 36.234375 51.859375
L 47.609375 51.859375
L 27.78125 32.625
L 49.609375 0
L 38.765625 0
L 21.625 26.515625
L 15.4375 20.5625
L 15.4375 0
z
" id="ArialMT-107"/>
      </defs>
      <g style="fill:#262626;" transform="translate(59.162625 450.186002)scale(0.1584 -0.1584)">
       <use xlink:href="#ArialMT-114"/>
       <use x="33.300781" xlink:href="#ArialMT-105"/>
       <use x="55.517578" xlink:href="#ArialMT-115"/>
       <use x="105.517578" xlink:href="#ArialMT-107"/>
      </g>
     </g>
    </g>
    <g id="ytick_6">
     <g id="line2d_14">
      <g>
       <use style="fill:#262626;stroke:#262626;" x="90.9963" xlink:href="#m13345719a0" y="432.794627"/>
      </g>
     </g>
     <g id="text_10">
      <!-- clinical -->
      <defs>
       <path d="M 40.4375 19
L 49.078125 17.875
Q 47.65625 8.9375 41.8125 3.875
Q 35.984375 -1.171875 27.484375 -1.171875
Q 16.84375 -1.171875 10.375 5.78125
Q 3.90625 12.75 3.90625 25.734375
Q 3.90625 34.125 6.6875 40.421875
Q 9.46875 46.734375 15.15625 49.875
Q 20.84375 53.03125 27.546875 53.03125
Q 35.984375 53.03125 41.359375 48.75
Q 46.734375 44.484375 48.25 36.625
L 39.703125 35.296875
Q 38.484375 40.53125 35.375 43.15625
Q 32.28125 45.796875 27.875 45.796875
Q 21.234375 45.796875 17.078125 41.03125
Q 12.9375 36.28125 12.9375 25.984375
Q 12.9375 15.53125 16.9375 10.796875
Q 20.953125 6.0625 27.390625 6.0625
Q 32.5625 6.0625 36.03125 9.234375
Q 39.5 12.40625 40.4375 19
z
" id="ArialMT-99"/>
      </defs>
      <g style="fill:#262626;" transform="translate(36.26145 438.463614)scale(0.1584 -0.1584)">
       <use xlink:href="#ArialMT-99"/>
       <use x="50" xlink:href="#ArialMT-108"/>
       <use x="72.216797" xlink:href="#ArialMT-105"/>
       <use x="94.433594" xlink:href="#ArialMT-110"/>
       <use x="150.048828" xlink:href="#ArialMT-105"/>
       <use x="172.265625" xlink:href="#ArialMT-99"/>
       <use x="222.265625" xlink:href="#ArialMT-97"/>
       <use x="277.880859" xlink:href="#ArialMT-108"/>
      </g>
     </g>
    </g>
    <g id="ytick_7">
     <g id="line2d_15">
      <g>
       <use style="fill:#262626;stroke:#262626;" x="90.9963" xlink:href="#m13345719a0" y="421.072239"/>
      </g>
     </g>
     <g id="text_11">
      <!-- treatment -->
      <defs>
       <path d="M 6.59375 0
L 6.59375 51.859375
L 14.453125 51.859375
L 14.453125 44.578125
Q 16.890625 48.390625 20.9375 50.703125
Q 25 53.03125 30.171875 53.03125
Q 35.9375 53.03125 39.625 50.640625
Q 43.3125 48.25 44.828125 43.953125
Q 50.984375 53.03125 60.84375 53.03125
Q 68.5625 53.03125 72.703125 48.75
Q 76.859375 44.484375 76.859375 35.59375
L 76.859375 0
L 68.109375 0
L 68.109375 32.671875
Q 68.109375 37.9375 67.25 40.25
Q 66.40625 42.578125 64.15625 43.984375
Q 61.921875 45.40625 58.890625 45.40625
Q 53.421875 45.40625 49.796875 41.765625
Q 46.1875 38.140625 46.1875 30.125
L 46.1875 0
L 37.40625 0
L 37.40625 33.6875
Q 37.40625 39.546875 35.25 42.46875
Q 33.109375 45.40625 28.21875 45.40625
Q 24.515625 45.40625 21.359375 43.453125
Q 18.21875 41.5 16.796875 37.734375
Q 15.375 33.984375 15.375 26.90625
L 15.375 0
z
" id="ArialMT-109"/>
      </defs>
      <g style="fill:#262626;" transform="translate(16.8921 426.741226)scale(0.1584 -0.1584)">
       <use xlink:href="#ArialMT-116"/>
       <use x="27.783203" xlink:href="#ArialMT-114"/>
       <use x="61.083984" xlink:href="#ArialMT-101"/>
       <use x="116.699219" xlink:href="#ArialMT-97"/>
       <use x="172.314453" xlink:href="#ArialMT-116"/>
       <use x="200.097656" xlink:href="#ArialMT-109"/>
       <use x="283.398438" xlink:href="#ArialMT-101"/>
       <use x="339.013672" xlink:href="#ArialMT-110"/>
       <use x="394.628906" xlink:href="#ArialMT-116"/>
      </g>
     </g>
    </g>
    <g id="ytick_8">
     <g id="line2d_16">
      <g>
       <use style="fill:#262626;stroke:#262626;" x="90.9963" xlink:href="#m13345719a0" y="409.349851"/>
      </g>
     </g>
     <g id="text_12">
      <!-- study -->
      <defs>
       <path d="M 40.578125 0
L 40.578125 7.625
Q 34.515625 -1.171875 24.125 -1.171875
Q 19.53125 -1.171875 15.546875 0.578125
Q 11.578125 2.34375 9.640625 5
Q 7.71875 7.671875 6.9375 11.53125
Q 6.390625 14.109375 6.390625 19.734375
L 6.390625 51.859375
L 15.1875 51.859375
L 15.1875 23.09375
Q 15.1875 16.21875 15.71875 13.8125
Q 16.546875 10.359375 19.234375 8.375
Q 21.921875 6.390625 25.875 6.390625
Q 29.828125 6.390625 33.296875 8.421875
Q 36.765625 10.453125 38.203125 13.9375
Q 39.65625 17.4375 39.65625 24.078125
L 39.65625 51.859375
L 48.4375 51.859375
L 48.4375 0
z
" id="ArialMT-117"/>
       <path d="M 40.234375 0
L 40.234375 6.546875
Q 35.296875 -1.171875 25.734375 -1.171875
Q 19.53125 -1.171875 14.328125 2.25
Q 9.125 5.671875 6.265625 11.796875
Q 3.421875 17.921875 3.421875 25.875
Q 3.421875 33.640625 6 39.96875
Q 8.59375 46.296875 13.765625 49.65625
Q 18.953125 53.03125 25.34375 53.03125
Q 30.03125 53.03125 33.6875 51.046875
Q 37.359375 49.078125 39.65625 45.90625
L 39.65625 71.578125
L 48.390625 71.578125
L 48.390625 0
z
M 12.453125 25.875
Q 12.453125 15.921875 16.640625 10.984375
Q 20.84375 6.0625 26.5625 6.0625
Q 32.328125 6.0625 36.34375 10.765625
Q 40.375 15.484375 40.375 25.140625
Q 40.375 35.796875 36.265625 40.765625
Q 32.171875 45.75 26.171875 45.75
Q 20.3125 45.75 16.375 40.96875
Q 12.453125 36.1875 12.453125 25.875
z
" id="ArialMT-100"/>
      </defs>
      <g style="fill:#262626;" transform="translate(45.9387 415.018838)scale(0.1584 -0.1584)">
       <use xlink:href="#ArialMT-115"/>
       <use x="50" xlink:href="#ArialMT-116"/>
       <use x="77.783203" xlink:href="#ArialMT-117"/>
       <use x="133.398438" xlink:href="#ArialMT-100"/>
       <use x="189.013672" xlink:href="#ArialMT-121"/>
      </g>
     </g>
    </g>
    <g id="ytick_9">
     <g id="line2d_17">
      <g>
       <use style="fill:#262626;stroke:#262626;" x="90.9963" xlink:href="#m13345719a0" y="397.627463"/>
      </g>
     </g>
     <g id="text_13">
      <!-- group -->
      <defs>
       <path d="M 4.984375 -4.296875
L 13.53125 -5.5625
Q 14.0625 -9.515625 16.5 -11.328125
Q 19.78125 -13.765625 25.4375 -13.765625
Q 31.546875 -13.765625 34.859375 -11.328125
Q 38.1875 -8.890625 39.359375 -4.5
Q 40.046875 -1.8125 39.984375 6.78125
Q 34.234375 0 25.640625 0
Q 14.9375 0 9.078125 7.71875
Q 3.21875 15.4375 3.21875 26.21875
Q 3.21875 33.640625 5.90625 39.90625
Q 8.59375 46.1875 13.6875 49.609375
Q 18.796875 53.03125 25.6875 53.03125
Q 34.859375 53.03125 40.828125 45.609375
L 40.828125 51.859375
L 48.921875 51.859375
L 48.921875 7.03125
Q 48.921875 -5.078125 46.453125 -10.125
Q 44 -15.1875 38.640625 -18.109375
Q 33.296875 -21.046875 25.484375 -21.046875
Q 16.21875 -21.046875 10.5 -16.875
Q 4.78125 -12.703125 4.984375 -4.296875
z
M 12.25 26.859375
Q 12.25 16.65625 16.296875 11.96875
Q 20.359375 7.28125 26.46875 7.28125
Q 32.515625 7.28125 36.609375 11.9375
Q 40.71875 16.609375 40.71875 26.5625
Q 40.71875 36.078125 36.5 40.90625
Q 32.28125 45.75 26.3125 45.75
Q 20.453125 45.75 16.34375 40.984375
Q 12.25 36.234375 12.25 26.859375
z
" id="ArialMT-103"/>
       <path d="M 3.328125 25.921875
Q 3.328125 40.328125 11.328125 47.265625
Q 18.015625 53.03125 27.640625 53.03125
Q 38.328125 53.03125 45.109375 46.015625
Q 51.90625 39.015625 51.90625 26.65625
Q 51.90625 16.65625 48.90625 10.90625
Q 45.90625 5.171875 40.15625 2
Q 34.421875 -1.171875 27.640625 -1.171875
Q 16.75 -1.171875 10.03125 5.8125
Q 3.328125 12.796875 3.328125 25.921875
z
M 12.359375 25.921875
Q 12.359375 15.96875 16.703125 11.015625
Q 21.046875 6.0625 27.640625 6.0625
Q 34.1875 6.0625 38.53125 11.03125
Q 42.875 16.015625 42.875 26.21875
Q 42.875 35.84375 38.5 40.796875
Q 34.125 45.75 27.640625 45.75
Q 21.046875 45.75 16.703125 40.8125
Q 12.359375 35.890625 12.359375 25.921875
z
" id="ArialMT-111"/>
      </defs>
      <g style="fill:#262626;" transform="translate(43.287975 403.203638)scale(0.1584 -0.1584)">
       <use xlink:href="#ArialMT-103"/>
       <use x="55.615234" xlink:href="#ArialMT-114"/>
       <use x="88.916016" xlink:href="#ArialMT-111"/>
       <use x="144.53125" xlink:href="#ArialMT-117"/>
       <use x="200.146484" xlink:href="#ArialMT-112"/>
      </g>
     </g>
    </g>
    <g id="ytick_10">
     <g id="line2d_18">
      <g>
       <use style="fill:#262626;stroke:#262626;" x="90.9963" xlink:href="#m13345719a0" y="385.905075"/>
      </g>
     </g>
     <g id="text_14">
      <!-- age -->
      <g style="fill:#262626;" transform="translate(57.370725 391.48125)scale(0.1584 -0.1584)">
       <use xlink:href="#ArialMT-97"/>
       <use x="55.615234" xlink:href="#ArialMT-103"/>
       <use x="111.230469" xlink:href="#ArialMT-101"/>
      </g>
     </g>
    </g>
    <g id="ytick_11">
     <g id="line2d_19">
      <g>
       <use style="fill:#262626;stroke:#262626;" x="90.9963" xlink:href="#m13345719a0" y="374.182687"/>
      </g>
     </g>
     <g id="text_15">
      <!-- reported -->
      <g style="fill:#262626;" transform="translate(24.804675 379.851674)scale(0.1584 -0.1584)">
       <use xlink:href="#ArialMT-114"/>
       <use x="33.300781" xlink:href="#ArialMT-101"/>
       <use x="88.916016" xlink:href="#ArialMT-112"/>
       <use x="144.53125" xlink:href="#ArialMT-111"/>
       <use x="200.146484" xlink:href="#ArialMT-114"/>
       <use x="233.447266" xlink:href="#ArialMT-116"/>
       <use x="261.230469" xlink:href="#ArialMT-101"/>
       <use x="316.845703" xlink:href="#ArialMT-100"/>
      </g>
     </g>
    </g>
    <g id="ytick_12">
     <g id="line2d_20">
      <g>
       <use style="fill:#262626;stroke:#262626;" x="90.9963" xlink:href="#m13345719a0" y="362.460299"/>
      </g>
     </g>
     <g id="text_16">
      <!-- groups -->
      <g style="fill:#262626;" transform="translate(35.367975 368.036474)scale(0.1584 -0.1584)">
       <use xlink:href="#ArialMT-103"/>
       <use x="55.615234" xlink:href="#ArialMT-114"/>
       <use x="88.916016" xlink:href="#ArialMT-111"/>
       <use x="144.53125" xlink:href="#ArialMT-117"/>
       <use x="200.146484" xlink:href="#ArialMT-112"/>
       <use x="255.761719" xlink:href="#ArialMT-115"/>
      </g>
     </g>
    </g>
    <g id="ytick_13">
     <g id="line2d_21">
      <g>
       <use style="fill:#262626;stroke:#262626;" x="90.9963" xlink:href="#m13345719a0" y="350.73791"/>
      </g>
     </g>
     <g id="text_17">
      <!-- h -->
      <g style="fill:#262626;" transform="translate(74.987775 356.406898)scale(0.1584 -0.1584)">
       <use xlink:href="#ArialMT-104"/>
      </g>
     </g>
    </g>
    <g id="ytick_14">
     <g id="line2d_22">
      <g>
       <use style="fill:#262626;stroke:#262626;" x="90.9963" xlink:href="#m13345719a0" y="339.015522"/>
      </g>
     </g>
     <g id="text_18">
      <!-- – -->
      <defs>
       <path d="M -0.203125 22.359375
L -0.203125 29.4375
L 55.421875 29.4375
L 55.421875 22.359375
z
" id="ArialMT-8211"/>
      </defs>
      <g style="fill:#262626;" transform="translate(74.987775 344.68451)scale(0.1584 -0.1584)">
       <use xlink:href="#ArialMT-8211"/>
      </g>
     </g>
    </g>
    <g id="ytick_15">
     <g id="line2d_23">
      <g>
       <use style="fill:#262626;stroke:#262626;" x="90.9963" xlink:href="#m13345719a0" y="327.293134"/>
      </g>
     </g>
     <g id="text_19">
      <!-- cancer -->
      <g style="fill:#262626;" transform="translate(36.2565 332.962122)scale(0.1584 -0.1584)">
       <use xlink:href="#ArialMT-99"/>
       <use x="50" xlink:href="#ArialMT-97"/>
       <use x="105.615234" xlink:href="#ArialMT-110"/>
       <use x="161.230469" xlink:href="#ArialMT-99"/>
       <use x="211.230469" xlink:href="#ArialMT-101"/>
       <use x="266.845703" xlink:href="#ArialMT-114"/>
      </g>
     </g>
    </g>
    <g id="ytick_16">
     <g id="line2d_24">
      <g>
       <use style="fill:#262626;stroke:#262626;" x="90.9963" xlink:href="#m13345719a0" y="315.570746"/>
      </g>
     </g>
     <g id="text_20">
      <!-- min -->
      <g style="fill:#262626;" transform="translate(58.2741 321.239734)scale(0.1584 -0.1584)">
       <use xlink:href="#ArialMT-109"/>
       <use x="83.300781" xlink:href="#ArialMT-105"/>
       <use x="105.517578" xlink:href="#ArialMT-110"/>
      </g>
     </g>
    </g>
    <g id="ytick_17">
     <g id="line2d_25">
      <g>
       <use style="fill:#262626;stroke:#262626;" x="90.9963" xlink:href="#m13345719a0" y="303.848358"/>
      </g>
     </g>
     <g id="text_21">
      <!-- ml -->
      <g style="fill:#262626;" transform="translate(67.082625 309.517346)scale(0.1584 -0.1584)">
       <use xlink:href="#ArialMT-109"/>
       <use x="83.300781" xlink:href="#ArialMT-108"/>
      </g>
     </g>
    </g>
    <g id="ytick_18">
     <g id="line2d_26">
      <g>
       <use style="fill:#262626;stroke:#262626;" x="90.9963" xlink:href="#m13345719a0" y="292.12597"/>
      </g>
     </g>
     <g id="text_22">
      <!-- disease -->
      <g style="fill:#262626;" transform="translate(29.20275 297.794958)scale(0.1584 -0.1584)">
       <use xlink:href="#ArialMT-100"/>
       <use x="55.615234" xlink:href="#ArialMT-105"/>
       <use x="77.832031" xlink:href="#ArialMT-115"/>
       <use x="127.832031" xlink:href="#ArialMT-101"/>
       <use x="183.447266" xlink:href="#ArialMT-97"/>
       <use x="239.0625" xlink:href="#ArialMT-115"/>
       <use x="289.0625" xlink:href="#ArialMT-101"/>
      </g>
     </g>
    </g>
    <g id="ytick_19">
     <g id="line2d_27">
      <g>
       <use style="fill:#262626;stroke:#262626;" x="90.9963" xlink:href="#m13345719a0" y="280.403582"/>
      </g>
     </g>
     <g id="text_23">
      <!-- n -->
      <g style="fill:#262626;" transform="translate(74.987775 286.07257)scale(0.1584 -0.1584)">
       <use xlink:href="#ArialMT-110"/>
      </g>
     </g>
    </g>
    <g id="ytick_20">
     <g id="line2d_28">
      <g>
       <use style="fill:#262626;stroke:#262626;" x="90.9963" xlink:href="#m13345719a0" y="268.681194"/>
      </g>
     </g>
     <g id="text_24">
      <!-- studies -->
      <g style="fill:#262626;" transform="translate(33.610725 274.350182)scale(0.1584 -0.1584)">
       <use xlink:href="#ArialMT-115"/>
       <use x="50" xlink:href="#ArialMT-116"/>
       <use x="77.783203" xlink:href="#ArialMT-117"/>
       <use x="133.398438" xlink:href="#ArialMT-100"/>
       <use x="189.013672" xlink:href="#ArialMT-105"/>
       <use x="211.230469" xlink:href="#ArialMT-101"/>
       <use x="266.845703" xlink:href="#ArialMT-115"/>
      </g>
     </g>
    </g>
    <g id="ytick_21">
     <g id="line2d_29">
      <g>
       <use style="fill:#262626;stroke:#262626;" x="90.9963" xlink:href="#m13345719a0" y="256.958806"/>
      </g>
     </g>
     <g id="text_25">
      <!-- population -->
      <g style="fill:#262626;" transform="translate(10.697175 262.627793)scale(0.1584 -0.1584)">
       <use xlink:href="#ArialMT-112"/>
       <use x="55.615234" xlink:href="#ArialMT-111"/>
       <use x="111.230469" xlink:href="#ArialMT-112"/>
       <use x="166.845703" xlink:href="#ArialMT-117"/>
       <use x="222.460938" xlink:href="#ArialMT-108"/>
       <use x="244.677734" xlink:href="#ArialMT-97"/>
       <use x="300.292969" xlink:href="#ArialMT-116"/>
       <use x="328.076172" xlink:href="#ArialMT-105"/>
       <use x="350.292969" xlink:href="#ArialMT-111"/>
       <use x="405.908203" xlink:href="#ArialMT-110"/>
      </g>
     </g>
    </g>
    <g id="ytick_22">
     <g id="line2d_30">
      <g>
       <use style="fill:#262626;stroke:#262626;" x="90.9963" xlink:href="#m13345719a0" y="245.236418"/>
      </g>
     </g>
     <g id="text_26">
      <!-- binding -->
      <defs>
       <path d="M 14.703125 0
L 6.546875 0
L 6.546875 71.578125
L 15.328125 71.578125
L 15.328125 46.046875
Q 20.90625 53.03125 29.546875 53.03125
Q 34.328125 53.03125 38.59375 51.09375
Q 42.875 49.171875 45.625 45.671875
Q 48.390625 42.1875 49.953125 37.25
Q 51.515625 32.328125 51.515625 26.703125
Q 51.515625 13.375 44.921875 6.09375
Q 38.328125 -1.171875 29.109375 -1.171875
Q 19.921875 -1.171875 14.703125 6.5
z
M 14.59375 26.3125
Q 14.59375 17 17.140625 12.84375
Q 21.296875 6.0625 28.375 6.0625
Q 34.125 6.0625 38.328125 11.0625
Q 42.53125 16.0625 42.53125 25.984375
Q 42.53125 36.140625 38.5 40.96875
Q 34.46875 45.796875 28.765625 45.796875
Q 23 45.796875 18.796875 40.796875
Q 14.59375 35.796875 14.59375 26.3125
z
" id="ArialMT-98"/>
      </defs>
      <g style="fill:#262626;" transform="translate(32.714775 250.905405)scale(0.1584 -0.1584)">
       <use xlink:href="#ArialMT-98"/>
       <use x="55.615234" xlink:href="#ArialMT-105"/>
       <use x="77.832031" xlink:href="#ArialMT-110"/>
       <use x="133.447266" xlink:href="#ArialMT-100"/>
       <use x="189.0625" xlink:href="#ArialMT-105"/>
       <use x="211.279297" xlink:href="#ArialMT-110"/>
       <use x="266.894531" xlink:href="#ArialMT-103"/>
      </g>
     </g>
    </g>
    <g id="ytick_23">
     <g id="line2d_31">
      <g>
       <use style="fill:#262626;stroke:#262626;" x="90.9963" xlink:href="#m13345719a0" y="233.51403"/>
      </g>
     </g>
     <g id="text_27">
      <!-- fig -->
      <defs>
       <path d="M 8.6875 0
L 8.6875 45.015625
L 0.921875 45.015625
L 0.921875 51.859375
L 8.6875 51.859375
L 8.6875 57.375
Q 8.6875 62.59375 9.625 65.140625
Q 10.890625 68.5625 14.078125 70.671875
Q 17.28125 72.796875 23.046875 72.796875
Q 26.765625 72.796875 31.25 71.921875
L 29.9375 64.265625
Q 27.203125 64.75 24.75 64.75
Q 20.75 64.75 19.09375 63.03125
Q 17.4375 61.328125 17.4375 56.640625
L 17.4375 51.859375
L 27.546875 51.859375
L 27.546875 45.015625
L 17.4375 45.015625
L 17.4375 0
z
" id="ArialMT-102"/>
      </defs>
      <g style="fill:#262626;" transform="translate(67.067775 239.279542)scale(0.1584 -0.1584)">
       <use xlink:href="#ArialMT-102"/>
       <use x="27.783203" xlink:href="#ArialMT-105"/>
       <use x="50" xlink:href="#ArialMT-103"/>
      </g>
     </g>
    </g>
    <g id="ytick_24">
     <g id="line2d_32">
      <g>
       <use style="fill:#262626;stroke:#262626;" x="90.9963" xlink:href="#m13345719a0" y="221.791642"/>
      </g>
     </g>
     <g id="text_28">
      <!-- individual -->
      <defs>
       <path d="M 21 0
L 1.265625 51.859375
L 10.546875 51.859375
L 21.6875 20.796875
Q 23.484375 15.765625 25 10.359375
Q 26.171875 14.453125 28.265625 20.21875
L 39.796875 51.859375
L 48.828125 51.859375
L 29.203125 0
z
" id="ArialMT-118"/>
      </defs>
      <g style="fill:#262626;" transform="translate(17.755875 227.460629)scale(0.1584 -0.1584)">
       <use xlink:href="#ArialMT-105"/>
       <use x="22.216797" xlink:href="#ArialMT-110"/>
       <use x="77.832031" xlink:href="#ArialMT-100"/>
       <use x="133.447266" xlink:href="#ArialMT-105"/>
       <use x="155.664062" xlink:href="#ArialMT-118"/>
       <use x="205.664062" xlink:href="#ArialMT-105"/>
       <use x="227.880859" xlink:href="#ArialMT-100"/>
       <use x="283.496094" xlink:href="#ArialMT-117"/>
       <use x="339.111328" xlink:href="#ArialMT-97"/>
       <use x="394.726562" xlink:href="#ArialMT-108"/>
      </g>
     </g>
    </g>
    <g id="ytick_25">
     <g id="line2d_33">
      <g>
       <use style="fill:#262626;stroke:#262626;" x="90.9963" xlink:href="#m13345719a0" y="210.069254"/>
      </g>
     </g>
     <g id="text_29">
      <!-- distribution -->
      <g style="fill:#262626;" transform="translate(7.2 215.738241)scale(0.1584 -0.1584)">
       <use xlink:href="#ArialMT-100"/>
       <use x="55.615234" xlink:href="#ArialMT-105"/>
       <use x="77.832031" xlink:href="#ArialMT-115"/>
       <use x="127.832031" xlink:href="#ArialMT-116"/>
       <use x="155.615234" xlink:href="#ArialMT-114"/>
       <use x="188.916016" xlink:href="#ArialMT-105"/>
       <use x="211.132812" xlink:href="#ArialMT-98"/>
       <use x="266.748047" xlink:href="#ArialMT-117"/>
       <use x="322.363281" xlink:href="#ArialMT-116"/>
       <use x="350.146484" xlink:href="#ArialMT-105"/>
       <use x="372.363281" xlink:href="#ArialMT-111"/>
       <use x="427.978516" xlink:href="#ArialMT-110"/>
      </g>
     </g>
    </g>
    <g id="ytick_26">
     <g id="line2d_34">
      <g>
       <use style="fill:#262626;stroke:#262626;" x="90.9963" xlink:href="#m13345719a0" y="198.346866"/>
      </g>
     </g>
     <g id="text_30">
      <!-- sequence -->
      <defs>
       <path d="M 39.65625 -19.875
L 39.65625 5.515625
Q 37.59375 2.640625 33.90625 0.734375
Q 30.21875 -1.171875 26.078125 -1.171875
Q 16.84375 -1.171875 10.171875 6.203125
Q 3.515625 13.578125 3.515625 26.421875
Q 3.515625 34.234375 6.21875 40.421875
Q 8.9375 46.625 14.078125 49.828125
Q 19.234375 53.03125 25.390625 53.03125
Q 35.015625 53.03125 40.53125 44.921875
L 40.53125 51.859375
L 48.4375 51.859375
L 48.4375 -19.875
z
M 12.546875 26.078125
Q 12.546875 16.0625 16.75 11.0625
Q 20.953125 6.0625 26.8125 6.0625
Q 32.421875 6.0625 36.46875 10.8125
Q 40.53125 15.578125 40.53125 25.296875
Q 40.53125 35.640625 36.25 40.859375
Q 31.984375 46.09375 26.21875 46.09375
Q 20.515625 46.09375 16.53125 41.234375
Q 12.546875 36.375 12.546875 26.078125
z
" id="ArialMT-113"/>
      </defs>
      <g style="fill:#262626;" transform="translate(15.10515 204.015853)scale(0.1584 -0.1584)">
       <use xlink:href="#ArialMT-115"/>
       <use x="50" xlink:href="#ArialMT-101"/>
       <use x="105.615234" xlink:href="#ArialMT-113"/>
       <use x="161.230469" xlink:href="#ArialMT-117"/>
       <use x="216.845703" xlink:href="#ArialMT-101"/>
       <use x="272.460938" xlink:href="#ArialMT-110"/>
       <use x="328.076172" xlink:href="#ArialMT-99"/>
       <use x="378.076172" xlink:href="#ArialMT-101"/>
      </g>
     </g>
    </g>
    <g id="ytick_27">
     <g id="line2d_35">
      <g>
       <use style="fill:#262626;stroke:#262626;" x="90.9963" xlink:href="#m13345719a0" y="186.624478"/>
      </g>
     </g>
     <g id="text_31">
      <!-- gene -->
      <g style="fill:#262626;" transform="translate(48.5622 192.200653)scale(0.1584 -0.1584)">
       <use xlink:href="#ArialMT-103"/>
       <use x="55.615234" xlink:href="#ArialMT-101"/>
       <use x="111.230469" xlink:href="#ArialMT-110"/>
       <use x="166.845703" xlink:href="#ArialMT-101"/>
      </g>
     </g>
    </g>
    <g id="ytick_28">
     <g id="line2d_36">
      <g>
       <use style="fill:#262626;stroke:#262626;" x="90.9963" xlink:href="#m13345719a0" y="174.90209"/>
      </g>
     </g>
     <g id="text_32">
      <!-- set -->
      <g style="fill:#262626;" transform="translate(62.667225 180.571077)scale(0.1584 -0.1584)">
       <use xlink:href="#ArialMT-115"/>
       <use x="50" xlink:href="#ArialMT-101"/>
       <use x="105.615234" xlink:href="#ArialMT-116"/>
      </g>
     </g>
    </g>
    <g id="ytick_29">
     <g id="line2d_37">
      <g>
       <use style="fill:#262626;stroke:#262626;" x="90.9963" xlink:href="#m13345719a0" y="163.179701"/>
      </g>
     </g>
     <g id="text_33">
      <!-- model -->
      <g style="fill:#262626;" transform="translate(40.65705 168.848689)scale(0.1584 -0.1584)">
       <use xlink:href="#ArialMT-109"/>
       <use x="83.300781" xlink:href="#ArialMT-111"/>
       <use x="138.916016" xlink:href="#ArialMT-100"/>
       <use x="194.53125" xlink:href="#ArialMT-101"/>
       <use x="250.146484" xlink:href="#ArialMT-108"/>
      </g>
     </g>
    </g>
    <g id="ytick_30">
     <g id="line2d_38">
      <g>
       <use style="fill:#262626;stroke:#262626;" x="90.9963" xlink:href="#m13345719a0" y="151.457313"/>
      </g>
     </g>
     <g id="text_34">
      <!-- RNA -->
      <defs>
       <path d="M 7.859375 0
L 7.859375 71.578125
L 39.59375 71.578125
Q 49.171875 71.578125 54.140625 69.640625
Q 59.125 67.71875 62.109375 62.828125
Q 65.09375 57.953125 65.09375 52.046875
Q 65.09375 44.4375 60.15625 39.203125
Q 55.21875 33.984375 44.921875 32.5625
Q 48.6875 30.765625 50.640625 29
Q 54.78125 25.203125 58.5 19.484375
L 70.953125 0
L 59.03125 0
L 49.5625 14.890625
Q 45.40625 21.34375 42.71875 24.75
Q 40.046875 28.171875 37.921875 29.53125
Q 35.796875 30.90625 33.59375 31.453125
Q 31.984375 31.78125 28.328125 31.78125
L 17.328125 31.78125
L 17.328125 0
z
M 17.328125 39.984375
L 37.703125 39.984375
Q 44.1875 39.984375 47.84375 41.328125
Q 51.515625 42.671875 53.421875 45.625
Q 55.328125 48.578125 55.328125 52.046875
Q 55.328125 57.125 51.640625 60.390625
Q 47.953125 63.671875 39.984375 63.671875
L 17.328125 63.671875
z
" id="ArialMT-82"/>
       <path d="M 7.625 0
L 7.625 71.578125
L 17.328125 71.578125
L 54.9375 15.375
L 54.9375 71.578125
L 64.015625 71.578125
L 64.015625 0
L 54.296875 0
L 16.703125 56.25
L 16.703125 0
z
" id="ArialMT-78"/>
       <path d="M -0.140625 0
L 27.34375 71.578125
L 37.546875 71.578125
L 66.84375 0
L 56.0625 0
L 47.703125 21.6875
L 17.78125 21.6875
L 9.90625 0
z
M 20.515625 29.390625
L 44.78125 29.390625
L 37.3125 49.21875
Q 33.890625 58.25 32.234375 64.0625
Q 30.859375 57.171875 28.375 50.390625
z
" id="ArialMT-65"/>
      </defs>
      <g style="fill:#262626;" transform="translate(50.351625 157.126301)scale(0.1584 -0.1584)">
       <use xlink:href="#ArialMT-82"/>
       <use x="72.216797" xlink:href="#ArialMT-78"/>
       <use x="144.433594" xlink:href="#ArialMT-65"/>
      </g>
     </g>
    </g>
    <g id="ytick_31">
     <g id="line2d_39">
      <g>
       <use style="fill:#262626;stroke:#262626;" x="90.9963" xlink:href="#m13345719a0" y="139.734925"/>
      </g>
     </g>
     <g id="text_35">
      <!-- species -->
      <g style="fill:#262626;" transform="translate(30.091275 145.403913)scale(0.1584 -0.1584)">
       <use xlink:href="#ArialMT-115"/>
       <use x="50" xlink:href="#ArialMT-112"/>
       <use x="105.615234" xlink:href="#ArialMT-101"/>
       <use x="161.230469" xlink:href="#ArialMT-99"/>
       <use x="211.230469" xlink:href="#ArialMT-105"/>
       <use x="233.447266" xlink:href="#ArialMT-101"/>
       <use x="289.0625" xlink:href="#ArialMT-115"/>
      </g>
     </g>
    </g>
    <g id="ytick_32">
     <g id="line2d_40">
      <g>
       <use style="fill:#262626;stroke:#262626;" x="90.9963" xlink:href="#m13345719a0" y="128.012537"/>
      </g>
     </g>
     <g id="text_36">
      <!-- models -->
      <g style="fill:#262626;" transform="translate(32.73705 133.681525)scale(0.1584 -0.1584)">
       <use xlink:href="#ArialMT-109"/>
       <use x="83.300781" xlink:href="#ArialMT-111"/>
       <use x="138.916016" xlink:href="#ArialMT-100"/>
       <use x="194.53125" xlink:href="#ArialMT-101"/>
       <use x="250.146484" xlink:href="#ArialMT-108"/>
       <use x="272.363281" xlink:href="#ArialMT-115"/>
      </g>
     </g>
    </g>
    <g id="ytick_33">
     <g id="line2d_41">
      <g>
       <use style="fill:#262626;stroke:#262626;" x="90.9963" xlink:href="#m13345719a0" y="116.290149"/>
      </g>
     </g>
     <g id="text_37">
      <!-- single -->
      <g style="fill:#262626;" transform="translate(42.411825 121.959137)scale(0.1584 -0.1584)">
       <use xlink:href="#ArialMT-115"/>
       <use x="50" xlink:href="#ArialMT-105"/>
       <use x="72.216797" xlink:href="#ArialMT-110"/>
       <use x="127.832031" xlink:href="#ArialMT-103"/>
       <use x="183.447266" xlink:href="#ArialMT-108"/>
       <use x="205.664062" xlink:href="#ArialMT-101"/>
      </g>
     </g>
    </g>
    <g id="ytick_34">
     <g id="line2d_42">
      <g>
       <use style="fill:#262626;stroke:#262626;" x="90.9963" xlink:href="#m13345719a0" y="104.567761"/>
      </g>
     </g>
     <g id="text_38">
      <!-- genes -->
      <g style="fill:#262626;" transform="translate(40.6422 110.143936)scale(0.1584 -0.1584)">
       <use xlink:href="#ArialMT-103"/>
       <use x="55.615234" xlink:href="#ArialMT-101"/>
       <use x="111.230469" xlink:href="#ArialMT-110"/>
       <use x="166.845703" xlink:href="#ArialMT-101"/>
       <use x="222.460938" xlink:href="#ArialMT-115"/>
      </g>
     </g>
    </g>
    <g id="ytick_35">
     <g id="line2d_43">
      <g>
       <use style="fill:#262626;stroke:#262626;" x="90.9963" xlink:href="#m13345719a0" y="92.845373"/>
      </g>
     </g>
     <g id="text_39">
      <!-- et -->
      <g style="fill:#262626;" transform="translate(70.587225 98.514361)scale(0.1584 -0.1584)">
       <use xlink:href="#ArialMT-101"/>
       <use x="55.615234" xlink:href="#ArialMT-116"/>
      </g>
     </g>
    </g>
    <g id="ytick_36">
     <g id="line2d_44">
      <g>
       <use style="fill:#262626;stroke:#262626;" x="90.9963" xlink:href="#m13345719a0" y="81.122985"/>
      </g>
     </g>
     <g id="text_40">
      <!-- al -->
      <g style="fill:#262626;" transform="translate(71.468325 86.791973)scale(0.1584 -0.1584)">
       <use xlink:href="#ArialMT-97"/>
       <use x="55.615234" xlink:href="#ArialMT-108"/>
      </g>
     </g>
    </g>
    <g id="ytick_37">
     <g id="line2d_45">
      <g>
       <use style="fill:#262626;stroke:#262626;" x="90.9963" xlink:href="#m13345719a0" y="69.400597"/>
      </g>
     </g>
     <g id="text_41">
      <!-- regions -->
      <g style="fill:#262626;" transform="translate(31.848525 75.069585)scale(0.1584 -0.1584)">
       <use xlink:href="#ArialMT-114"/>
       <use x="33.300781" xlink:href="#ArialMT-101"/>
       <use x="88.916016" xlink:href="#ArialMT-103"/>
       <use x="144.53125" xlink:href="#ArialMT-105"/>
       <use x="166.748047" xlink:href="#ArialMT-111"/>
       <use x="222.363281" xlink:href="#ArialMT-110"/>
       <use x="277.978516" xlink:href="#ArialMT-115"/>
      </g>
     </g>
    </g>
    <g id="ytick_38">
     <g id="line2d_46">
      <g>
       <use style="fill:#262626;stroke:#262626;" x="90.9963" xlink:href="#m13345719a0" y="57.678209"/>
      </g>
     </g>
     <g id="text_42">
      <!-- genetic -->
      <g style="fill:#262626;" transform="translate(32.7222 63.347196)scale(0.1584 -0.1584)">
       <use xlink:href="#ArialMT-103"/>
       <use x="55.615234" xlink:href="#ArialMT-101"/>
       <use x="111.230469" xlink:href="#ArialMT-110"/>
       <use x="166.845703" xlink:href="#ArialMT-101"/>
       <use x="222.460938" xlink:href="#ArialMT-116"/>
       <use x="250.244141" xlink:href="#ArialMT-105"/>
       <use x="272.460938" xlink:href="#ArialMT-99"/>
      </g>
     </g>
    </g>
    <g id="ytick_39">
     <g id="line2d_47">
      <g>
       <use style="fill:#262626;stroke:#262626;" x="90.9963" xlink:href="#m13345719a0" y="45.955821"/>
      </g>
     </g>
     <g id="text_43">
      <!-- genome -->
      <g style="fill:#262626;" transform="translate(26.55945 51.531996)scale(0.1584 -0.1584)">
       <use xlink:href="#ArialMT-103"/>
       <use x="55.615234" xlink:href="#ArialMT-101"/>
       <use x="111.230469" xlink:href="#ArialMT-110"/>
       <use x="166.845703" xlink:href="#ArialMT-111"/>
       <use x="222.460938" xlink:href="#ArialMT-109"/>
       <use x="305.761719" xlink:href="#ArialMT-101"/>
      </g>
     </g>
    </g>
    <g id="ytick_40">
     <g id="line2d_48">
      <g>
       <use style="fill:#262626;stroke:#262626;" x="90.9963" xlink:href="#m13345719a0" y="34.233433"/>
      </g>
     </g>
     <g id="text_44">
      <!-- neurons -->
      <g style="fill:#262626;" transform="translate(26.55945 39.90242)scale(0.1584 -0.1584)">
       <use xlink:href="#ArialMT-110"/>
       <use x="55.615234" xlink:href="#ArialMT-101"/>
       <use x="111.230469" xlink:href="#ArialMT-117"/>
       <use x="166.845703" xlink:href="#ArialMT-114"/>
       <use x="200.146484" xlink:href="#ArialMT-111"/>
       <use x="255.761719" xlink:href="#ArialMT-110"/>
       <use x="311.376953" xlink:href="#ArialMT-115"/>
      </g>
     </g>
    </g>
   </g>
   <g id="PolyCollection_1">
    <path clip-path="url(#p34495008bc)" d="M 104.782664 496.681642
L 104.782664 486.131493
L 128.453484 486.131493
L 128.453484 496.681642
z
" style="fill:#253494;"/>
    <path clip-path="url(#p34495008bc)" d="M 104.782664 484.959254
L 104.782664 474.409104
L 113.167177 474.409104
L 113.167177 484.959254
z
" style="fill:#253494;"/>
    <path clip-path="url(#p34495008bc)" d="M 104.782664 473.236866
L 104.782664 462.686716
L 127.764447 462.686716
L 127.764447 473.236866
z
" style="fill:#253494;"/>
    <path clip-path="url(#p34495008bc)" d="M 104.782664 461.514478
L 104.782664 450.964328
L 117.656948 450.964328
L 117.656948 461.514478
z
" style="fill:#253494;"/>
    <path clip-path="url(#p34495008bc)" d="M 104.782664 449.79209
L 104.782664 439.24194
L 119.510545 439.24194
L 119.510545 449.79209
z
" style="fill:#253494;"/>
    <path clip-path="url(#p34495008bc)" d="M 104.782664 438.069701
L 104.782664 427.519552
L 119.29265 427.519552
L 119.29265 438.069701
z
" style="fill:#253494;"/>
    <path clip-path="url(#p34495008bc)" d="M 104.782664 426.347313
L 104.782664 415.797164
L 136.348085 415.797164
L 136.348085 426.347313
z
" style="fill:#253494;"/>
    <path clip-path="url(#p34495008bc)" d="M 104.782664 414.624925
L 104.782664 404.074776
L 174.112184 404.074776
L 174.112184 414.624925
z
" style="fill:#253494;"/>
    <path clip-path="url(#p34495008bc)" d="M 104.782664 402.902537
L 104.782664 392.352388
L 143.96144 392.352388
L 143.96144 402.902537
z
" style="fill:#253494;"/>
    <path clip-path="url(#p34495008bc)" d="M 104.782664 391.180149
L 104.782664 380.63
L 129.014568 380.63
L 129.014568 391.180149
z
" style="fill:#253494;"/>
    <path clip-path="url(#p34495008bc)" d="M 104.782664 379.457761
L 104.782664 368.907612
L 133.6678 368.907612
L 133.6678 379.457761
z
" style="fill:#253494;"/>
    <path clip-path="url(#p34495008bc)" d="M 104.782664 367.735373
L 104.782664 357.185224
L 131.885844 357.185224
L 131.885844 367.735373
z
" style="fill:#253494;"/>
    <path clip-path="url(#p34495008bc)" d="M 104.782664 356.012985
L 104.782664 345.462836
L 130.82906 345.462836
L 130.82906 356.012985
z
" style="fill:#253494;"/>
    <path clip-path="url(#p34495008bc)" d="M 104.782664 344.290597
L 104.782664 333.740448
L 137.798427 333.740448
L 137.798427 344.290597
z
" style="fill:#253494;"/>
    <path clip-path="url(#p34495008bc)" d="M 104.782664 332.568209
L 104.782664 322.01806
L 129.46037 322.01806
L 129.46037 332.568209
z
" style="fill:#253494;"/>
    <path clip-path="url(#p34495008bc)" d="M 104.782664 320.845821
L 104.782664 310.295672
L 127.348052 310.295672
L 127.348052 320.845821
z
" style="fill:#253494;"/>
    <path clip-path="url(#p34495008bc)" d="M 104.782664 309.123433
L 104.782664 298.573284
L 131.366837 298.573284
L 131.366837 309.123433
z
" style="fill:#253494;"/>
    <path clip-path="url(#p34495008bc)" d="M 104.782664 297.401045
L 104.782664 286.850896
L 129.274698 286.850896
L 129.274698 297.401045
z
" style="fill:#253494;"/>
    <path clip-path="url(#p34495008bc)" d="M 104.782664 285.678657
L 104.782664 275.128507
L 149.454187 275.128507
L 149.454187 285.678657
z
" style="fill:#253494;"/>
    <path clip-path="url(#p34495008bc)" d="M 104.782664 273.956269
L 104.782664 263.406119
L 155.52147 263.406119
L 155.52147 273.956269
z
" style="fill:#253494;"/>
    <path clip-path="url(#p34495008bc)" d="M 104.782664 262.233881
L 104.782664 251.683731
L 154.209718 251.683731
L 154.209718 262.233881
z
" style="fill:#253494;"/>
    <path clip-path="url(#p34495008bc)" d="M 104.782664 250.511493
L 104.782664 239.961343
L 147.763268 239.961343
L 147.763268 250.511493
z
" style="fill:#253494;"/>
    <path clip-path="url(#p34495008bc)" d="M 104.782664 238.789104
L 104.782664 228.238955
L 266.180408 228.238955
L 266.180408 238.789104
z
" style="fill:#253494;"/>
    <path clip-path="url(#p34495008bc)" d="M 104.782664 227.066716
L 104.782664 216.516567
L 142.086726 216.516567
L 142.086726 227.066716
z
" style="fill:#253494;"/>
    <path clip-path="url(#p34495008bc)" d="M 104.782664 215.344328
L 104.782664 204.794179
L 142.951582 204.794179
L 142.951582 215.344328
z
" style="fill:#253494;"/>
    <path clip-path="url(#p34495008bc)" d="M 104.782664 203.62194
L 104.782664 193.071791
L 148.454809 193.071791
L 148.454809 203.62194
z
" style="fill:#253494;"/>
    <path clip-path="url(#p34495008bc)" d="M 104.782664 191.899552
L 104.782664 181.349403
L 206.353503 181.349403
L 206.353503 191.899552
z
" style="fill:#253494;"/>
    <path clip-path="url(#p34495008bc)" d="M 104.782664 180.177164
L 104.782664 169.627015
L 153.560568 169.627015
L 153.560568 180.177164
z
" style="fill:#253494;"/>
    <path clip-path="url(#p34495008bc)" d="M 104.782664 168.454776
L 104.782664 157.904627
L 218.989714 157.904627
L 218.989714 168.454776
z
" style="fill:#253494;"/>
    <path clip-path="url(#p34495008bc)" d="M 104.782664 156.732388
L 104.782664 146.182239
L 148.592303 146.182239
L 148.592303 156.732388
z
" style="fill:#253494;"/>
    <path clip-path="url(#p34495008bc)" d="M 104.782664 145.01
L 104.782664 134.459851
L 171.053046 134.459851
L 171.053046 145.01
z
" style="fill:#253494;"/>
    <path clip-path="url(#p34495008bc)" d="M 104.782664 133.287612
L 104.782664 122.737463
L 149.327954 122.737463
L 149.327954 133.287612
z
" style="fill:#253494;"/>
    <path clip-path="url(#p34495008bc)" d="M 104.782664 121.565224
L 104.782664 111.015075
L 160.598917 111.015075
L 160.598917 121.565224
z
" style="fill:#253494;"/>
    <path clip-path="url(#p34495008bc)" d="M 104.782664 109.842836
L 104.782664 99.292687
L 214.720967 99.292687
L 214.720967 109.842836
z
" style="fill:#253494;"/>
    <path clip-path="url(#p34495008bc)" d="M 104.782664 98.120448
L 104.782664 87.570299
L 380.509936 87.570299
L 380.509936 98.120448
z
" style="fill:#253494;"/>
    <path clip-path="url(#p34495008bc)" d="M 104.782664 86.39806
L 104.782664 75.84791
L 379.195056 75.84791
L 379.195056 86.39806
z
" style="fill:#253494;"/>
    <path clip-path="url(#p34495008bc)" d="M 104.782664 74.675672
L 104.782664 64.125522
L 148.052179 64.125522
L 148.052179 74.675672
z
" style="fill:#253494;"/>
    <path clip-path="url(#p34495008bc)" d="M 104.782664 62.953284
L 104.782664 52.403134
L 143.280536 52.403134
L 143.280536 62.953284
z
" style="fill:#253494;"/>
    <path clip-path="url(#p34495008bc)" d="M 104.782664 51.230896
L 104.782664 40.680746
L 153.359253 40.680746
L 153.359253 51.230896
z
" style="fill:#253494;"/>
    <path clip-path="url(#p34495008bc)" d="M 104.782664 39.508507
L 104.782664 28.958358
L 143.211242 28.958358
L 143.211242 39.508507
z
" style="fill:#253494;"/>
   </g>
   <g id="patch_3">
    <path d="M 90.9963 27.2
L 394.2963 27.2
L 394.2963 7.2
L 90.9963 7.2
z
" style="fill:#ffffff;"/>
   </g>
   <g id="patch_4">
    <path d="M 90.9963 498.44
L 90.9963 27.2
" style="fill:none;stroke:#262626;stroke-linecap:square;stroke-linejoin:miter;"/>
   </g>
   <g id="patch_5">
    <path d="M 394.2963 498.44
L 394.2963 27.2
" style="fill:none;stroke:#262626;stroke-linecap:square;stroke-linejoin:miter;"/>
   </g>
   <g id="patch_6">
    <path d="M 90.9963 498.44
L 394.2963 498.44
" style="fill:none;stroke:#262626;stroke-linecap:square;stroke-linejoin:miter;"/>
   </g>
   <g id="patch_7">
    <path d="M 90.9963 27.2
L 394.2963 27.2
" style="fill:none;stroke:#262626;stroke-linecap:square;stroke-linejoin:miter;"/>
   </g>
   <g id="text_45">
    <!-- bioRxiv -->
    <defs>
     <path d="M 0.734375 0
L 19.671875 26.953125
L 2.15625 51.859375
L 13.140625 51.859375
L 21.09375 39.703125
Q 23.34375 36.234375 24.703125 33.890625
Q 26.859375 37.109375 28.65625 39.59375
L 37.40625 51.859375
L 47.90625 51.859375
L 29.984375 27.4375
L 49.265625 0
L 38.484375 0
L 27.828125 16.109375
L 25 20.453125
L 11.375 0
z
" id="ArialMT-120"/>
    </defs>
    <g style="fill:#262626;" transform="translate(219.69505 20.819219)scale(0.14 -0.14)">
     <use xlink:href="#ArialMT-98"/>
     <use x="55.615234" xlink:href="#ArialMT-105"/>
     <use x="77.832031" xlink:href="#ArialMT-111"/>
     <use x="133.447266" xlink:href="#ArialMT-82"/>
     <use x="205.664062" xlink:href="#ArialMT-120"/>
     <use x="255.664062" xlink:href="#ArialMT-105"/>
     <use x="277.880859" xlink:href="#ArialMT-118"/>
    </g>
   </g>
  </g>
  <g id="axes_2">
   <g id="patch_8">
    <path d="M 401.4963 498.44
L 704.7963 498.44
L 704.7963 27.2
L 401.4963 27.2
z
" style="fill:#ffffff;"/>
   </g>
   <g id="matplotlib.axis_3">
    <g id="xtick_9">
     <g id="line2d_49">
      <g>
       <use style="fill:#262626;stroke:#262626;" x="415.282664" xlink:href="#ma538d5814b" y="498.44"/>
      </g>
     </g>
     <g id="text_46">
      <!-- 0 -->
      <g style="fill:#262626;" transform="translate(411.946101 514.229375)scale(0.12 -0.12)">
       <use xlink:href="#ArialMT-48"/>
      </g>
     </g>
    </g>
    <g id="xtick_10">
     <g id="line2d_50">
      <g>
       <use style="fill:#262626;stroke:#262626;" x="483.194333" xlink:href="#ma538d5814b" y="498.44"/>
      </g>
     </g>
     <g id="text_47">
      <!-- 5e+06 -->
      <g style="fill:#262626;" transform="translate(466.343708 514.229375)scale(0.12 -0.12)">
       <use xlink:href="#ArialMT-53"/>
       <use x="55.615234" xlink:href="#ArialMT-101"/>
       <use x="111.230469" xlink:href="#ArialMT-43"/>
       <use x="169.628906" xlink:href="#ArialMT-48"/>
       <use x="225.244141" xlink:href="#ArialMT-54"/>
      </g>
     </g>
    </g>
    <g id="xtick_11">
     <g id="line2d_51">
      <g>
       <use style="fill:#262626;stroke:#262626;" x="551.106003" xlink:href="#ma538d5814b" y="498.44"/>
      </g>
     </g>
     <g id="text_48">
      <!-- 1e+07 -->
      <defs>
       <path d="M 4.734375 62.203125
L 4.734375 70.65625
L 51.078125 70.65625
L 51.078125 63.8125
Q 44.234375 56.546875 37.515625 44.484375
Q 30.8125 32.421875 27.15625 19.671875
Q 24.515625 10.6875 23.78125 0
L 14.75 0
Q 14.890625 8.453125 18.0625 20.40625
Q 21.234375 32.375 27.171875 43.484375
Q 33.109375 54.59375 39.796875 62.203125
z
" id="ArialMT-55"/>
      </defs>
      <g style="fill:#262626;" transform="translate(534.255378 514.229375)scale(0.12 -0.12)">
       <use xlink:href="#ArialMT-49"/>
       <use x="55.615234" xlink:href="#ArialMT-101"/>
       <use x="111.230469" xlink:href="#ArialMT-43"/>
       <use x="169.628906" xlink:href="#ArialMT-48"/>
       <use x="225.244141" xlink:href="#ArialMT-55"/>
      </g>
     </g>
    </g>
    <g id="xtick_12">
     <g id="line2d_52">
      <g>
       <use style="fill:#262626;stroke:#262626;" x="619.017672" xlink:href="#ma538d5814b" y="498.44"/>
      </g>
     </g>
     <g id="text_49">
      <!-- 2e+07 -->
      <g style="fill:#262626;" transform="translate(602.167047 514.229375)scale(0.12 -0.12)">
       <use xlink:href="#ArialMT-50"/>
       <use x="55.615234" xlink:href="#ArialMT-101"/>
       <use x="111.230469" xlink:href="#ArialMT-43"/>
       <use x="169.628906" xlink:href="#ArialMT-48"/>
       <use x="225.244141" xlink:href="#ArialMT-55"/>
      </g>
     </g>
    </g>
    <g id="xtick_13">
     <g id="line2d_53">
      <g>
       <use style="fill:#262626;stroke:#262626;" x="686.929341" xlink:href="#ma538d5814b" y="498.44"/>
      </g>
     </g>
     <g id="text_50">
      <!-- 2e+07 -->
      <g style="fill:#262626;" transform="translate(670.078716 514.229375)scale(0.12 -0.12)">
       <use xlink:href="#ArialMT-50"/>
       <use x="55.615234" xlink:href="#ArialMT-101"/>
       <use x="111.230469" xlink:href="#ArialMT-43"/>
       <use x="169.628906" xlink:href="#ArialMT-48"/>
       <use x="225.244141" xlink:href="#ArialMT-55"/>
      </g>
     </g>
    </g>
    <g id="xtick_14">
     <g id="line2d_54">
      <g>
       <use style="fill:#262626;stroke:#262626;stroke-width:0.8;" x="449.238498" xlink:href="#m06c68c172a" y="498.44"/>
      </g>
     </g>
    </g>
    <g id="xtick_15">
     <g id="line2d_55">
      <g>
       <use style="fill:#262626;stroke:#262626;stroke-width:0.8;" x="517.150168" xlink:href="#m06c68c172a" y="498.44"/>
      </g>
     </g>
    </g>
    <g id="xtick_16">
     <g id="line2d_56">
      <g>
       <use style="fill:#262626;stroke:#262626;stroke-width:0.8;" x="585.061837" xlink:href="#m06c68c172a" y="498.44"/>
      </g>
     </g>
    </g>
    <g id="xtick_17">
     <g id="line2d_57">
      <g>
       <use style="fill:#262626;stroke:#262626;stroke-width:0.8;" x="652.973507" xlink:href="#m06c68c172a" y="498.44"/>
      </g>
     </g>
    </g>
    <g id="text_51">
     <!-- count -->
     <g style="fill:#262626;" transform="translate(370.873644 531.635312)scale(0.14 -0.14)">
      <use xlink:href="#ArialMT-99"/>
      <use x="50" xlink:href="#ArialMT-111"/>
      <use x="105.615234" xlink:href="#ArialMT-117"/>
      <use x="161.230469" xlink:href="#ArialMT-110"/>
      <use x="216.845703" xlink:href="#ArialMT-116"/>
     </g>
    </g>
   </g>
   <g id="matplotlib.axis_4">
    <g id="ytick_41"/>
    <g id="ytick_42"/>
    <g id="ytick_43"/>
    <g id="ytick_44"/>
    <g id="ytick_45"/>
    <g id="ytick_46"/>
    <g id="ytick_47"/>
    <g id="ytick_48"/>
    <g id="ytick_49"/>
    <g id="ytick_50"/>
    <g id="ytick_51"/>
    <g id="ytick_52"/>
    <g id="ytick_53"/>
    <g id="ytick_54"/>
    <g id="ytick_55"/>
    <g id="ytick_56"/>
    <g id="ytick_57"/>
    <g id="ytick_58"/>
    <g id="ytick_59"/>
    <g id="ytick_60"/>
    <g id="ytick_61"/>
    <g id="ytick_62"/>
    <g id="ytick_63"/>
    <g id="ytick_64"/>
    <g id="ytick_65"/>
    <g id="ytick_66"/>
    <g id="ytick_67"/>
    <g id="ytick_68"/>
    <g id="ytick_69"/>
    <g id="ytick_70"/>
    <g id="ytick_71"/>
    <g id="ytick_72"/>
    <g id="ytick_73"/>
    <g id="ytick_74"/>
    <g id="ytick_75"/>
    <g id="ytick_76"/>
    <g id="ytick_77"/>
    <g id="ytick_78"/>
    <g id="ytick_79"/>
    <g id="ytick_80"/>
   </g>
   <g id="PolyCollection_2">
    <path clip-path="url(#p4fc3ba9c9f)" d="M 415.282664 496.681642
L 415.282664 486.131493
L 663.33877 486.131493
L 663.33877 496.681642
z
" style="fill:#253494;"/>
    <path clip-path="url(#p4fc3ba9c9f)" d="M 415.282664 484.959254
L 415.282664 474.409104
L 502.108208 474.409104
L 502.108208 484.959254
z
" style="fill:#253494;"/>
    <path clip-path="url(#p4fc3ba9c9f)" d="M 415.282664 473.236866
L 415.282664 462.686716
L 564.915922 462.686716
L 564.915922 473.236866
z
" style="fill:#253494;"/>
    <path clip-path="url(#p4fc3ba9c9f)" d="M 415.282664 461.514478
L 415.282664 450.964328
L 481.771489 450.964328
L 481.771489 461.514478
z
" style="fill:#253494;"/>
    <path clip-path="url(#p4fc3ba9c9f)" d="M 415.282664 449.79209
L 415.282664 439.24194
L 487.789617 439.24194
L 487.789617 449.79209
z
" style="fill:#253494;"/>
    <path clip-path="url(#p4fc3ba9c9f)" d="M 415.282664 438.069701
L 415.282664 427.519552
L 485.739391 427.519552
L 485.739391 438.069701
z
" style="fill:#253494;"/>
    <path clip-path="url(#p4fc3ba9c9f)" d="M 415.282664 426.347313
L 415.282664 415.797164
L 542.850157 415.797164
L 542.850157 426.347313
z
" style="fill:#253494;"/>
    <path clip-path="url(#p4fc3ba9c9f)" d="M 415.282664 414.624925
L 415.282664 404.074776
L 691.009936 404.074776
L 691.009936 414.624925
z
" style="fill:#253494;"/>
    <path clip-path="url(#p4fc3ba9c9f)" d="M 415.282664 402.902537
L 415.282664 392.352388
L 567.203269 392.352388
L 567.203269 402.902537
z
" style="fill:#253494;"/>
    <path clip-path="url(#p4fc3ba9c9f)" d="M 415.282664 391.180149
L 415.282664 380.63
L 494.476051 380.63
L 494.476051 391.180149
z
" style="fill:#253494;"/>
    <path clip-path="url(#p4fc3ba9c9f)" d="M 415.282664 379.457761
L 415.282664 368.907612
L 509.245535 368.907612
L 509.245535 379.457761
z
" style="fill:#253494;"/>
    <path clip-path="url(#p4fc3ba9c9f)" d="M 415.282664 367.735373
L 415.282664 357.185224
L 501.318966 357.185224
L 501.318966 367.735373
z
" style="fill:#253494;"/>
    <path clip-path="url(#p4fc3ba9c9f)" d="M 415.282664 356.012985
L 415.282664 345.462836
L 497.495716 345.462836
L 497.495716 356.012985
z
" style="fill:#253494;"/>
    <path clip-path="url(#p4fc3ba9c9f)" d="M 415.282664 344.290597
L 415.282664 333.740448
L 518.709963 333.740448
L 518.709963 344.290597
z
" style="fill:#253494;"/>
    <path clip-path="url(#p4fc3ba9c9f)" d="M 415.282664 332.568209
L 415.282664 322.01806
L 492.117342 322.01806
L 492.117342 332.568209
z
" style="fill:#253494;"/>
    <path clip-path="url(#p4fc3ba9c9f)" d="M 415.282664 320.845821
L 415.282664 310.295672
L 482.478313 310.295672
L 482.478313 320.845821
z
" style="fill:#253494;"/>
    <path clip-path="url(#p4fc3ba9c9f)" d="M 415.282664 309.123433
L 415.282664 298.573284
L 493.426815 298.573284
L 493.426815 309.123433
z
" style="fill:#253494;"/>
    <path clip-path="url(#p4fc3ba9c9f)" d="M 415.282664 297.401045
L 415.282664 286.850896
L 484.415439 286.850896
L 484.415439 297.401045
z
" style="fill:#253494;"/>
    <path clip-path="url(#p4fc3ba9c9f)" d="M 415.282664 285.678657
L 415.282664 275.128507
L 536.316593 275.128507
L 536.316593 285.678657
z
" style="fill:#253494;"/>
    <path clip-path="url(#p4fc3ba9c9f)" d="M 415.282664 273.956269
L 415.282664 263.406119
L 541.8488 263.406119
L 541.8488 273.956269
z
" style="fill:#253494;"/>
    <path clip-path="url(#p4fc3ba9c9f)" d="M 415.282664 262.233881
L 415.282664 251.683731
L 475.208138 251.683731
L 475.208138 262.233881
z
" style="fill:#253494;"/>
    <path clip-path="url(#p4fc3ba9c9f)" d="M 415.282664 250.511493
L 415.282664 239.961343
L 465.611418 239.961343
L 465.611418 250.511493
z
" style="fill:#253494;"/>
    <path clip-path="url(#p4fc3ba9c9f)" d="M 415.282664 238.789104
L 415.282664 228.238955
L 596.067358 228.238955
L 596.067358 238.789104
z
" style="fill:#253494;"/>
    <path clip-path="url(#p4fc3ba9c9f)" d="M 415.282664 227.066716
L 415.282664 216.516567
L 455.164769 216.516567
L 455.164769 227.066716
z
" style="fill:#253494;"/>
    <path clip-path="url(#p4fc3ba9c9f)" d="M 415.282664 215.344328
L 415.282664 204.794179
L 454.723303 204.794179
L 454.723303 215.344328
z
" style="fill:#253494;"/>
    <path clip-path="url(#p4fc3ba9c9f)" d="M 415.282664 203.62194
L 415.282664 193.071791
L 458.897589 193.071791
L 458.897589 203.62194
z
" style="fill:#253494;"/>
    <path clip-path="url(#p4fc3ba9c9f)" d="M 415.282664 191.899552
L 415.282664 181.349403
L 516.113374 181.349403
L 516.113374 191.899552
z
" style="fill:#253494;"/>
    <path clip-path="url(#p4fc3ba9c9f)" d="M 415.282664 180.177164
L 415.282664 169.627015
L 462.856635 169.627015
L 462.856635 180.177164
z
" style="fill:#253494;"/>
    <path clip-path="url(#p4fc3ba9c9f)" d="M 415.282664 168.454776
L 415.282664 157.904627
L 525.797605 157.904627
L 525.797605 168.454776
z
" style="fill:#253494;"/>
    <path clip-path="url(#p4fc3ba9c9f)" d="M 415.282664 156.732388
L 415.282664 146.182239
L 457.026079 146.182239
L 457.026079 156.732388
z
" style="fill:#253494;"/>
    <path clip-path="url(#p4fc3ba9c9f)" d="M 415.282664 145.01
L 415.282664 134.459851
L 478.203111 134.459851
L 478.203111 145.01
z
" style="fill:#253494;"/>
    <path clip-path="url(#p4fc3ba9c9f)" d="M 415.282664 133.287612
L 415.282664 122.737463
L 457.031118 122.737463
L 457.031118 133.287612
z
" style="fill:#253494;"/>
    <path clip-path="url(#p4fc3ba9c9f)" d="M 415.282664 121.565224
L 415.282664 111.015075
L 467.137515 111.015075
L 467.137515 121.565224
z
" style="fill:#253494;"/>
    <path clip-path="url(#p4fc3ba9c9f)" d="M 415.282664 109.842836
L 415.282664 99.292687
L 514.921565 99.292687
L 514.921565 109.842836
z
" style="fill:#253494;"/>
    <path clip-path="url(#p4fc3ba9c9f)" d="M 415.282664 98.120448
L 415.282664 87.570299
L 661.399878 87.570299
L 661.399878 98.120448
z
" style="fill:#253494;"/>
    <path clip-path="url(#p4fc3ba9c9f)" d="M 415.282664 86.39806
L 415.282664 75.84791
L 652.319667 75.84791
L 652.319667 86.39806
z
" style="fill:#253494;"/>
    <path clip-path="url(#p4fc3ba9c9f)" d="M 415.282664 74.675672
L 415.282664 64.125522
L 450.776127 64.125522
L 450.776127 74.675672
z
" style="fill:#253494;"/>
    <path clip-path="url(#p4fc3ba9c9f)" d="M 415.282664 62.953284
L 415.282664 52.403134
L 445.069904 52.403134
L 445.069904 62.953284
z
" style="fill:#253494;"/>
    <path clip-path="url(#p4fc3ba9c9f)" d="M 415.282664 51.230896
L 415.282664 40.680746
L 444.585829 40.680746
L 444.585829 51.230896
z
" style="fill:#253494;"/>
    <path clip-path="url(#p4fc3ba9c9f)" d="M 415.282664 39.508507
L 415.282664 28.958358
L 437.400462 28.958358
L 437.400462 39.508507
z
" style="fill:#253494;"/>
   </g>
   <g id="patch_9">
    <path d="M 401.4963 27.2
L 704.7963 27.2
L 704.7963 7.2
L 401.4963 7.2
z
" style="fill:#ffffff;"/>
   </g>
   <g id="patch_10">
    <path d="M 401.4963 498.44
L 401.4963 27.2
" style="fill:none;stroke:#262626;stroke-linecap:square;stroke-linejoin:miter;"/>
   </g>
   <g id="patch_11">
    <path d="M 704.7963 498.44
L 704.7963 27.2
" style="fill:none;stroke:#262626;stroke-linecap:square;stroke-linejoin:miter;"/>
   </g>
   <g id="patch_12">
    <path d="M 401.4963 498.44
L 704.7963 498.44
" style="fill:none;stroke:#262626;stroke-linecap:square;stroke-linejoin:miter;"/>
   </g>
   <g id="patch_13">
    <path d="M 401.4963 27.2
L 704.7963 27.2
" style="fill:none;stroke:#262626;stroke-linecap:square;stroke-linejoin:miter;"/>
   </g>
   <g id="text_52">
    <!-- PMC -->
    <defs>
     <path d="M 7.71875 0
L 7.71875 71.578125
L 34.71875 71.578125
Q 41.84375 71.578125 45.609375 70.90625
Q 50.875 70.015625 54.4375 67.546875
Q 58.015625 65.09375 60.1875 60.640625
Q 62.359375 56.203125 62.359375 50.875
Q 62.359375 41.75 56.546875 35.421875
Q 50.734375 29.109375 35.546875 29.109375
L 17.1875 29.109375
L 17.1875 0
z
M 17.1875 37.546875
L 35.6875 37.546875
Q 44.875 37.546875 48.734375 40.96875
Q 52.59375 44.390625 52.59375 50.59375
Q 52.59375 55.078125 50.3125 58.265625
Q 48.046875 61.46875 44.34375 62.5
Q 41.9375 63.140625 35.5 63.140625
L 17.1875 63.140625
z
" id="ArialMT-80"/>
     <path d="M 7.421875 0
L 7.421875 71.578125
L 21.6875 71.578125
L 38.625 20.90625
Q 40.96875 13.8125 42.046875 10.296875
Q 43.265625 14.203125 45.84375 21.78125
L 62.984375 71.578125
L 75.734375 71.578125
L 75.734375 0
L 66.609375 0
L 66.609375 59.90625
L 45.796875 0
L 37.25 0
L 16.546875 60.9375
L 16.546875 0
z
" id="ArialMT-77"/>
     <path d="M 58.796875 25.09375
L 68.265625 22.703125
Q 65.28125 11.03125 57.546875 4.90625
Q 49.8125 -1.21875 38.625 -1.21875
Q 27.046875 -1.21875 19.796875 3.484375
Q 12.546875 8.203125 8.765625 17.140625
Q 4.984375 26.078125 4.984375 36.328125
Q 4.984375 47.515625 9.25 55.828125
Q 13.53125 64.15625 21.40625 68.46875
Q 29.296875 72.796875 38.765625 72.796875
Q 49.515625 72.796875 56.828125 67.328125
Q 64.15625 61.859375 67.046875 51.953125
L 57.71875 49.75
Q 55.21875 57.5625 50.484375 61.125
Q 45.75 64.703125 38.578125 64.703125
Q 30.328125 64.703125 24.78125 60.734375
Q 19.234375 56.78125 16.984375 50.109375
Q 14.75 43.453125 14.75 36.375
Q 14.75 27.25 17.40625 20.4375
Q 20.0625 13.625 25.671875 10.25
Q 31.296875 6.890625 37.84375 6.890625
Q 45.796875 6.890625 51.3125 11.46875
Q 56.84375 16.0625 58.796875 25.09375
z
" id="ArialMT-67"/>
    </defs>
    <g style="fill:#262626;" transform="translate(537.590988 20.819219)scale(0.14 -0.14)">
     <use xlink:href="#ArialMT-80"/>
     <use x="66.699219" xlink:href="#ArialMT-77"/>
     <use x="150" xlink:href="#ArialMT-67"/>
    </g>
   </g>
  </g>
 </g>
 <defs>
  <clipPath id="p34495008bc">
   <rect height="471.24" width="303.3" x="90.9963" y="27.2"/>
  </clipPath>
  <clipPath id="p4fc3ba9c9f">
   <rect height="471.24" width="303.3" x="401.4963" y="27.2"/>
  </clipPath>
 </defs>
</svg>
