<?xml version="1.0" encoding="utf-8" standalone="no"?>
<!DOCTYPE svg PUBLIC "-//W3C//DTD SVG 1.1//EN"
  "http://www.w3.org/Graphics/SVG/1.1/DTD/svg11.dtd">
<!-- Created with matplotlib (https://matplotlib.org/) -->
<svg height="638.468725pt" version="1.1" viewBox="0 0 873.535304 638.468725" width="873.535304pt" xmlns="http://www.w3.org/2000/svg" xmlns:xlink="http://www.w3.org/1999/xlink">
 <defs>
  <style type="text/css">
*{stroke-linecap:butt;stroke-linejoin:round;}
  </style>
 </defs>
 <g id="figure_1">
  <g id="patch_1">
   <path d="M 0 638.468725 
L 873.535304 638.468725 
L 873.535304 0 
L 0 0 
z
" style="fill:#ffffff;"/>
  </g>
  <g id="axes_1">
   <g id="patch_2">
    <path d="M 97.509375 593.9056 
L 474.837375 593.9056 
L 474.837375 26.2 
L 97.509375 26.2 
z
" style="fill:#eaeaf2;"/>
   </g>
   <g id="matplotlib.axis_1">
    <g id="xtick_1">
     <g id="line2d_1">
      <path clip-path="url(#p1582059e06)" d="M 114.660648 593.9056 
L 114.660648 26.2 
" style="fill:none;stroke:#ffffff;stroke-linecap:round;stroke-width:0.8;"/>
     </g>
     <g id="line2d_2">
      <defs>
       <path d="M 0 0 
L 0 4.8 
" id="m0718b27ce3" style="stroke:#262626;"/>
      </defs>
      <g>
       <use style="fill:#262626;stroke:#262626;" x="114.660648" xlink:href="#m0718b27ce3" y="593.9056"/>
      </g>
     </g>
     <g id="text_1">
      <!-- 0 -->
      <defs>
       <path d="M 46 36.53125 
Q 46 50.203125 43.4375 55.78125 
Q 40.875 61.375 34.8125 61.375 
Q 28.765625 61.375 26.171875 55.78125 
Q 23.578125 50.203125 23.578125 36.53125 
Q 23.578125 22.703125 26.171875 17.03125 
Q 28.765625 11.375 34.8125 11.375 
Q 40.828125 11.375 43.40625 17.03125 
Q 46 22.703125 46 36.53125 
z
M 64.796875 36.375 
Q 64.796875 18.265625 56.984375 8.421875 
Q 49.171875 -1.421875 34.8125 -1.421875 
Q 20.40625 -1.421875 12.59375 8.421875 
Q 4.78125 18.265625 4.78125 36.375 
Q 4.78125 54.546875 12.59375 64.375 
Q 20.40625 74.21875 34.8125 74.21875 
Q 49.171875 74.21875 56.984375 64.375 
Q 64.796875 54.546875 64.796875 36.375 
z
" id="DejaVuSans-Bold-48"/>
      </defs>
      <g style="fill:#262626;" transform="translate(110.833851 609.463881)scale(0.11 -0.11)">
       <use xlink:href="#DejaVuSans-Bold-48"/>
      </g>
     </g>
    </g>
    <g id="xtick_2">
     <g id="line2d_3">
      <path clip-path="url(#p1582059e06)" d="M 211.955996 593.9056 
L 211.955996 26.2 
" style="fill:none;stroke:#ffffff;stroke-linecap:round;stroke-width:0.8;"/>
     </g>
     <g id="line2d_4">
      <g>
       <use style="fill:#262626;stroke:#262626;" x="211.955996" xlink:href="#m0718b27ce3" y="593.9056"/>
      </g>
     </g>
     <g id="text_2">
      <!-- 500,000 -->
      <defs>
       <path d="M 10.59375 72.90625 
L 57.328125 72.90625 
L 57.328125 59.078125 
L 25.59375 59.078125 
L 25.59375 47.796875 
Q 27.734375 48.390625 29.90625 48.703125 
Q 32.078125 49.03125 34.421875 49.03125 
Q 47.75 49.03125 55.171875 42.359375 
Q 62.59375 35.6875 62.59375 23.78125 
Q 62.59375 11.96875 54.515625 5.265625 
Q 46.4375 -1.421875 32.078125 -1.421875 
Q 25.875 -1.421875 19.796875 -0.21875 
Q 13.71875 0.984375 7.71875 3.421875 
L 7.71875 18.21875 
Q 13.671875 14.796875 19.015625 13.078125 
Q 24.359375 11.375 29.109375 11.375 
Q 35.9375 11.375 39.859375 14.71875 
Q 43.796875 18.0625 43.796875 23.78125 
Q 43.796875 29.546875 39.859375 32.859375 
Q 35.9375 36.1875 29.109375 36.1875 
Q 25.046875 36.1875 20.453125 35.125 
Q 15.875 34.078125 10.59375 31.890625 
z
" id="DejaVuSans-Bold-53"/>
       <path d="M 10.203125 18.890625 
L 27.78125 18.890625 
L 27.78125 4 
L 15.71875 -14.203125 
L 5.328125 -14.203125 
L 10.203125 4 
z
" id="DejaVuSans-Bold-44"/>
      </defs>
      <g style="fill:#262626;" transform="translate(186.906075 609.463881)scale(0.11 -0.11)">
       <use xlink:href="#DejaVuSans-Bold-53"/>
       <use x="69.580078" xlink:href="#DejaVuSans-Bold-48"/>
       <use x="139.160156" xlink:href="#DejaVuSans-Bold-48"/>
       <use x="208.740234" xlink:href="#DejaVuSans-Bold-44"/>
       <use x="246.728516" xlink:href="#DejaVuSans-Bold-48"/>
       <use x="316.308594" xlink:href="#DejaVuSans-Bold-48"/>
       <use x="385.888672" xlink:href="#DejaVuSans-Bold-48"/>
      </g>
     </g>
    </g>
    <g id="xtick_3">
     <g id="line2d_5">
      <path clip-path="url(#p1582059e06)" d="M 309.251345 593.9056 
L 309.251345 26.2 
" style="fill:none;stroke:#ffffff;stroke-linecap:round;stroke-width:0.8;"/>
     </g>
     <g id="line2d_6">
      <g>
       <use style="fill:#262626;stroke:#262626;" x="309.251345" xlink:href="#m0718b27ce3" y="593.9056"/>
      </g>
     </g>
     <g id="text_3">
      <!-- 1,000,000 -->
      <defs>
       <path d="M 11.71875 12.984375 
L 28.328125 12.984375 
L 28.328125 60.109375 
L 11.28125 56.59375 
L 11.28125 69.390625 
L 28.21875 72.90625 
L 46.09375 72.90625 
L 46.09375 12.984375 
L 62.703125 12.984375 
L 62.703125 0 
L 11.71875 0 
z
" id="DejaVuSans-Bold-49"/>
      </defs>
      <g style="fill:#262626;" transform="translate(278.285486 609.463881)scale(0.11 -0.11)">
       <use xlink:href="#DejaVuSans-Bold-49"/>
       <use x="69.580078" xlink:href="#DejaVuSans-Bold-44"/>
       <use x="107.568359" xlink:href="#DejaVuSans-Bold-48"/>
       <use x="177.148438" xlink:href="#DejaVuSans-Bold-48"/>
       <use x="246.728516" xlink:href="#DejaVuSans-Bold-48"/>
       <use x="316.308594" xlink:href="#DejaVuSans-Bold-44"/>
       <use x="354.296875" xlink:href="#DejaVuSans-Bold-48"/>
       <use x="423.876953" xlink:href="#DejaVuSans-Bold-48"/>
       <use x="493.457031" xlink:href="#DejaVuSans-Bold-48"/>
      </g>
     </g>
    </g>
    <g id="xtick_4">
     <g id="line2d_7">
      <path clip-path="url(#p1582059e06)" d="M 406.546694 593.9056 
L 406.546694 26.2 
" style="fill:none;stroke:#ffffff;stroke-linecap:round;stroke-width:0.8;"/>
     </g>
     <g id="line2d_8">
      <g>
       <use style="fill:#262626;stroke:#262626;" x="406.546694" xlink:href="#m0718b27ce3" y="593.9056"/>
      </g>
     </g>
     <g id="text_4">
      <!-- 1,500,000 -->
      <g style="fill:#262626;" transform="translate(375.580835 609.463881)scale(0.11 -0.11)">
       <use xlink:href="#DejaVuSans-Bold-49"/>
       <use x="69.580078" xlink:href="#DejaVuSans-Bold-44"/>
       <use x="107.568359" xlink:href="#DejaVuSans-Bold-53"/>
       <use x="177.148438" xlink:href="#DejaVuSans-Bold-48"/>
       <use x="246.728516" xlink:href="#DejaVuSans-Bold-48"/>
       <use x="316.308594" xlink:href="#DejaVuSans-Bold-44"/>
       <use x="354.296875" xlink:href="#DejaVuSans-Bold-48"/>
       <use x="423.876953" xlink:href="#DejaVuSans-Bold-48"/>
       <use x="493.457031" xlink:href="#DejaVuSans-Bold-48"/>
      </g>
     </g>
    </g>
    <g id="xtick_5">
     <g id="line2d_9">
      <defs>
       <path d="M 0 0 
L 0 3.2 
" id="m654ab4d83b" style="stroke:#262626;stroke-width:0.8;"/>
      </defs>
      <g>
       <use style="fill:#262626;stroke:#262626;stroke-width:0.8;" x="163.308322" xlink:href="#m654ab4d83b" y="593.9056"/>
      </g>
     </g>
    </g>
    <g id="xtick_6">
     <g id="line2d_10">
      <g>
       <use style="fill:#262626;stroke:#262626;stroke-width:0.8;" x="260.603671" xlink:href="#m654ab4d83b" y="593.9056"/>
      </g>
     </g>
    </g>
    <g id="xtick_7">
     <g id="line2d_11">
      <g>
       <use style="fill:#262626;stroke:#262626;stroke-width:0.8;" x="357.89902" xlink:href="#m654ab4d83b" y="593.9056"/>
      </g>
     </g>
    </g>
    <g id="xtick_8">
     <g id="line2d_12">
      <g>
       <use style="fill:#262626;stroke:#262626;stroke-width:0.8;" x="455.194368" xlink:href="#m654ab4d83b" y="593.9056"/>
      </g>
     </g>
    </g>
   </g>
   <g id="matplotlib.axis_2">
    <g id="ytick_1">
     <g id="line2d_13">
      <path clip-path="url(#p1582059e06)" d="M 97.509375 585.432382 
L 474.837375 585.432382 
" style="fill:none;stroke:#ffffff;stroke-linecap:round;stroke-width:0.8;"/>
     </g>
     <g id="line2d_14">
      <defs>
       <path d="M 0 0 
L -4.8 0 
" id="m9986990d94" style="stroke:#262626;"/>
      </defs>
      <g>
       <use style="fill:#262626;stroke:#262626;" x="97.509375" xlink:href="#m9986990d94" y="585.432382"/>
      </g>
     </g>
     <g id="text_5">
      <!-- health -->
      <defs>
       <path d="M 54.890625 33.015625 
L 54.890625 0 
L 45.90625 0 
L 45.90625 32.71875 
Q 45.90625 40.484375 42.875 44.328125 
Q 39.84375 48.1875 33.796875 48.1875 
Q 26.515625 48.1875 22.3125 43.546875 
Q 18.109375 38.921875 18.109375 30.90625 
L 18.109375 0 
L 9.078125 0 
L 9.078125 75.984375 
L 18.109375 75.984375 
L 18.109375 46.1875 
Q 21.34375 51.125 25.703125 53.5625 
Q 30.078125 56 35.796875 56 
Q 45.21875 56 50.046875 50.171875 
Q 54.890625 44.34375 54.890625 33.015625 
z
" id="DejaVuSans-104"/>
       <path d="M 56.203125 29.59375 
L 56.203125 25.203125 
L 14.890625 25.203125 
Q 15.484375 15.921875 20.484375 11.0625 
Q 25.484375 6.203125 34.421875 6.203125 
Q 39.59375 6.203125 44.453125 7.46875 
Q 49.3125 8.734375 54.109375 11.28125 
L 54.109375 2.78125 
Q 49.265625 0.734375 44.1875 -0.34375 
Q 39.109375 -1.421875 33.890625 -1.421875 
Q 20.796875 -1.421875 13.15625 6.1875 
Q 5.515625 13.8125 5.515625 26.8125 
Q 5.515625 40.234375 12.765625 48.109375 
Q 20.015625 56 32.328125 56 
Q 43.359375 56 49.78125 48.890625 
Q 56.203125 41.796875 56.203125 29.59375 
z
M 47.21875 32.234375 
Q 47.125 39.59375 43.09375 43.984375 
Q 39.0625 48.390625 32.421875 48.390625 
Q 24.90625 48.390625 20.390625 44.140625 
Q 15.875 39.890625 15.1875 32.171875 
z
" id="DejaVuSans-101"/>
       <path d="M 34.28125 27.484375 
Q 23.390625 27.484375 19.1875 25 
Q 14.984375 22.515625 14.984375 16.5 
Q 14.984375 11.71875 18.140625 8.90625 
Q 21.296875 6.109375 26.703125 6.109375 
Q 34.1875 6.109375 38.703125 11.40625 
Q 43.21875 16.703125 43.21875 25.484375 
L 43.21875 27.484375 
z
M 52.203125 31.203125 
L 52.203125 0 
L 43.21875 0 
L 43.21875 8.296875 
Q 40.140625 3.328125 35.546875 0.953125 
Q 30.953125 -1.421875 24.3125 -1.421875 
Q 15.921875 -1.421875 10.953125 3.296875 
Q 6 8.015625 6 15.921875 
Q 6 25.140625 12.171875 29.828125 
Q 18.359375 34.515625 30.609375 34.515625 
L 43.21875 34.515625 
L 43.21875 35.40625 
Q 43.21875 41.609375 39.140625 45 
Q 35.0625 48.390625 27.6875 48.390625 
Q 23 48.390625 18.546875 47.265625 
Q 14.109375 46.140625 10.015625 43.890625 
L 10.015625 52.203125 
Q 14.9375 54.109375 19.578125 55.046875 
Q 24.21875 56 28.609375 56 
Q 40.484375 56 46.34375 49.84375 
Q 52.203125 43.703125 52.203125 31.203125 
z
" id="DejaVuSans-97"/>
       <path d="M 9.421875 75.984375 
L 18.40625 75.984375 
L 18.40625 0 
L 9.421875 0 
z
" id="DejaVuSans-108"/>
       <path d="M 18.3125 70.21875 
L 18.3125 54.6875 
L 36.8125 54.6875 
L 36.8125 47.703125 
L 18.3125 47.703125 
L 18.3125 18.015625 
Q 18.3125 11.328125 20.140625 9.421875 
Q 21.96875 7.515625 27.59375 7.515625 
L 36.8125 7.515625 
L 36.8125 0 
L 27.59375 0 
Q 17.1875 0 13.234375 3.875 
Q 9.28125 7.765625 9.28125 18.015625 
L 9.28125 47.703125 
L 2.6875 47.703125 
L 2.6875 54.6875 
L 9.28125 54.6875 
L 9.28125 70.21875 
z
" id="DejaVuSans-116"/>
      </defs>
      <g style="fill:#262626;" transform="translate(52.32375 589.991445)scale(0.12 -0.12)">
       <use xlink:href="#DejaVuSans-104"/>
       <use x="63.378906" xlink:href="#DejaVuSans-101"/>
       <use x="124.902344" xlink:href="#DejaVuSans-97"/>
       <use x="186.181641" xlink:href="#DejaVuSans-108"/>
       <use x="213.964844" xlink:href="#DejaVuSans-116"/>
       <use x="253.173828" xlink:href="#DejaVuSans-104"/>
      </g>
     </g>
    </g>
    <g id="ytick_2">
     <g id="line2d_15">
      <path clip-path="url(#p1582059e06)" d="M 97.509375 571.310352 
L 474.837375 571.310352 
" style="fill:none;stroke:#ffffff;stroke-linecap:round;stroke-width:0.8;"/>
     </g>
     <g id="line2d_16">
      <g>
       <use style="fill:#262626;stroke:#262626;" x="97.509375" xlink:href="#m9986990d94" y="571.310352"/>
      </g>
     </g>
     <g id="text_6">
      <!-- patient -->
      <defs>
       <path d="M 18.109375 8.203125 
L 18.109375 -20.796875 
L 9.078125 -20.796875 
L 9.078125 54.6875 
L 18.109375 54.6875 
L 18.109375 46.390625 
Q 20.953125 51.265625 25.265625 53.625 
Q 29.59375 56 35.59375 56 
Q 45.5625 56 51.78125 48.09375 
Q 58.015625 40.1875 58.015625 27.296875 
Q 58.015625 14.40625 51.78125 6.484375 
Q 45.5625 -1.421875 35.59375 -1.421875 
Q 29.59375 -1.421875 25.265625 0.953125 
Q 20.953125 3.328125 18.109375 8.203125 
z
M 48.6875 27.296875 
Q 48.6875 37.203125 44.609375 42.84375 
Q 40.53125 48.484375 33.40625 48.484375 
Q 26.265625 48.484375 22.1875 42.84375 
Q 18.109375 37.203125 18.109375 27.296875 
Q 18.109375 17.390625 22.1875 11.75 
Q 26.265625 6.109375 33.40625 6.109375 
Q 40.53125 6.109375 44.609375 11.75 
Q 48.6875 17.390625 48.6875 27.296875 
z
" id="DejaVuSans-112"/>
       <path d="M 9.421875 54.6875 
L 18.40625 54.6875 
L 18.40625 0 
L 9.421875 0 
z
M 9.421875 75.984375 
L 18.40625 75.984375 
L 18.40625 64.59375 
L 9.421875 64.59375 
z
" id="DejaVuSans-105"/>
       <path d="M 54.890625 33.015625 
L 54.890625 0 
L 45.90625 0 
L 45.90625 32.71875 
Q 45.90625 40.484375 42.875 44.328125 
Q 39.84375 48.1875 33.796875 48.1875 
Q 26.515625 48.1875 22.3125 43.546875 
Q 18.109375 38.921875 18.109375 30.90625 
L 18.109375 0 
L 9.078125 0 
L 9.078125 54.6875 
L 18.109375 54.6875 
L 18.109375 46.1875 
Q 21.34375 51.125 25.703125 53.5625 
Q 30.078125 56 35.796875 56 
Q 45.21875 56 50.046875 50.171875 
Q 54.890625 44.34375 54.890625 33.015625 
z
" id="DejaVuSans-110"/>
      </defs>
      <g style="fill:#262626;" transform="translate(47.60625 575.869415)scale(0.12 -0.12)">
       <use xlink:href="#DejaVuSans-112"/>
       <use x="63.476562" xlink:href="#DejaVuSans-97"/>
       <use x="124.755859" xlink:href="#DejaVuSans-116"/>
       <use x="163.964844" xlink:href="#DejaVuSans-105"/>
       <use x="191.748047" xlink:href="#DejaVuSans-101"/>
       <use x="253.271484" xlink:href="#DejaVuSans-110"/>
       <use x="316.650391" xlink:href="#DejaVuSans-116"/>
      </g>
     </g>
    </g>
    <g id="ytick_3">
     <g id="line2d_17">
      <path clip-path="url(#p1582059e06)" d="M 97.509375 557.188322 
L 474.837375 557.188322 
" style="fill:none;stroke:#ffffff;stroke-linecap:round;stroke-width:0.8;"/>
     </g>
     <g id="line2d_18">
      <g>
       <use style="fill:#262626;stroke:#262626;" x="97.509375" xlink:href="#m9986990d94" y="557.188322"/>
      </g>
     </g>
     <g id="text_7">
      <!-- ± -->
      <defs>
       <path d="M 46 62.703125 
L 46 43.796875 
L 73.1875 43.796875 
L 73.1875 35.5 
L 46 35.5 
L 46 16.609375 
L 37.796875 16.609375 
L 37.796875 35.5 
L 10.59375 35.5 
L 10.59375 43.796875 
L 37.796875 43.796875 
L 37.796875 62.703125 
z
M 10.59375 8.296875 
L 73.1875 8.296875 
L 73.1875 0 
L 10.59375 0 
z
" id="DejaVuSans-177"/>
      </defs>
      <g style="fill:#262626;" transform="translate(80.25375 561.747385)scale(0.12 -0.12)">
       <use xlink:href="#DejaVuSans-177"/>
      </g>
     </g>
    </g>
    <g id="ytick_4">
     <g id="line2d_19">
      <path clip-path="url(#p1582059e06)" d="M 97.509375 543.066293 
L 474.837375 543.066293 
" style="fill:none;stroke:#ffffff;stroke-linecap:round;stroke-width:0.8;"/>
     </g>
     <g id="line2d_20">
      <g>
       <use style="fill:#262626;stroke:#262626;" x="97.509375" xlink:href="#m9986990d94" y="543.066293"/>
      </g>
     </g>
     <g id="text_8">
      <!-- risk -->
      <defs>
       <path d="M 41.109375 46.296875 
Q 39.59375 47.171875 37.8125 47.578125 
Q 36.03125 48 33.890625 48 
Q 26.265625 48 22.1875 43.046875 
Q 18.109375 38.09375 18.109375 28.8125 
L 18.109375 0 
L 9.078125 0 
L 9.078125 54.6875 
L 18.109375 54.6875 
L 18.109375 46.1875 
Q 20.953125 51.171875 25.484375 53.578125 
Q 30.03125 56 36.53125 56 
Q 37.453125 56 38.578125 55.875 
Q 39.703125 55.765625 41.0625 55.515625 
z
" id="DejaVuSans-114"/>
       <path d="M 44.28125 53.078125 
L 44.28125 44.578125 
Q 40.484375 46.53125 36.375 47.5 
Q 32.28125 48.484375 27.875 48.484375 
Q 21.1875 48.484375 17.84375 46.4375 
Q 14.5 44.390625 14.5 40.28125 
Q 14.5 37.15625 16.890625 35.375 
Q 19.28125 33.59375 26.515625 31.984375 
L 29.59375 31.296875 
Q 39.15625 29.25 43.1875 25.515625 
Q 47.21875 21.78125 47.21875 15.09375 
Q 47.21875 7.46875 41.1875 3.015625 
Q 35.15625 -1.421875 24.609375 -1.421875 
Q 20.21875 -1.421875 15.453125 -0.5625 
Q 10.6875 0.296875 5.421875 2 
L 5.421875 11.28125 
Q 10.40625 8.6875 15.234375 7.390625 
Q 20.0625 6.109375 24.8125 6.109375 
Q 31.15625 6.109375 34.5625 8.28125 
Q 37.984375 10.453125 37.984375 14.40625 
Q 37.984375 18.0625 35.515625 20.015625 
Q 33.0625 21.96875 24.703125 23.78125 
L 21.578125 24.515625 
Q 13.234375 26.265625 9.515625 29.90625 
Q 5.8125 33.546875 5.8125 39.890625 
Q 5.8125 47.609375 11.28125 51.796875 
Q 16.75 56 26.8125 56 
Q 31.78125 56 36.171875 55.265625 
Q 40.578125 54.546875 44.28125 53.078125 
z
" id="DejaVuSans-115"/>
       <path d="M 9.078125 75.984375 
L 18.109375 75.984375 
L 18.109375 31.109375 
L 44.921875 54.6875 
L 56.390625 54.6875 
L 27.390625 29.109375 
L 57.625 0 
L 45.90625 0 
L 18.109375 26.703125 
L 18.109375 0 
L 9.078125 0 
z
" id="DejaVuSans-107"/>
      </defs>
      <g style="fill:#262626;" transform="translate(68.8425 547.625355)scale(0.12 -0.12)">
       <use xlink:href="#DejaVuSans-114"/>
       <use x="41.113281" xlink:href="#DejaVuSans-105"/>
       <use x="68.896484" xlink:href="#DejaVuSans-115"/>
       <use x="120.996094" xlink:href="#DejaVuSans-107"/>
      </g>
     </g>
    </g>
    <g id="ytick_5">
     <g id="line2d_21">
      <path clip-path="url(#p1582059e06)" d="M 97.509375 528.944263 
L 474.837375 528.944263 
" style="fill:none;stroke:#ffffff;stroke-linecap:round;stroke-width:0.8;"/>
     </g>
     <g id="line2d_22">
      <g>
       <use style="fill:#262626;stroke:#262626;" x="97.509375" xlink:href="#m9986990d94" y="528.944263"/>
      </g>
     </g>
     <g id="text_9">
      <!-- year -->
      <defs>
       <path d="M 32.171875 -5.078125 
Q 28.375 -14.84375 24.75 -17.8125 
Q 21.140625 -20.796875 15.09375 -20.796875 
L 7.90625 -20.796875 
L 7.90625 -13.28125 
L 13.1875 -13.28125 
Q 16.890625 -13.28125 18.9375 -11.515625 
Q 21 -9.765625 23.484375 -3.21875 
L 25.09375 0.875 
L 2.984375 54.6875 
L 12.5 54.6875 
L 29.59375 11.921875 
L 46.6875 54.6875 
L 56.203125 54.6875 
z
" id="DejaVuSans-121"/>
      </defs>
      <g style="fill:#262626;" transform="translate(63.53625 533.503325)scale(0.12 -0.12)">
       <use xlink:href="#DejaVuSans-121"/>
       <use x="59.179688" xlink:href="#DejaVuSans-101"/>
       <use x="120.703125" xlink:href="#DejaVuSans-97"/>
       <use x="181.982422" xlink:href="#DejaVuSans-114"/>
      </g>
     </g>
    </g>
    <g id="ytick_6">
     <g id="line2d_23">
      <path clip-path="url(#p1582059e06)" d="M 97.509375 514.822233 
L 474.837375 514.822233 
" style="fill:none;stroke:#ffffff;stroke-linecap:round;stroke-width:0.8;"/>
     </g>
     <g id="line2d_24">
      <g>
       <use style="fill:#262626;stroke:#262626;" x="97.509375" xlink:href="#m9986990d94" y="514.822233"/>
      </g>
     </g>
     <g id="text_10">
      <!-- treatment -->
      <defs>
       <path d="M 52 44.1875 
Q 55.375 50.25 60.0625 53.125 
Q 64.75 56 71.09375 56 
Q 79.640625 56 84.28125 50.015625 
Q 88.921875 44.046875 88.921875 33.015625 
L 88.921875 0 
L 79.890625 0 
L 79.890625 32.71875 
Q 79.890625 40.578125 77.09375 44.375 
Q 74.3125 48.1875 68.609375 48.1875 
Q 61.625 48.1875 57.5625 43.546875 
Q 53.515625 38.921875 53.515625 30.90625 
L 53.515625 0 
L 44.484375 0 
L 44.484375 32.71875 
Q 44.484375 40.625 41.703125 44.40625 
Q 38.921875 48.1875 33.109375 48.1875 
Q 26.21875 48.1875 22.15625 43.53125 
Q 18.109375 38.875 18.109375 30.90625 
L 18.109375 0 
L 9.078125 0 
L 9.078125 54.6875 
L 18.109375 54.6875 
L 18.109375 46.1875 
Q 21.1875 51.21875 25.484375 53.609375 
Q 29.78125 56 35.6875 56 
Q 41.65625 56 45.828125 52.96875 
Q 50 49.953125 52 44.1875 
z
" id="DejaVuSans-109"/>
      </defs>
      <g style="fill:#262626;" transform="translate(29.851875 519.381295)scale(0.12 -0.12)">
       <use xlink:href="#DejaVuSans-116"/>
       <use x="39.208984" xlink:href="#DejaVuSans-114"/>
       <use x="80.291016" xlink:href="#DejaVuSans-101"/>
       <use x="141.814453" xlink:href="#DejaVuSans-97"/>
       <use x="203.09375" xlink:href="#DejaVuSans-116"/>
       <use x="242.302734" xlink:href="#DejaVuSans-109"/>
       <use x="339.714844" xlink:href="#DejaVuSans-101"/>
       <use x="401.238281" xlink:href="#DejaVuSans-110"/>
       <use x="464.617188" xlink:href="#DejaVuSans-116"/>
      </g>
     </g>
    </g>
    <g id="ytick_7">
     <g id="line2d_25">
      <path clip-path="url(#p1582059e06)" d="M 97.509375 500.700203 
L 474.837375 500.700203 
" style="fill:none;stroke:#ffffff;stroke-linecap:round;stroke-width:0.8;"/>
     </g>
     <g id="line2d_26">
      <g>
       <use style="fill:#262626;stroke:#262626;" x="97.509375" xlink:href="#m9986990d94" y="500.700203"/>
      </g>
     </g>
     <g id="text_11">
      <!-- group -->
      <defs>
       <path d="M 45.40625 27.984375 
Q 45.40625 37.75 41.375 43.109375 
Q 37.359375 48.484375 30.078125 48.484375 
Q 22.859375 48.484375 18.828125 43.109375 
Q 14.796875 37.75 14.796875 27.984375 
Q 14.796875 18.265625 18.828125 12.890625 
Q 22.859375 7.515625 30.078125 7.515625 
Q 37.359375 7.515625 41.375 12.890625 
Q 45.40625 18.265625 45.40625 27.984375 
z
M 54.390625 6.78125 
Q 54.390625 -7.171875 48.1875 -13.984375 
Q 42 -20.796875 29.203125 -20.796875 
Q 24.46875 -20.796875 20.265625 -20.09375 
Q 16.0625 -19.390625 12.109375 -17.921875 
L 12.109375 -9.1875 
Q 16.0625 -11.328125 19.921875 -12.34375 
Q 23.78125 -13.375 27.78125 -13.375 
Q 36.625 -13.375 41.015625 -8.765625 
Q 45.40625 -4.15625 45.40625 5.171875 
L 45.40625 9.625 
Q 42.625 4.78125 38.28125 2.390625 
Q 33.9375 0 27.875 0 
Q 17.828125 0 11.671875 7.65625 
Q 5.515625 15.328125 5.515625 27.984375 
Q 5.515625 40.671875 11.671875 48.328125 
Q 17.828125 56 27.875 56 
Q 33.9375 56 38.28125 53.609375 
Q 42.625 51.21875 45.40625 46.390625 
L 45.40625 54.6875 
L 54.390625 54.6875 
z
" id="DejaVuSans-103"/>
       <path d="M 30.609375 48.390625 
Q 23.390625 48.390625 19.1875 42.75 
Q 14.984375 37.109375 14.984375 27.296875 
Q 14.984375 17.484375 19.15625 11.84375 
Q 23.34375 6.203125 30.609375 6.203125 
Q 37.796875 6.203125 41.984375 11.859375 
Q 46.1875 17.53125 46.1875 27.296875 
Q 46.1875 37.015625 41.984375 42.703125 
Q 37.796875 48.390625 30.609375 48.390625 
z
M 30.609375 56 
Q 42.328125 56 49.015625 48.375 
Q 55.71875 40.765625 55.71875 27.296875 
Q 55.71875 13.875 49.015625 6.21875 
Q 42.328125 -1.421875 30.609375 -1.421875 
Q 18.84375 -1.421875 12.171875 6.21875 
Q 5.515625 13.875 5.515625 27.296875 
Q 5.515625 40.765625 12.171875 48.375 
Q 18.84375 56 30.609375 56 
z
" id="DejaVuSans-111"/>
       <path d="M 8.5 21.578125 
L 8.5 54.6875 
L 17.484375 54.6875 
L 17.484375 21.921875 
Q 17.484375 14.15625 20.5 10.265625 
Q 23.53125 6.390625 29.59375 6.390625 
Q 36.859375 6.390625 41.078125 11.03125 
Q 45.3125 15.671875 45.3125 23.6875 
L 45.3125 54.6875 
L 54.296875 54.6875 
L 54.296875 0 
L 45.3125 0 
L 45.3125 8.40625 
Q 42.046875 3.421875 37.71875 1 
Q 33.40625 -1.421875 27.6875 -1.421875 
Q 18.265625 -1.421875 13.375 4.4375 
Q 8.5 10.296875 8.5 21.578125 
z
M 31.109375 56 
z
" id="DejaVuSans-117"/>
      </defs>
      <g style="fill:#262626;" transform="translate(55.19625 505.259265)scale(0.12 -0.12)">
       <use xlink:href="#DejaVuSans-103"/>
       <use x="63.476562" xlink:href="#DejaVuSans-114"/>
       <use x="104.558594" xlink:href="#DejaVuSans-111"/>
       <use x="165.740234" xlink:href="#DejaVuSans-117"/>
       <use x="229.119141" xlink:href="#DejaVuSans-112"/>
      </g>
     </g>
    </g>
    <g id="ytick_8">
     <g id="line2d_27">
      <path clip-path="url(#p1582059e06)" d="M 97.509375 486.578173 
L 474.837375 486.578173 
" style="fill:none;stroke:#ffffff;stroke-linecap:round;stroke-width:0.8;"/>
     </g>
     <g id="line2d_28">
      <g>
       <use style="fill:#262626;stroke:#262626;" x="97.509375" xlink:href="#m9986990d94" y="486.578173"/>
      </g>
     </g>
     <g id="text_12">
      <!-- study -->
      <defs>
       <path d="M 45.40625 46.390625 
L 45.40625 75.984375 
L 54.390625 75.984375 
L 54.390625 0 
L 45.40625 0 
L 45.40625 8.203125 
Q 42.578125 3.328125 38.25 0.953125 
Q 33.9375 -1.421875 27.875 -1.421875 
Q 17.96875 -1.421875 11.734375 6.484375 
Q 5.515625 14.40625 5.515625 27.296875 
Q 5.515625 40.1875 11.734375 48.09375 
Q 17.96875 56 27.875 56 
Q 33.9375 56 38.25 53.625 
Q 42.578125 51.265625 45.40625 46.390625 
z
M 14.796875 27.296875 
Q 14.796875 17.390625 18.875 11.75 
Q 22.953125 6.109375 30.078125 6.109375 
Q 37.203125 6.109375 41.296875 11.75 
Q 45.40625 17.390625 45.40625 27.296875 
Q 45.40625 37.203125 41.296875 42.84375 
Q 37.203125 48.484375 30.078125 48.484375 
Q 22.953125 48.484375 18.875 42.84375 
Q 14.796875 37.203125 14.796875 27.296875 
z
" id="DejaVuSans-100"/>
      </defs>
      <g style="fill:#262626;" transform="translate(57.028125 491.137236)scale(0.12 -0.12)">
       <use xlink:href="#DejaVuSans-115"/>
       <use x="52.099609" xlink:href="#DejaVuSans-116"/>
       <use x="91.308594" xlink:href="#DejaVuSans-117"/>
       <use x="154.6875" xlink:href="#DejaVuSans-100"/>
       <use x="218.164062" xlink:href="#DejaVuSans-121"/>
      </g>
     </g>
    </g>
    <g id="ytick_9">
     <g id="line2d_29">
      <path clip-path="url(#p1582059e06)" d="M 97.509375 472.456143 
L 474.837375 472.456143 
" style="fill:none;stroke:#ffffff;stroke-linecap:round;stroke-width:0.8;"/>
     </g>
     <g id="line2d_30">
      <g>
       <use style="fill:#262626;stroke:#262626;" x="97.509375" xlink:href="#m9986990d94" y="472.456143"/>
      </g>
     </g>
     <g id="text_13">
      <!-- h -->
      <g style="fill:#262626;" transform="translate(82.704375 477.015206)scale(0.12 -0.12)">
       <use xlink:href="#DejaVuSans-104"/>
      </g>
     </g>
    </g>
    <g id="ytick_10">
     <g id="line2d_31">
      <path clip-path="url(#p1582059e06)" d="M 97.509375 458.334113 
L 474.837375 458.334113 
" style="fill:none;stroke:#ffffff;stroke-linecap:round;stroke-width:0.8;"/>
     </g>
     <g id="line2d_32">
      <g>
       <use style="fill:#262626;stroke:#262626;" x="97.509375" xlink:href="#m9986990d94" y="458.334113"/>
      </g>
     </g>
     <g id="text_14">
      <!-- age -->
      <g style="fill:#262626;" transform="translate(67.95375 462.893176)scale(0.12 -0.12)">
       <use xlink:href="#DejaVuSans-97"/>
       <use x="61.279297" xlink:href="#DejaVuSans-103"/>
       <use x="124.755859" xlink:href="#DejaVuSans-101"/>
      </g>
     </g>
    </g>
    <g id="ytick_11">
     <g id="line2d_33">
      <path clip-path="url(#p1582059e06)" d="M 97.509375 444.212084 
L 474.837375 444.212084 
" style="fill:none;stroke:#ffffff;stroke-linecap:round;stroke-width:0.8;"/>
     </g>
     <g id="line2d_34">
      <g>
       <use style="fill:#262626;stroke:#262626;" x="97.509375" xlink:href="#m9986990d94" y="444.212084"/>
      </g>
     </g>
     <g id="text_15">
      <!-- – -->
      <defs>
       <path d="M 4.890625 30.90625 
L 45.125 30.90625 
L 45.125 23.875 
L 4.890625 23.875 
z
" id="DejaVuSans-8211"/>
      </defs>
      <g style="fill:#262626;" transform="translate(84.309375 448.771146)scale(0.12 -0.12)">
       <use xlink:href="#DejaVuSans-8211"/>
      </g>
     </g>
    </g>
    <g id="ytick_12">
     <g id="line2d_35">
      <path clip-path="url(#p1582059e06)" d="M 97.509375 430.090054 
L 474.837375 430.090054 
" style="fill:none;stroke:#ffffff;stroke-linecap:round;stroke-width:0.8;"/>
     </g>
     <g id="line2d_36">
      <g>
       <use style="fill:#262626;stroke:#262626;" x="97.509375" xlink:href="#m9986990d94" y="430.090054"/>
      </g>
     </g>
     <g id="text_16">
      <!-- report -->
      <g style="fill:#262626;" transform="translate(53.398125 434.649116)scale(0.12 -0.12)">
       <use xlink:href="#DejaVuSans-114"/>
       <use x="41.082031" xlink:href="#DejaVuSans-101"/>
       <use x="102.605469" xlink:href="#DejaVuSans-112"/>
       <use x="166.082031" xlink:href="#DejaVuSans-111"/>
       <use x="227.263672" xlink:href="#DejaVuSans-114"/>
       <use x="268.376953" xlink:href="#DejaVuSans-116"/>
      </g>
     </g>
    </g>
    <g id="ytick_13">
     <g id="line2d_37">
      <path clip-path="url(#p1582059e06)" d="M 97.509375 415.968024 
L 474.837375 415.968024 
" style="fill:none;stroke:#ffffff;stroke-linecap:round;stroke-width:0.8;"/>
     </g>
     <g id="line2d_38">
      <g>
       <use style="fill:#262626;stroke:#262626;" x="97.509375" xlink:href="#m9986990d94" y="415.968024"/>
      </g>
     </g>
     <g id="text_17">
      <!-- cancer -->
      <defs>
       <path d="M 48.78125 52.59375 
L 48.78125 44.1875 
Q 44.96875 46.296875 41.140625 47.34375 
Q 37.3125 48.390625 33.40625 48.390625 
Q 24.65625 48.390625 19.8125 42.84375 
Q 14.984375 37.3125 14.984375 27.296875 
Q 14.984375 17.28125 19.8125 11.734375 
Q 24.65625 6.203125 33.40625 6.203125 
Q 37.3125 6.203125 41.140625 7.25 
Q 44.96875 8.296875 48.78125 10.40625 
L 48.78125 2.09375 
Q 45.015625 0.34375 40.984375 -0.53125 
Q 36.96875 -1.421875 32.421875 -1.421875 
Q 20.0625 -1.421875 12.78125 6.34375 
Q 5.515625 14.109375 5.515625 27.296875 
Q 5.515625 40.671875 12.859375 48.328125 
Q 20.21875 56 33.015625 56 
Q 37.15625 56 41.109375 55.140625 
Q 45.0625 54.296875 48.78125 52.59375 
z
" id="DejaVuSans-99"/>
      </defs>
      <g style="fill:#262626;" transform="translate(49.8375 420.527086)scale(0.12 -0.12)">
       <use xlink:href="#DejaVuSans-99"/>
       <use x="54.980469" xlink:href="#DejaVuSans-97"/>
       <use x="116.259766" xlink:href="#DejaVuSans-110"/>
       <use x="179.638672" xlink:href="#DejaVuSans-99"/>
       <use x="234.619141" xlink:href="#DejaVuSans-101"/>
       <use x="296.142578" xlink:href="#DejaVuSans-114"/>
      </g>
     </g>
    </g>
    <g id="ytick_14">
     <g id="line2d_39">
      <path clip-path="url(#p1582059e06)" d="M 97.509375 401.845994 
L 474.837375 401.845994 
" style="fill:none;stroke:#ffffff;stroke-linecap:round;stroke-width:0.8;"/>
     </g>
     <g id="line2d_40">
      <g>
       <use style="fill:#262626;stroke:#262626;" x="97.509375" xlink:href="#m9986990d94" y="401.845994"/>
      </g>
     </g>
     <g id="text_18">
      <!-- ml -->
      <g style="fill:#262626;" transform="translate(75.286875 406.405057)scale(0.12 -0.12)">
       <use xlink:href="#DejaVuSans-109"/>
       <use x="97.412109" xlink:href="#DejaVuSans-108"/>
      </g>
     </g>
    </g>
    <g id="ytick_15">
     <g id="line2d_41">
      <path clip-path="url(#p1582059e06)" d="M 97.509375 387.723964 
L 474.837375 387.723964 
" style="fill:none;stroke:#ffffff;stroke-linecap:round;stroke-width:0.8;"/>
     </g>
     <g id="line2d_42">
      <g>
       <use style="fill:#262626;stroke:#262626;" x="97.509375" xlink:href="#m9986990d94" y="387.723964"/>
      </g>
     </g>
     <g id="text_19">
      <!-- disease -->
      <g style="fill:#262626;" transform="translate(44.73375 392.283027)scale(0.12 -0.12)">
       <use xlink:href="#DejaVuSans-100"/>
       <use x="63.476562" xlink:href="#DejaVuSans-105"/>
       <use x="91.259766" xlink:href="#DejaVuSans-115"/>
       <use x="143.359375" xlink:href="#DejaVuSans-101"/>
       <use x="204.882812" xlink:href="#DejaVuSans-97"/>
       <use x="266.162109" xlink:href="#DejaVuSans-115"/>
       <use x="318.261719" xlink:href="#DejaVuSans-101"/>
      </g>
     </g>
    </g>
    <g id="ytick_16">
     <g id="line2d_43">
      <path clip-path="url(#p1582059e06)" d="M 97.509375 373.601934 
L 474.837375 373.601934 
" style="fill:none;stroke:#ffffff;stroke-linecap:round;stroke-width:0.8;"/>
     </g>
     <g id="line2d_44">
      <g>
       <use style="fill:#262626;stroke:#262626;" x="97.509375" xlink:href="#m9986990d94" y="373.601934"/>
      </g>
     </g>
     <g id="text_20">
      <!-- n -->
      <g style="fill:#262626;" transform="translate(82.704375 378.160997)scale(0.12 -0.12)">
       <use xlink:href="#DejaVuSans-110"/>
      </g>
     </g>
    </g>
    <g id="ytick_17">
     <g id="line2d_45">
      <path clip-path="url(#p1582059e06)" d="M 97.509375 359.479904 
L 474.837375 359.479904 
" style="fill:none;stroke:#ffffff;stroke-linecap:round;stroke-width:0.8;"/>
     </g>
     <g id="line2d_46">
      <g>
       <use style="fill:#262626;stroke:#262626;" x="97.509375" xlink:href="#m9986990d94" y="359.479904"/>
      </g>
     </g>
     <g id="text_21">
      <!-- day -->
      <g style="fill:#262626;" transform="translate(68.235 364.038967)scale(0.12 -0.12)">
       <use xlink:href="#DejaVuSans-100"/>
       <use x="63.476562" xlink:href="#DejaVuSans-97"/>
       <use x="124.755859" xlink:href="#DejaVuSans-121"/>
      </g>
     </g>
    </g>
    <g id="ytick_18">
     <g id="line2d_47">
      <path clip-path="url(#p1582059e06)" d="M 97.509375 345.357875 
L 474.837375 345.357875 
" style="fill:none;stroke:#ffffff;stroke-linecap:round;stroke-width:0.8;"/>
     </g>
     <g id="line2d_48">
      <g>
       <use style="fill:#262626;stroke:#262626;" x="97.509375" xlink:href="#m9986990d94" y="345.357875"/>
      </g>
     </g>
     <g id="text_22">
      <!-- concentration -->
      <g style="fill:#262626;" transform="translate(7.2 349.916937)scale(0.12 -0.12)">
       <use xlink:href="#DejaVuSans-99"/>
       <use x="54.980469" xlink:href="#DejaVuSans-111"/>
       <use x="116.162109" xlink:href="#DejaVuSans-110"/>
       <use x="179.541016" xlink:href="#DejaVuSans-99"/>
       <use x="234.521484" xlink:href="#DejaVuSans-101"/>
       <use x="296.044922" xlink:href="#DejaVuSans-110"/>
       <use x="359.423828" xlink:href="#DejaVuSans-116"/>
       <use x="398.632812" xlink:href="#DejaVuSans-114"/>
       <use x="439.746094" xlink:href="#DejaVuSans-97"/>
       <use x="501.025391" xlink:href="#DejaVuSans-116"/>
       <use x="540.234375" xlink:href="#DejaVuSans-105"/>
       <use x="568.017578" xlink:href="#DejaVuSans-111"/>
       <use x="629.199219" xlink:href="#DejaVuSans-110"/>
      </g>
     </g>
    </g>
    <g id="ytick_19">
     <g id="line2d_49">
      <path clip-path="url(#p1582059e06)" d="M 97.509375 331.235845 
L 474.837375 331.235845 
" style="fill:none;stroke:#ffffff;stroke-linecap:round;stroke-width:0.8;"/>
     </g>
     <g id="line2d_50">
      <g>
       <use style="fill:#262626;stroke:#262626;" x="97.509375" xlink:href="#m9986990d94" y="331.235845"/>
      </g>
     </g>
     <g id="text_23">
      <!-- p -->
      <g style="fill:#262626;" transform="translate(82.69125 335.794907)scale(0.12 -0.12)">
       <use xlink:href="#DejaVuSans-112"/>
      </g>
     </g>
    </g>
    <g id="ytick_20">
     <g id="line2d_51">
      <path clip-path="url(#p1582059e06)" d="M 97.509375 317.113815 
L 474.837375 317.113815 
" style="fill:none;stroke:#ffffff;stroke-linecap:round;stroke-width:0.8;"/>
     </g>
     <g id="line2d_52">
      <g>
       <use style="fill:#262626;stroke:#262626;" x="97.509375" xlink:href="#m9986990d94" y="317.113815"/>
      </g>
     </g>
     <g id="text_24">
      <!-- factor -->
      <defs>
       <path d="M 37.109375 75.984375 
L 37.109375 68.5 
L 28.515625 68.5 
Q 23.6875 68.5 21.796875 66.546875 
Q 19.921875 64.59375 19.921875 59.515625 
L 19.921875 54.6875 
L 34.71875 54.6875 
L 34.71875 47.703125 
L 19.921875 47.703125 
L 19.921875 0 
L 10.890625 0 
L 10.890625 47.703125 
L 2.296875 47.703125 
L 2.296875 54.6875 
L 10.890625 54.6875 
L 10.890625 58.5 
Q 10.890625 67.625 15.140625 71.796875 
Q 19.390625 75.984375 28.609375 75.984375 
z
" id="DejaVuSans-102"/>
      </defs>
      <g style="fill:#262626;" transform="translate(55.153125 321.672877)scale(0.12 -0.12)">
       <use xlink:href="#DejaVuSans-102"/>
       <use x="35.205078" xlink:href="#DejaVuSans-97"/>
       <use x="96.484375" xlink:href="#DejaVuSans-99"/>
       <use x="151.464844" xlink:href="#DejaVuSans-116"/>
       <use x="190.673828" xlink:href="#DejaVuSans-111"/>
       <use x="251.855469" xlink:href="#DejaVuSans-114"/>
      </g>
     </g>
    </g>
    <g id="ytick_21">
     <g id="line2d_53">
      <path clip-path="url(#p1582059e06)" d="M 97.509375 302.991785 
L 474.837375 302.991785 
" style="fill:none;stroke:#ffffff;stroke-linecap:round;stroke-width:0.8;"/>
     </g>
     <g id="line2d_54">
      <g>
       <use style="fill:#262626;stroke:#262626;" x="97.509375" xlink:href="#m9986990d94" y="302.991785"/>
      </g>
     </g>
     <g id="text_25">
      <!-- fig -->
      <g style="fill:#262626;" transform="translate(75.133125 307.550848)scale(0.12 -0.12)">
       <use xlink:href="#DejaVuSans-102"/>
       <use x="35.205078" xlink:href="#DejaVuSans-105"/>
       <use x="62.988281" xlink:href="#DejaVuSans-103"/>
      </g>
     </g>
    </g>
    <g id="ytick_22">
     <g id="line2d_55">
      <path clip-path="url(#p1582059e06)" d="M 97.509375 288.869755 
L 474.837375 288.869755 
" style="fill:none;stroke:#ffffff;stroke-linecap:round;stroke-width:0.8;"/>
     </g>
     <g id="line2d_56">
      <g>
       <use style="fill:#262626;stroke:#262626;" x="97.509375" xlink:href="#m9986990d94" y="288.869755"/>
      </g>
     </g>
     <g id="text_26">
      <!-- signal -->
      <g style="fill:#262626;" transform="translate(54.81375 293.428818)scale(0.12 -0.12)">
       <use xlink:href="#DejaVuSans-115"/>
       <use x="52.099609" xlink:href="#DejaVuSans-105"/>
       <use x="79.882812" xlink:href="#DejaVuSans-103"/>
       <use x="143.359375" xlink:href="#DejaVuSans-110"/>
       <use x="206.738281" xlink:href="#DejaVuSans-97"/>
       <use x="268.017578" xlink:href="#DejaVuSans-108"/>
      </g>
     </g>
    </g>
    <g id="ytick_23">
     <g id="line2d_57">
      <path clip-path="url(#p1582059e06)" d="M 97.509375 274.747725 
L 474.837375 274.747725 
" style="fill:none;stroke:#ffffff;stroke-linecap:round;stroke-width:0.8;"/>
     </g>
     <g id="line2d_58">
      <g>
       <use style="fill:#262626;stroke:#262626;" x="97.509375" xlink:href="#m9986990d94" y="274.747725"/>
      </g>
     </g>
     <g id="text_27">
      <!-- estimate -->
      <g style="fill:#262626;" transform="translate(37.505625 279.306788)scale(0.12 -0.12)">
       <use xlink:href="#DejaVuSans-101"/>
       <use x="61.523438" xlink:href="#DejaVuSans-115"/>
       <use x="113.623047" xlink:href="#DejaVuSans-116"/>
       <use x="152.832031" xlink:href="#DejaVuSans-105"/>
       <use x="180.615234" xlink:href="#DejaVuSans-109"/>
       <use x="278.027344" xlink:href="#DejaVuSans-97"/>
       <use x="339.306641" xlink:href="#DejaVuSans-116"/>
       <use x="378.515625" xlink:href="#DejaVuSans-101"/>
      </g>
     </g>
    </g>
    <g id="ytick_24">
     <g id="line2d_59">
      <path clip-path="url(#p1582059e06)" d="M 97.509375 260.625696 
L 474.837375 260.625696 
" style="fill:none;stroke:#ffffff;stroke-linecap:round;stroke-width:0.8;"/>
     </g>
     <g id="line2d_60">
      <g>
       <use style="fill:#262626;stroke:#262626;" x="97.509375" xlink:href="#m9986990d94" y="260.625696"/>
      </g>
     </g>
     <g id="text_28">
      <!-- interaction -->
      <g style="fill:#262626;" transform="translate(25.411875 265.184758)scale(0.12 -0.12)">
       <use xlink:href="#DejaVuSans-105"/>
       <use x="27.783203" xlink:href="#DejaVuSans-110"/>
       <use x="91.162109" xlink:href="#DejaVuSans-116"/>
       <use x="130.371094" xlink:href="#DejaVuSans-101"/>
       <use x="191.894531" xlink:href="#DejaVuSans-114"/>
       <use x="233.007812" xlink:href="#DejaVuSans-97"/>
       <use x="294.287109" xlink:href="#DejaVuSans-99"/>
       <use x="349.267578" xlink:href="#DejaVuSans-116"/>
       <use x="388.476562" xlink:href="#DejaVuSans-105"/>
       <use x="416.259766" xlink:href="#DejaVuSans-111"/>
       <use x="477.441406" xlink:href="#DejaVuSans-110"/>
      </g>
     </g>
    </g>
    <g id="ytick_25">
     <g id="line2d_61">
      <path clip-path="url(#p1582059e06)" d="M 97.509375 246.503666 
L 474.837375 246.503666 
" style="fill:none;stroke:#ffffff;stroke-linecap:round;stroke-width:0.8;"/>
     </g>
     <g id="line2d_62">
      <g>
       <use style="fill:#262626;stroke:#262626;" x="97.509375" xlink:href="#m9986990d94" y="246.503666"/>
      </g>
     </g>
     <g id="text_29">
      <!-- population -->
      <g style="fill:#262626;" transform="translate(26.4525 251.062728)scale(0.12 -0.12)">
       <use xlink:href="#DejaVuSans-112"/>
       <use x="63.476562" xlink:href="#DejaVuSans-111"/>
       <use x="124.658203" xlink:href="#DejaVuSans-112"/>
       <use x="188.134766" xlink:href="#DejaVuSans-117"/>
       <use x="251.513672" xlink:href="#DejaVuSans-108"/>
       <use x="279.296875" xlink:href="#DejaVuSans-97"/>
       <use x="340.576172" xlink:href="#DejaVuSans-116"/>
       <use x="379.785156" xlink:href="#DejaVuSans-105"/>
       <use x="407.568359" xlink:href="#DejaVuSans-111"/>
       <use x="468.75" xlink:href="#DejaVuSans-110"/>
      </g>
     </g>
    </g>
    <g id="ytick_26">
     <g id="line2d_63">
      <path clip-path="url(#p1582059e06)" d="M 97.509375 232.381636 
L 474.837375 232.381636 
" style="fill:none;stroke:#ffffff;stroke-linecap:round;stroke-width:0.8;"/>
     </g>
     <g id="line2d_64">
      <g>
       <use style="fill:#262626;stroke:#262626;" x="97.509375" xlink:href="#m9986990d94" y="232.381636"/>
      </g>
     </g>
     <g id="text_30">
      <!-- region -->
      <g style="fill:#262626;" transform="translate(52.096875 236.940698)scale(0.12 -0.12)">
       <use xlink:href="#DejaVuSans-114"/>
       <use x="41.082031" xlink:href="#DejaVuSans-101"/>
       <use x="102.605469" xlink:href="#DejaVuSans-103"/>
       <use x="166.082031" xlink:href="#DejaVuSans-105"/>
       <use x="193.865234" xlink:href="#DejaVuSans-111"/>
       <use x="255.046875" xlink:href="#DejaVuSans-110"/>
      </g>
     </g>
    </g>
    <g id="ytick_27">
     <g id="line2d_65">
      <path clip-path="url(#p1582059e06)" d="M 97.509375 218.259606 
L 474.837375 218.259606 
" style="fill:none;stroke:#ffffff;stroke-linecap:round;stroke-width:0.8;"/>
     </g>
     <g id="line2d_66">
      <g>
       <use style="fill:#262626;stroke:#262626;" x="97.509375" xlink:href="#m9986990d94" y="218.259606"/>
      </g>
     </g>
     <g id="text_31">
      <!-- state -->
      <g style="fill:#262626;" transform="translate(59.911875 222.818668)scale(0.12 -0.12)">
       <use xlink:href="#DejaVuSans-115"/>
       <use x="52.099609" xlink:href="#DejaVuSans-116"/>
       <use x="91.308594" xlink:href="#DejaVuSans-97"/>
       <use x="152.587891" xlink:href="#DejaVuSans-116"/>
       <use x="191.796875" xlink:href="#DejaVuSans-101"/>
      </g>
     </g>
    </g>
    <g id="ytick_28">
     <g id="line2d_67">
      <path clip-path="url(#p1582059e06)" d="M 97.509375 204.137576 
L 474.837375 204.137576 
" style="fill:none;stroke:#ffffff;stroke-linecap:round;stroke-width:0.8;"/>
     </g>
     <g id="line2d_68">
      <g>
       <use style="fill:#262626;stroke:#262626;" x="97.509375" xlink:href="#m9986990d94" y="204.137576"/>
      </g>
     </g>
     <g id="text_32">
      <!-- set -->
      <g style="fill:#262626;" transform="translate(71.97 208.696639)scale(0.12 -0.12)">
       <use xlink:href="#DejaVuSans-115"/>
       <use x="52.099609" xlink:href="#DejaVuSans-101"/>
       <use x="113.623047" xlink:href="#DejaVuSans-116"/>
      </g>
     </g>
    </g>
    <g id="ytick_29">
     <g id="line2d_69">
      <path clip-path="url(#p1582059e06)" d="M 97.509375 190.015546 
L 474.837375 190.015546 
" style="fill:none;stroke:#ffffff;stroke-linecap:round;stroke-width:0.8;"/>
     </g>
     <g id="line2d_70">
      <g>
       <use style="fill:#262626;stroke:#262626;" x="97.509375" xlink:href="#m9986990d94" y="190.015546"/>
      </g>
     </g>
     <g id="text_33">
      <!-- sequence -->
      <defs>
       <path d="M 14.796875 27.296875 
Q 14.796875 17.390625 18.875 11.75 
Q 22.953125 6.109375 30.078125 6.109375 
Q 37.203125 6.109375 41.296875 11.75 
Q 45.40625 17.390625 45.40625 27.296875 
Q 45.40625 37.203125 41.296875 42.84375 
Q 37.203125 48.484375 30.078125 48.484375 
Q 22.953125 48.484375 18.875 42.84375 
Q 14.796875 37.203125 14.796875 27.296875 
z
M 45.40625 8.203125 
Q 42.578125 3.328125 38.25 0.953125 
Q 33.9375 -1.421875 27.875 -1.421875 
Q 17.96875 -1.421875 11.734375 6.484375 
Q 5.515625 14.40625 5.515625 27.296875 
Q 5.515625 40.1875 11.734375 48.09375 
Q 17.96875 56 27.875 56 
Q 33.9375 56 38.25 53.625 
Q 42.578125 51.265625 45.40625 46.390625 
L 45.40625 54.6875 
L 54.390625 54.6875 
L 54.390625 -20.796875 
L 45.40625 -20.796875 
z
" id="DejaVuSans-113"/>
      </defs>
      <g style="fill:#262626;" transform="translate(32.480625 194.574609)scale(0.12 -0.12)">
       <use xlink:href="#DejaVuSans-115"/>
       <use x="52.099609" xlink:href="#DejaVuSans-101"/>
       <use x="113.623047" xlink:href="#DejaVuSans-113"/>
       <use x="177.099609" xlink:href="#DejaVuSans-117"/>
       <use x="240.478516" xlink:href="#DejaVuSans-101"/>
       <use x="302.001953" xlink:href="#DejaVuSans-110"/>
       <use x="365.380859" xlink:href="#DejaVuSans-99"/>
       <use x="420.361328" xlink:href="#DejaVuSans-101"/>
      </g>
     </g>
    </g>
    <g id="ytick_30">
     <g id="line2d_71">
      <path clip-path="url(#p1582059e06)" d="M 97.509375 175.893516 
L 474.837375 175.893516 
" style="fill:none;stroke:#ffffff;stroke-linecap:round;stroke-width:0.8;"/>
     </g>
     <g id="line2d_72">
      <g>
       <use style="fill:#262626;stroke:#262626;" x="97.509375" xlink:href="#m9986990d94" y="175.893516"/>
      </g>
     </g>
     <g id="text_34">
      <!-- distribution -->
      <defs>
       <path d="M 48.6875 27.296875 
Q 48.6875 37.203125 44.609375 42.84375 
Q 40.53125 48.484375 33.40625 48.484375 
Q 26.265625 48.484375 22.1875 42.84375 
Q 18.109375 37.203125 18.109375 27.296875 
Q 18.109375 17.390625 22.1875 11.75 
Q 26.265625 6.109375 33.40625 6.109375 
Q 40.53125 6.109375 44.609375 11.75 
Q 48.6875 17.390625 48.6875 27.296875 
z
M 18.109375 46.390625 
Q 20.953125 51.265625 25.265625 53.625 
Q 29.59375 56 35.59375 56 
Q 45.5625 56 51.78125 48.09375 
Q 58.015625 40.1875 58.015625 27.296875 
Q 58.015625 14.40625 51.78125 6.484375 
Q 45.5625 -1.421875 35.59375 -1.421875 
Q 29.59375 -1.421875 25.265625 0.953125 
Q 20.953125 3.328125 18.109375 8.203125 
L 18.109375 0 
L 9.078125 0 
L 9.078125 75.984375 
L 18.109375 75.984375 
z
" id="DejaVuSans-98"/>
      </defs>
      <g style="fill:#262626;" transform="translate(21.92625 180.452579)scale(0.12 -0.12)">
       <use xlink:href="#DejaVuSans-100"/>
       <use x="63.476562" xlink:href="#DejaVuSans-105"/>
       <use x="91.259766" xlink:href="#DejaVuSans-115"/>
       <use x="143.359375" xlink:href="#DejaVuSans-116"/>
       <use x="182.568359" xlink:href="#DejaVuSans-114"/>
       <use x="223.681641" xlink:href="#DejaVuSans-105"/>
       <use x="251.464844" xlink:href="#DejaVuSans-98"/>
       <use x="314.941406" xlink:href="#DejaVuSans-117"/>
       <use x="378.320312" xlink:href="#DejaVuSans-116"/>
       <use x="417.529297" xlink:href="#DejaVuSans-105"/>
       <use x="445.3125" xlink:href="#DejaVuSans-111"/>
       <use x="506.494141" xlink:href="#DejaVuSans-110"/>
      </g>
     </g>
    </g>
    <g id="ytick_31">
     <g id="line2d_73">
      <path clip-path="url(#p1582059e06)" d="M 97.509375 161.771487 
L 474.837375 161.771487 
" style="fill:none;stroke:#ffffff;stroke-linecap:round;stroke-width:0.8;"/>
     </g>
     <g id="line2d_74">
      <g>
       <use style="fill:#262626;stroke:#262626;" x="97.509375" xlink:href="#m9986990d94" y="161.771487"/>
      </g>
     </g>
     <g id="text_35">
      <!-- specie -->
      <g style="fill:#262626;" transform="translate(51.740625 166.330549)scale(0.12 -0.12)">
       <use xlink:href="#DejaVuSans-115"/>
       <use x="52.099609" xlink:href="#DejaVuSans-112"/>
       <use x="115.576172" xlink:href="#DejaVuSans-101"/>
       <use x="177.099609" xlink:href="#DejaVuSans-99"/>
       <use x="232.080078" xlink:href="#DejaVuSans-105"/>
       <use x="259.863281" xlink:href="#DejaVuSans-101"/>
      </g>
     </g>
    </g>
    <g id="ytick_32">
     <g id="line2d_75">
      <path clip-path="url(#p1582059e06)" d="M 97.509375 147.649457 
L 474.837375 147.649457 
" style="fill:none;stroke:#ffffff;stroke-linecap:round;stroke-width:0.8;"/>
     </g>
     <g id="line2d_76">
      <g>
       <use style="fill:#262626;stroke:#262626;" x="97.509375" xlink:href="#m9986990d94" y="147.649457"/>
      </g>
     </g>
     <g id="text_36">
      <!-- model -->
      <g style="fill:#262626;" transform="translate(52.9425 152.208519)scale(0.12 -0.12)">
       <use xlink:href="#DejaVuSans-109"/>
       <use x="97.412109" xlink:href="#DejaVuSans-111"/>
       <use x="158.59375" xlink:href="#DejaVuSans-100"/>
       <use x="222.070312" xlink:href="#DejaVuSans-101"/>
       <use x="283.59375" xlink:href="#DejaVuSans-108"/>
      </g>
     </g>
    </g>
    <g id="ytick_33">
     <g id="line2d_77">
      <path clip-path="url(#p1582059e06)" d="M 97.509375 133.527427 
L 474.837375 133.527427 
" style="fill:none;stroke:#ffffff;stroke-linecap:round;stroke-width:0.8;"/>
     </g>
     <g id="line2d_78">
      <g>
       <use style="fill:#262626;stroke:#262626;" x="97.509375" xlink:href="#m9986990d94" y="133.527427"/>
      </g>
     </g>
     <g id="text_37">
      <!-- RNA -->
      <defs>
       <path d="M 44.390625 34.1875 
Q 47.5625 33.109375 50.5625 29.59375 
Q 53.5625 26.078125 56.59375 19.921875 
L 66.609375 0 
L 56 0 
L 46.6875 18.703125 
Q 43.0625 26.03125 39.671875 28.421875 
Q 36.28125 30.8125 30.421875 30.8125 
L 19.671875 30.8125 
L 19.671875 0 
L 9.8125 0 
L 9.8125 72.90625 
L 32.078125 72.90625 
Q 44.578125 72.90625 50.734375 67.671875 
Q 56.890625 62.453125 56.890625 51.90625 
Q 56.890625 45.015625 53.6875 40.46875 
Q 50.484375 35.9375 44.390625 34.1875 
z
M 19.671875 64.796875 
L 19.671875 38.921875 
L 32.078125 38.921875 
Q 39.203125 38.921875 42.84375 42.21875 
Q 46.484375 45.515625 46.484375 51.90625 
Q 46.484375 58.296875 42.84375 61.546875 
Q 39.203125 64.796875 32.078125 64.796875 
z
" id="DejaVuSans-82"/>
       <path d="M 9.8125 72.90625 
L 23.09375 72.90625 
L 55.421875 11.921875 
L 55.421875 72.90625 
L 64.984375 72.90625 
L 64.984375 0 
L 51.703125 0 
L 19.390625 60.984375 
L 19.390625 0 
L 9.8125 0 
z
" id="DejaVuSans-78"/>
       <path d="M 34.1875 63.1875 
L 20.796875 26.90625 
L 47.609375 26.90625 
z
M 28.609375 72.90625 
L 39.796875 72.90625 
L 67.578125 0 
L 57.328125 0 
L 50.6875 18.703125 
L 17.828125 18.703125 
L 11.1875 0 
L 0.78125 0 
z
" id="DejaVuSans-65"/>
      </defs>
      <g style="fill:#262626;" transform="translate(64.785 138.086489)scale(0.12 -0.12)">
       <use xlink:href="#DejaVuSans-82"/>
       <use x="69.482422" xlink:href="#DejaVuSans-78"/>
       <use x="144.287109" xlink:href="#DejaVuSans-65"/>
      </g>
     </g>
    </g>
    <g id="ytick_34">
     <g id="line2d_79">
      <path clip-path="url(#p1582059e06)" d="M 97.509375 119.405397 
L 474.837375 119.405397 
" style="fill:none;stroke:#ffffff;stroke-linecap:round;stroke-width:0.8;"/>
     </g>
     <g id="line2d_80">
      <g>
       <use style="fill:#262626;stroke:#262626;" x="97.509375" xlink:href="#m9986990d94" y="119.405397"/>
      </g>
     </g>
     <g id="text_38">
      <!-- gene -->
      <g style="fill:#262626;" transform="translate(60.31875 123.96446)scale(0.12 -0.12)">
       <use xlink:href="#DejaVuSans-103"/>
       <use x="63.476562" xlink:href="#DejaVuSans-101"/>
       <use x="125" xlink:href="#DejaVuSans-110"/>
       <use x="188.378906" xlink:href="#DejaVuSans-101"/>
      </g>
     </g>
    </g>
    <g id="ytick_35">
     <g id="line2d_81">
      <path clip-path="url(#p1582059e06)" d="M 97.509375 105.283367 
L 474.837375 105.283367 
" style="fill:none;stroke:#ffffff;stroke-linecap:round;stroke-width:0.8;"/>
     </g>
     <g id="line2d_82">
      <g>
       <use style="fill:#262626;stroke:#262626;" x="97.509375" xlink:href="#m9986990d94" y="105.283367"/>
      </g>
     </g>
     <g id="text_39">
      <!-- single -->
      <g style="fill:#262626;" transform="translate(54.78375 109.84243)scale(0.12 -0.12)">
       <use xlink:href="#DejaVuSans-115"/>
       <use x="52.099609" xlink:href="#DejaVuSans-105"/>
       <use x="79.882812" xlink:href="#DejaVuSans-110"/>
       <use x="143.261719" xlink:href="#DejaVuSans-103"/>
       <use x="206.738281" xlink:href="#DejaVuSans-108"/>
       <use x="234.521484" xlink:href="#DejaVuSans-101"/>
      </g>
     </g>
    </g>
    <g id="ytick_36">
     <g id="line2d_83">
      <path clip-path="url(#p1582059e06)" d="M 97.509375 91.161337 
L 474.837375 91.161337 
" style="fill:none;stroke:#ffffff;stroke-linecap:round;stroke-width:0.8;"/>
     </g>
     <g id="line2d_84">
      <g>
       <use style="fill:#262626;stroke:#262626;" x="97.509375" xlink:href="#m9986990d94" y="91.161337"/>
      </g>
     </g>
     <g id="text_40">
      <!-- et -->
      <g style="fill:#262626;" transform="translate(78.22125 95.7204)scale(0.12 -0.12)">
       <use xlink:href="#DejaVuSans-101"/>
       <use x="61.523438" xlink:href="#DejaVuSans-116"/>
      </g>
     </g>
    </g>
    <g id="ytick_37">
     <g id="line2d_85">
      <path clip-path="url(#p1582059e06)" d="M 97.509375 77.039307 
L 474.837375 77.039307 
" style="fill:none;stroke:#ffffff;stroke-linecap:round;stroke-width:0.8;"/>
     </g>
     <g id="line2d_86">
      <g>
       <use style="fill:#262626;stroke:#262626;" x="97.509375" xlink:href="#m9986990d94" y="77.039307"/>
      </g>
     </g>
     <g id="text_41">
      <!-- al -->
      <g style="fill:#262626;" transform="translate(79.621875 81.59837)scale(0.12 -0.12)">
       <use xlink:href="#DejaVuSans-97"/>
       <use x="61.279297" xlink:href="#DejaVuSans-108"/>
      </g>
     </g>
    </g>
    <g id="ytick_38">
     <g id="line2d_87">
      <path clip-path="url(#p1582059e06)" d="M 97.509375 62.917278 
L 474.837375 62.917278 
" style="fill:none;stroke:#ffffff;stroke-linecap:round;stroke-width:0.8;"/>
     </g>
     <g id="line2d_88">
      <g>
       <use style="fill:#262626;stroke:#262626;" x="97.509375" xlink:href="#m9986990d94" y="62.917278"/>
      </g>
     </g>
     <g id="text_42">
      <!-- network -->
      <defs>
       <path d="M 4.203125 54.6875 
L 13.1875 54.6875 
L 24.421875 12.015625 
L 35.59375 54.6875 
L 46.1875 54.6875 
L 57.421875 12.015625 
L 68.609375 54.6875 
L 77.59375 54.6875 
L 63.28125 0 
L 52.6875 0 
L 40.921875 44.828125 
L 29.109375 0 
L 18.5 0 
z
" id="DejaVuSans-119"/>
      </defs>
      <g style="fill:#262626;" transform="translate(41.578125 67.47634)scale(0.12 -0.12)">
       <use xlink:href="#DejaVuSans-110"/>
       <use x="63.378906" xlink:href="#DejaVuSans-101"/>
       <use x="124.902344" xlink:href="#DejaVuSans-116"/>
       <use x="164.111328" xlink:href="#DejaVuSans-119"/>
       <use x="245.898438" xlink:href="#DejaVuSans-111"/>
       <use x="307.080078" xlink:href="#DejaVuSans-114"/>
       <use x="348.193359" xlink:href="#DejaVuSans-107"/>
      </g>
     </g>
    </g>
    <g id="ytick_39">
     <g id="line2d_89">
      <path clip-path="url(#p1582059e06)" d="M 97.509375 48.795248 
L 474.837375 48.795248 
" style="fill:none;stroke:#ffffff;stroke-linecap:round;stroke-width:0.8;"/>
     </g>
     <g id="line2d_90">
      <g>
       <use style="fill:#262626;stroke:#262626;" x="97.509375" xlink:href="#m9986990d94" y="48.795248"/>
      </g>
     </g>
     <g id="text_43">
      <!-- genome -->
      <g style="fill:#262626;" transform="translate(41.2875 53.35431)scale(0.12 -0.12)">
       <use xlink:href="#DejaVuSans-103"/>
       <use x="63.476562" xlink:href="#DejaVuSans-101"/>
       <use x="125" xlink:href="#DejaVuSans-110"/>
       <use x="188.378906" xlink:href="#DejaVuSans-111"/>
       <use x="249.560547" xlink:href="#DejaVuSans-109"/>
       <use x="346.972656" xlink:href="#DejaVuSans-101"/>
      </g>
     </g>
    </g>
    <g id="ytick_40">
     <g id="line2d_91">
      <path clip-path="url(#p1582059e06)" d="M 97.509375 34.673218 
L 474.837375 34.673218 
" style="fill:none;stroke:#ffffff;stroke-linecap:round;stroke-width:0.8;"/>
     </g>
     <g id="line2d_92">
      <g>
       <use style="fill:#262626;stroke:#262626;" x="97.509375" xlink:href="#m9986990d94" y="34.673218"/>
      </g>
     </g>
     <g id="text_44">
      <!-- neuron -->
      <g style="fill:#262626;" transform="translate(47.83875 39.23228)scale(0.12 -0.12)">
       <use xlink:href="#DejaVuSans-110"/>
       <use x="63.378906" xlink:href="#DejaVuSans-101"/>
       <use x="124.902344" xlink:href="#DejaVuSans-117"/>
       <use x="188.28125" xlink:href="#DejaVuSans-114"/>
       <use x="229.363281" xlink:href="#DejaVuSans-111"/>
       <use x="290.544922" xlink:href="#DejaVuSans-110"/>
      </g>
     </g>
    </g>
   </g>
   <g id="PolyCollection_1">
    <path clip-path="url(#p1582059e06)" d="M 114.660648 591.787296 
L 114.660648 579.077469 
L 125.091098 579.077469 
L 125.091098 591.787296 
z
" style="fill:#595959;"/>
    <path clip-path="url(#p1582059e06)" d="M 114.660648 577.665266 
L 114.660648 564.955439 
L 156.115082 564.955439 
L 156.115082 577.665266 
z
" style="fill:#595959;"/>
    <path clip-path="url(#p1582059e06)" d="M 114.660648 563.543236 
L 114.660648 550.833409 
L 143.250108 550.833409 
L 143.250108 563.543236 
z
" style="fill:#595959;"/>
    <path clip-path="url(#p1582059e06)" d="M 114.660648 549.421206 
L 114.660648 536.711379 
L 133.896522 536.711379 
L 133.896522 549.421206 
z
" style="fill:#595959;"/>
    <path clip-path="url(#p1582059e06)" d="M 114.660648 535.299176 
L 114.660648 522.589349 
L 137.784444 522.589349 
L 137.784444 535.299176 
z
" style="fill:#595959;"/>
    <path clip-path="url(#p1582059e06)" d="M 114.660648 521.177146 
L 114.660648 508.467319 
L 161.039395 508.467319 
L 161.039395 521.177146 
z
" style="fill:#595959;"/>
    <path clip-path="url(#p1582059e06)" d="M 114.660648 507.055116 
L 114.660648 494.34529 
L 200.809452 494.34529 
L 200.809452 507.055116 
z
" style="fill:#595959;"/>
    <path clip-path="url(#p1582059e06)" d="M 114.660648 492.933087 
L 114.660648 480.22326 
L 276.072658 480.22326 
L 276.072658 492.933087 
z
" style="fill:#595959;"/>
    <path clip-path="url(#p1582059e06)" d="M 114.660648 478.811057 
L 114.660648 466.10123 
L 147.064669 466.10123 
L 147.064669 478.811057 
z
" style="fill:#595959;"/>
    <path clip-path="url(#p1582059e06)" d="M 114.660648 464.689027 
L 114.660648 451.9792 
L 152.531695 451.9792 
L 152.531695 464.689027 
z
" style="fill:#595959;"/>
    <path clip-path="url(#p1582059e06)" d="M 114.660648 450.566997 
L 114.660648 437.85717 
L 155.732517 437.85717 
L 155.732517 450.566997 
z
" style="fill:#595959;"/>
    <path clip-path="url(#p1582059e06)" d="M 114.660648 436.444967 
L 114.660648 423.73514 
L 167.404456 423.73514 
L 167.404456 436.444967 
z
" style="fill:#595959;"/>
    <path clip-path="url(#p1582059e06)" d="M 114.660648 422.322937 
L 114.660648 409.61311 
L 149.017192 409.61311 
L 149.017192 422.322937 
z
" style="fill:#595959;"/>
    <path clip-path="url(#p1582059e06)" d="M 114.660648 408.200907 
L 114.660648 395.491081 
L 147.742428 395.491081 
L 147.742428 408.200907 
z
" style="fill:#595959;"/>
    <path clip-path="url(#p1582059e06)" d="M 114.660648 394.078878 
L 114.660648 381.369051 
L 154.183575 381.369051 
L 154.183575 394.078878 
z
" style="fill:#595959;"/>
    <path clip-path="url(#p1582059e06)" d="M 114.660648 379.956848 
L 114.660648 367.247021 
L 170.521215 367.247021 
L 170.521215 379.956848 
z
" style="fill:#595959;"/>
    <path clip-path="url(#p1582059e06)" d="M 114.660648 365.834818 
L 114.660648 353.124991 
L 163.296452 353.124991 
L 163.296452 365.834818 
z
" style="fill:#595959;"/>
    <path clip-path="url(#p1582059e06)" d="M 114.660648 351.712788 
L 114.660648 339.002961 
L 156.442384 339.002961 
L 156.442384 351.712788 
z
" style="fill:#595959;"/>
    <path clip-path="url(#p1582059e06)" d="M 114.660648 337.590758 
L 114.660648 324.880931 
L 209.314622 324.880931 
L 209.314622 337.590758 
z
" style="fill:#595959;"/>
    <path clip-path="url(#p1582059e06)" d="M 114.660648 323.468728 
L 114.660648 310.758901 
L 169.4066 310.758901 
L 169.4066 323.468728 
z
" style="fill:#595959;"/>
    <path clip-path="url(#p1582059e06)" d="M 114.660648 309.346699 
L 114.660648 296.636872 
L 318.63373 296.636872 
L 318.63373 309.346699 
z
" style="fill:#595959;"/>
    <path clip-path="url(#p1582059e06)" d="M 114.660648 295.224669 
L 114.660648 282.514842 
L 183.050911 282.514842 
L 183.050911 295.224669 
z
" style="fill:#595959;"/>
    <path clip-path="url(#p1582059e06)" d="M 114.660648 281.102639 
L 114.660648 268.392812 
L 175.641286 268.392812 
L 175.641286 281.102639 
z
" style="fill:#595959;"/>
    <path clip-path="url(#p1582059e06)" d="M 114.660648 266.980609 
L 114.660648 254.270782 
L 178.834908 254.270782 
L 178.834908 266.980609 
z
" style="fill:#595959;"/>
    <path clip-path="url(#p1582059e06)" d="M 114.660648 252.858579 
L 114.660648 240.148752 
L 211.893922 240.148752 
L 211.893922 252.858579 
z
" style="fill:#595959;"/>
    <path clip-path="url(#p1582059e06)" d="M 114.660648 238.736549 
L 114.660648 226.026722 
L 209.49637 226.026722 
L 209.49637 238.736549 
z
" style="fill:#595959;"/>
    <path clip-path="url(#p1582059e06)" d="M 114.660648 224.614519 
L 114.660648 211.904693 
L 174.465374 211.904693 
L 174.465374 224.614519 
z
" style="fill:#595959;"/>
    <path clip-path="url(#p1582059e06)" d="M 114.660648 210.49249 
L 114.660648 197.782663 
L 196.362471 197.782663 
L 196.362471 210.49249 
z
" style="fill:#595959;"/>
    <path clip-path="url(#p1582059e06)" d="M 114.660648 196.37046 
L 114.660648 183.660633 
L 228.363106 183.660633 
L 228.363106 196.37046 
z
" style="fill:#595959;"/>
    <path clip-path="url(#p1582059e06)" d="M 114.660648 182.24843 
L 114.660648 169.538603 
L 175.389486 169.538603 
L 175.389486 182.24843 
z
" style="fill:#595959;"/>
    <path clip-path="url(#p1582059e06)" d="M 114.660648 168.1264 
L 114.660648 155.416573 
L 189.523581 155.416573 
L 189.523581 168.1264 
z
" style="fill:#595959;"/>
    <path clip-path="url(#p1582059e06)" d="M 114.660648 154.00437 
L 114.660648 141.294543 
L 320.304486 141.294543 
L 320.304486 154.00437 
z
" style="fill:#595959;"/>
    <path clip-path="url(#p1582059e06)" d="M 114.660648 139.88234 
L 114.660648 127.172513 
L 174.177769 127.172513 
L 174.177769 139.88234 
z
" style="fill:#595959;"/>
    <path clip-path="url(#p1582059e06)" d="M 114.660648 125.76031 
L 114.660648 113.050484 
L 376.950616 113.050484 
L 376.950616 125.76031 
z
" style="fill:#595959;"/>
    <path clip-path="url(#p1582059e06)" d="M 114.660648 111.638281 
L 114.660648 98.928454 
L 184.18265 98.928454 
L 184.18265 111.638281 
z
" style="fill:#595959;"/>
    <path clip-path="url(#p1582059e06)" d="M 114.660648 97.516251 
L 114.660648 84.806424 
L 457.686102 84.806424 
L 457.686102 97.516251 
z
" style="fill:#595959;"/>
    <path clip-path="url(#p1582059e06)" d="M 114.660648 83.394221 
L 114.660648 70.684394 
L 456.077032 70.684394 
L 456.077032 83.394221 
z
" style="fill:#595959;"/>
    <path clip-path="url(#p1582059e06)" d="M 114.660648 69.272191 
L 114.660648 56.562364 
L 178.323524 56.562364 
L 178.323524 69.272191 
z
" style="fill:#595959;"/>
    <path clip-path="url(#p1582059e06)" d="M 114.660648 55.150161 
L 114.660648 42.440334 
L 192.085951 42.440334 
L 192.085951 55.150161 
z
" style="fill:#595959;"/>
    <path clip-path="url(#p1582059e06)" d="M 114.660648 41.028131 
L 114.660648 28.318304 
L 174.137878 28.318304 
L 174.137878 41.028131 
z
" style="fill:#595959;"/>
   </g>
   <g id="patch_3">
    <path d="M 97.509375 26.2 
L 474.837375 26.2 
L 474.837375 7.2 
L 97.509375 7.2 
z
" style="fill:#d3d3d3;"/>
   </g>
   <g id="patch_4">
    <path d="M 97.509375 593.9056 
L 97.509375 26.2 
" style="fill:none;stroke:#ffffff;stroke-linecap:square;stroke-linejoin:miter;"/>
   </g>
   <g id="patch_5">
    <path d="M 474.837375 593.9056 
L 474.837375 26.2 
" style="fill:none;stroke:#ffffff;stroke-linecap:square;stroke-linejoin:miter;"/>
   </g>
   <g id="patch_6">
    <path d="M 97.509375 593.9056 
L 474.837375 593.9056 
" style="fill:none;stroke:#ffffff;stroke-linecap:square;stroke-linejoin:miter;"/>
   </g>
   <g id="patch_7">
    <path d="M 97.509375 26.2 
L 474.837375 26.2 
" style="fill:none;stroke:#ffffff;stroke-linecap:square;stroke-linejoin:miter;"/>
   </g>
   <g id="text_45">
    <!-- bioRxiv -->
    <defs>
     <path d="M 54.890625 54.6875 
L 35.109375 28.078125 
L 55.90625 0 
L 45.3125 0 
L 29.390625 21.484375 
L 13.484375 0 
L 2.875 0 
L 24.125 28.609375 
L 4.6875 54.6875 
L 15.28125 54.6875 
L 29.78125 35.203125 
L 44.28125 54.6875 
z
" id="DejaVuSans-120"/>
     <path d="M 2.984375 54.6875 
L 12.5 54.6875 
L 29.59375 8.796875 
L 46.6875 54.6875 
L 56.203125 54.6875 
L 35.6875 0 
L 23.484375 0 
z
" id="DejaVuSans-118"/>
    </defs>
    <g style="fill:#262626;" transform="translate(262.247281 20.287188)scale(0.13 -0.13)">
     <use xlink:href="#DejaVuSans-98"/>
     <use x="63.476562" xlink:href="#DejaVuSans-105"/>
     <use x="91.259766" xlink:href="#DejaVuSans-111"/>
     <use x="152.441406" xlink:href="#DejaVuSans-82"/>
     <use x="221.923828" xlink:href="#DejaVuSans-120"/>
     <use x="281.103516" xlink:href="#DejaVuSans-105"/>
     <use x="308.886719" xlink:href="#DejaVuSans-118"/>
    </g>
   </g>
  </g>
  <g id="axes_2">
   <g id="patch_8">
    <path d="M 482.037375 593.9056 
L 859.365375 593.9056 
L 859.365375 26.2 
L 482.037375 26.2 
z
" style="fill:#eaeaf2;"/>
   </g>
   <g id="matplotlib.axis_3">
    <g id="xtick_9">
     <g id="line2d_93">
      <path clip-path="url(#pefa5ee0182)" d="M 499.188648 593.9056 
L 499.188648 26.2 
" style="fill:none;stroke:#ffffff;stroke-linecap:round;stroke-width:0.8;"/>
     </g>
     <g id="line2d_94">
      <g>
       <use style="fill:#262626;stroke:#262626;" x="499.188648" xlink:href="#m0718b27ce3" y="593.9056"/>
      </g>
     </g>
     <g id="text_46">
      <!-- 0 -->
      <g style="fill:#262626;" transform="translate(495.361851 609.463881)scale(0.11 -0.11)">
       <use xlink:href="#DejaVuSans-Bold-48"/>
      </g>
     </g>
    </g>
    <g id="xtick_10">
     <g id="line2d_95">
      <path clip-path="url(#pefa5ee0182)" d="M 609.973314 593.9056 
L 609.973314 26.2 
" style="fill:none;stroke:#ffffff;stroke-linecap:round;stroke-width:0.8;"/>
     </g>
     <g id="line2d_96">
      <g>
       <use style="fill:#262626;stroke:#262626;" x="609.973314" xlink:href="#m0718b27ce3" y="593.9056"/>
      </g>
     </g>
     <g id="text_47">
      <!-- 10,000,000 -->
      <g style="fill:#262626;" transform="translate(575.180658 609.463881)scale(0.11 -0.11)">
       <use xlink:href="#DejaVuSans-Bold-49"/>
       <use x="69.580078" xlink:href="#DejaVuSans-Bold-48"/>
       <use x="139.160156" xlink:href="#DejaVuSans-Bold-44"/>
       <use x="177.148438" xlink:href="#DejaVuSans-Bold-48"/>
       <use x="246.728516" xlink:href="#DejaVuSans-Bold-48"/>
       <use x="316.308594" xlink:href="#DejaVuSans-Bold-48"/>
       <use x="385.888672" xlink:href="#DejaVuSans-Bold-44"/>
       <use x="423.876953" xlink:href="#DejaVuSans-Bold-48"/>
       <use x="493.457031" xlink:href="#DejaVuSans-Bold-48"/>
       <use x="563.037109" xlink:href="#DejaVuSans-Bold-48"/>
      </g>
     </g>
    </g>
    <g id="xtick_11">
     <g id="line2d_97">
      <path clip-path="url(#pefa5ee0182)" d="M 720.757981 593.9056 
L 720.757981 26.2 
" style="fill:none;stroke:#ffffff;stroke-linecap:round;stroke-width:0.8;"/>
     </g>
     <g id="line2d_98">
      <g>
       <use style="fill:#262626;stroke:#262626;" x="720.757981" xlink:href="#m0718b27ce3" y="593.9056"/>
      </g>
     </g>
     <g id="text_48">
      <!-- 20,000,000 -->
      <defs>
       <path d="M 28.8125 13.8125 
L 60.890625 13.8125 
L 60.890625 0 
L 7.90625 0 
L 7.90625 13.8125 
L 34.515625 37.3125 
Q 38.09375 40.53125 39.796875 43.609375 
Q 41.5 46.6875 41.5 50 
Q 41.5 55.125 38.0625 58.25 
Q 34.625 61.375 28.90625 61.375 
Q 24.515625 61.375 19.28125 59.5 
Q 14.0625 57.625 8.109375 53.90625 
L 8.109375 69.921875 
Q 14.453125 72.015625 20.65625 73.109375 
Q 26.859375 74.21875 32.8125 74.21875 
Q 45.90625 74.21875 53.15625 68.453125 
Q 60.40625 62.703125 60.40625 52.390625 
Q 60.40625 46.4375 57.328125 41.28125 
Q 54.25 36.140625 44.390625 27.484375 
z
" id="DejaVuSans-Bold-50"/>
      </defs>
      <g style="fill:#262626;" transform="translate(685.965325 609.463881)scale(0.11 -0.11)">
       <use xlink:href="#DejaVuSans-Bold-50"/>
       <use x="69.580078" xlink:href="#DejaVuSans-Bold-48"/>
       <use x="139.160156" xlink:href="#DejaVuSans-Bold-44"/>
       <use x="177.148438" xlink:href="#DejaVuSans-Bold-48"/>
       <use x="246.728516" xlink:href="#DejaVuSans-Bold-48"/>
       <use x="316.308594" xlink:href="#DejaVuSans-Bold-48"/>
       <use x="385.888672" xlink:href="#DejaVuSans-Bold-44"/>
       <use x="423.876953" xlink:href="#DejaVuSans-Bold-48"/>
       <use x="493.457031" xlink:href="#DejaVuSans-Bold-48"/>
       <use x="563.037109" xlink:href="#DejaVuSans-Bold-48"/>
      </g>
     </g>
    </g>
    <g id="xtick_12">
     <g id="line2d_99">
      <path clip-path="url(#pefa5ee0182)" d="M 831.542647 593.9056 
L 831.542647 26.2 
" style="fill:none;stroke:#ffffff;stroke-linecap:round;stroke-width:0.8;"/>
     </g>
     <g id="line2d_100">
      <g>
       <use style="fill:#262626;stroke:#262626;" x="831.542647" xlink:href="#m0718b27ce3" y="593.9056"/>
      </g>
     </g>
     <g id="text_49">
      <!-- 30,000,000 -->
      <defs>
       <path d="M 46.578125 39.3125 
Q 53.953125 37.40625 57.78125 32.6875 
Q 61.625 27.984375 61.625 20.703125 
Q 61.625 9.859375 53.3125 4.21875 
Q 45.015625 -1.421875 29.109375 -1.421875 
Q 23.484375 -1.421875 17.84375 -0.515625 
Q 12.203125 0.390625 6.6875 2.203125 
L 6.6875 16.703125 
Q 11.96875 14.0625 17.15625 12.71875 
Q 22.359375 11.375 27.390625 11.375 
Q 34.859375 11.375 38.84375 13.953125 
Q 42.828125 16.546875 42.828125 21.390625 
Q 42.828125 26.375 38.75 28.9375 
Q 34.671875 31.5 26.703125 31.5 
L 19.1875 31.5 
L 19.1875 43.609375 
L 27.09375 43.609375 
Q 34.1875 43.609375 37.640625 45.828125 
Q 41.109375 48.046875 41.109375 52.59375 
Q 41.109375 56.78125 37.734375 59.078125 
Q 34.375 61.375 28.21875 61.375 
Q 23.6875 61.375 19.046875 60.34375 
Q 14.40625 59.328125 9.8125 57.328125 
L 9.8125 71.09375 
Q 15.375 72.65625 20.84375 73.4375 
Q 26.3125 74.21875 31.59375 74.21875 
Q 45.796875 74.21875 52.84375 69.546875 
Q 59.90625 64.890625 59.90625 55.515625 
Q 59.90625 49.125 56.53125 45.046875 
Q 53.171875 40.96875 46.578125 39.3125 
z
" id="DejaVuSans-Bold-51"/>
      </defs>
      <g style="fill:#262626;" transform="translate(796.749991 609.463881)scale(0.11 -0.11)">
       <use xlink:href="#DejaVuSans-Bold-51"/>
       <use x="69.580078" xlink:href="#DejaVuSans-Bold-48"/>
       <use x="139.160156" xlink:href="#DejaVuSans-Bold-44"/>
       <use x="177.148438" xlink:href="#DejaVuSans-Bold-48"/>
       <use x="246.728516" xlink:href="#DejaVuSans-Bold-48"/>
       <use x="316.308594" xlink:href="#DejaVuSans-Bold-48"/>
       <use x="385.888672" xlink:href="#DejaVuSans-Bold-44"/>
       <use x="423.876953" xlink:href="#DejaVuSans-Bold-48"/>
       <use x="493.457031" xlink:href="#DejaVuSans-Bold-48"/>
       <use x="563.037109" xlink:href="#DejaVuSans-Bold-48"/>
      </g>
     </g>
    </g>
    <g id="xtick_13">
     <g id="line2d_101">
      <g>
       <use style="fill:#262626;stroke:#262626;stroke-width:0.8;" x="554.580981" xlink:href="#m654ab4d83b" y="593.9056"/>
      </g>
     </g>
    </g>
    <g id="xtick_14">
     <g id="line2d_102">
      <g>
       <use style="fill:#262626;stroke:#262626;stroke-width:0.8;" x="665.365648" xlink:href="#m654ab4d83b" y="593.9056"/>
      </g>
     </g>
    </g>
    <g id="xtick_15">
     <g id="line2d_103">
      <g>
       <use style="fill:#262626;stroke:#262626;stroke-width:0.8;" x="776.150314" xlink:href="#m654ab4d83b" y="593.9056"/>
      </g>
     </g>
    </g>
    <g id="text_50">
     <!-- count -->
     <g style="fill:#262626;" transform="translate(444.99 628.149194)scale(0.15 -0.15)">
      <use xlink:href="#DejaVuSans-99"/>
      <use x="54.980469" xlink:href="#DejaVuSans-111"/>
      <use x="116.162109" xlink:href="#DejaVuSans-117"/>
      <use x="179.541016" xlink:href="#DejaVuSans-110"/>
      <use x="242.919922" xlink:href="#DejaVuSans-116"/>
     </g>
    </g>
   </g>
   <g id="matplotlib.axis_4">
    <g id="ytick_41">
     <g id="line2d_104">
      <path clip-path="url(#pefa5ee0182)" d="M 482.037375 585.432382 
L 859.365375 585.432382 
" style="fill:none;stroke:#ffffff;stroke-linecap:round;stroke-width:0.8;"/>
     </g>
    </g>
    <g id="ytick_42">
     <g id="line2d_105">
      <path clip-path="url(#pefa5ee0182)" d="M 482.037375 571.310352 
L 859.365375 571.310352 
" style="fill:none;stroke:#ffffff;stroke-linecap:round;stroke-width:0.8;"/>
     </g>
    </g>
    <g id="ytick_43">
     <g id="line2d_106">
      <path clip-path="url(#pefa5ee0182)" d="M 482.037375 557.188322 
L 859.365375 557.188322 
" style="fill:none;stroke:#ffffff;stroke-linecap:round;stroke-width:0.8;"/>
     </g>
    </g>
    <g id="ytick_44">
     <g id="line2d_107">
      <path clip-path="url(#pefa5ee0182)" d="M 482.037375 543.066293 
L 859.365375 543.066293 
" style="fill:none;stroke:#ffffff;stroke-linecap:round;stroke-width:0.8;"/>
     </g>
    </g>
    <g id="ytick_45">
     <g id="line2d_108">
      <path clip-path="url(#pefa5ee0182)" d="M 482.037375 528.944263 
L 859.365375 528.944263 
" style="fill:none;stroke:#ffffff;stroke-linecap:round;stroke-width:0.8;"/>
     </g>
    </g>
    <g id="ytick_46">
     <g id="line2d_109">
      <path clip-path="url(#pefa5ee0182)" d="M 482.037375 514.822233 
L 859.365375 514.822233 
" style="fill:none;stroke:#ffffff;stroke-linecap:round;stroke-width:0.8;"/>
     </g>
    </g>
    <g id="ytick_47">
     <g id="line2d_110">
      <path clip-path="url(#pefa5ee0182)" d="M 482.037375 500.700203 
L 859.365375 500.700203 
" style="fill:none;stroke:#ffffff;stroke-linecap:round;stroke-width:0.8;"/>
     </g>
    </g>
    <g id="ytick_48">
     <g id="line2d_111">
      <path clip-path="url(#pefa5ee0182)" d="M 482.037375 486.578173 
L 859.365375 486.578173 
" style="fill:none;stroke:#ffffff;stroke-linecap:round;stroke-width:0.8;"/>
     </g>
    </g>
    <g id="ytick_49">
     <g id="line2d_112">
      <path clip-path="url(#pefa5ee0182)" d="M 482.037375 472.456143 
L 859.365375 472.456143 
" style="fill:none;stroke:#ffffff;stroke-linecap:round;stroke-width:0.8;"/>
     </g>
    </g>
    <g id="ytick_50">
     <g id="line2d_113">
      <path clip-path="url(#pefa5ee0182)" d="M 482.037375 458.334113 
L 859.365375 458.334113 
" style="fill:none;stroke:#ffffff;stroke-linecap:round;stroke-width:0.8;"/>
     </g>
    </g>
    <g id="ytick_51">
     <g id="line2d_114">
      <path clip-path="url(#pefa5ee0182)" d="M 482.037375 444.212084 
L 859.365375 444.212084 
" style="fill:none;stroke:#ffffff;stroke-linecap:round;stroke-width:0.8;"/>
     </g>
    </g>
    <g id="ytick_52">
     <g id="line2d_115">
      <path clip-path="url(#pefa5ee0182)" d="M 482.037375 430.090054 
L 859.365375 430.090054 
" style="fill:none;stroke:#ffffff;stroke-linecap:round;stroke-width:0.8;"/>
     </g>
    </g>
    <g id="ytick_53">
     <g id="line2d_116">
      <path clip-path="url(#pefa5ee0182)" d="M 482.037375 415.968024 
L 859.365375 415.968024 
" style="fill:none;stroke:#ffffff;stroke-linecap:round;stroke-width:0.8;"/>
     </g>
    </g>
    <g id="ytick_54">
     <g id="line2d_117">
      <path clip-path="url(#pefa5ee0182)" d="M 482.037375 401.845994 
L 859.365375 401.845994 
" style="fill:none;stroke:#ffffff;stroke-linecap:round;stroke-width:0.8;"/>
     </g>
    </g>
    <g id="ytick_55">
     <g id="line2d_118">
      <path clip-path="url(#pefa5ee0182)" d="M 482.037375 387.723964 
L 859.365375 387.723964 
" style="fill:none;stroke:#ffffff;stroke-linecap:round;stroke-width:0.8;"/>
     </g>
    </g>
    <g id="ytick_56">
     <g id="line2d_119">
      <path clip-path="url(#pefa5ee0182)" d="M 482.037375 373.601934 
L 859.365375 373.601934 
" style="fill:none;stroke:#ffffff;stroke-linecap:round;stroke-width:0.8;"/>
     </g>
    </g>
    <g id="ytick_57">
     <g id="line2d_120">
      <path clip-path="url(#pefa5ee0182)" d="M 482.037375 359.479904 
L 859.365375 359.479904 
" style="fill:none;stroke:#ffffff;stroke-linecap:round;stroke-width:0.8;"/>
     </g>
    </g>
    <g id="ytick_58">
     <g id="line2d_121">
      <path clip-path="url(#pefa5ee0182)" d="M 482.037375 345.357875 
L 859.365375 345.357875 
" style="fill:none;stroke:#ffffff;stroke-linecap:round;stroke-width:0.8;"/>
     </g>
    </g>
    <g id="ytick_59">
     <g id="line2d_122">
      <path clip-path="url(#pefa5ee0182)" d="M 482.037375 331.235845 
L 859.365375 331.235845 
" style="fill:none;stroke:#ffffff;stroke-linecap:round;stroke-width:0.8;"/>
     </g>
    </g>
    <g id="ytick_60">
     <g id="line2d_123">
      <path clip-path="url(#pefa5ee0182)" d="M 482.037375 317.113815 
L 859.365375 317.113815 
" style="fill:none;stroke:#ffffff;stroke-linecap:round;stroke-width:0.8;"/>
     </g>
    </g>
    <g id="ytick_61">
     <g id="line2d_124">
      <path clip-path="url(#pefa5ee0182)" d="M 482.037375 302.991785 
L 859.365375 302.991785 
" style="fill:none;stroke:#ffffff;stroke-linecap:round;stroke-width:0.8;"/>
     </g>
    </g>
    <g id="ytick_62">
     <g id="line2d_125">
      <path clip-path="url(#pefa5ee0182)" d="M 482.037375 288.869755 
L 859.365375 288.869755 
" style="fill:none;stroke:#ffffff;stroke-linecap:round;stroke-width:0.8;"/>
     </g>
    </g>
    <g id="ytick_63">
     <g id="line2d_126">
      <path clip-path="url(#pefa5ee0182)" d="M 482.037375 274.747725 
L 859.365375 274.747725 
" style="fill:none;stroke:#ffffff;stroke-linecap:round;stroke-width:0.8;"/>
     </g>
    </g>
    <g id="ytick_64">
     <g id="line2d_127">
      <path clip-path="url(#pefa5ee0182)" d="M 482.037375 260.625696 
L 859.365375 260.625696 
" style="fill:none;stroke:#ffffff;stroke-linecap:round;stroke-width:0.8;"/>
     </g>
    </g>
    <g id="ytick_65">
     <g id="line2d_128">
      <path clip-path="url(#pefa5ee0182)" d="M 482.037375 246.503666 
L 859.365375 246.503666 
" style="fill:none;stroke:#ffffff;stroke-linecap:round;stroke-width:0.8;"/>
     </g>
    </g>
    <g id="ytick_66">
     <g id="line2d_129">
      <path clip-path="url(#pefa5ee0182)" d="M 482.037375 232.381636 
L 859.365375 232.381636 
" style="fill:none;stroke:#ffffff;stroke-linecap:round;stroke-width:0.8;"/>
     </g>
    </g>
    <g id="ytick_67">
     <g id="line2d_130">
      <path clip-path="url(#pefa5ee0182)" d="M 482.037375 218.259606 
L 859.365375 218.259606 
" style="fill:none;stroke:#ffffff;stroke-linecap:round;stroke-width:0.8;"/>
     </g>
    </g>
    <g id="ytick_68">
     <g id="line2d_131">
      <path clip-path="url(#pefa5ee0182)" d="M 482.037375 204.137576 
L 859.365375 204.137576 
" style="fill:none;stroke:#ffffff;stroke-linecap:round;stroke-width:0.8;"/>
     </g>
    </g>
    <g id="ytick_69">
     <g id="line2d_132">
      <path clip-path="url(#pefa5ee0182)" d="M 482.037375 190.015546 
L 859.365375 190.015546 
" style="fill:none;stroke:#ffffff;stroke-linecap:round;stroke-width:0.8;"/>
     </g>
    </g>
    <g id="ytick_70">
     <g id="line2d_133">
      <path clip-path="url(#pefa5ee0182)" d="M 482.037375 175.893516 
L 859.365375 175.893516 
" style="fill:none;stroke:#ffffff;stroke-linecap:round;stroke-width:0.8;"/>
     </g>
    </g>
    <g id="ytick_71">
     <g id="line2d_134">
      <path clip-path="url(#pefa5ee0182)" d="M 482.037375 161.771487 
L 859.365375 161.771487 
" style="fill:none;stroke:#ffffff;stroke-linecap:round;stroke-width:0.8;"/>
     </g>
    </g>
    <g id="ytick_72">
     <g id="line2d_135">
      <path clip-path="url(#pefa5ee0182)" d="M 482.037375 147.649457 
L 859.365375 147.649457 
" style="fill:none;stroke:#ffffff;stroke-linecap:round;stroke-width:0.8;"/>
     </g>
    </g>
    <g id="ytick_73">
     <g id="line2d_136">
      <path clip-path="url(#pefa5ee0182)" d="M 482.037375 133.527427 
L 859.365375 133.527427 
" style="fill:none;stroke:#ffffff;stroke-linecap:round;stroke-width:0.8;"/>
     </g>
    </g>
    <g id="ytick_74">
     <g id="line2d_137">
      <path clip-path="url(#pefa5ee0182)" d="M 482.037375 119.405397 
L 859.365375 119.405397 
" style="fill:none;stroke:#ffffff;stroke-linecap:round;stroke-width:0.8;"/>
     </g>
    </g>
    <g id="ytick_75">
     <g id="line2d_138">
      <path clip-path="url(#pefa5ee0182)" d="M 482.037375 105.283367 
L 859.365375 105.283367 
" style="fill:none;stroke:#ffffff;stroke-linecap:round;stroke-width:0.8;"/>
     </g>
    </g>
    <g id="ytick_76">
     <g id="line2d_139">
      <path clip-path="url(#pefa5ee0182)" d="M 482.037375 91.161337 
L 859.365375 91.161337 
" style="fill:none;stroke:#ffffff;stroke-linecap:round;stroke-width:0.8;"/>
     </g>
    </g>
    <g id="ytick_77">
     <g id="line2d_140">
      <path clip-path="url(#pefa5ee0182)" d="M 482.037375 77.039307 
L 859.365375 77.039307 
" style="fill:none;stroke:#ffffff;stroke-linecap:round;stroke-width:0.8;"/>
     </g>
    </g>
    <g id="ytick_78">
     <g id="line2d_141">
      <path clip-path="url(#pefa5ee0182)" d="M 482.037375 62.917278 
L 859.365375 62.917278 
" style="fill:none;stroke:#ffffff;stroke-linecap:round;stroke-width:0.8;"/>
     </g>
    </g>
    <g id="ytick_79">
     <g id="line2d_142">
      <path clip-path="url(#pefa5ee0182)" d="M 482.037375 48.795248 
L 859.365375 48.795248 
" style="fill:none;stroke:#ffffff;stroke-linecap:round;stroke-width:0.8;"/>
     </g>
    </g>
    <g id="ytick_80">
     <g id="line2d_143">
      <path clip-path="url(#pefa5ee0182)" d="M 482.037375 34.673218 
L 859.365375 34.673218 
" style="fill:none;stroke:#ffffff;stroke-linecap:round;stroke-width:0.8;"/>
     </g>
    </g>
   </g>
   <g id="PolyCollection_2">
    <path clip-path="url(#pefa5ee0182)" d="M 499.188648 591.787296 
L 499.188648 579.077469 
L 570.008665 579.077469 
L 570.008665 591.787296 
z
" style="fill:#595959;"/>
    <path clip-path="url(#pefa5ee0182)" d="M 499.188648 577.665266 
L 499.188648 564.955439 
L 750.580493 564.955439 
L 750.580493 577.665266 
z
" style="fill:#595959;"/>
    <path clip-path="url(#pefa5ee0182)" d="M 499.188648 563.543236 
L 499.188648 550.833409 
L 621.237401 550.833409 
L 621.237401 563.543236 
z
" style="fill:#595959;"/>
    <path clip-path="url(#pefa5ee0182)" d="M 499.188648 549.421206 
L 499.188648 536.711379 
L 562.337769 536.711379 
L 562.337769 549.421206 
z
" style="fill:#595959;"/>
    <path clip-path="url(#pefa5ee0182)" d="M 499.188648 535.299176 
L 499.188648 522.589349 
L 573.800271 522.589349 
L 573.800271 535.299176 
z
" style="fill:#595959;"/>
    <path clip-path="url(#pefa5ee0182)" d="M 499.188648 521.177146 
L 499.188648 508.467319 
L 614.683723 508.467319 
L 614.683723 521.177146 
z
" style="fill:#595959;"/>
    <path clip-path="url(#pefa5ee0182)" d="M 499.188648 507.055116 
L 499.188648 494.34529 
L 696.013938 494.34529 
L 696.013938 507.055116 
z
" style="fill:#595959;"/>
    <path clip-path="url(#pefa5ee0182)" d="M 499.188648 492.933087 
L 499.188648 480.22326 
L 842.214102 480.22326 
L 842.214102 492.933087 
z
" style="fill:#595959;"/>
    <path clip-path="url(#pefa5ee0182)" d="M 499.188648 478.811057 
L 499.188648 466.10123 
L 566.247227 466.10123 
L 566.247227 478.811057 
z
" style="fill:#595959;"/>
    <path clip-path="url(#pefa5ee0182)" d="M 499.188648 464.689027 
L 499.188648 451.9792 
L 577.302761 451.9792 
L 577.302761 464.689027 
z
" style="fill:#595959;"/>
    <path clip-path="url(#pefa5ee0182)" d="M 499.188648 450.566997 
L 499.188648 437.85717 
L 583.549388 437.85717 
L 583.549388 450.566997 
z
" style="fill:#595959;"/>
    <path clip-path="url(#pefa5ee0182)" d="M 499.188648 436.444967 
L 499.188648 423.73514 
L 606.262072 423.73514 
L 606.262072 436.444967 
z
" style="fill:#595959;"/>
    <path clip-path="url(#pefa5ee0182)" d="M 499.188648 422.322937 
L 499.188648 409.61311 
L 567.737724 409.61311 
L 567.737724 422.322937 
z
" style="fill:#595959;"/>
    <path clip-path="url(#pefa5ee0182)" d="M 499.188648 408.200907 
L 499.188648 395.491081 
L 562.966937 395.491081 
L 562.966937 408.200907 
z
" style="fill:#595959;"/>
    <path clip-path="url(#pefa5ee0182)" d="M 499.188648 394.078878 
L 499.188648 381.369051 
L 572.16181 381.369051 
L 572.16181 394.078878 
z
" style="fill:#595959;"/>
    <path clip-path="url(#pefa5ee0182)" d="M 499.188648 379.956848 
L 499.188648 367.247021 
L 598.068128 367.247021 
L 598.068128 379.956848 
z
" style="fill:#595959;"/>
    <path clip-path="url(#pefa5ee0182)" d="M 499.188648 365.834818 
L 499.188648 353.124991 
L 580.314631 353.124991 
L 580.314631 365.834818 
z
" style="fill:#595959;"/>
    <path clip-path="url(#pefa5ee0182)" d="M 499.188648 351.712788 
L 499.188648 339.002961 
L 566.464919 339.002961 
L 566.464919 351.712788 
z
" style="fill:#595959;"/>
    <path clip-path="url(#pefa5ee0182)" d="M 499.188648 337.590758 
L 499.188648 324.880931 
L 649.314567 324.880931 
L 649.314567 337.590758 
z
" style="fill:#595959;"/>
    <path clip-path="url(#pefa5ee0182)" d="M 499.188648 323.468728 
L 499.188648 310.758901 
L 584.62093 310.758901 
L 584.62093 323.468728 
z
" style="fill:#595959;"/>
    <path clip-path="url(#pefa5ee0182)" d="M 499.188648 309.346699 
L 499.188648 296.636872 
L 650.114488 296.636872 
L 650.114488 309.346699 
z
" style="fill:#595959;"/>
    <path clip-path="url(#pefa5ee0182)" d="M 499.188648 295.224669 
L 499.188648 282.514842 
L 549.270684 282.514842 
L 549.270684 295.224669 
z
" style="fill:#595959;"/>
    <path clip-path="url(#pefa5ee0182)" d="M 499.188648 281.102639 
L 499.188648 268.392812 
L 542.378925 268.392812 
L 542.378925 281.102639 
z
" style="fill:#595959;"/>
    <path clip-path="url(#pefa5ee0182)" d="M 499.188648 266.980609 
L 499.188648 254.270782 
L 544.195916 254.270782 
L 544.195916 266.980609 
z
" style="fill:#595959;"/>
    <path clip-path="url(#pefa5ee0182)" d="M 499.188648 252.858579 
L 499.188648 240.148752 
L 567.240821 240.148752 
L 567.240821 252.858579 
z
" style="fill:#595959;"/>
    <path clip-path="url(#pefa5ee0182)" d="M 499.188648 238.736549 
L 499.188648 226.026722 
L 563.504941 226.026722 
L 563.504941 238.736549 
z
" style="fill:#595959;"/>
    <path clip-path="url(#pefa5ee0182)" d="M 499.188648 224.614519 
L 499.188648 211.904693 
L 539.43038 211.904693 
L 539.43038 224.614519 
z
" style="fill:#595959;"/>
    <path clip-path="url(#pefa5ee0182)" d="M 499.188648 210.49249 
L 499.188648 197.782663 
L 551.300403 197.782663 
L 551.300403 210.49249 
z
" style="fill:#595959;"/>
    <path clip-path="url(#pefa5ee0182)" d="M 499.188648 196.37046 
L 499.188648 183.660633 
L 571.4975 183.660633 
L 571.4975 196.37046 
z
" style="fill:#595959;"/>
    <path clip-path="url(#pefa5ee0182)" d="M 499.188648 182.24843 
L 499.188648 169.538603 
L 537.50019 169.538603 
L 537.50019 182.24843 
z
" style="fill:#595959;"/>
    <path clip-path="url(#pefa5ee0182)" d="M 499.188648 168.1264 
L 499.188648 155.416573 
L 546.327446 155.416573 
L 546.327446 168.1264 
z
" style="fill:#595959;"/>
    <path clip-path="url(#pefa5ee0182)" d="M 499.188648 154.00437 
L 499.188648 141.294543 
L 627.345912 141.294543 
L 627.345912 154.00437 
z
" style="fill:#595959;"/>
    <path clip-path="url(#pefa5ee0182)" d="M 499.188648 139.88234 
L 499.188648 127.172513 
L 536.12091 127.172513 
L 536.12091 139.88234 
z
" style="fill:#595959;"/>
    <path clip-path="url(#pefa5ee0182)" d="M 499.188648 125.76031 
L 499.188648 113.050484 
L 661.916644 113.050484 
L 661.916644 125.76031 
z
" style="fill:#595959;"/>
    <path clip-path="url(#pefa5ee0182)" d="M 499.188648 111.638281 
L 499.188648 98.928454 
L 541.570662 98.928454 
L 541.570662 111.638281 
z
" style="fill:#595959;"/>
    <path clip-path="url(#pefa5ee0182)" d="M 499.188648 97.516251 
L 499.188648 84.806424 
L 699.988515 84.806424 
L 699.988515 97.516251 
z
" style="fill:#595959;"/>
    <path clip-path="url(#pefa5ee0182)" d="M 499.188648 83.394221 
L 499.188648 70.684394 
L 692.58534 70.684394 
L 692.58534 83.394221 
z
" style="fill:#595959;"/>
    <path clip-path="url(#pefa5ee0182)" d="M 499.188648 69.272191 
L 499.188648 56.562364 
L 530.399691 56.562364 
L 530.399691 69.272191 
z
" style="fill:#595959;"/>
    <path clip-path="url(#pefa5ee0182)" d="M 499.188648 55.150161 
L 499.188648 42.440334 
L 529.248527 42.440334 
L 529.248527 55.150161 
z
" style="fill:#595959;"/>
    <path clip-path="url(#pefa5ee0182)" d="M 499.188648 41.028131 
L 499.188648 28.318304 
L 520.991114 28.318304 
L 520.991114 41.028131 
z
" style="fill:#595959;"/>
   </g>
   <g id="patch_9">
    <path d="M 482.037375 26.2 
L 859.365375 26.2 
L 859.365375 7.2 
L 482.037375 7.2 
z
" style="fill:#d3d3d3;"/>
   </g>
   <g id="patch_10">
    <path d="M 482.037375 593.9056 
L 482.037375 26.2 
" style="fill:none;stroke:#ffffff;stroke-linecap:square;stroke-linejoin:miter;"/>
   </g>
   <g id="patch_11">
    <path d="M 859.365375 593.9056 
L 859.365375 26.2 
" style="fill:none;stroke:#ffffff;stroke-linecap:square;stroke-linejoin:miter;"/>
   </g>
   <g id="patch_12">
    <path d="M 482.037375 593.9056 
L 859.365375 593.9056 
" style="fill:none;stroke:#ffffff;stroke-linecap:square;stroke-linejoin:miter;"/>
   </g>
   <g id="patch_13">
    <path d="M 482.037375 26.2 
L 859.365375 26.2 
" style="fill:none;stroke:#ffffff;stroke-linecap:square;stroke-linejoin:miter;"/>
   </g>
   <g id="text_51">
    <!-- pmc -->
    <g style="fill:#262626;" transform="translate(656.6695 20.287188)scale(0.13 -0.13)">
     <use xlink:href="#DejaVuSans-112"/>
     <use x="63.476562" xlink:href="#DejaVuSans-109"/>
     <use x="160.888672" xlink:href="#DejaVuSans-99"/>
    </g>
   </g>
  </g>
 </g>
 <defs>
  <clipPath id="p1582059e06">
   <rect height="567.7056" width="377.328" x="97.509375" y="26.2"/>
  </clipPath>
  <clipPath id="pefa5ee0182">
   <rect height="567.7056" width="377.328" x="482.037375" y="26.2"/>
  </clipPath>
 </defs>
</svg>
