<?xml version="1.0" encoding="utf-8" standalone="no"?>
<!DOCTYPE svg PUBLIC "-//W3C//DTD SVG 1.1//EN"
  "http://www.w3.org/Graphics/SVG/1.1/DTD/svg11.dtd">
<!-- Created with matplotlib (https://matplotlib.org/) -->
<svg height="378.009163pt" version="1.1" viewBox="0 0 626.40885 378.009163" width="626.40885pt" xmlns="http://www.w3.org/2000/svg" xmlns:xlink="http://www.w3.org/1999/xlink">
 <defs>
  <style type="text/css">
*{stroke-linecap:butt;stroke-linejoin:round;}
  </style>
 </defs>
 <g id="figure_1">
  <g id="patch_1">
   <path d="M 0 378.009163 
L 626.40885 378.009163 
L 626.40885 0 
L 0 0 
z
" style="fill:#ffffff;"/>
  </g>
  <g id="axes_1">
   <g id="patch_2">
    <path d="M 61.20885 339.84 
L 619.20885 339.84 
L 619.20885 7.2 
L 61.20885 7.2 
z
" style="fill:#ffffff;"/>
   </g>
   <g id="matplotlib.axis_1">
    <g id="xtick_1">
     <g id="line2d_1">
      <defs>
       <path d="M 0 0 
L 0 4.8 
" id="mb414c3b954" style="stroke:#262626;"/>
      </defs>
      <g>
       <use style="fill:#262626;stroke:#262626;" x="171.117941" xlink:href="#mb414c3b954" y="339.84"/>
      </g>
     </g>
     <g id="text_1">
      <!-- −2 -->
      <defs>
       <path d="M 52.828125 31.203125 
L 5.5625 31.203125 
L 5.5625 39.40625 
L 52.828125 39.40625 
z
" id="ArialMT-8722"/>
       <path d="M 50.34375 8.453125 
L 50.34375 0 
L 3.03125 0 
Q 2.9375 3.171875 4.046875 6.109375 
Q 5.859375 10.9375 9.828125 15.625 
Q 13.8125 20.3125 21.34375 26.46875 
Q 33.015625 36.03125 37.109375 41.625 
Q 41.21875 47.21875 41.21875 52.203125 
Q 41.21875 57.421875 37.46875 61 
Q 33.734375 64.59375 27.734375 64.59375 
Q 21.390625 64.59375 17.578125 60.78125 
Q 13.765625 56.984375 13.71875 50.25 
L 4.6875 51.171875 
Q 5.609375 61.28125 11.65625 66.578125 
Q 17.71875 71.875 27.9375 71.875 
Q 38.234375 71.875 44.234375 66.15625 
Q 50.25 60.453125 50.25 52 
Q 50.25 47.703125 48.484375 43.546875 
Q 46.734375 39.40625 42.65625 34.8125 
Q 38.578125 30.21875 29.109375 22.21875 
Q 21.1875 15.578125 18.9375 13.203125 
Q 16.703125 10.84375 15.234375 8.453125 
z
" id="ArialMT-50"/>
      </defs>
      <g style="fill:#262626;" transform="translate(165.599585 353.968762)scale(0.0968 -0.0968)">
       <use xlink:href="#ArialMT-8722"/>
       <use x="58.398438" xlink:href="#ArialMT-50"/>
      </g>
     </g>
    </g>
    <g id="xtick_2">
     <g id="line2d_2">
      <g>
       <use style="fill:#262626;stroke:#262626;" x="340.20885" xlink:href="#mb414c3b954" y="339.84"/>
      </g>
     </g>
     <g id="text_2">
      <!-- 0 -->
      <defs>
       <path d="M 4.15625 35.296875 
Q 4.15625 48 6.765625 55.734375 
Q 9.375 63.484375 14.515625 67.671875 
Q 19.671875 71.875 27.484375 71.875 
Q 33.25 71.875 37.59375 69.546875 
Q 41.9375 67.234375 44.765625 62.859375 
Q 47.609375 58.5 49.21875 52.21875 
Q 50.828125 45.953125 50.828125 35.296875 
Q 50.828125 22.703125 48.234375 14.96875 
Q 45.65625 7.234375 40.5 3 
Q 35.359375 -1.21875 27.484375 -1.21875 
Q 17.140625 -1.21875 11.234375 6.203125 
Q 4.15625 15.140625 4.15625 35.296875 
z
M 13.1875 35.296875 
Q 13.1875 17.671875 17.3125 11.828125 
Q 21.4375 6 27.484375 6 
Q 33.546875 6 37.671875 11.859375 
Q 41.796875 17.71875 41.796875 35.296875 
Q 41.796875 52.984375 37.671875 58.78125 
Q 33.546875 64.59375 27.390625 64.59375 
Q 21.34375 64.59375 17.71875 59.46875 
Q 13.1875 52.9375 13.1875 35.296875 
z
" id="ArialMT-48"/>
      </defs>
      <g style="fill:#262626;" transform="translate(337.517356 353.968762)scale(0.0968 -0.0968)">
       <use xlink:href="#ArialMT-48"/>
      </g>
     </g>
    </g>
    <g id="xtick_3">
     <g id="line2d_3">
      <g>
       <use style="fill:#262626;stroke:#262626;" x="509.299759" xlink:href="#mb414c3b954" y="339.84"/>
      </g>
     </g>
     <g id="text_3">
      <!-- 2 -->
      <g style="fill:#262626;" transform="translate(506.608265 353.968762)scale(0.0968 -0.0968)">
       <use xlink:href="#ArialMT-50"/>
      </g>
     </g>
    </g>
    <g id="xtick_4">
     <g id="line2d_4">
      <defs>
       <path d="M 0 0 
L 0 3.2 
" id="ma77cc7d7fa" style="stroke:#262626;stroke-width:0.8;"/>
      </defs>
      <g>
       <use style="fill:#262626;stroke:#262626;stroke-width:0.8;" x="86.572486" xlink:href="#ma77cc7d7fa" y="339.84"/>
      </g>
     </g>
    </g>
    <g id="xtick_5">
     <g id="line2d_5">
      <g>
       <use style="fill:#262626;stroke:#262626;stroke-width:0.8;" x="255.663395" xlink:href="#ma77cc7d7fa" y="339.84"/>
      </g>
     </g>
    </g>
    <g id="xtick_6">
     <g id="line2d_6">
      <g>
       <use style="fill:#262626;stroke:#262626;stroke-width:0.8;" x="424.754305" xlink:href="#ma77cc7d7fa" y="339.84"/>
      </g>
     </g>
    </g>
    <g id="xtick_7">
     <g id="line2d_7">
      <g>
       <use style="fill:#262626;stroke:#262626;stroke-width:0.8;" x="593.845214" xlink:href="#ma77cc7d7fa" y="339.84"/>
      </g>
     </g>
    </g>
    <g id="text_4">
     <!-- bioRxiv vs PMC log2(Odds Ratio) -->
     <defs>
      <path d="M 14.703125 0 
L 6.546875 0 
L 6.546875 71.578125 
L 15.328125 71.578125 
L 15.328125 46.046875 
Q 20.90625 53.03125 29.546875 53.03125 
Q 34.328125 53.03125 38.59375 51.09375 
Q 42.875 49.171875 45.625 45.671875 
Q 48.390625 42.1875 49.953125 37.25 
Q 51.515625 32.328125 51.515625 26.703125 
Q 51.515625 13.375 44.921875 6.09375 
Q 38.328125 -1.171875 29.109375 -1.171875 
Q 19.921875 -1.171875 14.703125 6.5 
z
M 14.59375 26.3125 
Q 14.59375 17 17.140625 12.84375 
Q 21.296875 6.0625 28.375 6.0625 
Q 34.125 6.0625 38.328125 11.0625 
Q 42.53125 16.0625 42.53125 25.984375 
Q 42.53125 36.140625 38.5 40.96875 
Q 34.46875 45.796875 28.765625 45.796875 
Q 23 45.796875 18.796875 40.796875 
Q 14.59375 35.796875 14.59375 26.3125 
z
" id="ArialMT-98"/>
      <path d="M 6.640625 61.46875 
L 6.640625 71.578125 
L 15.4375 71.578125 
L 15.4375 61.46875 
z
M 6.640625 0 
L 6.640625 51.859375 
L 15.4375 51.859375 
L 15.4375 0 
z
" id="ArialMT-105"/>
      <path d="M 3.328125 25.921875 
Q 3.328125 40.328125 11.328125 47.265625 
Q 18.015625 53.03125 27.640625 53.03125 
Q 38.328125 53.03125 45.109375 46.015625 
Q 51.90625 39.015625 51.90625 26.65625 
Q 51.90625 16.65625 48.90625 10.90625 
Q 45.90625 5.171875 40.15625 2 
Q 34.421875 -1.171875 27.640625 -1.171875 
Q 16.75 -1.171875 10.03125 5.8125 
Q 3.328125 12.796875 3.328125 25.921875 
z
M 12.359375 25.921875 
Q 12.359375 15.96875 16.703125 11.015625 
Q 21.046875 6.0625 27.640625 6.0625 
Q 34.1875 6.0625 38.53125 11.03125 
Q 42.875 16.015625 42.875 26.21875 
Q 42.875 35.84375 38.5 40.796875 
Q 34.125 45.75 27.640625 45.75 
Q 21.046875 45.75 16.703125 40.8125 
Q 12.359375 35.890625 12.359375 25.921875 
z
" id="ArialMT-111"/>
      <path d="M 7.859375 0 
L 7.859375 71.578125 
L 39.59375 71.578125 
Q 49.171875 71.578125 54.140625 69.640625 
Q 59.125 67.71875 62.109375 62.828125 
Q 65.09375 57.953125 65.09375 52.046875 
Q 65.09375 44.4375 60.15625 39.203125 
Q 55.21875 33.984375 44.921875 32.5625 
Q 48.6875 30.765625 50.640625 29 
Q 54.78125 25.203125 58.5 19.484375 
L 70.953125 0 
L 59.03125 0 
L 49.5625 14.890625 
Q 45.40625 21.34375 42.71875 24.75 
Q 40.046875 28.171875 37.921875 29.53125 
Q 35.796875 30.90625 33.59375 31.453125 
Q 31.984375 31.78125 28.328125 31.78125 
L 17.328125 31.78125 
L 17.328125 0 
z
M 17.328125 39.984375 
L 37.703125 39.984375 
Q 44.1875 39.984375 47.84375 41.328125 
Q 51.515625 42.671875 53.421875 45.625 
Q 55.328125 48.578125 55.328125 52.046875 
Q 55.328125 57.125 51.640625 60.390625 
Q 47.953125 63.671875 39.984375 63.671875 
L 17.328125 63.671875 
z
" id="ArialMT-82"/>
      <path d="M 0.734375 0 
L 19.671875 26.953125 
L 2.15625 51.859375 
L 13.140625 51.859375 
L 21.09375 39.703125 
Q 23.34375 36.234375 24.703125 33.890625 
Q 26.859375 37.109375 28.65625 39.59375 
L 37.40625 51.859375 
L 47.90625 51.859375 
L 29.984375 27.4375 
L 49.265625 0 
L 38.484375 0 
L 27.828125 16.109375 
L 25 20.453125 
L 11.375 0 
z
" id="ArialMT-120"/>
      <path d="M 21 0 
L 1.265625 51.859375 
L 10.546875 51.859375 
L 21.6875 20.796875 
Q 23.484375 15.765625 25 10.359375 
Q 26.171875 14.453125 28.265625 20.21875 
L 39.796875 51.859375 
L 48.828125 51.859375 
L 29.203125 0 
z
" id="ArialMT-118"/>
      <path id="ArialMT-32"/>
      <path d="M 3.078125 15.484375 
L 11.765625 16.84375 
Q 12.5 11.625 15.84375 8.84375 
Q 19.1875 6.0625 25.203125 6.0625 
Q 31.25 6.0625 34.171875 8.515625 
Q 37.109375 10.984375 37.109375 14.3125 
Q 37.109375 17.28125 34.515625 19 
Q 32.71875 20.171875 25.53125 21.96875 
Q 15.875 24.421875 12.140625 26.203125 
Q 8.40625 27.984375 6.46875 31.125 
Q 4.546875 34.28125 4.546875 38.09375 
Q 4.546875 41.546875 6.125 44.5 
Q 7.71875 47.46875 10.453125 49.421875 
Q 12.5 50.921875 16.03125 51.96875 
Q 19.578125 53.03125 23.640625 53.03125 
Q 29.734375 53.03125 34.34375 51.265625 
Q 38.96875 49.515625 41.15625 46.5 
Q 43.359375 43.5 44.1875 38.484375 
L 35.59375 37.3125 
Q 35.015625 41.3125 32.203125 43.546875 
Q 29.390625 45.796875 24.265625 45.796875 
Q 18.21875 45.796875 15.625 43.796875 
Q 13.03125 41.796875 13.03125 39.109375 
Q 13.03125 37.40625 14.109375 36.03125 
Q 15.1875 34.625 17.484375 33.6875 
Q 18.796875 33.203125 25.25 31.453125 
Q 34.578125 28.953125 38.25 27.359375 
Q 41.9375 25.78125 44.03125 22.75 
Q 46.140625 19.734375 46.140625 15.234375 
Q 46.140625 10.84375 43.578125 6.953125 
Q 41.015625 3.078125 36.171875 0.953125 
Q 31.34375 -1.171875 25.25 -1.171875 
Q 15.140625 -1.171875 9.84375 3.03125 
Q 4.546875 7.234375 3.078125 15.484375 
z
" id="ArialMT-115"/>
      <path d="M 7.71875 0 
L 7.71875 71.578125 
L 34.71875 71.578125 
Q 41.84375 71.578125 45.609375 70.90625 
Q 50.875 70.015625 54.4375 67.546875 
Q 58.015625 65.09375 60.1875 60.640625 
Q 62.359375 56.203125 62.359375 50.875 
Q 62.359375 41.75 56.546875 35.421875 
Q 50.734375 29.109375 35.546875 29.109375 
L 17.1875 29.109375 
L 17.1875 0 
z
M 17.1875 37.546875 
L 35.6875 37.546875 
Q 44.875 37.546875 48.734375 40.96875 
Q 52.59375 44.390625 52.59375 50.59375 
Q 52.59375 55.078125 50.3125 58.265625 
Q 48.046875 61.46875 44.34375 62.5 
Q 41.9375 63.140625 35.5 63.140625 
L 17.1875 63.140625 
z
" id="ArialMT-80"/>
      <path d="M 7.421875 0 
L 7.421875 71.578125 
L 21.6875 71.578125 
L 38.625 20.90625 
Q 40.96875 13.8125 42.046875 10.296875 
Q 43.265625 14.203125 45.84375 21.78125 
L 62.984375 71.578125 
L 75.734375 71.578125 
L 75.734375 0 
L 66.609375 0 
L 66.609375 59.90625 
L 45.796875 0 
L 37.25 0 
L 16.546875 60.9375 
L 16.546875 0 
z
" id="ArialMT-77"/>
      <path d="M 58.796875 25.09375 
L 68.265625 22.703125 
Q 65.28125 11.03125 57.546875 4.90625 
Q 49.8125 -1.21875 38.625 -1.21875 
Q 27.046875 -1.21875 19.796875 3.484375 
Q 12.546875 8.203125 8.765625 17.140625 
Q 4.984375 26.078125 4.984375 36.328125 
Q 4.984375 47.515625 9.25 55.828125 
Q 13.53125 64.15625 21.40625 68.46875 
Q 29.296875 72.796875 38.765625 72.796875 
Q 49.515625 72.796875 56.828125 67.328125 
Q 64.15625 61.859375 67.046875 51.953125 
L 57.71875 49.75 
Q 55.21875 57.5625 50.484375 61.125 
Q 45.75 64.703125 38.578125 64.703125 
Q 30.328125 64.703125 24.78125 60.734375 
Q 19.234375 56.78125 16.984375 50.109375 
Q 14.75 43.453125 14.75 36.375 
Q 14.75 27.25 17.40625 20.4375 
Q 20.0625 13.625 25.671875 10.25 
Q 31.296875 6.890625 37.84375 6.890625 
Q 45.796875 6.890625 51.3125 11.46875 
Q 56.84375 16.0625 58.796875 25.09375 
z
" id="ArialMT-67"/>
      <path d="M 6.390625 0 
L 6.390625 71.578125 
L 15.1875 71.578125 
L 15.1875 0 
z
" id="ArialMT-108"/>
      <path d="M 4.984375 -4.296875 
L 13.53125 -5.5625 
Q 14.0625 -9.515625 16.5 -11.328125 
Q 19.78125 -13.765625 25.4375 -13.765625 
Q 31.546875 -13.765625 34.859375 -11.328125 
Q 38.1875 -8.890625 39.359375 -4.5 
Q 40.046875 -1.8125 39.984375 6.78125 
Q 34.234375 0 25.640625 0 
Q 14.9375 0 9.078125 7.71875 
Q 3.21875 15.4375 3.21875 26.21875 
Q 3.21875 33.640625 5.90625 39.90625 
Q 8.59375 46.1875 13.6875 49.609375 
Q 18.796875 53.03125 25.6875 53.03125 
Q 34.859375 53.03125 40.828125 45.609375 
L 40.828125 51.859375 
L 48.921875 51.859375 
L 48.921875 7.03125 
Q 48.921875 -5.078125 46.453125 -10.125 
Q 44 -15.1875 38.640625 -18.109375 
Q 33.296875 -21.046875 25.484375 -21.046875 
Q 16.21875 -21.046875 10.5 -16.875 
Q 4.78125 -12.703125 4.984375 -4.296875 
z
M 12.25 26.859375 
Q 12.25 16.65625 16.296875 11.96875 
Q 20.359375 7.28125 26.46875 7.28125 
Q 32.515625 7.28125 36.609375 11.9375 
Q 40.71875 16.609375 40.71875 26.5625 
Q 40.71875 36.078125 36.5 40.90625 
Q 32.28125 45.75 26.3125 45.75 
Q 20.453125 45.75 16.34375 40.984375 
Q 12.25 36.234375 12.25 26.859375 
z
" id="ArialMT-103"/>
      <path d="M 23.390625 -21.046875 
Q 16.109375 -11.859375 11.078125 0.4375 
Q 6.0625 12.75 6.0625 25.921875 
Q 6.0625 37.546875 9.8125 48.1875 
Q 14.203125 60.546875 23.390625 72.796875 
L 29.6875 72.796875 
Q 23.78125 62.640625 21.875 58.296875 
Q 18.890625 51.5625 17.1875 44.234375 
Q 15.09375 35.109375 15.09375 25.875 
Q 15.09375 2.390625 29.6875 -21.046875 
z
" id="ArialMT-40"/>
      <path d="M 4.828125 34.859375 
Q 4.828125 52.6875 14.390625 62.765625 
Q 23.96875 72.859375 39.109375 72.859375 
Q 49.03125 72.859375 56.984375 68.109375 
Q 64.9375 63.375 69.109375 54.90625 
Q 73.296875 46.4375 73.296875 35.6875 
Q 73.296875 24.8125 68.890625 16.21875 
Q 64.5 7.625 56.4375 3.203125 
Q 48.390625 -1.21875 39.0625 -1.21875 
Q 28.953125 -1.21875 20.984375 3.65625 
Q 13.03125 8.546875 8.921875 16.984375 
Q 4.828125 25.4375 4.828125 34.859375 
z
M 14.59375 34.71875 
Q 14.59375 21.78125 21.546875 14.328125 
Q 28.515625 6.890625 39.015625 6.890625 
Q 49.703125 6.890625 56.609375 14.40625 
Q 63.53125 21.921875 63.53125 35.75 
Q 63.53125 44.484375 60.578125 51 
Q 57.625 57.515625 51.921875 61.109375 
Q 46.234375 64.703125 39.15625 64.703125 
Q 29.109375 64.703125 21.84375 57.78125 
Q 14.59375 50.875 14.59375 34.71875 
z
" id="ArialMT-79"/>
      <path d="M 40.234375 0 
L 40.234375 6.546875 
Q 35.296875 -1.171875 25.734375 -1.171875 
Q 19.53125 -1.171875 14.328125 2.25 
Q 9.125 5.671875 6.265625 11.796875 
Q 3.421875 17.921875 3.421875 25.875 
Q 3.421875 33.640625 6 39.96875 
Q 8.59375 46.296875 13.765625 49.65625 
Q 18.953125 53.03125 25.34375 53.03125 
Q 30.03125 53.03125 33.6875 51.046875 
Q 37.359375 49.078125 39.65625 45.90625 
L 39.65625 71.578125 
L 48.390625 71.578125 
L 48.390625 0 
z
M 12.453125 25.875 
Q 12.453125 15.921875 16.640625 10.984375 
Q 20.84375 6.0625 26.5625 6.0625 
Q 32.328125 6.0625 36.34375 10.765625 
Q 40.375 15.484375 40.375 25.140625 
Q 40.375 35.796875 36.265625 40.765625 
Q 32.171875 45.75 26.171875 45.75 
Q 20.3125 45.75 16.375 40.96875 
Q 12.453125 36.1875 12.453125 25.875 
z
" id="ArialMT-100"/>
      <path d="M 40.4375 6.390625 
Q 35.546875 2.25 31.03125 0.53125 
Q 26.515625 -1.171875 21.34375 -1.171875 
Q 12.796875 -1.171875 8.203125 3 
Q 3.609375 7.171875 3.609375 13.671875 
Q 3.609375 17.484375 5.34375 20.625 
Q 7.078125 23.78125 9.890625 25.6875 
Q 12.703125 27.59375 16.21875 28.5625 
Q 18.796875 29.25 24.03125 29.890625 
Q 34.671875 31.15625 39.703125 32.90625 
Q 39.75 34.71875 39.75 35.203125 
Q 39.75 40.578125 37.25 42.78125 
Q 33.890625 45.75 27.25 45.75 
Q 21.046875 45.75 18.09375 43.578125 
Q 15.140625 41.40625 13.71875 35.890625 
L 5.125 37.0625 
Q 6.296875 42.578125 8.984375 45.96875 
Q 11.671875 49.359375 16.75 51.1875 
Q 21.828125 53.03125 28.515625 53.03125 
Q 35.15625 53.03125 39.296875 51.46875 
Q 43.453125 49.90625 45.40625 47.53125 
Q 47.359375 45.171875 48.140625 41.546875 
Q 48.578125 39.3125 48.578125 33.453125 
L 48.578125 21.734375 
Q 48.578125 9.46875 49.140625 6.21875 
Q 49.703125 2.984375 51.375 0 
L 42.1875 0 
Q 40.828125 2.734375 40.4375 6.390625 
z
M 39.703125 26.03125 
Q 34.90625 24.078125 25.34375 22.703125 
Q 19.921875 21.921875 17.671875 20.9375 
Q 15.4375 19.96875 14.203125 18.09375 
Q 12.984375 16.21875 12.984375 13.921875 
Q 12.984375 10.40625 15.640625 8.0625 
Q 18.3125 5.71875 23.4375 5.71875 
Q 28.515625 5.71875 32.46875 7.9375 
Q 36.421875 10.15625 38.28125 14.015625 
Q 39.703125 17 39.703125 22.796875 
z
" id="ArialMT-97"/>
      <path d="M 25.78125 7.859375 
L 27.046875 0.09375 
Q 23.34375 -0.6875 20.40625 -0.6875 
Q 15.625 -0.6875 12.984375 0.828125 
Q 10.359375 2.34375 9.28125 4.8125 
Q 8.203125 7.28125 8.203125 15.1875 
L 8.203125 45.015625 
L 1.765625 45.015625 
L 1.765625 51.859375 
L 8.203125 51.859375 
L 8.203125 64.703125 
L 16.9375 69.96875 
L 16.9375 51.859375 
L 25.78125 51.859375 
L 25.78125 45.015625 
L 16.9375 45.015625 
L 16.9375 14.703125 
Q 16.9375 10.9375 17.40625 9.859375 
Q 17.875 8.796875 18.921875 8.15625 
Q 19.96875 7.515625 21.921875 7.515625 
Q 23.390625 7.515625 25.78125 7.859375 
z
" id="ArialMT-116"/>
      <path d="M 12.359375 -21.046875 
L 6.0625 -21.046875 
Q 20.65625 2.390625 20.65625 25.875 
Q 20.65625 35.0625 18.5625 44.09375 
Q 16.890625 51.421875 13.921875 58.15625 
Q 12.015625 62.546875 6.0625 72.796875 
L 12.359375 72.796875 
Q 21.53125 60.546875 25.921875 48.1875 
Q 29.6875 37.546875 29.6875 25.921875 
Q 29.6875 12.75 24.625 0.4375 
Q 19.578125 -11.859375 12.359375 -21.046875 
z
" id="ArialMT-41"/>
     </defs>
     <g style="fill:#262626;" transform="translate(252.573975 368.586613)scale(0.1056 -0.1056)">
      <use xlink:href="#ArialMT-98"/>
      <use x="55.615234" xlink:href="#ArialMT-105"/>
      <use x="77.832031" xlink:href="#ArialMT-111"/>
      <use x="133.447266" xlink:href="#ArialMT-82"/>
      <use x="205.664062" xlink:href="#ArialMT-120"/>
      <use x="255.664062" xlink:href="#ArialMT-105"/>
      <use x="277.880859" xlink:href="#ArialMT-118"/>
      <use x="327.880859" xlink:href="#ArialMT-32"/>
      <use x="355.664062" xlink:href="#ArialMT-118"/>
      <use x="405.664062" xlink:href="#ArialMT-115"/>
      <use x="455.664062" xlink:href="#ArialMT-32"/>
      <use x="483.447266" xlink:href="#ArialMT-80"/>
      <use x="550.146484" xlink:href="#ArialMT-77"/>
      <use x="633.447266" xlink:href="#ArialMT-67"/>
      <use x="705.664062" xlink:href="#ArialMT-32"/>
      <use x="733.447266" xlink:href="#ArialMT-108"/>
      <use x="755.664062" xlink:href="#ArialMT-111"/>
      <use x="811.279297" xlink:href="#ArialMT-103"/>
      <use x="866.894531" xlink:href="#ArialMT-50"/>
      <use x="922.509766" xlink:href="#ArialMT-40"/>
      <use x="955.810547" xlink:href="#ArialMT-79"/>
      <use x="1033.59375" xlink:href="#ArialMT-100"/>
      <use x="1089.208984" xlink:href="#ArialMT-100"/>
      <use x="1144.824219" xlink:href="#ArialMT-115"/>
      <use x="1194.824219" xlink:href="#ArialMT-32"/>
      <use x="1222.607422" xlink:href="#ArialMT-82"/>
      <use x="1294.824219" xlink:href="#ArialMT-97"/>
      <use x="1350.439453" xlink:href="#ArialMT-116"/>
      <use x="1378.222656" xlink:href="#ArialMT-105"/>
      <use x="1400.439453" xlink:href="#ArialMT-111"/>
      <use x="1456.054688" xlink:href="#ArialMT-41"/>
     </g>
    </g>
   </g>
   <g id="matplotlib.axis_2">
    <g id="ytick_1">
     <g id="line2d_8">
      <defs>
       <path d="M 0 0 
L -4.8 0 
" id="m5135bb89af" style="stroke:#262626;"/>
      </defs>
      <g>
       <use style="fill:#262626;stroke:#262626;" x="61.20885" xlink:href="#m5135bb89af" y="334.875224"/>
      </g>
     </g>
     <g id="text_5">
      <!-- patients -->
      <defs>
       <path d="M 6.59375 -19.875 
L 6.59375 51.859375 
L 14.59375 51.859375 
L 14.59375 45.125 
Q 17.4375 49.078125 21 51.046875 
Q 24.5625 53.03125 29.640625 53.03125 
Q 36.28125 53.03125 41.359375 49.609375 
Q 46.4375 46.1875 49.015625 39.953125 
Q 51.609375 33.734375 51.609375 26.3125 
Q 51.609375 18.359375 48.75 11.984375 
Q 45.90625 5.609375 40.453125 2.21875 
Q 35.015625 -1.171875 29 -1.171875 
Q 24.609375 -1.171875 21.109375 0.6875 
Q 17.625 2.546875 15.375 5.375 
L 15.375 -19.875 
z
M 14.546875 25.640625 
Q 14.546875 15.625 18.59375 10.84375 
Q 22.65625 6.0625 28.421875 6.0625 
Q 34.28125 6.0625 38.453125 11.015625 
Q 42.625 15.96875 42.625 26.375 
Q 42.625 36.28125 38.546875 41.203125 
Q 34.46875 46.140625 28.8125 46.140625 
Q 23.1875 46.140625 18.859375 40.890625 
Q 14.546875 35.640625 14.546875 25.640625 
z
" id="ArialMT-112"/>
       <path d="M 42.09375 16.703125 
L 51.171875 15.578125 
Q 49.03125 7.625 43.21875 3.21875 
Q 37.40625 -1.171875 28.375 -1.171875 
Q 17 -1.171875 10.328125 5.828125 
Q 3.65625 12.84375 3.65625 25.484375 
Q 3.65625 38.578125 10.390625 45.796875 
Q 17.140625 53.03125 27.875 53.03125 
Q 38.28125 53.03125 44.875 45.953125 
Q 51.46875 38.875 51.46875 26.03125 
Q 51.46875 25.25 51.421875 23.6875 
L 12.75 23.6875 
Q 13.234375 15.140625 17.578125 10.59375 
Q 21.921875 6.0625 28.421875 6.0625 
Q 33.25 6.0625 36.671875 8.59375 
Q 40.09375 11.140625 42.09375 16.703125 
z
M 13.234375 30.90625 
L 42.1875 30.90625 
Q 41.609375 37.453125 38.875 40.71875 
Q 34.671875 45.796875 27.984375 45.796875 
Q 21.921875 45.796875 17.796875 41.75 
Q 13.671875 37.703125 13.234375 30.90625 
z
" id="ArialMT-101"/>
       <path d="M 6.59375 0 
L 6.59375 51.859375 
L 14.5 51.859375 
L 14.5 44.484375 
Q 20.21875 53.03125 31 53.03125 
Q 35.6875 53.03125 39.625 51.34375 
Q 43.5625 49.65625 45.515625 46.921875 
Q 47.46875 44.1875 48.25 40.4375 
Q 48.734375 37.984375 48.734375 31.890625 
L 48.734375 0 
L 39.9375 0 
L 39.9375 31.546875 
Q 39.9375 36.921875 38.90625 39.578125 
Q 37.890625 42.234375 35.28125 43.8125 
Q 32.671875 45.40625 29.15625 45.40625 
Q 23.53125 45.40625 19.453125 41.84375 
Q 15.375 38.28125 15.375 28.328125 
L 15.375 0 
z
" id="ArialMT-110"/>
      </defs>
      <g style="fill:#262626;" transform="translate(20.107675 338.339605)scale(0.0968 -0.0968)">
       <use xlink:href="#ArialMT-112"/>
       <use x="55.615234" xlink:href="#ArialMT-97"/>
       <use x="111.230469" xlink:href="#ArialMT-116"/>
       <use x="139.013672" xlink:href="#ArialMT-105"/>
       <use x="161.230469" xlink:href="#ArialMT-101"/>
       <use x="216.845703" xlink:href="#ArialMT-110"/>
       <use x="272.460938" xlink:href="#ArialMT-116"/>
       <use x="300.244141" xlink:href="#ArialMT-115"/>
      </g>
     </g>
    </g>
    <g id="ytick_2">
     <g id="line2d_9">
      <g>
       <use style="fill:#262626;stroke:#262626;" x="61.20885" xlink:href="#m5135bb89af" y="326.600597"/>
      </g>
     </g>
     <g id="text_6">
      <!-- health -->
      <defs>
       <path d="M 6.59375 0 
L 6.59375 71.578125 
L 15.375 71.578125 
L 15.375 45.90625 
Q 21.53125 53.03125 30.90625 53.03125 
Q 36.671875 53.03125 40.921875 50.75 
Q 45.171875 48.484375 47 44.484375 
Q 48.828125 40.484375 48.828125 32.859375 
L 48.828125 0 
L 40.046875 0 
L 40.046875 32.859375 
Q 40.046875 39.453125 37.1875 42.453125 
Q 34.328125 45.453125 29.109375 45.453125 
Q 25.203125 45.453125 21.75 43.421875 
Q 18.3125 41.40625 16.84375 37.9375 
Q 15.375 34.46875 15.375 28.375 
L 15.375 0 
z
" id="ArialMT-104"/>
      </defs>
      <g style="fill:#262626;" transform="translate(27.6369 330.064978)scale(0.0968 -0.0968)">
       <use xlink:href="#ArialMT-104"/>
       <use x="55.615234" xlink:href="#ArialMT-101"/>
       <use x="111.230469" xlink:href="#ArialMT-97"/>
       <use x="166.845703" xlink:href="#ArialMT-108"/>
       <use x="189.0625" xlink:href="#ArialMT-116"/>
       <use x="216.845703" xlink:href="#ArialMT-104"/>
      </g>
     </g>
    </g>
    <g id="ytick_3">
     <g id="line2d_10">
      <g>
       <use style="fill:#262626;stroke:#262626;" x="61.20885" xlink:href="#m5135bb89af" y="318.32597"/>
      </g>
     </g>
     <g id="text_7">
      <!-- ± -->
      <defs>
       <path d="M 23.296875 12.703125 
L 23.296875 32.375 
L 3.8125 32.375 
L 3.8125 40.53125 
L 23.296875 40.53125 
L 23.296875 60.015625 
L 31.59375 60.015625 
L 31.59375 40.53125 
L 51.078125 40.53125 
L 51.078125 32.375 
L 31.59375 32.375 
L 31.59375 12.703125 
z
M 51.078125 0 
L 3.8125 0 
L 3.8125 8.203125 
L 51.078125 8.203125 
z
" id="ArialMT-177"/>
      </defs>
      <g style="fill:#262626;" transform="translate(48.695438 321.790351)scale(0.0968 -0.0968)">
       <use xlink:href="#ArialMT-177"/>
      </g>
     </g>
    </g>
    <g id="ytick_4">
     <g id="line2d_11">
      <g>
       <use style="fill:#262626;stroke:#262626;" x="61.20885" xlink:href="#m5135bb89af" y="310.051343"/>
      </g>
     </g>
     <g id="text_8">
      <!-- years -->
      <defs>
       <path d="M 6.203125 -19.96875 
L 5.21875 -11.71875 
Q 8.109375 -12.5 10.25 -12.5 
Q 13.1875 -12.5 14.9375 -11.515625 
Q 16.703125 -10.546875 17.828125 -8.796875 
Q 18.65625 -7.46875 20.515625 -2.25 
Q 20.75 -1.515625 21.296875 -0.09375 
L 1.609375 51.859375 
L 11.078125 51.859375 
L 21.875 21.828125 
Q 23.96875 16.109375 25.640625 9.8125 
Q 27.15625 15.875 29.25 21.625 
L 40.328125 51.859375 
L 49.125 51.859375 
L 29.390625 -0.875 
Q 26.21875 -9.421875 24.46875 -12.640625 
Q 22.125 -17 19.09375 -19.015625 
Q 16.0625 -21.046875 11.859375 -21.046875 
Q 9.328125 -21.046875 6.203125 -19.96875 
z
" id="ArialMT-121"/>
       <path d="M 6.5 0 
L 6.5 51.859375 
L 14.40625 51.859375 
L 14.40625 44 
Q 17.4375 49.515625 20 51.265625 
Q 22.5625 53.03125 25.640625 53.03125 
Q 30.078125 53.03125 34.671875 50.203125 
L 31.640625 42.046875 
Q 28.421875 43.953125 25.203125 43.953125 
Q 22.3125 43.953125 20.015625 42.21875 
Q 17.71875 40.484375 16.75 37.40625 
Q 15.28125 32.71875 15.28125 27.15625 
L 15.28125 0 
z
" id="ArialMT-114"/>
      </defs>
      <g style="fill:#262626;" transform="translate(30.339738 313.459006)scale(0.0968 -0.0968)">
       <use xlink:href="#ArialMT-121"/>
       <use x="50" xlink:href="#ArialMT-101"/>
       <use x="105.615234" xlink:href="#ArialMT-97"/>
       <use x="161.230469" xlink:href="#ArialMT-114"/>
       <use x="194.53125" xlink:href="#ArialMT-115"/>
      </g>
     </g>
    </g>
    <g id="ytick_5">
     <g id="line2d_12">
      <g>
       <use style="fill:#262626;stroke:#262626;" x="61.20885" xlink:href="#m5135bb89af" y="301.776716"/>
      </g>
     </g>
     <g id="text_9">
      <!-- risk -->
      <defs>
       <path d="M 6.640625 0 
L 6.640625 71.578125 
L 15.4375 71.578125 
L 15.4375 30.765625 
L 36.234375 51.859375 
L 47.609375 51.859375 
L 27.78125 32.625 
L 49.609375 0 
L 38.765625 0 
L 21.625 26.515625 
L 15.4375 20.5625 
L 15.4375 0 
z
" id="ArialMT-107"/>
      </defs>
      <g style="fill:#262626;" transform="translate(38.954938 305.241098)scale(0.0968 -0.0968)">
       <use xlink:href="#ArialMT-114"/>
       <use x="33.300781" xlink:href="#ArialMT-105"/>
       <use x="55.517578" xlink:href="#ArialMT-115"/>
       <use x="105.517578" xlink:href="#ArialMT-107"/>
      </g>
     </g>
    </g>
    <g id="ytick_6">
     <g id="line2d_13">
      <g>
       <use style="fill:#262626;stroke:#262626;" x="61.20885" xlink:href="#m5135bb89af" y="293.50209"/>
      </g>
     </g>
     <g id="text_10">
      <!-- clinical -->
      <defs>
       <path d="M 40.4375 19 
L 49.078125 17.875 
Q 47.65625 8.9375 41.8125 3.875 
Q 35.984375 -1.171875 27.484375 -1.171875 
Q 16.84375 -1.171875 10.375 5.78125 
Q 3.90625 12.75 3.90625 25.734375 
Q 3.90625 34.125 6.6875 40.421875 
Q 9.46875 46.734375 15.15625 49.875 
Q 20.84375 53.03125 27.546875 53.03125 
Q 35.984375 53.03125 41.359375 48.75 
Q 46.734375 44.484375 48.25 36.625 
L 39.703125 35.296875 
Q 38.484375 40.53125 35.375 43.15625 
Q 32.28125 45.796875 27.875 45.796875 
Q 21.234375 45.796875 17.078125 41.03125 
Q 12.9375 36.28125 12.9375 25.984375 
Q 12.9375 15.53125 16.9375 10.796875 
Q 20.953125 6.0625 27.390625 6.0625 
Q 32.5625 6.0625 36.03125 9.234375 
Q 39.5 12.40625 40.4375 19 
z
" id="ArialMT-99"/>
      </defs>
      <g style="fill:#262626;" transform="translate(24.959775 296.966471)scale(0.0968 -0.0968)">
       <use xlink:href="#ArialMT-99"/>
       <use x="50" xlink:href="#ArialMT-108"/>
       <use x="72.216797" xlink:href="#ArialMT-105"/>
       <use x="94.433594" xlink:href="#ArialMT-110"/>
       <use x="150.048828" xlink:href="#ArialMT-105"/>
       <use x="172.265625" xlink:href="#ArialMT-99"/>
       <use x="222.265625" xlink:href="#ArialMT-97"/>
       <use x="277.880859" xlink:href="#ArialMT-108"/>
      </g>
     </g>
    </g>
    <g id="ytick_7">
     <g id="line2d_14">
      <g>
       <use style="fill:#262626;stroke:#262626;" x="61.20885" xlink:href="#m5135bb89af" y="285.227463"/>
      </g>
     </g>
     <g id="text_11">
      <!-- treatment -->
      <defs>
       <path d="M 6.59375 0 
L 6.59375 51.859375 
L 14.453125 51.859375 
L 14.453125 44.578125 
Q 16.890625 48.390625 20.9375 50.703125 
Q 25 53.03125 30.171875 53.03125 
Q 35.9375 53.03125 39.625 50.640625 
Q 43.3125 48.25 44.828125 43.953125 
Q 50.984375 53.03125 60.84375 53.03125 
Q 68.5625 53.03125 72.703125 48.75 
Q 76.859375 44.484375 76.859375 35.59375 
L 76.859375 0 
L 68.109375 0 
L 68.109375 32.671875 
Q 68.109375 37.9375 67.25 40.25 
Q 66.40625 42.578125 64.15625 43.984375 
Q 61.921875 45.40625 58.890625 45.40625 
Q 53.421875 45.40625 49.796875 41.765625 
Q 46.1875 38.140625 46.1875 30.125 
L 46.1875 0 
L 37.40625 0 
L 37.40625 33.6875 
Q 37.40625 39.546875 35.25 42.46875 
Q 33.109375 45.40625 28.21875 45.40625 
Q 24.515625 45.40625 21.359375 43.453125 
Q 18.21875 41.5 16.796875 37.734375 
Q 15.375 33.984375 15.375 26.90625 
L 15.375 0 
z
" id="ArialMT-109"/>
      </defs>
      <g style="fill:#262626;" transform="translate(13.12295 288.691844)scale(0.0968 -0.0968)">
       <use xlink:href="#ArialMT-116"/>
       <use x="27.783203" xlink:href="#ArialMT-114"/>
       <use x="61.083984" xlink:href="#ArialMT-101"/>
       <use x="116.699219" xlink:href="#ArialMT-97"/>
       <use x="172.314453" xlink:href="#ArialMT-116"/>
       <use x="200.097656" xlink:href="#ArialMT-109"/>
       <use x="283.398438" xlink:href="#ArialMT-101"/>
       <use x="339.013672" xlink:href="#ArialMT-110"/>
       <use x="394.628906" xlink:href="#ArialMT-116"/>
      </g>
     </g>
    </g>
    <g id="ytick_8">
     <g id="line2d_15">
      <g>
       <use style="fill:#262626;stroke:#262626;" x="61.20885" xlink:href="#m5135bb89af" y="276.952836"/>
      </g>
     </g>
     <g id="text_12">
      <!-- study -->
      <defs>
       <path d="M 40.578125 0 
L 40.578125 7.625 
Q 34.515625 -1.171875 24.125 -1.171875 
Q 19.53125 -1.171875 15.546875 0.578125 
Q 11.578125 2.34375 9.640625 5 
Q 7.71875 7.671875 6.9375 11.53125 
Q 6.390625 14.109375 6.390625 19.734375 
L 6.390625 51.859375 
L 15.1875 51.859375 
L 15.1875 23.09375 
Q 15.1875 16.21875 15.71875 13.8125 
Q 16.546875 10.359375 19.234375 8.375 
Q 21.921875 6.390625 25.875 6.390625 
Q 29.828125 6.390625 33.296875 8.421875 
Q 36.765625 10.453125 38.203125 13.9375 
Q 39.65625 17.4375 39.65625 24.078125 
L 39.65625 51.859375 
L 48.4375 51.859375 
L 48.4375 0 
z
" id="ArialMT-117"/>
      </defs>
      <g style="fill:#262626;" transform="translate(30.87365 280.417217)scale(0.0968 -0.0968)">
       <use xlink:href="#ArialMT-115"/>
       <use x="50" xlink:href="#ArialMT-116"/>
       <use x="77.783203" xlink:href="#ArialMT-117"/>
       <use x="133.398438" xlink:href="#ArialMT-100"/>
       <use x="189.013672" xlink:href="#ArialMT-121"/>
      </g>
     </g>
    </g>
    <g id="ytick_9">
     <g id="line2d_16">
      <g>
       <use style="fill:#262626;stroke:#262626;" x="61.20885" xlink:href="#m5135bb89af" y="268.678209"/>
      </g>
     </g>
     <g id="text_13">
      <!-- group -->
      <g style="fill:#262626;" transform="translate(29.253763 272.085871)scale(0.0968 -0.0968)">
       <use xlink:href="#ArialMT-103"/>
       <use x="55.615234" xlink:href="#ArialMT-114"/>
       <use x="88.916016" xlink:href="#ArialMT-111"/>
       <use x="144.53125" xlink:href="#ArialMT-117"/>
       <use x="200.146484" xlink:href="#ArialMT-112"/>
      </g>
     </g>
    </g>
    <g id="ytick_10">
     <g id="line2d_17">
      <g>
       <use style="fill:#262626;stroke:#262626;" x="61.20885" xlink:href="#m5135bb89af" y="260.403582"/>
      </g>
     </g>
     <g id="text_14">
      <!-- age -->
      <g style="fill:#262626;" transform="translate(37.859888 263.811245)scale(0.0968 -0.0968)">
       <use xlink:href="#ArialMT-97"/>
       <use x="55.615234" xlink:href="#ArialMT-103"/>
       <use x="111.230469" xlink:href="#ArialMT-101"/>
      </g>
     </g>
    </g>
    <g id="ytick_11">
     <g id="line2d_18">
      <g>
       <use style="fill:#262626;stroke:#262626;" x="61.20885" xlink:href="#m5135bb89af" y="252.128955"/>
      </g>
     </g>
     <g id="text_15">
      <!-- reported -->
      <g style="fill:#262626;" transform="translate(17.958413 255.593336)scale(0.0968 -0.0968)">
       <use xlink:href="#ArialMT-114"/>
       <use x="33.300781" xlink:href="#ArialMT-101"/>
       <use x="88.916016" xlink:href="#ArialMT-112"/>
       <use x="144.53125" xlink:href="#ArialMT-111"/>
       <use x="200.146484" xlink:href="#ArialMT-114"/>
       <use x="233.447266" xlink:href="#ArialMT-116"/>
       <use x="261.230469" xlink:href="#ArialMT-101"/>
       <use x="316.845703" xlink:href="#ArialMT-100"/>
      </g>
     </g>
    </g>
    <g id="ytick_12">
     <g id="line2d_19">
      <g>
       <use style="fill:#262626;stroke:#262626;" x="61.20885" xlink:href="#m5135bb89af" y="243.854328"/>
      </g>
     </g>
     <g id="text_16">
      <!-- groups -->
      <g style="fill:#262626;" transform="translate(24.413763 247.261991)scale(0.0968 -0.0968)">
       <use xlink:href="#ArialMT-103"/>
       <use x="55.615234" xlink:href="#ArialMT-114"/>
       <use x="88.916016" xlink:href="#ArialMT-111"/>
       <use x="144.53125" xlink:href="#ArialMT-117"/>
       <use x="200.146484" xlink:href="#ArialMT-112"/>
       <use x="255.761719" xlink:href="#ArialMT-115"/>
      </g>
     </g>
    </g>
    <g id="ytick_13">
     <g id="line2d_20">
      <g>
       <use style="fill:#262626;stroke:#262626;" x="61.20885" xlink:href="#m5135bb89af" y="235.579701"/>
      </g>
     </g>
     <g id="text_17">
      <!-- h -->
      <g style="fill:#262626;" transform="translate(48.625863 239.044083)scale(0.0968 -0.0968)">
       <use xlink:href="#ArialMT-104"/>
      </g>
     </g>
    </g>
    <g id="ytick_14">
     <g id="line2d_21">
      <g>
       <use style="fill:#262626;stroke:#262626;" x="61.20885" xlink:href="#m5135bb89af" y="227.305075"/>
      </g>
     </g>
     <g id="text_18">
      <!-- – -->
      <defs>
       <path d="M -0.203125 22.359375 
L -0.203125 29.4375 
L 55.421875 29.4375 
L 55.421875 22.359375 
z
" id="ArialMT-8211"/>
      </defs>
      <g style="fill:#262626;" transform="translate(48.625863 230.769456)scale(0.0968 -0.0968)">
       <use xlink:href="#ArialMT-8211"/>
      </g>
     </g>
    </g>
    <g id="ytick_15">
     <g id="line2d_22">
      <g>
       <use style="fill:#262626;stroke:#262626;" x="61.20885" xlink:href="#m5135bb89af" y="219.030448"/>
      </g>
     </g>
     <g id="text_19">
      <!-- cancer -->
      <g style="fill:#262626;" transform="translate(24.95675 222.494829)scale(0.0968 -0.0968)">
       <use xlink:href="#ArialMT-99"/>
       <use x="50" xlink:href="#ArialMT-97"/>
       <use x="105.615234" xlink:href="#ArialMT-110"/>
       <use x="161.230469" xlink:href="#ArialMT-99"/>
       <use x="211.230469" xlink:href="#ArialMT-101"/>
       <use x="266.845703" xlink:href="#ArialMT-114"/>
      </g>
     </g>
    </g>
    <g id="ytick_16">
     <g id="line2d_23">
      <g>
       <use style="fill:#262626;stroke:#262626;" x="61.20885" xlink:href="#m5135bb89af" y="210.755821"/>
      </g>
     </g>
     <g id="text_20">
      <!-- min -->
      <g style="fill:#262626;" transform="translate(38.41195 214.220202)scale(0.0968 -0.0968)">
       <use xlink:href="#ArialMT-109"/>
       <use x="83.300781" xlink:href="#ArialMT-105"/>
       <use x="105.517578" xlink:href="#ArialMT-110"/>
      </g>
     </g>
    </g>
    <g id="ytick_17">
     <g id="line2d_24">
      <g>
       <use style="fill:#262626;stroke:#262626;" x="61.20885" xlink:href="#m5135bb89af" y="202.481194"/>
      </g>
     </g>
     <g id="text_21">
      <!-- ml -->
      <g style="fill:#262626;" transform="translate(43.794938 205.945575)scale(0.0968 -0.0968)">
       <use xlink:href="#ArialMT-109"/>
       <use x="83.300781" xlink:href="#ArialMT-108"/>
      </g>
     </g>
    </g>
    <g id="ytick_18">
     <g id="line2d_25">
      <g>
       <use style="fill:#262626;stroke:#262626;" x="61.20885" xlink:href="#m5135bb89af" y="194.206567"/>
      </g>
     </g>
     <g id="text_22">
      <!-- disease -->
      <g style="fill:#262626;" transform="translate(20.646125 197.670948)scale(0.0968 -0.0968)">
       <use xlink:href="#ArialMT-100"/>
       <use x="55.615234" xlink:href="#ArialMT-105"/>
       <use x="77.832031" xlink:href="#ArialMT-115"/>
       <use x="127.832031" xlink:href="#ArialMT-101"/>
       <use x="183.447266" xlink:href="#ArialMT-97"/>
       <use x="239.0625" xlink:href="#ArialMT-115"/>
       <use x="289.0625" xlink:href="#ArialMT-101"/>
      </g>
     </g>
    </g>
    <g id="ytick_19">
     <g id="line2d_26">
      <g>
       <use style="fill:#262626;stroke:#262626;" x="61.20885" xlink:href="#m5135bb89af" y="185.93194"/>
      </g>
     </g>
     <g id="text_23">
      <!-- n -->
      <g style="fill:#262626;" transform="translate(48.625863 189.396322)scale(0.0968 -0.0968)">
       <use xlink:href="#ArialMT-110"/>
      </g>
     </g>
    </g>
    <g id="ytick_20">
     <g id="line2d_27">
      <g>
       <use style="fill:#262626;stroke:#262626;" x="61.20885" xlink:href="#m5135bb89af" y="177.657313"/>
      </g>
     </g>
     <g id="text_24">
      <!-- studies -->
      <g style="fill:#262626;" transform="translate(23.339888 181.121695)scale(0.0968 -0.0968)">
       <use xlink:href="#ArialMT-115"/>
       <use x="50" xlink:href="#ArialMT-116"/>
       <use x="77.783203" xlink:href="#ArialMT-117"/>
       <use x="133.398438" xlink:href="#ArialMT-100"/>
       <use x="189.013672" xlink:href="#ArialMT-105"/>
       <use x="211.230469" xlink:href="#ArialMT-101"/>
       <use x="266.845703" xlink:href="#ArialMT-115"/>
      </g>
     </g>
    </g>
    <g id="ytick_21">
     <g id="line2d_28">
      <g>
       <use style="fill:#262626;stroke:#262626;" x="61.20885" xlink:href="#m5135bb89af" y="169.382687"/>
      </g>
     </g>
     <g id="text_25">
      <!-- population -->
      <g style="fill:#262626;" transform="translate(9.337163 172.847068)scale(0.0968 -0.0968)">
       <use xlink:href="#ArialMT-112"/>
       <use x="55.615234" xlink:href="#ArialMT-111"/>
       <use x="111.230469" xlink:href="#ArialMT-112"/>
       <use x="166.845703" xlink:href="#ArialMT-117"/>
       <use x="222.460938" xlink:href="#ArialMT-108"/>
       <use x="244.677734" xlink:href="#ArialMT-97"/>
       <use x="300.292969" xlink:href="#ArialMT-116"/>
       <use x="328.076172" xlink:href="#ArialMT-105"/>
       <use x="350.292969" xlink:href="#ArialMT-111"/>
       <use x="405.908203" xlink:href="#ArialMT-110"/>
      </g>
     </g>
    </g>
    <g id="ytick_22">
     <g id="line2d_29">
      <g>
       <use style="fill:#262626;stroke:#262626;" x="61.20885" xlink:href="#m5135bb89af" y="161.10806"/>
      </g>
     </g>
     <g id="text_26">
      <!-- binding -->
      <g style="fill:#262626;" transform="translate(22.792363 164.572441)scale(0.0968 -0.0968)">
       <use xlink:href="#ArialMT-98"/>
       <use x="55.615234" xlink:href="#ArialMT-105"/>
       <use x="77.832031" xlink:href="#ArialMT-110"/>
       <use x="133.447266" xlink:href="#ArialMT-100"/>
       <use x="189.0625" xlink:href="#ArialMT-105"/>
       <use x="211.279297" xlink:href="#ArialMT-110"/>
       <use x="266.894531" xlink:href="#ArialMT-103"/>
      </g>
     </g>
    </g>
    <g id="ytick_23">
     <g id="line2d_30">
      <g>
       <use style="fill:#262626;stroke:#262626;" x="61.20885" xlink:href="#m5135bb89af" y="152.833433"/>
      </g>
     </g>
     <g id="text_27">
      <!-- fig -->
      <defs>
       <path d="M 8.6875 0 
L 8.6875 45.015625 
L 0.921875 45.015625 
L 0.921875 51.859375 
L 8.6875 51.859375 
L 8.6875 57.375 
Q 8.6875 62.59375 9.625 65.140625 
Q 10.890625 68.5625 14.078125 70.671875 
Q 17.28125 72.796875 23.046875 72.796875 
Q 26.765625 72.796875 31.25 71.921875 
L 29.9375 64.265625 
Q 27.203125 64.75 24.75 64.75 
Q 20.75 64.75 19.09375 63.03125 
Q 17.4375 61.328125 17.4375 56.640625 
L 17.4375 51.859375 
L 27.546875 51.859375 
L 27.546875 45.015625 
L 17.4375 45.015625 
L 17.4375 0 
z
" id="ArialMT-102"/>
      </defs>
      <g style="fill:#262626;" transform="translate(43.785863 156.356802)scale(0.0968 -0.0968)">
       <use xlink:href="#ArialMT-102"/>
       <use x="27.783203" xlink:href="#ArialMT-105"/>
       <use x="50" xlink:href="#ArialMT-103"/>
      </g>
     </g>
    </g>
    <g id="ytick_24">
     <g id="line2d_31">
      <g>
       <use style="fill:#262626;stroke:#262626;" x="61.20885" xlink:href="#m5135bb89af" y="144.558806"/>
      </g>
     </g>
     <g id="text_28">
      <!-- individual -->
      <g style="fill:#262626;" transform="translate(13.650813 148.023187)scale(0.0968 -0.0968)">
       <use xlink:href="#ArialMT-105"/>
       <use x="22.216797" xlink:href="#ArialMT-110"/>
       <use x="77.832031" xlink:href="#ArialMT-100"/>
       <use x="133.447266" xlink:href="#ArialMT-105"/>
       <use x="155.664062" xlink:href="#ArialMT-118"/>
       <use x="205.664062" xlink:href="#ArialMT-105"/>
       <use x="227.880859" xlink:href="#ArialMT-100"/>
       <use x="283.496094" xlink:href="#ArialMT-117"/>
       <use x="339.111328" xlink:href="#ArialMT-97"/>
       <use x="394.726562" xlink:href="#ArialMT-108"/>
      </g>
     </g>
    </g>
    <g id="ytick_25">
     <g id="line2d_32">
      <g>
       <use style="fill:#262626;stroke:#262626;" x="61.20885" xlink:href="#m5135bb89af" y="136.284179"/>
      </g>
     </g>
     <g id="text_29">
      <!-- distribution -->
      <g style="fill:#262626;" transform="translate(7.2 139.74856)scale(0.0968 -0.0968)">
       <use xlink:href="#ArialMT-100"/>
       <use x="55.615234" xlink:href="#ArialMT-105"/>
       <use x="77.832031" xlink:href="#ArialMT-115"/>
       <use x="127.832031" xlink:href="#ArialMT-116"/>
       <use x="155.615234" xlink:href="#ArialMT-114"/>
       <use x="188.916016" xlink:href="#ArialMT-105"/>
       <use x="211.132812" xlink:href="#ArialMT-98"/>
       <use x="266.748047" xlink:href="#ArialMT-117"/>
       <use x="322.363281" xlink:href="#ArialMT-116"/>
       <use x="350.146484" xlink:href="#ArialMT-105"/>
       <use x="372.363281" xlink:href="#ArialMT-111"/>
       <use x="427.978516" xlink:href="#ArialMT-110"/>
      </g>
     </g>
    </g>
    <g id="ytick_26">
     <g id="line2d_33">
      <g>
       <use style="fill:#262626;stroke:#262626;" x="61.20885" xlink:href="#m5135bb89af" y="128.009552"/>
      </g>
     </g>
     <g id="text_30">
      <!-- sequence -->
      <defs>
       <path d="M 39.65625 -19.875 
L 39.65625 5.515625 
Q 37.59375 2.640625 33.90625 0.734375 
Q 30.21875 -1.171875 26.078125 -1.171875 
Q 16.84375 -1.171875 10.171875 6.203125 
Q 3.515625 13.578125 3.515625 26.421875 
Q 3.515625 34.234375 6.21875 40.421875 
Q 8.9375 46.625 14.078125 49.828125 
Q 19.234375 53.03125 25.390625 53.03125 
Q 35.015625 53.03125 40.53125 44.921875 
L 40.53125 51.859375 
L 48.4375 51.859375 
L 48.4375 -19.875 
z
M 12.546875 26.078125 
Q 12.546875 16.0625 16.75 11.0625 
Q 20.953125 6.0625 26.8125 6.0625 
Q 32.421875 6.0625 36.46875 10.8125 
Q 40.53125 15.578125 40.53125 25.296875 
Q 40.53125 35.640625 36.25 40.859375 
Q 31.984375 46.09375 26.21875 46.09375 
Q 20.515625 46.09375 16.53125 41.234375 
Q 12.546875 36.375 12.546875 26.078125 
z
" id="ArialMT-113"/>
      </defs>
      <g style="fill:#262626;" transform="translate(12.030925 131.473933)scale(0.0968 -0.0968)">
       <use xlink:href="#ArialMT-115"/>
       <use x="50" xlink:href="#ArialMT-101"/>
       <use x="105.615234" xlink:href="#ArialMT-113"/>
       <use x="161.230469" xlink:href="#ArialMT-117"/>
       <use x="216.845703" xlink:href="#ArialMT-101"/>
       <use x="272.460938" xlink:href="#ArialMT-110"/>
       <use x="328.076172" xlink:href="#ArialMT-99"/>
       <use x="378.076172" xlink:href="#ArialMT-101"/>
      </g>
     </g>
    </g>
    <g id="ytick_27">
     <g id="line2d_34">
      <g>
       <use style="fill:#262626;stroke:#262626;" x="61.20885" xlink:href="#m5135bb89af" y="119.734925"/>
      </g>
     </g>
     <g id="text_31">
      <!-- gene -->
      <g style="fill:#262626;" transform="translate(32.4769 123.142588)scale(0.0968 -0.0968)">
       <use xlink:href="#ArialMT-103"/>
       <use x="55.615234" xlink:href="#ArialMT-101"/>
       <use x="111.230469" xlink:href="#ArialMT-110"/>
       <use x="166.845703" xlink:href="#ArialMT-101"/>
      </g>
     </g>
    </g>
    <g id="ytick_28">
     <g id="line2d_35">
      <g>
       <use style="fill:#262626;stroke:#262626;" x="61.20885" xlink:href="#m5135bb89af" y="111.460299"/>
      </g>
     </g>
     <g id="text_32">
      <!-- set -->
      <g style="fill:#262626;" transform="translate(41.096638 114.92468)scale(0.0968 -0.0968)">
       <use xlink:href="#ArialMT-115"/>
       <use x="50" xlink:href="#ArialMT-101"/>
       <use x="105.615234" xlink:href="#ArialMT-116"/>
      </g>
     </g>
    </g>
    <g id="ytick_29">
     <g id="line2d_36">
      <g>
       <use style="fill:#262626;stroke:#262626;" x="61.20885" xlink:href="#m5135bb89af" y="103.185672"/>
      </g>
     </g>
     <g id="text_33">
      <!-- model -->
      <g style="fill:#262626;" transform="translate(27.645975 106.650053)scale(0.0968 -0.0968)">
       <use xlink:href="#ArialMT-109"/>
       <use x="83.300781" xlink:href="#ArialMT-111"/>
       <use x="138.916016" xlink:href="#ArialMT-100"/>
       <use x="194.53125" xlink:href="#ArialMT-101"/>
       <use x="250.146484" xlink:href="#ArialMT-108"/>
      </g>
     </g>
    </g>
    <g id="ytick_30">
     <g id="line2d_37">
      <g>
       <use style="fill:#262626;stroke:#262626;" x="61.20885" xlink:href="#m5135bb89af" y="94.911045"/>
      </g>
     </g>
     <g id="text_34">
      <!-- RNA -->
      <defs>
       <path d="M 7.625 0 
L 7.625 71.578125 
L 17.328125 71.578125 
L 54.9375 15.375 
L 54.9375 71.578125 
L 64.015625 71.578125 
L 64.015625 0 
L 54.296875 0 
L 16.703125 56.25 
L 16.703125 0 
z
" id="ArialMT-78"/>
       <path d="M -0.140625 0 
L 27.34375 71.578125 
L 37.546875 71.578125 
L 66.84375 0 
L 56.0625 0 
L 47.703125 21.6875 
L 17.78125 21.6875 
L 9.90625 0 
z
M 20.515625 29.390625 
L 44.78125 29.390625 
L 37.3125 49.21875 
Q 33.890625 58.25 32.234375 64.0625 
Q 30.859375 57.171875 28.375 50.390625 
z
" id="ArialMT-65"/>
      </defs>
      <g style="fill:#262626;" transform="translate(33.570438 98.375426)scale(0.0968 -0.0968)">
       <use xlink:href="#ArialMT-82"/>
       <use x="72.216797" xlink:href="#ArialMT-78"/>
       <use x="144.433594" xlink:href="#ArialMT-65"/>
      </g>
     </g>
    </g>
    <g id="ytick_31">
     <g id="line2d_38">
      <g>
       <use style="fill:#262626;stroke:#262626;" x="61.20885" xlink:href="#m5135bb89af" y="86.636418"/>
      </g>
     </g>
     <g id="text_35">
      <!-- species -->
      <g style="fill:#262626;" transform="translate(21.189113 90.100799)scale(0.0968 -0.0968)">
       <use xlink:href="#ArialMT-115"/>
       <use x="50" xlink:href="#ArialMT-112"/>
       <use x="105.615234" xlink:href="#ArialMT-101"/>
       <use x="161.230469" xlink:href="#ArialMT-99"/>
       <use x="211.230469" xlink:href="#ArialMT-105"/>
       <use x="233.447266" xlink:href="#ArialMT-101"/>
       <use x="289.0625" xlink:href="#ArialMT-115"/>
      </g>
     </g>
    </g>
    <g id="ytick_32">
     <g id="line2d_39">
      <g>
       <use style="fill:#262626;stroke:#262626;" x="61.20885" xlink:href="#m5135bb89af" y="78.361791"/>
      </g>
     </g>
     <g id="text_36">
      <!-- models -->
      <g style="fill:#262626;" transform="translate(22.805975 81.826172)scale(0.0968 -0.0968)">
       <use xlink:href="#ArialMT-109"/>
       <use x="83.300781" xlink:href="#ArialMT-111"/>
       <use x="138.916016" xlink:href="#ArialMT-100"/>
       <use x="194.53125" xlink:href="#ArialMT-101"/>
       <use x="250.146484" xlink:href="#ArialMT-108"/>
       <use x="272.363281" xlink:href="#ArialMT-115"/>
      </g>
     </g>
    </g>
    <g id="ytick_33">
     <g id="line2d_40">
      <g>
       <use style="fill:#262626;stroke:#262626;" x="61.20885" xlink:href="#m5135bb89af" y="70.087164"/>
      </g>
     </g>
     <g id="text_37">
      <!-- single -->
      <g style="fill:#262626;" transform="translate(28.718338 73.551545)scale(0.0968 -0.0968)">
       <use xlink:href="#ArialMT-115"/>
       <use x="50" xlink:href="#ArialMT-105"/>
       <use x="72.216797" xlink:href="#ArialMT-110"/>
       <use x="127.832031" xlink:href="#ArialMT-103"/>
       <use x="183.447266" xlink:href="#ArialMT-108"/>
       <use x="205.664062" xlink:href="#ArialMT-101"/>
      </g>
     </g>
    </g>
    <g id="ytick_34">
     <g id="line2d_41">
      <g>
       <use style="fill:#262626;stroke:#262626;" x="61.20885" xlink:href="#m5135bb89af" y="61.812537"/>
      </g>
     </g>
     <g id="text_38">
      <!-- genes -->
      <g style="fill:#262626;" transform="translate(27.6369 65.2202)scale(0.0968 -0.0968)">
       <use xlink:href="#ArialMT-103"/>
       <use x="55.615234" xlink:href="#ArialMT-101"/>
       <use x="111.230469" xlink:href="#ArialMT-110"/>
       <use x="166.845703" xlink:href="#ArialMT-101"/>
       <use x="222.460938" xlink:href="#ArialMT-115"/>
      </g>
     </g>
    </g>
    <g id="ytick_35">
     <g id="line2d_42">
      <g>
       <use style="fill:#262626;stroke:#262626;" x="61.20885" xlink:href="#m5135bb89af" y="53.53791"/>
      </g>
     </g>
     <g id="text_39">
      <!-- et -->
      <g style="fill:#262626;" transform="translate(45.936638 57.002292)scale(0.0968 -0.0968)">
       <use xlink:href="#ArialMT-101"/>
       <use x="55.615234" xlink:href="#ArialMT-116"/>
      </g>
     </g>
    </g>
    <g id="ytick_36">
     <g id="line2d_43">
      <g>
       <use style="fill:#262626;stroke:#262626;" x="61.20885" xlink:href="#m5135bb89af" y="45.263284"/>
      </g>
     </g>
     <g id="text_40">
      <!-- al -->
      <g style="fill:#262626;" transform="translate(46.475088 48.727665)scale(0.0968 -0.0968)">
       <use xlink:href="#ArialMT-97"/>
       <use x="55.615234" xlink:href="#ArialMT-108"/>
      </g>
     </g>
    </g>
    <g id="ytick_37">
     <g id="line2d_44">
      <g>
       <use style="fill:#262626;stroke:#262626;" x="61.20885" xlink:href="#m5135bb89af" y="36.988657"/>
      </g>
     </g>
     <g id="text_41">
      <!-- regions -->
      <g style="fill:#262626;" transform="translate(22.262988 40.453038)scale(0.0968 -0.0968)">
       <use xlink:href="#ArialMT-114"/>
       <use x="33.300781" xlink:href="#ArialMT-101"/>
       <use x="88.916016" xlink:href="#ArialMT-103"/>
       <use x="144.53125" xlink:href="#ArialMT-105"/>
       <use x="166.748047" xlink:href="#ArialMT-111"/>
       <use x="222.363281" xlink:href="#ArialMT-110"/>
       <use x="277.978516" xlink:href="#ArialMT-115"/>
      </g>
     </g>
    </g>
    <g id="ytick_38">
     <g id="line2d_45">
      <g>
       <use style="fill:#262626;stroke:#262626;" x="61.20885" xlink:href="#m5135bb89af" y="28.71403"/>
      </g>
     </g>
     <g id="text_42">
      <!-- genetic -->
      <g style="fill:#262626;" transform="translate(22.7969 32.178411)scale(0.0968 -0.0968)">
       <use xlink:href="#ArialMT-103"/>
       <use x="55.615234" xlink:href="#ArialMT-101"/>
       <use x="111.230469" xlink:href="#ArialMT-110"/>
       <use x="166.845703" xlink:href="#ArialMT-101"/>
       <use x="222.460938" xlink:href="#ArialMT-116"/>
       <use x="250.244141" xlink:href="#ArialMT-105"/>
       <use x="272.460938" xlink:href="#ArialMT-99"/>
      </g>
     </g>
    </g>
    <g id="ytick_39">
     <g id="line2d_46">
      <g>
       <use style="fill:#262626;stroke:#262626;" x="61.20885" xlink:href="#m5135bb89af" y="20.439403"/>
      </g>
     </g>
     <g id="text_43">
      <!-- genome -->
      <g style="fill:#262626;" transform="translate(19.030775 23.847065)scale(0.0968 -0.0968)">
       <use xlink:href="#ArialMT-103"/>
       <use x="55.615234" xlink:href="#ArialMT-101"/>
       <use x="111.230469" xlink:href="#ArialMT-110"/>
       <use x="166.845703" xlink:href="#ArialMT-111"/>
       <use x="222.460938" xlink:href="#ArialMT-109"/>
       <use x="305.761719" xlink:href="#ArialMT-101"/>
      </g>
     </g>
    </g>
    <g id="ytick_40">
     <g id="line2d_47">
      <g>
       <use style="fill:#262626;stroke:#262626;" x="61.20885" xlink:href="#m5135bb89af" y="12.164776"/>
      </g>
     </g>
     <g id="text_44">
      <!-- neurons -->
      <g style="fill:#262626;" transform="translate(19.030775 15.629157)scale(0.0968 -0.0968)">
       <use xlink:href="#ArialMT-110"/>
       <use x="55.615234" xlink:href="#ArialMT-101"/>
       <use x="111.230469" xlink:href="#ArialMT-117"/>
       <use x="166.845703" xlink:href="#ArialMT-114"/>
       <use x="200.146484" xlink:href="#ArialMT-111"/>
       <use x="255.761719" xlink:href="#ArialMT-110"/>
       <use x="311.376953" xlink:href="#ArialMT-115"/>
      </g>
     </g>
    </g>
   </g>
   <g id="PathCollection_1">
    <path clip-path="url(#p670ec86894)" d="M 477.557773 13.494117 
C 477.910318 13.494117 478.248472 13.354049 478.497759 13.104762 
C 478.747046 12.855475 478.887113 12.517321 478.887113 12.164776 
C 478.887113 11.812231 478.747046 11.474078 478.497759 11.224791 
C 478.248472 10.975503 477.910318 10.835436 477.557773 10.835436 
C 477.205228 10.835436 476.867075 10.975503 476.617787 11.224791 
C 476.3685 11.474078 476.228433 11.812231 476.228433 12.164776 
C 476.228433 12.517321 476.3685 12.855475 476.617787 13.104762 
C 476.867075 13.354049 477.205228 13.494117 477.557773 13.494117 
z
" style="fill:#253494;stroke:#253494;stroke-width:0.886227;"/>
    <path clip-path="url(#p670ec86894)" d="M 471.828371 21.768743 
C 472.180916 21.768743 472.51907 21.628676 472.768357 21.379389 
C 473.017644 21.130101 473.157712 20.791948 473.157712 20.439403 
C 473.157712 20.086858 473.017644 19.748704 472.768357 19.499417 
C 472.51907 19.25013 472.180916 19.110063 471.828371 19.110063 
C 471.475826 19.110063 471.137673 19.25013 470.888386 19.499417 
C 470.639099 19.748704 470.499031 20.086858 470.499031 20.439403 
C 470.499031 20.791948 470.639099 21.130101 470.888386 21.379389 
C 471.137673 21.628676 471.475826 21.768743 471.828371 21.768743 
z
" style="fill:#253494;stroke:#253494;stroke-width:0.886227;"/>
    <path clip-path="url(#p670ec86894)" d="M 441.466374 30.04337 
C 441.818919 30.04337 442.157072 29.903303 442.40636 29.654015 
C 442.655647 29.404728 442.795714 29.066575 442.795714 28.71403 
C 442.795714 28.361485 442.655647 28.023331 442.40636 27.774044 
C 442.157072 27.524757 441.818919 27.384689 441.466374 27.384689 
C 441.113829 27.384689 440.775675 27.524757 440.526388 27.774044 
C 440.277101 28.023331 440.137034 28.361485 440.137034 28.71403 
C 440.137034 29.066575 440.277101 29.404728 440.526388 29.654015 
C 440.775675 29.903303 441.113829 30.04337 441.466374 30.04337 
z
" style="fill:#253494;stroke:#253494;stroke-width:0.886227;"/>
    <path clip-path="url(#p670ec86894)" d="M 434.340318 38.317997 
C 434.692863 38.317997 435.031017 38.177929 435.280304 37.928642 
C 435.529591 37.679355 435.669658 37.341202 435.669658 36.988657 
C 435.669658 36.636112 435.529591 36.297958 435.280304 36.048671 
C 435.031017 35.799384 434.692863 35.659316 434.340318 35.659316 
C 433.987773 35.659316 433.64962 35.799384 433.400333 36.048671 
C 433.151045 36.297958 433.010978 36.636112 433.010978 36.988657 
C 433.010978 37.341202 433.151045 37.679355 433.400333 37.928642 
C 433.64962 38.177929 433.987773 38.317997 434.340318 38.317997 
z
" style="fill:#253494;stroke:#253494;stroke-width:0.886227;"/>
    <path clip-path="url(#p670ec86894)" d="M 428.036249 46.592624 
C 428.388794 46.592624 428.726947 46.452556 428.976234 46.203269 
C 429.225521 45.953982 429.365589 45.615829 429.365589 45.263284 
C 429.365589 44.910738 429.225521 44.572585 428.976234 44.323298 
C 428.726947 44.074011 428.388794 43.933943 428.036249 43.933943 
C 427.683704 43.933943 427.34555 44.074011 427.096263 44.323298 
C 426.846976 44.572585 426.706908 44.910738 426.706908 45.263284 
C 426.706908 45.615829 426.846976 45.953982 427.096263 46.203269 
C 427.34555 46.452556 427.683704 46.592624 428.036249 46.592624 
z
" style="fill:#253494;stroke:#253494;stroke-width:0.886227;"/>
    <path clip-path="url(#p670ec86894)" d="M 424.034126 54.867251 
C 424.386671 54.867251 424.724824 54.727183 424.974111 54.477896 
C 425.223399 54.228609 425.363466 53.890456 425.363466 53.53791 
C 425.363466 53.185365 425.223399 52.847212 424.974111 52.597925 
C 424.724824 52.348638 424.386671 52.20857 424.034126 52.20857 
C 423.681581 52.20857 423.343427 52.348638 423.09414 52.597925 
C 422.844853 52.847212 422.704786 53.185365 422.704786 53.53791 
C 422.704786 53.890456 422.844853 54.228609 423.09414 54.477896 
C 423.343427 54.727183 423.681581 54.867251 424.034126 54.867251 
z
" style="fill:#253494;stroke:#253494;stroke-width:0.886227;"/>
    <path clip-path="url(#p670ec86894)" d="M 422.175538 63.141878 
C 422.528083 63.141878 422.866236 63.00181 423.115523 62.752523 
C 423.36481 62.503236 423.504878 62.165083 423.504878 61.812537 
C 423.504878 61.459992 423.36481 61.121839 423.115523 60.872552 
C 422.866236 60.623265 422.528083 60.483197 422.175538 60.483197 
C 421.822992 60.483197 421.484839 60.623265 421.235552 60.872552 
C 420.986265 61.121839 420.846197 61.459992 420.846197 61.812537 
C 420.846197 62.165083 420.986265 62.503236 421.235552 62.752523 
C 421.484839 63.00181 421.822992 63.141878 422.175538 63.141878 
z
" style="fill:#253494;stroke:#253494;stroke-width:0.886227;"/>
    <path clip-path="url(#p670ec86894)" d="M 419.15669 71.416505 
C 419.509235 71.416505 419.847389 71.276437 420.096676 71.02715 
C 420.345963 70.777863 420.486031 70.439709 420.486031 70.087164 
C 420.486031 69.734619 420.345963 69.396466 420.096676 69.147179 
C 419.847389 68.897891 419.509235 68.757824 419.15669 68.757824 
C 418.804145 68.757824 418.465992 68.897891 418.216705 69.147179 
C 417.967418 69.396466 417.82735 69.734619 417.82735 70.087164 
C 417.82735 70.439709 417.967418 70.777863 418.216705 71.02715 
C 418.465992 71.276437 418.804145 71.416505 419.15669 71.416505 
z
" style="fill:#253494;stroke:#253494;stroke-width:0.886227;"/>
    <path clip-path="url(#p670ec86894)" d="M 418.086668 79.691131 
C 418.439213 79.691131 418.777367 79.551064 419.026654 79.301777 
C 419.275941 79.05249 419.416009 78.714336 419.416009 78.361791 
C 419.416009 78.009246 419.275941 77.671093 419.026654 77.421805 
C 418.777367 77.172518 418.439213 77.032451 418.086668 77.032451 
C 417.734123 77.032451 417.39597 77.172518 417.146683 77.421805 
C 416.897395 77.671093 416.757328 78.009246 416.757328 78.361791 
C 416.757328 78.714336 416.897395 79.05249 417.146683 79.301777 
C 417.39597 79.551064 417.734123 79.691131 418.086668 79.691131 
z
" style="fill:#253494;stroke:#253494;stroke-width:0.886227;"/>
    <path clip-path="url(#p670ec86894)" d="M 416.504415 87.965758 
C 416.856961 87.965758 417.195114 87.825691 417.444401 87.576404 
C 417.693688 87.327116 417.833756 86.988963 417.833756 86.636418 
C 417.833756 86.283873 417.693688 85.945719 417.444401 85.696432 
C 417.195114 85.447145 416.856961 85.307078 416.504415 85.307078 
C 416.15187 85.307078 415.813717 85.447145 415.56443 85.696432 
C 415.315143 85.945719 415.175075 86.283873 415.175075 86.636418 
C 415.175075 86.988963 415.315143 87.327116 415.56443 87.576404 
C 415.813717 87.825691 416.15187 87.965758 416.504415 87.965758 
z
" style="fill:#253494;stroke:#253494;stroke-width:0.886227;"/>
    <path clip-path="url(#p670ec86894)" d="M 416.070223 96.240385 
C 416.422768 96.240385 416.760921 96.100317 417.010209 95.85103 
C 417.259496 95.601743 417.399563 95.26359 417.399563 94.911045 
C 417.399563 94.5585 417.259496 94.220346 417.010209 93.971059 
C 416.760921 93.721772 416.422768 93.581704 416.070223 93.581704 
C 415.717678 93.581704 415.379524 93.721772 415.130237 93.971059 
C 414.88095 94.220346 414.740883 94.5585 414.740883 94.911045 
C 414.740883 95.26359 414.88095 95.601743 415.130237 95.85103 
C 415.379524 96.100317 415.717678 96.240385 416.070223 96.240385 
z
" style="fill:#253494;stroke:#253494;stroke-width:0.886227;"/>
    <path clip-path="url(#p670ec86894)" d="M 414.185754 104.515012 
C 414.538299 104.515012 414.876452 104.374944 415.125739 104.125657 
C 415.375026 103.87637 415.515094 103.538217 415.515094 103.185672 
C 415.515094 102.833126 415.375026 102.494973 415.125739 102.245686 
C 414.876452 101.996399 414.538299 101.856331 414.185754 101.856331 
C 413.833209 101.856331 413.495055 101.996399 413.245768 102.245686 
C 412.996481 102.494973 412.856413 102.833126 412.856413 103.185672 
C 412.856413 103.538217 412.996481 103.87637 413.245768 104.125657 
C 413.495055 104.374944 413.833209 104.515012 414.185754 104.515012 
z
" style="fill:#253494;stroke:#253494;stroke-width:0.886227;"/>
    <path clip-path="url(#p670ec86894)" d="M 413.225742 112.789639 
C 413.578287 112.789639 413.91644 112.649571 414.165727 112.400284 
C 414.415014 112.150997 414.555082 111.812844 414.555082 111.460299 
C 414.555082 111.107753 414.415014 110.7696 414.165727 110.520313 
C 413.91644 110.271026 413.578287 110.130958 413.225742 110.130958 
C 412.873197 110.130958 412.535043 110.271026 412.285756 110.520313 
C 412.036469 110.7696 411.896401 111.107753 411.896401 111.460299 
C 411.896401 111.812844 412.036469 112.150997 412.285756 112.400284 
C 412.535043 112.649571 412.873197 112.789639 413.225742 112.789639 
z
" style="fill:#253494;stroke:#253494;stroke-width:0.886227;"/>
    <path clip-path="url(#p670ec86894)" d="M 411.069482 121.064266 
C 411.422028 121.064266 411.760181 120.924198 412.009468 120.674911 
C 412.258755 120.425624 412.398823 120.087471 412.398823 119.734925 
C 412.398823 119.38238 412.258755 119.044227 412.009468 118.79494 
C 411.760181 118.545653 411.422028 118.405585 411.069482 118.405585 
C 410.716937 118.405585 410.378784 118.545653 410.129497 118.79494 
C 409.88021 119.044227 409.740142 119.38238 409.740142 119.734925 
C 409.740142 120.087471 409.88021 120.425624 410.129497 120.674911 
C 410.378784 120.924198 410.716937 121.064266 411.069482 121.064266 
z
" style="fill:#253494;stroke:#253494;stroke-width:0.886227;"/>
    <path clip-path="url(#p670ec86894)" d="M 410.337346 129.338893 
C 410.689891 129.338893 411.028044 129.198825 411.277331 128.949538 
C 411.526618 128.700251 411.666686 128.362097 411.666686 128.009552 
C 411.666686 127.657007 411.526618 127.318854 411.277331 127.069567 
C 411.028044 126.82028 410.689891 126.680212 410.337346 126.680212 
C 409.984801 126.680212 409.646647 126.82028 409.39736 127.069567 
C 409.148073 127.318854 409.008005 127.657007 409.008005 128.009552 
C 409.008005 128.362097 409.148073 128.700251 409.39736 128.949538 
C 409.646647 129.198825 409.984801 129.338893 410.337346 129.338893 
z
" style="fill:#253494;stroke:#253494;stroke-width:0.886227;"/>
    <path clip-path="url(#p670ec86894)" d="M 406.179728 137.613519 
C 406.532274 137.613519 406.870427 137.473452 407.119714 137.224165 
C 407.369001 136.974878 407.509069 136.636724 407.509069 136.284179 
C 407.509069 135.931634 407.369001 135.593481 407.119714 135.344194 
C 406.870427 135.094906 406.532274 134.954839 406.179728 134.954839 
C 405.827183 134.954839 405.48903 135.094906 405.239743 135.344194 
C 404.990456 135.593481 404.850388 135.931634 404.850388 136.284179 
C 404.850388 136.636724 404.990456 136.974878 405.239743 137.224165 
C 405.48903 137.473452 405.827183 137.613519 406.179728 137.613519 
z
" style="fill:#253494;stroke:#253494;stroke-width:0.886227;"/>
    <path clip-path="url(#p670ec86894)" d="M 402.026502 145.888146 
C 402.379047 145.888146 402.7172 145.748079 402.966487 145.498792 
C 403.215775 145.249504 403.355842 144.911351 403.355842 144.558806 
C 403.355842 144.206261 403.215775 143.868107 402.966487 143.61882 
C 402.7172 143.369533 402.379047 143.229466 402.026502 143.229466 
C 401.673957 143.229466 401.335803 143.369533 401.086516 143.61882 
C 400.837229 143.868107 400.697161 144.206261 400.697161 144.558806 
C 400.697161 144.911351 400.837229 145.249504 401.086516 145.498792 
C 401.335803 145.748079 401.673957 145.888146 402.026502 145.888146 
z
" style="fill:#253494;stroke:#253494;stroke-width:0.886227;"/>
    <path clip-path="url(#p670ec86894)" d="M 396.341386 154.162773 
C 396.693932 154.162773 397.032085 154.022706 397.281372 153.773418 
C 397.530659 153.524131 397.670727 153.185978 397.670727 152.833433 
C 397.670727 152.480888 397.530659 152.142734 397.281372 151.893447 
C 397.032085 151.64416 396.693932 151.504092 396.341386 151.504092 
C 395.988841 151.504092 395.650688 151.64416 395.401401 151.893447 
C 395.152114 152.142734 395.012046 152.480888 395.012046 152.833433 
C 395.012046 153.185978 395.152114 153.524131 395.401401 153.773418 
C 395.650688 154.022706 395.988841 154.162773 396.341386 154.162773 
z
" style="fill:#253494;stroke:#253494;stroke-width:0.886227;"/>
    <path clip-path="url(#p670ec86894)" d="M 390.926675 162.4374 
C 391.27922 162.4374 391.617373 162.297332 391.86666 162.048045 
C 392.115947 161.798758 392.256015 161.460605 392.256015 161.10806 
C 392.256015 160.755515 392.115947 160.417361 391.86666 160.168074 
C 391.617373 159.918787 391.27922 159.778719 390.926675 159.778719 
C 390.574129 159.778719 390.235976 159.918787 389.986689 160.168074 
C 389.737402 160.417361 389.597334 160.755515 389.597334 161.10806 
C 389.597334 161.460605 389.737402 161.798758 389.986689 162.048045 
C 390.235976 162.297332 390.574129 162.4374 390.926675 162.4374 
z
" style="fill:#253494;stroke:#253494;stroke-width:0.886227;"/>
    <path clip-path="url(#p670ec86894)" d="M 386.684911 170.712027 
C 387.037456 170.712027 387.375609 170.571959 387.624897 170.322672 
C 387.874184 170.073385 388.014251 169.735232 388.014251 169.382687 
C 388.014251 169.030141 387.874184 168.691988 387.624897 168.442701 
C 387.375609 168.193414 387.037456 168.053346 386.684911 168.053346 
C 386.332366 168.053346 385.994212 168.193414 385.744925 168.442701 
C 385.495638 168.691988 385.355571 169.030141 385.355571 169.382687 
C 385.355571 169.735232 385.495638 170.073385 385.744925 170.322672 
C 385.994212 170.571959 386.332366 170.712027 386.684911 170.712027 
z
" style="fill:#253494;stroke:#253494;stroke-width:0.886227;"/>
    <path clip-path="url(#p670ec86894)" d="M 298.684805 178.986654 
C 299.03735 178.986654 299.375503 178.846586 299.62479 178.597299 
C 299.874078 178.348012 300.014145 178.009859 300.014145 177.657313 
C 300.014145 177.304768 299.874078 176.966615 299.62479 176.717328 
C 299.375503 176.468041 299.03735 176.327973 298.684805 176.327973 
C 298.33226 176.327973 297.994106 176.468041 297.744819 176.717328 
C 297.495532 176.966615 297.355464 177.304768 297.355464 177.657313 
C 297.355464 178.009859 297.495532 178.348012 297.744819 178.597299 
C 297.994106 178.846586 298.33226 178.986654 298.684805 178.986654 
z
" style="fill:#253494;stroke:#253494;stroke-width:0.886227;"/>
    <path clip-path="url(#p670ec86894)" d="M 288.602403 187.261281 
C 288.954948 187.261281 289.293101 187.121213 289.542388 186.871926 
C 289.791675 186.622639 289.931743 186.284485 289.931743 185.93194 
C 289.931743 185.579395 289.791675 185.241242 289.542388 184.991955 
C 289.293101 184.742668 288.954948 184.6026 288.602403 184.6026 
C 288.249857 184.6026 287.911704 184.742668 287.662417 184.991955 
C 287.41313 185.241242 287.273062 185.579395 287.273062 185.93194 
C 287.273062 186.284485 287.41313 186.622639 287.662417 186.871926 
C 287.911704 187.121213 288.249857 187.261281 288.602403 187.261281 
z
" style="fill:#253494;stroke:#253494;stroke-width:0.886227;"/>
    <path clip-path="url(#p670ec86894)" d="M 283.608043 195.535908 
C 283.960589 195.535908 284.298742 195.39584 284.548029 195.146553 
C 284.797316 194.897266 284.937384 194.559112 284.937384 194.206567 
C 284.937384 193.854022 284.797316 193.515869 284.548029 193.266582 
C 284.298742 193.017294 283.960589 192.877227 283.608043 192.877227 
C 283.255498 192.877227 282.917345 193.017294 282.668058 193.266582 
C 282.418771 193.515869 282.278703 193.854022 282.278703 194.206567 
C 282.278703 194.559112 282.418771 194.897266 282.668058 195.146553 
C 282.917345 195.39584 283.255498 195.535908 283.608043 195.535908 
z
" style="fill:#253494;stroke:#253494;stroke-width:0.886227;"/>
    <path clip-path="url(#p670ec86894)" d="M 278.661033 203.810534 
C 279.013579 203.810534 279.351732 203.670467 279.601019 203.42118 
C 279.850306 203.171893 279.990374 202.833739 279.990374 202.481194 
C 279.990374 202.128649 279.850306 201.790496 279.601019 201.541208 
C 279.351732 201.291921 279.013579 201.151854 278.661033 201.151854 
C 278.308488 201.151854 277.970335 201.291921 277.721048 201.541208 
C 277.471761 201.790496 277.331693 202.128649 277.331693 202.481194 
C 277.331693 202.833739 277.471761 203.171893 277.721048 203.42118 
C 277.970335 203.670467 278.308488 203.810534 278.661033 203.810534 
z
" style="fill:#253494;stroke:#253494;stroke-width:0.886227;"/>
    <path clip-path="url(#p670ec86894)" d="M 277.081222 212.085161 
C 277.433767 212.085161 277.771921 211.945094 278.021208 211.695806 
C 278.270495 211.446519 278.410563 211.108366 278.410563 210.755821 
C 278.410563 210.403276 278.270495 210.065122 278.021208 209.815835 
C 277.771921 209.566548 277.433767 209.426481 277.081222 209.426481 
C 276.728677 209.426481 276.390524 209.566548 276.141237 209.815835 
C 275.89195 210.065122 275.751882 210.403276 275.751882 210.755821 
C 275.751882 211.108366 275.89195 211.446519 276.141237 211.695806 
C 276.390524 211.945094 276.728677 212.085161 277.081222 212.085161 
z
" style="fill:#253494;stroke:#253494;stroke-width:0.886227;"/>
    <path clip-path="url(#p670ec86894)" d="M 271.645535 220.359788 
C 271.998081 220.359788 272.336234 220.21972 272.585521 219.970433 
C 272.834808 219.721146 272.974876 219.382993 272.974876 219.030448 
C 272.974876 218.677903 272.834808 218.339749 272.585521 218.090462 
C 272.336234 217.841175 271.998081 217.701107 271.645535 217.701107 
C 271.29299 217.701107 270.954837 217.841175 270.70555 218.090462 
C 270.456263 218.339749 270.316195 218.677903 270.316195 219.030448 
C 270.316195 219.382993 270.456263 219.721146 270.70555 219.970433 
C 270.954837 220.21972 271.29299 220.359788 271.645535 220.359788 
z
" style="fill:#253494;stroke:#253494;stroke-width:0.886227;"/>
    <path clip-path="url(#p670ec86894)" d="M 270.898082 228.634415 
C 271.250627 228.634415 271.58878 228.494347 271.838067 228.24506 
C 272.087354 227.995773 272.227422 227.65762 272.227422 227.305075 
C 272.227422 226.952529 272.087354 226.614376 271.838067 226.365089 
C 271.58878 226.115802 271.250627 225.975734 270.898082 225.975734 
C 270.545536 225.975734 270.207383 226.115802 269.958096 226.365089 
C 269.708809 226.614376 269.568741 226.952529 269.568741 227.305075 
C 269.568741 227.65762 269.708809 227.995773 269.958096 228.24506 
C 270.207383 228.494347 270.545536 228.634415 270.898082 228.634415 
z
" style="fill:#253494;stroke:#253494;stroke-width:0.886227;"/>
    <path clip-path="url(#p670ec86894)" d="M 269.977081 236.909042 
C 270.329627 236.909042 270.66778 236.768974 270.917067 236.519687 
C 271.166354 236.2704 271.306422 235.932247 271.306422 235.579701 
C 271.306422 235.227156 271.166354 234.889003 270.917067 234.639716 
C 270.66778 234.390429 270.329627 234.250361 269.977081 234.250361 
C 269.624536 234.250361 269.286383 234.390429 269.037096 234.639716 
C 268.787809 234.889003 268.647741 235.227156 268.647741 235.579701 
C 268.647741 235.932247 268.787809 236.2704 269.037096 236.519687 
C 269.286383 236.768974 269.624536 236.909042 269.977081 236.909042 
z
" style="fill:#253494;stroke:#253494;stroke-width:0.886227;"/>
    <path clip-path="url(#p670ec86894)" d="M 269.283837 245.183669 
C 269.636382 245.183669 269.974536 245.043601 270.223823 244.794314 
C 270.47311 244.545027 270.613178 244.206874 270.613178 243.854328 
C 270.613178 243.501783 270.47311 243.16363 270.223823 242.914343 
C 269.974536 242.665056 269.636382 242.524988 269.283837 242.524988 
C 268.931292 242.524988 268.593139 242.665056 268.343852 242.914343 
C 268.094564 243.16363 267.954497 243.501783 267.954497 243.854328 
C 267.954497 244.206874 268.094564 244.545027 268.343852 244.794314 
C 268.593139 245.043601 268.931292 245.183669 269.283837 245.183669 
z
" style="fill:#253494;stroke:#253494;stroke-width:0.886227;"/>
    <path clip-path="url(#p670ec86894)" d="M 266.301062 253.458296 
C 266.653607 253.458296 266.99176 253.318228 267.241047 253.068941 
C 267.490334 252.819654 267.630402 252.4815 267.630402 252.128955 
C 267.630402 251.77641 267.490334 251.438257 267.241047 251.18897 
C 266.99176 250.939683 266.653607 250.799615 266.301062 250.799615 
C 265.948516 250.799615 265.610363 250.939683 265.361076 251.18897 
C 265.111789 251.438257 264.971721 251.77641 264.971721 252.128955 
C 264.971721 252.4815 265.111789 252.819654 265.361076 253.068941 
C 265.610363 253.318228 265.948516 253.458296 266.301062 253.458296 
z
" style="fill:#253494;stroke:#253494;stroke-width:0.886227;"/>
    <path clip-path="url(#p670ec86894)" d="M 265.733876 261.732922 
C 266.086421 261.732922 266.424574 261.592855 266.673861 261.343568 
C 266.923148 261.094281 267.063216 260.756127 267.063216 260.403582 
C 267.063216 260.051037 266.923148 259.712884 266.673861 259.463596 
C 266.424574 259.214309 266.086421 259.074242 265.733876 259.074242 
C 265.38133 259.074242 265.043177 259.214309 264.79389 259.463596 
C 264.544603 259.712884 264.404535 260.051037 264.404535 260.403582 
C 264.404535 260.756127 264.544603 261.094281 264.79389 261.343568 
C 265.043177 261.592855 265.38133 261.732922 265.733876 261.732922 
z
" style="fill:#253494;stroke:#253494;stroke-width:0.886227;"/>
    <path clip-path="url(#p670ec86894)" d="M 244.876414 270.007549 
C 245.228959 270.007549 245.567112 269.867482 245.816399 269.618195 
C 246.065686 269.368907 246.205754 269.030754 246.205754 268.678209 
C 246.205754 268.325664 246.065686 267.98751 245.816399 267.738223 
C 245.567112 267.488936 245.228959 267.348869 244.876414 267.348869 
C 244.523868 267.348869 244.185715 267.488936 243.936428 267.738223 
C 243.687141 267.98751 243.547073 268.325664 243.547073 268.678209 
C 243.547073 269.030754 243.687141 269.368907 243.936428 269.618195 
C 244.185715 269.867482 244.523868 270.007549 244.876414 270.007549 
z
" style="fill:#253494;stroke:#253494;stroke-width:0.886227;"/>
    <path clip-path="url(#p670ec86894)" d="M 241.788223 278.282176 
C 242.140769 278.282176 242.478922 278.142109 242.728209 277.892821 
C 242.977496 277.643534 243.117564 277.305381 243.117564 276.952836 
C 243.117564 276.600291 242.977496 276.262137 242.728209 276.01285 
C 242.478922 275.763563 242.140769 275.623495 241.788223 275.623495 
C 241.435678 275.623495 241.097525 275.763563 240.848238 276.01285 
C 240.598951 276.262137 240.458883 276.600291 240.458883 276.952836 
C 240.458883 277.305381 240.598951 277.643534 240.848238 277.892821 
C 241.097525 278.142109 241.435678 278.282176 241.788223 278.282176 
z
" style="fill:#253494;stroke:#253494;stroke-width:0.886227;"/>
    <path clip-path="url(#p670ec86894)" d="M 239.831542 286.556803 
C 240.184087 286.556803 240.52224 286.416735 240.771527 286.167448 
C 241.020814 285.918161 241.160882 285.580008 241.160882 285.227463 
C 241.160882 284.874917 241.020814 284.536764 240.771527 284.287477 
C 240.52224 284.03819 240.184087 283.898122 239.831542 283.898122 
C 239.478996 283.898122 239.140843 284.03819 238.891556 284.287477 
C 238.642269 284.536764 238.502201 284.874917 238.502201 285.227463 
C 238.502201 285.580008 238.642269 285.918161 238.891556 286.167448 
C 239.140843 286.416735 239.478996 286.556803 239.831542 286.556803 
z
" style="fill:#253494;stroke:#253494;stroke-width:0.886227;"/>
    <path clip-path="url(#p670ec86894)" d="M 217.439889 294.83143 
C 217.792434 294.83143 218.130587 294.691362 218.379874 294.442075 
C 218.629161 294.192788 218.769229 293.854635 218.769229 293.50209 
C 218.769229 293.149544 218.629161 292.811391 218.379874 292.562104 
C 218.130587 292.312817 217.792434 292.172749 217.439889 292.172749 
C 217.087344 292.172749 216.74919 292.312817 216.499903 292.562104 
C 216.250616 292.811391 216.110548 293.149544 216.110548 293.50209 
C 216.110548 293.854635 216.250616 294.192788 216.499903 294.442075 
C 216.74919 294.691362 217.087344 294.83143 217.439889 294.83143 
z
" style="fill:#253494;stroke:#253494;stroke-width:0.886227;"/>
    <path clip-path="url(#p670ec86894)" d="M 215.759285 303.106057 
C 216.11183 303.106057 216.449983 302.965989 216.699271 302.716702 
C 216.948558 302.467415 217.088625 302.129262 217.088625 301.776716 
C 217.088625 301.424171 216.948558 301.086018 216.699271 300.836731 
C 216.449983 300.587444 216.11183 300.447376 215.759285 300.447376 
C 215.40674 300.447376 215.068586 300.587444 214.819299 300.836731 
C 214.570012 301.086018 214.429945 301.424171 214.429945 301.776716 
C 214.429945 302.129262 214.570012 302.467415 214.819299 302.716702 
C 215.068586 302.965989 215.40674 303.106057 215.759285 303.106057 
z
" style="fill:#253494;stroke:#253494;stroke-width:0.886227;"/>
    <path clip-path="url(#p670ec86894)" d="M 209.921408 311.380684 
C 210.273953 311.380684 210.612106 311.240616 210.861393 310.991329 
C 211.110681 310.742042 211.250748 310.403888 211.250748 310.051343 
C 211.250748 309.698798 211.110681 309.360645 210.861393 309.111358 
C 210.612106 308.862071 210.273953 308.722003 209.921408 308.722003 
C 209.568863 308.722003 209.230709 308.862071 208.981422 309.111358 
C 208.732135 309.360645 208.592067 309.698798 208.592067 310.051343 
C 208.592067 310.403888 208.732135 310.742042 208.981422 310.991329 
C 209.230709 311.240616 209.568863 311.380684 209.921408 311.380684 
z
" style="fill:#253494;stroke:#253494;stroke-width:0.886227;"/>
    <path clip-path="url(#p670ec86894)" d="M 181.662206 319.655311 
C 182.014751 319.655311 182.352904 319.515243 182.602191 319.265956 
C 182.851478 319.016669 182.991546 318.678515 182.991546 318.32597 
C 182.991546 317.973425 182.851478 317.635272 182.602191 317.385985 
C 182.352904 317.136697 182.014751 316.99663 181.662206 316.99663 
C 181.30966 316.99663 180.971507 317.136697 180.72222 317.385985 
C 180.472933 317.635272 180.332865 317.973425 180.332865 318.32597 
C 180.332865 318.678515 180.472933 319.016669 180.72222 319.265956 
C 180.971507 319.515243 181.30966 319.655311 181.662206 319.655311 
z
" style="fill:#253494;stroke:#253494;stroke-width:0.886227;"/>
    <path clip-path="url(#p670ec86894)" d="M 125.063057 327.929937 
C 125.415602 327.929937 125.753756 327.78987 126.003043 327.540583 
C 126.25233 327.291296 126.392398 326.953142 126.392398 326.600597 
C 126.392398 326.248052 126.25233 325.909899 126.003043 325.660611 
C 125.753756 325.411324 125.415602 325.271257 125.063057 325.271257 
C 124.710512 325.271257 124.372359 325.411324 124.123072 325.660611 
C 123.873784 325.909899 123.733717 326.248052 123.733717 326.600597 
C 123.733717 326.953142 123.873784 327.291296 124.123072 327.540583 
C 124.372359 327.78987 124.710512 327.929937 125.063057 327.929937 
z
" style="fill:#253494;stroke:#253494;stroke-width:0.886227;"/>
    <path clip-path="url(#p670ec86894)" d="M 123.611891 336.204564 
C 123.964437 336.204564 124.30259 336.064497 124.551877 335.815209 
C 124.801164 335.565922 124.941232 335.227769 124.941232 334.875224 
C 124.941232 334.522679 124.801164 334.184525 124.551877 333.935238 
C 124.30259 333.685951 123.964437 333.545883 123.611891 333.545883 
C 123.259346 333.545883 122.921193 333.685951 122.671906 333.935238 
C 122.422619 334.184525 122.282551 334.522679 122.282551 334.875224 
C 122.282551 335.227769 122.422619 335.565922 122.671906 335.815209 
C 122.921193 336.064497 123.259346 336.204564 123.611891 336.204564 
z
" style="fill:#253494;stroke:#253494;stroke-width:0.886227;"/>
   </g>
   <g id="LineCollection_1">
    <path clip-path="url(#p670ec86894)" d="M 340.20885 339.84 
L 340.20885 7.2 
" style="fill:none;stroke:#808080;stroke-dasharray:3.27904,1.417963;stroke-dashoffset:0;stroke-width:0.886227;"/>
   </g>
   <g id="patch_3">
    <path d="M 61.20885 339.84 
L 61.20885 7.2 
" style="fill:none;stroke:#262626;stroke-linecap:square;stroke-linejoin:miter;"/>
   </g>
   <g id="patch_4">
    <path d="M 619.20885 339.84 
L 619.20885 7.2 
" style="fill:none;stroke:#262626;stroke-linecap:square;stroke-linejoin:miter;"/>
   </g>
   <g id="patch_5">
    <path d="M 61.20885 339.84 
L 619.20885 339.84 
" style="fill:none;stroke:#262626;stroke-linecap:square;stroke-linejoin:miter;"/>
   </g>
   <g id="patch_6">
    <path d="M 61.20885 7.2 
L 619.20885 7.2 
" style="fill:none;stroke:#262626;stroke-linecap:square;stroke-linejoin:miter;"/>
   </g>
   <g id="LineCollection_2">
    <path clip-path="url(#p670ec86894)" d="M 382.481577 330.73791 
L 551.572486 330.73791 
" style="fill:none;stroke:#000000;stroke-width:0.886227;"/>
   </g>
   <g id="PathCollection_2">
    <defs>
     <path d="M 545.337103 -43.671252 
L 551.572486 -47.271252 
L 545.337103 -50.871252 
" id="m971a0a5381" style="stroke:#000000;stroke-width:0.886227;"/>
    </defs>
    <g clip-path="url(#p670ec86894)">
     <use style="fill-opacity:0;stroke:#000000;stroke-width:0.886227;" x="0" xlink:href="#m971a0a5381" y="378.009163"/>
    </g>
   </g>
   <g id="text_45">
    <g clip-path="url(#p670ec86894)">
     <!-- bioRxiv Enriched -->
     <defs>
      <path d="M 7.90625 0 
L 7.90625 71.578125 
L 59.671875 71.578125 
L 59.671875 63.140625 
L 17.390625 63.140625 
L 17.390625 41.21875 
L 56.984375 41.21875 
L 56.984375 32.8125 
L 17.390625 32.8125 
L 17.390625 8.453125 
L 61.328125 8.453125 
L 61.328125 0 
z
" id="ArialMT-69"/>
     </defs>
     <g style="opacity:0.698039;" transform="translate(422.008282 325.565471)scale(0.12 -0.12)">
      <use xlink:href="#ArialMT-98"/>
      <use x="55.615234" xlink:href="#ArialMT-105"/>
      <use x="77.832031" xlink:href="#ArialMT-111"/>
      <use x="133.447266" xlink:href="#ArialMT-82"/>
      <use x="205.664062" xlink:href="#ArialMT-120"/>
      <use x="255.664062" xlink:href="#ArialMT-105"/>
      <use x="277.880859" xlink:href="#ArialMT-118"/>
      <use x="327.880859" xlink:href="#ArialMT-32"/>
      <use x="355.664062" xlink:href="#ArialMT-69"/>
      <use x="422.363281" xlink:href="#ArialMT-110"/>
      <use x="477.978516" xlink:href="#ArialMT-114"/>
      <use x="511.279297" xlink:href="#ArialMT-105"/>
      <use x="533.496094" xlink:href="#ArialMT-99"/>
      <use x="583.496094" xlink:href="#ArialMT-104"/>
      <use x="639.111328" xlink:href="#ArialMT-101"/>
      <use x="694.726562" xlink:href="#ArialMT-100"/>
     </g>
    </g>
   </g>
   <g id="LineCollection_3">
    <path clip-path="url(#p670ec86894)" d="M 297.936123 16.30209 
L 128.845214 16.30209 
" style="fill:none;stroke:#000000;stroke-width:0.886227;"/>
   </g>
   <g id="PathCollection_3">
    <defs>
     <path d="M 135.080597 -365.307073 
L 128.845214 -361.707073 
L 135.080597 -358.107073 
" id="m1c7cf06bb8" style="stroke:#000000;stroke-width:0.886227;"/>
    </defs>
    <g clip-path="url(#p670ec86894)">
     <use style="fill-opacity:0;stroke:#000000;stroke-width:0.886227;" x="0" xlink:href="#m1c7cf06bb8" y="378.009163"/>
    </g>
   </g>
   <g id="text_46">
    <g clip-path="url(#p670ec86894)">
     <!-- PMC Enriched -->
     <g style="opacity:0.698039;" transform="translate(174.711293 27.678904)scale(0.12 -0.12)">
      <use xlink:href="#ArialMT-80"/>
      <use x="66.699219" xlink:href="#ArialMT-77"/>
      <use x="150" xlink:href="#ArialMT-67"/>
      <use x="222.216797" xlink:href="#ArialMT-32"/>
      <use x="250" xlink:href="#ArialMT-69"/>
      <use x="316.699219" xlink:href="#ArialMT-110"/>
      <use x="372.314453" xlink:href="#ArialMT-114"/>
      <use x="405.615234" xlink:href="#ArialMT-105"/>
      <use x="427.832031" xlink:href="#ArialMT-99"/>
      <use x="477.832031" xlink:href="#ArialMT-104"/>
      <use x="533.447266" xlink:href="#ArialMT-101"/>
      <use x="589.0625" xlink:href="#ArialMT-100"/>
     </g>
    </g>
   </g>
  </g>
 </g>
 <defs>
  <clipPath id="p670ec86894">
   <rect height="332.64" width="558" x="61.20885" y="7.2"/>
  </clipPath>
 </defs>
</svg>
