<?xml version="1.0" encoding="utf-8" standalone="no"?>
<!DOCTYPE svg PUBLIC "-//W3C//DTD SVG 1.1//EN"
  "http://www.w3.org/Graphics/SVG/1.1/DTD/svg11.dtd">
<!-- Created with matplotlib (https://matplotlib.org/) -->
<svg height="378.009163pt" version="1.1" viewBox="0 0 643.087188 378.009163" width="643.087188pt" xmlns="http://www.w3.org/2000/svg" xmlns:xlink="http://www.w3.org/1999/xlink">
 <defs>
  <style type="text/css">
*{stroke-linecap:butt;stroke-linejoin:round;}
  </style>
 </defs>
 <g id="figure_1">
  <g id="patch_1">
   <path d="M 0 378.009163 
L 643.087188 378.009163 
L 643.087188 0 
L 0 0 
z
" style="fill:#ffffff;"/>
  </g>
  <g id="axes_1">
   <g id="patch_2">
    <path d="M 77.887188 339.84 
L 635.887187 339.84 
L 635.887187 7.2 
L 77.887188 7.2 
z
" style="fill:#ffffff;"/>
   </g>
   <g id="matplotlib.axis_1">
    <g id="xtick_1">
     <g id="line2d_1">
      <defs>
       <path d="M 0 0 
L 0 4.8 
" id="m8819d62160" style="stroke:#262626;"/>
      </defs>
      <g>
       <use style="fill:#262626;stroke:#262626;" x="103.250824" xlink:href="#m8819d62160" y="339.84"/>
      </g>
     </g>
     <g id="text_1">
      <!-- −20 -->
      <defs>
       <path d="M 52.828125 31.203125 
L 5.5625 31.203125 
L 5.5625 39.40625 
L 52.828125 39.40625 
z
" id="ArialMT-8722"/>
       <path d="M 50.34375 8.453125 
L 50.34375 0 
L 3.03125 0 
Q 2.9375 3.171875 4.046875 6.109375 
Q 5.859375 10.9375 9.828125 15.625 
Q 13.8125 20.3125 21.34375 26.46875 
Q 33.015625 36.03125 37.109375 41.625 
Q 41.21875 47.21875 41.21875 52.203125 
Q 41.21875 57.421875 37.46875 61 
Q 33.734375 64.59375 27.734375 64.59375 
Q 21.390625 64.59375 17.578125 60.78125 
Q 13.765625 56.984375 13.71875 50.25 
L 4.6875 51.171875 
Q 5.609375 61.28125 11.65625 66.578125 
Q 17.71875 71.875 27.9375 71.875 
Q 38.234375 71.875 44.234375 66.15625 
Q 50.25 60.453125 50.25 52 
Q 50.25 47.703125 48.484375 43.546875 
Q 46.734375 39.40625 42.65625 34.8125 
Q 38.578125 30.21875 29.109375 22.21875 
Q 21.1875 15.578125 18.9375 13.203125 
Q 16.703125 10.84375 15.234375 8.453125 
z
" id="ArialMT-50"/>
       <path d="M 4.15625 35.296875 
Q 4.15625 48 6.765625 55.734375 
Q 9.375 63.484375 14.515625 67.671875 
Q 19.671875 71.875 27.484375 71.875 
Q 33.25 71.875 37.59375 69.546875 
Q 41.9375 67.234375 44.765625 62.859375 
Q 47.609375 58.5 49.21875 52.21875 
Q 50.828125 45.953125 50.828125 35.296875 
Q 50.828125 22.703125 48.234375 14.96875 
Q 45.65625 7.234375 40.5 3 
Q 35.359375 -1.21875 27.484375 -1.21875 
Q 17.140625 -1.21875 11.234375 6.203125 
Q 4.15625 15.140625 4.15625 35.296875 
z
M 13.1875 35.296875 
Q 13.1875 17.671875 17.3125 11.828125 
Q 21.4375 6 27.484375 6 
Q 33.546875 6 37.671875 11.859375 
Q 41.796875 17.71875 41.796875 35.296875 
Q 41.796875 52.984375 37.671875 58.78125 
Q 33.546875 64.59375 27.390625 64.59375 
Q 21.34375 64.59375 17.71875 59.46875 
Q 13.1875 52.9375 13.1875 35.296875 
z
" id="ArialMT-48"/>
      </defs>
      <g style="fill:#262626;" transform="translate(95.040974 353.968762)scale(0.0968 -0.0968)">
       <use xlink:href="#ArialMT-8722"/>
       <use x="58.398438" xlink:href="#ArialMT-50"/>
       <use x="114.013672" xlink:href="#ArialMT-48"/>
      </g>
     </g>
    </g>
    <g id="xtick_2">
     <g id="line2d_2">
      <g>
       <use style="fill:#262626;stroke:#262626;" x="230.069006" xlink:href="#m8819d62160" y="339.84"/>
      </g>
     </g>
     <g id="text_2">
      <!-- −10 -->
      <defs>
       <path d="M 37.25 0 
L 28.46875 0 
L 28.46875 56 
Q 25.296875 52.984375 20.140625 49.953125 
Q 14.984375 46.921875 10.890625 45.40625 
L 10.890625 53.90625 
Q 18.265625 57.375 23.78125 62.296875 
Q 29.296875 67.234375 31.59375 71.875 
L 37.25 71.875 
z
" id="ArialMT-49"/>
      </defs>
      <g style="fill:#262626;" transform="translate(221.859156 353.968762)scale(0.0968 -0.0968)">
       <use xlink:href="#ArialMT-8722"/>
       <use x="58.398438" xlink:href="#ArialMT-49"/>
       <use x="114.013672" xlink:href="#ArialMT-48"/>
      </g>
     </g>
    </g>
    <g id="xtick_3">
     <g id="line2d_3">
      <g>
       <use style="fill:#262626;stroke:#262626;" x="356.887187" xlink:href="#m8819d62160" y="339.84"/>
      </g>
     </g>
     <g id="text_3">
      <!-- 0 -->
      <g style="fill:#262626;" transform="translate(354.195694 353.968762)scale(0.0968 -0.0968)">
       <use xlink:href="#ArialMT-48"/>
      </g>
     </g>
    </g>
    <g id="xtick_4">
     <g id="line2d_4">
      <g>
       <use style="fill:#262626;stroke:#262626;" x="483.705369" xlink:href="#m8819d62160" y="339.84"/>
      </g>
     </g>
     <g id="text_4">
      <!-- 10 -->
      <g style="fill:#262626;" transform="translate(478.322382 353.968762)scale(0.0968 -0.0968)">
       <use xlink:href="#ArialMT-49"/>
       <use x="55.615234" xlink:href="#ArialMT-48"/>
      </g>
     </g>
    </g>
    <g id="xtick_5">
     <g id="line2d_5">
      <g>
       <use style="fill:#262626;stroke:#262626;" x="610.523551" xlink:href="#m8819d62160" y="339.84"/>
      </g>
     </g>
     <g id="text_5">
      <!-- 20 -->
      <g style="fill:#262626;" transform="translate(605.140564 353.968762)scale(0.0968 -0.0968)">
       <use xlink:href="#ArialMT-50"/>
       <use x="55.615234" xlink:href="#ArialMT-48"/>
      </g>
     </g>
    </g>
    <g id="xtick_6">
     <g id="line2d_6">
      <defs>
       <path d="M 0 0 
L 0 3.2 
" id="m1dbf4454bb" style="stroke:#262626;stroke-width:0.8;"/>
      </defs>
      <g>
       <use style="fill:#262626;stroke:#262626;stroke-width:0.8;" x="166.659915" xlink:href="#m1dbf4454bb" y="339.84"/>
      </g>
     </g>
    </g>
    <g id="xtick_7">
     <g id="line2d_7">
      <g>
       <use style="fill:#262626;stroke:#262626;stroke-width:0.8;" x="293.478097" xlink:href="#m1dbf4454bb" y="339.84"/>
      </g>
     </g>
    </g>
    <g id="xtick_8">
     <g id="line2d_8">
      <g>
       <use style="fill:#262626;stroke:#262626;stroke-width:0.8;" x="420.296278" xlink:href="#m1dbf4454bb" y="339.84"/>
      </g>
     </g>
    </g>
    <g id="xtick_9">
     <g id="line2d_9">
      <g>
       <use style="fill:#262626;stroke:#262626;stroke-width:0.8;" x="547.11446" xlink:href="#m1dbf4454bb" y="339.84"/>
      </g>
     </g>
    </g>
    <g id="text_6">
     <!-- bioRxiv vs NYTAC log2(Odds Ratio) -->
     <defs>
      <path d="M 14.703125 0 
L 6.546875 0 
L 6.546875 71.578125 
L 15.328125 71.578125 
L 15.328125 46.046875 
Q 20.90625 53.03125 29.546875 53.03125 
Q 34.328125 53.03125 38.59375 51.09375 
Q 42.875 49.171875 45.625 45.671875 
Q 48.390625 42.1875 49.953125 37.25 
Q 51.515625 32.328125 51.515625 26.703125 
Q 51.515625 13.375 44.921875 6.09375 
Q 38.328125 -1.171875 29.109375 -1.171875 
Q 19.921875 -1.171875 14.703125 6.5 
z
M 14.59375 26.3125 
Q 14.59375 17 17.140625 12.84375 
Q 21.296875 6.0625 28.375 6.0625 
Q 34.125 6.0625 38.328125 11.0625 
Q 42.53125 16.0625 42.53125 25.984375 
Q 42.53125 36.140625 38.5 40.96875 
Q 34.46875 45.796875 28.765625 45.796875 
Q 23 45.796875 18.796875 40.796875 
Q 14.59375 35.796875 14.59375 26.3125 
z
" id="ArialMT-98"/>
      <path d="M 6.640625 61.46875 
L 6.640625 71.578125 
L 15.4375 71.578125 
L 15.4375 61.46875 
z
M 6.640625 0 
L 6.640625 51.859375 
L 15.4375 51.859375 
L 15.4375 0 
z
" id="ArialMT-105"/>
      <path d="M 3.328125 25.921875 
Q 3.328125 40.328125 11.328125 47.265625 
Q 18.015625 53.03125 27.640625 53.03125 
Q 38.328125 53.03125 45.109375 46.015625 
Q 51.90625 39.015625 51.90625 26.65625 
Q 51.90625 16.65625 48.90625 10.90625 
Q 45.90625 5.171875 40.15625 2 
Q 34.421875 -1.171875 27.640625 -1.171875 
Q 16.75 -1.171875 10.03125 5.8125 
Q 3.328125 12.796875 3.328125 25.921875 
z
M 12.359375 25.921875 
Q 12.359375 15.96875 16.703125 11.015625 
Q 21.046875 6.0625 27.640625 6.0625 
Q 34.1875 6.0625 38.53125 11.03125 
Q 42.875 16.015625 42.875 26.21875 
Q 42.875 35.84375 38.5 40.796875 
Q 34.125 45.75 27.640625 45.75 
Q 21.046875 45.75 16.703125 40.8125 
Q 12.359375 35.890625 12.359375 25.921875 
z
" id="ArialMT-111"/>
      <path d="M 7.859375 0 
L 7.859375 71.578125 
L 39.59375 71.578125 
Q 49.171875 71.578125 54.140625 69.640625 
Q 59.125 67.71875 62.109375 62.828125 
Q 65.09375 57.953125 65.09375 52.046875 
Q 65.09375 44.4375 60.15625 39.203125 
Q 55.21875 33.984375 44.921875 32.5625 
Q 48.6875 30.765625 50.640625 29 
Q 54.78125 25.203125 58.5 19.484375 
L 70.953125 0 
L 59.03125 0 
L 49.5625 14.890625 
Q 45.40625 21.34375 42.71875 24.75 
Q 40.046875 28.171875 37.921875 29.53125 
Q 35.796875 30.90625 33.59375 31.453125 
Q 31.984375 31.78125 28.328125 31.78125 
L 17.328125 31.78125 
L 17.328125 0 
z
M 17.328125 39.984375 
L 37.703125 39.984375 
Q 44.1875 39.984375 47.84375 41.328125 
Q 51.515625 42.671875 53.421875 45.625 
Q 55.328125 48.578125 55.328125 52.046875 
Q 55.328125 57.125 51.640625 60.390625 
Q 47.953125 63.671875 39.984375 63.671875 
L 17.328125 63.671875 
z
" id="ArialMT-82"/>
      <path d="M 0.734375 0 
L 19.671875 26.953125 
L 2.15625 51.859375 
L 13.140625 51.859375 
L 21.09375 39.703125 
Q 23.34375 36.234375 24.703125 33.890625 
Q 26.859375 37.109375 28.65625 39.59375 
L 37.40625 51.859375 
L 47.90625 51.859375 
L 29.984375 27.4375 
L 49.265625 0 
L 38.484375 0 
L 27.828125 16.109375 
L 25 20.453125 
L 11.375 0 
z
" id="ArialMT-120"/>
      <path d="M 21 0 
L 1.265625 51.859375 
L 10.546875 51.859375 
L 21.6875 20.796875 
Q 23.484375 15.765625 25 10.359375 
Q 26.171875 14.453125 28.265625 20.21875 
L 39.796875 51.859375 
L 48.828125 51.859375 
L 29.203125 0 
z
" id="ArialMT-118"/>
      <path id="ArialMT-32"/>
      <path d="M 3.078125 15.484375 
L 11.765625 16.84375 
Q 12.5 11.625 15.84375 8.84375 
Q 19.1875 6.0625 25.203125 6.0625 
Q 31.25 6.0625 34.171875 8.515625 
Q 37.109375 10.984375 37.109375 14.3125 
Q 37.109375 17.28125 34.515625 19 
Q 32.71875 20.171875 25.53125 21.96875 
Q 15.875 24.421875 12.140625 26.203125 
Q 8.40625 27.984375 6.46875 31.125 
Q 4.546875 34.28125 4.546875 38.09375 
Q 4.546875 41.546875 6.125 44.5 
Q 7.71875 47.46875 10.453125 49.421875 
Q 12.5 50.921875 16.03125 51.96875 
Q 19.578125 53.03125 23.640625 53.03125 
Q 29.734375 53.03125 34.34375 51.265625 
Q 38.96875 49.515625 41.15625 46.5 
Q 43.359375 43.5 44.1875 38.484375 
L 35.59375 37.3125 
Q 35.015625 41.3125 32.203125 43.546875 
Q 29.390625 45.796875 24.265625 45.796875 
Q 18.21875 45.796875 15.625 43.796875 
Q 13.03125 41.796875 13.03125 39.109375 
Q 13.03125 37.40625 14.109375 36.03125 
Q 15.1875 34.625 17.484375 33.6875 
Q 18.796875 33.203125 25.25 31.453125 
Q 34.578125 28.953125 38.25 27.359375 
Q 41.9375 25.78125 44.03125 22.75 
Q 46.140625 19.734375 46.140625 15.234375 
Q 46.140625 10.84375 43.578125 6.953125 
Q 41.015625 3.078125 36.171875 0.953125 
Q 31.34375 -1.171875 25.25 -1.171875 
Q 15.140625 -1.171875 9.84375 3.03125 
Q 4.546875 7.234375 3.078125 15.484375 
z
" id="ArialMT-115"/>
      <path d="M 7.625 0 
L 7.625 71.578125 
L 17.328125 71.578125 
L 54.9375 15.375 
L 54.9375 71.578125 
L 64.015625 71.578125 
L 64.015625 0 
L 54.296875 0 
L 16.703125 56.25 
L 16.703125 0 
z
" id="ArialMT-78"/>
      <path d="M 27.875 0 
L 27.875 30.328125 
L 0.296875 71.578125 
L 11.8125 71.578125 
L 25.921875 50 
Q 29.828125 43.953125 33.203125 37.890625 
Q 36.421875 43.5 41.015625 50.53125 
L 54.890625 71.578125 
L 65.921875 71.578125 
L 37.359375 30.328125 
L 37.359375 0 
z
" id="ArialMT-89"/>
      <path d="M 25.921875 0 
L 25.921875 63.140625 
L 2.34375 63.140625 
L 2.34375 71.578125 
L 59.078125 71.578125 
L 59.078125 63.140625 
L 35.40625 63.140625 
L 35.40625 0 
z
" id="ArialMT-84"/>
      <path d="M -0.140625 0 
L 27.34375 71.578125 
L 37.546875 71.578125 
L 66.84375 0 
L 56.0625 0 
L 47.703125 21.6875 
L 17.78125 21.6875 
L 9.90625 0 
z
M 20.515625 29.390625 
L 44.78125 29.390625 
L 37.3125 49.21875 
Q 33.890625 58.25 32.234375 64.0625 
Q 30.859375 57.171875 28.375 50.390625 
z
" id="ArialMT-65"/>
      <path d="M 58.796875 25.09375 
L 68.265625 22.703125 
Q 65.28125 11.03125 57.546875 4.90625 
Q 49.8125 -1.21875 38.625 -1.21875 
Q 27.046875 -1.21875 19.796875 3.484375 
Q 12.546875 8.203125 8.765625 17.140625 
Q 4.984375 26.078125 4.984375 36.328125 
Q 4.984375 47.515625 9.25 55.828125 
Q 13.53125 64.15625 21.40625 68.46875 
Q 29.296875 72.796875 38.765625 72.796875 
Q 49.515625 72.796875 56.828125 67.328125 
Q 64.15625 61.859375 67.046875 51.953125 
L 57.71875 49.75 
Q 55.21875 57.5625 50.484375 61.125 
Q 45.75 64.703125 38.578125 64.703125 
Q 30.328125 64.703125 24.78125 60.734375 
Q 19.234375 56.78125 16.984375 50.109375 
Q 14.75 43.453125 14.75 36.375 
Q 14.75 27.25 17.40625 20.4375 
Q 20.0625 13.625 25.671875 10.25 
Q 31.296875 6.890625 37.84375 6.890625 
Q 45.796875 6.890625 51.3125 11.46875 
Q 56.84375 16.0625 58.796875 25.09375 
z
" id="ArialMT-67"/>
      <path d="M 6.390625 0 
L 6.390625 71.578125 
L 15.1875 71.578125 
L 15.1875 0 
z
" id="ArialMT-108"/>
      <path d="M 4.984375 -4.296875 
L 13.53125 -5.5625 
Q 14.0625 -9.515625 16.5 -11.328125 
Q 19.78125 -13.765625 25.4375 -13.765625 
Q 31.546875 -13.765625 34.859375 -11.328125 
Q 38.1875 -8.890625 39.359375 -4.5 
Q 40.046875 -1.8125 39.984375 6.78125 
Q 34.234375 0 25.640625 0 
Q 14.9375 0 9.078125 7.71875 
Q 3.21875 15.4375 3.21875 26.21875 
Q 3.21875 33.640625 5.90625 39.90625 
Q 8.59375 46.1875 13.6875 49.609375 
Q 18.796875 53.03125 25.6875 53.03125 
Q 34.859375 53.03125 40.828125 45.609375 
L 40.828125 51.859375 
L 48.921875 51.859375 
L 48.921875 7.03125 
Q 48.921875 -5.078125 46.453125 -10.125 
Q 44 -15.1875 38.640625 -18.109375 
Q 33.296875 -21.046875 25.484375 -21.046875 
Q 16.21875 -21.046875 10.5 -16.875 
Q 4.78125 -12.703125 4.984375 -4.296875 
z
M 12.25 26.859375 
Q 12.25 16.65625 16.296875 11.96875 
Q 20.359375 7.28125 26.46875 7.28125 
Q 32.515625 7.28125 36.609375 11.9375 
Q 40.71875 16.609375 40.71875 26.5625 
Q 40.71875 36.078125 36.5 40.90625 
Q 32.28125 45.75 26.3125 45.75 
Q 20.453125 45.75 16.34375 40.984375 
Q 12.25 36.234375 12.25 26.859375 
z
" id="ArialMT-103"/>
      <path d="M 23.390625 -21.046875 
Q 16.109375 -11.859375 11.078125 0.4375 
Q 6.0625 12.75 6.0625 25.921875 
Q 6.0625 37.546875 9.8125 48.1875 
Q 14.203125 60.546875 23.390625 72.796875 
L 29.6875 72.796875 
Q 23.78125 62.640625 21.875 58.296875 
Q 18.890625 51.5625 17.1875 44.234375 
Q 15.09375 35.109375 15.09375 25.875 
Q 15.09375 2.390625 29.6875 -21.046875 
z
" id="ArialMT-40"/>
      <path d="M 4.828125 34.859375 
Q 4.828125 52.6875 14.390625 62.765625 
Q 23.96875 72.859375 39.109375 72.859375 
Q 49.03125 72.859375 56.984375 68.109375 
Q 64.9375 63.375 69.109375 54.90625 
Q 73.296875 46.4375 73.296875 35.6875 
Q 73.296875 24.8125 68.890625 16.21875 
Q 64.5 7.625 56.4375 3.203125 
Q 48.390625 -1.21875 39.0625 -1.21875 
Q 28.953125 -1.21875 20.984375 3.65625 
Q 13.03125 8.546875 8.921875 16.984375 
Q 4.828125 25.4375 4.828125 34.859375 
z
M 14.59375 34.71875 
Q 14.59375 21.78125 21.546875 14.328125 
Q 28.515625 6.890625 39.015625 6.890625 
Q 49.703125 6.890625 56.609375 14.40625 
Q 63.53125 21.921875 63.53125 35.75 
Q 63.53125 44.484375 60.578125 51 
Q 57.625 57.515625 51.921875 61.109375 
Q 46.234375 64.703125 39.15625 64.703125 
Q 29.109375 64.703125 21.84375 57.78125 
Q 14.59375 50.875 14.59375 34.71875 
z
" id="ArialMT-79"/>
      <path d="M 40.234375 0 
L 40.234375 6.546875 
Q 35.296875 -1.171875 25.734375 -1.171875 
Q 19.53125 -1.171875 14.328125 2.25 
Q 9.125 5.671875 6.265625 11.796875 
Q 3.421875 17.921875 3.421875 25.875 
Q 3.421875 33.640625 6 39.96875 
Q 8.59375 46.296875 13.765625 49.65625 
Q 18.953125 53.03125 25.34375 53.03125 
Q 30.03125 53.03125 33.6875 51.046875 
Q 37.359375 49.078125 39.65625 45.90625 
L 39.65625 71.578125 
L 48.390625 71.578125 
L 48.390625 0 
z
M 12.453125 25.875 
Q 12.453125 15.921875 16.640625 10.984375 
Q 20.84375 6.0625 26.5625 6.0625 
Q 32.328125 6.0625 36.34375 10.765625 
Q 40.375 15.484375 40.375 25.140625 
Q 40.375 35.796875 36.265625 40.765625 
Q 32.171875 45.75 26.171875 45.75 
Q 20.3125 45.75 16.375 40.96875 
Q 12.453125 36.1875 12.453125 25.875 
z
" id="ArialMT-100"/>
      <path d="M 40.4375 6.390625 
Q 35.546875 2.25 31.03125 0.53125 
Q 26.515625 -1.171875 21.34375 -1.171875 
Q 12.796875 -1.171875 8.203125 3 
Q 3.609375 7.171875 3.609375 13.671875 
Q 3.609375 17.484375 5.34375 20.625 
Q 7.078125 23.78125 9.890625 25.6875 
Q 12.703125 27.59375 16.21875 28.5625 
Q 18.796875 29.25 24.03125 29.890625 
Q 34.671875 31.15625 39.703125 32.90625 
Q 39.75 34.71875 39.75 35.203125 
Q 39.75 40.578125 37.25 42.78125 
Q 33.890625 45.75 27.25 45.75 
Q 21.046875 45.75 18.09375 43.578125 
Q 15.140625 41.40625 13.71875 35.890625 
L 5.125 37.0625 
Q 6.296875 42.578125 8.984375 45.96875 
Q 11.671875 49.359375 16.75 51.1875 
Q 21.828125 53.03125 28.515625 53.03125 
Q 35.15625 53.03125 39.296875 51.46875 
Q 43.453125 49.90625 45.40625 47.53125 
Q 47.359375 45.171875 48.140625 41.546875 
Q 48.578125 39.3125 48.578125 33.453125 
L 48.578125 21.734375 
Q 48.578125 9.46875 49.140625 6.21875 
Q 49.703125 2.984375 51.375 0 
L 42.1875 0 
Q 40.828125 2.734375 40.4375 6.390625 
z
M 39.703125 26.03125 
Q 34.90625 24.078125 25.34375 22.703125 
Q 19.921875 21.921875 17.671875 20.9375 
Q 15.4375 19.96875 14.203125 18.09375 
Q 12.984375 16.21875 12.984375 13.921875 
Q 12.984375 10.40625 15.640625 8.0625 
Q 18.3125 5.71875 23.4375 5.71875 
Q 28.515625 5.71875 32.46875 7.9375 
Q 36.421875 10.15625 38.28125 14.015625 
Q 39.703125 17 39.703125 22.796875 
z
" id="ArialMT-97"/>
      <path d="M 25.78125 7.859375 
L 27.046875 0.09375 
Q 23.34375 -0.6875 20.40625 -0.6875 
Q 15.625 -0.6875 12.984375 0.828125 
Q 10.359375 2.34375 9.28125 4.8125 
Q 8.203125 7.28125 8.203125 15.1875 
L 8.203125 45.015625 
L 1.765625 45.015625 
L 1.765625 51.859375 
L 8.203125 51.859375 
L 8.203125 64.703125 
L 16.9375 69.96875 
L 16.9375 51.859375 
L 25.78125 51.859375 
L 25.78125 45.015625 
L 16.9375 45.015625 
L 16.9375 14.703125 
Q 16.9375 10.9375 17.40625 9.859375 
Q 17.875 8.796875 18.921875 8.15625 
Q 19.96875 7.515625 21.921875 7.515625 
Q 23.390625 7.515625 25.78125 7.859375 
z
" id="ArialMT-116"/>
      <path d="M 12.359375 -21.046875 
L 6.0625 -21.046875 
Q 20.65625 2.390625 20.65625 25.875 
Q 20.65625 35.0625 18.5625 44.09375 
Q 16.890625 51.421875 13.921875 58.15625 
Q 12.015625 62.546875 6.0625 72.796875 
L 12.359375 72.796875 
Q 21.53125 60.546875 25.921875 48.1875 
Q 29.6875 37.546875 29.6875 25.921875 
Q 29.6875 12.75 24.625 0.4375 
Q 19.578125 -11.859375 12.359375 -21.046875 
z
" id="ArialMT-41"/>
     </defs>
     <g style="fill:#262626;" transform="translate(263.096162 368.586613)scale(0.1056 -0.1056)">
      <use xlink:href="#ArialMT-98"/>
      <use x="55.615234" xlink:href="#ArialMT-105"/>
      <use x="77.832031" xlink:href="#ArialMT-111"/>
      <use x="133.447266" xlink:href="#ArialMT-82"/>
      <use x="205.664062" xlink:href="#ArialMT-120"/>
      <use x="255.664062" xlink:href="#ArialMT-105"/>
      <use x="277.880859" xlink:href="#ArialMT-118"/>
      <use x="327.880859" xlink:href="#ArialMT-32"/>
      <use x="355.664062" xlink:href="#ArialMT-118"/>
      <use x="405.664062" xlink:href="#ArialMT-115"/>
      <use x="455.664062" xlink:href="#ArialMT-32"/>
      <use x="483.447266" xlink:href="#ArialMT-78"/>
      <use x="555.664062" xlink:href="#ArialMT-89"/>
      <use x="622.363281" xlink:href="#ArialMT-84"/>
      <use x="683.337891" xlink:href="#ArialMT-65"/>
      <use x="750.037109" xlink:href="#ArialMT-67"/>
      <use x="822.253906" xlink:href="#ArialMT-32"/>
      <use x="850.037109" xlink:href="#ArialMT-108"/>
      <use x="872.253906" xlink:href="#ArialMT-111"/>
      <use x="927.869141" xlink:href="#ArialMT-103"/>
      <use x="983.484375" xlink:href="#ArialMT-50"/>
      <use x="1039.099609" xlink:href="#ArialMT-40"/>
      <use x="1072.400391" xlink:href="#ArialMT-79"/>
      <use x="1150.183594" xlink:href="#ArialMT-100"/>
      <use x="1205.798828" xlink:href="#ArialMT-100"/>
      <use x="1261.414062" xlink:href="#ArialMT-115"/>
      <use x="1311.414062" xlink:href="#ArialMT-32"/>
      <use x="1339.197266" xlink:href="#ArialMT-82"/>
      <use x="1411.414062" xlink:href="#ArialMT-97"/>
      <use x="1467.029297" xlink:href="#ArialMT-116"/>
      <use x="1494.8125" xlink:href="#ArialMT-105"/>
      <use x="1517.029297" xlink:href="#ArialMT-111"/>
      <use x="1572.644531" xlink:href="#ArialMT-41"/>
     </g>
    </g>
   </g>
   <g id="matplotlib.axis_2">
    <g id="ytick_1">
     <g id="line2d_10">
      <defs>
       <path d="M 0 0 
L -4.8 0 
" id="me68e370fea" style="stroke:#262626;"/>
      </defs>
      <g>
       <use style="fill:#262626;stroke:#262626;" x="77.887188" xlink:href="#me68e370fea" y="334.875224"/>
      </g>
     </g>
     <g id="text_7">
      <!-- president -->
      <defs>
       <path d="M 6.59375 -19.875 
L 6.59375 51.859375 
L 14.59375 51.859375 
L 14.59375 45.125 
Q 17.4375 49.078125 21 51.046875 
Q 24.5625 53.03125 29.640625 53.03125 
Q 36.28125 53.03125 41.359375 49.609375 
Q 46.4375 46.1875 49.015625 39.953125 
Q 51.609375 33.734375 51.609375 26.3125 
Q 51.609375 18.359375 48.75 11.984375 
Q 45.90625 5.609375 40.453125 2.21875 
Q 35.015625 -1.171875 29 -1.171875 
Q 24.609375 -1.171875 21.109375 0.6875 
Q 17.625 2.546875 15.375 5.375 
L 15.375 -19.875 
z
M 14.546875 25.640625 
Q 14.546875 15.625 18.59375 10.84375 
Q 22.65625 6.0625 28.421875 6.0625 
Q 34.28125 6.0625 38.453125 11.015625 
Q 42.625 15.96875 42.625 26.375 
Q 42.625 36.28125 38.546875 41.203125 
Q 34.46875 46.140625 28.8125 46.140625 
Q 23.1875 46.140625 18.859375 40.890625 
Q 14.546875 35.640625 14.546875 25.640625 
z
" id="ArialMT-112"/>
       <path d="M 6.5 0 
L 6.5 51.859375 
L 14.40625 51.859375 
L 14.40625 44 
Q 17.4375 49.515625 20 51.265625 
Q 22.5625 53.03125 25.640625 53.03125 
Q 30.078125 53.03125 34.671875 50.203125 
L 31.640625 42.046875 
Q 28.421875 43.953125 25.203125 43.953125 
Q 22.3125 43.953125 20.015625 42.21875 
Q 17.71875 40.484375 16.75 37.40625 
Q 15.28125 32.71875 15.28125 27.15625 
L 15.28125 0 
z
" id="ArialMT-114"/>
       <path d="M 42.09375 16.703125 
L 51.171875 15.578125 
Q 49.03125 7.625 43.21875 3.21875 
Q 37.40625 -1.171875 28.375 -1.171875 
Q 17 -1.171875 10.328125 5.828125 
Q 3.65625 12.84375 3.65625 25.484375 
Q 3.65625 38.578125 10.390625 45.796875 
Q 17.140625 53.03125 27.875 53.03125 
Q 38.28125 53.03125 44.875 45.953125 
Q 51.46875 38.875 51.46875 26.03125 
Q 51.46875 25.25 51.421875 23.6875 
L 12.75 23.6875 
Q 13.234375 15.140625 17.578125 10.59375 
Q 21.921875 6.0625 28.421875 6.0625 
Q 33.25 6.0625 36.671875 8.59375 
Q 40.09375 11.140625 42.09375 16.703125 
z
M 13.234375 30.90625 
L 42.1875 30.90625 
Q 41.609375 37.453125 38.875 40.71875 
Q 34.671875 45.796875 27.984375 45.796875 
Q 21.921875 45.796875 17.796875 41.75 
Q 13.671875 37.703125 13.234375 30.90625 
z
" id="ArialMT-101"/>
       <path d="M 6.59375 0 
L 6.59375 51.859375 
L 14.5 51.859375 
L 14.5 44.484375 
Q 20.21875 53.03125 31 53.03125 
Q 35.6875 53.03125 39.625 51.34375 
Q 43.5625 49.65625 45.515625 46.921875 
Q 47.46875 44.1875 48.25 40.4375 
Q 48.734375 37.984375 48.734375 31.890625 
L 48.734375 0 
L 39.9375 0 
L 39.9375 31.546875 
Q 39.9375 36.921875 38.90625 39.578125 
Q 37.890625 42.234375 35.28125 43.8125 
Q 32.671875 45.40625 29.15625 45.40625 
Q 23.53125 45.40625 19.453125 41.84375 
Q 15.375 38.28125 15.375 28.328125 
L 15.375 0 
z
" id="ArialMT-110"/>
      </defs>
      <g style="fill:#262626;" transform="translate(30.869112 338.339605)scale(0.0968 -0.0968)">
       <use xlink:href="#ArialMT-112"/>
       <use x="55.615234" xlink:href="#ArialMT-114"/>
       <use x="88.916016" xlink:href="#ArialMT-101"/>
       <use x="144.53125" xlink:href="#ArialMT-115"/>
       <use x="194.53125" xlink:href="#ArialMT-105"/>
       <use x="216.748047" xlink:href="#ArialMT-100"/>
       <use x="272.363281" xlink:href="#ArialMT-101"/>
       <use x="327.978516" xlink:href="#ArialMT-110"/>
       <use x="383.59375" xlink:href="#ArialMT-116"/>
      </g>
     </g>
    </g>
    <g id="ytick_2">
     <g id="line2d_11">
      <g>
       <use style="fill:#262626;stroke:#262626;" x="77.887188" xlink:href="#me68e370fea" y="326.600597"/>
      </g>
     </g>
     <g id="text_8">
      <!-- yesterday -->
      <defs>
       <path d="M 6.203125 -19.96875 
L 5.21875 -11.71875 
Q 8.109375 -12.5 10.25 -12.5 
Q 13.1875 -12.5 14.9375 -11.515625 
Q 16.703125 -10.546875 17.828125 -8.796875 
Q 18.65625 -7.46875 20.515625 -2.25 
Q 20.75 -1.515625 21.296875 -0.09375 
L 1.609375 51.859375 
L 11.078125 51.859375 
L 21.875 21.828125 
Q 23.96875 16.109375 25.640625 9.8125 
Q 27.15625 15.875 29.25 21.625 
L 40.328125 51.859375 
L 49.125 51.859375 
L 29.390625 -0.875 
Q 26.21875 -9.421875 24.46875 -12.640625 
Q 22.125 -17 19.09375 -19.015625 
Q 16.0625 -21.046875 11.859375 -21.046875 
Q 9.328125 -21.046875 6.203125 -19.96875 
z
" id="ArialMT-121"/>
      </defs>
      <g style="fill:#262626;" transform="translate(28.722875 330.064978)scale(0.0968 -0.0968)">
       <use xlink:href="#ArialMT-121"/>
       <use x="50" xlink:href="#ArialMT-101"/>
       <use x="105.615234" xlink:href="#ArialMT-115"/>
       <use x="155.615234" xlink:href="#ArialMT-116"/>
       <use x="183.398438" xlink:href="#ArialMT-101"/>
       <use x="239.013672" xlink:href="#ArialMT-114"/>
       <use x="272.314453" xlink:href="#ArialMT-100"/>
       <use x="327.929688" xlink:href="#ArialMT-97"/>
       <use x="383.544922" xlink:href="#ArialMT-121"/>
      </g>
     </g>
    </g>
    <g id="ytick_3">
     <g id="line2d_12">
      <g>
       <use style="fill:#262626;stroke:#262626;" x="77.887188" xlink:href="#me68e370fea" y="318.32597"/>
      </g>
     </g>
     <g id="text_9">
      <!-- officials -->
      <defs>
       <path d="M 8.6875 0 
L 8.6875 45.015625 
L 0.921875 45.015625 
L 0.921875 51.859375 
L 8.6875 51.859375 
L 8.6875 57.375 
Q 8.6875 62.59375 9.625 65.140625 
Q 10.890625 68.5625 14.078125 70.671875 
Q 17.28125 72.796875 23.046875 72.796875 
Q 26.765625 72.796875 31.25 71.921875 
L 29.9375 64.265625 
Q 27.203125 64.75 24.75 64.75 
Q 20.75 64.75 19.09375 63.03125 
Q 17.4375 61.328125 17.4375 56.640625 
L 17.4375 51.859375 
L 27.546875 51.859375 
L 27.546875 45.015625 
L 17.4375 45.015625 
L 17.4375 0 
z
" id="ArialMT-102"/>
       <path d="M 40.4375 19 
L 49.078125 17.875 
Q 47.65625 8.9375 41.8125 3.875 
Q 35.984375 -1.171875 27.484375 -1.171875 
Q 16.84375 -1.171875 10.375 5.78125 
Q 3.90625 12.75 3.90625 25.734375 
Q 3.90625 34.125 6.6875 40.421875 
Q 9.46875 46.734375 15.15625 49.875 
Q 20.84375 53.03125 27.546875 53.03125 
Q 35.984375 53.03125 41.359375 48.75 
Q 46.734375 44.484375 48.25 36.625 
L 39.703125 35.296875 
Q 38.484375 40.53125 35.375 43.15625 
Q 32.28125 45.796875 27.875 45.796875 
Q 21.234375 45.796875 17.078125 41.03125 
Q 12.9375 36.28125 12.9375 25.984375 
Q 12.9375 15.53125 16.9375 10.796875 
Q 20.953125 6.0625 27.390625 6.0625 
Q 32.5625 6.0625 36.03125 9.234375 
Q 39.5 12.40625 40.4375 19 
z
" id="ArialMT-99"/>
      </defs>
      <g style="fill:#262626;" transform="translate(38.41195 321.790351)scale(0.0968 -0.0968)">
       <use xlink:href="#ArialMT-111"/>
       <use x="55.615234" xlink:href="#ArialMT-102"/>
       <use x="83.382812" xlink:href="#ArialMT-102"/>
       <use x="111.166016" xlink:href="#ArialMT-105"/>
       <use x="133.382812" xlink:href="#ArialMT-99"/>
       <use x="183.382812" xlink:href="#ArialMT-105"/>
       <use x="205.599609" xlink:href="#ArialMT-97"/>
       <use x="261.214844" xlink:href="#ArialMT-108"/>
       <use x="283.431641" xlink:href="#ArialMT-115"/>
      </g>
     </g>
    </g>
    <g id="ytick_4">
     <g id="line2d_13">
      <g>
       <use style="fill:#262626;stroke:#262626;" x="77.887188" xlink:href="#me68e370fea" y="310.051343"/>
      </g>
     </g>
     <g id="text_10">
      <!-- police -->
      <g style="fill:#262626;" transform="translate(45.396675 313.515725)scale(0.0968 -0.0968)">
       <use xlink:href="#ArialMT-112"/>
       <use x="55.615234" xlink:href="#ArialMT-111"/>
       <use x="111.230469" xlink:href="#ArialMT-108"/>
       <use x="133.447266" xlink:href="#ArialMT-105"/>
       <use x="155.664062" xlink:href="#ArialMT-99"/>
       <use x="205.664062" xlink:href="#ArialMT-101"/>
      </g>
     </g>
    </g>
    <g id="ytick_5">
     <g id="line2d_14">
      <g>
       <use style="fill:#262626;stroke:#262626;" x="77.887188" xlink:href="#me68e370fea" y="301.776716"/>
      </g>
     </g>
     <g id="text_11">
      <!-- p.m. -->
      <defs>
       <path d="M 9.078125 0 
L 9.078125 10.015625 
L 19.09375 10.015625 
L 19.09375 0 
z
" id="ArialMT-46"/>
       <path d="M 6.59375 0 
L 6.59375 51.859375 
L 14.453125 51.859375 
L 14.453125 44.578125 
Q 16.890625 48.390625 20.9375 50.703125 
Q 25 53.03125 30.171875 53.03125 
Q 35.9375 53.03125 39.625 50.640625 
Q 43.3125 48.25 44.828125 43.953125 
Q 50.984375 53.03125 60.84375 53.03125 
Q 68.5625 53.03125 72.703125 48.75 
Q 76.859375 44.484375 76.859375 35.59375 
L 76.859375 0 
L 68.109375 0 
L 68.109375 32.671875 
Q 68.109375 37.9375 67.25 40.25 
Q 66.40625 42.578125 64.15625 43.984375 
Q 61.921875 45.40625 58.890625 45.40625 
Q 53.421875 45.40625 49.796875 41.765625 
Q 46.1875 38.140625 46.1875 30.125 
L 46.1875 0 
L 37.40625 0 
L 37.40625 33.6875 
Q 37.40625 39.546875 35.25 42.46875 
Q 33.109375 45.40625 28.21875 45.40625 
Q 24.515625 45.40625 21.359375 43.453125 
Q 18.21875 41.5 16.796875 37.734375 
Q 15.375 33.984375 15.375 26.90625 
L 15.375 0 
z
" id="ArialMT-109"/>
      </defs>
      <g style="fill:#262626;" transform="translate(51.862613 305.241098)scale(0.0968 -0.0968)">
       <use xlink:href="#ArialMT-112"/>
       <use x="55.615234" xlink:href="#ArialMT-46"/>
       <use x="83.398438" xlink:href="#ArialMT-109"/>
       <use x="166.699219" xlink:href="#ArialMT-46"/>
      </g>
     </g>
    </g>
    <g id="ytick_6">
     <g id="line2d_15">
      <g>
       <use style="fill:#262626;stroke:#262626;" x="77.887188" xlink:href="#me68e370fea" y="293.50209"/>
      </g>
     </g>
     <g id="text_12">
      <!-- director -->
      <g style="fill:#262626;" transform="translate(38.41195 296.966471)scale(0.0968 -0.0968)">
       <use xlink:href="#ArialMT-100"/>
       <use x="55.615234" xlink:href="#ArialMT-105"/>
       <use x="77.832031" xlink:href="#ArialMT-114"/>
       <use x="111.132812" xlink:href="#ArialMT-101"/>
       <use x="166.748047" xlink:href="#ArialMT-99"/>
       <use x="216.748047" xlink:href="#ArialMT-116"/>
       <use x="244.53125" xlink:href="#ArialMT-111"/>
       <use x="300.146484" xlink:href="#ArialMT-114"/>
      </g>
     </g>
    </g>
    <g id="ytick_7">
     <g id="line2d_16">
      <g>
       <use style="fill:#262626;stroke:#262626;" x="77.887188" xlink:href="#me68e370fea" y="285.227463"/>
      </g>
     </g>
     <g id="text_13">
      <!-- said -->
      <g style="fill:#262626;" transform="translate(52.930438 288.691844)scale(0.0968 -0.0968)">
       <use xlink:href="#ArialMT-115"/>
       <use x="50" xlink:href="#ArialMT-97"/>
       <use x="105.615234" xlink:href="#ArialMT-105"/>
       <use x="127.832031" xlink:href="#ArialMT-100"/>
      </g>
     </g>
    </g>
    <g id="ytick_8">
     <g id="line2d_17">
      <g>
       <use style="fill:#262626;stroke:#262626;" x="77.887188" xlink:href="#me68e370fea" y="276.952836"/>
      </g>
     </g>
     <g id="text_14">
      <!-- says -->
      <g style="fill:#262626;" transform="translate(50.7842 280.360498)scale(0.0968 -0.0968)">
       <use xlink:href="#ArialMT-115"/>
       <use x="50" xlink:href="#ArialMT-97"/>
       <use x="105.615234" xlink:href="#ArialMT-121"/>
       <use x="155.615234" xlink:href="#ArialMT-115"/>
      </g>
     </g>
    </g>
    <g id="ytick_9">
     <g id="line2d_18">
      <g>
       <use style="fill:#262626;stroke:#262626;" x="77.887188" xlink:href="#me68e370fea" y="268.678209"/>
      </g>
     </g>
     <g id="text_15">
      <!-- street -->
      <g style="fill:#262626;" transform="translate(46.479625 272.14259)scale(0.0968 -0.0968)">
       <use xlink:href="#ArialMT-115"/>
       <use x="50" xlink:href="#ArialMT-116"/>
       <use x="77.783203" xlink:href="#ArialMT-114"/>
       <use x="111.083984" xlink:href="#ArialMT-101"/>
       <use x="166.699219" xlink:href="#ArialMT-101"/>
       <use x="222.314453" xlink:href="#ArialMT-116"/>
      </g>
     </g>
    </g>
    <g id="ytick_10">
     <g id="line2d_19">
      <g>
       <use style="fill:#262626;stroke:#262626;" x="77.887188" xlink:href="#me68e370fea" y="260.403582"/>
      </g>
     </g>
     <g id="text_16">
      <!-- business -->
      <defs>
       <path d="M 40.578125 0 
L 40.578125 7.625 
Q 34.515625 -1.171875 24.125 -1.171875 
Q 19.53125 -1.171875 15.546875 0.578125 
Q 11.578125 2.34375 9.640625 5 
Q 7.71875 7.671875 6.9375 11.53125 
Q 6.390625 14.109375 6.390625 19.734375 
L 6.390625 51.859375 
L 15.1875 51.859375 
L 15.1875 23.09375 
Q 15.1875 16.21875 15.71875 13.8125 
Q 16.546875 10.359375 19.234375 8.375 
Q 21.921875 6.390625 25.875 6.390625 
Q 29.828125 6.390625 33.296875 8.421875 
Q 36.765625 10.453125 38.203125 13.9375 
Q 39.65625 17.4375 39.65625 24.078125 
L 39.65625 51.859375 
L 48.4375 51.859375 
L 48.4375 0 
z
" id="ArialMT-117"/>
      </defs>
      <g style="fill:#262626;" transform="translate(32.484463 263.867963)scale(0.0968 -0.0968)">
       <use xlink:href="#ArialMT-98"/>
       <use x="55.615234" xlink:href="#ArialMT-117"/>
       <use x="111.230469" xlink:href="#ArialMT-115"/>
       <use x="161.230469" xlink:href="#ArialMT-105"/>
       <use x="183.447266" xlink:href="#ArialMT-110"/>
       <use x="239.0625" xlink:href="#ArialMT-101"/>
       <use x="294.677734" xlink:href="#ArialMT-115"/>
       <use x="344.677734" xlink:href="#ArialMT-115"/>
      </g>
     </g>
    </g>
    <g id="ytick_11">
     <g id="line2d_20">
      <g>
       <use style="fill:#262626;stroke:#262626;" x="77.887188" xlink:href="#me68e370fea" y="252.128955"/>
      </g>
     </g>
     <g id="text_17">
      <!-- court -->
      <g style="fill:#262626;" transform="translate(49.16885 255.593336)scale(0.0968 -0.0968)">
       <use xlink:href="#ArialMT-99"/>
       <use x="50" xlink:href="#ArialMT-111"/>
       <use x="105.615234" xlink:href="#ArialMT-117"/>
       <use x="161.230469" xlink:href="#ArialMT-114"/>
       <use x="194.53125" xlink:href="#ArialMT-116"/>
      </g>
     </g>
    </g>
    <g id="ytick_12">
     <g id="line2d_21">
      <g>
       <use style="fill:#262626;stroke:#262626;" x="77.887188" xlink:href="#me68e370fea" y="243.854328"/>
      </g>
     </g>
     <g id="text_18">
      <!-- - - -->
      <defs>
       <path d="M 3.171875 21.484375 
L 3.171875 30.328125 
L 30.171875 30.328125 
L 30.171875 21.484375 
z
" id="ArialMT-45"/>
      </defs>
      <g style="fill:#262626;" transform="translate(64.240913 247.31871)scale(0.0968 -0.0968)">
       <use xlink:href="#ArialMT-45"/>
       <use x="33.300781" xlink:href="#ArialMT-45"/>
      </g>
     </g>
    </g>
    <g id="ytick_13">
     <g id="line2d_22">
      <g>
       <use style="fill:#262626;stroke:#262626;" x="77.887188" xlink:href="#me68e370fea" y="235.579701"/>
      </g>
     </g>
     <g id="text_19">
      <!-- war -->
      <defs>
       <path d="M 16.15625 0 
L 0.296875 51.859375 
L 9.375 51.859375 
L 17.625 21.921875 
L 20.703125 10.796875 
Q 20.90625 11.625 23.390625 21.484375 
L 31.640625 51.859375 
L 40.671875 51.859375 
L 48.4375 21.78125 
L 51.03125 11.859375 
L 54 21.875 
L 62.890625 51.859375 
L 71.4375 51.859375 
L 55.21875 0 
L 46.09375 0 
L 37.84375 31.0625 
L 35.84375 39.890625 
L 25.34375 0 
z
" id="ArialMT-119"/>
      </defs>
      <g style="fill:#262626;" transform="translate(55.090288 239.044083)scale(0.0968 -0.0968)">
       <use xlink:href="#ArialMT-119"/>
       <use x="72.216797" xlink:href="#ArialMT-97"/>
       <use x="127.832031" xlink:href="#ArialMT-114"/>
      </g>
     </g>
    </g>
    <g id="ytick_14">
     <g id="line2d_23">
      <g>
       <use style="fill:#262626;stroke:#262626;" x="77.887188" xlink:href="#me68e370fea" y="227.305075"/>
      </g>
     </g>
     <g id="text_20">
      <!-- york -->
      <defs>
       <path d="M 6.640625 0 
L 6.640625 71.578125 
L 15.4375 71.578125 
L 15.4375 30.765625 
L 36.234375 51.859375 
L 47.609375 51.859375 
L 27.78125 32.625 
L 49.609375 0 
L 38.765625 0 
L 21.625 26.515625 
L 15.4375 20.5625 
L 15.4375 0 
z
" id="ArialMT-107"/>
      </defs>
      <g style="fill:#262626;" transform="translate(52.401063 230.769456)scale(0.0968 -0.0968)">
       <use xlink:href="#ArialMT-121"/>
       <use x="50" xlink:href="#ArialMT-111"/>
       <use x="105.615234" xlink:href="#ArialMT-114"/>
       <use x="138.916016" xlink:href="#ArialMT-107"/>
      </g>
     </g>
    </g>
    <g id="ytick_15">
     <g id="line2d_24">
      <g>
       <use style="fill:#262626;stroke:#262626;" x="77.887188" xlink:href="#me68e370fea" y="219.030448"/>
      </g>
     </g>
     <g id="text_21">
      <!-- company -->
      <g style="fill:#262626;" transform="translate(31.4121 222.43811)scale(0.0968 -0.0968)">
       <use xlink:href="#ArialMT-99"/>
       <use x="50" xlink:href="#ArialMT-111"/>
       <use x="105.615234" xlink:href="#ArialMT-109"/>
       <use x="188.916016" xlink:href="#ArialMT-112"/>
       <use x="244.53125" xlink:href="#ArialMT-97"/>
       <use x="300.146484" xlink:href="#ArialMT-110"/>
       <use x="355.761719" xlink:href="#ArialMT-121"/>
      </g>
     </g>
    </g>
    <g id="ytick_16">
     <g id="line2d_25">
      <g>
       <use style="fill:#262626;stroke:#262626;" x="77.887188" xlink:href="#me68e370fea" y="210.755821"/>
      </g>
     </g>
     <g id="text_22">
      <!-- political -->
      <g style="fill:#262626;" transform="translate(38.4059 214.220202)scale(0.0968 -0.0968)">
       <use xlink:href="#ArialMT-112"/>
       <use x="55.615234" xlink:href="#ArialMT-111"/>
       <use x="111.230469" xlink:href="#ArialMT-108"/>
       <use x="133.447266" xlink:href="#ArialMT-105"/>
       <use x="155.664062" xlink:href="#ArialMT-116"/>
       <use x="183.447266" xlink:href="#ArialMT-105"/>
       <use x="205.664062" xlink:href="#ArialMT-99"/>
       <use x="255.664062" xlink:href="#ArialMT-97"/>
       <use x="311.279297" xlink:href="#ArialMT-108"/>
      </g>
     </g>
    </g>
    <g id="ytick_17">
     <g id="line2d_26">
      <g>
       <use style="fill:#262626;stroke:#262626;" x="77.887188" xlink:href="#me68e370fea" y="202.481194"/>
      </g>
     </g>
     <g id="text_23">
      <!-- federal -->
      <g style="fill:#262626;" transform="translate(41.0921 205.945575)scale(0.0968 -0.0968)">
       <use xlink:href="#ArialMT-102"/>
       <use x="27.783203" xlink:href="#ArialMT-101"/>
       <use x="83.398438" xlink:href="#ArialMT-100"/>
       <use x="139.013672" xlink:href="#ArialMT-101"/>
       <use x="194.628906" xlink:href="#ArialMT-114"/>
       <use x="227.929688" xlink:href="#ArialMT-97"/>
       <use x="283.544922" xlink:href="#ArialMT-108"/>
      </g>
     </g>
    </g>
    <g id="ytick_18">
     <g id="line2d_27">
      <g>
       <use style="fill:#262626;stroke:#262626;" x="77.887188" xlink:href="#me68e370fea" y="194.206567"/>
      </g>
     </g>
     <g id="text_24">
      <!-- money -->
      <g style="fill:#262626;" transform="translate(41.635088 197.61423)scale(0.0968 -0.0968)">
       <use xlink:href="#ArialMT-109"/>
       <use x="83.300781" xlink:href="#ArialMT-111"/>
       <use x="138.916016" xlink:href="#ArialMT-110"/>
       <use x="194.53125" xlink:href="#ArialMT-101"/>
       <use x="250.146484" xlink:href="#ArialMT-121"/>
      </g>
     </g>
    </g>
    <g id="ytick_19">
     <g id="line2d_28">
      <g>
       <use style="fill:#262626;stroke:#262626;" x="77.887188" xlink:href="#me68e370fea" y="185.93194"/>
      </g>
     </g>
     <g id="text_25">
      <!-- companies -->
      <g style="fill:#262626;" transform="translate(23.878338 189.396322)scale(0.0968 -0.0968)">
       <use xlink:href="#ArialMT-99"/>
       <use x="50" xlink:href="#ArialMT-111"/>
       <use x="105.615234" xlink:href="#ArialMT-109"/>
       <use x="188.916016" xlink:href="#ArialMT-112"/>
       <use x="244.53125" xlink:href="#ArialMT-97"/>
       <use x="300.146484" xlink:href="#ArialMT-110"/>
       <use x="355.761719" xlink:href="#ArialMT-105"/>
       <use x="377.978516" xlink:href="#ArialMT-101"/>
       <use x="433.59375" xlink:href="#ArialMT-115"/>
      </g>
     </g>
    </g>
    <g id="ytick_20">
     <g id="line2d_29">
      <g>
       <use style="fill:#262626;stroke:#262626;" x="77.887188" xlink:href="#me68e370fea" y="177.657313"/>
      </g>
     </g>
     <g id="text_26">
      <!-- john -->
      <defs>
       <path d="M 6.546875 61.375 
L 6.546875 71.578125 
L 15.328125 71.578125 
L 15.328125 61.375 
z
M -4.59375 -20.125 
L -2.9375 -12.640625 
Q -0.296875 -13.328125 1.21875 -13.328125 
Q 3.90625 -13.328125 5.21875 -11.546875 
Q 6.546875 -9.765625 6.546875 -2.640625 
L 6.546875 51.859375 
L 15.328125 51.859375 
L 15.328125 -2.828125 
Q 15.328125 -12.40625 12.84375 -16.15625 
Q 9.671875 -21.046875 2.296875 -21.046875 
Q -1.265625 -21.046875 -4.59375 -20.125 
z
" id="ArialMT-106"/>
       <path d="M 6.59375 0 
L 6.59375 71.578125 
L 15.375 71.578125 
L 15.375 45.90625 
Q 21.53125 53.03125 30.90625 53.03125 
Q 36.671875 53.03125 40.921875 50.75 
Q 45.171875 48.484375 47 44.484375 
Q 48.828125 40.484375 48.828125 32.859375 
L 48.828125 0 
L 40.046875 0 
L 40.046875 32.859375 
Q 40.046875 39.453125 37.1875 42.453125 
Q 34.328125 45.453125 29.109375 45.453125 
Q 25.203125 45.453125 21.75 43.421875 
Q 18.3125 41.40625 16.84375 37.9375 
Q 15.375 34.46875 15.375 28.375 
L 15.375 0 
z
" id="ArialMT-104"/>
      </defs>
      <g style="fill:#262626;" transform="translate(52.38745 181.121695)scale(0.0968 -0.0968)">
       <use xlink:href="#ArialMT-106"/>
       <use x="22.216797" xlink:href="#ArialMT-111"/>
       <use x="77.832031" xlink:href="#ArialMT-104"/>
       <use x="133.447266" xlink:href="#ArialMT-110"/>
      </g>
     </g>
    </g>
    <g id="ytick_21">
     <g id="line2d_30">
      <g>
       <use style="fill:#262626;stroke:#262626;" x="77.887188" xlink:href="#me68e370fea" y="169.382687"/>
      </g>
     </g>
     <g id="text_27">
      <!-- samples -->
      <g style="fill:#262626;" transform="translate(34.644313 172.847068)scale(0.0968 -0.0968)">
       <use xlink:href="#ArialMT-115"/>
       <use x="50" xlink:href="#ArialMT-97"/>
       <use x="105.615234" xlink:href="#ArialMT-109"/>
       <use x="188.916016" xlink:href="#ArialMT-112"/>
       <use x="244.53125" xlink:href="#ArialMT-108"/>
       <use x="266.748047" xlink:href="#ArialMT-101"/>
       <use x="322.363281" xlink:href="#ArialMT-115"/>
      </g>
     </g>
    </g>
    <g id="ytick_22">
     <g id="line2d_31">
      <g>
       <use style="fill:#262626;stroke:#262626;" x="77.887188" xlink:href="#me68e370fea" y="161.10806"/>
      </g>
     </g>
     <g id="text_28">
      <!-- cell -->
      <g style="fill:#262626;" transform="translate(56.16265 164.572441)scale(0.0968 -0.0968)">
       <use xlink:href="#ArialMT-99"/>
       <use x="50" xlink:href="#ArialMT-101"/>
       <use x="105.615234" xlink:href="#ArialMT-108"/>
       <use x="127.832031" xlink:href="#ArialMT-108"/>
      </g>
     </g>
    </g>
    <g id="ytick_23">
     <g id="line2d_32">
      <g>
       <use style="fill:#262626;stroke:#262626;" x="77.887188" xlink:href="#me68e370fea" y="152.833433"/>
      </g>
     </g>
     <g id="text_29">
      <!-- expression -->
      <g style="fill:#262626;" transform="translate(23.878338 156.297814)scale(0.0968 -0.0968)">
       <use xlink:href="#ArialMT-101"/>
       <use x="55.615234" xlink:href="#ArialMT-120"/>
       <use x="105.615234" xlink:href="#ArialMT-112"/>
       <use x="161.230469" xlink:href="#ArialMT-114"/>
       <use x="194.53125" xlink:href="#ArialMT-101"/>
       <use x="250.146484" xlink:href="#ArialMT-115"/>
       <use x="300.146484" xlink:href="#ArialMT-115"/>
       <use x="350.146484" xlink:href="#ArialMT-105"/>
       <use x="372.363281" xlink:href="#ArialMT-111"/>
       <use x="427.978516" xlink:href="#ArialMT-110"/>
      </g>
     </g>
    </g>
    <g id="ytick_24">
     <g id="line2d_33">
      <g>
       <use style="fill:#262626;stroke:#262626;" x="77.887188" xlink:href="#me68e370fea" y="144.558806"/>
      </g>
     </g>
     <g id="text_30">
      <!-- cells -->
      <g style="fill:#262626;" transform="translate(51.32265 148.023187)scale(0.0968 -0.0968)">
       <use xlink:href="#ArialMT-99"/>
       <use x="50" xlink:href="#ArialMT-101"/>
       <use x="105.615234" xlink:href="#ArialMT-108"/>
       <use x="127.832031" xlink:href="#ArialMT-108"/>
       <use x="150.048828" xlink:href="#ArialMT-115"/>
      </g>
     </g>
    </g>
    <g id="ytick_25">
     <g id="line2d_34">
      <g>
       <use style="fill:#262626;stroke:#262626;" x="77.887188" xlink:href="#me68e370fea" y="136.284179"/>
      </g>
     </g>
     <g id="text_31">
      <!-- binding -->
      <g style="fill:#262626;" transform="translate(39.4707 139.74856)scale(0.0968 -0.0968)">
       <use xlink:href="#ArialMT-98"/>
       <use x="55.615234" xlink:href="#ArialMT-105"/>
       <use x="77.832031" xlink:href="#ArialMT-110"/>
       <use x="133.447266" xlink:href="#ArialMT-100"/>
       <use x="189.0625" xlink:href="#ArialMT-105"/>
       <use x="211.279297" xlink:href="#ArialMT-110"/>
       <use x="266.894531" xlink:href="#ArialMT-103"/>
      </g>
     </g>
    </g>
    <g id="ytick_26">
     <g id="line2d_35">
      <g>
       <use style="fill:#262626;stroke:#262626;" x="77.887188" xlink:href="#me68e370fea" y="128.009552"/>
      </g>
     </g>
     <g id="text_32">
      <!-- mice -->
      <g style="fill:#262626;" transform="translate(50.250288 131.473933)scale(0.0968 -0.0968)">
       <use xlink:href="#ArialMT-109"/>
       <use x="83.300781" xlink:href="#ArialMT-105"/>
       <use x="105.517578" xlink:href="#ArialMT-99"/>
       <use x="155.517578" xlink:href="#ArialMT-101"/>
      </g>
     </g>
    </g>
    <g id="ytick_27">
     <g id="line2d_36">
      <g>
       <use style="fill:#262626;stroke:#262626;" x="77.887188" xlink:href="#me68e370fea" y="119.734925"/>
      </g>
     </g>
     <g id="text_33">
      <!-- protein -->
      <g style="fill:#262626;" transform="translate(41.0921 123.199307)scale(0.0968 -0.0968)">
       <use xlink:href="#ArialMT-112"/>
       <use x="55.615234" xlink:href="#ArialMT-114"/>
       <use x="88.916016" xlink:href="#ArialMT-111"/>
       <use x="144.53125" xlink:href="#ArialMT-116"/>
       <use x="172.314453" xlink:href="#ArialMT-101"/>
       <use x="227.929688" xlink:href="#ArialMT-105"/>
       <use x="250.146484" xlink:href="#ArialMT-110"/>
      </g>
     </g>
    </g>
    <g id="ytick_28">
     <g id="line2d_37">
      <g>
       <use style="fill:#262626;stroke:#262626;" x="77.887188" xlink:href="#me68e370fea" y="111.460299"/>
      </g>
     </g>
     <g id="text_34">
      <!-- genes -->
      <g style="fill:#262626;" transform="translate(44.315238 114.867961)scale(0.0968 -0.0968)">
       <use xlink:href="#ArialMT-103"/>
       <use x="55.615234" xlink:href="#ArialMT-101"/>
       <use x="111.230469" xlink:href="#ArialMT-110"/>
       <use x="166.845703" xlink:href="#ArialMT-101"/>
       <use x="222.460938" xlink:href="#ArialMT-115"/>
      </g>
     </g>
    </g>
    <g id="ytick_29">
     <g id="line2d_38">
      <g>
       <use style="fill:#262626;stroke:#262626;" x="77.887188" xlink:href="#me68e370fea" y="103.185672"/>
      </g>
     </g>
     <g id="text_35">
      <!-- genome -->
      <g style="fill:#262626;" transform="translate(35.709113 106.593334)scale(0.0968 -0.0968)">
       <use xlink:href="#ArialMT-103"/>
       <use x="55.615234" xlink:href="#ArialMT-101"/>
       <use x="111.230469" xlink:href="#ArialMT-110"/>
       <use x="166.845703" xlink:href="#ArialMT-111"/>
       <use x="222.460938" xlink:href="#ArialMT-109"/>
       <use x="305.761719" xlink:href="#ArialMT-101"/>
      </g>
     </g>
    </g>
    <g id="ytick_30">
     <g id="line2d_39">
      <g>
       <use style="fill:#262626;stroke:#262626;" x="77.887188" xlink:href="#me68e370fea" y="94.911045"/>
      </g>
     </g>
     <g id="text_36">
      <!-- proteins -->
      <g style="fill:#262626;" transform="translate(36.2521 98.375426)scale(0.0968 -0.0968)">
       <use xlink:href="#ArialMT-112"/>
       <use x="55.615234" xlink:href="#ArialMT-114"/>
       <use x="88.916016" xlink:href="#ArialMT-111"/>
       <use x="144.53125" xlink:href="#ArialMT-116"/>
       <use x="172.314453" xlink:href="#ArialMT-101"/>
       <use x="227.929688" xlink:href="#ArialMT-105"/>
       <use x="250.146484" xlink:href="#ArialMT-110"/>
       <use x="305.761719" xlink:href="#ArialMT-115"/>
      </g>
     </g>
    </g>
    <g id="ytick_31">
     <g id="line2d_40">
      <g>
       <use style="fill:#262626;stroke:#262626;" x="77.887188" xlink:href="#me68e370fea" y="86.636418"/>
      </g>
     </g>
     <g id="text_37">
      <!-- “ -->
      <defs>
       <path d="M 13.484375 59.578125 
L 13.484375 49.359375 
L 4.046875 49.359375 
L 4.046875 57.421875 
Q 4.046875 63.96875 5.609375 66.890625 
Q 7.671875 70.796875 12.109375 72.796875 
L 14.265625 69.390625 
Q 11.578125 68.265625 10.296875 66.03125 
Q 9.03125 63.8125 8.890625 59.578125 
z
M 28.609375 59.578125 
L 28.609375 49.359375 
L 19.1875 49.359375 
L 19.1875 57.421875 
Q 19.1875 63.96875 20.75 66.890625 
Q 22.796875 70.796875 27.25 72.796875 
L 29.390625 69.390625 
Q 26.703125 68.265625 25.4375 66.03125 
Q 24.171875 63.8125 24.03125 59.578125 
z
" id="ArialMT-8220"/>
      </defs>
      <g style="fill:#262626;" transform="translate(67.46405 90.100799)scale(0.0968 -0.0968)">
       <use xlink:href="#ArialMT-8220"/>
      </g>
     </g>
    </g>
    <g id="ytick_32">
     <g id="line2d_41">
      <g>
       <use style="fill:#262626;stroke:#262626;" x="77.887188" xlink:href="#me68e370fea" y="78.361791"/>
      </g>
     </g>
     <g id="text_38">
      <!-- ” -->
      <defs>
       <path d="M 4.25 62.109375 
L 4.25 72.3125 
L 13.671875 72.3125 
L 13.671875 64.265625 
Q 13.671875 57.71875 12.15625 54.828125 
Q 10.0625 50.875 5.609375 48.875 
L 3.46875 52.34375 
Q 6.109375 53.421875 7.390625 55.734375 
Q 8.6875 58.0625 8.84375 62.109375 
z
M 19.390625 62.109375 
L 19.390625 72.3125 
L 28.8125 72.3125 
L 28.8125 64.265625 
Q 28.8125 57.71875 27.296875 54.828125 
Q 25.203125 50.875 20.75 48.875 
L 18.609375 52.34375 
Q 21.234375 53.421875 22.53125 55.734375 
Q 23.828125 58.0625 23.96875 62.109375 
z
" id="ArialMT-8221"/>
      </defs>
      <g style="fill:#262626;" transform="translate(67.46405 81.826172)scale(0.0968 -0.0968)">
       <use xlink:href="#ArialMT-8221"/>
      </g>
     </g>
    </g>
    <g id="ytick_33">
     <g id="line2d_42">
      <g>
       <use style="fill:#262626;stroke:#262626;" x="77.887188" xlink:href="#me68e370fea" y="70.087164"/>
      </g>
     </g>
     <g id="text_39">
      <!-- neurons -->
      <g style="fill:#262626;" transform="translate(35.709113 73.551545)scale(0.0968 -0.0968)">
       <use xlink:href="#ArialMT-110"/>
       <use x="55.615234" xlink:href="#ArialMT-101"/>
       <use x="111.230469" xlink:href="#ArialMT-117"/>
       <use x="166.845703" xlink:href="#ArialMT-114"/>
       <use x="200.146484" xlink:href="#ArialMT-111"/>
       <use x="255.761719" xlink:href="#ArialMT-110"/>
       <use x="311.376953" xlink:href="#ArialMT-115"/>
      </g>
     </g>
    </g>
    <g id="ytick_34">
     <g id="line2d_43">
      <g>
       <use style="fill:#262626;stroke:#262626;" x="77.887188" xlink:href="#me68e370fea" y="61.812537"/>
      </g>
     </g>
     <g id="text_40">
      <!-- supplementary -->
      <g style="fill:#262626;" transform="translate(7.2 65.276919)scale(0.0968 -0.0968)">
       <use xlink:href="#ArialMT-115"/>
       <use x="50" xlink:href="#ArialMT-117"/>
       <use x="105.615234" xlink:href="#ArialMT-112"/>
       <use x="161.230469" xlink:href="#ArialMT-112"/>
       <use x="216.845703" xlink:href="#ArialMT-108"/>
       <use x="239.0625" xlink:href="#ArialMT-101"/>
       <use x="294.677734" xlink:href="#ArialMT-109"/>
       <use x="377.978516" xlink:href="#ArialMT-101"/>
       <use x="433.59375" xlink:href="#ArialMT-110"/>
       <use x="489.208984" xlink:href="#ArialMT-116"/>
       <use x="516.992188" xlink:href="#ArialMT-97"/>
       <use x="572.607422" xlink:href="#ArialMT-114"/>
       <use x="605.908203" xlink:href="#ArialMT-121"/>
      </g>
     </g>
    </g>
    <g id="ytick_35">
     <g id="line2d_44">
      <g>
       <use style="fill:#262626;stroke:#262626;" x="77.887188" xlink:href="#me68e370fea" y="53.53791"/>
      </g>
     </g>
     <g id="text_41">
      <!-- et -->
      <g style="fill:#262626;" transform="translate(62.614975 57.002292)scale(0.0968 -0.0968)">
       <use xlink:href="#ArialMT-101"/>
       <use x="55.615234" xlink:href="#ArialMT-116"/>
      </g>
     </g>
    </g>
    <g id="ytick_36">
     <g id="line2d_45">
      <g>
       <use style="fill:#262626;stroke:#262626;" x="77.887188" xlink:href="#me68e370fea" y="45.263284"/>
      </g>
     </g>
     <g id="text_42">
      <!-- RNA -->
      <g style="fill:#262626;" transform="translate(50.248775 48.727665)scale(0.0968 -0.0968)">
       <use xlink:href="#ArialMT-82"/>
       <use x="72.216797" xlink:href="#ArialMT-78"/>
       <use x="144.433594" xlink:href="#ArialMT-65"/>
      </g>
     </g>
    </g>
    <g id="ytick_37">
     <g id="line2d_46">
      <g>
       <use style="fill:#262626;stroke:#262626;" x="77.887188" xlink:href="#me68e370fea" y="36.988657"/>
      </g>
     </g>
     <g id="text_43">
      <!-- ’ -->
      <defs>
       <path d="M 6.0625 62.109375 
L 6.0625 72.3125 
L 15.484375 72.3125 
L 15.484375 64.265625 
Q 15.484375 57.71875 13.96875 54.828125 
Q 11.859375 50.875 7.421875 48.875 
L 5.28125 52.34375 
Q 7.90625 53.421875 9.203125 55.734375 
Q 10.5 58.0625 10.640625 62.109375 
z
" id="ArialMT-8217"/>
      </defs>
      <g style="fill:#262626;" transform="translate(68.536413 40.453038)scale(0.0968 -0.0968)">
       <use xlink:href="#ArialMT-8217"/>
      </g>
     </g>
    </g>
    <g id="ytick_38">
     <g id="line2d_47">
      <g>
       <use style="fill:#262626;stroke:#262626;" x="77.887188" xlink:href="#me68e370fea" y="28.71403"/>
      </g>
     </g>
     <g id="text_44">
      <!-- fig -->
      <g style="fill:#262626;" transform="translate(60.4642 32.237399)scale(0.0968 -0.0968)">
       <use xlink:href="#ArialMT-102"/>
       <use x="27.783203" xlink:href="#ArialMT-105"/>
       <use x="50" xlink:href="#ArialMT-103"/>
      </g>
     </g>
    </g>
    <g id="ytick_39">
     <g id="line2d_48">
      <g>
       <use style="fill:#262626;stroke:#262626;" x="77.887188" xlink:href="#me68e370fea" y="20.439403"/>
      </g>
     </g>
     <g id="text_45">
      <!-- mm -->
      <g style="fill:#262626;" transform="translate(54.560913 23.903784)scale(0.0968 -0.0968)">
       <use xlink:href="#ArialMT-109"/>
       <use x="83.300781" xlink:href="#ArialMT-109"/>
      </g>
     </g>
    </g>
    <g id="ytick_40">
     <g id="line2d_49">
      <g>
       <use style="fill:#262626;stroke:#262626;" x="77.887188" xlink:href="#me68e370fea" y="12.164776"/>
      </g>
     </g>
     <g id="text_46">
      <!-- ° -->
      <defs>
       <path d="M 6.25 59.28125 
Q 6.25 64.890625 10.21875 68.84375 
Q 14.203125 72.796875 19.78125 72.796875 
Q 25.4375 72.796875 29.390625 68.84375 
Q 33.34375 64.890625 33.34375 59.28125 
Q 33.34375 53.65625 29.359375 49.671875 
Q 25.390625 45.703125 19.78125 45.703125 
Q 14.203125 45.703125 10.21875 49.65625 
Q 6.25 53.609375 6.25 59.28125 
z
M 11.578125 59.28125 
Q 11.578125 55.859375 13.984375 53.4375 
Q 16.40625 51.03125 19.828125 51.03125 
Q 23.1875 51.03125 25.609375 53.4375 
Q 28.03125 55.859375 28.03125 59.28125 
Q 28.03125 62.703125 25.609375 65.109375 
Q 23.1875 67.53125 19.828125 67.53125 
Q 16.40625 67.53125 13.984375 65.109375 
Q 11.578125 62.703125 11.578125 59.28125 
z
" id="ArialMT-176"/>
      </defs>
      <g style="fill:#262626;" transform="translate(66.8167 15.629157)scale(0.0968 -0.0968)">
       <use xlink:href="#ArialMT-176"/>
      </g>
     </g>
    </g>
   </g>
   <g id="PathCollection_1">
    <path clip-path="url(#p0f02e6328a)" d="M 591.950031 13.494117 
C 592.302576 13.494117 592.64073 13.354049 592.890017 13.104762 
C 593.139304 12.855475 593.279371 12.517321 593.279371 12.164776 
C 593.279371 11.812231 593.139304 11.474078 592.890017 11.224791 
C 592.64073 10.975503 592.302576 10.835436 591.950031 10.835436 
C 591.597486 10.835436 591.259333 10.975503 591.010045 11.224791 
C 590.760758 11.474078 590.620691 11.812231 590.620691 12.164776 
C 590.620691 12.517321 590.760758 12.855475 591.010045 13.104762 
C 591.259333 13.354049 591.597486 13.494117 591.950031 13.494117 
z
" style="fill:#253494;stroke:#253494;stroke-width:0.886227;"/>
    <path clip-path="url(#p0f02e6328a)" d="M 492.594446 21.768743 
C 492.946992 21.768743 493.285145 21.628676 493.534432 21.379389 
C 493.783719 21.130101 493.923787 20.791948 493.923787 20.439403 
C 493.923787 20.086858 493.783719 19.748704 493.534432 19.499417 
C 493.285145 19.25013 492.946992 19.110063 492.594446 19.110063 
C 492.241901 19.110063 491.903748 19.25013 491.654461 19.499417 
C 491.405174 19.748704 491.265106 20.086858 491.265106 20.439403 
C 491.265106 20.791948 491.405174 21.130101 491.654461 21.379389 
C 491.903748 21.628676 492.241901 21.768743 492.594446 21.768743 
z
" style="fill:#253494;stroke:#253494;stroke-width:0.886227;"/>
    <path clip-path="url(#p0f02e6328a)" d="M 483.631381 30.04337 
C 483.983926 30.04337 484.32208 29.903303 484.571367 29.654015 
C 484.820654 29.404728 484.960721 29.066575 484.960721 28.71403 
C 484.960721 28.361485 484.820654 28.023331 484.571367 27.774044 
C 484.32208 27.524757 483.983926 27.384689 483.631381 27.384689 
C 483.278836 27.384689 482.940683 27.524757 482.691395 27.774044 
C 482.442108 28.023331 482.302041 28.361485 482.302041 28.71403 
C 482.302041 29.066575 482.442108 29.404728 482.691395 29.654015 
C 482.940683 29.903303 483.278836 30.04337 483.631381 30.04337 
z
" style="fill:#253494;stroke:#253494;stroke-width:0.886227;"/>
    <path clip-path="url(#p0f02e6328a)" d="M 479.446351 38.317997 
C 479.798896 38.317997 480.137049 38.177929 480.386337 37.928642 
C 480.635624 37.679355 480.775691 37.341202 480.775691 36.988657 
C 480.775691 36.636112 480.635624 36.297958 480.386337 36.048671 
C 480.137049 35.799384 479.798896 35.659316 479.446351 35.659316 
C 479.093806 35.659316 478.755652 35.799384 478.506365 36.048671 
C 478.257078 36.297958 478.117011 36.636112 478.117011 36.988657 
C 478.117011 37.341202 478.257078 37.679355 478.506365 37.928642 
C 478.755652 38.177929 479.093806 38.317997 479.446351 38.317997 
z
" style="fill:#253494;stroke:#253494;stroke-width:0.886227;"/>
    <path clip-path="url(#p0f02e6328a)" d="M 475.292041 46.592624 
C 475.644586 46.592624 475.98274 46.452556 476.232027 46.203269 
C 476.481314 45.953982 476.621382 45.615829 476.621382 45.263284 
C 476.621382 44.910738 476.481314 44.572585 476.232027 44.323298 
C 475.98274 44.074011 475.644586 43.933943 475.292041 43.933943 
C 474.939496 43.933943 474.601343 44.074011 474.352056 44.323298 
C 474.102769 44.572585 473.962701 44.910738 473.962701 45.263284 
C 473.962701 45.615829 474.102769 45.953982 474.352056 46.203269 
C 474.601343 46.452556 474.939496 46.592624 475.292041 46.592624 
z
" style="fill:#253494;stroke:#253494;stroke-width:0.886227;"/>
    <path clip-path="url(#p0f02e6328a)" d="M 474.242258 54.867251 
C 474.594803 54.867251 474.932956 54.727183 475.182243 54.477896 
C 475.43153 54.228609 475.571598 53.890456 475.571598 53.53791 
C 475.571598 53.185365 475.43153 52.847212 475.182243 52.597925 
C 474.932956 52.348638 474.594803 52.20857 474.242258 52.20857 
C 473.889712 52.20857 473.551559 52.348638 473.302272 52.597925 
C 473.052985 52.847212 472.912917 53.185365 472.912917 53.53791 
C 472.912917 53.890456 473.052985 54.228609 473.302272 54.477896 
C 473.551559 54.727183 473.889712 54.867251 474.242258 54.867251 
z
" style="fill:#253494;stroke:#253494;stroke-width:0.886227;"/>
    <path clip-path="url(#p0f02e6328a)" d="M 471.436753 63.141878 
C 471.789298 63.141878 472.127451 63.00181 472.376738 62.752523 
C 472.626025 62.503236 472.766093 62.165083 472.766093 61.812537 
C 472.766093 61.459992 472.626025 61.121839 472.376738 60.872552 
C 472.127451 60.623265 471.789298 60.483197 471.436753 60.483197 
C 471.084208 60.483197 470.746054 60.623265 470.496767 60.872552 
C 470.24748 61.121839 470.107412 61.459992 470.107412 61.812537 
C 470.107412 62.165083 470.24748 62.503236 470.496767 62.752523 
C 470.746054 63.00181 471.084208 63.141878 471.436753 63.141878 
z
" style="fill:#253494;stroke:#253494;stroke-width:0.886227;"/>
    <path clip-path="url(#p0f02e6328a)" d="M 464.89119 71.416505 
C 465.243736 71.416505 465.581889 71.276437 465.831176 71.02715 
C 466.080463 70.777863 466.220531 70.439709 466.220531 70.087164 
C 466.220531 69.734619 466.080463 69.396466 465.831176 69.147179 
C 465.581889 68.897891 465.243736 68.757824 464.89119 68.757824 
C 464.538645 68.757824 464.200492 68.897891 463.951205 69.147179 
C 463.701918 69.396466 463.56185 69.734619 463.56185 70.087164 
C 463.56185 70.439709 463.701918 70.777863 463.951205 71.02715 
C 464.200492 71.276437 464.538645 71.416505 464.89119 71.416505 
z
" style="fill:#253494;stroke:#253494;stroke-width:0.886227;"/>
    <path clip-path="url(#p0f02e6328a)" d="M 454.205146 79.691131 
C 454.557691 79.691131 454.895844 79.551064 455.145131 79.301777 
C 455.394418 79.05249 455.534486 78.714336 455.534486 78.361791 
C 455.534486 78.009246 455.394418 77.671093 455.145131 77.421805 
C 454.895844 77.172518 454.557691 77.032451 454.205146 77.032451 
C 453.852601 77.032451 453.514447 77.172518 453.26516 77.421805 
C 453.015873 77.671093 452.875805 78.009246 452.875805 78.361791 
C 452.875805 78.714336 453.015873 79.05249 453.26516 79.301777 
C 453.514447 79.551064 453.852601 79.691131 454.205146 79.691131 
z
" style="fill:#253494;stroke:#253494;stroke-width:0.886227;"/>
    <path clip-path="url(#p0f02e6328a)" d="M 453.977973 87.965758 
C 454.330518 87.965758 454.668671 87.825691 454.917959 87.576404 
C 455.167246 87.327116 455.307313 86.988963 455.307313 86.636418 
C 455.307313 86.283873 455.167246 85.945719 454.917959 85.696432 
C 454.668671 85.447145 454.330518 85.307078 453.977973 85.307078 
C 453.625428 85.307078 453.287274 85.447145 453.037987 85.696432 
C 452.7887 85.945719 452.648633 86.283873 452.648633 86.636418 
C 452.648633 86.988963 452.7887 87.327116 453.037987 87.576404 
C 453.287274 87.825691 453.625428 87.965758 453.977973 87.965758 
z
" style="fill:#253494;stroke:#253494;stroke-width:0.886227;"/>
    <path clip-path="url(#p0f02e6328a)" d="M 449.025112 96.240385 
C 449.377657 96.240385 449.715811 96.100317 449.965098 95.85103 
C 450.214385 95.601743 450.354452 95.26359 450.354452 94.911045 
C 450.354452 94.5585 450.214385 94.220346 449.965098 93.971059 
C 449.715811 93.721772 449.377657 93.581704 449.025112 93.581704 
C 448.672567 93.581704 448.334414 93.721772 448.085126 93.971059 
C 447.835839 94.220346 447.695772 94.5585 447.695772 94.911045 
C 447.695772 95.26359 447.835839 95.601743 448.085126 95.85103 
C 448.334414 96.100317 448.672567 96.240385 449.025112 96.240385 
z
" style="fill:#253494;stroke:#253494;stroke-width:0.886227;"/>
    <path clip-path="url(#p0f02e6328a)" d="M 445.470287 104.515012 
C 445.822833 104.515012 446.160986 104.374944 446.410273 104.125657 
C 446.65956 103.87637 446.799628 103.538217 446.799628 103.185672 
C 446.799628 102.833126 446.65956 102.494973 446.410273 102.245686 
C 446.160986 101.996399 445.822833 101.856331 445.470287 101.856331 
C 445.117742 101.856331 444.779589 101.996399 444.530302 102.245686 
C 444.281015 102.494973 444.140947 102.833126 444.140947 103.185672 
C 444.140947 103.538217 444.281015 103.87637 444.530302 104.125657 
C 444.779589 104.374944 445.117742 104.515012 445.470287 104.515012 
z
" style="fill:#253494;stroke:#253494;stroke-width:0.886227;"/>
    <path clip-path="url(#p0f02e6328a)" d="M 443.658513 112.789639 
C 444.011058 112.789639 444.349211 112.649571 444.598498 112.400284 
C 444.847785 112.150997 444.987853 111.812844 444.987853 111.460299 
C 444.987853 111.107753 444.847785 110.7696 444.598498 110.520313 
C 444.349211 110.271026 444.011058 110.130958 443.658513 110.130958 
C 443.305967 110.130958 442.967814 110.271026 442.718527 110.520313 
C 442.46924 110.7696 442.329172 111.107753 442.329172 111.460299 
C 442.329172 111.812844 442.46924 112.150997 442.718527 112.400284 
C 442.967814 112.649571 443.305967 112.789639 443.658513 112.789639 
z
" style="fill:#253494;stroke:#253494;stroke-width:0.886227;"/>
    <path clip-path="url(#p0f02e6328a)" d="M 441.148898 121.064266 
C 441.501443 121.064266 441.839596 120.924198 442.088883 120.674911 
C 442.33817 120.425624 442.478238 120.087471 442.478238 119.734925 
C 442.478238 119.38238 442.33817 119.044227 442.088883 118.79494 
C 441.839596 118.545653 441.501443 118.405585 441.148898 118.405585 
C 440.796352 118.405585 440.458199 118.545653 440.208912 118.79494 
C 439.959625 119.044227 439.819557 119.38238 439.819557 119.734925 
C 439.819557 120.087471 439.959625 120.425624 440.208912 120.674911 
C 440.458199 120.924198 440.796352 121.064266 441.148898 121.064266 
z
" style="fill:#253494;stroke:#253494;stroke-width:0.886227;"/>
    <path clip-path="url(#p0f02e6328a)" d="M 439.366111 129.338893 
C 439.718656 129.338893 440.056809 129.198825 440.306096 128.949538 
C 440.555383 128.700251 440.695451 128.362097 440.695451 128.009552 
C 440.695451 127.657007 440.555383 127.318854 440.306096 127.069567 
C 440.056809 126.82028 439.718656 126.680212 439.366111 126.680212 
C 439.013565 126.680212 438.675412 126.82028 438.426125 127.069567 
C 438.176838 127.318854 438.03677 127.657007 438.03677 128.009552 
C 438.03677 128.362097 438.176838 128.700251 438.426125 128.949538 
C 438.675412 129.198825 439.013565 129.338893 439.366111 129.338893 
z
" style="fill:#253494;stroke:#253494;stroke-width:0.886227;"/>
    <path clip-path="url(#p0f02e6328a)" d="M 438.746876 137.613519 
C 439.099422 137.613519 439.437575 137.473452 439.686862 137.224165 
C 439.936149 136.974878 440.076217 136.636724 440.076217 136.284179 
C 440.076217 135.931634 439.936149 135.593481 439.686862 135.344194 
C 439.437575 135.094906 439.099422 134.954839 438.746876 134.954839 
C 438.394331 134.954839 438.056178 135.094906 437.806891 135.344194 
C 437.557604 135.593481 437.417536 135.931634 437.417536 136.284179 
C 437.417536 136.636724 437.557604 136.974878 437.806891 137.224165 
C 438.056178 137.473452 438.394331 137.613519 438.746876 137.613519 
z
" style="fill:#253494;stroke:#253494;stroke-width:0.886227;"/>
    <path clip-path="url(#p0f02e6328a)" d="M 436.228158 145.888146 
C 436.580703 145.888146 436.918857 145.748079 437.168144 145.498792 
C 437.417431 145.249504 437.557499 144.911351 437.557499 144.558806 
C 437.557499 144.206261 437.417431 143.868107 437.168144 143.61882 
C 436.918857 143.369533 436.580703 143.229466 436.228158 143.229466 
C 435.875613 143.229466 435.53746 143.369533 435.288173 143.61882 
C 435.038885 143.868107 434.898818 144.206261 434.898818 144.558806 
C 434.898818 144.911351 435.038885 145.249504 435.288173 145.498792 
C 435.53746 145.748079 435.875613 145.888146 436.228158 145.888146 
z
" style="fill:#253494;stroke:#253494;stroke-width:0.886227;"/>
    <path clip-path="url(#p0f02e6328a)" d="M 432.660624 154.162773 
C 433.013169 154.162773 433.351322 154.022706 433.600609 153.773418 
C 433.849896 153.524131 433.989964 153.185978 433.989964 152.833433 
C 433.989964 152.480888 433.849896 152.142734 433.600609 151.893447 
C 433.351322 151.64416 433.013169 151.504092 432.660624 151.504092 
C 432.308078 151.504092 431.969925 151.64416 431.720638 151.893447 
C 431.471351 152.142734 431.331283 152.480888 431.331283 152.833433 
C 431.331283 153.185978 431.471351 153.524131 431.720638 153.773418 
C 431.969925 154.022706 432.308078 154.162773 432.660624 154.162773 
z
" style="fill:#253494;stroke:#253494;stroke-width:0.886227;"/>
    <path clip-path="url(#p0f02e6328a)" d="M 432.289122 162.4374 
C 432.641667 162.4374 432.979821 162.297332 433.229108 162.048045 
C 433.478395 161.798758 433.618463 161.460605 433.618463 161.10806 
C 433.618463 160.755515 433.478395 160.417361 433.229108 160.168074 
C 432.979821 159.918787 432.641667 159.778719 432.289122 159.778719 
C 431.936577 159.778719 431.598424 159.918787 431.349137 160.168074 
C 431.099849 160.417361 430.959782 160.755515 430.959782 161.10806 
C 430.959782 161.460605 431.099849 161.798758 431.349137 162.048045 
C 431.598424 162.297332 431.936577 162.4374 432.289122 162.4374 
z
" style="fill:#253494;stroke:#253494;stroke-width:0.886227;"/>
    <path clip-path="url(#p0f02e6328a)" d="M 429.451674 170.712027 
C 429.804219 170.712027 430.142373 170.571959 430.39166 170.322672 
C 430.640947 170.073385 430.781015 169.735232 430.781015 169.382687 
C 430.781015 169.030141 430.640947 168.691988 430.39166 168.442701 
C 430.142373 168.193414 429.804219 168.053346 429.451674 168.053346 
C 429.099129 168.053346 428.760976 168.193414 428.511689 168.442701 
C 428.262401 168.691988 428.122334 169.030141 428.122334 169.382687 
C 428.122334 169.735232 428.262401 170.073385 428.511689 170.322672 
C 428.760976 170.571959 429.099129 170.712027 429.451674 170.712027 
z
" style="fill:#253494;stroke:#253494;stroke-width:0.886227;"/>
    <path clip-path="url(#p0f02e6328a)" d="M 263.220113 178.986654 
C 263.572658 178.986654 263.910812 178.846586 264.160099 178.597299 
C 264.409386 178.348012 264.549453 178.009859 264.549453 177.657313 
C 264.549453 177.304768 264.409386 176.966615 264.160099 176.717328 
C 263.910812 176.468041 263.572658 176.327973 263.220113 176.327973 
C 262.867568 176.327973 262.529415 176.468041 262.280127 176.717328 
C 262.03084 176.966615 261.890773 177.304768 261.890773 177.657313 
C 261.890773 178.009859 262.03084 178.348012 262.280127 178.597299 
C 262.529415 178.846586 262.867568 178.986654 263.220113 178.986654 
z
" style="fill:#253494;stroke:#253494;stroke-width:0.886227;"/>
    <path clip-path="url(#p0f02e6328a)" d="M 262.129915 187.261281 
C 262.48246 187.261281 262.820614 187.121213 263.069901 186.871926 
C 263.319188 186.622639 263.459255 186.284485 263.459255 185.93194 
C 263.459255 185.579395 263.319188 185.241242 263.069901 184.991955 
C 262.820614 184.742668 262.48246 184.6026 262.129915 184.6026 
C 261.77737 184.6026 261.439217 184.742668 261.189929 184.991955 
C 260.940642 185.241242 260.800575 185.579395 260.800575 185.93194 
C 260.800575 186.284485 260.940642 186.622639 261.189929 186.871926 
C 261.439217 187.121213 261.77737 187.261281 262.129915 187.261281 
z
" style="fill:#253494;stroke:#253494;stroke-width:0.886227;"/>
    <path clip-path="url(#p0f02e6328a)" d="M 261.964264 195.535908 
C 262.316809 195.535908 262.654963 195.39584 262.90425 195.146553 
C 263.153537 194.897266 263.293605 194.559112 263.293605 194.206567 
C 263.293605 193.854022 263.153537 193.515869 262.90425 193.266582 
C 262.654963 193.017294 262.316809 192.877227 261.964264 192.877227 
C 261.611719 192.877227 261.273566 193.017294 261.024279 193.266582 
C 260.774991 193.515869 260.634924 193.854022 260.634924 194.206567 
C 260.634924 194.559112 260.774991 194.897266 261.024279 195.146553 
C 261.273566 195.39584 261.611719 195.535908 261.964264 195.535908 
z
" style="fill:#253494;stroke:#253494;stroke-width:0.886227;"/>
    <path clip-path="url(#p0f02e6328a)" d="M 261.599548 203.810534 
C 261.952093 203.810534 262.290247 203.670467 262.539534 203.42118 
C 262.788821 203.171893 262.928889 202.833739 262.928889 202.481194 
C 262.928889 202.128649 262.788821 201.790496 262.539534 201.541208 
C 262.290247 201.291921 261.952093 201.151854 261.599548 201.151854 
C 261.247003 201.151854 260.90885 201.291921 260.659563 201.541208 
C 260.410276 201.790496 260.270208 202.128649 260.270208 202.481194 
C 260.270208 202.833739 260.410276 203.171893 260.659563 203.42118 
C 260.90885 203.670467 261.247003 203.810534 261.599548 203.810534 
z
" style="fill:#253494;stroke:#253494;stroke-width:0.886227;"/>
    <path clip-path="url(#p0f02e6328a)" d="M 259.045921 212.085161 
C 259.398466 212.085161 259.736619 211.945094 259.985906 211.695806 
C 260.235193 211.446519 260.375261 211.108366 260.375261 210.755821 
C 260.375261 210.403276 260.235193 210.065122 259.985906 209.815835 
C 259.736619 209.566548 259.398466 209.426481 259.045921 209.426481 
C 258.693375 209.426481 258.355222 209.566548 258.105935 209.815835 
C 257.856648 210.065122 257.71658 210.403276 257.71658 210.755821 
C 257.71658 211.108366 257.856648 211.446519 258.105935 211.695806 
C 258.355222 211.945094 258.693375 212.085161 259.045921 212.085161 
z
" style="fill:#253494;stroke:#253494;stroke-width:0.886227;"/>
    <path clip-path="url(#p0f02e6328a)" d="M 256.265974 220.359788 
C 256.618519 220.359788 256.956673 220.21972 257.20596 219.970433 
C 257.455247 219.721146 257.595314 219.382993 257.595314 219.030448 
C 257.595314 218.677903 257.455247 218.339749 257.20596 218.090462 
C 256.956673 217.841175 256.618519 217.701107 256.265974 217.701107 
C 255.913429 217.701107 255.575276 217.841175 255.325988 218.090462 
C 255.076701 218.339749 254.936634 218.677903 254.936634 219.030448 
C 254.936634 219.382993 255.076701 219.721146 255.325988 219.970433 
C 255.575276 220.21972 255.913429 220.359788 256.265974 220.359788 
z
" style="fill:#253494;stroke:#253494;stroke-width:0.886227;"/>
    <path clip-path="url(#p0f02e6328a)" d="M 254.398859 228.634415 
C 254.751404 228.634415 255.089557 228.494347 255.338844 228.24506 
C 255.588131 227.995773 255.728199 227.65762 255.728199 227.305075 
C 255.728199 226.952529 255.588131 226.614376 255.338844 226.365089 
C 255.089557 226.115802 254.751404 225.975734 254.398859 225.975734 
C 254.046313 225.975734 253.70816 226.115802 253.458873 226.365089 
C 253.209586 226.614376 253.069518 226.952529 253.069518 227.305075 
C 253.069518 227.65762 253.209586 227.995773 253.458873 228.24506 
C 253.70816 228.494347 254.046313 228.634415 254.398859 228.634415 
z
" style="fill:#253494;stroke:#253494;stroke-width:0.886227;"/>
    <path clip-path="url(#p0f02e6328a)" d="M 254.344252 236.909042 
C 254.696797 236.909042 255.034951 236.768974 255.284238 236.519687 
C 255.533525 236.2704 255.673592 235.932247 255.673592 235.579701 
C 255.673592 235.227156 255.533525 234.889003 255.284238 234.639716 
C 255.034951 234.390429 254.696797 234.250361 254.344252 234.250361 
C 253.991707 234.250361 253.653554 234.390429 253.404266 234.639716 
C 253.154979 234.889003 253.014912 235.227156 253.014912 235.579701 
C 253.014912 235.932247 253.154979 236.2704 253.404266 236.519687 
C 253.653554 236.768974 253.991707 236.909042 254.344252 236.909042 
z
" style="fill:#253494;stroke:#253494;stroke-width:0.886227;"/>
    <path clip-path="url(#p0f02e6328a)" d="M 251.385921 245.183669 
C 251.738467 245.183669 252.07662 245.043601 252.325907 244.794314 
C 252.575194 244.545027 252.715262 244.206874 252.715262 243.854328 
C 252.715262 243.501783 252.575194 243.16363 252.325907 242.914343 
C 252.07662 242.665056 251.738467 242.524988 251.385921 242.524988 
C 251.033376 242.524988 250.695223 242.665056 250.445936 242.914343 
C 250.196649 243.16363 250.056581 243.501783 250.056581 243.854328 
C 250.056581 244.206874 250.196649 244.545027 250.445936 244.794314 
C 250.695223 245.043601 251.033376 245.183669 251.385921 245.183669 
z
" style="fill:#253494;stroke:#253494;stroke-width:0.886227;"/>
    <path clip-path="url(#p0f02e6328a)" d="M 241.923985 253.458296 
C 242.27653 253.458296 242.614683 253.318228 242.86397 253.068941 
C 243.113257 252.819654 243.253325 252.4815 243.253325 252.128955 
C 243.253325 251.77641 243.113257 251.438257 242.86397 251.18897 
C 242.614683 250.939683 242.27653 250.799615 241.923985 250.799615 
C 241.57144 250.799615 241.233286 250.939683 240.983999 251.18897 
C 240.734712 251.438257 240.594644 251.77641 240.594644 252.128955 
C 240.594644 252.4815 240.734712 252.819654 240.983999 253.068941 
C 241.233286 253.318228 241.57144 253.458296 241.923985 253.458296 
z
" style="fill:#253494;stroke:#253494;stroke-width:0.886227;"/>
    <path clip-path="url(#p0f02e6328a)" d="M 241.324691 261.732922 
C 241.677236 261.732922 242.015389 261.592855 242.264676 261.343568 
C 242.513963 261.094281 242.654031 260.756127 242.654031 260.403582 
C 242.654031 260.051037 242.513963 259.712884 242.264676 259.463596 
C 242.015389 259.214309 241.677236 259.074242 241.324691 259.074242 
C 240.972146 259.074242 240.633992 259.214309 240.384705 259.463596 
C 240.135418 259.712884 239.99535 260.051037 239.99535 260.403582 
C 239.99535 260.756127 240.135418 261.094281 240.384705 261.343568 
C 240.633992 261.592855 240.972146 261.732922 241.324691 261.732922 
z
" style="fill:#253494;stroke:#253494;stroke-width:0.886227;"/>
    <path clip-path="url(#p0f02e6328a)" d="M 240.865017 270.007549 
C 241.217563 270.007549 241.555716 269.867482 241.805003 269.618195 
C 242.05429 269.368907 242.194358 269.030754 242.194358 268.678209 
C 242.194358 268.325664 242.05429 267.98751 241.805003 267.738223 
C 241.555716 267.488936 241.217563 267.348869 240.865017 267.348869 
C 240.512472 267.348869 240.174319 267.488936 239.925032 267.738223 
C 239.675745 267.98751 239.535677 268.325664 239.535677 268.678209 
C 239.535677 269.030754 239.675745 269.368907 239.925032 269.618195 
C 240.174319 269.867482 240.512472 270.007549 240.865017 270.007549 
z
" style="fill:#253494;stroke:#253494;stroke-width:0.886227;"/>
    <path clip-path="url(#p0f02e6328a)" d="M 240.595241 278.282176 
C 240.947786 278.282176 241.285939 278.142109 241.535226 277.892821 
C 241.784513 277.643534 241.924581 277.305381 241.924581 276.952836 
C 241.924581 276.600291 241.784513 276.262137 241.535226 276.01285 
C 241.285939 275.763563 240.947786 275.623495 240.595241 275.623495 
C 240.242695 275.623495 239.904542 275.763563 239.655255 276.01285 
C 239.405968 276.262137 239.2659 276.600291 239.2659 276.952836 
C 239.2659 277.305381 239.405968 277.643534 239.655255 277.892821 
C 239.904542 278.142109 240.242695 278.282176 240.595241 278.282176 
z
" style="fill:#253494;stroke:#253494;stroke-width:0.886227;"/>
    <path clip-path="url(#p0f02e6328a)" d="M 235.157001 286.556803 
C 235.509546 286.556803 235.8477 286.416735 236.096987 286.167448 
C 236.346274 285.918161 236.486342 285.580008 236.486342 285.227463 
C 236.486342 284.874917 236.346274 284.536764 236.096987 284.287477 
C 235.8477 284.03819 235.509546 283.898122 235.157001 283.898122 
C 234.804456 283.898122 234.466303 284.03819 234.217016 284.287477 
C 233.967729 284.536764 233.827661 284.874917 233.827661 285.227463 
C 233.827661 285.580008 233.967729 285.918161 234.217016 286.167448 
C 234.466303 286.416735 234.804456 286.556803 235.157001 286.556803 
z
" style="fill:#253494;stroke:#253494;stroke-width:0.886227;"/>
    <path clip-path="url(#p0f02e6328a)" d="M 234.459168 294.83143 
C 234.811713 294.83143 235.149867 294.691362 235.399154 294.442075 
C 235.648441 294.192788 235.788509 293.854635 235.788509 293.50209 
C 235.788509 293.149544 235.648441 292.811391 235.399154 292.562104 
C 235.149867 292.312817 234.811713 292.172749 234.459168 292.172749 
C 234.106623 292.172749 233.76847 292.312817 233.519183 292.562104 
C 233.269896 292.811391 233.129828 293.149544 233.129828 293.50209 
C 233.129828 293.854635 233.269896 294.192788 233.519183 294.442075 
C 233.76847 294.691362 234.106623 294.83143 234.459168 294.83143 
z
" style="fill:#253494;stroke:#253494;stroke-width:0.886227;"/>
    <path clip-path="url(#p0f02e6328a)" d="M 232.022022 303.106057 
C 232.374567 303.106057 232.71272 302.965989 232.962007 302.716702 
C 233.211294 302.467415 233.351362 302.129262 233.351362 301.776716 
C 233.351362 301.424171 233.211294 301.086018 232.962007 300.836731 
C 232.71272 300.587444 232.374567 300.447376 232.022022 300.447376 
C 231.669476 300.447376 231.331323 300.587444 231.082036 300.836731 
C 230.832749 301.086018 230.692681 301.424171 230.692681 301.776716 
C 230.692681 302.129262 230.832749 302.467415 231.082036 302.716702 
C 231.331323 302.965989 231.669476 303.106057 232.022022 303.106057 
z
" style="fill:#253494;stroke:#253494;stroke-width:0.886227;"/>
    <path clip-path="url(#p0f02e6328a)" d="M 221.909244 311.380684 
C 222.261789 311.380684 222.599942 311.240616 222.849229 310.991329 
C 223.098516 310.742042 223.238584 310.403888 223.238584 310.051343 
C 223.238584 309.698798 223.098516 309.360645 222.849229 309.111358 
C 222.599942 308.862071 222.261789 308.722003 221.909244 308.722003 
C 221.556698 308.722003 221.218545 308.862071 220.969258 309.111358 
C 220.719971 309.360645 220.579903 309.698798 220.579903 310.051343 
C 220.579903 310.403888 220.719971 310.742042 220.969258 310.991329 
C 221.218545 311.240616 221.556698 311.380684 221.909244 311.380684 
z
" style="fill:#253494;stroke:#253494;stroke-width:0.886227;"/>
    <path clip-path="url(#p0f02e6328a)" d="M 219.063538 319.655311 
C 219.416083 319.655311 219.754237 319.515243 220.003524 319.265956 
C 220.252811 319.016669 220.392879 318.678515 220.392879 318.32597 
C 220.392879 317.973425 220.252811 317.635272 220.003524 317.385985 
C 219.754237 317.136697 219.416083 316.99663 219.063538 316.99663 
C 218.710993 316.99663 218.37284 317.136697 218.123553 317.385985 
C 217.874266 317.635272 217.734198 317.973425 217.734198 318.32597 
C 217.734198 318.678515 217.874266 319.016669 218.123553 319.265956 
C 218.37284 319.515243 218.710993 319.655311 219.063538 319.655311 
z
" style="fill:#253494;stroke:#253494;stroke-width:0.886227;"/>
    <path clip-path="url(#p0f02e6328a)" d="M 201.045986 327.929937 
C 201.398531 327.929937 201.736684 327.78987 201.985971 327.540583 
C 202.235258 327.291296 202.375326 326.953142 202.375326 326.600597 
C 202.375326 326.248052 202.235258 325.909899 201.985971 325.660611 
C 201.736684 325.411324 201.398531 325.271257 201.045986 325.271257 
C 200.69344 325.271257 200.355287 325.411324 200.106 325.660611 
C 199.856713 325.909899 199.716645 326.248052 199.716645 326.600597 
C 199.716645 326.953142 199.856713 327.291296 200.106 327.540583 
C 200.355287 327.78987 200.69344 327.929937 201.045986 327.929937 
z
" style="fill:#253494;stroke:#253494;stroke-width:0.886227;"/>
    <path clip-path="url(#p0f02e6328a)" d="M 199.322402 336.204564 
C 199.674947 336.204564 200.013101 336.064497 200.262388 335.815209 
C 200.511675 335.565922 200.651742 335.227769 200.651742 334.875224 
C 200.651742 334.522679 200.511675 334.184525 200.262388 333.935238 
C 200.013101 333.685951 199.674947 333.545883 199.322402 333.545883 
C 198.969857 333.545883 198.631704 333.685951 198.382416 333.935238 
C 198.133129 334.184525 197.993062 334.522679 197.993062 334.875224 
C 197.993062 335.227769 198.133129 335.565922 198.382416 335.815209 
C 198.631704 336.064497 198.969857 336.204564 199.322402 336.204564 
z
" style="fill:#253494;stroke:#253494;stroke-width:0.886227;"/>
   </g>
   <g id="LineCollection_1">
    <path clip-path="url(#p0f02e6328a)" d="M 356.887187 339.84 
L 356.887187 7.2 
" style="fill:none;stroke:#808080;stroke-dasharray:3.27904,1.417963;stroke-dashoffset:0;stroke-width:0.886227;"/>
   </g>
   <g id="patch_3">
    <path d="M 77.887188 339.84 
L 77.887188 7.2 
" style="fill:none;stroke:#262626;stroke-linecap:square;stroke-linejoin:miter;"/>
   </g>
   <g id="patch_4">
    <path d="M 635.887187 339.84 
L 635.887187 7.2 
" style="fill:none;stroke:#262626;stroke-linecap:square;stroke-linejoin:miter;"/>
   </g>
   <g id="patch_5">
    <path d="M 77.887187 339.84 
L 635.887187 339.84 
" style="fill:none;stroke:#262626;stroke-linecap:square;stroke-linejoin:miter;"/>
   </g>
   <g id="patch_6">
    <path d="M 77.887187 7.2 
L 635.887187 7.2 
" style="fill:none;stroke:#262626;stroke-linecap:square;stroke-linejoin:miter;"/>
   </g>
   <g id="LineCollection_2">
    <path clip-path="url(#p0f02e6328a)" d="M 420.296278 330.73791 
L 572.478097 330.73791 
" style="fill:none;stroke:#000000;stroke-width:0.886227;"/>
   </g>
   <g id="PathCollection_2">
    <defs>
     <path d="M 566.242714 -43.671252 
L 572.478097 -47.271252 
L 566.242714 -50.871252 
" id="m448a1bd2b2" style="stroke:#000000;stroke-width:0.886227;"/>
    </defs>
    <g clip-path="url(#p0f02e6328a)">
     <use style="fill-opacity:0;stroke:#000000;stroke-width:0.886227;" x="0" xlink:href="#m448a1bd2b2" y="378.009163"/>
    </g>
   </g>
   <g id="text_47">
    <g clip-path="url(#p0f02e6328a)">
     <!-- bioRxiv Enriched -->
     <defs>
      <path d="M 7.90625 0 
L 7.90625 71.578125 
L 59.671875 71.578125 
L 59.671875 63.140625 
L 17.390625 63.140625 
L 17.390625 41.21875 
L 56.984375 41.21875 
L 56.984375 32.8125 
L 17.390625 32.8125 
L 17.390625 8.453125 
L 61.328125 8.453125 
L 61.328125 0 
z
" id="ArialMT-69"/>
     </defs>
     <g style="opacity:0.698039;" transform="translate(426.004801 325.565471)scale(0.12 -0.12)">
      <use xlink:href="#ArialMT-98"/>
      <use x="55.615234" xlink:href="#ArialMT-105"/>
      <use x="77.832031" xlink:href="#ArialMT-111"/>
      <use x="133.447266" xlink:href="#ArialMT-82"/>
      <use x="205.664062" xlink:href="#ArialMT-120"/>
      <use x="255.664062" xlink:href="#ArialMT-105"/>
      <use x="277.880859" xlink:href="#ArialMT-118"/>
      <use x="327.880859" xlink:href="#ArialMT-32"/>
      <use x="355.664062" xlink:href="#ArialMT-69"/>
      <use x="422.363281" xlink:href="#ArialMT-110"/>
      <use x="477.978516" xlink:href="#ArialMT-114"/>
      <use x="511.279297" xlink:href="#ArialMT-105"/>
      <use x="533.496094" xlink:href="#ArialMT-99"/>
      <use x="583.496094" xlink:href="#ArialMT-104"/>
      <use x="639.111328" xlink:href="#ArialMT-101"/>
      <use x="694.726562" xlink:href="#ArialMT-100"/>
     </g>
    </g>
   </g>
   <g id="LineCollection_3">
    <path clip-path="url(#p0f02e6328a)" d="M 293.478097 16.30209 
L 141.296278 16.30209 
" style="fill:none;stroke:#000000;stroke-width:0.886227;"/>
   </g>
   <g id="PathCollection_3">
    <defs>
     <path d="M 147.531661 -365.307073 
L 141.296278 -361.707073 
L 147.531661 -358.107073 
" id="m62637b8e50" style="stroke:#000000;stroke-width:0.886227;"/>
    </defs>
    <g clip-path="url(#p0f02e6328a)">
     <use style="fill-opacity:0;stroke:#000000;stroke-width:0.886227;" x="0" xlink:href="#m62637b8e50" y="378.009163"/>
    </g>
   </g>
   <g id="text_48">
    <g clip-path="url(#p0f02e6328a)">
     <!-- NYTAC Enriched -->
     <g style="opacity:0.698039;" transform="translate(197.075824 27.678904)scale(0.12 -0.12)">
      <use xlink:href="#ArialMT-78"/>
      <use x="72.216797" xlink:href="#ArialMT-89"/>
      <use x="138.916016" xlink:href="#ArialMT-84"/>
      <use x="199.890625" xlink:href="#ArialMT-65"/>
      <use x="266.589844" xlink:href="#ArialMT-67"/>
      <use x="338.806641" xlink:href="#ArialMT-32"/>
      <use x="366.589844" xlink:href="#ArialMT-69"/>
      <use x="433.289062" xlink:href="#ArialMT-110"/>
      <use x="488.904297" xlink:href="#ArialMT-114"/>
      <use x="522.205078" xlink:href="#ArialMT-105"/>
      <use x="544.421875" xlink:href="#ArialMT-99"/>
      <use x="594.421875" xlink:href="#ArialMT-104"/>
      <use x="650.037109" xlink:href="#ArialMT-101"/>
      <use x="705.652344" xlink:href="#ArialMT-100"/>
     </g>
    </g>
   </g>
  </g>
 </g>
 <defs>
  <clipPath id="p0f02e6328a">
   <rect height="332.64" width="558" x="77.887188" y="7.2"/>
  </clipPath>
 </defs>
</svg>
