<?xml version="1.0" encoding="utf-8" standalone="no"?>
<!DOCTYPE svg PUBLIC "-//W3C//DTD SVG 1.1//EN"
  "http://www.w3.org/Graphics/SVG/1.1/DTD/svg11.dtd">
<!-- Created with matplotlib (https://matplotlib.org/) -->
<svg height="379.43285pt" version="1.1" viewBox="0 0 758.787 379.43285" width="758.787pt" xmlns="http://www.w3.org/2000/svg" xmlns:xlink="http://www.w3.org/1999/xlink">
 <defs>
  <style type="text/css">
*{stroke-linecap:butt;stroke-linejoin:round;}
  </style>
 </defs>
 <g id="figure_1">
  <g id="patch_1">
   <path d="M 0 379.43285
L 758.787 379.43285
L 758.787 0
L 0 0
z
" style="fill:#ffffff;"/>
  </g>
  <g id="axes_1">
   <g id="patch_2">
    <path d="M 44.7488 339.84
L 602.7488 339.84
L 602.7488 7.2
L 44.7488 7.2
z
" style="fill:#ffffff;"/>
   </g>
   <g id="matplotlib.axis_1">
    <g id="xtick_1">
     <g id="line2d_1">
      <defs>
       <path d="M 0 0
L 0 4.8
" id="m121998972f" style="stroke:#262626;"/>
      </defs>
      <g>
       <use style="fill:#262626;stroke:#262626;" x="77.572329" xlink:href="#m121998972f" y="339.84"/>
      </g>
     </g>
     <g id="text_1">
      <!-- 100 -->
      <defs>
       <path d="M 37.25 0
L 28.46875 0
L 28.46875 56
Q 25.296875 52.984375 20.140625 49.953125
Q 14.984375 46.921875 10.890625 45.40625
L 10.890625 53.90625
Q 18.265625 57.375 23.78125 62.296875
Q 29.296875 67.234375 31.59375 71.875
L 37.25 71.875
z
" id="ArialMT-49"/>
       <path d="M 4.15625 35.296875
Q 4.15625 48 6.765625 55.734375
Q 9.375 63.484375 14.515625 67.671875
Q 19.671875 71.875 27.484375 71.875
Q 33.25 71.875 37.59375 69.546875
Q 41.9375 67.234375 44.765625 62.859375
Q 47.609375 58.5 49.21875 52.21875
Q 50.828125 45.953125 50.828125 35.296875
Q 50.828125 22.703125 48.234375 14.96875
Q 45.65625 7.234375 40.5 3
Q 35.359375 -1.21875 27.484375 -1.21875
Q 17.140625 -1.21875 11.234375 6.203125
Q 4.15625 15.140625 4.15625 35.296875
z
M 13.1875 35.296875
Q 13.1875 17.671875 17.3125 11.828125
Q 21.4375 6 27.484375 6
Q 33.546875 6 37.671875 11.859375
Q 41.796875 17.71875 41.796875 35.296875
Q 41.796875 52.984375 37.671875 58.78125
Q 33.546875 64.59375 27.390625 64.59375
Q 21.34375 64.59375 17.71875 59.46875
Q 13.1875 52.9375 13.1875 35.296875
z
" id="ArialMT-48"/>
      </defs>
      <g style="fill:#262626;" transform="translate(68.763804 354.59865)scale(0.1056 -0.1056)">
       <use xlink:href="#ArialMT-49"/>
       <use x="55.615234" xlink:href="#ArialMT-48"/>
       <use x="111.230469" xlink:href="#ArialMT-48"/>
      </g>
     </g>
    </g>
    <g id="xtick_2">
     <g id="line2d_2">
      <g>
       <use style="fill:#262626;stroke:#262626;" x="132.278212" xlink:href="#m121998972f" y="339.84"/>
      </g>
     </g>
     <g id="text_2">
      <!-- 200 -->
      <defs>
       <path d="M 50.34375 8.453125
L 50.34375 0
L 3.03125 0
Q 2.9375 3.171875 4.046875 6.109375
Q 5.859375 10.9375 9.828125 15.625
Q 13.8125 20.3125 21.34375 26.46875
Q 33.015625 36.03125 37.109375 41.625
Q 41.21875 47.21875 41.21875 52.203125
Q 41.21875 57.421875 37.46875 61
Q 33.734375 64.59375 27.734375 64.59375
Q 21.390625 64.59375 17.578125 60.78125
Q 13.765625 56.984375 13.71875 50.25
L 4.6875 51.171875
Q 5.609375 61.28125 11.65625 66.578125
Q 17.71875 71.875 27.9375 71.875
Q 38.234375 71.875 44.234375 66.15625
Q 50.25 60.453125 50.25 52
Q 50.25 47.703125 48.484375 43.546875
Q 46.734375 39.40625 42.65625 34.8125
Q 38.578125 30.21875 29.109375 22.21875
Q 21.1875 15.578125 18.9375 13.203125
Q 16.703125 10.84375 15.234375 8.453125
z
" id="ArialMT-50"/>
      </defs>
      <g style="fill:#262626;" transform="translate(123.469687 354.59865)scale(0.1056 -0.1056)">
       <use xlink:href="#ArialMT-50"/>
       <use x="55.615234" xlink:href="#ArialMT-48"/>
       <use x="111.230469" xlink:href="#ArialMT-48"/>
      </g>
     </g>
    </g>
    <g id="xtick_3">
     <g id="line2d_3">
      <g>
       <use style="fill:#262626;stroke:#262626;" x="186.984094" xlink:href="#m121998972f" y="339.84"/>
      </g>
     </g>
     <g id="text_3">
      <!-- 300 -->
      <defs>
       <path d="M 4.203125 18.890625
L 12.984375 20.0625
Q 14.5 12.59375 18.140625 9.296875
Q 21.78125 6 27 6
Q 33.203125 6 37.46875 10.296875
Q 41.75 14.59375 41.75 20.953125
Q 41.75 27 37.796875 30.921875
Q 33.84375 34.859375 27.734375 34.859375
Q 25.25 34.859375 21.53125 33.890625
L 22.515625 41.609375
Q 23.390625 41.5 23.921875 41.5
Q 29.546875 41.5 34.03125 44.421875
Q 38.53125 47.359375 38.53125 53.46875
Q 38.53125 58.296875 35.25 61.46875
Q 31.984375 64.65625 26.8125 64.65625
Q 21.6875 64.65625 18.265625 61.421875
Q 14.84375 58.203125 13.875 51.765625
L 5.078125 53.328125
Q 6.6875 62.15625 12.390625 67.015625
Q 18.109375 71.875 26.609375 71.875
Q 32.46875 71.875 37.390625 69.359375
Q 42.328125 66.84375 44.9375 62.5
Q 47.5625 58.15625 47.5625 53.265625
Q 47.5625 48.640625 45.0625 44.828125
Q 42.578125 41.015625 37.703125 38.765625
Q 44.046875 37.3125 47.5625 32.6875
Q 51.078125 28.078125 51.078125 21.140625
Q 51.078125 11.765625 44.234375 5.25
Q 37.40625 -1.265625 26.953125 -1.265625
Q 17.53125 -1.265625 11.296875 4.34375
Q 5.078125 9.96875 4.203125 18.890625
z
" id="ArialMT-51"/>
      </defs>
      <g style="fill:#262626;" transform="translate(178.175569 354.59865)scale(0.1056 -0.1056)">
       <use xlink:href="#ArialMT-51"/>
       <use x="55.615234" xlink:href="#ArialMT-48"/>
       <use x="111.230469" xlink:href="#ArialMT-48"/>
      </g>
     </g>
    </g>
    <g id="xtick_4">
     <g id="line2d_4">
      <g>
       <use style="fill:#262626;stroke:#262626;" x="241.689976" xlink:href="#m121998972f" y="339.84"/>
      </g>
     </g>
     <g id="text_4">
      <!-- 400 -->
      <defs>
       <path d="M 32.328125 0
L 32.328125 17.140625
L 1.265625 17.140625
L 1.265625 25.203125
L 33.9375 71.578125
L 41.109375 71.578125
L 41.109375 25.203125
L 50.78125 25.203125
L 50.78125 17.140625
L 41.109375 17.140625
L 41.109375 0
z
M 32.328125 25.203125
L 32.328125 57.46875
L 9.90625 25.203125
z
" id="ArialMT-52"/>
      </defs>
      <g style="fill:#262626;" transform="translate(232.881451 354.59865)scale(0.1056 -0.1056)">
       <use xlink:href="#ArialMT-52"/>
       <use x="55.615234" xlink:href="#ArialMT-48"/>
       <use x="111.230469" xlink:href="#ArialMT-48"/>
      </g>
     </g>
    </g>
    <g id="xtick_5">
     <g id="line2d_5">
      <g>
       <use style="fill:#262626;stroke:#262626;" x="296.395859" xlink:href="#m121998972f" y="339.84"/>
      </g>
     </g>
     <g id="text_5">
      <!-- 500 -->
      <defs>
       <path d="M 4.15625 18.75
L 13.375 19.53125
Q 14.40625 12.796875 18.140625 9.390625
Q 21.875 6 27.15625 6
Q 33.5 6 37.890625 10.78125
Q 42.28125 15.578125 42.28125 23.484375
Q 42.28125 31 38.0625 35.34375
Q 33.84375 39.703125 27 39.703125
Q 22.75 39.703125 19.328125 37.765625
Q 15.921875 35.84375 13.96875 32.765625
L 5.71875 33.84375
L 12.640625 70.609375
L 48.25 70.609375
L 48.25 62.203125
L 19.671875 62.203125
L 15.828125 42.96875
Q 22.265625 47.46875 29.34375 47.46875
Q 38.71875 47.46875 45.15625 40.96875
Q 51.609375 34.46875 51.609375 24.265625
Q 51.609375 14.546875 45.953125 7.46875
Q 39.0625 -1.21875 27.15625 -1.21875
Q 17.390625 -1.21875 11.203125 4.25
Q 5.03125 9.71875 4.15625 18.75
z
" id="ArialMT-53"/>
      </defs>
      <g style="fill:#262626;" transform="translate(287.587334 354.59865)scale(0.1056 -0.1056)">
       <use xlink:href="#ArialMT-53"/>
       <use x="55.615234" xlink:href="#ArialMT-48"/>
       <use x="111.230469" xlink:href="#ArialMT-48"/>
      </g>
     </g>
    </g>
    <g id="xtick_6">
     <g id="line2d_6">
      <g>
       <use style="fill:#262626;stroke:#262626;" x="351.101741" xlink:href="#m121998972f" y="339.84"/>
      </g>
     </g>
     <g id="text_6">
      <!-- 1000 -->
      <g style="fill:#262626;" transform="translate(339.357041 354.59865)scale(0.1056 -0.1056)">
       <use xlink:href="#ArialMT-49"/>
       <use x="55.615234" xlink:href="#ArialMT-48"/>
       <use x="111.230469" xlink:href="#ArialMT-48"/>
       <use x="166.845703" xlink:href="#ArialMT-48"/>
      </g>
     </g>
    </g>
    <g id="xtick_7">
     <g id="line2d_7">
      <g>
       <use style="fill:#262626;stroke:#262626;" x="405.807624" xlink:href="#m121998972f" y="339.84"/>
      </g>
     </g>
     <g id="text_7">
      <!-- 1500 -->
      <g style="fill:#262626;" transform="translate(394.062924 354.59865)scale(0.1056 -0.1056)">
       <use xlink:href="#ArialMT-49"/>
       <use x="55.615234" xlink:href="#ArialMT-53"/>
       <use x="111.230469" xlink:href="#ArialMT-48"/>
       <use x="166.845703" xlink:href="#ArialMT-48"/>
      </g>
     </g>
    </g>
    <g id="xtick_8">
     <g id="line2d_8">
      <g>
       <use style="fill:#262626;stroke:#262626;" x="460.513506" xlink:href="#m121998972f" y="339.84"/>
      </g>
     </g>
     <g id="text_8">
      <!-- 2000 -->
      <g style="fill:#262626;" transform="translate(448.768806 354.59865)scale(0.1056 -0.1056)">
       <use xlink:href="#ArialMT-50"/>
       <use x="55.615234" xlink:href="#ArialMT-48"/>
       <use x="111.230469" xlink:href="#ArialMT-48"/>
       <use x="166.845703" xlink:href="#ArialMT-48"/>
      </g>
     </g>
    </g>
    <g id="xtick_9">
     <g id="line2d_9">
      <g>
       <use style="fill:#262626;stroke:#262626;" x="515.219388" xlink:href="#m121998972f" y="339.84"/>
      </g>
     </g>
     <g id="text_9">
      <!-- 3000 -->
      <g style="fill:#262626;" transform="translate(503.474688 354.59865)scale(0.1056 -0.1056)">
       <use xlink:href="#ArialMT-51"/>
       <use x="55.615234" xlink:href="#ArialMT-48"/>
       <use x="111.230469" xlink:href="#ArialMT-48"/>
       <use x="166.845703" xlink:href="#ArialMT-48"/>
      </g>
     </g>
    </g>
    <g id="xtick_10">
     <g id="line2d_10">
      <g>
       <use style="fill:#262626;stroke:#262626;" x="569.925271" xlink:href="#m121998972f" y="339.84"/>
      </g>
     </g>
     <g id="text_10">
      <!-- 5000 -->
      <g style="fill:#262626;" transform="translate(558.180571 354.59865)scale(0.1056 -0.1056)">
       <use xlink:href="#ArialMT-53"/>
       <use x="55.615234" xlink:href="#ArialMT-48"/>
       <use x="111.230469" xlink:href="#ArialMT-48"/>
       <use x="166.845703" xlink:href="#ArialMT-48"/>
      </g>
     </g>
    </g>
    <g id="text_11">
     <!-- Number of terms evaluated -->
     <defs>
      <path d="M 7.625 0
L 7.625 71.578125
L 17.328125 71.578125
L 54.9375 15.375
L 54.9375 71.578125
L 64.015625 71.578125
L 64.015625 0
L 54.296875 0
L 16.703125 56.25
L 16.703125 0
z
" id="ArialMT-78"/>
      <path d="M 40.578125 0
L 40.578125 7.625
Q 34.515625 -1.171875 24.125 -1.171875
Q 19.53125 -1.171875 15.546875 0.578125
Q 11.578125 2.34375 9.640625 5
Q 7.71875 7.671875 6.9375 11.53125
Q 6.390625 14.109375 6.390625 19.734375
L 6.390625 51.859375
L 15.1875 51.859375
L 15.1875 23.09375
Q 15.1875 16.21875 15.71875 13.8125
Q 16.546875 10.359375 19.234375 8.375
Q 21.921875 6.390625 25.875 6.390625
Q 29.828125 6.390625 33.296875 8.421875
Q 36.765625 10.453125 38.203125 13.9375
Q 39.65625 17.4375 39.65625 24.078125
L 39.65625 51.859375
L 48.4375 51.859375
L 48.4375 0
z
" id="ArialMT-117"/>
      <path d="M 6.59375 0
L 6.59375 51.859375
L 14.453125 51.859375
L 14.453125 44.578125
Q 16.890625 48.390625 20.9375 50.703125
Q 25 53.03125 30.171875 53.03125
Q 35.9375 53.03125 39.625 50.640625
Q 43.3125 48.25 44.828125 43.953125
Q 50.984375 53.03125 60.84375 53.03125
Q 68.5625 53.03125 72.703125 48.75
Q 76.859375 44.484375 76.859375 35.59375
L 76.859375 0
L 68.109375 0
L 68.109375 32.671875
Q 68.109375 37.9375 67.25 40.25
Q 66.40625 42.578125 64.15625 43.984375
Q 61.921875 45.40625 58.890625 45.40625
Q 53.421875 45.40625 49.796875 41.765625
Q 46.1875 38.140625 46.1875 30.125
L 46.1875 0
L 37.40625 0
L 37.40625 33.6875
Q 37.40625 39.546875 35.25 42.46875
Q 33.109375 45.40625 28.21875 45.40625
Q 24.515625 45.40625 21.359375 43.453125
Q 18.21875 41.5 16.796875 37.734375
Q 15.375 33.984375 15.375 26.90625
L 15.375 0
z
" id="ArialMT-109"/>
      <path d="M 14.703125 0
L 6.546875 0
L 6.546875 71.578125
L 15.328125 71.578125
L 15.328125 46.046875
Q 20.90625 53.03125 29.546875 53.03125
Q 34.328125 53.03125 38.59375 51.09375
Q 42.875 49.171875 45.625 45.671875
Q 48.390625 42.1875 49.953125 37.25
Q 51.515625 32.328125 51.515625 26.703125
Q 51.515625 13.375 44.921875 6.09375
Q 38.328125 -1.171875 29.109375 -1.171875
Q 19.921875 -1.171875 14.703125 6.5
z
M 14.59375 26.3125
Q 14.59375 17 17.140625 12.84375
Q 21.296875 6.0625 28.375 6.0625
Q 34.125 6.0625 38.328125 11.0625
Q 42.53125 16.0625 42.53125 25.984375
Q 42.53125 36.140625 38.5 40.96875
Q 34.46875 45.796875 28.765625 45.796875
Q 23 45.796875 18.796875 40.796875
Q 14.59375 35.796875 14.59375 26.3125
z
" id="ArialMT-98"/>
      <path d="M 42.09375 16.703125
L 51.171875 15.578125
Q 49.03125 7.625 43.21875 3.21875
Q 37.40625 -1.171875 28.375 -1.171875
Q 17 -1.171875 10.328125 5.828125
Q 3.65625 12.84375 3.65625 25.484375
Q 3.65625 38.578125 10.390625 45.796875
Q 17.140625 53.03125 27.875 53.03125
Q 38.28125 53.03125 44.875 45.953125
Q 51.46875 38.875 51.46875 26.03125
Q 51.46875 25.25 51.421875 23.6875
L 12.75 23.6875
Q 13.234375 15.140625 17.578125 10.59375
Q 21.921875 6.0625 28.421875 6.0625
Q 33.25 6.0625 36.671875 8.59375
Q 40.09375 11.140625 42.09375 16.703125
z
M 13.234375 30.90625
L 42.1875 30.90625
Q 41.609375 37.453125 38.875 40.71875
Q 34.671875 45.796875 27.984375 45.796875
Q 21.921875 45.796875 17.796875 41.75
Q 13.671875 37.703125 13.234375 30.90625
z
" id="ArialMT-101"/>
      <path d="M 6.5 0
L 6.5 51.859375
L 14.40625 51.859375
L 14.40625 44
Q 17.4375 49.515625 20 51.265625
Q 22.5625 53.03125 25.640625 53.03125
Q 30.078125 53.03125 34.671875 50.203125
L 31.640625 42.046875
Q 28.421875 43.953125 25.203125 43.953125
Q 22.3125 43.953125 20.015625 42.21875
Q 17.71875 40.484375 16.75 37.40625
Q 15.28125 32.71875 15.28125 27.15625
L 15.28125 0
z
" id="ArialMT-114"/>
      <path id="ArialMT-32"/>
      <path d="M 3.328125 25.921875
Q 3.328125 40.328125 11.328125 47.265625
Q 18.015625 53.03125 27.640625 53.03125
Q 38.328125 53.03125 45.109375 46.015625
Q 51.90625 39.015625 51.90625 26.65625
Q 51.90625 16.65625 48.90625 10.90625
Q 45.90625 5.171875 40.15625 2
Q 34.421875 -1.171875 27.640625 -1.171875
Q 16.75 -1.171875 10.03125 5.8125
Q 3.328125 12.796875 3.328125 25.921875
z
M 12.359375 25.921875
Q 12.359375 15.96875 16.703125 11.015625
Q 21.046875 6.0625 27.640625 6.0625
Q 34.1875 6.0625 38.53125 11.03125
Q 42.875 16.015625 42.875 26.21875
Q 42.875 35.84375 38.5 40.796875
Q 34.125 45.75 27.640625 45.75
Q 21.046875 45.75 16.703125 40.8125
Q 12.359375 35.890625 12.359375 25.921875
z
" id="ArialMT-111"/>
      <path d="M 8.6875 0
L 8.6875 45.015625
L 0.921875 45.015625
L 0.921875 51.859375
L 8.6875 51.859375
L 8.6875 57.375
Q 8.6875 62.59375 9.625 65.140625
Q 10.890625 68.5625 14.078125 70.671875
Q 17.28125 72.796875 23.046875 72.796875
Q 26.765625 72.796875 31.25 71.921875
L 29.9375 64.265625
Q 27.203125 64.75 24.75 64.75
Q 20.75 64.75 19.09375 63.03125
Q 17.4375 61.328125 17.4375 56.640625
L 17.4375 51.859375
L 27.546875 51.859375
L 27.546875 45.015625
L 17.4375 45.015625
L 17.4375 0
z
" id="ArialMT-102"/>
      <path d="M 25.78125 7.859375
L 27.046875 0.09375
Q 23.34375 -0.6875 20.40625 -0.6875
Q 15.625 -0.6875 12.984375 0.828125
Q 10.359375 2.34375 9.28125 4.8125
Q 8.203125 7.28125 8.203125 15.1875
L 8.203125 45.015625
L 1.765625 45.015625
L 1.765625 51.859375
L 8.203125 51.859375
L 8.203125 64.703125
L 16.9375 69.96875
L 16.9375 51.859375
L 25.78125 51.859375
L 25.78125 45.015625
L 16.9375 45.015625
L 16.9375 14.703125
Q 16.9375 10.9375 17.40625 9.859375
Q 17.875 8.796875 18.921875 8.15625
Q 19.96875 7.515625 21.921875 7.515625
Q 23.390625 7.515625 25.78125 7.859375
z
" id="ArialMT-116"/>
      <path d="M 3.078125 15.484375
L 11.765625 16.84375
Q 12.5 11.625 15.84375 8.84375
Q 19.1875 6.0625 25.203125 6.0625
Q 31.25 6.0625 34.171875 8.515625
Q 37.109375 10.984375 37.109375 14.3125
Q 37.109375 17.28125 34.515625 19
Q 32.71875 20.171875 25.53125 21.96875
Q 15.875 24.421875 12.140625 26.203125
Q 8.40625 27.984375 6.46875 31.125
Q 4.546875 34.28125 4.546875 38.09375
Q 4.546875 41.546875 6.125 44.5
Q 7.71875 47.46875 10.453125 49.421875
Q 12.5 50.921875 16.03125 51.96875
Q 19.578125 53.03125 23.640625 53.03125
Q 29.734375 53.03125 34.34375 51.265625
Q 38.96875 49.515625 41.15625 46.5
Q 43.359375 43.5 44.1875 38.484375
L 35.59375 37.3125
Q 35.015625 41.3125 32.203125 43.546875
Q 29.390625 45.796875 24.265625 45.796875
Q 18.21875 45.796875 15.625 43.796875
Q 13.03125 41.796875 13.03125 39.109375
Q 13.03125 37.40625 14.109375 36.03125
Q 15.1875 34.625 17.484375 33.6875
Q 18.796875 33.203125 25.25 31.453125
Q 34.578125 28.953125 38.25 27.359375
Q 41.9375 25.78125 44.03125 22.75
Q 46.140625 19.734375 46.140625 15.234375
Q 46.140625 10.84375 43.578125 6.953125
Q 41.015625 3.078125 36.171875 0.953125
Q 31.34375 -1.171875 25.25 -1.171875
Q 15.140625 -1.171875 9.84375 3.03125
Q 4.546875 7.234375 3.078125 15.484375
z
" id="ArialMT-115"/>
      <path d="M 21 0
L 1.265625 51.859375
L 10.546875 51.859375
L 21.6875 20.796875
Q 23.484375 15.765625 25 10.359375
Q 26.171875 14.453125 28.265625 20.21875
L 39.796875 51.859375
L 48.828125 51.859375
L 29.203125 0
z
" id="ArialMT-118"/>
      <path d="M 40.4375 6.390625
Q 35.546875 2.25 31.03125 0.53125
Q 26.515625 -1.171875 21.34375 -1.171875
Q 12.796875 -1.171875 8.203125 3
Q 3.609375 7.171875 3.609375 13.671875
Q 3.609375 17.484375 5.34375 20.625
Q 7.078125 23.78125 9.890625 25.6875
Q 12.703125 27.59375 16.21875 28.5625
Q 18.796875 29.25 24.03125 29.890625
Q 34.671875 31.15625 39.703125 32.90625
Q 39.75 34.71875 39.75 35.203125
Q 39.75 40.578125 37.25 42.78125
Q 33.890625 45.75 27.25 45.75
Q 21.046875 45.75 18.09375 43.578125
Q 15.140625 41.40625 13.71875 35.890625
L 5.125 37.0625
Q 6.296875 42.578125 8.984375 45.96875
Q 11.671875 49.359375 16.75 51.1875
Q 21.828125 53.03125 28.515625 53.03125
Q 35.15625 53.03125 39.296875 51.46875
Q 43.453125 49.90625 45.40625 47.53125
Q 47.359375 45.171875 48.140625 41.546875
Q 48.578125 39.3125 48.578125 33.453125
L 48.578125 21.734375
Q 48.578125 9.46875 49.140625 6.21875
Q 49.703125 2.984375 51.375 0
L 42.1875 0
Q 40.828125 2.734375 40.4375 6.390625
z
M 39.703125 26.03125
Q 34.90625 24.078125 25.34375 22.703125
Q 19.921875 21.921875 17.671875 20.9375
Q 15.4375 19.96875 14.203125 18.09375
Q 12.984375 16.21875 12.984375 13.921875
Q 12.984375 10.40625 15.640625 8.0625
Q 18.3125 5.71875 23.4375 5.71875
Q 28.515625 5.71875 32.46875 7.9375
Q 36.421875 10.15625 38.28125 14.015625
Q 39.703125 17 39.703125 22.796875
z
" id="ArialMT-97"/>
      <path d="M 6.390625 0
L 6.390625 71.578125
L 15.1875 71.578125
L 15.1875 0
z
" id="ArialMT-108"/>
      <path d="M 40.234375 0
L 40.234375 6.546875
Q 35.296875 -1.171875 25.734375 -1.171875
Q 19.53125 -1.171875 14.328125 2.25
Q 9.125 5.671875 6.265625 11.796875
Q 3.421875 17.921875 3.421875 25.875
Q 3.421875 33.640625 6 39.96875
Q 8.59375 46.296875 13.765625 49.65625
Q 18.953125 53.03125 25.34375 53.03125
Q 30.03125 53.03125 33.6875 51.046875
Q 37.359375 49.078125 39.65625 45.90625
L 39.65625 71.578125
L 48.390625 71.578125
L 48.390625 0
z
M 12.453125 25.875
Q 12.453125 15.921875 16.640625 10.984375
Q 20.84375 6.0625 26.5625 6.0625
Q 32.328125 6.0625 36.34375 10.765625
Q 40.375 15.484375 40.375 25.140625
Q 40.375 35.796875 36.265625 40.765625
Q 32.171875 45.75 26.171875 45.75
Q 20.3125 45.75 16.375 40.96875
Q 12.453125 36.1875 12.453125 25.875
z
" id="ArialMT-100"/>
     </defs>
     <g style="fill:#262626;" transform="translate(245.2823 369.94325)scale(0.1152 -0.1152)">
      <use xlink:href="#ArialMT-78"/>
      <use x="72.216797" xlink:href="#ArialMT-117"/>
      <use x="127.832031" xlink:href="#ArialMT-109"/>
      <use x="211.132812" xlink:href="#ArialMT-98"/>
      <use x="266.748047" xlink:href="#ArialMT-101"/>
      <use x="322.363281" xlink:href="#ArialMT-114"/>
      <use x="355.664062" xlink:href="#ArialMT-32"/>
      <use x="383.447266" xlink:href="#ArialMT-111"/>
      <use x="439.0625" xlink:href="#ArialMT-102"/>
      <use x="466.845703" xlink:href="#ArialMT-32"/>
      <use x="494.628906" xlink:href="#ArialMT-116"/>
      <use x="522.412109" xlink:href="#ArialMT-101"/>
      <use x="578.027344" xlink:href="#ArialMT-114"/>
      <use x="611.328125" xlink:href="#ArialMT-109"/>
      <use x="694.628906" xlink:href="#ArialMT-115"/>
      <use x="744.628906" xlink:href="#ArialMT-32"/>
      <use x="772.412109" xlink:href="#ArialMT-101"/>
      <use x="828.027344" xlink:href="#ArialMT-118"/>
      <use x="878.027344" xlink:href="#ArialMT-97"/>
      <use x="933.642578" xlink:href="#ArialMT-108"/>
      <use x="955.859375" xlink:href="#ArialMT-117"/>
      <use x="1011.474609" xlink:href="#ArialMT-97"/>
      <use x="1067.089844" xlink:href="#ArialMT-116"/>
      <use x="1094.873047" xlink:href="#ArialMT-101"/>
      <use x="1150.488281" xlink:href="#ArialMT-100"/>
     </g>
    </g>
   </g>
   <g id="matplotlib.axis_2">
    <g id="ytick_1">
     <g id="line2d_11">
      <defs>
       <path d="M 0 0
L -4.8 0
" id="m780f5e1bae" style="stroke:#262626;"/>
      </defs>
      <g>
       <use style="fill:#262626;stroke:#262626;" x="44.7488" xlink:href="#m780f5e1bae" y="327.897442"/>
      </g>
     </g>
     <g id="text_12">
      <!-- 0 -->
      <g style="fill:#262626;" transform="translate(31.67645 331.676767)scale(0.1056 -0.1056)">
       <use xlink:href="#ArialMT-48"/>
      </g>
     </g>
    </g>
    <g id="ytick_2">
     <g id="line2d_12">
      <g>
       <use style="fill:#262626;stroke:#262626;" x="44.7488" xlink:href="#m780f5e1bae" y="260.089932"/>
      </g>
     </g>
     <g id="text_13">
      <!-- 0.5 -->
      <defs>
       <path d="M 9.078125 0
L 9.078125 10.015625
L 19.09375 10.015625
L 19.09375 0
z
" id="ArialMT-46"/>
      </defs>
      <g style="fill:#262626;" transform="translate(22.8704 263.869257)scale(0.1056 -0.1056)">
       <use xlink:href="#ArialMT-48"/>
       <use x="55.615234" xlink:href="#ArialMT-46"/>
       <use x="83.398438" xlink:href="#ArialMT-53"/>
      </g>
     </g>
    </g>
    <g id="ytick_3">
     <g id="line2d_13">
      <g>
       <use style="fill:#262626;stroke:#262626;" x="44.7488" xlink:href="#m780f5e1bae" y="192.282421"/>
      </g>
     </g>
     <g id="text_14">
      <!-- 1 -->
      <g style="fill:#262626;" transform="translate(31.67645 196.061746)scale(0.1056 -0.1056)">
       <use xlink:href="#ArialMT-49"/>
      </g>
     </g>
    </g>
    <g id="ytick_4">
     <g id="line2d_14">
      <g>
       <use style="fill:#262626;stroke:#262626;" x="44.7488" xlink:href="#m780f5e1bae" y="124.474911"/>
      </g>
     </g>
     <g id="text_15">
      <!-- 1.5 -->
      <g style="fill:#262626;" transform="translate(22.8704 128.254236)scale(0.1056 -0.1056)">
       <use xlink:href="#ArialMT-49"/>
       <use x="55.615234" xlink:href="#ArialMT-46"/>
       <use x="83.398438" xlink:href="#ArialMT-53"/>
      </g>
     </g>
    </g>
    <g id="ytick_5">
     <g id="line2d_15">
      <g>
       <use style="fill:#262626;stroke:#262626;" x="44.7488" xlink:href="#m780f5e1bae" y="56.6674"/>
      </g>
     </g>
     <g id="text_16">
      <!-- 2 -->
      <g style="fill:#262626;" transform="translate(31.67645 60.446725)scale(0.1056 -0.1056)">
       <use xlink:href="#ArialMT-50"/>
      </g>
     </g>
    </g>
    <g id="ytick_6">
     <g id="line2d_16">
      <defs>
       <path d="M 0 0
L -3.2 0
" id="maabf532767" style="stroke:#262626;stroke-width:0.8;"/>
      </defs>
      <g>
       <use style="fill:#262626;stroke:#262626;stroke-width:0.8;" x="44.7488" xlink:href="#maabf532767" y="293.993687"/>
      </g>
     </g>
    </g>
    <g id="ytick_7">
     <g id="line2d_17">
      <g>
       <use style="fill:#262626;stroke:#262626;stroke-width:0.8;" x="44.7488" xlink:href="#maabf532767" y="226.186176"/>
      </g>
     </g>
    </g>
    <g id="ytick_8">
     <g id="line2d_18">
      <g>
       <use style="fill:#262626;stroke:#262626;stroke-width:0.8;" x="44.7488" xlink:href="#maabf532767" y="158.378666"/>
      </g>
     </g>
    </g>
    <g id="ytick_9">
     <g id="line2d_19">
      <g>
       <use style="fill:#262626;stroke:#262626;stroke-width:0.8;" x="44.7488" xlink:href="#maabf532767" y="90.571156"/>
      </g>
     </g>
    </g>
    <g id="ytick_10">
     <g id="line2d_20">
      <g>
       <use style="fill:#262626;stroke:#262626;stroke-width:0.8;" x="44.7488" xlink:href="#maabf532767" y="22.763645"/>
      </g>
     </g>
    </g>
    <g id="text_17">
     <!-- Kullback–Leibler Divergence -->
     <defs>
      <path d="M 7.328125 0
L 7.328125 71.578125
L 16.796875 71.578125
L 16.796875 36.078125
L 52.34375 71.578125
L 65.1875 71.578125
L 35.15625 42.578125
L 66.5 0
L 54 0
L 28.515625 36.234375
L 16.796875 24.8125
L 16.796875 0
z
" id="ArialMT-75"/>
      <path d="M 40.4375 19
L 49.078125 17.875
Q 47.65625 8.9375 41.8125 3.875
Q 35.984375 -1.171875 27.484375 -1.171875
Q 16.84375 -1.171875 10.375 5.78125
Q 3.90625 12.75 3.90625 25.734375
Q 3.90625 34.125 6.6875 40.421875
Q 9.46875 46.734375 15.15625 49.875
Q 20.84375 53.03125 27.546875 53.03125
Q 35.984375 53.03125 41.359375 48.75
Q 46.734375 44.484375 48.25 36.625
L 39.703125 35.296875
Q 38.484375 40.53125 35.375 43.15625
Q 32.28125 45.796875 27.875 45.796875
Q 21.234375 45.796875 17.078125 41.03125
Q 12.9375 36.28125 12.9375 25.984375
Q 12.9375 15.53125 16.9375 10.796875
Q 20.953125 6.0625 27.390625 6.0625
Q 32.5625 6.0625 36.03125 9.234375
Q 39.5 12.40625 40.4375 19
z
" id="ArialMT-99"/>
      <path d="M 6.640625 0
L 6.640625 71.578125
L 15.4375 71.578125
L 15.4375 30.765625
L 36.234375 51.859375
L 47.609375 51.859375
L 27.78125 32.625
L 49.609375 0
L 38.765625 0
L 21.625 26.515625
L 15.4375 20.5625
L 15.4375 0
z
" id="ArialMT-107"/>
      <path d="M -0.203125 22.359375
L -0.203125 29.4375
L 55.421875 29.4375
L 55.421875 22.359375
z
" id="ArialMT-8211"/>
      <path d="M 7.328125 0
L 7.328125 71.578125
L 16.796875 71.578125
L 16.796875 8.453125
L 52.046875 8.453125
L 52.046875 0
z
" id="ArialMT-76"/>
      <path d="M 6.640625 61.46875
L 6.640625 71.578125
L 15.4375 71.578125
L 15.4375 61.46875
z
M 6.640625 0
L 6.640625 51.859375
L 15.4375 51.859375
L 15.4375 0
z
" id="ArialMT-105"/>
      <path d="M 7.71875 0
L 7.71875 71.578125
L 32.375 71.578125
Q 40.71875 71.578125 45.125 70.5625
Q 51.265625 69.140625 55.609375 65.4375
Q 61.28125 60.640625 64.078125 53.1875
Q 66.890625 45.75 66.890625 36.1875
Q 66.890625 28.03125 64.984375 21.734375
Q 63.09375 15.4375 60.109375 11.296875
Q 57.125 7.171875 53.578125 4.796875
Q 50.046875 2.4375 45.046875 1.21875
Q 40.046875 0 33.546875 0
z
M 17.1875 8.453125
L 32.46875 8.453125
Q 39.546875 8.453125 43.578125 9.765625
Q 47.609375 11.078125 50 13.484375
Q 53.375 16.84375 55.25 22.53125
Q 57.125 28.21875 57.125 36.328125
Q 57.125 47.5625 53.4375 53.59375
Q 49.75 59.625 44.484375 61.671875
Q 40.671875 63.140625 32.234375 63.140625
L 17.1875 63.140625
z
" id="ArialMT-68"/>
      <path d="M 4.984375 -4.296875
L 13.53125 -5.5625
Q 14.0625 -9.515625 16.5 -11.328125
Q 19.78125 -13.765625 25.4375 -13.765625
Q 31.546875 -13.765625 34.859375 -11.328125
Q 38.1875 -8.890625 39.359375 -4.5
Q 40.046875 -1.8125 39.984375 6.78125
Q 34.234375 0 25.640625 0
Q 14.9375 0 9.078125 7.71875
Q 3.21875 15.4375 3.21875 26.21875
Q 3.21875 33.640625 5.90625 39.90625
Q 8.59375 46.1875 13.6875 49.609375
Q 18.796875 53.03125 25.6875 53.03125
Q 34.859375 53.03125 40.828125 45.609375
L 40.828125 51.859375
L 48.921875 51.859375
L 48.921875 7.03125
Q 48.921875 -5.078125 46.453125 -10.125
Q 44 -15.1875 38.640625 -18.109375
Q 33.296875 -21.046875 25.484375 -21.046875
Q 16.21875 -21.046875 10.5 -16.875
Q 4.78125 -12.703125 4.984375 -4.296875
z
M 12.25 26.859375
Q 12.25 16.65625 16.296875 11.96875
Q 20.359375 7.28125 26.46875 7.28125
Q 32.515625 7.28125 36.609375 11.9375
Q 40.71875 16.609375 40.71875 26.5625
Q 40.71875 36.078125 36.5 40.90625
Q 32.28125 45.75 26.3125 45.75
Q 20.453125 45.75 16.34375 40.984375
Q 12.25 36.234375 12.25 26.859375
z
" id="ArialMT-103"/>
      <path d="M 6.59375 0
L 6.59375 51.859375
L 14.5 51.859375
L 14.5 44.484375
Q 20.21875 53.03125 31 53.03125
Q 35.6875 53.03125 39.625 51.34375
Q 43.5625 49.65625 45.515625 46.921875
Q 47.46875 44.1875 48.25 40.4375
Q 48.734375 37.984375 48.734375 31.890625
L 48.734375 0
L 39.9375 0
L 39.9375 31.546875
Q 39.9375 36.921875 38.90625 39.578125
Q 37.890625 42.234375 35.28125 43.8125
Q 32.671875 45.40625 29.15625 45.40625
Q 23.53125 45.40625 19.453125 41.84375
Q 15.375 38.28125 15.375 28.328125
L 15.375 0
z
" id="ArialMT-110"/>
     </defs>
     <g style="fill:#262626;" transform="translate(15.4458 244.3572)rotate(-90)scale(0.1152 -0.1152)">
      <use xlink:href="#ArialMT-75"/>
      <use x="66.699219" xlink:href="#ArialMT-117"/>
      <use x="122.314453" xlink:href="#ArialMT-108"/>
      <use x="144.53125" xlink:href="#ArialMT-108"/>
      <use x="166.748047" xlink:href="#ArialMT-98"/>
      <use x="222.363281" xlink:href="#ArialMT-97"/>
      <use x="277.978516" xlink:href="#ArialMT-99"/>
      <use x="327.978516" xlink:href="#ArialMT-107"/>
      <use x="377.978516" xlink:href="#ArialMT-8211"/>
      <use x="433.59375" xlink:href="#ArialMT-76"/>
      <use x="489.208984" xlink:href="#ArialMT-101"/>
      <use x="544.824219" xlink:href="#ArialMT-105"/>
      <use x="567.041016" xlink:href="#ArialMT-98"/>
      <use x="622.65625" xlink:href="#ArialMT-108"/>
      <use x="644.873047" xlink:href="#ArialMT-101"/>
      <use x="700.488281" xlink:href="#ArialMT-114"/>
      <use x="733.789062" xlink:href="#ArialMT-32"/>
      <use x="761.572266" xlink:href="#ArialMT-68"/>
      <use x="833.789062" xlink:href="#ArialMT-105"/>
      <use x="856.005859" xlink:href="#ArialMT-118"/>
      <use x="906.005859" xlink:href="#ArialMT-101"/>
      <use x="961.621094" xlink:href="#ArialMT-114"/>
      <use x="994.921875" xlink:href="#ArialMT-103"/>
      <use x="1050.537109" xlink:href="#ArialMT-101"/>
      <use x="1106.152344" xlink:href="#ArialMT-110"/>
      <use x="1161.767578" xlink:href="#ArialMT-99"/>
      <use x="1211.767578" xlink:href="#ArialMT-101"/>
     </g>
    </g>
   </g>
   <g id="PathCollection_1">
    <path clip-path="url(#p0bddfd38d6)" d="M 77.572329 326.935567
C 78.159905 326.935567 78.723494 326.702121 79.138972 326.286643
C 79.554451 325.871164 79.787897 325.307575 79.787897 324.72
C 79.787897 324.132425 79.554451 323.568836 79.138972 323.153357
C 78.723494 322.737879 78.159905 322.504433 77.572329 322.504433
C 76.984754 322.504433 76.421165 322.737879 76.005687 323.153357
C 75.590208 323.568836 75.356762 324.132425 75.356762 324.72
C 75.356762 325.307575 75.590208 325.871164 76.005687 326.286643
C 76.421165 326.702121 76.984754 326.935567 77.572329 326.935567
z
" style="fill:#a6cee3;stroke:#a6cee3;stroke-width:0.886227;"/>
    <path clip-path="url(#p0bddfd38d6)" d="M 77.572329 265.894191
C 78.159905 265.894191 78.723494 265.660745 79.138972 265.245267
C 79.554451 264.829788 79.787897 264.266199 79.787897 263.678624
C 79.787897 263.091049 79.554451 262.52746 79.138972 262.111981
C 78.723494 261.696503 78.159905 261.463057 77.572329 261.463057
C 76.984754 261.463057 76.421165 261.696503 76.005687 262.111981
C 75.590208 262.52746 75.356762 263.091049 75.356762 263.678624
C 75.356762 264.266199 75.590208 264.829788 76.005687 265.245267
C 76.421165 265.660745 76.984754 265.894191 77.572329 265.894191
z
" style="fill:#1f78b4;stroke:#1f78b4;stroke-width:0.886227;"/>
    <path clip-path="url(#p0bddfd38d6)" d="M 77.572329 290.213663
C 78.159905 290.213663 78.723494 289.980217 79.138972 289.564738
C 79.554451 289.14926 79.787897 288.585671 79.787897 287.998095
C 79.787897 287.41052 79.554451 286.846931 79.138972 286.431453
C 78.723494 286.015974 78.159905 285.782528 77.572329 285.782528
C 76.984754 285.782528 76.421165 286.015974 76.005687 286.431453
C 75.590208 286.846931 75.356762 287.41052 75.356762 287.998095
C 75.356762 288.585671 75.590208 289.14926 76.005687 289.564738
C 76.421165 289.980217 76.984754 290.213663 77.572329 290.213663
z
" style="fill:#b2df8a;stroke:#b2df8a;stroke-width:0.886227;"/>
    <path clip-path="url(#p0bddfd38d6)" d="M 132.278212 325.023632
C 132.865787 325.023632 133.429376 324.790186 133.844854 324.374707
C 134.260333 323.959229 134.493779 323.39564 134.493779 322.808064
C 134.493779 322.220489 134.260333 321.6569 133.844854 321.241422
C 133.429376 320.825943 132.865787 320.592497 132.278212 320.592497
C 131.690636 320.592497 131.127048 320.825943 130.711569 321.241422
C 130.296091 321.6569 130.062644 322.220489 130.062644 322.808064
C 130.062644 323.39564 130.296091 323.959229 130.711569 324.374707
C 131.127048 324.790186 131.690636 325.023632 132.278212 325.023632
z
" style="fill:#a6cee3;stroke:#a6cee3;stroke-width:0.886227;"/>
    <path clip-path="url(#p0bddfd38d6)" d="M 132.278212 243.439331
C 132.865787 243.439331 133.429376 243.205885 133.844854 242.790407
C 134.260333 242.374928 134.493779 241.811339 134.493779 241.223764
C 134.493779 240.636189 134.260333 240.0726 133.844854 239.657121
C 133.429376 239.241643 132.865787 239.008197 132.278212 239.008197
C 131.690636 239.008197 131.127048 239.241643 130.711569 239.657121
C 130.296091 240.0726 130.062644 240.636189 130.062644 241.223764
C 130.062644 241.811339 130.296091 242.374928 130.711569 242.790407
C 131.127048 243.205885 131.690636 243.439331 132.278212 243.439331
z
" style="fill:#1f78b4;stroke:#1f78b4;stroke-width:0.886227;"/>
    <path clip-path="url(#p0bddfd38d6)" d="M 132.278212 267.847115
C 132.865787 267.847115 133.429376 267.613668 133.844854 267.19819
C 134.260333 266.782712 134.493779 266.219123 134.493779 265.631547
C 134.493779 265.043972 134.260333 264.480383 133.844854 264.064905
C 133.429376 263.649426 132.865787 263.41598 132.278212 263.41598
C 131.690636 263.41598 131.127048 263.649426 130.711569 264.064905
C 130.296091 264.480383 130.062644 265.043972 130.062644 265.631547
C 130.062644 266.219123 130.296091 266.782712 130.711569 267.19819
C 131.127048 267.613668 131.690636 267.847115 132.278212 267.847115
z
" style="fill:#b2df8a;stroke:#b2df8a;stroke-width:0.886227;"/>
    <path clip-path="url(#p0bddfd38d6)" d="M 186.984094 323.688244
C 187.571669 323.688244 188.135258 323.454798 188.550737 323.03932
C 188.966215 322.623841 189.199661 322.060252 189.199661 321.472677
C 189.199661 320.885102 188.966215 320.321513 188.550737 319.906034
C 188.135258 319.490556 187.571669 319.25711 186.984094 319.25711
C 186.396519 319.25711 185.83293 319.490556 185.417451 319.906034
C 185.001973 320.321513 184.768527 320.885102 184.768527 321.472677
C 184.768527 322.060252 185.001973 322.623841 185.417451 323.03932
C 185.83293 323.454798 186.396519 323.688244 186.984094 323.688244
z
" style="fill:#a6cee3;stroke:#a6cee3;stroke-width:0.886227;"/>
    <path clip-path="url(#p0bddfd38d6)" d="M 186.984094 225.195826
C 187.571669 225.195826 188.135258 224.96238 188.550737 224.546902
C 188.966215 224.131423 189.199661 223.567834 189.199661 222.980259
C 189.199661 222.392684 188.966215 221.829095 188.550737 221.413616
C 188.135258 220.998138 187.571669 220.764692 186.984094 220.764692
C 186.396519 220.764692 185.83293 220.998138 185.417451 221.413616
C 185.001973 221.829095 184.768527 222.392684 184.768527 222.980259
C 184.768527 223.567834 185.001973 224.131423 185.417451 224.546902
C 185.83293 224.96238 186.396519 225.195826 186.984094 225.195826
z
" style="fill:#1f78b4;stroke:#1f78b4;stroke-width:0.886227;"/>
    <path clip-path="url(#p0bddfd38d6)" d="M 186.984094 256.610789
C 187.571669 256.610789 188.135258 256.377343 188.550737 255.961864
C 188.966215 255.546386 189.199661 254.982797 189.199661 254.395222
C 189.199661 253.807646 188.966215 253.244057 188.550737 252.828579
C 188.135258 252.4131 187.571669 252.179654 186.984094 252.179654
C 186.396519 252.179654 185.83293 252.4131 185.417451 252.828579
C 185.001973 253.244057 184.768527 253.807646 184.768527 254.395222
C 184.768527 254.982797 185.001973 255.546386 185.417451 255.961864
C 185.83293 256.377343 186.396519 256.610789 186.984094 256.610789
z
" style="fill:#b2df8a;stroke:#b2df8a;stroke-width:0.886227;"/>
    <path clip-path="url(#p0bddfd38d6)" d="M 241.689976 305.972899
C 242.277552 305.972899 242.841141 305.739453 243.256619 305.323974
C 243.672098 304.908496 243.905544 304.344907 243.905544 303.757331
C 243.905544 303.169756 243.672098 302.606167 243.256619 302.190689
C 242.841141 301.77521 242.277552 301.541764 241.689976 301.541764
C 241.102401 301.541764 240.538812 301.77521 240.123334 302.190689
C 239.707855 302.606167 239.474409 303.169756 239.474409 303.757331
C 239.474409 304.344907 239.707855 304.908496 240.123334 305.323974
C 240.538812 305.739453 241.102401 305.972899 241.689976 305.972899
z
" style="fill:#a6cee3;stroke:#a6cee3;stroke-width:0.886227;"/>
    <path clip-path="url(#p0bddfd38d6)" d="M 241.689976 210.464916
C 242.277552 210.464916 242.841141 210.23147 243.256619 209.815991
C 243.672098 209.400513 243.905544 208.836924 243.905544 208.249349
C 243.905544 207.661773 243.672098 207.098184 243.256619 206.682706
C 242.841141 206.267227 242.277552 206.033781 241.689976 206.033781
C 241.102401 206.033781 240.538812 206.267227 240.123334 206.682706
C 239.707855 207.098184 239.474409 207.661773 239.474409 208.249349
C 239.474409 208.836924 239.707855 209.400513 240.123334 209.815991
C 240.538812 210.23147 241.102401 210.464916 241.689976 210.464916
z
" style="fill:#1f78b4;stroke:#1f78b4;stroke-width:0.886227;"/>
    <path clip-path="url(#p0bddfd38d6)" d="M 241.689976 244.091224
C 242.277552 244.091224 242.841141 243.857778 243.256619 243.442299
C 243.672098 243.026821 243.905544 242.463232 243.905544 241.875657
C 243.905544 241.288081 243.672098 240.724493 243.256619 240.309014
C 242.841141 239.893536 242.277552 239.660089 241.689976 239.660089
C 241.102401 239.660089 240.538812 239.893536 240.123334 240.309014
C 239.707855 240.724493 239.474409 241.288081 239.474409 241.875657
C 239.474409 242.463232 239.707855 243.026821 240.123334 243.442299
C 240.538812 243.857778 241.102401 244.091224 241.689976 244.091224
z
" style="fill:#b2df8a;stroke:#b2df8a;stroke-width:0.886227;"/>
    <path clip-path="url(#p0bddfd38d6)" d="M 296.395859 300.640867
C 296.983434 300.640867 297.547023 300.40742 297.962501 299.991942
C 298.37798 299.576463 298.611426 299.012875 298.611426 298.425299
C 298.611426 297.837724 298.37798 297.274135 297.962501 296.858657
C 297.547023 296.443178 296.983434 296.209732 296.395859 296.209732
C 295.808284 296.209732 295.244695 296.443178 294.829216 296.858657
C 294.413738 297.274135 294.180292 297.837724 294.180292 298.425299
C 294.180292 299.012875 294.413738 299.576463 294.829216 299.991942
C 295.244695 300.40742 295.808284 300.640867 296.395859 300.640867
z
" style="fill:#a6cee3;stroke:#a6cee3;stroke-width:0.886227;"/>
    <path clip-path="url(#p0bddfd38d6)" d="M 296.395859 198.025391
C 296.983434 198.025391 297.547023 197.791945 297.962501 197.376466
C 298.37798 196.960988 298.611426 196.397399 298.611426 195.809824
C 298.611426 195.222248 298.37798 194.65866 297.962501 194.243181
C 297.547023 193.827703 296.983434 193.594256 296.395859 193.594256
C 295.808284 193.594256 295.244695 193.827703 294.829216 194.243181
C 294.413738 194.65866 294.180292 195.222248 294.180292 195.809824
C 294.180292 196.397399 294.413738 196.960988 294.829216 197.376466
C 295.244695 197.791945 295.808284 198.025391 296.395859 198.025391
z
" style="fill:#1f78b4;stroke:#1f78b4;stroke-width:0.886227;"/>
    <path clip-path="url(#p0bddfd38d6)" d="M 296.395859 235.196664
C 296.983434 235.196664 297.547023 234.963218 297.962501 234.547739
C 298.37798 234.132261 298.611426 233.568672 298.611426 232.981096
C 298.611426 232.393521 298.37798 231.829932 297.962501 231.414454
C 297.547023 230.998975 296.983434 230.765529 296.395859 230.765529
C 295.808284 230.765529 295.244695 230.998975 294.829216 231.414454
C 294.413738 231.829932 294.180292 232.393521 294.180292 232.981096
C 294.180292 233.568672 294.413738 234.132261 294.829216 234.547739
C 295.244695 234.963218 295.808284 235.196664 296.395859 235.196664
z
" style="fill:#b2df8a;stroke:#b2df8a;stroke-width:0.886227;"/>
    <path clip-path="url(#p0bddfd38d6)" d="M 351.101741 280.000658
C 351.689316 280.000658 352.252905 279.767212 352.668384 279.351734
C 353.083862 278.936255 353.317308 278.372666 353.317308 277.785091
C 353.317308 277.197516 353.083862 276.633927 352.668384 276.218448
C 352.252905 275.80297 351.689316 275.569524 351.101741 275.569524
C 350.514166 275.569524 349.950577 275.80297 349.535099 276.218448
C 349.11962 276.633927 348.886174 277.197516 348.886174 277.785091
C 348.886174 278.372666 349.11962 278.936255 349.535099 279.351734
C 349.950577 279.767212 350.514166 280.000658 351.101741 280.000658
z
" style="fill:#a6cee3;stroke:#a6cee3;stroke-width:0.886227;"/>
    <path clip-path="url(#p0bddfd38d6)" d="M 351.101741 171.080699
C 351.689316 171.080699 352.252905 170.847253 352.668384 170.431775
C 353.083862 170.016296 353.317308 169.452707 353.317308 168.865132
C 353.317308 168.277557 353.083862 167.713968 352.668384 167.298489
C 352.252905 166.883011 351.689316 166.649565 351.101741 166.649565
C 350.514166 166.649565 349.950577 166.883011 349.535099 167.298489
C 349.11962 167.713968 348.886174 168.277557 348.886174 168.865132
C 348.886174 169.452707 349.11962 170.016296 349.535099 170.431775
C 349.950577 170.847253 350.514166 171.080699 351.101741 171.080699
z
" style="fill:#1f78b4;stroke:#1f78b4;stroke-width:0.886227;"/>
    <path clip-path="url(#p0bddfd38d6)" d="M 351.101741 203.757859
C 351.689316 203.757859 352.252905 203.524413 352.668384 203.108934
C 353.083862 202.693456 353.317308 202.129867 353.317308 201.542291
C 353.317308 200.954716 353.083862 200.391127 352.668384 199.975649
C 352.252905 199.56017 351.689316 199.326724 351.101741 199.326724
C 350.514166 199.326724 349.950577 199.56017 349.535099 199.975649
C 349.11962 200.391127 348.886174 200.954716 348.886174 201.542291
C 348.886174 202.129867 349.11962 202.693456 349.535099 203.108934
C 349.950577 203.524413 350.514166 203.757859 351.101741 203.757859
z
" style="fill:#b2df8a;stroke:#b2df8a;stroke-width:0.886227;"/>
    <path clip-path="url(#p0bddfd38d6)" d="M 405.807624 268.670255
C 406.395199 268.670255 406.958788 268.436808 407.374266 268.02133
C 407.789745 267.605851 408.023191 267.042263 408.023191 266.454687
C 408.023191 265.867112 407.789745 265.303523 407.374266 264.888045
C 406.958788 264.472566 406.395199 264.23912 405.807624 264.23912
C 405.220048 264.23912 404.656459 264.472566 404.240981 264.888045
C 403.825502 265.303523 403.592056 265.867112 403.592056 266.454687
C 403.592056 267.042263 403.825502 267.605851 404.240981 268.02133
C 404.656459 268.436808 405.220048 268.670255 405.807624 268.670255
z
" style="fill:#a6cee3;stroke:#a6cee3;stroke-width:0.886227;"/>
    <path clip-path="url(#p0bddfd38d6)" d="M 405.807624 129.060077
C 406.395199 129.060077 406.958788 128.826631 407.374266 128.411152
C 407.789745 127.995674 408.023191 127.432085 408.023191 126.844509
C 408.023191 126.256934 407.789745 125.693345 407.374266 125.277867
C 406.958788 124.862388 406.395199 124.628942 405.807624 124.628942
C 405.220048 124.628942 404.656459 124.862388 404.240981 125.277867
C 403.825502 125.693345 403.592056 126.256934 403.592056 126.844509
C 403.592056 127.432085 403.825502 127.995674 404.240981 128.411152
C 404.656459 128.826631 405.220048 129.060077 405.807624 129.060077
z
" style="fill:#1f78b4;stroke:#1f78b4;stroke-width:0.886227;"/>
    <path clip-path="url(#p0bddfd38d6)" d="M 405.807624 172.820333
C 406.395199 172.820333 406.958788 172.586887 407.374266 172.171408
C 407.789745 171.75593 408.023191 171.192341 408.023191 170.604766
C 408.023191 170.01719 407.789745 169.453602 407.374266 169.038123
C 406.958788 168.622645 406.395199 168.389198 405.807624 168.389198
C 405.220048 168.389198 404.656459 168.622645 404.240981 169.038123
C 403.825502 169.453602 403.592056 170.01719 403.592056 170.604766
C 403.592056 171.192341 403.825502 171.75593 404.240981 172.171408
C 404.656459 172.586887 405.220048 172.820333 405.807624 172.820333
z
" style="fill:#b2df8a;stroke:#b2df8a;stroke-width:0.886227;"/>
    <path clip-path="url(#p0bddfd38d6)" d="M 460.513506 250.169202
C 461.101081 250.169202 461.66467 249.935756 462.080149 249.520278
C 462.495627 249.104799 462.729073 248.54121 462.729073 247.953635
C 462.729073 247.36606 462.495627 246.802471 462.080149 246.386992
C 461.66467 245.971514 461.101081 245.738068 460.513506 245.738068
C 459.925931 245.738068 459.362342 245.971514 458.946863 246.386992
C 458.531385 246.802471 458.297939 247.36606 458.297939 247.953635
C 458.297939 248.54121 458.531385 249.104799 458.946863 249.520278
C 459.362342 249.935756 459.925931 250.169202 460.513506 250.169202
z
" style="fill:#a6cee3;stroke:#a6cee3;stroke-width:0.886227;"/>
    <path clip-path="url(#p0bddfd38d6)" d="M 460.513506 110.097373
C 461.101081 110.097373 461.66467 109.863927 462.080149 109.448449
C 462.495627 109.03297 462.729073 108.469381 462.729073 107.881806
C 462.729073 107.294231 462.495627 106.730642 462.080149 106.315163
C 461.66467 105.899685 461.101081 105.666239 460.513506 105.666239
C 459.925931 105.666239 459.362342 105.899685 458.946863 106.315163
C 458.531385 106.730642 458.297939 107.294231 458.297939 107.881806
C 458.297939 108.469381 458.531385 109.03297 458.946863 109.448449
C 459.362342 109.863927 459.925931 110.097373 460.513506 110.097373
z
" style="fill:#1f78b4;stroke:#1f78b4;stroke-width:0.886227;"/>
    <path clip-path="url(#p0bddfd38d6)" d="M 460.513506 146.495086
C 461.101081 146.495086 461.66467 146.26164 462.080149 145.846162
C 462.495627 145.430683 462.729073 144.867094 462.729073 144.279519
C 462.729073 143.691944 462.495627 143.128355 462.080149 142.712876
C 461.66467 142.297398 461.101081 142.063952 460.513506 142.063952
C 459.925931 142.063952 459.362342 142.297398 458.946863 142.712876
C 458.531385 143.128355 458.297939 143.691944 458.297939 144.279519
C 458.297939 144.867094 458.531385 145.430683 458.946863 145.846162
C 459.362342 146.26164 459.925931 146.495086 460.513506 146.495086
z
" style="fill:#b2df8a;stroke:#b2df8a;stroke-width:0.886227;"/>
    <path clip-path="url(#p0bddfd38d6)" d="M 515.219388 222.868508
C 515.806964 222.868508 516.370552 222.635062 516.786031 222.219583
C 517.201509 221.804105 517.434956 221.240516 517.434956 220.652941
C 517.434956 220.065365 517.201509 219.501776 516.786031 219.086298
C 516.370552 218.670819 515.806964 218.437373 515.219388 218.437373
C 514.631813 218.437373 514.068224 218.670819 513.652746 219.086298
C 513.237267 219.501776 513.003821 220.065365 513.003821 220.652941
C 513.003821 221.240516 513.237267 221.804105 513.652746 222.219583
C 514.068224 222.635062 514.631813 222.868508 515.219388 222.868508
z
" style="fill:#a6cee3;stroke:#a6cee3;stroke-width:0.886227;"/>
    <path clip-path="url(#p0bddfd38d6)" d="M 515.219388 66.948678
C 515.806964 66.948678 516.370552 66.715232 516.786031 66.299753
C 517.201509 65.884275 517.434956 65.320686 517.434956 64.73311
C 517.434956 64.145535 517.201509 63.581946 516.786031 63.166468
C 516.370552 62.750989 515.806964 62.517543 515.219388 62.517543
C 514.631813 62.517543 514.068224 62.750989 513.652746 63.166468
C 513.237267 63.581946 513.003821 64.145535 513.003821 64.73311
C 513.003821 65.320686 513.237267 65.884275 513.652746 66.299753
C 514.068224 66.715232 514.631813 66.948678 515.219388 66.948678
z
" style="fill:#1f78b4;stroke:#1f78b4;stroke-width:0.886227;"/>
    <path clip-path="url(#p0bddfd38d6)" d="M 515.219388 117.110488
C 515.806964 117.110488 516.370552 116.877042 516.786031 116.461564
C 517.201509 116.046085 517.434956 115.482496 517.434956 114.894921
C 517.434956 114.307346 517.201509 113.743757 516.786031 113.328278
C 516.370552 112.9128 515.806964 112.679354 515.219388 112.679354
C 514.631813 112.679354 514.068224 112.9128 513.652746 113.328278
C 513.237267 113.743757 513.003821 114.307346 513.003821 114.894921
C 513.003821 115.482496 513.237267 116.046085 513.652746 116.461564
C 514.068224 116.877042 514.631813 117.110488 515.219388 117.110488
z
" style="fill:#b2df8a;stroke:#b2df8a;stroke-width:0.886227;"/>
    <path clip-path="url(#p0bddfd38d6)" d="M 569.925271 181.764101
C 570.512846 181.764101 571.076435 181.530654 571.491913 181.115176
C 571.907392 180.699697 572.140838 180.136109 572.140838 179.548533
C 572.140838 178.960958 571.907392 178.397369 571.491913 177.981891
C 571.076435 177.566412 570.512846 177.332966 569.925271 177.332966
C 569.337695 177.332966 568.774106 177.566412 568.358628 177.981891
C 567.943149 178.397369 567.709703 178.960958 567.709703 179.548533
C 567.709703 180.136109 567.943149 180.699697 568.358628 181.115176
C 568.774106 181.530654 569.337695 181.764101 569.925271 181.764101
z
" style="fill:#a6cee3;stroke:#a6cee3;stroke-width:0.886227;"/>
    <path clip-path="url(#p0bddfd38d6)" d="M 569.925271 24.535567
C 570.512846 24.535567 571.076435 24.302121 571.491913 23.886643
C 571.907392 23.471164 572.140838 22.907575 572.140838 22.32
C 572.140838 21.732425 571.907392 21.168836 571.491913 20.753357
C 571.076435 20.337879 570.512846 20.104433 569.925271 20.104433
C 569.337695 20.104433 568.774106 20.337879 568.358628 20.753357
C 567.943149 21.168836 567.709703 21.732425 567.709703 22.32
C 567.709703 22.907575 567.943149 23.471164 568.358628 23.886643
C 568.774106 24.302121 569.337695 24.535567 569.925271 24.535567
z
" style="fill:#1f78b4;stroke:#1f78b4;stroke-width:0.886227;"/>
    <path clip-path="url(#p0bddfd38d6)" d="M 569.925271 47.552809
C 570.512846 47.552809 571.076435 47.319363 571.491913 46.903885
C 571.907392 46.488406 572.140838 45.924817 572.140838 45.337242
C 572.140838 44.749667 571.907392 44.186078 571.491913 43.770599
C 571.076435 43.355121 570.512846 43.121675 569.925271 43.121675
C 569.337695 43.121675 568.774106 43.355121 568.358628 43.770599
C 567.943149 44.186078 567.709703 44.749667 567.709703 45.337242
C 567.709703 45.924817 567.943149 46.488406 568.358628 46.903885
C 568.774106 47.319363 569.337695 47.552809 569.925271 47.552809
z
" style="fill:#b2df8a;stroke:#b2df8a;stroke-width:0.886227;"/>
   </g>
   <g id="line2d_21">
    <path clip-path="url(#p0bddfd38d6)" d="M 77.572329 287.998095
L 132.278212 265.631547
L 186.984094 254.395222
L 241.689976 241.875657
L 296.395859 232.981096
L 351.101741 201.542291
L 405.807624 170.604766
L 460.513506 144.279519
L 515.219388 114.894921
L 569.925271 45.337242
" style="fill:none;stroke:#b2df8a;stroke-dasharray:3.27904,1.417963;stroke-dashoffset:0;stroke-width:0.886227;"/>
   </g>
   <g id="line2d_22">
    <path clip-path="url(#p0bddfd38d6)" d="M 77.572329 263.678624
L 132.278212 241.223764
L 186.984094 222.980259
L 241.689976 208.249349
L 296.395859 195.809824
L 351.101741 168.865132
L 405.807624 126.844509
L 460.513506 107.881806
L 515.219388 64.73311
L 569.925271 22.32
" style="fill:none;stroke:#1f78b4;stroke-dasharray:3.27904,1.417963;stroke-dashoffset:0;stroke-width:0.886227;"/>
   </g>
   <g id="line2d_23">
    <path clip-path="url(#p0bddfd38d6)" d="M 77.572329 324.72
L 132.278212 322.808064
L 186.984094 321.472677
L 241.689976 303.757331
L 296.395859 298.425299
L 351.101741 277.785091
L 405.807624 266.454687
L 460.513506 247.953635
L 515.219388 220.652941
L 569.925271 179.548533
" style="fill:none;stroke:#a6cee3;stroke-dasharray:3.27904,1.417963;stroke-dashoffset:0;stroke-width:0.886227;"/>
   </g>
   <g id="patch_3">
    <path d="M 44.7488 339.84
L 44.7488 7.2
" style="fill:none;stroke:#262626;stroke-linecap:square;stroke-linejoin:miter;"/>
   </g>
   <g id="patch_4">
    <path d="M 602.7488 339.84
L 602.7488 7.2
" style="fill:none;stroke:#262626;stroke-linecap:square;stroke-linejoin:miter;"/>
   </g>
   <g id="patch_5">
    <path d="M 44.7488 339.84
L 602.7488 339.84
" style="fill:none;stroke:#262626;stroke-linecap:square;stroke-linejoin:miter;"/>
   </g>
   <g id="patch_6">
    <path d="M 44.7488 7.2
L 602.7488 7.2
" style="fill:none;stroke:#262626;stroke-linecap:square;stroke-linejoin:miter;"/>
   </g>
   <g id="text_18">
    <!-- Comparison -->
    <defs>
     <path d="M 58.796875 25.09375
L 68.265625 22.703125
Q 65.28125 11.03125 57.546875 4.90625
Q 49.8125 -1.21875 38.625 -1.21875
Q 27.046875 -1.21875 19.796875 3.484375
Q 12.546875 8.203125 8.765625 17.140625
Q 4.984375 26.078125 4.984375 36.328125
Q 4.984375 47.515625 9.25 55.828125
Q 13.53125 64.15625 21.40625 68.46875
Q 29.296875 72.796875 38.765625 72.796875
Q 49.515625 72.796875 56.828125 67.328125
Q 64.15625 61.859375 67.046875 51.953125
L 57.71875 49.75
Q 55.21875 57.5625 50.484375 61.125
Q 45.75 64.703125 38.578125 64.703125
Q 30.328125 64.703125 24.78125 60.734375
Q 19.234375 56.78125 16.984375 50.109375
Q 14.75 43.453125 14.75 36.375
Q 14.75 27.25 17.40625 20.4375
Q 20.0625 13.625 25.671875 10.25
Q 31.296875 6.890625 37.84375 6.890625
Q 45.796875 6.890625 51.3125 11.46875
Q 56.84375 16.0625 58.796875 25.09375
z
" id="ArialMT-67"/>
     <path d="M 6.59375 -19.875
L 6.59375 51.859375
L 14.59375 51.859375
L 14.59375 45.125
Q 17.4375 49.078125 21 51.046875
Q 24.5625 53.03125 29.640625 53.03125
Q 36.28125 53.03125 41.359375 49.609375
Q 46.4375 46.1875 49.015625 39.953125
Q 51.609375 33.734375 51.609375 26.3125
Q 51.609375 18.359375 48.75 11.984375
Q 45.90625 5.609375 40.453125 2.21875
Q 35.015625 -1.171875 29 -1.171875
Q 24.609375 -1.171875 21.109375 0.6875
Q 17.625 2.546875 15.375 5.375
L 15.375 -19.875
z
M 14.546875 25.640625
Q 14.546875 15.625 18.59375 10.84375
Q 22.65625 6.0625 28.421875 6.0625
Q 34.28125 6.0625 38.453125 11.015625
Q 42.625 15.96875 42.625 26.375
Q 42.625 36.28125 38.546875 41.203125
Q 34.46875 46.140625 28.8125 46.140625
Q 23.1875 46.140625 18.859375 40.890625
Q 14.546875 35.640625 14.546875 25.640625
z
" id="ArialMT-112"/>
    </defs>
    <g transform="translate(629.9488 141.4083)scale(0.1152 -0.1152)">
     <use xlink:href="#ArialMT-67"/>
     <use x="72.216797" xlink:href="#ArialMT-111"/>
     <use x="127.832031" xlink:href="#ArialMT-109"/>
     <use x="211.132812" xlink:href="#ArialMT-112"/>
     <use x="266.748047" xlink:href="#ArialMT-97"/>
     <use x="322.363281" xlink:href="#ArialMT-114"/>
     <use x="355.664062" xlink:href="#ArialMT-105"/>
     <use x="377.880859" xlink:href="#ArialMT-115"/>
     <use x="427.880859" xlink:href="#ArialMT-111"/>
     <use x="483.496094" xlink:href="#ArialMT-110"/>
    </g>
   </g>
   <g id="patch_7">
    <path clip-path="url(#pf67686d981)" d="M 629.9488 169.6979
L 647.9488 169.6979
L 647.9488 151.6979
L 629.9488 151.6979
z
" style="fill:#ffffff;"/>
   </g>
   <g id="line2d_24">
    <path clip-path="url(#pf67686d981)" d="M 638.9488 160.6979
" style="fill:none;stroke:#1f77b4;stroke-linecap:round;stroke-width:1.2;"/>
    <defs>
     <path d="M 0 2.215567
C 0.587575 2.215567 1.151164 1.982121 1.566643 1.566643
C 1.982121 1.151164 2.215567 0.587575 2.215567 0
C 2.215567 -0.587575 1.982121 -1.151164 1.566643 -1.566643
C 1.151164 -1.982121 0.587575 -2.215567 0 -2.215567
C -0.587575 -2.215567 -1.151164 -1.982121 -1.566643 -1.566643
C -1.982121 -1.151164 -2.215567 -0.587575 -2.215567 0
C -2.215567 0.587575 -1.982121 1.151164 -1.566643 1.566643
C -1.151164 1.982121 -0.587575 2.215567 0 2.215567
z
" id="m74f7aad700" style="stroke:#b2df8a;stroke-width:0.886227;"/>
    </defs>
    <g clip-path="url(#pf67686d981)">
     <use style="fill:#b2df8a;stroke:#b2df8a;stroke-width:0.886227;" x="638.9488" xlink:href="#m74f7aad700" y="160.6979"/>
    </g>
   </g>
   <g id="line2d_25">
    <path clip-path="url(#pf67686d981)" d="M 629.9488 160.6979
L 647.9488 160.6979
" style="fill:none;stroke:#b2df8a;stroke-dasharray:3.27904,1.417963;stroke-dashoffset:0;stroke-width:0.886227;"/>
   </g>
   <g id="text_19">
    <!-- PMC-NYTAC -->
    <defs>
     <path d="M 7.71875 0
L 7.71875 71.578125
L 34.71875 71.578125
Q 41.84375 71.578125 45.609375 70.90625
Q 50.875 70.015625 54.4375 67.546875
Q 58.015625 65.09375 60.1875 60.640625
Q 62.359375 56.203125 62.359375 50.875
Q 62.359375 41.75 56.546875 35.421875
Q 50.734375 29.109375 35.546875 29.109375
L 17.1875 29.109375
L 17.1875 0
z
M 17.1875 37.546875
L 35.6875 37.546875
Q 44.875 37.546875 48.734375 40.96875
Q 52.59375 44.390625 52.59375 50.59375
Q 52.59375 55.078125 50.3125 58.265625
Q 48.046875 61.46875 44.34375 62.5
Q 41.9375 63.140625 35.5 63.140625
L 17.1875 63.140625
z
" id="ArialMT-80"/>
     <path d="M 7.421875 0
L 7.421875 71.578125
L 21.6875 71.578125
L 38.625 20.90625
Q 40.96875 13.8125 42.046875 10.296875
Q 43.265625 14.203125 45.84375 21.78125
L 62.984375 71.578125
L 75.734375 71.578125
L 75.734375 0
L 66.609375 0
L 66.609375 59.90625
L 45.796875 0
L 37.25 0
L 16.546875 60.9375
L 16.546875 0
z
" id="ArialMT-77"/>
     <path d="M 3.171875 21.484375
L 3.171875 30.328125
L 30.171875 30.328125
L 30.171875 21.484375
z
" id="ArialMT-45"/>
     <path d="M 27.875 0
L 27.875 30.328125
L 0.296875 71.578125
L 11.8125 71.578125
L 25.921875 50
Q 29.828125 43.953125 33.203125 37.890625
Q 36.421875 43.5 41.015625 50.53125
L 54.890625 71.578125
L 65.921875 71.578125
L 37.359375 30.328125
L 37.359375 0
z
" id="ArialMT-89"/>
     <path d="M 25.921875 0
L 25.921875 63.140625
L 2.34375 63.140625
L 2.34375 71.578125
L 59.078125 71.578125
L 59.078125 63.140625
L 35.40625 63.140625
L 35.40625 0
z
" id="ArialMT-84"/>
     <path d="M -0.140625 0
L 27.34375 71.578125
L 37.546875 71.578125
L 66.84375 0
L 56.0625 0
L 47.703125 21.6875
L 17.78125 21.6875
L 9.90625 0
z
M 20.515625 29.390625
L 44.78125 29.390625
L 37.3125 49.21875
Q 33.890625 58.25 32.234375 64.0625
Q 30.859375 57.171875 28.375 50.390625
z
" id="ArialMT-65"/>
    </defs>
    <g transform="translate(650.9488 163.676)scale(0.1152 -0.1152)">
     <use xlink:href="#ArialMT-80"/>
     <use x="66.699219" xlink:href="#ArialMT-77"/>
     <use x="150" xlink:href="#ArialMT-67"/>
     <use x="222.216797" xlink:href="#ArialMT-45"/>
     <use x="255.517578" xlink:href="#ArialMT-78"/>
     <use x="327.734375" xlink:href="#ArialMT-89"/>
     <use x="394.433594" xlink:href="#ArialMT-84"/>
     <use x="455.408203" xlink:href="#ArialMT-65"/>
     <use x="522.107422" xlink:href="#ArialMT-67"/>
    </g>
   </g>
   <g id="patch_8">
    <path clip-path="url(#pc88ae6af5c)" d="M 629.9488 189.6979
L 647.9488 189.6979
L 647.9488 171.6979
L 629.9488 171.6979
z
" style="fill:#ffffff;"/>
   </g>
   <g id="line2d_26">
    <path clip-path="url(#pc88ae6af5c)" d="M 638.9488 180.6979
" style="fill:none;stroke:#1f77b4;stroke-linecap:round;stroke-width:1.2;"/>
    <defs>
     <path d="M 0 2.215567
C 0.587575 2.215567 1.151164 1.982121 1.566643 1.566643
C 1.982121 1.151164 2.215567 0.587575 2.215567 0
C 2.215567 -0.587575 1.982121 -1.151164 1.566643 -1.566643
C 1.151164 -1.982121 0.587575 -2.215567 0 -2.215567
C -0.587575 -2.215567 -1.151164 -1.982121 -1.566643 -1.566643
C -1.982121 -1.151164 -2.215567 -0.587575 -2.215567 0
C -2.215567 0.587575 -1.982121 1.151164 -1.566643 1.566643
C -1.151164 1.982121 -0.587575 2.215567 0 2.215567
z
" id="m25d7c3f229" style="stroke:#1f78b4;stroke-width:0.886227;"/>
    </defs>
    <g clip-path="url(#pc88ae6af5c)">
     <use style="fill:#1f78b4;stroke:#1f78b4;stroke-width:0.886227;" x="638.9488" xlink:href="#m25d7c3f229" y="180.6979"/>
    </g>
   </g>
   <g id="line2d_27">
    <path clip-path="url(#pc88ae6af5c)" d="M 629.9488 180.6979
L 647.9488 180.6979
" style="fill:none;stroke:#1f78b4;stroke-dasharray:3.27904,1.417963;stroke-dashoffset:0;stroke-width:0.886227;"/>
   </g>
   <g id="text_20">
    <!-- bioRxiv-NYTAC -->
    <defs>
     <path d="M 7.859375 0
L 7.859375 71.578125
L 39.59375 71.578125
Q 49.171875 71.578125 54.140625 69.640625
Q 59.125 67.71875 62.109375 62.828125
Q 65.09375 57.953125 65.09375 52.046875
Q 65.09375 44.4375 60.15625 39.203125
Q 55.21875 33.984375 44.921875 32.5625
Q 48.6875 30.765625 50.640625 29
Q 54.78125 25.203125 58.5 19.484375
L 70.953125 0
L 59.03125 0
L 49.5625 14.890625
Q 45.40625 21.34375 42.71875 24.75
Q 40.046875 28.171875 37.921875 29.53125
Q 35.796875 30.90625 33.59375 31.453125
Q 31.984375 31.78125 28.328125 31.78125
L 17.328125 31.78125
L 17.328125 0
z
M 17.328125 39.984375
L 37.703125 39.984375
Q 44.1875 39.984375 47.84375 41.328125
Q 51.515625 42.671875 53.421875 45.625
Q 55.328125 48.578125 55.328125 52.046875
Q 55.328125 57.125 51.640625 60.390625
Q 47.953125 63.671875 39.984375 63.671875
L 17.328125 63.671875
z
" id="ArialMT-82"/>
     <path d="M 0.734375 0
L 19.671875 26.953125
L 2.15625 51.859375
L 13.140625 51.859375
L 21.09375 39.703125
Q 23.34375 36.234375 24.703125 33.890625
Q 26.859375 37.109375 28.65625 39.59375
L 37.40625 51.859375
L 47.90625 51.859375
L 29.984375 27.4375
L 49.265625 0
L 38.484375 0
L 27.828125 16.109375
L 25 20.453125
L 11.375 0
z
" id="ArialMT-120"/>
    </defs>
    <g transform="translate(650.9488 183.676)scale(0.1152 -0.1152)">
     <use xlink:href="#ArialMT-98"/>
     <use x="55.615234" xlink:href="#ArialMT-105"/>
     <use x="77.832031" xlink:href="#ArialMT-111"/>
     <use x="133.447266" xlink:href="#ArialMT-82"/>
     <use x="205.664062" xlink:href="#ArialMT-120"/>
     <use x="255.664062" xlink:href="#ArialMT-105"/>
     <use x="277.880859" xlink:href="#ArialMT-118"/>
     <use x="327.880859" xlink:href="#ArialMT-45"/>
     <use x="361.181641" xlink:href="#ArialMT-78"/>
     <use x="433.398438" xlink:href="#ArialMT-89"/>
     <use x="500.097656" xlink:href="#ArialMT-84"/>
     <use x="561.072266" xlink:href="#ArialMT-65"/>
     <use x="627.771484" xlink:href="#ArialMT-67"/>
    </g>
   </g>
   <g id="patch_9">
    <path clip-path="url(#pcc37466221)" d="M 629.9488 209.6979
L 647.9488 209.6979
L 647.9488 191.6979
L 629.9488 191.6979
z
" style="fill:#ffffff;"/>
   </g>
   <g id="line2d_28">
    <path clip-path="url(#pcc37466221)" d="M 638.9488 200.6979
" style="fill:none;stroke:#1f77b4;stroke-linecap:round;stroke-width:1.2;"/>
    <defs>
     <path d="M 0 2.215567
C 0.587575 2.215567 1.151164 1.982121 1.566643 1.566643
C 1.982121 1.151164 2.215567 0.587575 2.215567 0
C 2.215567 -0.587575 1.982121 -1.151164 1.566643 -1.566643
C 1.151164 -1.982121 0.587575 -2.215567 0 -2.215567
C -0.587575 -2.215567 -1.151164 -1.982121 -1.566643 -1.566643
C -1.982121 -1.151164 -2.215567 -0.587575 -2.215567 0
C -2.215567 0.587575 -1.982121 1.151164 -1.566643 1.566643
C -1.151164 1.982121 -0.587575 2.215567 0 2.215567
z
" id="m31ea5b9a3e" style="stroke:#a6cee3;stroke-width:0.886227;"/>
    </defs>
    <g clip-path="url(#pcc37466221)">
     <use style="fill:#a6cee3;stroke:#a6cee3;stroke-width:0.886227;" x="638.9488" xlink:href="#m31ea5b9a3e" y="200.6979"/>
    </g>
   </g>
   <g id="line2d_29">
    <path clip-path="url(#pcc37466221)" d="M 629.9488 200.6979
L 647.9488 200.6979
" style="fill:none;stroke:#a6cee3;stroke-dasharray:3.27904,1.417963;stroke-dashoffset:0;stroke-width:0.886227;"/>
   </g>
   <g id="text_21">
    <!-- bioRxiv-PMC -->
    <g transform="translate(650.9488 203.676)scale(0.1152 -0.1152)">
     <use xlink:href="#ArialMT-98"/>
     <use x="55.615234" xlink:href="#ArialMT-105"/>
     <use x="77.832031" xlink:href="#ArialMT-111"/>
     <use x="133.447266" xlink:href="#ArialMT-82"/>
     <use x="205.664062" xlink:href="#ArialMT-120"/>
     <use x="255.664062" xlink:href="#ArialMT-105"/>
     <use x="277.880859" xlink:href="#ArialMT-118"/>
     <use x="327.880859" xlink:href="#ArialMT-45"/>
     <use x="361.181641" xlink:href="#ArialMT-80"/>
     <use x="427.880859" xlink:href="#ArialMT-77"/>
     <use x="511.181641" xlink:href="#ArialMT-67"/>
    </g>
   </g>
  </g>
 </g>
 <defs>
  <clipPath id="p0bddfd38d6">
   <rect height="332.64" width="558" x="44.7488" y="7.2"/>
  </clipPath>
  <clipPath id="pf67686d981">
   <path d="M 629.9488 169.6979
L 629.9488 151.6979
L 647.9488 151.6979
L 647.9488 169.6979
"/>
  </clipPath>
  <clipPath id="pc88ae6af5c">
   <path d="M 629.9488 189.6979
L 629.9488 171.6979
L 647.9488 171.6979
L 647.9488 189.6979
"/>
  </clipPath>
  <clipPath id="pcc37466221">
   <path d="M 629.9488 209.6979
L 629.9488 191.6979
L 647.9488 191.6979
L 647.9488 209.6979
"/>
  </clipPath>
 </defs>
</svg>
