<?xml version="1.0" encoding="utf-8" standalone="no"?>
<!DOCTYPE svg PUBLIC "-//W3C//DTD SVG 1.1//EN"
  "http://www.w3.org/Graphics/SVG/1.1/DTD/svg11.dtd">
<!-- Created with matplotlib (https://matplotlib.org/) -->
<svg height="528.129275pt" version="1.1" viewBox="0 0 867.5805 528.129275" width="867.5805pt" xmlns="http://www.w3.org/2000/svg" xmlns:xlink="http://www.w3.org/1999/xlink">
 <defs>
  <style type="text/css">
*{stroke-linecap:butt;stroke-linejoin:round;}
  </style>
 </defs>
 <g id="figure_1">
  <g id="patch_1">
   <path d="M 0 528.129275
L 867.5805 528.129275
L 867.5805 0
L 0 0
z
" style="fill:#ffffff;"/>
  </g>
  <g id="axes_1">
   <g id="patch_2">
    <path d="M 57.4232 478.44
L 671.2232 478.44
L 671.2232 7.2
L 57.4232 7.2
z
" style="fill:#ffffff;"/>
   </g>
   <g id="matplotlib.axis_1">
    <g id="xtick_1">
     <g id="line2d_1">
      <defs>
       <path d="M 0 0
L 0 4.8
" id="m6482e50a30" style="stroke:#262626;"/>
      </defs>
      <g>
       <use style="fill:#262626;stroke:#262626;" x="93.529082" xlink:href="#m6482e50a30" y="478.44"/>
      </g>
     </g>
     <g id="text_1">
      <!-- 100 -->
      <defs>
       <path d="M 37.25 0
L 28.46875 0
L 28.46875 56
Q 25.296875 52.984375 20.140625 49.953125
Q 14.984375 46.921875 10.890625 45.40625
L 10.890625 53.90625
Q 18.265625 57.375 23.78125 62.296875
Q 29.296875 67.234375 31.59375 71.875
L 37.25 71.875
z
" id="ArialMT-49"/>
       <path d="M 4.15625 35.296875
Q 4.15625 48 6.765625 55.734375
Q 9.375 63.484375 14.515625 67.671875
Q 19.671875 71.875 27.484375 71.875
Q 33.25 71.875 37.59375 69.546875
Q 41.9375 67.234375 44.765625 62.859375
Q 47.609375 58.5 49.21875 52.21875
Q 50.828125 45.953125 50.828125 35.296875
Q 50.828125 22.703125 48.234375 14.96875
Q 45.65625 7.234375 40.5 3
Q 35.359375 -1.21875 27.484375 -1.21875
Q 17.140625 -1.21875 11.234375 6.203125
Q 4.15625 15.140625 4.15625 35.296875
z
M 13.1875 35.296875
Q 13.1875 17.671875 17.3125 11.828125
Q 21.4375 6 27.484375 6
Q 33.546875 6 37.671875 11.859375
Q 41.796875 17.71875 41.796875 35.296875
Q 41.796875 52.984375 37.671875 58.78125
Q 33.546875 64.59375 27.390625 64.59375
Q 21.34375 64.59375 17.71875 59.46875
Q 13.1875 52.9375 13.1875 35.296875
z
" id="ArialMT-48"/>
      </defs>
      <g style="fill:#262626;" transform="translate(80.316295 496.977975)scale(0.1584 -0.1584)">
       <use xlink:href="#ArialMT-49"/>
       <use x="55.615234" xlink:href="#ArialMT-48"/>
       <use x="111.230469" xlink:href="#ArialMT-48"/>
      </g>
     </g>
    </g>
    <g id="xtick_2">
     <g id="line2d_2">
      <g>
       <use style="fill:#262626;stroke:#262626;" x="153.705553" xlink:href="#m6482e50a30" y="478.44"/>
      </g>
     </g>
     <g id="text_2">
      <!-- 200 -->
      <defs>
       <path d="M 50.34375 8.453125
L 50.34375 0
L 3.03125 0
Q 2.9375 3.171875 4.046875 6.109375
Q 5.859375 10.9375 9.828125 15.625
Q 13.8125 20.3125 21.34375 26.46875
Q 33.015625 36.03125 37.109375 41.625
Q 41.21875 47.21875 41.21875 52.203125
Q 41.21875 57.421875 37.46875 61
Q 33.734375 64.59375 27.734375 64.59375
Q 21.390625 64.59375 17.578125 60.78125
Q 13.765625 56.984375 13.71875 50.25
L 4.6875 51.171875
Q 5.609375 61.28125 11.65625 66.578125
Q 17.71875 71.875 27.9375 71.875
Q 38.234375 71.875 44.234375 66.15625
Q 50.25 60.453125 50.25 52
Q 50.25 47.703125 48.484375 43.546875
Q 46.734375 39.40625 42.65625 34.8125
Q 38.578125 30.21875 29.109375 22.21875
Q 21.1875 15.578125 18.9375 13.203125
Q 16.703125 10.84375 15.234375 8.453125
z
" id="ArialMT-50"/>
      </defs>
      <g style="fill:#262626;" transform="translate(140.492765 496.977975)scale(0.1584 -0.1584)">
       <use xlink:href="#ArialMT-50"/>
       <use x="55.615234" xlink:href="#ArialMT-48"/>
       <use x="111.230469" xlink:href="#ArialMT-48"/>
      </g>
     </g>
    </g>
    <g id="xtick_3">
     <g id="line2d_3">
      <g>
       <use style="fill:#262626;stroke:#262626;" x="213.882024" xlink:href="#m6482e50a30" y="478.44"/>
      </g>
     </g>
     <g id="text_3">
      <!-- 300 -->
      <defs>
       <path d="M 4.203125 18.890625
L 12.984375 20.0625
Q 14.5 12.59375 18.140625 9.296875
Q 21.78125 6 27 6
Q 33.203125 6 37.46875 10.296875
Q 41.75 14.59375 41.75 20.953125
Q 41.75 27 37.796875 30.921875
Q 33.84375 34.859375 27.734375 34.859375
Q 25.25 34.859375 21.53125 33.890625
L 22.515625 41.609375
Q 23.390625 41.5 23.921875 41.5
Q 29.546875 41.5 34.03125 44.421875
Q 38.53125 47.359375 38.53125 53.46875
Q 38.53125 58.296875 35.25 61.46875
Q 31.984375 64.65625 26.8125 64.65625
Q 21.6875 64.65625 18.265625 61.421875
Q 14.84375 58.203125 13.875 51.765625
L 5.078125 53.328125
Q 6.6875 62.15625 12.390625 67.015625
Q 18.109375 71.875 26.609375 71.875
Q 32.46875 71.875 37.390625 69.359375
Q 42.328125 66.84375 44.9375 62.5
Q 47.5625 58.15625 47.5625 53.265625
Q 47.5625 48.640625 45.0625 44.828125
Q 42.578125 41.015625 37.703125 38.765625
Q 44.046875 37.3125 47.5625 32.6875
Q 51.078125 28.078125 51.078125 21.140625
Q 51.078125 11.765625 44.234375 5.25
Q 37.40625 -1.265625 26.953125 -1.265625
Q 17.53125 -1.265625 11.296875 4.34375
Q 5.078125 9.96875 4.203125 18.890625
z
" id="ArialMT-51"/>
      </defs>
      <g style="fill:#262626;" transform="translate(200.669236 496.977975)scale(0.1584 -0.1584)">
       <use xlink:href="#ArialMT-51"/>
       <use x="55.615234" xlink:href="#ArialMT-48"/>
       <use x="111.230469" xlink:href="#ArialMT-48"/>
      </g>
     </g>
    </g>
    <g id="xtick_4">
     <g id="line2d_4">
      <g>
       <use style="fill:#262626;stroke:#262626;" x="274.058494" xlink:href="#m6482e50a30" y="478.44"/>
      </g>
     </g>
     <g id="text_4">
      <!-- 400 -->
      <defs>
       <path d="M 32.328125 0
L 32.328125 17.140625
L 1.265625 17.140625
L 1.265625 25.203125
L 33.9375 71.578125
L 41.109375 71.578125
L 41.109375 25.203125
L 50.78125 25.203125
L 50.78125 17.140625
L 41.109375 17.140625
L 41.109375 0
z
M 32.328125 25.203125
L 32.328125 57.46875
L 9.90625 25.203125
z
" id="ArialMT-52"/>
      </defs>
      <g style="fill:#262626;" transform="translate(260.845707 496.977975)scale(0.1584 -0.1584)">
       <use xlink:href="#ArialMT-52"/>
       <use x="55.615234" xlink:href="#ArialMT-48"/>
       <use x="111.230469" xlink:href="#ArialMT-48"/>
      </g>
     </g>
    </g>
    <g id="xtick_5">
     <g id="line2d_5">
      <g>
       <use style="fill:#262626;stroke:#262626;" x="334.234965" xlink:href="#m6482e50a30" y="478.44"/>
      </g>
     </g>
     <g id="text_5">
      <!-- 500 -->
      <defs>
       <path d="M 4.15625 18.75
L 13.375 19.53125
Q 14.40625 12.796875 18.140625 9.390625
Q 21.875 6 27.15625 6
Q 33.5 6 37.890625 10.78125
Q 42.28125 15.578125 42.28125 23.484375
Q 42.28125 31 38.0625 35.34375
Q 33.84375 39.703125 27 39.703125
Q 22.75 39.703125 19.328125 37.765625
Q 15.921875 35.84375 13.96875 32.765625
L 5.71875 33.84375
L 12.640625 70.609375
L 48.25 70.609375
L 48.25 62.203125
L 19.671875 62.203125
L 15.828125 42.96875
Q 22.265625 47.46875 29.34375 47.46875
Q 38.71875 47.46875 45.15625 40.96875
Q 51.609375 34.46875 51.609375 24.265625
Q 51.609375 14.546875 45.953125 7.46875
Q 39.0625 -1.21875 27.15625 -1.21875
Q 17.390625 -1.21875 11.203125 4.25
Q 5.03125 9.71875 4.15625 18.75
z
" id="ArialMT-53"/>
      </defs>
      <g style="fill:#262626;" transform="translate(321.022177 496.977975)scale(0.1584 -0.1584)">
       <use xlink:href="#ArialMT-53"/>
       <use x="55.615234" xlink:href="#ArialMT-48"/>
       <use x="111.230469" xlink:href="#ArialMT-48"/>
      </g>
     </g>
    </g>
    <g id="xtick_6">
     <g id="line2d_6">
      <g>
       <use style="fill:#262626;stroke:#262626;" x="394.411435" xlink:href="#m6482e50a30" y="478.44"/>
      </g>
     </g>
     <g id="text_6">
      <!-- 1000 -->
      <g style="fill:#262626;" transform="translate(376.794385 496.977975)scale(0.1584 -0.1584)">
       <use xlink:href="#ArialMT-49"/>
       <use x="55.615234" xlink:href="#ArialMT-48"/>
       <use x="111.230469" xlink:href="#ArialMT-48"/>
       <use x="166.845703" xlink:href="#ArialMT-48"/>
      </g>
     </g>
    </g>
    <g id="xtick_7">
     <g id="line2d_7">
      <g>
       <use style="fill:#262626;stroke:#262626;" x="454.587906" xlink:href="#m6482e50a30" y="478.44"/>
      </g>
     </g>
     <g id="text_7">
      <!-- 1500 -->
      <g style="fill:#262626;" transform="translate(436.970856 496.977975)scale(0.1584 -0.1584)">
       <use xlink:href="#ArialMT-49"/>
       <use x="55.615234" xlink:href="#ArialMT-53"/>
       <use x="111.230469" xlink:href="#ArialMT-48"/>
       <use x="166.845703" xlink:href="#ArialMT-48"/>
      </g>
     </g>
    </g>
    <g id="xtick_8">
     <g id="line2d_8">
      <g>
       <use style="fill:#262626;stroke:#262626;" x="514.764376" xlink:href="#m6482e50a30" y="478.44"/>
      </g>
     </g>
     <g id="text_8">
      <!-- 2000 -->
      <g style="fill:#262626;" transform="translate(497.147326 496.977975)scale(0.1584 -0.1584)">
       <use xlink:href="#ArialMT-50"/>
       <use x="55.615234" xlink:href="#ArialMT-48"/>
       <use x="111.230469" xlink:href="#ArialMT-48"/>
       <use x="166.845703" xlink:href="#ArialMT-48"/>
      </g>
     </g>
    </g>
    <g id="xtick_9">
     <g id="line2d_9">
      <g>
       <use style="fill:#262626;stroke:#262626;" x="574.940847" xlink:href="#m6482e50a30" y="478.44"/>
      </g>
     </g>
     <g id="text_9">
      <!-- 3000 -->
      <g style="fill:#262626;" transform="translate(557.323797 496.977975)scale(0.1584 -0.1584)">
       <use xlink:href="#ArialMT-51"/>
       <use x="55.615234" xlink:href="#ArialMT-48"/>
       <use x="111.230469" xlink:href="#ArialMT-48"/>
       <use x="166.845703" xlink:href="#ArialMT-48"/>
      </g>
     </g>
    </g>
    <g id="xtick_10">
     <g id="line2d_10">
      <g>
       <use style="fill:#262626;stroke:#262626;" x="635.117318" xlink:href="#m6482e50a30" y="478.44"/>
      </g>
     </g>
     <g id="text_10">
      <!-- 5000 -->
      <g style="fill:#262626;" transform="translate(617.500268 496.977975)scale(0.1584 -0.1584)">
       <use xlink:href="#ArialMT-53"/>
       <use x="55.615234" xlink:href="#ArialMT-48"/>
       <use x="111.230469" xlink:href="#ArialMT-48"/>
       <use x="166.845703" xlink:href="#ArialMT-48"/>
      </g>
     </g>
    </g>
    <g id="text_11">
     <!-- Number of terms evaluated -->
     <defs>
      <path d="M 7.625 0
L 7.625 71.578125
L 17.328125 71.578125
L 54.9375 15.375
L 54.9375 71.578125
L 64.015625 71.578125
L 64.015625 0
L 54.296875 0
L 16.703125 56.25
L 16.703125 0
z
" id="ArialMT-78"/>
      <path d="M 40.578125 0
L 40.578125 7.625
Q 34.515625 -1.171875 24.125 -1.171875
Q 19.53125 -1.171875 15.546875 0.578125
Q 11.578125 2.34375 9.640625 5
Q 7.71875 7.671875 6.9375 11.53125
Q 6.390625 14.109375 6.390625 19.734375
L 6.390625 51.859375
L 15.1875 51.859375
L 15.1875 23.09375
Q 15.1875 16.21875 15.71875 13.8125
Q 16.546875 10.359375 19.234375 8.375
Q 21.921875 6.390625 25.875 6.390625
Q 29.828125 6.390625 33.296875 8.421875
Q 36.765625 10.453125 38.203125 13.9375
Q 39.65625 17.4375 39.65625 24.078125
L 39.65625 51.859375
L 48.4375 51.859375
L 48.4375 0
z
" id="ArialMT-117"/>
      <path d="M 6.59375 0
L 6.59375 51.859375
L 14.453125 51.859375
L 14.453125 44.578125
Q 16.890625 48.390625 20.9375 50.703125
Q 25 53.03125 30.171875 53.03125
Q 35.9375 53.03125 39.625 50.640625
Q 43.3125 48.25 44.828125 43.953125
Q 50.984375 53.03125 60.84375 53.03125
Q 68.5625 53.03125 72.703125 48.75
Q 76.859375 44.484375 76.859375 35.59375
L 76.859375 0
L 68.109375 0
L 68.109375 32.671875
Q 68.109375 37.9375 67.25 40.25
Q 66.40625 42.578125 64.15625 43.984375
Q 61.921875 45.40625 58.890625 45.40625
Q 53.421875 45.40625 49.796875 41.765625
Q 46.1875 38.140625 46.1875 30.125
L 46.1875 0
L 37.40625 0
L 37.40625 33.6875
Q 37.40625 39.546875 35.25 42.46875
Q 33.109375 45.40625 28.21875 45.40625
Q 24.515625 45.40625 21.359375 43.453125
Q 18.21875 41.5 16.796875 37.734375
Q 15.375 33.984375 15.375 26.90625
L 15.375 0
z
" id="ArialMT-109"/>
      <path d="M 14.703125 0
L 6.546875 0
L 6.546875 71.578125
L 15.328125 71.578125
L 15.328125 46.046875
Q 20.90625 53.03125 29.546875 53.03125
Q 34.328125 53.03125 38.59375 51.09375
Q 42.875 49.171875 45.625 45.671875
Q 48.390625 42.1875 49.953125 37.25
Q 51.515625 32.328125 51.515625 26.703125
Q 51.515625 13.375 44.921875 6.09375
Q 38.328125 -1.171875 29.109375 -1.171875
Q 19.921875 -1.171875 14.703125 6.5
z
M 14.59375 26.3125
Q 14.59375 17 17.140625 12.84375
Q 21.296875 6.0625 28.375 6.0625
Q 34.125 6.0625 38.328125 11.0625
Q 42.53125 16.0625 42.53125 25.984375
Q 42.53125 36.140625 38.5 40.96875
Q 34.46875 45.796875 28.765625 45.796875
Q 23 45.796875 18.796875 40.796875
Q 14.59375 35.796875 14.59375 26.3125
z
" id="ArialMT-98"/>
      <path d="M 42.09375 16.703125
L 51.171875 15.578125
Q 49.03125 7.625 43.21875 3.21875
Q 37.40625 -1.171875 28.375 -1.171875
Q 17 -1.171875 10.328125 5.828125
Q 3.65625 12.84375 3.65625 25.484375
Q 3.65625 38.578125 10.390625 45.796875
Q 17.140625 53.03125 27.875 53.03125
Q 38.28125 53.03125 44.875 45.953125
Q 51.46875 38.875 51.46875 26.03125
Q 51.46875 25.25 51.421875 23.6875
L 12.75 23.6875
Q 13.234375 15.140625 17.578125 10.59375
Q 21.921875 6.0625 28.421875 6.0625
Q 33.25 6.0625 36.671875 8.59375
Q 40.09375 11.140625 42.09375 16.703125
z
M 13.234375 30.90625
L 42.1875 30.90625
Q 41.609375 37.453125 38.875 40.71875
Q 34.671875 45.796875 27.984375 45.796875
Q 21.921875 45.796875 17.796875 41.75
Q 13.671875 37.703125 13.234375 30.90625
z
" id="ArialMT-101"/>
      <path d="M 6.5 0
L 6.5 51.859375
L 14.40625 51.859375
L 14.40625 44
Q 17.4375 49.515625 20 51.265625
Q 22.5625 53.03125 25.640625 53.03125
Q 30.078125 53.03125 34.671875 50.203125
L 31.640625 42.046875
Q 28.421875 43.953125 25.203125 43.953125
Q 22.3125 43.953125 20.015625 42.21875
Q 17.71875 40.484375 16.75 37.40625
Q 15.28125 32.71875 15.28125 27.15625
L 15.28125 0
z
" id="ArialMT-114"/>
      <path id="ArialMT-32"/>
      <path d="M 3.328125 25.921875
Q 3.328125 40.328125 11.328125 47.265625
Q 18.015625 53.03125 27.640625 53.03125
Q 38.328125 53.03125 45.109375 46.015625
Q 51.90625 39.015625 51.90625 26.65625
Q 51.90625 16.65625 48.90625 10.90625
Q 45.90625 5.171875 40.15625 2
Q 34.421875 -1.171875 27.640625 -1.171875
Q 16.75 -1.171875 10.03125 5.8125
Q 3.328125 12.796875 3.328125 25.921875
z
M 12.359375 25.921875
Q 12.359375 15.96875 16.703125 11.015625
Q 21.046875 6.0625 27.640625 6.0625
Q 34.1875 6.0625 38.53125 11.03125
Q 42.875 16.015625 42.875 26.21875
Q 42.875 35.84375 38.5 40.796875
Q 34.125 45.75 27.640625 45.75
Q 21.046875 45.75 16.703125 40.8125
Q 12.359375 35.890625 12.359375 25.921875
z
" id="ArialMT-111"/>
      <path d="M 8.6875 0
L 8.6875 45.015625
L 0.921875 45.015625
L 0.921875 51.859375
L 8.6875 51.859375
L 8.6875 57.375
Q 8.6875 62.59375 9.625 65.140625
Q 10.890625 68.5625 14.078125 70.671875
Q 17.28125 72.796875 23.046875 72.796875
Q 26.765625 72.796875 31.25 71.921875
L 29.9375 64.265625
Q 27.203125 64.75 24.75 64.75
Q 20.75 64.75 19.09375 63.03125
Q 17.4375 61.328125 17.4375 56.640625
L 17.4375 51.859375
L 27.546875 51.859375
L 27.546875 45.015625
L 17.4375 45.015625
L 17.4375 0
z
" id="ArialMT-102"/>
      <path d="M 25.78125 7.859375
L 27.046875 0.09375
Q 23.34375 -0.6875 20.40625 -0.6875
Q 15.625 -0.6875 12.984375 0.828125
Q 10.359375 2.34375 9.28125 4.8125
Q 8.203125 7.28125 8.203125 15.1875
L 8.203125 45.015625
L 1.765625 45.015625
L 1.765625 51.859375
L 8.203125 51.859375
L 8.203125 64.703125
L 16.9375 69.96875
L 16.9375 51.859375
L 25.78125 51.859375
L 25.78125 45.015625
L 16.9375 45.015625
L 16.9375 14.703125
Q 16.9375 10.9375 17.40625 9.859375
Q 17.875 8.796875 18.921875 8.15625
Q 19.96875 7.515625 21.921875 7.515625
Q 23.390625 7.515625 25.78125 7.859375
z
" id="ArialMT-116"/>
      <path d="M 3.078125 15.484375
L 11.765625 16.84375
Q 12.5 11.625 15.84375 8.84375
Q 19.1875 6.0625 25.203125 6.0625
Q 31.25 6.0625 34.171875 8.515625
Q 37.109375 10.984375 37.109375 14.3125
Q 37.109375 17.28125 34.515625 19
Q 32.71875 20.171875 25.53125 21.96875
Q 15.875 24.421875 12.140625 26.203125
Q 8.40625 27.984375 6.46875 31.125
Q 4.546875 34.28125 4.546875 38.09375
Q 4.546875 41.546875 6.125 44.5
Q 7.71875 47.46875 10.453125 49.421875
Q 12.5 50.921875 16.03125 51.96875
Q 19.578125 53.03125 23.640625 53.03125
Q 29.734375 53.03125 34.34375 51.265625
Q 38.96875 49.515625 41.15625 46.5
Q 43.359375 43.5 44.1875 38.484375
L 35.59375 37.3125
Q 35.015625 41.3125 32.203125 43.546875
Q 29.390625 45.796875 24.265625 45.796875
Q 18.21875 45.796875 15.625 43.796875
Q 13.03125 41.796875 13.03125 39.109375
Q 13.03125 37.40625 14.109375 36.03125
Q 15.1875 34.625 17.484375 33.6875
Q 18.796875 33.203125 25.25 31.453125
Q 34.578125 28.953125 38.25 27.359375
Q 41.9375 25.78125 44.03125 22.75
Q 46.140625 19.734375 46.140625 15.234375
Q 46.140625 10.84375 43.578125 6.953125
Q 41.015625 3.078125 36.171875 0.953125
Q 31.34375 -1.171875 25.25 -1.171875
Q 15.140625 -1.171875 9.84375 3.03125
Q 4.546875 7.234375 3.078125 15.484375
z
" id="ArialMT-115"/>
      <path d="M 21 0
L 1.265625 51.859375
L 10.546875 51.859375
L 21.6875 20.796875
Q 23.484375 15.765625 25 10.359375
Q 26.171875 14.453125 28.265625 20.21875
L 39.796875 51.859375
L 48.828125 51.859375
L 29.203125 0
z
" id="ArialMT-118"/>
      <path d="M 40.4375 6.390625
Q 35.546875 2.25 31.03125 0.53125
Q 26.515625 -1.171875 21.34375 -1.171875
Q 12.796875 -1.171875 8.203125 3
Q 3.609375 7.171875 3.609375 13.671875
Q 3.609375 17.484375 5.34375 20.625
Q 7.078125 23.78125 9.890625 25.6875
Q 12.703125 27.59375 16.21875 28.5625
Q 18.796875 29.25 24.03125 29.890625
Q 34.671875 31.15625 39.703125 32.90625
Q 39.75 34.71875 39.75 35.203125
Q 39.75 40.578125 37.25 42.78125
Q 33.890625 45.75 27.25 45.75
Q 21.046875 45.75 18.09375 43.578125
Q 15.140625 41.40625 13.71875 35.890625
L 5.125 37.0625
Q 6.296875 42.578125 8.984375 45.96875
Q 11.671875 49.359375 16.75 51.1875
Q 21.828125 53.03125 28.515625 53.03125
Q 35.15625 53.03125 39.296875 51.46875
Q 43.453125 49.90625 45.40625 47.53125
Q 47.359375 45.171875 48.140625 41.546875
Q 48.578125 39.3125 48.578125 33.453125
L 48.578125 21.734375
Q 48.578125 9.46875 49.140625 6.21875
Q 49.703125 2.984375 51.375 0
L 42.1875 0
Q 40.828125 2.734375 40.4375 6.390625
z
M 39.703125 26.03125
Q 34.90625 24.078125 25.34375 22.703125
Q 19.921875 21.921875 17.671875 20.9375
Q 15.4375 19.96875 14.203125 18.09375
Q 12.984375 16.21875 12.984375 13.921875
Q 12.984375 10.40625 15.640625 8.0625
Q 18.3125 5.71875 23.4375 5.71875
Q 28.515625 5.71875 32.46875 7.9375
Q 36.421875 10.15625 38.28125 14.015625
Q 39.703125 17 39.703125 22.796875
z
" id="ArialMT-97"/>
      <path d="M 6.390625 0
L 6.390625 71.578125
L 15.1875 71.578125
L 15.1875 0
z
" id="ArialMT-108"/>
      <path d="M 40.234375 0
L 40.234375 6.546875
Q 35.296875 -1.171875 25.734375 -1.171875
Q 19.53125 -1.171875 14.328125 2.25
Q 9.125 5.671875 6.265625 11.796875
Q 3.421875 17.921875 3.421875 25.875
Q 3.421875 33.640625 6 39.96875
Q 8.59375 46.296875 13.765625 49.65625
Q 18.953125 53.03125 25.34375 53.03125
Q 30.03125 53.03125 33.6875 51.046875
Q 37.359375 49.078125 39.65625 45.90625
L 39.65625 71.578125
L 48.390625 71.578125
L 48.390625 0
z
M 12.453125 25.875
Q 12.453125 15.921875 16.640625 10.984375
Q 20.84375 6.0625 26.5625 6.0625
Q 32.328125 6.0625 36.34375 10.765625
Q 40.375 15.484375 40.375 25.140625
Q 40.375 35.796875 36.265625 40.765625
Q 32.171875 45.75 26.171875 45.75
Q 20.3125 45.75 16.375 40.96875
Q 12.453125 36.1875 12.453125 25.875
z
" id="ArialMT-100"/>
     </defs>
     <g style="fill:#262626;" transform="translate(250.22345 517.494875)scale(0.1728 -0.1728)">
      <use xlink:href="#ArialMT-78"/>
      <use x="72.216797" xlink:href="#ArialMT-117"/>
      <use x="127.832031" xlink:href="#ArialMT-109"/>
      <use x="211.132812" xlink:href="#ArialMT-98"/>
      <use x="266.748047" xlink:href="#ArialMT-101"/>
      <use x="322.363281" xlink:href="#ArialMT-114"/>
      <use x="355.664062" xlink:href="#ArialMT-32"/>
      <use x="383.447266" xlink:href="#ArialMT-111"/>
      <use x="439.0625" xlink:href="#ArialMT-102"/>
      <use x="466.845703" xlink:href="#ArialMT-32"/>
      <use x="494.628906" xlink:href="#ArialMT-116"/>
      <use x="522.412109" xlink:href="#ArialMT-101"/>
      <use x="578.027344" xlink:href="#ArialMT-114"/>
      <use x="611.328125" xlink:href="#ArialMT-109"/>
      <use x="694.628906" xlink:href="#ArialMT-115"/>
      <use x="744.628906" xlink:href="#ArialMT-32"/>
      <use x="772.412109" xlink:href="#ArialMT-101"/>
      <use x="828.027344" xlink:href="#ArialMT-118"/>
      <use x="878.027344" xlink:href="#ArialMT-97"/>
      <use x="933.642578" xlink:href="#ArialMT-108"/>
      <use x="955.859375" xlink:href="#ArialMT-117"/>
      <use x="1011.474609" xlink:href="#ArialMT-97"/>
      <use x="1067.089844" xlink:href="#ArialMT-116"/>
      <use x="1094.873047" xlink:href="#ArialMT-101"/>
      <use x="1150.488281" xlink:href="#ArialMT-100"/>
     </g>
    </g>
   </g>
   <g id="matplotlib.axis_2">
    <g id="ytick_1">
     <g id="line2d_11">
      <defs>
       <path d="M 0 0
L -4.8 0
" id="mf90b32b817" style="stroke:#262626;"/>
      </defs>
      <g>
       <use style="fill:#262626;stroke:#262626;" x="57.4232" xlink:href="#mf90b32b817" y="461.521376"/>
      </g>
     </g>
     <g id="text_12">
      <!-- 0 -->
      <g style="fill:#262626;" transform="translate(41.414675 467.190364)scale(0.1584 -0.1584)">
       <use xlink:href="#ArialMT-48"/>
      </g>
     </g>
    </g>
    <g id="ytick_2">
     <g id="line2d_12">
      <g>
       <use style="fill:#262626;stroke:#262626;" x="57.4232" xlink:href="#mf90b32b817" y="365.460736"/>
      </g>
     </g>
     <g id="text_13">
      <!-- 0.5 -->
      <defs>
       <path d="M 9.078125 0
L 9.078125 10.015625
L 19.09375 10.015625
L 19.09375 0
z
" id="ArialMT-46"/>
      </defs>
      <g style="fill:#262626;" transform="translate(28.2056 371.129724)scale(0.1584 -0.1584)">
       <use xlink:href="#ArialMT-48"/>
       <use x="55.615234" xlink:href="#ArialMT-46"/>
       <use x="83.398438" xlink:href="#ArialMT-53"/>
      </g>
     </g>
    </g>
    <g id="ytick_3">
     <g id="line2d_13">
      <g>
       <use style="fill:#262626;stroke:#262626;" x="57.4232" xlink:href="#mf90b32b817" y="269.400097"/>
      </g>
     </g>
     <g id="text_14">
      <!-- 1 -->
      <g style="fill:#262626;" transform="translate(41.414675 275.069084)scale(0.1584 -0.1584)">
       <use xlink:href="#ArialMT-49"/>
      </g>
     </g>
    </g>
    <g id="ytick_4">
     <g id="line2d_14">
      <g>
       <use style="fill:#262626;stroke:#262626;" x="57.4232" xlink:href="#mf90b32b817" y="173.339457"/>
      </g>
     </g>
     <g id="text_15">
      <!-- 1.5 -->
      <g style="fill:#262626;" transform="translate(28.2056 179.008445)scale(0.1584 -0.1584)">
       <use xlink:href="#ArialMT-49"/>
       <use x="55.615234" xlink:href="#ArialMT-46"/>
       <use x="83.398438" xlink:href="#ArialMT-53"/>
      </g>
     </g>
    </g>
    <g id="ytick_5">
     <g id="line2d_15">
      <g>
       <use style="fill:#262626;stroke:#262626;" x="57.4232" xlink:href="#mf90b32b817" y="77.278817"/>
      </g>
     </g>
     <g id="text_16">
      <!-- 2 -->
      <g style="fill:#262626;" transform="translate(41.414675 82.947805)scale(0.1584 -0.1584)">
       <use xlink:href="#ArialMT-50"/>
      </g>
     </g>
    </g>
    <g id="ytick_6">
     <g id="line2d_16">
      <defs>
       <path d="M 0 0
L -3.2 0
" id="m178f9acb07" style="stroke:#262626;stroke-width:0.8;"/>
      </defs>
      <g>
       <use style="fill:#262626;stroke:#262626;stroke-width:0.8;" x="57.4232" xlink:href="#m178f9acb07" y="413.491056"/>
      </g>
     </g>
    </g>
    <g id="ytick_7">
     <g id="line2d_17">
      <g>
       <use style="fill:#262626;stroke:#262626;stroke-width:0.8;" x="57.4232" xlink:href="#m178f9acb07" y="317.430417"/>
      </g>
     </g>
    </g>
    <g id="ytick_8">
     <g id="line2d_18">
      <g>
       <use style="fill:#262626;stroke:#262626;stroke-width:0.8;" x="57.4232" xlink:href="#m178f9acb07" y="221.369777"/>
      </g>
     </g>
    </g>
    <g id="ytick_9">
     <g id="line2d_19">
      <g>
       <use style="fill:#262626;stroke:#262626;stroke-width:0.8;" x="57.4232" xlink:href="#m178f9acb07" y="125.309137"/>
      </g>
     </g>
    </g>
    <g id="ytick_10">
     <g id="line2d_20">
      <g>
       <use style="fill:#262626;stroke:#262626;stroke-width:0.8;" x="57.4232" xlink:href="#m178f9acb07" y="29.248498"/>
      </g>
     </g>
    </g>
    <g id="text_17">
     <!-- Kullback–Leibler Divergence -->
     <defs>
      <path d="M 7.328125 0
L 7.328125 71.578125
L 16.796875 71.578125
L 16.796875 36.078125
L 52.34375 71.578125
L 65.1875 71.578125
L 35.15625 42.578125
L 66.5 0
L 54 0
L 28.515625 36.234375
L 16.796875 24.8125
L 16.796875 0
z
" id="ArialMT-75"/>
      <path d="M 40.4375 19
L 49.078125 17.875
Q 47.65625 8.9375 41.8125 3.875
Q 35.984375 -1.171875 27.484375 -1.171875
Q 16.84375 -1.171875 10.375 5.78125
Q 3.90625 12.75 3.90625 25.734375
Q 3.90625 34.125 6.6875 40.421875
Q 9.46875 46.734375 15.15625 49.875
Q 20.84375 53.03125 27.546875 53.03125
Q 35.984375 53.03125 41.359375 48.75
Q 46.734375 44.484375 48.25 36.625
L 39.703125 35.296875
Q 38.484375 40.53125 35.375 43.15625
Q 32.28125 45.796875 27.875 45.796875
Q 21.234375 45.796875 17.078125 41.03125
Q 12.9375 36.28125 12.9375 25.984375
Q 12.9375 15.53125 16.9375 10.796875
Q 20.953125 6.0625 27.390625 6.0625
Q 32.5625 6.0625 36.03125 9.234375
Q 39.5 12.40625 40.4375 19
z
" id="ArialMT-99"/>
      <path d="M 6.640625 0
L 6.640625 71.578125
L 15.4375 71.578125
L 15.4375 30.765625
L 36.234375 51.859375
L 47.609375 51.859375
L 27.78125 32.625
L 49.609375 0
L 38.765625 0
L 21.625 26.515625
L 15.4375 20.5625
L 15.4375 0
z
" id="ArialMT-107"/>
      <path d="M -0.203125 22.359375
L -0.203125 29.4375
L 55.421875 29.4375
L 55.421875 22.359375
z
" id="ArialMT-8211"/>
      <path d="M 7.328125 0
L 7.328125 71.578125
L 16.796875 71.578125
L 16.796875 8.453125
L 52.046875 8.453125
L 52.046875 0
z
" id="ArialMT-76"/>
      <path d="M 6.640625 61.46875
L 6.640625 71.578125
L 15.4375 71.578125
L 15.4375 61.46875
z
M 6.640625 0
L 6.640625 51.859375
L 15.4375 51.859375
L 15.4375 0
z
" id="ArialMT-105"/>
      <path d="M 7.71875 0
L 7.71875 71.578125
L 32.375 71.578125
Q 40.71875 71.578125 45.125 70.5625
Q 51.265625 69.140625 55.609375 65.4375
Q 61.28125 60.640625 64.078125 53.1875
Q 66.890625 45.75 66.890625 36.1875
Q 66.890625 28.03125 64.984375 21.734375
Q 63.09375 15.4375 60.109375 11.296875
Q 57.125 7.171875 53.578125 4.796875
Q 50.046875 2.4375 45.046875 1.21875
Q 40.046875 0 33.546875 0
z
M 17.1875 8.453125
L 32.46875 8.453125
Q 39.546875 8.453125 43.578125 9.765625
Q 47.609375 11.078125 50 13.484375
Q 53.375 16.84375 55.25 22.53125
Q 57.125 28.21875 57.125 36.328125
Q 57.125 47.5625 53.4375 53.59375
Q 49.75 59.625 44.484375 61.671875
Q 40.671875 63.140625 32.234375 63.140625
L 17.1875 63.140625
z
" id="ArialMT-68"/>
      <path d="M 4.984375 -4.296875
L 13.53125 -5.5625
Q 14.0625 -9.515625 16.5 -11.328125
Q 19.78125 -13.765625 25.4375 -13.765625
Q 31.546875 -13.765625 34.859375 -11.328125
Q 38.1875 -8.890625 39.359375 -4.5
Q 40.046875 -1.8125 39.984375 6.78125
Q 34.234375 0 25.640625 0
Q 14.9375 0 9.078125 7.71875
Q 3.21875 15.4375 3.21875 26.21875
Q 3.21875 33.640625 5.90625 39.90625
Q 8.59375 46.1875 13.6875 49.609375
Q 18.796875 53.03125 25.6875 53.03125
Q 34.859375 53.03125 40.828125 45.609375
L 40.828125 51.859375
L 48.921875 51.859375
L 48.921875 7.03125
Q 48.921875 -5.078125 46.453125 -10.125
Q 44 -15.1875 38.640625 -18.109375
Q 33.296875 -21.046875 25.484375 -21.046875
Q 16.21875 -21.046875 10.5 -16.875
Q 4.78125 -12.703125 4.984375 -4.296875
z
M 12.25 26.859375
Q 12.25 16.65625 16.296875 11.96875
Q 20.359375 7.28125 26.46875 7.28125
Q 32.515625 7.28125 36.609375 11.9375
Q 40.71875 16.609375 40.71875 26.5625
Q 40.71875 36.078125 36.5 40.90625
Q 32.28125 45.75 26.3125 45.75
Q 20.453125 45.75 16.34375 40.984375
Q 12.25 36.234375 12.25 26.859375
z
" id="ArialMT-103"/>
      <path d="M 6.59375 0
L 6.59375 51.859375
L 14.5 51.859375
L 14.5 44.484375
Q 20.21875 53.03125 31 53.03125
Q 35.6875 53.03125 39.625 51.34375
Q 43.5625 49.65625 45.515625 46.921875
Q 47.46875 44.1875 48.25 40.4375
Q 48.734375 37.984375 48.734375 31.890625
L 48.734375 0
L 39.9375 0
L 39.9375 31.546875
Q 39.9375 36.921875 38.90625 39.578125
Q 37.890625 42.234375 35.28125 43.8125
Q 32.671875 45.40625 29.15625 45.40625
Q 23.53125 45.40625 19.453125 41.84375
Q 15.375 38.28125 15.375 28.328125
L 15.375 0
z
" id="ArialMT-110"/>
     </defs>
     <g style="fill:#262626;" transform="translate(19.5687 349.2558)rotate(-90)scale(0.1728 -0.1728)">
      <use xlink:href="#ArialMT-75"/>
      <use x="66.699219" xlink:href="#ArialMT-117"/>
      <use x="122.314453" xlink:href="#ArialMT-108"/>
      <use x="144.53125" xlink:href="#ArialMT-108"/>
      <use x="166.748047" xlink:href="#ArialMT-98"/>
      <use x="222.363281" xlink:href="#ArialMT-97"/>
      <use x="277.978516" xlink:href="#ArialMT-99"/>
      <use x="327.978516" xlink:href="#ArialMT-107"/>
      <use x="377.978516" xlink:href="#ArialMT-8211"/>
      <use x="433.59375" xlink:href="#ArialMT-76"/>
      <use x="489.208984" xlink:href="#ArialMT-101"/>
      <use x="544.824219" xlink:href="#ArialMT-105"/>
      <use x="567.041016" xlink:href="#ArialMT-98"/>
      <use x="622.65625" xlink:href="#ArialMT-108"/>
      <use x="644.873047" xlink:href="#ArialMT-101"/>
      <use x="700.488281" xlink:href="#ArialMT-114"/>
      <use x="733.789062" xlink:href="#ArialMT-32"/>
      <use x="761.572266" xlink:href="#ArialMT-68"/>
      <use x="833.789062" xlink:href="#ArialMT-105"/>
      <use x="856.005859" xlink:href="#ArialMT-118"/>
      <use x="906.005859" xlink:href="#ArialMT-101"/>
      <use x="961.621094" xlink:href="#ArialMT-114"/>
      <use x="994.921875" xlink:href="#ArialMT-103"/>
      <use x="1050.537109" xlink:href="#ArialMT-101"/>
      <use x="1106.152344" xlink:href="#ArialMT-110"/>
      <use x="1161.767578" xlink:href="#ArialMT-99"/>
      <use x="1211.767578" xlink:href="#ArialMT-101"/>
     </g>
    </g>
   </g>
   <g id="PathCollection_1">
    <path clip-path="url(#pf87bd023c8)" d="M 93.529082 459.235567
C 94.116658 459.235567 94.680247 459.002121 95.095725 458.586643
C 95.511204 458.171164 95.74465 457.607575 95.74465 457.02
C 95.74465 456.432425 95.511204 455.868836 95.095725 455.453357
C 94.680247 455.037879 94.116658 454.804433 93.529082 454.804433
C 92.941507 454.804433 92.377918 455.037879 91.96244 455.453357
C 91.546961 455.868836 91.313515 456.432425 91.313515 457.02
C 91.313515 457.607575 91.546961 458.171164 91.96244 458.586643
C 92.377918 459.002121 92.941507 459.235567 93.529082 459.235567
z
" style="fill:#a6cee3;stroke:#a6cee3;stroke-width:0.886227;"/>
    <path clip-path="url(#pf87bd023c8)" d="M 93.529082 372.760285
C 94.116658 372.760285 94.680247 372.526839 95.095725 372.11136
C 95.511204 371.695882 95.74465 371.132293 95.74465 370.544717
C 95.74465 369.957142 95.511204 369.393553 95.095725 368.978075
C 94.680247 368.562596 94.116658 368.32915 93.529082 368.32915
C 92.941507 368.32915 92.377918 368.562596 91.96244 368.978075
C 91.546961 369.393553 91.313515 369.957142 91.313515 370.544717
C 91.313515 371.132293 91.546961 371.695882 91.96244 372.11136
C 92.377918 372.526839 92.941507 372.760285 93.529082 372.760285
z
" style="fill:#1f78b4;stroke:#1f78b4;stroke-width:0.886227;"/>
    <path clip-path="url(#pf87bd023c8)" d="M 93.529082 407.212869
C 94.116658 407.212869 94.680247 406.979423 95.095725 406.563944
C 95.511204 406.148466 95.74465 405.584877 95.74465 404.997302
C 95.74465 404.409726 95.511204 403.846138 95.095725 403.430659
C 94.680247 403.015181 94.116658 402.781734 93.529082 402.781734
C 92.941507 402.781734 92.377918 403.015181 91.96244 403.430659
C 91.546961 403.846138 91.313515 404.409726 91.313515 404.997302
C 91.313515 405.584877 91.546961 406.148466 91.96244 406.563944
C 92.377918 406.979423 92.941507 407.212869 93.529082 407.212869
z
" style="fill:#b2df8a;stroke:#b2df8a;stroke-width:0.886227;"/>
    <path clip-path="url(#pf87bd023c8)" d="M 153.705553 456.526992
C 154.293128 456.526992 154.856717 456.293546 155.272196 455.878067
C 155.687674 455.462589 155.92112 454.899 155.92112 454.311425
C 155.92112 453.723849 155.687674 453.16026 155.272196 452.744782
C 154.856717 452.329303 154.293128 452.095857 153.705553 452.095857
C 153.117978 452.095857 152.554389 452.329303 152.13891 452.744782
C 151.723432 453.16026 151.489986 453.723849 151.489986 454.311425
C 151.489986 454.899 151.723432 455.462589 152.13891 455.878067
C 152.554389 456.293546 153.117978 456.526992 153.705553 456.526992
z
" style="fill:#a6cee3;stroke:#a6cee3;stroke-width:0.886227;"/>
    <path clip-path="url(#pf87bd023c8)" d="M 153.705553 340.949233
C 154.293128 340.949233 154.856717 340.715787 155.272196 340.300308
C 155.687674 339.88483 155.92112 339.321241 155.92112 338.733666
C 155.92112 338.14609 155.687674 337.582502 155.272196 337.167023
C 154.856717 336.751545 154.293128 336.518098 153.705553 336.518098
C 153.117978 336.518098 152.554389 336.751545 152.13891 337.167023
C 151.723432 337.582502 151.489986 338.14609 151.489986 338.733666
C 151.489986 339.321241 151.723432 339.88483 152.13891 340.300308
C 152.554389 340.715787 153.117978 340.949233 153.705553 340.949233
z
" style="fill:#1f78b4;stroke:#1f78b4;stroke-width:0.886227;"/>
    <path clip-path="url(#pf87bd023c8)" d="M 153.705553 375.526926
C 154.293128 375.526926 154.856717 375.29348 155.272196 374.878001
C 155.687674 374.462523 155.92112 373.898934 155.92112 373.311359
C 155.92112 372.723783 155.687674 372.160195 155.272196 371.744716
C 154.856717 371.329238 154.293128 371.095791 153.705553 371.095791
C 153.117978 371.095791 152.554389 371.329238 152.13891 371.744716
C 151.723432 372.160195 151.489986 372.723783 151.489986 373.311359
C 151.489986 373.898934 151.723432 374.462523 152.13891 374.878001
C 152.554389 375.29348 153.117978 375.526926 153.705553 375.526926
z
" style="fill:#b2df8a;stroke:#b2df8a;stroke-width:0.886227;"/>
    <path clip-path="url(#pf87bd023c8)" d="M 213.882024 454.635193
C 214.469599 454.635193 215.033188 454.401747 215.448666 453.986268
C 215.864145 453.57079 216.097591 453.007201 216.097591 452.419626
C 216.097591 451.83205 215.864145 451.268461 215.448666 450.852983
C 215.033188 450.437504 214.469599 450.204058 213.882024 450.204058
C 213.294448 450.204058 212.730859 450.437504 212.315381 450.852983
C 211.899902 451.268461 211.666456 451.83205 211.666456 452.419626
C 211.666456 453.007201 211.899902 453.57079 212.315381 453.986268
C 212.730859 454.401747 213.294448 454.635193 213.882024 454.635193
z
" style="fill:#a6cee3;stroke:#a6cee3;stroke-width:0.886227;"/>
    <path clip-path="url(#pf87bd023c8)" d="M 213.882024 315.104267
C 214.469599 315.104267 215.033188 314.870821 215.448666 314.455343
C 215.864145 314.039864 216.097591 313.476275 216.097591 312.8887
C 216.097591 312.301125 215.864145 311.737536 215.448666 311.322057
C 215.033188 310.906579 214.469599 310.673133 213.882024 310.673133
C 213.294448 310.673133 212.730859 310.906579 212.315381 311.322057
C 211.899902 311.737536 211.666456 312.301125 211.666456 312.8887
C 211.666456 313.476275 211.899902 314.039864 212.315381 314.455343
C 212.730859 314.870821 213.294448 315.104267 213.882024 315.104267
z
" style="fill:#1f78b4;stroke:#1f78b4;stroke-width:0.886227;"/>
    <path clip-path="url(#pf87bd023c8)" d="M 213.882024 359.608798
C 214.469599 359.608798 215.033188 359.375352 215.448666 358.959873
C 215.864145 358.544395 216.097591 357.980806 216.097591 357.393231
C 216.097591 356.805655 215.864145 356.242067 215.448666 355.826588
C 215.033188 355.41111 214.469599 355.177663 213.882024 355.177663
C 213.294448 355.177663 212.730859 355.41111 212.315381 355.826588
C 211.899902 356.242067 211.666456 356.805655 211.666456 357.393231
C 211.666456 357.980806 211.899902 358.544395 212.315381 358.959873
C 212.730859 359.375352 213.294448 359.608798 213.882024 359.608798
z
" style="fill:#b2df8a;stroke:#b2df8a;stroke-width:0.886227;"/>
    <path clip-path="url(#pf87bd023c8)" d="M 274.058494 429.538453
C 274.646069 429.538453 275.209658 429.305007 275.625137 428.889529
C 276.040615 428.47405 276.274061 427.910461 276.274061 427.322886
C 276.274061 426.735311 276.040615 426.171722 275.625137 425.756243
C 275.209658 425.340765 274.646069 425.107319 274.058494 425.107319
C 273.470919 425.107319 272.90733 425.340765 272.491851 425.756243
C 272.076373 426.171722 271.842927 426.735311 271.842927 427.322886
C 271.842927 427.910461 272.076373 428.47405 272.491851 428.889529
C 272.90733 429.305007 273.470919 429.538453 274.058494 429.538453
z
" style="fill:#a6cee3;stroke:#a6cee3;stroke-width:0.886227;"/>
    <path clip-path="url(#pf87bd023c8)" d="M 274.058494 294.235478
C 274.646069 294.235478 275.209658 294.002032 275.625137 293.586553
C 276.040615 293.171075 276.274061 292.607486 276.274061 292.01991
C 276.274061 291.432335 276.040615 290.868746 275.625137 290.453268
C 275.209658 290.037789 274.646069 289.804343 274.058494 289.804343
C 273.470919 289.804343 272.90733 290.037789 272.491851 290.453268
C 272.076373 290.868746 271.842927 291.432335 271.842927 292.01991
C 271.842927 292.607486 272.076373 293.171075 272.491851 293.586553
C 272.90733 294.002032 273.470919 294.235478 274.058494 294.235478
z
" style="fill:#1f78b4;stroke:#1f78b4;stroke-width:0.886227;"/>
    <path clip-path="url(#pf87bd023c8)" d="M 274.058494 341.872748
C 274.646069 341.872748 275.209658 341.639302 275.625137 341.223823
C 276.040615 340.808345 276.274061 340.244756 276.274061 339.65718
C 276.274061 339.069605 276.040615 338.506016 275.625137 338.090538
C 275.209658 337.675059 274.646069 337.441613 274.058494 337.441613
C 273.470919 337.441613 272.90733 337.675059 272.491851 338.090538
C 272.076373 338.506016 271.842927 339.069605 271.842927 339.65718
C 271.842927 340.244756 272.076373 340.808345 272.491851 341.223823
C 272.90733 341.639302 273.470919 341.872748 274.058494 341.872748
z
" style="fill:#b2df8a;stroke:#b2df8a;stroke-width:0.886227;"/>
    <path clip-path="url(#pf87bd023c8)" d="M 334.234965 421.984741
C 334.82254 421.984741 335.386129 421.751295 335.801607 421.335817
C 336.217086 420.920338 336.450532 420.356749 336.450532 419.769174
C 336.450532 419.181599 336.217086 418.61801 335.801607 418.202531
C 335.386129 417.787053 334.82254 417.553607 334.234965 417.553607
C 333.647389 417.553607 333.083801 417.787053 332.668322 418.202531
C 332.252844 418.61801 332.019397 419.181599 332.019397 419.769174
C 332.019397 420.356749 332.252844 420.920338 332.668322 421.335817
C 333.083801 421.751295 333.647389 421.984741 334.234965 421.984741
z
" style="fill:#a6cee3;stroke:#a6cee3;stroke-width:0.886227;"/>
    <path clip-path="url(#pf87bd023c8)" d="M 334.234965 276.612818
C 334.82254 276.612818 335.386129 276.379371 335.801607 275.963893
C 336.217086 275.548415 336.450532 274.984826 336.450532 274.39725
C 336.450532 273.809675 336.217086 273.246086 335.801607 272.830608
C 335.386129 272.415129 334.82254 272.181683 334.234965 272.181683
C 333.647389 272.181683 333.083801 272.415129 332.668322 272.830608
C 332.252844 273.246086 332.019397 273.809675 332.019397 274.39725
C 332.019397 274.984826 332.252844 275.548415 332.668322 275.963893
C 333.083801 276.379371 333.647389 276.612818 334.234965 276.612818
z
" style="fill:#1f78b4;stroke:#1f78b4;stroke-width:0.886227;"/>
    <path clip-path="url(#pf87bd023c8)" d="M 334.234965 329.272121
C 334.82254 329.272121 335.386129 329.038674 335.801607 328.623196
C 336.217086 328.207717 336.450532 327.644129 336.450532 327.056553
C 336.450532 326.468978 336.217086 325.905389 335.801607 325.489911
C 335.386129 325.074432 334.82254 324.840986 334.234965 324.840986
C 333.647389 324.840986 333.083801 325.074432 332.668322 325.489911
C 332.252844 325.905389 332.019397 326.468978 332.019397 327.056553
C 332.019397 327.644129 332.252844 328.207717 332.668322 328.623196
C 333.083801 329.038674 333.647389 329.272121 334.234965 329.272121
z
" style="fill:#b2df8a;stroke:#b2df8a;stroke-width:0.886227;"/>
    <path clip-path="url(#pf87bd023c8)" d="M 394.411435 392.744446
C 394.999011 392.744446 395.562599 392.511 395.978078 392.095522
C 396.393556 391.680043 396.627003 391.116454 396.627003 390.528879
C 396.627003 389.941304 396.393556 389.377715 395.978078 388.962236
C 395.562599 388.546758 394.999011 388.313312 394.411435 388.313312
C 393.82386 388.313312 393.260271 388.546758 392.844793 388.962236
C 392.429314 389.377715 392.195868 389.941304 392.195868 390.528879
C 392.195868 391.116454 392.429314 391.680043 392.844793 392.095522
C 393.260271 392.511 393.82386 392.744446 394.411435 392.744446
z
" style="fill:#a6cee3;stroke:#a6cee3;stroke-width:0.886227;"/>
    <path clip-path="url(#pf87bd023c8)" d="M 394.411435 238.441171
C 394.999011 238.441171 395.562599 238.207725 395.978078 237.792246
C 396.393556 237.376768 396.627003 236.813179 396.627003 236.225603
C 396.627003 235.638028 396.393556 235.074439 395.978078 234.658961
C 395.562599 234.243482 394.999011 234.010036 394.411435 234.010036
C 393.82386 234.010036 393.260271 234.243482 392.844793 234.658961
C 392.429314 235.074439 392.195868 235.638028 392.195868 236.225603
C 392.195868 236.813179 392.429314 237.376768 392.844793 237.792246
C 393.260271 238.207725 393.82386 238.441171 394.411435 238.441171
z
" style="fill:#1f78b4;stroke:#1f78b4;stroke-width:0.886227;"/>
    <path clip-path="url(#pf87bd023c8)" d="M 394.411435 284.733813
C 394.999011 284.733813 395.562599 284.500367 395.978078 284.084889
C 396.393556 283.66941 396.627003 283.105821 396.627003 282.518246
C 396.627003 281.930671 396.393556 281.367082 395.978078 280.951603
C 395.562599 280.536125 394.999011 280.302679 394.411435 280.302679
C 393.82386 280.302679 393.260271 280.536125 392.844793 280.951603
C 392.429314 281.367082 392.195868 281.930671 392.195868 282.518246
C 392.195868 283.105821 392.429314 283.66941 392.844793 284.084889
C 393.260271 284.500367 393.82386 284.733813 394.411435 284.733813
z
" style="fill:#b2df8a;stroke:#b2df8a;stroke-width:0.886227;"/>
    <path clip-path="url(#pf87bd023c8)" d="M 454.587906 376.693041
C 455.175481 376.693041 455.73907 376.459595 456.154549 376.044116
C 456.570027 375.628638 456.803473 375.065049 456.803473 374.477474
C 456.803473 373.889898 456.570027 373.326309 456.154549 372.910831
C 455.73907 372.495352 455.175481 372.261906 454.587906 372.261906
C 454.000331 372.261906 453.436742 372.495352 453.021263 372.910831
C 452.605785 373.326309 452.372339 373.889898 452.372339 374.477474
C 452.372339 375.065049 452.605785 375.628638 453.021263 376.044116
C 453.436742 376.459595 454.000331 376.693041 454.587906 376.693041
z
" style="fill:#a6cee3;stroke:#a6cee3;stroke-width:0.886227;"/>
    <path clip-path="url(#pf87bd023c8)" d="M 454.587906 178.911956
C 455.175481 178.911956 455.73907 178.67851 456.154549 178.263031
C 456.570027 177.847553 456.803473 177.283964 456.803473 176.696388
C 456.803473 176.108813 456.570027 175.545224 456.154549 175.129746
C 455.73907 174.714267 455.175481 174.480821 454.587906 174.480821
C 454.000331 174.480821 453.436742 174.714267 453.021263 175.129746
C 452.605785 175.545224 452.372339 176.108813 452.372339 176.696388
C 452.372339 177.283964 452.605785 177.847553 453.021263 178.263031
C 453.436742 178.67851 454.000331 178.911956 454.587906 178.911956
z
" style="fill:#1f78b4;stroke:#1f78b4;stroke-width:0.886227;"/>
    <path clip-path="url(#pf87bd023c8)" d="M 454.587906 240.905652
C 455.175481 240.905652 455.73907 240.672206 456.154549 240.256728
C 456.570027 239.841249 456.803473 239.27766 456.803473 238.690085
C 456.803473 238.10251 456.570027 237.538921 456.154549 237.123442
C 455.73907 236.707964 455.175481 236.474518 454.587906 236.474518
C 454.000331 236.474518 453.436742 236.707964 453.021263 237.123442
C 452.605785 237.538921 452.372339 238.10251 452.372339 238.690085
C 452.372339 239.27766 452.605785 239.841249 453.021263 240.256728
C 453.436742 240.672206 454.000331 240.905652 454.587906 240.905652
z
" style="fill:#b2df8a;stroke:#b2df8a;stroke-width:0.886227;"/>
    <path clip-path="url(#pf87bd023c8)" d="M 514.764376 350.483217
C 515.351952 350.483217 515.915541 350.249771 516.331019 349.834292
C 516.746498 349.418814 516.979944 348.855225 516.979944 348.26765
C 516.979944 347.680074 516.746498 347.116485 516.331019 346.701007
C 515.915541 346.285528 515.351952 346.052082 514.764376 346.052082
C 514.176801 346.052082 513.613212 346.285528 513.197734 346.701007
C 512.782255 347.116485 512.548809 347.680074 512.548809 348.26765
C 512.548809 348.855225 512.782255 349.418814 513.197734 349.834292
C 513.613212 350.249771 514.176801 350.483217 514.764376 350.483217
z
" style="fill:#a6cee3;stroke:#a6cee3;stroke-width:0.886227;"/>
    <path clip-path="url(#pf87bd023c8)" d="M 514.764376 152.048126
C 515.351952 152.048126 515.915541 151.81468 516.331019 151.399201
C 516.746498 150.983723 516.979944 150.420134 516.979944 149.832559
C 516.979944 149.244983 516.746498 148.681394 516.331019 148.265916
C 515.915541 147.850438 515.351952 147.616991 514.764376 147.616991
C 514.176801 147.616991 513.613212 147.850438 513.197734 148.265916
C 512.782255 148.681394 512.548809 149.244983 512.548809 149.832559
C 512.548809 150.420134 512.782255 150.983723 513.197734 151.399201
C 513.613212 151.81468 514.176801 152.048126 514.764376 152.048126
z
" style="fill:#1f78b4;stroke:#1f78b4;stroke-width:0.886227;"/>
    <path clip-path="url(#pf87bd023c8)" d="M 514.764376 203.611553
C 515.351952 203.611553 515.915541 203.378106 516.331019 202.962628
C 516.746498 202.547149 516.979944 201.983561 516.979944 201.395985
C 516.979944 200.80841 516.746498 200.244821 516.331019 199.829343
C 515.915541 199.413864 515.351952 199.180418 514.764376 199.180418
C 514.176801 199.180418 513.613212 199.413864 513.197734 199.829343
C 512.782255 200.244821 512.548809 200.80841 512.548809 201.395985
C 512.548809 201.983561 512.782255 202.547149 513.197734 202.962628
C 513.613212 203.378106 514.176801 203.611553 514.764376 203.611553
z
" style="fill:#b2df8a;stroke:#b2df8a;stroke-width:0.886227;"/>
    <path clip-path="url(#pf87bd023c8)" d="M 574.940847 311.807233
C 575.528422 311.807233 576.092011 311.573787 576.50749 311.158308
C 576.922968 310.74283 577.156414 310.179241 577.156414 309.591666
C 577.156414 309.00409 576.922968 308.440502 576.50749 308.025023
C 576.092011 307.609545 575.528422 307.376098 574.940847 307.376098
C 574.353272 307.376098 573.789683 307.609545 573.374204 308.025023
C 572.958726 308.440502 572.72528 309.00409 572.72528 309.591666
C 572.72528 310.179241 572.958726 310.74283 573.374204 311.158308
C 573.789683 311.573787 574.353272 311.807233 574.940847 311.807233
z
" style="fill:#a6cee3;stroke:#a6cee3;stroke-width:0.886227;"/>
    <path clip-path="url(#pf87bd023c8)" d="M 574.940847 90.920807
C 575.528422 90.920807 576.092011 90.687361 576.50749 90.271882
C 576.922968 89.856404 577.156414 89.292815 577.156414 88.70524
C 577.156414 88.117664 576.922968 87.554076 576.50749 87.138597
C 576.092011 86.723119 575.528422 86.489672 574.940847 86.489672
C 574.353272 86.489672 573.789683 86.723119 573.374204 87.138597
C 572.958726 87.554076 572.72528 88.117664 572.72528 88.70524
C 572.72528 89.292815 572.958726 89.856404 573.374204 90.271882
C 573.789683 90.687361 574.353272 90.920807 574.940847 90.920807
z
" style="fill:#1f78b4;stroke:#1f78b4;stroke-width:0.886227;"/>
    <path clip-path="url(#pf87bd023c8)" d="M 574.940847 161.983372
C 575.528422 161.983372 576.092011 161.749926 576.50749 161.334447
C 576.922968 160.918969 577.156414 160.35538 577.156414 159.767805
C 577.156414 159.180229 576.922968 158.61664 576.50749 158.201162
C 576.092011 157.785683 575.528422 157.552237 574.940847 157.552237
C 574.353272 157.552237 573.789683 157.785683 573.374204 158.201162
C 572.958726 158.61664 572.72528 159.180229 572.72528 159.767805
C 572.72528 160.35538 572.958726 160.918969 573.374204 161.334447
C 573.789683 161.749926 574.353272 161.983372 574.940847 161.983372
z
" style="fill:#b2df8a;stroke:#b2df8a;stroke-width:0.886227;"/>
    <path clip-path="url(#pf87bd023c8)" d="M 635.117318 253.57599
C 635.704893 253.57599 636.268482 253.342543 636.68396 252.927065
C 637.099439 252.511586 637.332885 251.947998 637.332885 251.360422
C 637.332885 250.772847 637.099439 250.209258 636.68396 249.79378
C 636.268482 249.378301 635.704893 249.144855 635.117318 249.144855
C 634.529742 249.144855 633.966153 249.378301 633.550675 249.79378
C 633.135196 250.209258 632.90175 250.772847 632.90175 251.360422
C 632.90175 251.947998 633.135196 252.511586 633.550675 252.927065
C 633.966153 253.342543 634.529742 253.57599 635.117318 253.57599
z
" style="fill:#a6cee3;stroke:#a6cee3;stroke-width:0.886227;"/>
    <path clip-path="url(#pf87bd023c8)" d="M 635.117318 30.835567
C 635.704893 30.835567 636.268482 30.602121 636.68396 30.186643
C 637.099439 29.771164 637.332885 29.207575 637.332885 28.62
C 637.332885 28.032425 637.099439 27.468836 636.68396 27.053357
C 636.268482 26.637879 635.704893 26.404433 635.117318 26.404433
C 634.529742 26.404433 633.966153 26.637879 633.550675 27.053357
C 633.135196 27.468836 632.90175 28.032425 632.90175 28.62
C 632.90175 29.207575 633.135196 29.771164 633.550675 30.186643
C 633.966153 30.602121 634.529742 30.835567 635.117318 30.835567
z
" style="fill:#1f78b4;stroke:#1f78b4;stroke-width:0.886227;"/>
    <path clip-path="url(#pf87bd023c8)" d="M 635.117318 63.443327
C 635.704893 63.443327 636.268482 63.20988 636.68396 62.794402
C 637.099439 62.378923 637.332885 61.815335 637.332885 61.227759
C 637.332885 60.640184 637.099439 60.076595 636.68396 59.661117
C 636.268482 59.245638 635.704893 59.012192 635.117318 59.012192
C 634.529742 59.012192 633.966153 59.245638 633.550675 59.661117
C 633.135196 60.076595 632.90175 60.640184 632.90175 61.227759
C 632.90175 61.815335 633.135196 62.378923 633.550675 62.794402
C 633.966153 63.20988 634.529742 63.443327 635.117318 63.443327
z
" style="fill:#b2df8a;stroke:#b2df8a;stroke-width:0.886227;"/>
   </g>
   <g id="line2d_21">
    <path clip-path="url(#pf87bd023c8)" d="M 93.529082 404.997302
L 153.705553 373.311359
L 213.882024 357.393231
L 274.058494 339.65718
L 334.234965 327.056553
L 394.411435 282.518246
L 454.587906 238.690085
L 514.764376 201.395985
L 574.940847 159.767805
L 635.117318 61.227759
" style="fill:none;stroke:#b2df8a;stroke-dasharray:3.27904,1.417963;stroke-dashoffset:0;stroke-width:0.886227;"/>
   </g>
   <g id="line2d_22">
    <path clip-path="url(#pf87bd023c8)" d="M 93.529082 370.544717
L 153.705553 338.733666
L 213.882024 312.8887
L 274.058494 292.01991
L 334.234965 274.39725
L 394.411435 236.225603
L 454.587906 176.696388
L 514.764376 149.832559
L 574.940847 88.70524
L 635.117318 28.62
" style="fill:none;stroke:#1f78b4;stroke-dasharray:3.27904,1.417963;stroke-dashoffset:0;stroke-width:0.886227;"/>
   </g>
   <g id="line2d_23">
    <path clip-path="url(#pf87bd023c8)" d="M 93.529082 457.02
L 153.705553 454.311425
L 213.882024 452.419626
L 274.058494 427.322886
L 334.234965 419.769174
L 394.411435 390.528879
L 454.587906 374.477474
L 514.764376 348.26765
L 574.940847 309.591666
L 635.117318 251.360422
" style="fill:none;stroke:#a6cee3;stroke-dasharray:3.27904,1.417963;stroke-dashoffset:0;stroke-width:0.886227;"/>
   </g>
   <g id="patch_3">
    <path d="M 57.4232 478.44
L 57.4232 7.2
" style="fill:none;stroke:#262626;stroke-linecap:square;stroke-linejoin:miter;"/>
   </g>
   <g id="patch_4">
    <path d="M 671.2232 478.44
L 671.2232 7.2
" style="fill:none;stroke:#262626;stroke-linecap:square;stroke-linejoin:miter;"/>
   </g>
   <g id="patch_5">
    <path d="M 57.4232 478.44
L 671.2232 478.44
" style="fill:none;stroke:#262626;stroke-linecap:square;stroke-linejoin:miter;"/>
   </g>
   <g id="patch_6">
    <path d="M 57.4232 7.2
L 671.2232 7.2
" style="fill:none;stroke:#262626;stroke-linecap:square;stroke-linejoin:miter;"/>
   </g>
   <g id="text_18">
    <!-- Comparison -->
    <defs>
     <path d="M 58.796875 25.09375
L 68.265625 22.703125
Q 65.28125 11.03125 57.546875 4.90625
Q 49.8125 -1.21875 38.625 -1.21875
Q 27.046875 -1.21875 19.796875 3.484375
Q 12.546875 8.203125 8.765625 17.140625
Q 4.984375 26.078125 4.984375 36.328125
Q 4.984375 47.515625 9.25 55.828125
Q 13.53125 64.15625 21.40625 68.46875
Q 29.296875 72.796875 38.765625 72.796875
Q 49.515625 72.796875 56.828125 67.328125
Q 64.15625 61.859375 67.046875 51.953125
L 57.71875 49.75
Q 55.21875 57.5625 50.484375 61.125
Q 45.75 64.703125 38.578125 64.703125
Q 30.328125 64.703125 24.78125 60.734375
Q 19.234375 56.78125 16.984375 50.109375
Q 14.75 43.453125 14.75 36.375
Q 14.75 27.25 17.40625 20.4375
Q 20.0625 13.625 25.671875 10.25
Q 31.296875 6.890625 37.84375 6.890625
Q 45.796875 6.890625 51.3125 11.46875
Q 56.84375 16.0625 58.796875 25.09375
z
" id="ArialMT-67"/>
     <path d="M 6.59375 -19.875
L 6.59375 51.859375
L 14.59375 51.859375
L 14.59375 45.125
Q 17.4375 49.078125 21 51.046875
Q 24.5625 53.03125 29.640625 53.03125
Q 36.28125 53.03125 41.359375 49.609375
Q 46.4375 46.1875 49.015625 39.953125
Q 51.609375 33.734375 51.609375 26.3125
Q 51.609375 18.359375 48.75 11.984375
Q 45.90625 5.609375 40.453125 2.21875
Q 35.015625 -1.171875 29 -1.171875
Q 24.609375 -1.171875 21.109375 0.6875
Q 17.625 2.546875 15.375 5.375
L 15.375 -19.875
z
M 14.546875 25.640625
Q 14.546875 15.625 18.59375 10.84375
Q 22.65625 6.0625 28.421875 6.0625
Q 34.28125 6.0625 38.453125 11.015625
Q 42.625 15.96875 42.625 26.375
Q 42.625 36.28125 38.546875 41.203125
Q 34.46875 46.140625 28.8125 46.140625
Q 23.1875 46.140625 18.859375 40.890625
Q 14.546875 35.640625 14.546875 25.640625
z
" id="ArialMT-112"/>
    </defs>
    <g transform="translate(698.4232 211.33245)scale(0.1728 -0.1728)">
     <use xlink:href="#ArialMT-67"/>
     <use x="72.216797" xlink:href="#ArialMT-111"/>
     <use x="127.832031" xlink:href="#ArialMT-109"/>
     <use x="211.132812" xlink:href="#ArialMT-112"/>
     <use x="266.748047" xlink:href="#ArialMT-97"/>
     <use x="322.363281" xlink:href="#ArialMT-114"/>
     <use x="355.664062" xlink:href="#ArialMT-105"/>
     <use x="377.880859" xlink:href="#ArialMT-115"/>
     <use x="427.880859" xlink:href="#ArialMT-111"/>
     <use x="483.496094" xlink:href="#ArialMT-110"/>
    </g>
   </g>
   <g id="patch_7">
    <path clip-path="url(#p741a815b5c)" d="M 698.4232 240.76685
L 716.4232 240.76685
L 716.4232 222.76685
L 698.4232 222.76685
z
" style="fill:#ffffff;"/>
   </g>
   <g id="line2d_24">
    <path clip-path="url(#p741a815b5c)" d="M 707.4232 231.76685
" style="fill:none;stroke:#1f77b4;stroke-linecap:round;stroke-width:1.2;"/>
    <defs>
     <path d="M 0 2.215567
C 0.587575 2.215567 1.151164 1.982121 1.566643 1.566643
C 1.982121 1.151164 2.215567 0.587575 2.215567 0
C 2.215567 -0.587575 1.982121 -1.151164 1.566643 -1.566643
C 1.151164 -1.982121 0.587575 -2.215567 0 -2.215567
C -0.587575 -2.215567 -1.151164 -1.982121 -1.566643 -1.566643
C -1.982121 -1.151164 -2.215567 -0.587575 -2.215567 0
C -2.215567 0.587575 -1.982121 1.151164 -1.566643 1.566643
C -1.151164 1.982121 -0.587575 2.215567 0 2.215567
z
" id="m463b7fe687" style="stroke:#b2df8a;stroke-width:0.886227;"/>
    </defs>
    <g clip-path="url(#p741a815b5c)">
     <use style="fill:#b2df8a;stroke:#b2df8a;stroke-width:0.886227;" x="707.4232" xlink:href="#m463b7fe687" y="231.76685"/>
    </g>
   </g>
   <g id="line2d_25">
    <path clip-path="url(#p741a815b5c)" d="M 698.4232 231.76685
L 716.4232 231.76685
" style="fill:none;stroke:#b2df8a;stroke-dasharray:3.27904,1.417963;stroke-dashoffset:0;stroke-width:0.886227;"/>
   </g>
   <g id="text_19">
    <!-- PMC-NYTAC -->
    <defs>
     <path d="M 7.71875 0
L 7.71875 71.578125
L 34.71875 71.578125
Q 41.84375 71.578125 45.609375 70.90625
Q 50.875 70.015625 54.4375 67.546875
Q 58.015625 65.09375 60.1875 60.640625
Q 62.359375 56.203125 62.359375 50.875
Q 62.359375 41.75 56.546875 35.421875
Q 50.734375 29.109375 35.546875 29.109375
L 17.1875 29.109375
L 17.1875 0
z
M 17.1875 37.546875
L 35.6875 37.546875
Q 44.875 37.546875 48.734375 40.96875
Q 52.59375 44.390625 52.59375 50.59375
Q 52.59375 55.078125 50.3125 58.265625
Q 48.046875 61.46875 44.34375 62.5
Q 41.9375 63.140625 35.5 63.140625
L 17.1875 63.140625
z
" id="ArialMT-80"/>
     <path d="M 7.421875 0
L 7.421875 71.578125
L 21.6875 71.578125
L 38.625 20.90625
Q 40.96875 13.8125 42.046875 10.296875
Q 43.265625 14.203125 45.84375 21.78125
L 62.984375 71.578125
L 75.734375 71.578125
L 75.734375 0
L 66.609375 0
L 66.609375 59.90625
L 45.796875 0
L 37.25 0
L 16.546875 60.9375
L 16.546875 0
z
" id="ArialMT-77"/>
     <path d="M 3.171875 21.484375
L 3.171875 30.328125
L 30.171875 30.328125
L 30.171875 21.484375
z
" id="ArialMT-45"/>
     <path d="M 27.875 0
L 27.875 30.328125
L 0.296875 71.578125
L 11.8125 71.578125
L 25.921875 50
Q 29.828125 43.953125 33.203125 37.890625
Q 36.421875 43.5 41.015625 50.53125
L 54.890625 71.578125
L 65.921875 71.578125
L 37.359375 30.328125
L 37.359375 0
z
" id="ArialMT-89"/>
     <path d="M 25.921875 0
L 25.921875 63.140625
L 2.34375 63.140625
L 2.34375 71.578125
L 59.078125 71.578125
L 59.078125 63.140625
L 35.40625 63.140625
L 35.40625 0
z
" id="ArialMT-84"/>
     <path d="M -0.140625 0
L 27.34375 71.578125
L 37.546875 71.578125
L 66.84375 0
L 56.0625 0
L 47.703125 21.6875
L 17.78125 21.6875
L 9.90625 0
z
M 20.515625 29.390625
L 44.78125 29.390625
L 37.3125 49.21875
Q 33.890625 58.25 32.234375 64.0625
Q 30.859375 57.171875 28.375 50.390625
z
" id="ArialMT-65"/>
    </defs>
    <g transform="translate(719.4232 236.234)scale(0.1728 -0.1728)">
     <use xlink:href="#ArialMT-80"/>
     <use x="66.699219" xlink:href="#ArialMT-77"/>
     <use x="150" xlink:href="#ArialMT-67"/>
     <use x="222.216797" xlink:href="#ArialMT-45"/>
     <use x="255.517578" xlink:href="#ArialMT-78"/>
     <use x="327.734375" xlink:href="#ArialMT-89"/>
     <use x="394.433594" xlink:href="#ArialMT-84"/>
     <use x="455.408203" xlink:href="#ArialMT-65"/>
     <use x="522.107422" xlink:href="#ArialMT-67"/>
    </g>
   </g>
   <g id="patch_8">
    <path clip-path="url(#p7acbd5aabb)" d="M 698.4232 260.76685
L 716.4232 260.76685
L 716.4232 242.76685
L 698.4232 242.76685
z
" style="fill:#ffffff;"/>
   </g>
   <g id="line2d_26">
    <path clip-path="url(#p7acbd5aabb)" d="M 707.4232 251.76685
" style="fill:none;stroke:#1f77b4;stroke-linecap:round;stroke-width:1.2;"/>
    <defs>
     <path d="M 0 2.215567
C 0.587575 2.215567 1.151164 1.982121 1.566643 1.566643
C 1.982121 1.151164 2.215567 0.587575 2.215567 0
C 2.215567 -0.587575 1.982121 -1.151164 1.566643 -1.566643
C 1.151164 -1.982121 0.587575 -2.215567 0 -2.215567
C -0.587575 -2.215567 -1.151164 -1.982121 -1.566643 -1.566643
C -1.982121 -1.151164 -2.215567 -0.587575 -2.215567 0
C -2.215567 0.587575 -1.982121 1.151164 -1.566643 1.566643
C -1.151164 1.982121 -0.587575 2.215567 0 2.215567
z
" id="m68ff48c2ef" style="stroke:#1f78b4;stroke-width:0.886227;"/>
    </defs>
    <g clip-path="url(#p7acbd5aabb)">
     <use style="fill:#1f78b4;stroke:#1f78b4;stroke-width:0.886227;" x="707.4232" xlink:href="#m68ff48c2ef" y="251.76685"/>
    </g>
   </g>
   <g id="line2d_27">
    <path clip-path="url(#p7acbd5aabb)" d="M 698.4232 251.76685
L 716.4232 251.76685
" style="fill:none;stroke:#1f78b4;stroke-dasharray:3.27904,1.417963;stroke-dashoffset:0;stroke-width:0.886227;"/>
   </g>
   <g id="text_20">
    <!-- bioRxiv-NYTAC -->
    <defs>
     <path d="M 7.859375 0
L 7.859375 71.578125
L 39.59375 71.578125
Q 49.171875 71.578125 54.140625 69.640625
Q 59.125 67.71875 62.109375 62.828125
Q 65.09375 57.953125 65.09375 52.046875
Q 65.09375 44.4375 60.15625 39.203125
Q 55.21875 33.984375 44.921875 32.5625
Q 48.6875 30.765625 50.640625 29
Q 54.78125 25.203125 58.5 19.484375
L 70.953125 0
L 59.03125 0
L 49.5625 14.890625
Q 45.40625 21.34375 42.71875 24.75
Q 40.046875 28.171875 37.921875 29.53125
Q 35.796875 30.90625 33.59375 31.453125
Q 31.984375 31.78125 28.328125 31.78125
L 17.328125 31.78125
L 17.328125 0
z
M 17.328125 39.984375
L 37.703125 39.984375
Q 44.1875 39.984375 47.84375 41.328125
Q 51.515625 42.671875 53.421875 45.625
Q 55.328125 48.578125 55.328125 52.046875
Q 55.328125 57.125 51.640625 60.390625
Q 47.953125 63.671875 39.984375 63.671875
L 17.328125 63.671875
z
" id="ArialMT-82"/>
     <path d="M 0.734375 0
L 19.671875 26.953125
L 2.15625 51.859375
L 13.140625 51.859375
L 21.09375 39.703125
Q 23.34375 36.234375 24.703125 33.890625
Q 26.859375 37.109375 28.65625 39.59375
L 37.40625 51.859375
L 47.90625 51.859375
L 29.984375 27.4375
L 49.265625 0
L 38.484375 0
L 27.828125 16.109375
L 25 20.453125
L 11.375 0
z
" id="ArialMT-120"/>
    </defs>
    <g transform="translate(719.4232 256.234)scale(0.1728 -0.1728)">
     <use xlink:href="#ArialMT-98"/>
     <use x="55.615234" xlink:href="#ArialMT-105"/>
     <use x="77.832031" xlink:href="#ArialMT-111"/>
     <use x="133.447266" xlink:href="#ArialMT-82"/>
     <use x="205.664062" xlink:href="#ArialMT-120"/>
     <use x="255.664062" xlink:href="#ArialMT-105"/>
     <use x="277.880859" xlink:href="#ArialMT-118"/>
     <use x="327.880859" xlink:href="#ArialMT-45"/>
     <use x="361.181641" xlink:href="#ArialMT-78"/>
     <use x="433.398438" xlink:href="#ArialMT-89"/>
     <use x="500.097656" xlink:href="#ArialMT-84"/>
     <use x="561.072266" xlink:href="#ArialMT-65"/>
     <use x="627.771484" xlink:href="#ArialMT-67"/>
    </g>
   </g>
   <g id="patch_9">
    <path clip-path="url(#p4689b7aadc)" d="M 698.4232 280.76685
L 716.4232 280.76685
L 716.4232 262.76685
L 698.4232 262.76685
z
" style="fill:#ffffff;"/>
   </g>
   <g id="line2d_28">
    <path clip-path="url(#p4689b7aadc)" d="M 707.4232 271.76685
" style="fill:none;stroke:#1f77b4;stroke-linecap:round;stroke-width:1.2;"/>
    <defs>
     <path d="M 0 2.215567
C 0.587575 2.215567 1.151164 1.982121 1.566643 1.566643
C 1.982121 1.151164 2.215567 0.587575 2.215567 0
C 2.215567 -0.587575 1.982121 -1.151164 1.566643 -1.566643
C 1.151164 -1.982121 0.587575 -2.215567 0 -2.215567
C -0.587575 -2.215567 -1.151164 -1.982121 -1.566643 -1.566643
C -1.982121 -1.151164 -2.215567 -0.587575 -2.215567 0
C -2.215567 0.587575 -1.982121 1.151164 -1.566643 1.566643
C -1.151164 1.982121 -0.587575 2.215567 0 2.215567
z
" id="m140e24bfea" style="stroke:#a6cee3;stroke-width:0.886227;"/>
    </defs>
    <g clip-path="url(#p4689b7aadc)">
     <use style="fill:#a6cee3;stroke:#a6cee3;stroke-width:0.886227;" x="707.4232" xlink:href="#m140e24bfea" y="271.76685"/>
    </g>
   </g>
   <g id="line2d_29">
    <path clip-path="url(#p4689b7aadc)" d="M 698.4232 271.76685
L 716.4232 271.76685
" style="fill:none;stroke:#a6cee3;stroke-dasharray:3.27904,1.417963;stroke-dashoffset:0;stroke-width:0.886227;"/>
   </g>
   <g id="text_21">
    <!-- bioRxiv-PMC -->
    <g transform="translate(719.4232 276.234)scale(0.1728 -0.1728)">
     <use xlink:href="#ArialMT-98"/>
     <use x="55.615234" xlink:href="#ArialMT-105"/>
     <use x="77.832031" xlink:href="#ArialMT-111"/>
     <use x="133.447266" xlink:href="#ArialMT-82"/>
     <use x="205.664062" xlink:href="#ArialMT-120"/>
     <use x="255.664062" xlink:href="#ArialMT-105"/>
     <use x="277.880859" xlink:href="#ArialMT-118"/>
     <use x="327.880859" xlink:href="#ArialMT-45"/>
     <use x="361.181641" xlink:href="#ArialMT-80"/>
     <use x="427.880859" xlink:href="#ArialMT-77"/>
     <use x="511.181641" xlink:href="#ArialMT-67"/>
    </g>
   </g>
  </g>
 </g>
 <defs>
  <clipPath id="pf87bd023c8">
   <rect height="471.24" width="613.8" x="57.4232" y="7.2"/>
  </clipPath>
  <clipPath id="p741a815b5c">
   <path d="M 698.4232 240.76685
L 698.4232 222.76685
L 716.4232 222.76685
L 716.4232 240.76685
"/>
  </clipPath>
  <clipPath id="p7acbd5aabb">
   <path d="M 698.4232 260.76685
L 698.4232 242.76685
L 716.4232 242.76685
L 716.4232 260.76685
"/>
  </clipPath>
  <clipPath id="p4689b7aadc">
   <path d="M 698.4232 280.76685
L 698.4232 262.76685
L 716.4232 262.76685
L 716.4232 280.76685
"/>
  </clipPath>
 </defs>
</svg>
