<?xml version="1.0" encoding="utf-8" standalone="no"?>
<!DOCTYPE svg PUBLIC "-//W3C//DTD SVG 1.1//EN"
  "http://www.w3.org/Graphics/SVG/1.1/DTD/svg11.dtd">
<!-- Created with matplotlib (https://matplotlib.org/) -->
<svg height="392.89475pt" version="1.1" viewBox="0 0 829.445 392.89475" width="829.445pt" xmlns="http://www.w3.org/2000/svg" xmlns:xlink="http://www.w3.org/1999/xlink">
 <defs>
  <style type="text/css">
*{stroke-linecap:butt;stroke-linejoin:round;}
  </style>
 </defs>
 <g id="figure_1">
  <g id="patch_1">
   <path d="M 0 392.89475
L 829.445 392.89475
L 829.445 0
L 0 0
z
" style="fill:#ffffff;"/>
  </g>
  <g id="axes_1">
   <g id="patch_2">
    <path d="M 61.648 339.84
L 619.648 339.84
L 619.648 7.2
L 61.648 7.2
z
" style="fill:#ffffff;"/>
   </g>
   <g id="matplotlib.axis_1">
    <g id="xtick_1">
     <g id="line2d_1">
      <defs>
       <path d="M 0 0
L 0 4.8
" id="m276d88022f" style="stroke:#262626;"/>
      </defs>
      <g>
       <use style="fill:#262626;stroke:#262626;" x="94.471529" xlink:href="#m276d88022f" y="339.84"/>
      </g>
     </g>
     <g id="text_1">
      <!-- 100 -->
      <defs>
       <path d="M 37.25 0
L 28.46875 0
L 28.46875 56
Q 25.296875 52.984375 20.140625 49.953125
Q 14.984375 46.921875 10.890625 45.40625
L 10.890625 53.90625
Q 18.265625 57.375 23.78125 62.296875
Q 29.296875 67.234375 31.59375 71.875
L 37.25 71.875
z
" id="ArialMT-49"/>
       <path d="M 4.15625 35.296875
Q 4.15625 48 6.765625 55.734375
Q 9.375 63.484375 14.515625 67.671875
Q 19.671875 71.875 27.484375 71.875
Q 33.25 71.875 37.59375 69.546875
Q 41.9375 67.234375 44.765625 62.859375
Q 47.609375 58.5 49.21875 52.21875
Q 50.828125 45.953125 50.828125 35.296875
Q 50.828125 22.703125 48.234375 14.96875
Q 45.65625 7.234375 40.5 3
Q 35.359375 -1.21875 27.484375 -1.21875
Q 17.140625 -1.21875 11.234375 6.203125
Q 4.15625 15.140625 4.15625 35.296875
z
M 13.1875 35.296875
Q 13.1875 17.671875 17.3125 11.828125
Q 21.4375 6 27.484375 6
Q 33.546875 6 37.671875 11.859375
Q 41.796875 17.71875 41.796875 35.296875
Q 41.796875 52.984375 37.671875 58.78125
Q 33.546875 64.59375 27.390625 64.59375
Q 21.34375 64.59375 17.71875 59.46875
Q 13.1875 52.9375 13.1875 35.296875
z
" id="ArialMT-48"/>
      </defs>
      <g style="fill:#262626;" transform="translate(79.790654 359.63775)scale(0.176 -0.176)">
       <use xlink:href="#ArialMT-49"/>
       <use x="55.615234" xlink:href="#ArialMT-48"/>
       <use x="111.230469" xlink:href="#ArialMT-48"/>
      </g>
     </g>
    </g>
    <g id="xtick_2">
     <g id="line2d_2">
      <g>
       <use style="fill:#262626;stroke:#262626;" x="149.177412" xlink:href="#m276d88022f" y="339.84"/>
      </g>
     </g>
     <g id="text_2">
      <!-- 200 -->
      <defs>
       <path d="M 50.34375 8.453125
L 50.34375 0
L 3.03125 0
Q 2.9375 3.171875 4.046875 6.109375
Q 5.859375 10.9375 9.828125 15.625
Q 13.8125 20.3125 21.34375 26.46875
Q 33.015625 36.03125 37.109375 41.625
Q 41.21875 47.21875 41.21875 52.203125
Q 41.21875 57.421875 37.46875 61
Q 33.734375 64.59375 27.734375 64.59375
Q 21.390625 64.59375 17.578125 60.78125
Q 13.765625 56.984375 13.71875 50.25
L 4.6875 51.171875
Q 5.609375 61.28125 11.65625 66.578125
Q 17.71875 71.875 27.9375 71.875
Q 38.234375 71.875 44.234375 66.15625
Q 50.25 60.453125 50.25 52
Q 50.25 47.703125 48.484375 43.546875
Q 46.734375 39.40625 42.65625 34.8125
Q 38.578125 30.21875 29.109375 22.21875
Q 21.1875 15.578125 18.9375 13.203125
Q 16.703125 10.84375 15.234375 8.453125
z
" id="ArialMT-50"/>
      </defs>
      <g style="fill:#262626;" transform="translate(134.496537 359.63775)scale(0.176 -0.176)">
       <use xlink:href="#ArialMT-50"/>
       <use x="55.615234" xlink:href="#ArialMT-48"/>
       <use x="111.230469" xlink:href="#ArialMT-48"/>
      </g>
     </g>
    </g>
    <g id="xtick_3">
     <g id="line2d_3">
      <g>
       <use style="fill:#262626;stroke:#262626;" x="203.883294" xlink:href="#m276d88022f" y="339.84"/>
      </g>
     </g>
     <g id="text_3">
      <!-- 300 -->
      <defs>
       <path d="M 4.203125 18.890625
L 12.984375 20.0625
Q 14.5 12.59375 18.140625 9.296875
Q 21.78125 6 27 6
Q 33.203125 6 37.46875 10.296875
Q 41.75 14.59375 41.75 20.953125
Q 41.75 27 37.796875 30.921875
Q 33.84375 34.859375 27.734375 34.859375
Q 25.25 34.859375 21.53125 33.890625
L 22.515625 41.609375
Q 23.390625 41.5 23.921875 41.5
Q 29.546875 41.5 34.03125 44.421875
Q 38.53125 47.359375 38.53125 53.46875
Q 38.53125 58.296875 35.25 61.46875
Q 31.984375 64.65625 26.8125 64.65625
Q 21.6875 64.65625 18.265625 61.421875
Q 14.84375 58.203125 13.875 51.765625
L 5.078125 53.328125
Q 6.6875 62.15625 12.390625 67.015625
Q 18.109375 71.875 26.609375 71.875
Q 32.46875 71.875 37.390625 69.359375
Q 42.328125 66.84375 44.9375 62.5
Q 47.5625 58.15625 47.5625 53.265625
Q 47.5625 48.640625 45.0625 44.828125
Q 42.578125 41.015625 37.703125 38.765625
Q 44.046875 37.3125 47.5625 32.6875
Q 51.078125 28.078125 51.078125 21.140625
Q 51.078125 11.765625 44.234375 5.25
Q 37.40625 -1.265625 26.953125 -1.265625
Q 17.53125 -1.265625 11.296875 4.34375
Q 5.078125 9.96875 4.203125 18.890625
z
" id="ArialMT-51"/>
      </defs>
      <g style="fill:#262626;" transform="translate(189.202419 359.63775)scale(0.176 -0.176)">
       <use xlink:href="#ArialMT-51"/>
       <use x="55.615234" xlink:href="#ArialMT-48"/>
       <use x="111.230469" xlink:href="#ArialMT-48"/>
      </g>
     </g>
    </g>
    <g id="xtick_4">
     <g id="line2d_4">
      <g>
       <use style="fill:#262626;stroke:#262626;" x="258.589176" xlink:href="#m276d88022f" y="339.84"/>
      </g>
     </g>
     <g id="text_4">
      <!-- 400 -->
      <defs>
       <path d="M 32.328125 0
L 32.328125 17.140625
L 1.265625 17.140625
L 1.265625 25.203125
L 33.9375 71.578125
L 41.109375 71.578125
L 41.109375 25.203125
L 50.78125 25.203125
L 50.78125 17.140625
L 41.109375 17.140625
L 41.109375 0
z
M 32.328125 25.203125
L 32.328125 57.46875
L 9.90625 25.203125
z
" id="ArialMT-52"/>
      </defs>
      <g style="fill:#262626;" transform="translate(243.908301 359.63775)scale(0.176 -0.176)">
       <use xlink:href="#ArialMT-52"/>
       <use x="55.615234" xlink:href="#ArialMT-48"/>
       <use x="111.230469" xlink:href="#ArialMT-48"/>
      </g>
     </g>
    </g>
    <g id="xtick_5">
     <g id="line2d_5">
      <g>
       <use style="fill:#262626;stroke:#262626;" x="313.295059" xlink:href="#m276d88022f" y="339.84"/>
      </g>
     </g>
     <g id="text_5">
      <!-- 500 -->
      <defs>
       <path d="M 4.15625 18.75
L 13.375 19.53125
Q 14.40625 12.796875 18.140625 9.390625
Q 21.875 6 27.15625 6
Q 33.5 6 37.890625 10.78125
Q 42.28125 15.578125 42.28125 23.484375
Q 42.28125 31 38.0625 35.34375
Q 33.84375 39.703125 27 39.703125
Q 22.75 39.703125 19.328125 37.765625
Q 15.921875 35.84375 13.96875 32.765625
L 5.71875 33.84375
L 12.640625 70.609375
L 48.25 70.609375
L 48.25 62.203125
L 19.671875 62.203125
L 15.828125 42.96875
Q 22.265625 47.46875 29.34375 47.46875
Q 38.71875 47.46875 45.15625 40.96875
Q 51.609375 34.46875 51.609375 24.265625
Q 51.609375 14.546875 45.953125 7.46875
Q 39.0625 -1.21875 27.15625 -1.21875
Q 17.390625 -1.21875 11.203125 4.25
Q 5.03125 9.71875 4.15625 18.75
z
" id="ArialMT-53"/>
      </defs>
      <g style="fill:#262626;" transform="translate(298.614184 359.63775)scale(0.176 -0.176)">
       <use xlink:href="#ArialMT-53"/>
       <use x="55.615234" xlink:href="#ArialMT-48"/>
       <use x="111.230469" xlink:href="#ArialMT-48"/>
      </g>
     </g>
    </g>
    <g id="xtick_6">
     <g id="line2d_6">
      <g>
       <use style="fill:#262626;stroke:#262626;" x="368.000941" xlink:href="#m276d88022f" y="339.84"/>
      </g>
     </g>
     <g id="text_6">
      <!-- 1000 -->
      <g style="fill:#262626;" transform="translate(348.426441 359.63775)scale(0.176 -0.176)">
       <use xlink:href="#ArialMT-49"/>
       <use x="55.615234" xlink:href="#ArialMT-48"/>
       <use x="111.230469" xlink:href="#ArialMT-48"/>
       <use x="166.845703" xlink:href="#ArialMT-48"/>
      </g>
     </g>
    </g>
    <g id="xtick_7">
     <g id="line2d_7">
      <g>
       <use style="fill:#262626;stroke:#262626;" x="422.706824" xlink:href="#m276d88022f" y="339.84"/>
      </g>
     </g>
     <g id="text_7">
      <!-- 1500 -->
      <g style="fill:#262626;" transform="translate(403.132324 359.63775)scale(0.176 -0.176)">
       <use xlink:href="#ArialMT-49"/>
       <use x="55.615234" xlink:href="#ArialMT-53"/>
       <use x="111.230469" xlink:href="#ArialMT-48"/>
       <use x="166.845703" xlink:href="#ArialMT-48"/>
      </g>
     </g>
    </g>
    <g id="xtick_8">
     <g id="line2d_8">
      <g>
       <use style="fill:#262626;stroke:#262626;" x="477.412706" xlink:href="#m276d88022f" y="339.84"/>
      </g>
     </g>
     <g id="text_8">
      <!-- 2000 -->
      <g style="fill:#262626;" transform="translate(457.838206 359.63775)scale(0.176 -0.176)">
       <use xlink:href="#ArialMT-50"/>
       <use x="55.615234" xlink:href="#ArialMT-48"/>
       <use x="111.230469" xlink:href="#ArialMT-48"/>
       <use x="166.845703" xlink:href="#ArialMT-48"/>
      </g>
     </g>
    </g>
    <g id="xtick_9">
     <g id="line2d_9">
      <g>
       <use style="fill:#262626;stroke:#262626;" x="532.118588" xlink:href="#m276d88022f" y="339.84"/>
      </g>
     </g>
     <g id="text_9">
      <!-- 3000 -->
      <g style="fill:#262626;" transform="translate(512.544088 359.63775)scale(0.176 -0.176)">
       <use xlink:href="#ArialMT-51"/>
       <use x="55.615234" xlink:href="#ArialMT-48"/>
       <use x="111.230469" xlink:href="#ArialMT-48"/>
       <use x="166.845703" xlink:href="#ArialMT-48"/>
      </g>
     </g>
    </g>
    <g id="xtick_10">
     <g id="line2d_10">
      <g>
       <use style="fill:#262626;stroke:#262626;" x="586.824471" xlink:href="#m276d88022f" y="339.84"/>
      </g>
     </g>
     <g id="text_10">
      <!-- 5000 -->
      <g style="fill:#262626;" transform="translate(567.249971 359.63775)scale(0.176 -0.176)">
       <use xlink:href="#ArialMT-53"/>
       <use x="55.615234" xlink:href="#ArialMT-48"/>
       <use x="111.230469" xlink:href="#ArialMT-48"/>
       <use x="166.845703" xlink:href="#ArialMT-48"/>
      </g>
     </g>
    </g>
    <g id="text_11">
     <!-- Number of terms evaluated -->
     <defs>
      <path d="M 7.625 0
L 7.625 71.578125
L 17.328125 71.578125
L 54.9375 15.375
L 54.9375 71.578125
L 64.015625 71.578125
L 64.015625 0
L 54.296875 0
L 16.703125 56.25
L 16.703125 0
z
" id="ArialMT-78"/>
      <path d="M 40.578125 0
L 40.578125 7.625
Q 34.515625 -1.171875 24.125 -1.171875
Q 19.53125 -1.171875 15.546875 0.578125
Q 11.578125 2.34375 9.640625 5
Q 7.71875 7.671875 6.9375 11.53125
Q 6.390625 14.109375 6.390625 19.734375
L 6.390625 51.859375
L 15.1875 51.859375
L 15.1875 23.09375
Q 15.1875 16.21875 15.71875 13.8125
Q 16.546875 10.359375 19.234375 8.375
Q 21.921875 6.390625 25.875 6.390625
Q 29.828125 6.390625 33.296875 8.421875
Q 36.765625 10.453125 38.203125 13.9375
Q 39.65625 17.4375 39.65625 24.078125
L 39.65625 51.859375
L 48.4375 51.859375
L 48.4375 0
z
" id="ArialMT-117"/>
      <path d="M 6.59375 0
L 6.59375 51.859375
L 14.453125 51.859375
L 14.453125 44.578125
Q 16.890625 48.390625 20.9375 50.703125
Q 25 53.03125 30.171875 53.03125
Q 35.9375 53.03125 39.625 50.640625
Q 43.3125 48.25 44.828125 43.953125
Q 50.984375 53.03125 60.84375 53.03125
Q 68.5625 53.03125 72.703125 48.75
Q 76.859375 44.484375 76.859375 35.59375
L 76.859375 0
L 68.109375 0
L 68.109375 32.671875
Q 68.109375 37.9375 67.25 40.25
Q 66.40625 42.578125 64.15625 43.984375
Q 61.921875 45.40625 58.890625 45.40625
Q 53.421875 45.40625 49.796875 41.765625
Q 46.1875 38.140625 46.1875 30.125
L 46.1875 0
L 37.40625 0
L 37.40625 33.6875
Q 37.40625 39.546875 35.25 42.46875
Q 33.109375 45.40625 28.21875 45.40625
Q 24.515625 45.40625 21.359375 43.453125
Q 18.21875 41.5 16.796875 37.734375
Q 15.375 33.984375 15.375 26.90625
L 15.375 0
z
" id="ArialMT-109"/>
      <path d="M 14.703125 0
L 6.546875 0
L 6.546875 71.578125
L 15.328125 71.578125
L 15.328125 46.046875
Q 20.90625 53.03125 29.546875 53.03125
Q 34.328125 53.03125 38.59375 51.09375
Q 42.875 49.171875 45.625 45.671875
Q 48.390625 42.1875 49.953125 37.25
Q 51.515625 32.328125 51.515625 26.703125
Q 51.515625 13.375 44.921875 6.09375
Q 38.328125 -1.171875 29.109375 -1.171875
Q 19.921875 -1.171875 14.703125 6.5
z
M 14.59375 26.3125
Q 14.59375 17 17.140625 12.84375
Q 21.296875 6.0625 28.375 6.0625
Q 34.125 6.0625 38.328125 11.0625
Q 42.53125 16.0625 42.53125 25.984375
Q 42.53125 36.140625 38.5 40.96875
Q 34.46875 45.796875 28.765625 45.796875
Q 23 45.796875 18.796875 40.796875
Q 14.59375 35.796875 14.59375 26.3125
z
" id="ArialMT-98"/>
      <path d="M 42.09375 16.703125
L 51.171875 15.578125
Q 49.03125 7.625 43.21875 3.21875
Q 37.40625 -1.171875 28.375 -1.171875
Q 17 -1.171875 10.328125 5.828125
Q 3.65625 12.84375 3.65625 25.484375
Q 3.65625 38.578125 10.390625 45.796875
Q 17.140625 53.03125 27.875 53.03125
Q 38.28125 53.03125 44.875 45.953125
Q 51.46875 38.875 51.46875 26.03125
Q 51.46875 25.25 51.421875 23.6875
L 12.75 23.6875
Q 13.234375 15.140625 17.578125 10.59375
Q 21.921875 6.0625 28.421875 6.0625
Q 33.25 6.0625 36.671875 8.59375
Q 40.09375 11.140625 42.09375 16.703125
z
M 13.234375 30.90625
L 42.1875 30.90625
Q 41.609375 37.453125 38.875 40.71875
Q 34.671875 45.796875 27.984375 45.796875
Q 21.921875 45.796875 17.796875 41.75
Q 13.671875 37.703125 13.234375 30.90625
z
" id="ArialMT-101"/>
      <path d="M 6.5 0
L 6.5 51.859375
L 14.40625 51.859375
L 14.40625 44
Q 17.4375 49.515625 20 51.265625
Q 22.5625 53.03125 25.640625 53.03125
Q 30.078125 53.03125 34.671875 50.203125
L 31.640625 42.046875
Q 28.421875 43.953125 25.203125 43.953125
Q 22.3125 43.953125 20.015625 42.21875
Q 17.71875 40.484375 16.75 37.40625
Q 15.28125 32.71875 15.28125 27.15625
L 15.28125 0
z
" id="ArialMT-114"/>
      <path id="ArialMT-32"/>
      <path d="M 3.328125 25.921875
Q 3.328125 40.328125 11.328125 47.265625
Q 18.015625 53.03125 27.640625 53.03125
Q 38.328125 53.03125 45.109375 46.015625
Q 51.90625 39.015625 51.90625 26.65625
Q 51.90625 16.65625 48.90625 10.90625
Q 45.90625 5.171875 40.15625 2
Q 34.421875 -1.171875 27.640625 -1.171875
Q 16.75 -1.171875 10.03125 5.8125
Q 3.328125 12.796875 3.328125 25.921875
z
M 12.359375 25.921875
Q 12.359375 15.96875 16.703125 11.015625
Q 21.046875 6.0625 27.640625 6.0625
Q 34.1875 6.0625 38.53125 11.03125
Q 42.875 16.015625 42.875 26.21875
Q 42.875 35.84375 38.5 40.796875
Q 34.125 45.75 27.640625 45.75
Q 21.046875 45.75 16.703125 40.8125
Q 12.359375 35.890625 12.359375 25.921875
z
" id="ArialMT-111"/>
      <path d="M 8.6875 0
L 8.6875 45.015625
L 0.921875 45.015625
L 0.921875 51.859375
L 8.6875 51.859375
L 8.6875 57.375
Q 8.6875 62.59375 9.625 65.140625
Q 10.890625 68.5625 14.078125 70.671875
Q 17.28125 72.796875 23.046875 72.796875
Q 26.765625 72.796875 31.25 71.921875
L 29.9375 64.265625
Q 27.203125 64.75 24.75 64.75
Q 20.75 64.75 19.09375 63.03125
Q 17.4375 61.328125 17.4375 56.640625
L 17.4375 51.859375
L 27.546875 51.859375
L 27.546875 45.015625
L 17.4375 45.015625
L 17.4375 0
z
" id="ArialMT-102"/>
      <path d="M 25.78125 7.859375
L 27.046875 0.09375
Q 23.34375 -0.6875 20.40625 -0.6875
Q 15.625 -0.6875 12.984375 0.828125
Q 10.359375 2.34375 9.28125 4.8125
Q 8.203125 7.28125 8.203125 15.1875
L 8.203125 45.015625
L 1.765625 45.015625
L 1.765625 51.859375
L 8.203125 51.859375
L 8.203125 64.703125
L 16.9375 69.96875
L 16.9375 51.859375
L 25.78125 51.859375
L 25.78125 45.015625
L 16.9375 45.015625
L 16.9375 14.703125
Q 16.9375 10.9375 17.40625 9.859375
Q 17.875 8.796875 18.921875 8.15625
Q 19.96875 7.515625 21.921875 7.515625
Q 23.390625 7.515625 25.78125 7.859375
z
" id="ArialMT-116"/>
      <path d="M 3.078125 15.484375
L 11.765625 16.84375
Q 12.5 11.625 15.84375 8.84375
Q 19.1875 6.0625 25.203125 6.0625
Q 31.25 6.0625 34.171875 8.515625
Q 37.109375 10.984375 37.109375 14.3125
Q 37.109375 17.28125 34.515625 19
Q 32.71875 20.171875 25.53125 21.96875
Q 15.875 24.421875 12.140625 26.203125
Q 8.40625 27.984375 6.46875 31.125
Q 4.546875 34.28125 4.546875 38.09375
Q 4.546875 41.546875 6.125 44.5
Q 7.71875 47.46875 10.453125 49.421875
Q 12.5 50.921875 16.03125 51.96875
Q 19.578125 53.03125 23.640625 53.03125
Q 29.734375 53.03125 34.34375 51.265625
Q 38.96875 49.515625 41.15625 46.5
Q 43.359375 43.5 44.1875 38.484375
L 35.59375 37.3125
Q 35.015625 41.3125 32.203125 43.546875
Q 29.390625 45.796875 24.265625 45.796875
Q 18.21875 45.796875 15.625 43.796875
Q 13.03125 41.796875 13.03125 39.109375
Q 13.03125 37.40625 14.109375 36.03125
Q 15.1875 34.625 17.484375 33.6875
Q 18.796875 33.203125 25.25 31.453125
Q 34.578125 28.953125 38.25 27.359375
Q 41.9375 25.78125 44.03125 22.75
Q 46.140625 19.734375 46.140625 15.234375
Q 46.140625 10.84375 43.578125 6.953125
Q 41.015625 3.078125 36.171875 0.953125
Q 31.34375 -1.171875 25.25 -1.171875
Q 15.140625 -1.171875 9.84375 3.03125
Q 4.546875 7.234375 3.078125 15.484375
z
" id="ArialMT-115"/>
      <path d="M 21 0
L 1.265625 51.859375
L 10.546875 51.859375
L 21.6875 20.796875
Q 23.484375 15.765625 25 10.359375
Q 26.171875 14.453125 28.265625 20.21875
L 39.796875 51.859375
L 48.828125 51.859375
L 29.203125 0
z
" id="ArialMT-118"/>
      <path d="M 40.4375 6.390625
Q 35.546875 2.25 31.03125 0.53125
Q 26.515625 -1.171875 21.34375 -1.171875
Q 12.796875 -1.171875 8.203125 3
Q 3.609375 7.171875 3.609375 13.671875
Q 3.609375 17.484375 5.34375 20.625
Q 7.078125 23.78125 9.890625 25.6875
Q 12.703125 27.59375 16.21875 28.5625
Q 18.796875 29.25 24.03125 29.890625
Q 34.671875 31.15625 39.703125 32.90625
Q 39.75 34.71875 39.75 35.203125
Q 39.75 40.578125 37.25 42.78125
Q 33.890625 45.75 27.25 45.75
Q 21.046875 45.75 18.09375 43.578125
Q 15.140625 41.40625 13.71875 35.890625
L 5.125 37.0625
Q 6.296875 42.578125 8.984375 45.96875
Q 11.671875 49.359375 16.75 51.1875
Q 21.828125 53.03125 28.515625 53.03125
Q 35.15625 53.03125 39.296875 51.46875
Q 43.453125 49.90625 45.40625 47.53125
Q 47.359375 45.171875 48.140625 41.546875
Q 48.578125 39.3125 48.578125 33.453125
L 48.578125 21.734375
Q 48.578125 9.46875 49.140625 6.21875
Q 49.703125 2.984375 51.375 0
L 42.1875 0
Q 40.828125 2.734375 40.4375 6.390625
z
M 39.703125 26.03125
Q 34.90625 24.078125 25.34375 22.703125
Q 19.921875 21.921875 17.671875 20.9375
Q 15.4375 19.96875 14.203125 18.09375
Q 12.984375 16.21875 12.984375 13.921875
Q 12.984375 10.40625 15.640625 8.0625
Q 18.3125 5.71875 23.4375 5.71875
Q 28.515625 5.71875 32.46875 7.9375
Q 36.421875 10.15625 38.28125 14.015625
Q 39.703125 17 39.703125 22.796875
z
" id="ArialMT-97"/>
      <path d="M 6.390625 0
L 6.390625 71.578125
L 15.1875 71.578125
L 15.1875 0
z
" id="ArialMT-108"/>
      <path d="M 40.234375 0
L 40.234375 6.546875
Q 35.296875 -1.171875 25.734375 -1.171875
Q 19.53125 -1.171875 14.328125 2.25
Q 9.125 5.671875 6.265625 11.796875
Q 3.421875 17.921875 3.421875 25.875
Q 3.421875 33.640625 6 39.96875
Q 8.59375 46.296875 13.765625 49.65625
Q 18.953125 53.03125 25.34375 53.03125
Q 30.03125 53.03125 33.6875 51.046875
Q 37.359375 49.078125 39.65625 45.90625
L 39.65625 71.578125
L 48.390625 71.578125
L 48.390625 0
z
M 12.453125 25.875
Q 12.453125 15.921875 16.640625 10.984375
Q 20.84375 6.0625 26.5625 6.0625
Q 32.328125 6.0625 36.34375 10.765625
Q 40.375 15.484375 40.375 25.140625
Q 40.375 35.796875 36.265625 40.765625
Q 32.171875 45.75 26.171875 45.75
Q 20.3125 45.75 16.375 40.96875
Q 12.453125 36.1875 12.453125 25.875
z
" id="ArialMT-100"/>
     </defs>
     <g style="fill:#262626;" transform="translate(215.8705 381.87875)scale(0.192 -0.192)">
      <use xlink:href="#ArialMT-78"/>
      <use x="72.216797" xlink:href="#ArialMT-117"/>
      <use x="127.832031" xlink:href="#ArialMT-109"/>
      <use x="211.132812" xlink:href="#ArialMT-98"/>
      <use x="266.748047" xlink:href="#ArialMT-101"/>
      <use x="322.363281" xlink:href="#ArialMT-114"/>
      <use x="355.664062" xlink:href="#ArialMT-32"/>
      <use x="383.447266" xlink:href="#ArialMT-111"/>
      <use x="439.0625" xlink:href="#ArialMT-102"/>
      <use x="466.845703" xlink:href="#ArialMT-32"/>
      <use x="494.628906" xlink:href="#ArialMT-116"/>
      <use x="522.412109" xlink:href="#ArialMT-101"/>
      <use x="578.027344" xlink:href="#ArialMT-114"/>
      <use x="611.328125" xlink:href="#ArialMT-109"/>
      <use x="694.628906" xlink:href="#ArialMT-115"/>
      <use x="744.628906" xlink:href="#ArialMT-32"/>
      <use x="772.412109" xlink:href="#ArialMT-101"/>
      <use x="828.027344" xlink:href="#ArialMT-118"/>
      <use x="878.027344" xlink:href="#ArialMT-97"/>
      <use x="933.642578" xlink:href="#ArialMT-108"/>
      <use x="955.859375" xlink:href="#ArialMT-117"/>
      <use x="1011.474609" xlink:href="#ArialMT-97"/>
      <use x="1067.089844" xlink:href="#ArialMT-116"/>
      <use x="1094.873047" xlink:href="#ArialMT-101"/>
      <use x="1150.488281" xlink:href="#ArialMT-100"/>
     </g>
    </g>
   </g>
   <g id="matplotlib.axis_2">
    <g id="ytick_1">
     <g id="line2d_11">
      <defs>
       <path d="M 0 0
L -4.8 0
" id="m4c9457bd66" style="stroke:#262626;"/>
      </defs>
      <g>
       <use style="fill:#262626;stroke:#262626;" x="61.648" xlink:href="#m4c9457bd66" y="327.897442"/>
      </g>
     </g>
     <g id="text_12">
      <!-- 0 -->
      <g style="fill:#262626;" transform="translate(44.66075 334.196317)scale(0.176 -0.176)">
       <use xlink:href="#ArialMT-48"/>
      </g>
     </g>
    </g>
    <g id="ytick_2">
     <g id="line2d_12">
      <g>
       <use style="fill:#262626;stroke:#262626;" x="61.648" xlink:href="#m4c9457bd66" y="260.089932"/>
      </g>
     </g>
     <g id="text_13">
      <!-- 0.5 -->
      <defs>
       <path d="M 9.078125 0
L 9.078125 10.015625
L 19.09375 10.015625
L 19.09375 0
z
" id="ArialMT-46"/>
      </defs>
      <g style="fill:#262626;" transform="translate(29.984 266.388807)scale(0.176 -0.176)">
       <use xlink:href="#ArialMT-48"/>
       <use x="55.615234" xlink:href="#ArialMT-46"/>
       <use x="83.398438" xlink:href="#ArialMT-53"/>
      </g>
     </g>
    </g>
    <g id="ytick_3">
     <g id="line2d_13">
      <g>
       <use style="fill:#262626;stroke:#262626;" x="61.648" xlink:href="#m4c9457bd66" y="192.282421"/>
      </g>
     </g>
     <g id="text_14">
      <!-- 1 -->
      <g style="fill:#262626;" transform="translate(44.66075 198.581296)scale(0.176 -0.176)">
       <use xlink:href="#ArialMT-49"/>
      </g>
     </g>
    </g>
    <g id="ytick_4">
     <g id="line2d_14">
      <g>
       <use style="fill:#262626;stroke:#262626;" x="61.648" xlink:href="#m4c9457bd66" y="124.474911"/>
      </g>
     </g>
     <g id="text_15">
      <!-- 1.5 -->
      <g style="fill:#262626;" transform="translate(29.984 130.773786)scale(0.176 -0.176)">
       <use xlink:href="#ArialMT-49"/>
       <use x="55.615234" xlink:href="#ArialMT-46"/>
       <use x="83.398438" xlink:href="#ArialMT-53"/>
      </g>
     </g>
    </g>
    <g id="ytick_5">
     <g id="line2d_15">
      <g>
       <use style="fill:#262626;stroke:#262626;" x="61.648" xlink:href="#m4c9457bd66" y="56.6674"/>
      </g>
     </g>
     <g id="text_16">
      <!-- 2 -->
      <g style="fill:#262626;" transform="translate(44.66075 62.966275)scale(0.176 -0.176)">
       <use xlink:href="#ArialMT-50"/>
      </g>
     </g>
    </g>
    <g id="ytick_6">
     <g id="line2d_16">
      <defs>
       <path d="M 0 0
L -3.2 0
" id="m65f2ecb4d7" style="stroke:#262626;stroke-width:0.8;"/>
      </defs>
      <g>
       <use style="fill:#262626;stroke:#262626;stroke-width:0.8;" x="61.648" xlink:href="#m65f2ecb4d7" y="293.993687"/>
      </g>
     </g>
    </g>
    <g id="ytick_7">
     <g id="line2d_17">
      <g>
       <use style="fill:#262626;stroke:#262626;stroke-width:0.8;" x="61.648" xlink:href="#m65f2ecb4d7" y="226.186176"/>
      </g>
     </g>
    </g>
    <g id="ytick_8">
     <g id="line2d_18">
      <g>
       <use style="fill:#262626;stroke:#262626;stroke-width:0.8;" x="61.648" xlink:href="#m65f2ecb4d7" y="158.378666"/>
      </g>
     </g>
    </g>
    <g id="ytick_9">
     <g id="line2d_19">
      <g>
       <use style="fill:#262626;stroke:#262626;stroke-width:0.8;" x="61.648" xlink:href="#m65f2ecb4d7" y="90.571156"/>
      </g>
     </g>
    </g>
    <g id="ytick_10">
     <g id="line2d_20">
      <g>
       <use style="fill:#262626;stroke:#262626;stroke-width:0.8;" x="61.648" xlink:href="#m65f2ecb4d7" y="22.763645"/>
      </g>
     </g>
    </g>
    <g id="text_17">
     <!-- Kullback–Leibler Divergence -->
     <defs>
      <path d="M 7.328125 0
L 7.328125 71.578125
L 16.796875 71.578125
L 16.796875 36.078125
L 52.34375 71.578125
L 65.1875 71.578125
L 35.15625 42.578125
L 66.5 0
L 54 0
L 28.515625 36.234375
L 16.796875 24.8125
L 16.796875 0
z
" id="ArialMT-75"/>
      <path d="M 40.4375 19
L 49.078125 17.875
Q 47.65625 8.9375 41.8125 3.875
Q 35.984375 -1.171875 27.484375 -1.171875
Q 16.84375 -1.171875 10.375 5.78125
Q 3.90625 12.75 3.90625 25.734375
Q 3.90625 34.125 6.6875 40.421875
Q 9.46875 46.734375 15.15625 49.875
Q 20.84375 53.03125 27.546875 53.03125
Q 35.984375 53.03125 41.359375 48.75
Q 46.734375 44.484375 48.25 36.625
L 39.703125 35.296875
Q 38.484375 40.53125 35.375 43.15625
Q 32.28125 45.796875 27.875 45.796875
Q 21.234375 45.796875 17.078125 41.03125
Q 12.9375 36.28125 12.9375 25.984375
Q 12.9375 15.53125 16.9375 10.796875
Q 20.953125 6.0625 27.390625 6.0625
Q 32.5625 6.0625 36.03125 9.234375
Q 39.5 12.40625 40.4375 19
z
" id="ArialMT-99"/>
      <path d="M 6.640625 0
L 6.640625 71.578125
L 15.4375 71.578125
L 15.4375 30.765625
L 36.234375 51.859375
L 47.609375 51.859375
L 27.78125 32.625
L 49.609375 0
L 38.765625 0
L 21.625 26.515625
L 15.4375 20.5625
L 15.4375 0
z
" id="ArialMT-107"/>
      <path d="M -0.203125 22.359375
L -0.203125 29.4375
L 55.421875 29.4375
L 55.421875 22.359375
z
" id="ArialMT-8211"/>
      <path d="M 7.328125 0
L 7.328125 71.578125
L 16.796875 71.578125
L 16.796875 8.453125
L 52.046875 8.453125
L 52.046875 0
z
" id="ArialMT-76"/>
      <path d="M 6.640625 61.46875
L 6.640625 71.578125
L 15.4375 71.578125
L 15.4375 61.46875
z
M 6.640625 0
L 6.640625 51.859375
L 15.4375 51.859375
L 15.4375 0
z
" id="ArialMT-105"/>
      <path d="M 7.71875 0
L 7.71875 71.578125
L 32.375 71.578125
Q 40.71875 71.578125 45.125 70.5625
Q 51.265625 69.140625 55.609375 65.4375
Q 61.28125 60.640625 64.078125 53.1875
Q 66.890625 45.75 66.890625 36.1875
Q 66.890625 28.03125 64.984375 21.734375
Q 63.09375 15.4375 60.109375 11.296875
Q 57.125 7.171875 53.578125 4.796875
Q 50.046875 2.4375 45.046875 1.21875
Q 40.046875 0 33.546875 0
z
M 17.1875 8.453125
L 32.46875 8.453125
Q 39.546875 8.453125 43.578125 9.765625
Q 47.609375 11.078125 50 13.484375
Q 53.375 16.84375 55.25 22.53125
Q 57.125 28.21875 57.125 36.328125
Q 57.125 47.5625 53.4375 53.59375
Q 49.75 59.625 44.484375 61.671875
Q 40.671875 63.140625 32.234375 63.140625
L 17.1875 63.140625
z
" id="ArialMT-68"/>
      <path d="M 4.984375 -4.296875
L 13.53125 -5.5625
Q 14.0625 -9.515625 16.5 -11.328125
Q 19.78125 -13.765625 25.4375 -13.765625
Q 31.546875 -13.765625 34.859375 -11.328125
Q 38.1875 -8.890625 39.359375 -4.5
Q 40.046875 -1.8125 39.984375 6.78125
Q 34.234375 0 25.640625 0
Q 14.9375 0 9.078125 7.71875
Q 3.21875 15.4375 3.21875 26.21875
Q 3.21875 33.640625 5.90625 39.90625
Q 8.59375 46.1875 13.6875 49.609375
Q 18.796875 53.03125 25.6875 53.03125
Q 34.859375 53.03125 40.828125 45.609375
L 40.828125 51.859375
L 48.921875 51.859375
L 48.921875 7.03125
Q 48.921875 -5.078125 46.453125 -10.125
Q 44 -15.1875 38.640625 -18.109375
Q 33.296875 -21.046875 25.484375 -21.046875
Q 16.21875 -21.046875 10.5 -16.875
Q 4.78125 -12.703125 4.984375 -4.296875
z
M 12.25 26.859375
Q 12.25 16.65625 16.296875 11.96875
Q 20.359375 7.28125 26.46875 7.28125
Q 32.515625 7.28125 36.609375 11.9375
Q 40.71875 16.609375 40.71875 26.5625
Q 40.71875 36.078125 36.5 40.90625
Q 32.28125 45.75 26.3125 45.75
Q 20.453125 45.75 16.34375 40.984375
Q 12.25 36.234375 12.25 26.859375
z
" id="ArialMT-103"/>
      <path d="M 6.59375 0
L 6.59375 51.859375
L 14.5 51.859375
L 14.5 44.484375
Q 20.21875 53.03125 31 53.03125
Q 35.6875 53.03125 39.625 51.34375
Q 43.5625 49.65625 45.515625 46.921875
Q 47.46875 44.1875 48.25 40.4375
Q 48.734375 37.984375 48.734375 31.890625
L 48.734375 0
L 39.9375 0
L 39.9375 31.546875
Q 39.9375 36.921875 38.90625 39.578125
Q 37.890625 42.234375 35.28125 43.8125
Q 32.671875 45.40625 29.15625 45.40625
Q 23.53125 45.40625 19.453125 41.84375
Q 15.375 38.28125 15.375 28.328125
L 15.375 0
z
" id="ArialMT-110"/>
     </defs>
     <g style="fill:#262626;" transform="translate(20.943 293.022)rotate(-90)scale(0.192 -0.192)">
      <use xlink:href="#ArialMT-75"/>
      <use x="66.699219" xlink:href="#ArialMT-117"/>
      <use x="122.314453" xlink:href="#ArialMT-108"/>
      <use x="144.53125" xlink:href="#ArialMT-108"/>
      <use x="166.748047" xlink:href="#ArialMT-98"/>
      <use x="222.363281" xlink:href="#ArialMT-97"/>
      <use x="277.978516" xlink:href="#ArialMT-99"/>
      <use x="327.978516" xlink:href="#ArialMT-107"/>
      <use x="377.978516" xlink:href="#ArialMT-8211"/>
      <use x="433.59375" xlink:href="#ArialMT-76"/>
      <use x="489.208984" xlink:href="#ArialMT-101"/>
      <use x="544.824219" xlink:href="#ArialMT-105"/>
      <use x="567.041016" xlink:href="#ArialMT-98"/>
      <use x="622.65625" xlink:href="#ArialMT-108"/>
      <use x="644.873047" xlink:href="#ArialMT-101"/>
      <use x="700.488281" xlink:href="#ArialMT-114"/>
      <use x="733.789062" xlink:href="#ArialMT-32"/>
      <use x="761.572266" xlink:href="#ArialMT-68"/>
      <use x="833.789062" xlink:href="#ArialMT-105"/>
      <use x="856.005859" xlink:href="#ArialMT-118"/>
      <use x="906.005859" xlink:href="#ArialMT-101"/>
      <use x="961.621094" xlink:href="#ArialMT-114"/>
      <use x="994.921875" xlink:href="#ArialMT-103"/>
      <use x="1050.537109" xlink:href="#ArialMT-101"/>
      <use x="1106.152344" xlink:href="#ArialMT-110"/>
      <use x="1161.767578" xlink:href="#ArialMT-99"/>
      <use x="1211.767578" xlink:href="#ArialMT-101"/>
     </g>
    </g>
   </g>
   <g id="PathCollection_1">
    <path clip-path="url(#p7572d2cb8e)" d="M 94.471529 327.821794
C 95.294135 327.821794 96.083159 327.49497 96.664829 326.9133
C 97.246499 326.33163 97.573324 325.542605 97.573324 324.72
C 97.573324 323.897395 97.246499 323.10837 96.664829 322.5267
C 96.083159 321.94503 95.294135 321.618206 94.471529 321.618206
C 93.648924 321.618206 92.8599 321.94503 92.27823 322.5267
C 91.69656 323.10837 91.369735 323.897395 91.369735 324.72
C 91.369735 325.542605 91.69656 326.33163 92.27823 326.9133
C 92.8599 327.49497 93.648924 327.821794 94.471529 327.821794
z
" style="fill:#a6cee3;stroke:#a6cee3;stroke-width:0.886227;"/>
    <path clip-path="url(#p7572d2cb8e)" d="M 94.471529 266.780418
C 95.294135 266.780418 96.083159 266.453594 96.664829 265.871924
C 97.246499 265.290254 97.573324 264.501229 97.573324 263.678624
C 97.573324 262.856019 97.246499 262.066994 96.664829 261.485324
C 96.083159 260.903654 95.294135 260.57683 94.471529 260.57683
C 93.648924 260.57683 92.8599 260.903654 92.27823 261.485324
C 91.69656 262.066994 91.369735 262.856019 91.369735 263.678624
C 91.369735 264.501229 91.69656 265.290254 92.27823 265.871924
C 92.8599 266.453594 93.648924 266.780418 94.471529 266.780418
z
" style="fill:#1f78b4;stroke:#1f78b4;stroke-width:0.886227;"/>
    <path clip-path="url(#p7572d2cb8e)" d="M 94.471529 291.09989
C 95.294135 291.09989 96.083159 290.773065 96.664829 290.191395
C 97.246499 289.609725 97.573324 288.820701 97.573324 287.998095
C 97.573324 287.17549 97.246499 286.386466 96.664829 285.804796
C 96.083159 285.223126 95.294135 284.896301 94.471529 284.896301
C 93.648924 284.896301 92.8599 285.223126 92.27823 285.804796
C 91.69656 286.386466 91.369735 287.17549 91.369735 287.998095
C 91.369735 288.820701 91.69656 289.609725 92.27823 290.191395
C 92.8599 290.773065 93.648924 291.09989 94.471529 291.09989
z
" style="fill:#b2df8a;stroke:#b2df8a;stroke-width:0.886227;"/>
    <path clip-path="url(#p7572d2cb8e)" d="M 149.177412 325.909859
C 150.000017 325.909859 150.789042 325.583034 151.370712 325.001364
C 151.952381 324.419694 152.279206 323.63067 152.279206 322.808064
C 152.279206 321.985459 151.952381 321.196435 151.370712 320.614765
C 150.789042 320.033095 150.000017 319.70627 149.177412 319.70627
C 148.354806 319.70627 147.565782 320.033095 146.984112 320.614765
C 146.402442 321.196435 146.075618 321.985459 146.075618 322.808064
C 146.075618 323.63067 146.402442 324.419694 146.984112 325.001364
C 147.565782 325.583034 148.354806 325.909859 149.177412 325.909859
z
" style="fill:#a6cee3;stroke:#a6cee3;stroke-width:0.886227;"/>
    <path clip-path="url(#p7572d2cb8e)" d="M 149.177412 244.325558
C 150.000017 244.325558 150.789042 243.998734 151.370712 243.417064
C 151.952381 242.835394 152.279206 242.04637 152.279206 241.223764
C 152.279206 240.401159 151.952381 239.612134 151.370712 239.030464
C 150.789042 238.448794 150.000017 238.12197 149.177412 238.12197
C 148.354806 238.12197 147.565782 238.448794 146.984112 239.030464
C 146.402442 239.612134 146.075618 240.401159 146.075618 241.223764
C 146.075618 242.04637 146.402442 242.835394 146.984112 243.417064
C 147.565782 243.998734 148.354806 244.325558 149.177412 244.325558
z
" style="fill:#1f78b4;stroke:#1f78b4;stroke-width:0.886227;"/>
    <path clip-path="url(#p7572d2cb8e)" d="M 149.177412 268.733342
C 150.000017 268.733342 150.789042 268.406517 151.370712 267.824847
C 151.952381 267.243177 152.279206 266.454153 152.279206 265.631547
C 152.279206 264.808942 151.952381 264.019917 151.370712 263.438248
C 150.789042 262.856578 150.000017 262.529753 149.177412 262.529753
C 148.354806 262.529753 147.565782 262.856578 146.984112 263.438248
C 146.402442 264.019917 146.075618 264.808942 146.075618 265.631547
C 146.075618 266.454153 146.402442 267.243177 146.984112 267.824847
C 147.565782 268.406517 148.354806 268.733342 149.177412 268.733342
z
" style="fill:#b2df8a;stroke:#b2df8a;stroke-width:0.886227;"/>
    <path clip-path="url(#p7572d2cb8e)" d="M 203.883294 324.574471
C 204.7059 324.574471 205.494924 324.247647 206.076594 323.665977
C 206.658264 323.084307 206.985088 322.295282 206.985088 321.472677
C 206.985088 320.650071 206.658264 319.861047 206.076594 319.279377
C 205.494924 318.697707 204.7059 318.370883 203.883294 318.370883
C 203.060689 318.370883 202.271664 318.697707 201.689994 319.279377
C 201.108324 319.861047 200.7815 320.650071 200.7815 321.472677
C 200.7815 322.295282 201.108324 323.084307 201.689994 323.665977
C 202.271664 324.247647 203.060689 324.574471 203.883294 324.574471
z
" style="fill:#a6cee3;stroke:#a6cee3;stroke-width:0.886227;"/>
    <path clip-path="url(#p7572d2cb8e)" d="M 203.883294 226.082053
C 204.7059 226.082053 205.494924 225.755228 206.076594 225.173559
C 206.658264 224.591889 206.985088 223.802864 206.985088 222.980259
C 206.985088 222.157653 206.658264 221.368629 206.076594 220.786959
C 205.494924 220.205289 204.7059 219.878465 203.883294 219.878465
C 203.060689 219.878465 202.271664 220.205289 201.689994 220.786959
C 201.108324 221.368629 200.7815 222.157653 200.7815 222.980259
C 200.7815 223.802864 201.108324 224.591889 201.689994 225.173559
C 202.271664 225.755228 203.060689 226.082053 203.883294 226.082053
z
" style="fill:#1f78b4;stroke:#1f78b4;stroke-width:0.886227;"/>
    <path clip-path="url(#p7572d2cb8e)" d="M 203.883294 257.497016
C 204.7059 257.497016 205.494924 257.170191 206.076594 256.588521
C 206.658264 256.006852 206.985088 255.217827 206.985088 254.395222
C 206.985088 253.572616 206.658264 252.783592 206.076594 252.201922
C 205.494924 251.620252 204.7059 251.293427 203.883294 251.293427
C 203.060689 251.293427 202.271664 251.620252 201.689994 252.201922
C 201.108324 252.783592 200.7815 253.572616 200.7815 254.395222
C 200.7815 255.217827 201.108324 256.006852 201.689994 256.588521
C 202.271664 257.170191 203.060689 257.497016 203.883294 257.497016
z
" style="fill:#b2df8a;stroke:#b2df8a;stroke-width:0.886227;"/>
    <path clip-path="url(#p7572d2cb8e)" d="M 258.589176 306.859126
C 259.411782 306.859126 260.200806 306.532301 260.782476 305.950631
C 261.364146 305.368961 261.690971 304.579937 261.690971 303.757331
C 261.690971 302.934726 261.364146 302.145702 260.782476 301.564032
C 260.200806 300.982362 259.411782 300.655537 258.589176 300.655537
C 257.766571 300.655537 256.977547 300.982362 256.395877 301.564032
C 255.814207 302.145702 255.487382 302.934726 255.487382 303.757331
C 255.487382 304.579937 255.814207 305.368961 256.395877 305.950631
C 256.977547 306.532301 257.766571 306.859126 258.589176 306.859126
z
" style="fill:#a6cee3;stroke:#a6cee3;stroke-width:0.886227;"/>
    <path clip-path="url(#p7572d2cb8e)" d="M 258.589176 211.351143
C 259.411782 211.351143 260.200806 211.024318 260.782476 210.442648
C 261.364146 209.860978 261.690971 209.071954 261.690971 208.249349
C 261.690971 207.426743 261.364146 206.637719 260.782476 206.056049
C 260.200806 205.474379 259.411782 205.147554 258.589176 205.147554
C 257.766571 205.147554 256.977547 205.474379 256.395877 206.056049
C 255.814207 206.637719 255.487382 207.426743 255.487382 208.249349
C 255.487382 209.071954 255.814207 209.860978 256.395877 210.442648
C 256.977547 211.024318 257.766571 211.351143 258.589176 211.351143
z
" style="fill:#1f78b4;stroke:#1f78b4;stroke-width:0.886227;"/>
    <path clip-path="url(#p7572d2cb8e)" d="M 258.589176 244.977451
C 259.411782 244.977451 260.200806 244.650626 260.782476 244.068957
C 261.364146 243.487287 261.690971 242.698262 261.690971 241.875657
C 261.690971 241.053051 261.364146 240.264027 260.782476 239.682357
C 260.200806 239.100687 259.411782 238.773863 258.589176 238.773863
C 257.766571 238.773863 256.977547 239.100687 256.395877 239.682357
C 255.814207 240.264027 255.487382 241.053051 255.487382 241.875657
C 255.487382 242.698262 255.814207 243.487287 256.395877 244.068957
C 256.977547 244.650626 257.766571 244.977451 258.589176 244.977451
z
" style="fill:#b2df8a;stroke:#b2df8a;stroke-width:0.886227;"/>
    <path clip-path="url(#p7572d2cb8e)" d="M 313.295059 301.527093
C 314.117664 301.527093 314.906689 301.200269 315.488359 300.618599
C 316.070028 300.036929 316.396853 299.247905 316.396853 298.425299
C 316.396853 297.602694 316.070028 296.813669 315.488359 296.231999
C 314.906689 295.65033 314.117664 295.323505 313.295059 295.323505
C 312.472453 295.323505 311.683429 295.65033 311.101759 296.231999
C 310.520089 296.813669 310.193265 297.602694 310.193265 298.425299
C 310.193265 299.247905 310.520089 300.036929 311.101759 300.618599
C 311.683429 301.200269 312.472453 301.527093 313.295059 301.527093
z
" style="fill:#a6cee3;stroke:#a6cee3;stroke-width:0.886227;"/>
    <path clip-path="url(#p7572d2cb8e)" d="M 313.295059 198.911618
C 314.117664 198.911618 314.906689 198.584793 315.488359 198.003123
C 316.070028 197.421454 316.396853 196.632429 316.396853 195.809824
C 316.396853 194.987218 316.070028 194.198194 315.488359 193.616524
C 314.906689 193.034854 314.117664 192.70803 313.295059 192.70803
C 312.472453 192.70803 311.683429 193.034854 311.101759 193.616524
C 310.520089 194.198194 310.193265 194.987218 310.193265 195.809824
C 310.193265 196.632429 310.520089 197.421454 311.101759 198.003123
C 311.683429 198.584793 312.472453 198.911618 313.295059 198.911618
z
" style="fill:#1f78b4;stroke:#1f78b4;stroke-width:0.886227;"/>
    <path clip-path="url(#p7572d2cb8e)" d="M 313.295059 236.082891
C 314.117664 236.082891 314.906689 235.756066 315.488359 235.174396
C 316.070028 234.592726 316.396853 233.803702 316.396853 232.981096
C 316.396853 232.158491 316.070028 231.369467 315.488359 230.787797
C 314.906689 230.206127 314.117664 229.879302 313.295059 229.879302
C 312.472453 229.879302 311.683429 230.206127 311.101759 230.787797
C 310.520089 231.369467 310.193265 232.158491 310.193265 232.981096
C 310.193265 233.803702 310.520089 234.592726 311.101759 235.174396
C 311.683429 235.756066 312.472453 236.082891 313.295059 236.082891
z
" style="fill:#b2df8a;stroke:#b2df8a;stroke-width:0.886227;"/>
    <path clip-path="url(#p7572d2cb8e)" d="M 368.000941 280.886885
C 368.823547 280.886885 369.612571 280.560061 370.194241 279.978391
C 370.775911 279.396721 371.102735 278.607697 371.102735 277.785091
C 371.102735 276.962486 370.775911 276.173461 370.194241 275.591791
C 369.612571 275.010122 368.823547 274.683297 368.000941 274.683297
C 367.178336 274.683297 366.389311 275.010122 365.807641 275.591791
C 365.225972 276.173461 364.899147 276.962486 364.899147 277.785091
C 364.899147 278.607697 365.225972 279.396721 365.807641 279.978391
C 366.389311 280.560061 367.178336 280.886885 368.000941 280.886885
z
" style="fill:#a6cee3;stroke:#a6cee3;stroke-width:0.886227;"/>
    <path clip-path="url(#p7572d2cb8e)" d="M 368.000941 171.966926
C 368.823547 171.966926 369.612571 171.640101 370.194241 171.058432
C 370.775911 170.476762 371.102735 169.687737 371.102735 168.865132
C 371.102735 168.042526 370.775911 167.253502 370.194241 166.671832
C 369.612571 166.090162 368.823547 165.763338 368.000941 165.763338
C 367.178336 165.763338 366.389311 166.090162 365.807641 166.671832
C 365.225972 167.253502 364.899147 168.042526 364.899147 168.865132
C 364.899147 169.687737 365.225972 170.476762 365.807641 171.058432
C 366.389311 171.640101 367.178336 171.966926 368.000941 171.966926
z
" style="fill:#1f78b4;stroke:#1f78b4;stroke-width:0.886227;"/>
    <path clip-path="url(#p7572d2cb8e)" d="M 368.000941 204.644086
C 368.823547 204.644086 369.612571 204.317261 370.194241 203.735591
C 370.775911 203.153921 371.102735 202.364897 371.102735 201.542291
C 371.102735 200.719686 370.775911 199.930662 370.194241 199.348992
C 369.612571 198.767322 368.823547 198.440497 368.000941 198.440497
C 367.178336 198.440497 366.389311 198.767322 365.807641 199.348992
C 365.225972 199.930662 364.899147 200.719686 364.899147 201.542291
C 364.899147 202.364897 365.225972 203.153921 365.807641 203.735591
C 366.389311 204.317261 367.178336 204.644086 368.000941 204.644086
z
" style="fill:#b2df8a;stroke:#b2df8a;stroke-width:0.886227;"/>
    <path clip-path="url(#p7572d2cb8e)" d="M 422.706824 269.556482
C 423.529429 269.556482 424.318453 269.229657 424.900123 268.647987
C 425.481793 268.066317 425.808618 267.277293 425.808618 266.454687
C 425.808618 265.632082 425.481793 264.843057 424.900123 264.261388
C 424.318453 263.679718 423.529429 263.352893 422.706824 263.352893
C 421.884218 263.352893 421.095194 263.679718 420.513524 264.261388
C 419.931854 264.843057 419.605029 265.632082 419.605029 266.454687
C 419.605029 267.277293 419.931854 268.066317 420.513524 268.647987
C 421.095194 269.229657 421.884218 269.556482 422.706824 269.556482
z
" style="fill:#a6cee3;stroke:#a6cee3;stroke-width:0.886227;"/>
    <path clip-path="url(#p7572d2cb8e)" d="M 422.706824 129.946304
C 423.529429 129.946304 424.318453 129.619479 424.900123 129.037809
C 425.481793 128.456139 425.808618 127.667115 425.808618 126.844509
C 425.808618 126.021904 425.481793 125.23288 424.900123 124.65121
C 424.318453 124.06954 423.529429 123.742715 422.706824 123.742715
C 421.884218 123.742715 421.095194 124.06954 420.513524 124.65121
C 419.931854 125.23288 419.605029 126.021904 419.605029 126.844509
C 419.605029 127.667115 419.931854 128.456139 420.513524 129.037809
C 421.095194 129.619479 421.884218 129.946304 422.706824 129.946304
z
" style="fill:#1f78b4;stroke:#1f78b4;stroke-width:0.886227;"/>
    <path clip-path="url(#p7572d2cb8e)" d="M 422.706824 173.70656
C 423.529429 173.70656 424.318453 173.379735 424.900123 172.798066
C 425.481793 172.216396 425.808618 171.427371 425.808618 170.604766
C 425.808618 169.78216 425.481793 168.993136 424.900123 168.411466
C 424.318453 167.829796 423.529429 167.502972 422.706824 167.502972
C 421.884218 167.502972 421.095194 167.829796 420.513524 168.411466
C 419.931854 168.993136 419.605029 169.78216 419.605029 170.604766
C 419.605029 171.427371 419.931854 172.216396 420.513524 172.798066
C 421.095194 173.379735 421.884218 173.70656 422.706824 173.70656
z
" style="fill:#b2df8a;stroke:#b2df8a;stroke-width:0.886227;"/>
    <path clip-path="url(#p7572d2cb8e)" d="M 477.412706 251.055429
C 478.235311 251.055429 479.024336 250.728605 479.606006 250.146935
C 480.187676 249.565265 480.5145 248.77624 480.5145 247.953635
C 480.5145 247.13103 480.187676 246.342005 479.606006 245.760335
C 479.024336 245.178665 478.235311 244.851841 477.412706 244.851841
C 476.5901 244.851841 475.801076 245.178665 475.219406 245.760335
C 474.637736 246.342005 474.310912 247.13103 474.310912 247.953635
C 474.310912 248.77624 474.637736 249.565265 475.219406 250.146935
C 475.801076 250.728605 476.5901 251.055429 477.412706 251.055429
z
" style="fill:#a6cee3;stroke:#a6cee3;stroke-width:0.886227;"/>
    <path clip-path="url(#p7572d2cb8e)" d="M 477.412706 110.9836
C 478.235311 110.9836 479.024336 110.656776 479.606006 110.075106
C 480.187676 109.493436 480.5145 108.704412 480.5145 107.881806
C 480.5145 107.059201 480.187676 106.270176 479.606006 105.688506
C 479.024336 105.106836 478.235311 104.780012 477.412706 104.780012
C 476.5901 104.780012 475.801076 105.106836 475.219406 105.688506
C 474.637736 106.270176 474.310912 107.059201 474.310912 107.881806
C 474.310912 108.704412 474.637736 109.493436 475.219406 110.075106
C 475.801076 110.656776 476.5901 110.9836 477.412706 110.9836
z
" style="fill:#1f78b4;stroke:#1f78b4;stroke-width:0.886227;"/>
    <path clip-path="url(#p7572d2cb8e)" d="M 477.412706 147.381313
C 478.235311 147.381313 479.024336 147.054489 479.606006 146.472819
C 480.187676 145.891149 480.5145 145.102124 480.5145 144.279519
C 480.5145 143.456914 480.187676 142.667889 479.606006 142.086219
C 479.024336 141.504549 478.235311 141.177725 477.412706 141.177725
C 476.5901 141.177725 475.801076 141.504549 475.219406 142.086219
C 474.637736 142.667889 474.310912 143.456914 474.310912 144.279519
C 474.310912 145.102124 474.637736 145.891149 475.219406 146.472819
C 475.801076 147.054489 476.5901 147.381313 477.412706 147.381313
z
" style="fill:#b2df8a;stroke:#b2df8a;stroke-width:0.886227;"/>
    <path clip-path="url(#p7572d2cb8e)" d="M 532.118588 223.754735
C 532.941194 223.754735 533.730218 223.42791 534.311888 222.84624
C 534.893558 222.26457 535.220382 221.475546 535.220382 220.652941
C 535.220382 219.830335 534.893558 219.041311 534.311888 218.459641
C 533.730218 217.877971 532.941194 217.551146 532.118588 217.551146
C 531.295983 217.551146 530.506958 217.877971 529.925288 218.459641
C 529.343619 219.041311 529.016794 219.830335 529.016794 220.652941
C 529.016794 221.475546 529.343619 222.26457 529.925288 222.84624
C 530.506958 223.42791 531.295983 223.754735 532.118588 223.754735
z
" style="fill:#a6cee3;stroke:#a6cee3;stroke-width:0.886227;"/>
    <path clip-path="url(#p7572d2cb8e)" d="M 532.118588 67.834905
C 532.941194 67.834905 533.730218 67.50808 534.311888 66.92641
C 534.893558 66.34474 535.220382 65.555716 535.220382 64.73311
C 535.220382 63.910505 534.893558 63.121481 534.311888 62.539811
C 533.730218 61.958141 532.941194 61.631316 532.118588 61.631316
C 531.295983 61.631316 530.506958 61.958141 529.925288 62.539811
C 529.343619 63.121481 529.016794 63.910505 529.016794 64.73311
C 529.016794 65.555716 529.343619 66.34474 529.925288 66.92641
C 530.506958 67.50808 531.295983 67.834905 532.118588 67.834905
z
" style="fill:#1f78b4;stroke:#1f78b4;stroke-width:0.886227;"/>
    <path clip-path="url(#p7572d2cb8e)" d="M 532.118588 117.996715
C 532.941194 117.996715 533.730218 117.669891 534.311888 117.088221
C 534.893558 116.506551 535.220382 115.717526 535.220382 114.894921
C 535.220382 114.072315 534.893558 113.283291 534.311888 112.701621
C 533.730218 112.119951 532.941194 111.793127 532.118588 111.793127
C 531.295983 111.793127 530.506958 112.119951 529.925288 112.701621
C 529.343619 113.283291 529.016794 114.072315 529.016794 114.894921
C 529.016794 115.717526 529.343619 116.506551 529.925288 117.088221
C 530.506958 117.669891 531.295983 117.996715 532.118588 117.996715
z
" style="fill:#b2df8a;stroke:#b2df8a;stroke-width:0.886227;"/>
    <path clip-path="url(#p7572d2cb8e)" d="M 586.824471 182.650328
C 587.647076 182.650328 588.4361 182.323503 589.01777 181.741833
C 589.59944 181.160163 589.926265 180.371139 589.926265 179.548533
C 589.926265 178.725928 589.59944 177.936903 589.01777 177.355234
C 588.4361 176.773564 587.647076 176.446739 586.824471 176.446739
C 586.001865 176.446739 585.212841 176.773564 584.631171 177.355234
C 584.049501 177.936903 583.722676 178.725928 583.722676 179.548533
C 583.722676 180.371139 584.049501 181.160163 584.631171 181.741833
C 585.212841 182.323503 586.001865 182.650328 586.824471 182.650328
z
" style="fill:#a6cee3;stroke:#a6cee3;stroke-width:0.886227;"/>
    <path clip-path="url(#p7572d2cb8e)" d="M 586.824471 25.421794
C 587.647076 25.421794 588.4361 25.09497 589.01777 24.5133
C 589.59944 23.93163 589.926265 23.142605 589.926265 22.32
C 589.926265 21.497395 589.59944 20.70837 589.01777 20.1267
C 588.4361 19.54503 587.647076 19.218206 586.824471 19.218206
C 586.001865 19.218206 585.212841 19.54503 584.631171 20.1267
C 584.049501 20.70837 583.722676 21.497395 583.722676 22.32
C 583.722676 23.142605 584.049501 23.93163 584.631171 24.5133
C 585.212841 25.09497 586.001865 25.421794 586.824471 25.421794
z
" style="fill:#1f78b4;stroke:#1f78b4;stroke-width:0.886227;"/>
    <path clip-path="url(#p7572d2cb8e)" d="M 586.824471 48.439036
C 587.647076 48.439036 588.4361 48.112211 589.01777 47.530542
C 589.59944 46.948872 589.926265 46.159847 589.926265 45.337242
C 589.926265 44.514636 589.59944 43.725612 589.01777 43.143942
C 588.4361 42.562272 587.647076 42.235448 586.824471 42.235448
C 586.001865 42.235448 585.212841 42.562272 584.631171 43.143942
C 584.049501 43.725612 583.722676 44.514636 583.722676 45.337242
C 583.722676 46.159847 584.049501 46.948872 584.631171 47.530542
C 585.212841 48.112211 586.001865 48.439036 586.824471 48.439036
z
" style="fill:#b2df8a;stroke:#b2df8a;stroke-width:0.886227;"/>
   </g>
   <g id="line2d_21">
    <path clip-path="url(#p7572d2cb8e)" d="M 94.471529 287.998095
L 149.177412 265.631547
L 203.883294 254.395222
L 258.589176 241.875657
L 313.295059 232.981096
L 368.000941 201.542291
L 422.706824 170.604766
L 477.412706 144.279519
L 532.118588 114.894921
L 586.824471 45.337242
" style="fill:none;stroke:#b2df8a;stroke-dasharray:3.27904,1.417963;stroke-dashoffset:0;stroke-width:0.886227;"/>
   </g>
   <g id="line2d_22">
    <path clip-path="url(#p7572d2cb8e)" d="M 94.471529 263.678624
L 149.177412 241.223764
L 203.883294 222.980259
L 258.589176 208.249349
L 313.295059 195.809824
L 368.000941 168.865132
L 422.706824 126.844509
L 477.412706 107.881806
L 532.118588 64.73311
L 586.824471 22.32
" style="fill:none;stroke:#1f78b4;stroke-dasharray:3.27904,1.417963;stroke-dashoffset:0;stroke-width:0.886227;"/>
   </g>
   <g id="line2d_23">
    <path clip-path="url(#p7572d2cb8e)" d="M 94.471529 324.72
L 149.177412 322.808064
L 203.883294 321.472677
L 258.589176 303.757331
L 313.295059 298.425299
L 368.000941 277.785091
L 422.706824 266.454687
L 477.412706 247.953635
L 532.118588 220.652941
L 586.824471 179.548533
" style="fill:none;stroke:#a6cee3;stroke-dasharray:3.27904,1.417963;stroke-dashoffset:0;stroke-width:0.886227;"/>
   </g>
   <g id="patch_3">
    <path d="M 61.648 339.84
L 61.648 7.2
" style="fill:none;stroke:#262626;stroke-linecap:square;stroke-linejoin:miter;"/>
   </g>
   <g id="patch_4">
    <path d="M 619.648 339.84
L 619.648 7.2
" style="fill:none;stroke:#262626;stroke-linecap:square;stroke-linejoin:miter;"/>
   </g>
   <g id="patch_5">
    <path d="M 61.648 339.84
L 619.648 339.84
" style="fill:none;stroke:#262626;stroke-linecap:square;stroke-linejoin:miter;"/>
   </g>
   <g id="patch_6">
    <path d="M 61.648 7.2
L 619.648 7.2
" style="fill:none;stroke:#262626;stroke-linecap:square;stroke-linejoin:miter;"/>
   </g>
   <g id="text_18">
    <!-- Comparison -->
    <defs>
     <path d="M 58.796875 25.09375
L 68.265625 22.703125
Q 65.28125 11.03125 57.546875 4.90625
Q 49.8125 -1.21875 38.625 -1.21875
Q 27.046875 -1.21875 19.796875 3.484375
Q 12.546875 8.203125 8.765625 17.140625
Q 4.984375 26.078125 4.984375 36.328125
Q 4.984375 47.515625 9.25 55.828125
Q 13.53125 64.15625 21.40625 68.46875
Q 29.296875 72.796875 38.765625 72.796875
Q 49.515625 72.796875 56.828125 67.328125
Q 64.15625 61.859375 67.046875 51.953125
L 57.71875 49.75
Q 55.21875 57.5625 50.484375 61.125
Q 45.75 64.703125 38.578125 64.703125
Q 30.328125 64.703125 24.78125 60.734375
Q 19.234375 56.78125 16.984375 50.109375
Q 14.75 43.453125 14.75 36.375
Q 14.75 27.25 17.40625 20.4375
Q 20.0625 13.625 25.671875 10.25
Q 31.296875 6.890625 37.84375 6.890625
Q 45.796875 6.890625 51.3125 11.46875
Q 56.84375 16.0625 58.796875 25.09375
z
" id="ArialMT-67"/>
     <path d="M 6.59375 -19.875
L 6.59375 51.859375
L 14.59375 51.859375
L 14.59375 45.125
Q 17.4375 49.078125 21 51.046875
Q 24.5625 53.03125 29.640625 53.03125
Q 36.28125 53.03125 41.359375 49.609375
Q 46.4375 46.1875 49.015625 39.953125
Q 51.609375 33.734375 51.609375 26.3125
Q 51.609375 18.359375 48.75 11.984375
Q 45.90625 5.609375 40.453125 2.21875
Q 35.015625 -1.171875 29 -1.171875
Q 24.609375 -1.171875 21.109375 0.6875
Q 17.625 2.546875 15.375 5.375
L 15.375 -19.875
z
M 14.546875 25.640625
Q 14.546875 15.625 18.59375 10.84375
Q 22.65625 6.0625 28.421875 6.0625
Q 34.28125 6.0625 38.453125 11.015625
Q 42.625 15.96875 42.625 26.375
Q 42.625 36.28125 38.546875 41.203125
Q 34.46875 46.140625 28.8125 46.140625
Q 23.1875 46.140625 18.859375 40.890625
Q 14.546875 35.640625 14.546875 25.640625
z
" id="ArialMT-112"/>
    </defs>
    <g transform="translate(646.848 143.4405)scale(0.192 -0.192)">
     <use xlink:href="#ArialMT-67"/>
     <use x="72.216797" xlink:href="#ArialMT-111"/>
     <use x="127.832031" xlink:href="#ArialMT-109"/>
     <use x="211.132812" xlink:href="#ArialMT-112"/>
     <use x="266.748047" xlink:href="#ArialMT-97"/>
     <use x="322.363281" xlink:href="#ArialMT-114"/>
     <use x="355.664062" xlink:href="#ArialMT-105"/>
     <use x="377.880859" xlink:href="#ArialMT-115"/>
     <use x="427.880859" xlink:href="#ArialMT-111"/>
     <use x="483.496094" xlink:href="#ArialMT-110"/>
    </g>
   </g>
   <g id="patch_7">
    <path clip-path="url(#p73cf4c69c0)" d="M 646.848 173.2565
L 664.848 173.2565
L 664.848 155.2565
L 646.848 155.2565
z
" style="fill:#ffffff;"/>
   </g>
   <g id="line2d_24">
    <path clip-path="url(#p73cf4c69c0)" d="M 655.848 164.2565
" style="fill:none;stroke:#1f77b4;stroke-linecap:round;stroke-width:1.2;"/>
    <defs>
     <path d="M 0 3.101794
C 0.822605 3.101794 1.61163 2.77497 2.1933 2.1933
C 2.77497 1.61163 3.101794 0.822605 3.101794 0
C 3.101794 -0.822605 2.77497 -1.61163 2.1933 -2.1933
C 1.61163 -2.77497 0.822605 -3.101794 0 -3.101794
C -0.822605 -3.101794 -1.61163 -2.77497 -2.1933 -2.1933
C -2.77497 -1.61163 -3.101794 -0.822605 -3.101794 0
C -3.101794 0.822605 -2.77497 1.61163 -2.1933 2.1933
C -1.61163 2.77497 -0.822605 3.101794 0 3.101794
z
" id="m7ed67d4b8b" style="stroke:#b2df8a;stroke-width:0.886227;"/>
    </defs>
    <g clip-path="url(#p73cf4c69c0)">
     <use style="fill:#b2df8a;stroke:#b2df8a;stroke-width:0.886227;" x="655.848" xlink:href="#m7ed67d4b8b" y="164.2565"/>
    </g>
   </g>
   <g id="line2d_25">
    <path clip-path="url(#p73cf4c69c0)" d="M 646.848 164.2565
L 664.848 164.2565
" style="fill:none;stroke:#b2df8a;stroke-dasharray:3.27904,1.417963;stroke-dashoffset:0;stroke-width:0.886227;"/>
   </g>
   <g id="text_19">
    <!-- PMC-NYTAC -->
    <defs>
     <path d="M 7.71875 0
L 7.71875 71.578125
L 34.71875 71.578125
Q 41.84375 71.578125 45.609375 70.90625
Q 50.875 70.015625 54.4375 67.546875
Q 58.015625 65.09375 60.1875 60.640625
Q 62.359375 56.203125 62.359375 50.875
Q 62.359375 41.75 56.546875 35.421875
Q 50.734375 29.109375 35.546875 29.109375
L 17.1875 29.109375
L 17.1875 0
z
M 17.1875 37.546875
L 35.6875 37.546875
Q 44.875 37.546875 48.734375 40.96875
Q 52.59375 44.390625 52.59375 50.59375
Q 52.59375 55.078125 50.3125 58.265625
Q 48.046875 61.46875 44.34375 62.5
Q 41.9375 63.140625 35.5 63.140625
L 17.1875 63.140625
z
" id="ArialMT-80"/>
     <path d="M 7.421875 0
L 7.421875 71.578125
L 21.6875 71.578125
L 38.625 20.90625
Q 40.96875 13.8125 42.046875 10.296875
Q 43.265625 14.203125 45.84375 21.78125
L 62.984375 71.578125
L 75.734375 71.578125
L 75.734375 0
L 66.609375 0
L 66.609375 59.90625
L 45.796875 0
L 37.25 0
L 16.546875 60.9375
L 16.546875 0
z
" id="ArialMT-77"/>
     <path d="M 3.171875 21.484375
L 3.171875 30.328125
L 30.171875 30.328125
L 30.171875 21.484375
z
" id="ArialMT-45"/>
     <path d="M 27.875 0
L 27.875 30.328125
L 0.296875 71.578125
L 11.8125 71.578125
L 25.921875 50
Q 29.828125 43.953125 33.203125 37.890625
Q 36.421875 43.5 41.015625 50.53125
L 54.890625 71.578125
L 65.921875 71.578125
L 37.359375 30.328125
L 37.359375 0
z
" id="ArialMT-89"/>
     <path d="M 25.921875 0
L 25.921875 63.140625
L 2.34375 63.140625
L 2.34375 71.578125
L 59.078125 71.578125
L 59.078125 63.140625
L 35.40625 63.140625
L 35.40625 0
z
" id="ArialMT-84"/>
     <path d="M -0.140625 0
L 27.34375 71.578125
L 37.546875 71.578125
L 66.84375 0
L 56.0625 0
L 47.703125 21.6875
L 17.78125 21.6875
L 9.90625 0
z
M 20.515625 29.390625
L 44.78125 29.390625
L 37.3125 49.21875
Q 33.890625 58.25 32.234375 64.0625
Q 30.859375 57.171875 28.375 50.390625
z
" id="ArialMT-65"/>
    </defs>
    <g transform="translate(667.848 169.22)scale(0.192 -0.192)">
     <use xlink:href="#ArialMT-80"/>
     <use x="66.699219" xlink:href="#ArialMT-77"/>
     <use x="150" xlink:href="#ArialMT-67"/>
     <use x="222.216797" xlink:href="#ArialMT-45"/>
     <use x="255.517578" xlink:href="#ArialMT-78"/>
     <use x="327.734375" xlink:href="#ArialMT-89"/>
     <use x="394.433594" xlink:href="#ArialMT-84"/>
     <use x="455.408203" xlink:href="#ArialMT-65"/>
     <use x="522.107422" xlink:href="#ArialMT-67"/>
    </g>
   </g>
   <g id="patch_8">
    <path clip-path="url(#pd2b9094e8d)" d="M 646.848 193.2565
L 664.848 193.2565
L 664.848 175.2565
L 646.848 175.2565
z
" style="fill:#ffffff;"/>
   </g>
   <g id="line2d_26">
    <path clip-path="url(#pd2b9094e8d)" d="M 655.848 184.2565
" style="fill:none;stroke:#1f77b4;stroke-linecap:round;stroke-width:1.2;"/>
    <defs>
     <path d="M 0 3.101794
C 0.822605 3.101794 1.61163 2.77497 2.1933 2.1933
C 2.77497 1.61163 3.101794 0.822605 3.101794 0
C 3.101794 -0.822605 2.77497 -1.61163 2.1933 -2.1933
C 1.61163 -2.77497 0.822605 -3.101794 0 -3.101794
C -0.822605 -3.101794 -1.61163 -2.77497 -2.1933 -2.1933
C -2.77497 -1.61163 -3.101794 -0.822605 -3.101794 0
C -3.101794 0.822605 -2.77497 1.61163 -2.1933 2.1933
C -1.61163 2.77497 -0.822605 3.101794 0 3.101794
z
" id="m10d49ca31f" style="stroke:#1f78b4;stroke-width:0.886227;"/>
    </defs>
    <g clip-path="url(#pd2b9094e8d)">
     <use style="fill:#1f78b4;stroke:#1f78b4;stroke-width:0.886227;" x="655.848" xlink:href="#m10d49ca31f" y="184.2565"/>
    </g>
   </g>
   <g id="line2d_27">
    <path clip-path="url(#pd2b9094e8d)" d="M 646.848 184.2565
L 664.848 184.2565
" style="fill:none;stroke:#1f78b4;stroke-dasharray:3.27904,1.417963;stroke-dashoffset:0;stroke-width:0.886227;"/>
   </g>
   <g id="text_20">
    <!-- bioRxiv-NYTAC -->
    <defs>
     <path d="M 7.859375 0
L 7.859375 71.578125
L 39.59375 71.578125
Q 49.171875 71.578125 54.140625 69.640625
Q 59.125 67.71875 62.109375 62.828125
Q 65.09375 57.953125 65.09375 52.046875
Q 65.09375 44.4375 60.15625 39.203125
Q 55.21875 33.984375 44.921875 32.5625
Q 48.6875 30.765625 50.640625 29
Q 54.78125 25.203125 58.5 19.484375
L 70.953125 0
L 59.03125 0
L 49.5625 14.890625
Q 45.40625 21.34375 42.71875 24.75
Q 40.046875 28.171875 37.921875 29.53125
Q 35.796875 30.90625 33.59375 31.453125
Q 31.984375 31.78125 28.328125 31.78125
L 17.328125 31.78125
L 17.328125 0
z
M 17.328125 39.984375
L 37.703125 39.984375
Q 44.1875 39.984375 47.84375 41.328125
Q 51.515625 42.671875 53.421875 45.625
Q 55.328125 48.578125 55.328125 52.046875
Q 55.328125 57.125 51.640625 60.390625
Q 47.953125 63.671875 39.984375 63.671875
L 17.328125 63.671875
z
" id="ArialMT-82"/>
     <path d="M 0.734375 0
L 19.671875 26.953125
L 2.15625 51.859375
L 13.140625 51.859375
L 21.09375 39.703125
Q 23.34375 36.234375 24.703125 33.890625
Q 26.859375 37.109375 28.65625 39.59375
L 37.40625 51.859375
L 47.90625 51.859375
L 29.984375 27.4375
L 49.265625 0
L 38.484375 0
L 27.828125 16.109375
L 25 20.453125
L 11.375 0
z
" id="ArialMT-120"/>
    </defs>
    <g transform="translate(667.848 189.22)scale(0.192 -0.192)">
     <use xlink:href="#ArialMT-98"/>
     <use x="55.615234" xlink:href="#ArialMT-105"/>
     <use x="77.832031" xlink:href="#ArialMT-111"/>
     <use x="133.447266" xlink:href="#ArialMT-82"/>
     <use x="205.664062" xlink:href="#ArialMT-120"/>
     <use x="255.664062" xlink:href="#ArialMT-105"/>
     <use x="277.880859" xlink:href="#ArialMT-118"/>
     <use x="327.880859" xlink:href="#ArialMT-45"/>
     <use x="361.181641" xlink:href="#ArialMT-78"/>
     <use x="433.398438" xlink:href="#ArialMT-89"/>
     <use x="500.097656" xlink:href="#ArialMT-84"/>
     <use x="561.072266" xlink:href="#ArialMT-65"/>
     <use x="627.771484" xlink:href="#ArialMT-67"/>
    </g>
   </g>
   <g id="patch_9">
    <path clip-path="url(#p52251e5b91)" d="M 646.848 213.2565
L 664.848 213.2565
L 664.848 195.2565
L 646.848 195.2565
z
" style="fill:#ffffff;"/>
   </g>
   <g id="line2d_28">
    <path clip-path="url(#p52251e5b91)" d="M 655.848 204.2565
" style="fill:none;stroke:#1f77b4;stroke-linecap:round;stroke-width:1.2;"/>
    <defs>
     <path d="M 0 3.101794
C 0.822605 3.101794 1.61163 2.77497 2.1933 2.1933
C 2.77497 1.61163 3.101794 0.822605 3.101794 0
C 3.101794 -0.822605 2.77497 -1.61163 2.1933 -2.1933
C 1.61163 -2.77497 0.822605 -3.101794 0 -3.101794
C -0.822605 -3.101794 -1.61163 -2.77497 -2.1933 -2.1933
C -2.77497 -1.61163 -3.101794 -0.822605 -3.101794 0
C -3.101794 0.822605 -2.77497 1.61163 -2.1933 2.1933
C -1.61163 2.77497 -0.822605 3.101794 0 3.101794
z
" id="m10ac8a6fc8" style="stroke:#a6cee3;stroke-width:0.886227;"/>
    </defs>
    <g clip-path="url(#p52251e5b91)">
     <use style="fill:#a6cee3;stroke:#a6cee3;stroke-width:0.886227;" x="655.848" xlink:href="#m10ac8a6fc8" y="204.2565"/>
    </g>
   </g>
   <g id="line2d_29">
    <path clip-path="url(#p52251e5b91)" d="M 646.848 204.2565
L 664.848 204.2565
" style="fill:none;stroke:#a6cee3;stroke-dasharray:3.27904,1.417963;stroke-dashoffset:0;stroke-width:0.886227;"/>
   </g>
   <g id="text_21">
    <!-- bioRxiv-PMC -->
    <g transform="translate(667.848 209.22)scale(0.192 -0.192)">
     <use xlink:href="#ArialMT-98"/>
     <use x="55.615234" xlink:href="#ArialMT-105"/>
     <use x="77.832031" xlink:href="#ArialMT-111"/>
     <use x="133.447266" xlink:href="#ArialMT-82"/>
     <use x="205.664062" xlink:href="#ArialMT-120"/>
     <use x="255.664062" xlink:href="#ArialMT-105"/>
     <use x="277.880859" xlink:href="#ArialMT-118"/>
     <use x="327.880859" xlink:href="#ArialMT-45"/>
     <use x="361.181641" xlink:href="#ArialMT-80"/>
     <use x="427.880859" xlink:href="#ArialMT-77"/>
     <use x="511.181641" xlink:href="#ArialMT-67"/>
    </g>
   </g>
  </g>
 </g>
 <defs>
  <clipPath id="p7572d2cb8e">
   <rect height="332.64" width="558" x="61.648" y="7.2"/>
  </clipPath>
  <clipPath id="p73cf4c69c0">
   <path d="M 646.848 173.2565
L 646.848 155.2565
L 664.848 155.2565
L 664.848 173.2565
"/>
  </clipPath>
  <clipPath id="pd2b9094e8d">
   <path d="M 646.848 193.2565
L 646.848 175.2565
L 664.848 175.2565
L 664.848 193.2565
"/>
  </clipPath>
  <clipPath id="p52251e5b91">
   <path d="M 646.848 213.2565
L 646.848 195.2565
L 664.848 195.2565
L 664.848 213.2565
"/>
  </clipPath>
 </defs>
</svg>
