<?xml version="1.0" encoding="utf-8" standalone="no"?>
<!DOCTYPE svg PUBLIC "-//W3C//DTD SVG 1.1//EN"
  "http://www.w3.org/Graphics/SVG/1.1/DTD/svg11.dtd">
<!-- Created with matplotlib (https://matplotlib.org/) -->
<svg height="378.009163pt" version="1.1" viewBox="0 0 626.40885 378.009163" width="626.40885pt" xmlns="http://www.w3.org/2000/svg" xmlns:xlink="http://www.w3.org/1999/xlink">
 <defs>
  <style type="text/css">
*{stroke-linecap:butt;stroke-linejoin:round;}
  </style>
 </defs>
 <g id="figure_1">
  <g id="patch_1">
   <path d="M 0 378.009163 
L 626.40885 378.009163 
L 626.40885 0 
L 0 0 
z
" style="fill:#ffffff;"/>
  </g>
  <g id="axes_1">
   <g id="patch_2">
    <path d="M 61.20885 339.84 
L 619.20885 339.84 
L 619.20885 7.2 
L 61.20885 7.2 
z
" style="fill:#ffffff;"/>
   </g>
   <g id="matplotlib.axis_1">
    <g id="xtick_1">
     <g id="line2d_1">
      <defs>
       <path d="M 0 0 
L 0 4.8 
" id="mf34e13a20d" style="stroke:#262626;"/>
      </defs>
      <g>
       <use style="fill:#262626;stroke:#262626;" x="86.572486" xlink:href="#mf34e13a20d" y="339.84"/>
      </g>
     </g>
     <g id="text_1">
      <!-- −20 -->
      <defs>
       <path d="M 52.828125 31.203125 
L 5.5625 31.203125 
L 5.5625 39.40625 
L 52.828125 39.40625 
z
" id="ArialMT-8722"/>
       <path d="M 50.34375 8.453125 
L 50.34375 0 
L 3.03125 0 
Q 2.9375 3.171875 4.046875 6.109375 
Q 5.859375 10.9375 9.828125 15.625 
Q 13.8125 20.3125 21.34375 26.46875 
Q 33.015625 36.03125 37.109375 41.625 
Q 41.21875 47.21875 41.21875 52.203125 
Q 41.21875 57.421875 37.46875 61 
Q 33.734375 64.59375 27.734375 64.59375 
Q 21.390625 64.59375 17.578125 60.78125 
Q 13.765625 56.984375 13.71875 50.25 
L 4.6875 51.171875 
Q 5.609375 61.28125 11.65625 66.578125 
Q 17.71875 71.875 27.9375 71.875 
Q 38.234375 71.875 44.234375 66.15625 
Q 50.25 60.453125 50.25 52 
Q 50.25 47.703125 48.484375 43.546875 
Q 46.734375 39.40625 42.65625 34.8125 
Q 38.578125 30.21875 29.109375 22.21875 
Q 21.1875 15.578125 18.9375 13.203125 
Q 16.703125 10.84375 15.234375 8.453125 
z
" id="ArialMT-50"/>
       <path d="M 4.15625 35.296875 
Q 4.15625 48 6.765625 55.734375 
Q 9.375 63.484375 14.515625 67.671875 
Q 19.671875 71.875 27.484375 71.875 
Q 33.25 71.875 37.59375 69.546875 
Q 41.9375 67.234375 44.765625 62.859375 
Q 47.609375 58.5 49.21875 52.21875 
Q 50.828125 45.953125 50.828125 35.296875 
Q 50.828125 22.703125 48.234375 14.96875 
Q 45.65625 7.234375 40.5 3 
Q 35.359375 -1.21875 27.484375 -1.21875 
Q 17.140625 -1.21875 11.234375 6.203125 
Q 4.15625 15.140625 4.15625 35.296875 
z
M 13.1875 35.296875 
Q 13.1875 17.671875 17.3125 11.828125 
Q 21.4375 6 27.484375 6 
Q 33.546875 6 37.671875 11.859375 
Q 41.796875 17.71875 41.796875 35.296875 
Q 41.796875 52.984375 37.671875 58.78125 
Q 33.546875 64.59375 27.390625 64.59375 
Q 21.34375 64.59375 17.71875 59.46875 
Q 13.1875 52.9375 13.1875 35.296875 
z
" id="ArialMT-48"/>
      </defs>
      <g style="fill:#262626;" transform="translate(78.362636 353.968762)scale(0.0968 -0.0968)">
       <use xlink:href="#ArialMT-8722"/>
       <use x="58.398438" xlink:href="#ArialMT-50"/>
       <use x="114.013672" xlink:href="#ArialMT-48"/>
      </g>
     </g>
    </g>
    <g id="xtick_2">
     <g id="line2d_2">
      <g>
       <use style="fill:#262626;stroke:#262626;" x="213.390668" xlink:href="#mf34e13a20d" y="339.84"/>
      </g>
     </g>
     <g id="text_2">
      <!-- −10 -->
      <defs>
       <path d="M 37.25 0 
L 28.46875 0 
L 28.46875 56 
Q 25.296875 52.984375 20.140625 49.953125 
Q 14.984375 46.921875 10.890625 45.40625 
L 10.890625 53.90625 
Q 18.265625 57.375 23.78125 62.296875 
Q 29.296875 67.234375 31.59375 71.875 
L 37.25 71.875 
z
" id="ArialMT-49"/>
      </defs>
      <g style="fill:#262626;" transform="translate(205.180818 353.968762)scale(0.0968 -0.0968)">
       <use xlink:href="#ArialMT-8722"/>
       <use x="58.398438" xlink:href="#ArialMT-49"/>
       <use x="114.013672" xlink:href="#ArialMT-48"/>
      </g>
     </g>
    </g>
    <g id="xtick_3">
     <g id="line2d_3">
      <g>
       <use style="fill:#262626;stroke:#262626;" x="340.20885" xlink:href="#mf34e13a20d" y="339.84"/>
      </g>
     </g>
     <g id="text_3">
      <!-- 0 -->
      <g style="fill:#262626;" transform="translate(337.517356 353.968762)scale(0.0968 -0.0968)">
       <use xlink:href="#ArialMT-48"/>
      </g>
     </g>
    </g>
    <g id="xtick_4">
     <g id="line2d_4">
      <g>
       <use style="fill:#262626;stroke:#262626;" x="467.027032" xlink:href="#mf34e13a20d" y="339.84"/>
      </g>
     </g>
     <g id="text_4">
      <!-- 10 -->
      <g style="fill:#262626;" transform="translate(461.644044 353.968762)scale(0.0968 -0.0968)">
       <use xlink:href="#ArialMT-49"/>
       <use x="55.615234" xlink:href="#ArialMT-48"/>
      </g>
     </g>
    </g>
    <g id="xtick_5">
     <g id="line2d_5">
      <g>
       <use style="fill:#262626;stroke:#262626;" x="593.845214" xlink:href="#mf34e13a20d" y="339.84"/>
      </g>
     </g>
     <g id="text_5">
      <!-- 20 -->
      <g style="fill:#262626;" transform="translate(588.462226 353.968762)scale(0.0968 -0.0968)">
       <use xlink:href="#ArialMT-50"/>
       <use x="55.615234" xlink:href="#ArialMT-48"/>
      </g>
     </g>
    </g>
    <g id="xtick_6">
     <g id="line2d_6">
      <defs>
       <path d="M 0 0 
L 0 3.2 
" id="m9cfd0acbd0" style="stroke:#262626;stroke-width:0.8;"/>
      </defs>
      <g>
       <use style="fill:#262626;stroke:#262626;stroke-width:0.8;" x="149.981577" xlink:href="#m9cfd0acbd0" y="339.84"/>
      </g>
     </g>
    </g>
    <g id="xtick_7">
     <g id="line2d_7">
      <g>
       <use style="fill:#262626;stroke:#262626;stroke-width:0.8;" x="276.799759" xlink:href="#m9cfd0acbd0" y="339.84"/>
      </g>
     </g>
    </g>
    <g id="xtick_8">
     <g id="line2d_8">
      <g>
       <use style="fill:#262626;stroke:#262626;stroke-width:0.8;" x="403.617941" xlink:href="#m9cfd0acbd0" y="339.84"/>
      </g>
     </g>
    </g>
    <g id="xtick_9">
     <g id="line2d_9">
      <g>
       <use style="fill:#262626;stroke:#262626;stroke-width:0.8;" x="530.436123" xlink:href="#m9cfd0acbd0" y="339.84"/>
      </g>
     </g>
    </g>
    <g id="text_6">
     <!-- PMC vs NYTAC log2(Odds Ratio) -->
     <defs>
      <path d="M 7.71875 0 
L 7.71875 71.578125 
L 34.71875 71.578125 
Q 41.84375 71.578125 45.609375 70.90625 
Q 50.875 70.015625 54.4375 67.546875 
Q 58.015625 65.09375 60.1875 60.640625 
Q 62.359375 56.203125 62.359375 50.875 
Q 62.359375 41.75 56.546875 35.421875 
Q 50.734375 29.109375 35.546875 29.109375 
L 17.1875 29.109375 
L 17.1875 0 
z
M 17.1875 37.546875 
L 35.6875 37.546875 
Q 44.875 37.546875 48.734375 40.96875 
Q 52.59375 44.390625 52.59375 50.59375 
Q 52.59375 55.078125 50.3125 58.265625 
Q 48.046875 61.46875 44.34375 62.5 
Q 41.9375 63.140625 35.5 63.140625 
L 17.1875 63.140625 
z
" id="ArialMT-80"/>
      <path d="M 7.421875 0 
L 7.421875 71.578125 
L 21.6875 71.578125 
L 38.625 20.90625 
Q 40.96875 13.8125 42.046875 10.296875 
Q 43.265625 14.203125 45.84375 21.78125 
L 62.984375 71.578125 
L 75.734375 71.578125 
L 75.734375 0 
L 66.609375 0 
L 66.609375 59.90625 
L 45.796875 0 
L 37.25 0 
L 16.546875 60.9375 
L 16.546875 0 
z
" id="ArialMT-77"/>
      <path d="M 58.796875 25.09375 
L 68.265625 22.703125 
Q 65.28125 11.03125 57.546875 4.90625 
Q 49.8125 -1.21875 38.625 -1.21875 
Q 27.046875 -1.21875 19.796875 3.484375 
Q 12.546875 8.203125 8.765625 17.140625 
Q 4.984375 26.078125 4.984375 36.328125 
Q 4.984375 47.515625 9.25 55.828125 
Q 13.53125 64.15625 21.40625 68.46875 
Q 29.296875 72.796875 38.765625 72.796875 
Q 49.515625 72.796875 56.828125 67.328125 
Q 64.15625 61.859375 67.046875 51.953125 
L 57.71875 49.75 
Q 55.21875 57.5625 50.484375 61.125 
Q 45.75 64.703125 38.578125 64.703125 
Q 30.328125 64.703125 24.78125 60.734375 
Q 19.234375 56.78125 16.984375 50.109375 
Q 14.75 43.453125 14.75 36.375 
Q 14.75 27.25 17.40625 20.4375 
Q 20.0625 13.625 25.671875 10.25 
Q 31.296875 6.890625 37.84375 6.890625 
Q 45.796875 6.890625 51.3125 11.46875 
Q 56.84375 16.0625 58.796875 25.09375 
z
" id="ArialMT-67"/>
      <path id="ArialMT-32"/>
      <path d="M 21 0 
L 1.265625 51.859375 
L 10.546875 51.859375 
L 21.6875 20.796875 
Q 23.484375 15.765625 25 10.359375 
Q 26.171875 14.453125 28.265625 20.21875 
L 39.796875 51.859375 
L 48.828125 51.859375 
L 29.203125 0 
z
" id="ArialMT-118"/>
      <path d="M 3.078125 15.484375 
L 11.765625 16.84375 
Q 12.5 11.625 15.84375 8.84375 
Q 19.1875 6.0625 25.203125 6.0625 
Q 31.25 6.0625 34.171875 8.515625 
Q 37.109375 10.984375 37.109375 14.3125 
Q 37.109375 17.28125 34.515625 19 
Q 32.71875 20.171875 25.53125 21.96875 
Q 15.875 24.421875 12.140625 26.203125 
Q 8.40625 27.984375 6.46875 31.125 
Q 4.546875 34.28125 4.546875 38.09375 
Q 4.546875 41.546875 6.125 44.5 
Q 7.71875 47.46875 10.453125 49.421875 
Q 12.5 50.921875 16.03125 51.96875 
Q 19.578125 53.03125 23.640625 53.03125 
Q 29.734375 53.03125 34.34375 51.265625 
Q 38.96875 49.515625 41.15625 46.5 
Q 43.359375 43.5 44.1875 38.484375 
L 35.59375 37.3125 
Q 35.015625 41.3125 32.203125 43.546875 
Q 29.390625 45.796875 24.265625 45.796875 
Q 18.21875 45.796875 15.625 43.796875 
Q 13.03125 41.796875 13.03125 39.109375 
Q 13.03125 37.40625 14.109375 36.03125 
Q 15.1875 34.625 17.484375 33.6875 
Q 18.796875 33.203125 25.25 31.453125 
Q 34.578125 28.953125 38.25 27.359375 
Q 41.9375 25.78125 44.03125 22.75 
Q 46.140625 19.734375 46.140625 15.234375 
Q 46.140625 10.84375 43.578125 6.953125 
Q 41.015625 3.078125 36.171875 0.953125 
Q 31.34375 -1.171875 25.25 -1.171875 
Q 15.140625 -1.171875 9.84375 3.03125 
Q 4.546875 7.234375 3.078125 15.484375 
z
" id="ArialMT-115"/>
      <path d="M 7.625 0 
L 7.625 71.578125 
L 17.328125 71.578125 
L 54.9375 15.375 
L 54.9375 71.578125 
L 64.015625 71.578125 
L 64.015625 0 
L 54.296875 0 
L 16.703125 56.25 
L 16.703125 0 
z
" id="ArialMT-78"/>
      <path d="M 27.875 0 
L 27.875 30.328125 
L 0.296875 71.578125 
L 11.8125 71.578125 
L 25.921875 50 
Q 29.828125 43.953125 33.203125 37.890625 
Q 36.421875 43.5 41.015625 50.53125 
L 54.890625 71.578125 
L 65.921875 71.578125 
L 37.359375 30.328125 
L 37.359375 0 
z
" id="ArialMT-89"/>
      <path d="M 25.921875 0 
L 25.921875 63.140625 
L 2.34375 63.140625 
L 2.34375 71.578125 
L 59.078125 71.578125 
L 59.078125 63.140625 
L 35.40625 63.140625 
L 35.40625 0 
z
" id="ArialMT-84"/>
      <path d="M -0.140625 0 
L 27.34375 71.578125 
L 37.546875 71.578125 
L 66.84375 0 
L 56.0625 0 
L 47.703125 21.6875 
L 17.78125 21.6875 
L 9.90625 0 
z
M 20.515625 29.390625 
L 44.78125 29.390625 
L 37.3125 49.21875 
Q 33.890625 58.25 32.234375 64.0625 
Q 30.859375 57.171875 28.375 50.390625 
z
" id="ArialMT-65"/>
      <path d="M 6.390625 0 
L 6.390625 71.578125 
L 15.1875 71.578125 
L 15.1875 0 
z
" id="ArialMT-108"/>
      <path d="M 3.328125 25.921875 
Q 3.328125 40.328125 11.328125 47.265625 
Q 18.015625 53.03125 27.640625 53.03125 
Q 38.328125 53.03125 45.109375 46.015625 
Q 51.90625 39.015625 51.90625 26.65625 
Q 51.90625 16.65625 48.90625 10.90625 
Q 45.90625 5.171875 40.15625 2 
Q 34.421875 -1.171875 27.640625 -1.171875 
Q 16.75 -1.171875 10.03125 5.8125 
Q 3.328125 12.796875 3.328125 25.921875 
z
M 12.359375 25.921875 
Q 12.359375 15.96875 16.703125 11.015625 
Q 21.046875 6.0625 27.640625 6.0625 
Q 34.1875 6.0625 38.53125 11.03125 
Q 42.875 16.015625 42.875 26.21875 
Q 42.875 35.84375 38.5 40.796875 
Q 34.125 45.75 27.640625 45.75 
Q 21.046875 45.75 16.703125 40.8125 
Q 12.359375 35.890625 12.359375 25.921875 
z
" id="ArialMT-111"/>
      <path d="M 4.984375 -4.296875 
L 13.53125 -5.5625 
Q 14.0625 -9.515625 16.5 -11.328125 
Q 19.78125 -13.765625 25.4375 -13.765625 
Q 31.546875 -13.765625 34.859375 -11.328125 
Q 38.1875 -8.890625 39.359375 -4.5 
Q 40.046875 -1.8125 39.984375 6.78125 
Q 34.234375 0 25.640625 0 
Q 14.9375 0 9.078125 7.71875 
Q 3.21875 15.4375 3.21875 26.21875 
Q 3.21875 33.640625 5.90625 39.90625 
Q 8.59375 46.1875 13.6875 49.609375 
Q 18.796875 53.03125 25.6875 53.03125 
Q 34.859375 53.03125 40.828125 45.609375 
L 40.828125 51.859375 
L 48.921875 51.859375 
L 48.921875 7.03125 
Q 48.921875 -5.078125 46.453125 -10.125 
Q 44 -15.1875 38.640625 -18.109375 
Q 33.296875 -21.046875 25.484375 -21.046875 
Q 16.21875 -21.046875 10.5 -16.875 
Q 4.78125 -12.703125 4.984375 -4.296875 
z
M 12.25 26.859375 
Q 12.25 16.65625 16.296875 11.96875 
Q 20.359375 7.28125 26.46875 7.28125 
Q 32.515625 7.28125 36.609375 11.9375 
Q 40.71875 16.609375 40.71875 26.5625 
Q 40.71875 36.078125 36.5 40.90625 
Q 32.28125 45.75 26.3125 45.75 
Q 20.453125 45.75 16.34375 40.984375 
Q 12.25 36.234375 12.25 26.859375 
z
" id="ArialMT-103"/>
      <path d="M 23.390625 -21.046875 
Q 16.109375 -11.859375 11.078125 0.4375 
Q 6.0625 12.75 6.0625 25.921875 
Q 6.0625 37.546875 9.8125 48.1875 
Q 14.203125 60.546875 23.390625 72.796875 
L 29.6875 72.796875 
Q 23.78125 62.640625 21.875 58.296875 
Q 18.890625 51.5625 17.1875 44.234375 
Q 15.09375 35.109375 15.09375 25.875 
Q 15.09375 2.390625 29.6875 -21.046875 
z
" id="ArialMT-40"/>
      <path d="M 4.828125 34.859375 
Q 4.828125 52.6875 14.390625 62.765625 
Q 23.96875 72.859375 39.109375 72.859375 
Q 49.03125 72.859375 56.984375 68.109375 
Q 64.9375 63.375 69.109375 54.90625 
Q 73.296875 46.4375 73.296875 35.6875 
Q 73.296875 24.8125 68.890625 16.21875 
Q 64.5 7.625 56.4375 3.203125 
Q 48.390625 -1.21875 39.0625 -1.21875 
Q 28.953125 -1.21875 20.984375 3.65625 
Q 13.03125 8.546875 8.921875 16.984375 
Q 4.828125 25.4375 4.828125 34.859375 
z
M 14.59375 34.71875 
Q 14.59375 21.78125 21.546875 14.328125 
Q 28.515625 6.890625 39.015625 6.890625 
Q 49.703125 6.890625 56.609375 14.40625 
Q 63.53125 21.921875 63.53125 35.75 
Q 63.53125 44.484375 60.578125 51 
Q 57.625 57.515625 51.921875 61.109375 
Q 46.234375 64.703125 39.15625 64.703125 
Q 29.109375 64.703125 21.84375 57.78125 
Q 14.59375 50.875 14.59375 34.71875 
z
" id="ArialMT-79"/>
      <path d="M 40.234375 0 
L 40.234375 6.546875 
Q 35.296875 -1.171875 25.734375 -1.171875 
Q 19.53125 -1.171875 14.328125 2.25 
Q 9.125 5.671875 6.265625 11.796875 
Q 3.421875 17.921875 3.421875 25.875 
Q 3.421875 33.640625 6 39.96875 
Q 8.59375 46.296875 13.765625 49.65625 
Q 18.953125 53.03125 25.34375 53.03125 
Q 30.03125 53.03125 33.6875 51.046875 
Q 37.359375 49.078125 39.65625 45.90625 
L 39.65625 71.578125 
L 48.390625 71.578125 
L 48.390625 0 
z
M 12.453125 25.875 
Q 12.453125 15.921875 16.640625 10.984375 
Q 20.84375 6.0625 26.5625 6.0625 
Q 32.328125 6.0625 36.34375 10.765625 
Q 40.375 15.484375 40.375 25.140625 
Q 40.375 35.796875 36.265625 40.765625 
Q 32.171875 45.75 26.171875 45.75 
Q 20.3125 45.75 16.375 40.96875 
Q 12.453125 36.1875 12.453125 25.875 
z
" id="ArialMT-100"/>
      <path d="M 7.859375 0 
L 7.859375 71.578125 
L 39.59375 71.578125 
Q 49.171875 71.578125 54.140625 69.640625 
Q 59.125 67.71875 62.109375 62.828125 
Q 65.09375 57.953125 65.09375 52.046875 
Q 65.09375 44.4375 60.15625 39.203125 
Q 55.21875 33.984375 44.921875 32.5625 
Q 48.6875 30.765625 50.640625 29 
Q 54.78125 25.203125 58.5 19.484375 
L 70.953125 0 
L 59.03125 0 
L 49.5625 14.890625 
Q 45.40625 21.34375 42.71875 24.75 
Q 40.046875 28.171875 37.921875 29.53125 
Q 35.796875 30.90625 33.59375 31.453125 
Q 31.984375 31.78125 28.328125 31.78125 
L 17.328125 31.78125 
L 17.328125 0 
z
M 17.328125 39.984375 
L 37.703125 39.984375 
Q 44.1875 39.984375 47.84375 41.328125 
Q 51.515625 42.671875 53.421875 45.625 
Q 55.328125 48.578125 55.328125 52.046875 
Q 55.328125 57.125 51.640625 60.390625 
Q 47.953125 63.671875 39.984375 63.671875 
L 17.328125 63.671875 
z
" id="ArialMT-82"/>
      <path d="M 40.4375 6.390625 
Q 35.546875 2.25 31.03125 0.53125 
Q 26.515625 -1.171875 21.34375 -1.171875 
Q 12.796875 -1.171875 8.203125 3 
Q 3.609375 7.171875 3.609375 13.671875 
Q 3.609375 17.484375 5.34375 20.625 
Q 7.078125 23.78125 9.890625 25.6875 
Q 12.703125 27.59375 16.21875 28.5625 
Q 18.796875 29.25 24.03125 29.890625 
Q 34.671875 31.15625 39.703125 32.90625 
Q 39.75 34.71875 39.75 35.203125 
Q 39.75 40.578125 37.25 42.78125 
Q 33.890625 45.75 27.25 45.75 
Q 21.046875 45.75 18.09375 43.578125 
Q 15.140625 41.40625 13.71875 35.890625 
L 5.125 37.0625 
Q 6.296875 42.578125 8.984375 45.96875 
Q 11.671875 49.359375 16.75 51.1875 
Q 21.828125 53.03125 28.515625 53.03125 
Q 35.15625 53.03125 39.296875 51.46875 
Q 43.453125 49.90625 45.40625 47.53125 
Q 47.359375 45.171875 48.140625 41.546875 
Q 48.578125 39.3125 48.578125 33.453125 
L 48.578125 21.734375 
Q 48.578125 9.46875 49.140625 6.21875 
Q 49.703125 2.984375 51.375 0 
L 42.1875 0 
Q 40.828125 2.734375 40.4375 6.390625 
z
M 39.703125 26.03125 
Q 34.90625 24.078125 25.34375 22.703125 
Q 19.921875 21.921875 17.671875 20.9375 
Q 15.4375 19.96875 14.203125 18.09375 
Q 12.984375 16.21875 12.984375 13.921875 
Q 12.984375 10.40625 15.640625 8.0625 
Q 18.3125 5.71875 23.4375 5.71875 
Q 28.515625 5.71875 32.46875 7.9375 
Q 36.421875 10.15625 38.28125 14.015625 
Q 39.703125 17 39.703125 22.796875 
z
" id="ArialMT-97"/>
      <path d="M 25.78125 7.859375 
L 27.046875 0.09375 
Q 23.34375 -0.6875 20.40625 -0.6875 
Q 15.625 -0.6875 12.984375 0.828125 
Q 10.359375 2.34375 9.28125 4.8125 
Q 8.203125 7.28125 8.203125 15.1875 
L 8.203125 45.015625 
L 1.765625 45.015625 
L 1.765625 51.859375 
L 8.203125 51.859375 
L 8.203125 64.703125 
L 16.9375 69.96875 
L 16.9375 51.859375 
L 25.78125 51.859375 
L 25.78125 45.015625 
L 16.9375 45.015625 
L 16.9375 14.703125 
Q 16.9375 10.9375 17.40625 9.859375 
Q 17.875 8.796875 18.921875 8.15625 
Q 19.96875 7.515625 21.921875 7.515625 
Q 23.390625 7.515625 25.78125 7.859375 
z
" id="ArialMT-116"/>
      <path d="M 6.640625 61.46875 
L 6.640625 71.578125 
L 15.4375 71.578125 
L 15.4375 61.46875 
z
M 6.640625 0 
L 6.640625 51.859375 
L 15.4375 51.859375 
L 15.4375 0 
z
" id="ArialMT-105"/>
      <path d="M 12.359375 -21.046875 
L 6.0625 -21.046875 
Q 20.65625 2.390625 20.65625 25.875 
Q 20.65625 35.0625 18.5625 44.09375 
Q 16.890625 51.421875 13.921875 58.15625 
Q 12.015625 62.546875 6.0625 72.796875 
L 12.359375 72.796875 
Q 21.53125 60.546875 25.921875 48.1875 
Q 29.6875 37.546875 29.6875 25.921875 
Q 29.6875 12.75 24.625 0.4375 
Q 19.578125 -11.859375 12.359375 -21.046875 
z
" id="ArialMT-41"/>
     </defs>
     <g style="fill:#262626;" transform="translate(251.996475 368.586613)scale(0.1056 -0.1056)">
      <use xlink:href="#ArialMT-80"/>
      <use x="66.699219" xlink:href="#ArialMT-77"/>
      <use x="150" xlink:href="#ArialMT-67"/>
      <use x="222.216797" xlink:href="#ArialMT-32"/>
      <use x="250" xlink:href="#ArialMT-118"/>
      <use x="300" xlink:href="#ArialMT-115"/>
      <use x="350" xlink:href="#ArialMT-32"/>
      <use x="377.783203" xlink:href="#ArialMT-78"/>
      <use x="450" xlink:href="#ArialMT-89"/>
      <use x="516.699219" xlink:href="#ArialMT-84"/>
      <use x="577.673828" xlink:href="#ArialMT-65"/>
      <use x="644.373047" xlink:href="#ArialMT-67"/>
      <use x="716.589844" xlink:href="#ArialMT-32"/>
      <use x="744.373047" xlink:href="#ArialMT-108"/>
      <use x="766.589844" xlink:href="#ArialMT-111"/>
      <use x="822.205078" xlink:href="#ArialMT-103"/>
      <use x="877.820312" xlink:href="#ArialMT-50"/>
      <use x="933.435547" xlink:href="#ArialMT-40"/>
      <use x="966.736328" xlink:href="#ArialMT-79"/>
      <use x="1044.519531" xlink:href="#ArialMT-100"/>
      <use x="1100.134766" xlink:href="#ArialMT-100"/>
      <use x="1155.75" xlink:href="#ArialMT-115"/>
      <use x="1205.75" xlink:href="#ArialMT-32"/>
      <use x="1233.533203" xlink:href="#ArialMT-82"/>
      <use x="1305.75" xlink:href="#ArialMT-97"/>
      <use x="1361.365234" xlink:href="#ArialMT-116"/>
      <use x="1389.148438" xlink:href="#ArialMT-105"/>
      <use x="1411.365234" xlink:href="#ArialMT-111"/>
      <use x="1466.980469" xlink:href="#ArialMT-41"/>
     </g>
    </g>
   </g>
   <g id="matplotlib.axis_2">
    <g id="ytick_1">
     <g id="line2d_10">
      <defs>
       <path d="M 0 0 
L -4.8 0 
" id="md688d0f2dc" style="stroke:#262626;"/>
      </defs>
      <g>
       <use style="fill:#262626;stroke:#262626;" x="61.20885" xlink:href="#md688d0f2dc" y="334.875224"/>
      </g>
     </g>
     <g id="text_7">
      <!-- yesterday -->
      <defs>
       <path d="M 6.203125 -19.96875 
L 5.21875 -11.71875 
Q 8.109375 -12.5 10.25 -12.5 
Q 13.1875 -12.5 14.9375 -11.515625 
Q 16.703125 -10.546875 17.828125 -8.796875 
Q 18.65625 -7.46875 20.515625 -2.25 
Q 20.75 -1.515625 21.296875 -0.09375 
L 1.609375 51.859375 
L 11.078125 51.859375 
L 21.875 21.828125 
Q 23.96875 16.109375 25.640625 9.8125 
Q 27.15625 15.875 29.25 21.625 
L 40.328125 51.859375 
L 49.125 51.859375 
L 29.390625 -0.875 
Q 26.21875 -9.421875 24.46875 -12.640625 
Q 22.125 -17 19.09375 -19.015625 
Q 16.0625 -21.046875 11.859375 -21.046875 
Q 9.328125 -21.046875 6.203125 -19.96875 
z
" id="ArialMT-121"/>
       <path d="M 42.09375 16.703125 
L 51.171875 15.578125 
Q 49.03125 7.625 43.21875 3.21875 
Q 37.40625 -1.171875 28.375 -1.171875 
Q 17 -1.171875 10.328125 5.828125 
Q 3.65625 12.84375 3.65625 25.484375 
Q 3.65625 38.578125 10.390625 45.796875 
Q 17.140625 53.03125 27.875 53.03125 
Q 38.28125 53.03125 44.875 45.953125 
Q 51.46875 38.875 51.46875 26.03125 
Q 51.46875 25.25 51.421875 23.6875 
L 12.75 23.6875 
Q 13.234375 15.140625 17.578125 10.59375 
Q 21.921875 6.0625 28.421875 6.0625 
Q 33.25 6.0625 36.671875 8.59375 
Q 40.09375 11.140625 42.09375 16.703125 
z
M 13.234375 30.90625 
L 42.1875 30.90625 
Q 41.609375 37.453125 38.875 40.71875 
Q 34.671875 45.796875 27.984375 45.796875 
Q 21.921875 45.796875 17.796875 41.75 
Q 13.671875 37.703125 13.234375 30.90625 
z
" id="ArialMT-101"/>
       <path d="M 6.5 0 
L 6.5 51.859375 
L 14.40625 51.859375 
L 14.40625 44 
Q 17.4375 49.515625 20 51.265625 
Q 22.5625 53.03125 25.640625 53.03125 
Q 30.078125 53.03125 34.671875 50.203125 
L 31.640625 42.046875 
Q 28.421875 43.953125 25.203125 43.953125 
Q 22.3125 43.953125 20.015625 42.21875 
Q 17.71875 40.484375 16.75 37.40625 
Q 15.28125 32.71875 15.28125 27.15625 
L 15.28125 0 
z
" id="ArialMT-114"/>
      </defs>
      <g style="fill:#262626;" transform="translate(12.044538 338.339605)scale(0.0968 -0.0968)">
       <use xlink:href="#ArialMT-121"/>
       <use x="50" xlink:href="#ArialMT-101"/>
       <use x="105.615234" xlink:href="#ArialMT-115"/>
       <use x="155.615234" xlink:href="#ArialMT-116"/>
       <use x="183.398438" xlink:href="#ArialMT-101"/>
       <use x="239.013672" xlink:href="#ArialMT-114"/>
       <use x="272.314453" xlink:href="#ArialMT-100"/>
       <use x="327.929688" xlink:href="#ArialMT-97"/>
       <use x="383.544922" xlink:href="#ArialMT-121"/>
      </g>
     </g>
    </g>
    <g id="ytick_2">
     <g id="line2d_11">
      <g>
       <use style="fill:#262626;stroke:#262626;" x="61.20885" xlink:href="#md688d0f2dc" y="326.600597"/>
      </g>
     </g>
     <g id="text_8">
      <!-- president -->
      <defs>
       <path d="M 6.59375 -19.875 
L 6.59375 51.859375 
L 14.59375 51.859375 
L 14.59375 45.125 
Q 17.4375 49.078125 21 51.046875 
Q 24.5625 53.03125 29.640625 53.03125 
Q 36.28125 53.03125 41.359375 49.609375 
Q 46.4375 46.1875 49.015625 39.953125 
Q 51.609375 33.734375 51.609375 26.3125 
Q 51.609375 18.359375 48.75 11.984375 
Q 45.90625 5.609375 40.453125 2.21875 
Q 35.015625 -1.171875 29 -1.171875 
Q 24.609375 -1.171875 21.109375 0.6875 
Q 17.625 2.546875 15.375 5.375 
L 15.375 -19.875 
z
M 14.546875 25.640625 
Q 14.546875 15.625 18.59375 10.84375 
Q 22.65625 6.0625 28.421875 6.0625 
Q 34.28125 6.0625 38.453125 11.015625 
Q 42.625 15.96875 42.625 26.375 
Q 42.625 36.28125 38.546875 41.203125 
Q 34.46875 46.140625 28.8125 46.140625 
Q 23.1875 46.140625 18.859375 40.890625 
Q 14.546875 35.640625 14.546875 25.640625 
z
" id="ArialMT-112"/>
       <path d="M 6.59375 0 
L 6.59375 51.859375 
L 14.5 51.859375 
L 14.5 44.484375 
Q 20.21875 53.03125 31 53.03125 
Q 35.6875 53.03125 39.625 51.34375 
Q 43.5625 49.65625 45.515625 46.921875 
Q 47.46875 44.1875 48.25 40.4375 
Q 48.734375 37.984375 48.734375 31.890625 
L 48.734375 0 
L 39.9375 0 
L 39.9375 31.546875 
Q 39.9375 36.921875 38.90625 39.578125 
Q 37.890625 42.234375 35.28125 43.8125 
Q 32.671875 45.40625 29.15625 45.40625 
Q 23.53125 45.40625 19.453125 41.84375 
Q 15.375 38.28125 15.375 28.328125 
L 15.375 0 
z
" id="ArialMT-110"/>
      </defs>
      <g style="fill:#262626;" transform="translate(14.190775 330.064978)scale(0.0968 -0.0968)">
       <use xlink:href="#ArialMT-112"/>
       <use x="55.615234" xlink:href="#ArialMT-114"/>
       <use x="88.916016" xlink:href="#ArialMT-101"/>
       <use x="144.53125" xlink:href="#ArialMT-115"/>
       <use x="194.53125" xlink:href="#ArialMT-105"/>
       <use x="216.748047" xlink:href="#ArialMT-100"/>
       <use x="272.363281" xlink:href="#ArialMT-101"/>
       <use x="327.978516" xlink:href="#ArialMT-110"/>
       <use x="383.59375" xlink:href="#ArialMT-116"/>
      </g>
     </g>
    </g>
    <g id="ytick_3">
     <g id="line2d_12">
      <g>
       <use style="fill:#262626;stroke:#262626;" x="61.20885" xlink:href="#md688d0f2dc" y="318.32597"/>
      </g>
     </g>
     <g id="text_9">
      <!-- - - -->
      <defs>
       <path d="M 3.171875 21.484375 
L 3.171875 30.328125 
L 30.171875 30.328125 
L 30.171875 21.484375 
z
" id="ArialMT-45"/>
      </defs>
      <g style="fill:#262626;" transform="translate(47.562575 321.790351)scale(0.0968 -0.0968)">
       <use xlink:href="#ArialMT-45"/>
       <use x="33.300781" xlink:href="#ArialMT-45"/>
      </g>
     </g>
    </g>
    <g id="ytick_4">
     <g id="line2d_13">
      <g>
       <use style="fill:#262626;stroke:#262626;" x="61.20885" xlink:href="#md688d0f2dc" y="310.051343"/>
      </g>
     </g>
     <g id="text_10">
      <!-- said -->
      <g style="fill:#262626;" transform="translate(36.2521 313.515725)scale(0.0968 -0.0968)">
       <use xlink:href="#ArialMT-115"/>
       <use x="50" xlink:href="#ArialMT-97"/>
       <use x="105.615234" xlink:href="#ArialMT-105"/>
       <use x="127.832031" xlink:href="#ArialMT-100"/>
      </g>
     </g>
    </g>
    <g id="ytick_5">
     <g id="line2d_14">
      <g>
       <use style="fill:#262626;stroke:#262626;" x="61.20885" xlink:href="#md688d0f2dc" y="301.776716"/>
      </g>
     </g>
     <g id="text_11">
      <!-- officials -->
      <defs>
       <path d="M 8.6875 0 
L 8.6875 45.015625 
L 0.921875 45.015625 
L 0.921875 51.859375 
L 8.6875 51.859375 
L 8.6875 57.375 
Q 8.6875 62.59375 9.625 65.140625 
Q 10.890625 68.5625 14.078125 70.671875 
Q 17.28125 72.796875 23.046875 72.796875 
Q 26.765625 72.796875 31.25 71.921875 
L 29.9375 64.265625 
Q 27.203125 64.75 24.75 64.75 
Q 20.75 64.75 19.09375 63.03125 
Q 17.4375 61.328125 17.4375 56.640625 
L 17.4375 51.859375 
L 27.546875 51.859375 
L 27.546875 45.015625 
L 17.4375 45.015625 
L 17.4375 0 
z
" id="ArialMT-102"/>
       <path d="M 40.4375 19 
L 49.078125 17.875 
Q 47.65625 8.9375 41.8125 3.875 
Q 35.984375 -1.171875 27.484375 -1.171875 
Q 16.84375 -1.171875 10.375 5.78125 
Q 3.90625 12.75 3.90625 25.734375 
Q 3.90625 34.125 6.6875 40.421875 
Q 9.46875 46.734375 15.15625 49.875 
Q 20.84375 53.03125 27.546875 53.03125 
Q 35.984375 53.03125 41.359375 48.75 
Q 46.734375 44.484375 48.25 36.625 
L 39.703125 35.296875 
Q 38.484375 40.53125 35.375 43.15625 
Q 32.28125 45.796875 27.875 45.796875 
Q 21.234375 45.796875 17.078125 41.03125 
Q 12.9375 36.28125 12.9375 25.984375 
Q 12.9375 15.53125 16.9375 10.796875 
Q 20.953125 6.0625 27.390625 6.0625 
Q 32.5625 6.0625 36.03125 9.234375 
Q 39.5 12.40625 40.4375 19 
z
" id="ArialMT-99"/>
      </defs>
      <g style="fill:#262626;" transform="translate(21.733613 305.241098)scale(0.0968 -0.0968)">
       <use xlink:href="#ArialMT-111"/>
       <use x="55.615234" xlink:href="#ArialMT-102"/>
       <use x="83.382812" xlink:href="#ArialMT-102"/>
       <use x="111.166016" xlink:href="#ArialMT-105"/>
       <use x="133.382812" xlink:href="#ArialMT-99"/>
       <use x="183.382812" xlink:href="#ArialMT-105"/>
       <use x="205.599609" xlink:href="#ArialMT-97"/>
       <use x="261.214844" xlink:href="#ArialMT-108"/>
       <use x="283.431641" xlink:href="#ArialMT-115"/>
      </g>
     </g>
    </g>
    <g id="ytick_6">
     <g id="line2d_15">
      <g>
       <use style="fill:#262626;stroke:#262626;" x="61.20885" xlink:href="#md688d0f2dc" y="293.50209"/>
      </g>
     </g>
     <g id="text_12">
      <!-- p.m. -->
      <defs>
       <path d="M 9.078125 0 
L 9.078125 10.015625 
L 19.09375 10.015625 
L 19.09375 0 
z
" id="ArialMT-46"/>
       <path d="M 6.59375 0 
L 6.59375 51.859375 
L 14.453125 51.859375 
L 14.453125 44.578125 
Q 16.890625 48.390625 20.9375 50.703125 
Q 25 53.03125 30.171875 53.03125 
Q 35.9375 53.03125 39.625 50.640625 
Q 43.3125 48.25 44.828125 43.953125 
Q 50.984375 53.03125 60.84375 53.03125 
Q 68.5625 53.03125 72.703125 48.75 
Q 76.859375 44.484375 76.859375 35.59375 
L 76.859375 0 
L 68.109375 0 
L 68.109375 32.671875 
Q 68.109375 37.9375 67.25 40.25 
Q 66.40625 42.578125 64.15625 43.984375 
Q 61.921875 45.40625 58.890625 45.40625 
Q 53.421875 45.40625 49.796875 41.765625 
Q 46.1875 38.140625 46.1875 30.125 
L 46.1875 0 
L 37.40625 0 
L 37.40625 33.6875 
Q 37.40625 39.546875 35.25 42.46875 
Q 33.109375 45.40625 28.21875 45.40625 
Q 24.515625 45.40625 21.359375 43.453125 
Q 18.21875 41.5 16.796875 37.734375 
Q 15.375 33.984375 15.375 26.90625 
L 15.375 0 
z
" id="ArialMT-109"/>
      </defs>
      <g style="fill:#262626;" transform="translate(35.184275 296.966471)scale(0.0968 -0.0968)">
       <use xlink:href="#ArialMT-112"/>
       <use x="55.615234" xlink:href="#ArialMT-46"/>
       <use x="83.398438" xlink:href="#ArialMT-109"/>
       <use x="166.699219" xlink:href="#ArialMT-46"/>
      </g>
     </g>
    </g>
    <g id="ytick_7">
     <g id="line2d_16">
      <g>
       <use style="fill:#262626;stroke:#262626;" x="61.20885" xlink:href="#md688d0f2dc" y="285.227463"/>
      </g>
     </g>
     <g id="text_13">
      <!-- says -->
      <g style="fill:#262626;" transform="translate(34.105863 288.635125)scale(0.0968 -0.0968)">
       <use xlink:href="#ArialMT-115"/>
       <use x="50" xlink:href="#ArialMT-97"/>
       <use x="105.615234" xlink:href="#ArialMT-121"/>
       <use x="155.615234" xlink:href="#ArialMT-115"/>
      </g>
     </g>
    </g>
    <g id="ytick_8">
     <g id="line2d_17">
      <g>
       <use style="fill:#262626;stroke:#262626;" x="61.20885" xlink:href="#md688d0f2dc" y="276.952836"/>
      </g>
     </g>
     <g id="text_14">
      <!-- court -->
      <defs>
       <path d="M 40.578125 0 
L 40.578125 7.625 
Q 34.515625 -1.171875 24.125 -1.171875 
Q 19.53125 -1.171875 15.546875 0.578125 
Q 11.578125 2.34375 9.640625 5 
Q 7.71875 7.671875 6.9375 11.53125 
Q 6.390625 14.109375 6.390625 19.734375 
L 6.390625 51.859375 
L 15.1875 51.859375 
L 15.1875 23.09375 
Q 15.1875 16.21875 15.71875 13.8125 
Q 16.546875 10.359375 19.234375 8.375 
Q 21.921875 6.390625 25.875 6.390625 
Q 29.828125 6.390625 33.296875 8.421875 
Q 36.765625 10.453125 38.203125 13.9375 
Q 39.65625 17.4375 39.65625 24.078125 
L 39.65625 51.859375 
L 48.4375 51.859375 
L 48.4375 0 
z
" id="ArialMT-117"/>
      </defs>
      <g style="fill:#262626;" transform="translate(32.490513 280.417217)scale(0.0968 -0.0968)">
       <use xlink:href="#ArialMT-99"/>
       <use x="50" xlink:href="#ArialMT-111"/>
       <use x="105.615234" xlink:href="#ArialMT-117"/>
       <use x="161.230469" xlink:href="#ArialMT-114"/>
       <use x="194.53125" xlink:href="#ArialMT-116"/>
      </g>
     </g>
    </g>
    <g id="ytick_9">
     <g id="line2d_18">
      <g>
       <use style="fill:#262626;stroke:#262626;" x="61.20885" xlink:href="#md688d0f2dc" y="268.678209"/>
      </g>
     </g>
     <g id="text_15">
      <!-- york -->
      <defs>
       <path d="M 6.640625 0 
L 6.640625 71.578125 
L 15.4375 71.578125 
L 15.4375 30.765625 
L 36.234375 51.859375 
L 47.609375 51.859375 
L 27.78125 32.625 
L 49.609375 0 
L 38.765625 0 
L 21.625 26.515625 
L 15.4375 20.5625 
L 15.4375 0 
z
" id="ArialMT-107"/>
      </defs>
      <g style="fill:#262626;" transform="translate(35.722725 272.14259)scale(0.0968 -0.0968)">
       <use xlink:href="#ArialMT-121"/>
       <use x="50" xlink:href="#ArialMT-111"/>
       <use x="105.615234" xlink:href="#ArialMT-114"/>
       <use x="138.916016" xlink:href="#ArialMT-107"/>
      </g>
     </g>
    </g>
    <g id="ytick_10">
     <g id="line2d_19">
      <g>
       <use style="fill:#262626;stroke:#262626;" x="61.20885" xlink:href="#md688d0f2dc" y="260.403582"/>
      </g>
     </g>
     <g id="text_16">
      <!-- street -->
      <g style="fill:#262626;" transform="translate(29.801288 263.867963)scale(0.0968 -0.0968)">
       <use xlink:href="#ArialMT-115"/>
       <use x="50" xlink:href="#ArialMT-116"/>
       <use x="77.783203" xlink:href="#ArialMT-114"/>
       <use x="111.083984" xlink:href="#ArialMT-101"/>
       <use x="166.699219" xlink:href="#ArialMT-101"/>
       <use x="222.314453" xlink:href="#ArialMT-116"/>
      </g>
     </g>
    </g>
    <g id="ytick_11">
     <g id="line2d_20">
      <g>
       <use style="fill:#262626;stroke:#262626;" x="61.20885" xlink:href="#md688d0f2dc" y="252.128955"/>
      </g>
     </g>
     <g id="text_17">
      <!-- director -->
      <g style="fill:#262626;" transform="translate(21.733613 255.593336)scale(0.0968 -0.0968)">
       <use xlink:href="#ArialMT-100"/>
       <use x="55.615234" xlink:href="#ArialMT-105"/>
       <use x="77.832031" xlink:href="#ArialMT-114"/>
       <use x="111.132812" xlink:href="#ArialMT-101"/>
       <use x="166.748047" xlink:href="#ArialMT-99"/>
       <use x="216.748047" xlink:href="#ArialMT-116"/>
       <use x="244.53125" xlink:href="#ArialMT-111"/>
       <use x="300.146484" xlink:href="#ArialMT-114"/>
      </g>
     </g>
    </g>
    <g id="ytick_12">
     <g id="line2d_21">
      <g>
       <use style="fill:#262626;stroke:#262626;" x="61.20885" xlink:href="#md688d0f2dc" y="243.854328"/>
      </g>
     </g>
     <g id="text_18">
      <!-- police -->
      <g style="fill:#262626;" transform="translate(28.718338 247.31871)scale(0.0968 -0.0968)">
       <use xlink:href="#ArialMT-112"/>
       <use x="55.615234" xlink:href="#ArialMT-111"/>
       <use x="111.230469" xlink:href="#ArialMT-108"/>
       <use x="133.447266" xlink:href="#ArialMT-105"/>
       <use x="155.664062" xlink:href="#ArialMT-99"/>
       <use x="205.664062" xlink:href="#ArialMT-101"/>
      </g>
     </g>
    </g>
    <g id="ytick_13">
     <g id="line2d_22">
      <g>
       <use style="fill:#262626;stroke:#262626;" x="61.20885" xlink:href="#md688d0f2dc" y="235.579701"/>
      </g>
     </g>
     <g id="text_19">
      <!-- war -->
      <defs>
       <path d="M 16.15625 0 
L 0.296875 51.859375 
L 9.375 51.859375 
L 17.625 21.921875 
L 20.703125 10.796875 
Q 20.90625 11.625 23.390625 21.484375 
L 31.640625 51.859375 
L 40.671875 51.859375 
L 48.4375 21.78125 
L 51.03125 11.859375 
L 54 21.875 
L 62.890625 51.859375 
L 71.4375 51.859375 
L 55.21875 0 
L 46.09375 0 
L 37.84375 31.0625 
L 35.84375 39.890625 
L 25.34375 0 
z
" id="ArialMT-119"/>
      </defs>
      <g style="fill:#262626;" transform="translate(38.41195 239.044083)scale(0.0968 -0.0968)">
       <use xlink:href="#ArialMT-119"/>
       <use x="72.216797" xlink:href="#ArialMT-97"/>
       <use x="127.832031" xlink:href="#ArialMT-114"/>
      </g>
     </g>
    </g>
    <g id="ytick_14">
     <g id="line2d_23">
      <g>
       <use style="fill:#262626;stroke:#262626;" x="61.20885" xlink:href="#md688d0f2dc" y="227.305075"/>
      </g>
     </g>
     <g id="text_20">
      <!-- today -->
      <g style="fill:#262626;" transform="translate(30.330663 230.769456)scale(0.0968 -0.0968)">
       <use xlink:href="#ArialMT-116"/>
       <use x="27.783203" xlink:href="#ArialMT-111"/>
       <use x="83.398438" xlink:href="#ArialMT-100"/>
       <use x="139.013672" xlink:href="#ArialMT-97"/>
       <use x="194.628906" xlink:href="#ArialMT-121"/>
      </g>
     </g>
    </g>
    <g id="ytick_15">
     <g id="line2d_24">
      <g>
       <use style="fill:#262626;stroke:#262626;" x="61.20885" xlink:href="#md688d0f2dc" y="219.030448"/>
      </g>
     </g>
     <g id="text_21">
      <!-- business -->
      <defs>
       <path d="M 14.703125 0 
L 6.546875 0 
L 6.546875 71.578125 
L 15.328125 71.578125 
L 15.328125 46.046875 
Q 20.90625 53.03125 29.546875 53.03125 
Q 34.328125 53.03125 38.59375 51.09375 
Q 42.875 49.171875 45.625 45.671875 
Q 48.390625 42.1875 49.953125 37.25 
Q 51.515625 32.328125 51.515625 26.703125 
Q 51.515625 13.375 44.921875 6.09375 
Q 38.328125 -1.171875 29.109375 -1.171875 
Q 19.921875 -1.171875 14.703125 6.5 
z
M 14.59375 26.3125 
Q 14.59375 17 17.140625 12.84375 
Q 21.296875 6.0625 28.375 6.0625 
Q 34.125 6.0625 38.328125 11.0625 
Q 42.53125 16.0625 42.53125 25.984375 
Q 42.53125 36.140625 38.5 40.96875 
Q 34.46875 45.796875 28.765625 45.796875 
Q 23 45.796875 18.796875 40.796875 
Q 14.59375 35.796875 14.59375 26.3125 
z
" id="ArialMT-98"/>
      </defs>
      <g style="fill:#262626;" transform="translate(15.806125 222.494829)scale(0.0968 -0.0968)">
       <use xlink:href="#ArialMT-98"/>
       <use x="55.615234" xlink:href="#ArialMT-117"/>
       <use x="111.230469" xlink:href="#ArialMT-115"/>
       <use x="161.230469" xlink:href="#ArialMT-105"/>
       <use x="183.447266" xlink:href="#ArialMT-110"/>
       <use x="239.0625" xlink:href="#ArialMT-101"/>
       <use x="294.677734" xlink:href="#ArialMT-115"/>
       <use x="344.677734" xlink:href="#ArialMT-115"/>
      </g>
     </g>
    </g>
    <g id="ytick_16">
     <g id="line2d_25">
      <g>
       <use style="fill:#262626;stroke:#262626;" x="61.20885" xlink:href="#md688d0f2dc" y="210.755821"/>
      </g>
     </g>
     <g id="text_22">
      <!-- company -->
      <g style="fill:#262626;" transform="translate(14.733763 214.163483)scale(0.0968 -0.0968)">
       <use xlink:href="#ArialMT-99"/>
       <use x="50" xlink:href="#ArialMT-111"/>
       <use x="105.615234" xlink:href="#ArialMT-109"/>
       <use x="188.916016" xlink:href="#ArialMT-112"/>
       <use x="244.53125" xlink:href="#ArialMT-97"/>
       <use x="300.146484" xlink:href="#ArialMT-110"/>
       <use x="355.761719" xlink:href="#ArialMT-121"/>
      </g>
     </g>
    </g>
    <g id="ytick_17">
     <g id="line2d_26">
      <g>
       <use style="fill:#262626;stroke:#262626;" x="61.20885" xlink:href="#md688d0f2dc" y="202.481194"/>
      </g>
     </g>
     <g id="text_23">
      <!-- john -->
      <defs>
       <path d="M 6.546875 61.375 
L 6.546875 71.578125 
L 15.328125 71.578125 
L 15.328125 61.375 
z
M -4.59375 -20.125 
L -2.9375 -12.640625 
Q -0.296875 -13.328125 1.21875 -13.328125 
Q 3.90625 -13.328125 5.21875 -11.546875 
Q 6.546875 -9.765625 6.546875 -2.640625 
L 6.546875 51.859375 
L 15.328125 51.859375 
L 15.328125 -2.828125 
Q 15.328125 -12.40625 12.84375 -16.15625 
Q 9.671875 -21.046875 2.296875 -21.046875 
Q -1.265625 -21.046875 -4.59375 -20.125 
z
" id="ArialMT-106"/>
       <path d="M 6.59375 0 
L 6.59375 71.578125 
L 15.375 71.578125 
L 15.375 45.90625 
Q 21.53125 53.03125 30.90625 53.03125 
Q 36.671875 53.03125 40.921875 50.75 
Q 45.171875 48.484375 47 44.484375 
Q 48.828125 40.484375 48.828125 32.859375 
L 48.828125 0 
L 40.046875 0 
L 40.046875 32.859375 
Q 40.046875 39.453125 37.1875 42.453125 
Q 34.328125 45.453125 29.109375 45.453125 
Q 25.203125 45.453125 21.75 43.421875 
Q 18.3125 41.40625 16.84375 37.9375 
Q 15.375 34.46875 15.375 28.375 
L 15.375 0 
z
" id="ArialMT-104"/>
      </defs>
      <g style="fill:#262626;" transform="translate(35.709113 205.945575)scale(0.0968 -0.0968)">
       <use xlink:href="#ArialMT-106"/>
       <use x="22.216797" xlink:href="#ArialMT-111"/>
       <use x="77.832031" xlink:href="#ArialMT-104"/>
       <use x="133.447266" xlink:href="#ArialMT-110"/>
      </g>
     </g>
    </g>
    <g id="ytick_18">
     <g id="line2d_27">
      <g>
       <use style="fill:#262626;stroke:#262626;" x="61.20885" xlink:href="#md688d0f2dc" y="194.206567"/>
      </g>
     </g>
     <g id="text_24">
      <!-- federal -->
      <g style="fill:#262626;" transform="translate(24.413763 197.670948)scale(0.0968 -0.0968)">
       <use xlink:href="#ArialMT-102"/>
       <use x="27.783203" xlink:href="#ArialMT-101"/>
       <use x="83.398438" xlink:href="#ArialMT-100"/>
       <use x="139.013672" xlink:href="#ArialMT-101"/>
       <use x="194.628906" xlink:href="#ArialMT-114"/>
       <use x="227.929688" xlink:href="#ArialMT-97"/>
       <use x="283.544922" xlink:href="#ArialMT-108"/>
      </g>
     </g>
    </g>
    <g id="ytick_19">
     <g id="line2d_28">
      <g>
       <use style="fill:#262626;stroke:#262626;" x="61.20885" xlink:href="#md688d0f2dc" y="185.93194"/>
      </g>
     </g>
     <g id="text_25">
      <!-- money -->
      <g style="fill:#262626;" transform="translate(24.95675 189.339603)scale(0.0968 -0.0968)">
       <use xlink:href="#ArialMT-109"/>
       <use x="83.300781" xlink:href="#ArialMT-111"/>
       <use x="138.916016" xlink:href="#ArialMT-110"/>
       <use x="194.53125" xlink:href="#ArialMT-101"/>
       <use x="250.146484" xlink:href="#ArialMT-121"/>
      </g>
     </g>
    </g>
    <g id="ytick_20">
     <g id="line2d_29">
      <g>
       <use style="fill:#262626;stroke:#262626;" x="61.20885" xlink:href="#md688d0f2dc" y="177.657313"/>
      </g>
     </g>
     <g id="text_26">
      <!-- companies -->
      <g style="fill:#262626;" transform="translate(7.2 181.121695)scale(0.0968 -0.0968)">
       <use xlink:href="#ArialMT-99"/>
       <use x="50" xlink:href="#ArialMT-111"/>
       <use x="105.615234" xlink:href="#ArialMT-109"/>
       <use x="188.916016" xlink:href="#ArialMT-112"/>
       <use x="244.53125" xlink:href="#ArialMT-97"/>
       <use x="300.146484" xlink:href="#ArialMT-110"/>
       <use x="355.761719" xlink:href="#ArialMT-105"/>
       <use x="377.978516" xlink:href="#ArialMT-101"/>
       <use x="433.59375" xlink:href="#ArialMT-115"/>
      </g>
     </g>
    </g>
    <g id="ytick_21">
     <g id="line2d_30">
      <g>
       <use style="fill:#262626;stroke:#262626;" x="61.20885" xlink:href="#md688d0f2dc" y="169.382687"/>
      </g>
     </g>
     <g id="text_27">
      <!-- observed -->
      <g style="fill:#262626;" transform="translate(14.190775 172.847068)scale(0.0968 -0.0968)">
       <use xlink:href="#ArialMT-111"/>
       <use x="55.615234" xlink:href="#ArialMT-98"/>
       <use x="111.230469" xlink:href="#ArialMT-115"/>
       <use x="161.230469" xlink:href="#ArialMT-101"/>
       <use x="216.845703" xlink:href="#ArialMT-114"/>
       <use x="250.146484" xlink:href="#ArialMT-118"/>
       <use x="300.146484" xlink:href="#ArialMT-101"/>
       <use x="355.761719" xlink:href="#ArialMT-100"/>
      </g>
     </g>
    </g>
    <g id="ytick_22">
     <g id="line2d_31">
      <g>
       <use style="fill:#262626;stroke:#262626;" x="61.20885" xlink:href="#md688d0f2dc" y="161.10806"/>
      </g>
     </g>
     <g id="text_28">
      <!-- samples -->
      <g style="fill:#262626;" transform="translate(17.965975 164.572441)scale(0.0968 -0.0968)">
       <use xlink:href="#ArialMT-115"/>
       <use x="50" xlink:href="#ArialMT-97"/>
       <use x="105.615234" xlink:href="#ArialMT-109"/>
       <use x="188.916016" xlink:href="#ArialMT-112"/>
       <use x="244.53125" xlink:href="#ArialMT-108"/>
       <use x="266.748047" xlink:href="#ArialMT-101"/>
       <use x="322.363281" xlink:href="#ArialMT-115"/>
      </g>
     </g>
    </g>
    <g id="ytick_23">
     <g id="line2d_32">
      <g>
       <use style="fill:#262626;stroke:#262626;" x="61.20885" xlink:href="#md688d0f2dc" y="152.833433"/>
      </g>
     </g>
     <g id="text_29">
      <!-- cell -->
      <g style="fill:#262626;" transform="translate(39.484313 156.297814)scale(0.0968 -0.0968)">
       <use xlink:href="#ArialMT-99"/>
       <use x="50" xlink:href="#ArialMT-101"/>
       <use x="105.615234" xlink:href="#ArialMT-108"/>
       <use x="127.832031" xlink:href="#ArialMT-108"/>
      </g>
     </g>
    </g>
    <g id="ytick_24">
     <g id="line2d_33">
      <g>
       <use style="fill:#262626;stroke:#262626;" x="61.20885" xlink:href="#md688d0f2dc" y="144.558806"/>
      </g>
     </g>
     <g id="text_30">
      <!-- expression -->
      <defs>
       <path d="M 0.734375 0 
L 19.671875 26.953125 
L 2.15625 51.859375 
L 13.140625 51.859375 
L 21.09375 39.703125 
Q 23.34375 36.234375 24.703125 33.890625 
Q 26.859375 37.109375 28.65625 39.59375 
L 37.40625 51.859375 
L 47.90625 51.859375 
L 29.984375 27.4375 
L 49.265625 0 
L 38.484375 0 
L 27.828125 16.109375 
L 25 20.453125 
L 11.375 0 
z
" id="ArialMT-120"/>
      </defs>
      <g style="fill:#262626;" transform="translate(7.2 148.023187)scale(0.0968 -0.0968)">
       <use xlink:href="#ArialMT-101"/>
       <use x="55.615234" xlink:href="#ArialMT-120"/>
       <use x="105.615234" xlink:href="#ArialMT-112"/>
       <use x="161.230469" xlink:href="#ArialMT-114"/>
       <use x="194.53125" xlink:href="#ArialMT-101"/>
       <use x="250.146484" xlink:href="#ArialMT-115"/>
       <use x="300.146484" xlink:href="#ArialMT-115"/>
       <use x="350.146484" xlink:href="#ArialMT-105"/>
       <use x="372.363281" xlink:href="#ArialMT-111"/>
       <use x="427.978516" xlink:href="#ArialMT-110"/>
      </g>
     </g>
    </g>
    <g id="ytick_25">
     <g id="line2d_34">
      <g>
       <use style="fill:#262626;stroke:#262626;" x="61.20885" xlink:href="#md688d0f2dc" y="136.284179"/>
      </g>
     </g>
     <g id="text_31">
      <!-- p -->
      <g style="fill:#262626;" transform="translate(48.625863 139.74856)scale(0.0968 -0.0968)">
       <use xlink:href="#ArialMT-112"/>
      </g>
     </g>
    </g>
    <g id="ytick_26">
     <g id="line2d_35">
      <g>
       <use style="fill:#262626;stroke:#262626;" x="61.20885" xlink:href="#md688d0f2dc" y="128.009552"/>
      </g>
     </g>
     <g id="text_32">
      <!-- genes -->
      <g style="fill:#262626;" transform="translate(27.6369 131.417215)scale(0.0968 -0.0968)">
       <use xlink:href="#ArialMT-103"/>
       <use x="55.615234" xlink:href="#ArialMT-101"/>
       <use x="111.230469" xlink:href="#ArialMT-110"/>
       <use x="166.845703" xlink:href="#ArialMT-101"/>
       <use x="222.460938" xlink:href="#ArialMT-115"/>
      </g>
     </g>
    </g>
    <g id="ytick_27">
     <g id="line2d_36">
      <g>
       <use style="fill:#262626;stroke:#262626;" x="61.20885" xlink:href="#md688d0f2dc" y="119.734925"/>
      </g>
     </g>
     <g id="text_33">
      <!-- cells -->
      <g style="fill:#262626;" transform="translate(34.644313 123.199307)scale(0.0968 -0.0968)">
       <use xlink:href="#ArialMT-99"/>
       <use x="50" xlink:href="#ArialMT-101"/>
       <use x="105.615234" xlink:href="#ArialMT-108"/>
       <use x="127.832031" xlink:href="#ArialMT-108"/>
       <use x="150.048828" xlink:href="#ArialMT-115"/>
      </g>
     </g>
    </g>
    <g id="ytick_28">
     <g id="line2d_37">
      <g>
       <use style="fill:#262626;stroke:#262626;" x="61.20885" xlink:href="#md688d0f2dc" y="111.460299"/>
      </g>
     </g>
     <g id="text_34">
      <!-- protein -->
      <g style="fill:#262626;" transform="translate(24.413763 114.92468)scale(0.0968 -0.0968)">
       <use xlink:href="#ArialMT-112"/>
       <use x="55.615234" xlink:href="#ArialMT-114"/>
       <use x="88.916016" xlink:href="#ArialMT-111"/>
       <use x="144.53125" xlink:href="#ArialMT-116"/>
       <use x="172.314453" xlink:href="#ArialMT-101"/>
       <use x="227.929688" xlink:href="#ArialMT-105"/>
       <use x="250.146484" xlink:href="#ArialMT-110"/>
      </g>
     </g>
    </g>
    <g id="ytick_29">
     <g id="line2d_38">
      <g>
       <use style="fill:#262626;stroke:#262626;" x="61.20885" xlink:href="#md688d0f2dc" y="103.185672"/>
      </g>
     </g>
     <g id="text_35">
      <!-- mice -->
      <g style="fill:#262626;" transform="translate(33.57195 106.650053)scale(0.0968 -0.0968)">
       <use xlink:href="#ArialMT-109"/>
       <use x="83.300781" xlink:href="#ArialMT-105"/>
       <use x="105.517578" xlink:href="#ArialMT-99"/>
       <use x="155.517578" xlink:href="#ArialMT-101"/>
      </g>
     </g>
    </g>
    <g id="ytick_30">
     <g id="line2d_39">
      <g>
       <use style="fill:#262626;stroke:#262626;" x="61.20885" xlink:href="#md688d0f2dc" y="94.911045"/>
      </g>
     </g>
     <g id="text_36">
      <!-- ” -->
      <defs>
       <path d="M 4.25 62.109375 
L 4.25 72.3125 
L 13.671875 72.3125 
L 13.671875 64.265625 
Q 13.671875 57.71875 12.15625 54.828125 
Q 10.0625 50.875 5.609375 48.875 
L 3.46875 52.34375 
Q 6.109375 53.421875 7.390625 55.734375 
Q 8.6875 58.0625 8.84375 62.109375 
z
M 19.390625 62.109375 
L 19.390625 72.3125 
L 28.8125 72.3125 
L 28.8125 64.265625 
Q 28.8125 57.71875 27.296875 54.828125 
Q 25.203125 50.875 20.75 48.875 
L 18.609375 52.34375 
Q 21.234375 53.421875 22.53125 55.734375 
Q 23.828125 58.0625 23.96875 62.109375 
z
" id="ArialMT-8221"/>
      </defs>
      <g style="fill:#262626;" transform="translate(50.785713 98.375426)scale(0.0968 -0.0968)">
       <use xlink:href="#ArialMT-8221"/>
      </g>
     </g>
    </g>
    <g id="ytick_31">
     <g id="line2d_40">
      <g>
       <use style="fill:#262626;stroke:#262626;" x="61.20885" xlink:href="#md688d0f2dc" y="86.636418"/>
      </g>
     </g>
     <g id="text_37">
      <!-- “ -->
      <defs>
       <path d="M 13.484375 59.578125 
L 13.484375 49.359375 
L 4.046875 49.359375 
L 4.046875 57.421875 
Q 4.046875 63.96875 5.609375 66.890625 
Q 7.671875 70.796875 12.109375 72.796875 
L 14.265625 69.390625 
Q 11.578125 68.265625 10.296875 66.03125 
Q 9.03125 63.8125 8.890625 59.578125 
z
M 28.609375 59.578125 
L 28.609375 49.359375 
L 19.1875 49.359375 
L 19.1875 57.421875 
Q 19.1875 63.96875 20.75 66.890625 
Q 22.796875 70.796875 27.25 72.796875 
L 29.390625 69.390625 
Q 26.703125 68.265625 25.4375 66.03125 
Q 24.171875 63.8125 24.03125 59.578125 
z
" id="ArialMT-8220"/>
      </defs>
      <g style="fill:#262626;" transform="translate(50.785713 90.100799)scale(0.0968 -0.0968)">
       <use xlink:href="#ArialMT-8220"/>
      </g>
     </g>
    </g>
    <g id="ytick_32">
     <g id="line2d_41">
      <g>
       <use style="fill:#262626;stroke:#262626;" x="61.20885" xlink:href="#md688d0f2dc" y="78.361791"/>
      </g>
     </g>
     <g id="text_38">
      <!-- et -->
      <g style="fill:#262626;" transform="translate(45.936638 81.826172)scale(0.0968 -0.0968)">
       <use xlink:href="#ArialMT-101"/>
       <use x="55.615234" xlink:href="#ArialMT-116"/>
      </g>
     </g>
    </g>
    <g id="ytick_33">
     <g id="line2d_42">
      <g>
       <use style="fill:#262626;stroke:#262626;" x="61.20885" xlink:href="#md688d0f2dc" y="70.087164"/>
      </g>
     </g>
     <g id="text_39">
      <!-- min -->
      <g style="fill:#262626;" transform="translate(38.41195 73.551545)scale(0.0968 -0.0968)">
       <use xlink:href="#ArialMT-109"/>
       <use x="83.300781" xlink:href="#ArialMT-105"/>
       <use x="105.517578" xlink:href="#ArialMT-110"/>
      </g>
     </g>
    </g>
    <g id="ytick_34">
     <g id="line2d_43">
      <g>
       <use style="fill:#262626;stroke:#262626;" x="61.20885" xlink:href="#md688d0f2dc" y="61.812537"/>
      </g>
     </g>
     <g id="text_40">
      <!-- ’ -->
      <defs>
       <path d="M 6.0625 62.109375 
L 6.0625 72.3125 
L 15.484375 72.3125 
L 15.484375 64.265625 
Q 15.484375 57.71875 13.96875 54.828125 
Q 11.859375 50.875 7.421875 48.875 
L 5.28125 52.34375 
Q 7.90625 53.421875 9.203125 55.734375 
Q 10.5 58.0625 10.640625 62.109375 
z
" id="ArialMT-8217"/>
      </defs>
      <g style="fill:#262626;" transform="translate(51.858075 65.276919)scale(0.0968 -0.0968)">
       <use xlink:href="#ArialMT-8217"/>
      </g>
     </g>
    </g>
    <g id="ytick_35">
     <g id="line2d_44">
      <g>
       <use style="fill:#262626;stroke:#262626;" x="61.20885" xlink:href="#md688d0f2dc" y="53.53791"/>
      </g>
     </g>
     <g id="text_41">
      <!-- fig -->
      <g style="fill:#262626;" transform="translate(43.785863 57.061279)scale(0.0968 -0.0968)">
       <use xlink:href="#ArialMT-102"/>
       <use x="27.783203" xlink:href="#ArialMT-105"/>
       <use x="50" xlink:href="#ArialMT-103"/>
      </g>
     </g>
    </g>
    <g id="ytick_36">
     <g id="line2d_45">
      <g>
       <use style="fill:#262626;stroke:#262626;" x="61.20885" xlink:href="#md688d0f2dc" y="45.263284"/>
      </g>
     </g>
     <g id="text_42">
      <!-- mm -->
      <g style="fill:#262626;" transform="translate(37.882575 48.727665)scale(0.0968 -0.0968)">
       <use xlink:href="#ArialMT-109"/>
       <use x="83.300781" xlink:href="#ArialMT-109"/>
      </g>
     </g>
    </g>
    <g id="ytick_37">
     <g id="line2d_46">
      <g>
       <use style="fill:#262626;stroke:#262626;" x="61.20885" xlink:href="#md688d0f2dc" y="36.988657"/>
      </g>
     </g>
     <g id="text_43">
      <!-- ml -->
      <g style="fill:#262626;" transform="translate(43.794938 40.453038)scale(0.0968 -0.0968)">
       <use xlink:href="#ArialMT-109"/>
       <use x="83.300781" xlink:href="#ArialMT-108"/>
      </g>
     </g>
    </g>
    <g id="ytick_38">
     <g id="line2d_47">
      <g>
       <use style="fill:#262626;stroke:#262626;" x="61.20885" xlink:href="#md688d0f2dc" y="28.71403"/>
      </g>
     </g>
     <g id="text_44">
      <!-- ° -->
      <defs>
       <path d="M 6.25 59.28125 
Q 6.25 64.890625 10.21875 68.84375 
Q 14.203125 72.796875 19.78125 72.796875 
Q 25.4375 72.796875 29.390625 68.84375 
Q 33.34375 64.890625 33.34375 59.28125 
Q 33.34375 53.65625 29.359375 49.671875 
Q 25.390625 45.703125 19.78125 45.703125 
Q 14.203125 45.703125 10.21875 49.65625 
Q 6.25 53.609375 6.25 59.28125 
z
M 11.578125 59.28125 
Q 11.578125 55.859375 13.984375 53.4375 
Q 16.40625 51.03125 19.828125 51.03125 
Q 23.1875 51.03125 25.609375 53.4375 
Q 28.03125 55.859375 28.03125 59.28125 
Q 28.03125 62.703125 25.609375 65.109375 
Q 23.1875 67.53125 19.828125 67.53125 
Q 16.40625 67.53125 13.984375 65.109375 
Q 11.578125 62.703125 11.578125 59.28125 
z
" id="ArialMT-176"/>
      </defs>
      <g style="fill:#262626;" transform="translate(50.138363 32.178411)scale(0.0968 -0.0968)">
       <use xlink:href="#ArialMT-176"/>
      </g>
     </g>
    </g>
    <g id="ytick_39">
     <g id="line2d_48">
      <g>
       <use style="fill:#262626;stroke:#262626;" x="61.20885" xlink:href="#md688d0f2dc" y="20.439403"/>
      </g>
     </g>
     <g id="text_45">
      <!-- – -->
      <defs>
       <path d="M -0.203125 22.359375 
L -0.203125 29.4375 
L 55.421875 29.4375 
L 55.421875 22.359375 
z
" id="ArialMT-8211"/>
      </defs>
      <g style="fill:#262626;" transform="translate(48.625863 23.903784)scale(0.0968 -0.0968)">
       <use xlink:href="#ArialMT-8211"/>
      </g>
     </g>
    </g>
    <g id="ytick_40">
     <g id="line2d_49">
      <g>
       <use style="fill:#262626;stroke:#262626;" x="61.20885" xlink:href="#md688d0f2dc" y="12.164776"/>
      </g>
     </g>
     <g id="text_46">
      <!-- ± -->
      <defs>
       <path d="M 23.296875 12.703125 
L 23.296875 32.375 
L 3.8125 32.375 
L 3.8125 40.53125 
L 23.296875 40.53125 
L 23.296875 60.015625 
L 31.59375 60.015625 
L 31.59375 40.53125 
L 51.078125 40.53125 
L 51.078125 32.375 
L 31.59375 32.375 
L 31.59375 12.703125 
z
M 51.078125 0 
L 3.8125 0 
L 3.8125 8.203125 
L 51.078125 8.203125 
z
" id="ArialMT-177"/>
      </defs>
      <g style="fill:#262626;" transform="translate(48.695438 15.629157)scale(0.0968 -0.0968)">
       <use xlink:href="#ArialMT-177"/>
      </g>
     </g>
    </g>
   </g>
   <g id="PathCollection_1">
    <path clip-path="url(#p789df2ca26)" d="M 591.762323 21.768743 
C 592.114868 21.768743 592.453021 21.628676 592.702309 21.379389 
C 592.951596 21.130101 593.091663 20.791948 593.091663 20.439403 
C 593.091663 20.086858 592.951596 19.748704 592.702309 19.499417 
C 592.453021 19.25013 592.114868 19.110063 591.762323 19.110063 
C 591.409778 19.110063 591.071624 19.25013 590.822337 19.499417 
C 590.57305 19.748704 590.432983 20.086858 590.432983 20.439403 
C 590.432983 20.791948 590.57305 21.130101 590.822337 21.379389 
C 591.071624 21.628676 591.409778 21.768743 591.762323 21.768743 
z
" style="fill:#253494;stroke:#253494;stroke-width:0.886227;"/>
    <path clip-path="url(#p789df2ca26)" d="M 580.291923 30.04337 
C 580.644469 30.04337 580.982622 29.903303 581.231909 29.654015 
C 581.481196 29.404728 581.621264 29.066575 581.621264 28.71403 
C 581.621264 28.361485 581.481196 28.023331 581.231909 27.774044 
C 580.982622 27.524757 580.644469 27.384689 580.291923 27.384689 
C 579.939378 27.384689 579.601225 27.524757 579.351938 27.774044 
C 579.102651 28.023331 578.962583 28.361485 578.962583 28.71403 
C 578.962583 29.066575 579.102651 29.404728 579.351938 29.654015 
C 579.601225 29.903303 579.939378 30.04337 580.291923 30.04337 
z
" style="fill:#253494;stroke:#253494;stroke-width:0.886227;"/>
    <path clip-path="url(#p789df2ca26)" d="M 491.421218 38.317997 
C 491.773763 38.317997 492.111916 38.177929 492.361203 37.928642 
C 492.61049 37.679355 492.750558 37.341202 492.750558 36.988657 
C 492.750558 36.636112 492.61049 36.297958 492.361203 36.048671 
C 492.111916 35.799384 491.773763 35.659316 491.421218 35.659316 
C 491.068672 35.659316 490.730519 35.799384 490.481232 36.048671 
C 490.231945 36.297958 490.091877 36.636112 490.091877 36.988657 
C 490.091877 37.341202 490.231945 37.679355 490.481232 37.928642 
C 490.730519 38.177929 491.068672 38.317997 491.421218 38.317997 
z
" style="fill:#253494;stroke:#253494;stroke-width:0.886227;"/>
    <path clip-path="url(#p789df2ca26)" d="M 478.968333 46.592624 
C 479.320878 46.592624 479.659032 46.452556 479.908319 46.203269 
C 480.157606 45.953982 480.297673 45.615829 480.297673 45.263284 
C 480.297673 44.910738 480.157606 44.572585 479.908319 44.323298 
C 479.659032 44.074011 479.320878 43.933943 478.968333 43.933943 
C 478.615788 43.933943 478.277635 44.074011 478.028347 44.323298 
C 477.77906 44.572585 477.638993 44.910738 477.638993 45.263284 
C 477.638993 45.615829 477.77906 45.953982 478.028347 46.203269 
C 478.277635 46.452556 478.615788 46.592624 478.968333 46.592624 
z
" style="fill:#253494;stroke:#253494;stroke-width:0.886227;"/>
    <path clip-path="url(#p789df2ca26)" d="M 458.533163 54.867251 
C 458.885708 54.867251 459.223862 54.727183 459.473149 54.477896 
C 459.722436 54.228609 459.862503 53.890456 459.862503 53.53791 
C 459.862503 53.185365 459.722436 52.847212 459.473149 52.597925 
C 459.223862 52.348638 458.885708 52.20857 458.533163 52.20857 
C 458.180618 52.20857 457.842465 52.348638 457.593177 52.597925 
C 457.34389 52.847212 457.203823 53.185365 457.203823 53.53791 
C 457.203823 53.890456 457.34389 54.228609 457.593177 54.477896 
C 457.842465 54.727183 458.180618 54.867251 458.533163 54.867251 
z
" style="fill:#253494;stroke:#253494;stroke-width:0.886227;"/>
    <path clip-path="url(#p789df2ca26)" d="M 455.840151 63.141878 
C 456.192696 63.141878 456.53085 63.00181 456.780137 62.752523 
C 457.029424 62.503236 457.169491 62.165083 457.169491 61.812537 
C 457.169491 61.459992 457.029424 61.121839 456.780137 60.872552 
C 456.53085 60.623265 456.192696 60.483197 455.840151 60.483197 
C 455.487606 60.483197 455.149453 60.623265 454.900165 60.872552 
C 454.650878 61.121839 454.510811 61.459992 454.510811 61.812537 
C 454.510811 62.165083 454.650878 62.503236 454.900165 62.752523 
C 455.149453 63.00181 455.487606 63.141878 455.840151 63.141878 
z
" style="fill:#253494;stroke:#253494;stroke-width:0.886227;"/>
    <path clip-path="url(#p789df2ca26)" d="M 446.212516 71.416505 
C 446.565062 71.416505 446.903215 71.276437 447.152502 71.02715 
C 447.401789 70.777863 447.541857 70.439709 447.541857 70.087164 
C 447.541857 69.734619 447.401789 69.396466 447.152502 69.147179 
C 446.903215 68.897891 446.565062 68.757824 446.212516 68.757824 
C 445.859971 68.757824 445.521818 68.897891 445.272531 69.147179 
C 445.023244 69.396466 444.883176 69.734619 444.883176 70.087164 
C 444.883176 70.439709 445.023244 70.777863 445.272531 71.02715 
C 445.521818 71.276437 445.859971 71.416505 446.212516 71.416505 
z
" style="fill:#253494;stroke:#253494;stroke-width:0.886227;"/>
    <path clip-path="url(#p789df2ca26)" d="M 444.990129 79.691131 
C 445.342674 79.691131 445.680827 79.551064 445.930114 79.301777 
C 446.179401 79.05249 446.319469 78.714336 446.319469 78.361791 
C 446.319469 78.009246 446.179401 77.671093 445.930114 77.421805 
C 445.680827 77.172518 445.342674 77.032451 444.990129 77.032451 
C 444.637584 77.032451 444.29943 77.172518 444.050143 77.421805 
C 443.800856 77.671093 443.660788 78.009246 443.660788 78.361791 
C 443.660788 78.714336 443.800856 79.05249 444.050143 79.301777 
C 444.29943 79.551064 444.637584 79.691131 444.990129 79.691131 
z
" style="fill:#253494;stroke:#253494;stroke-width:0.886227;"/>
    <path clip-path="url(#p789df2ca26)" d="M 433.885979 87.965758 
C 434.238524 87.965758 434.576677 87.825691 434.825964 87.576404 
C 435.075251 87.327116 435.215319 86.988963 435.215319 86.636418 
C 435.215319 86.283873 435.075251 85.945719 434.825964 85.696432 
C 434.576677 85.447145 434.238524 85.307078 433.885979 85.307078 
C 433.533433 85.307078 433.19528 85.447145 432.945993 85.696432 
C 432.696706 85.945719 432.556638 86.283873 432.556638 86.636418 
C 432.556638 86.988963 432.696706 87.327116 432.945993 87.576404 
C 433.19528 87.825691 433.533433 87.965758 433.885979 87.965758 
z
" style="fill:#253494;stroke:#253494;stroke-width:0.886227;"/>
    <path clip-path="url(#p789df2ca26)" d="M 433.755787 96.240385 
C 434.108332 96.240385 434.446485 96.100317 434.695772 95.85103 
C 434.945059 95.601743 435.085127 95.26359 435.085127 94.911045 
C 435.085127 94.5585 434.945059 94.220346 434.695772 93.971059 
C 434.446485 93.721772 434.108332 93.581704 433.755787 93.581704 
C 433.403242 93.581704 433.065088 93.721772 432.815801 93.971059 
C 432.566514 94.220346 432.426446 94.5585 432.426446 94.911045 
C 432.426446 95.26359 432.566514 95.601743 432.815801 95.85103 
C 433.065088 96.100317 433.403242 96.240385 433.755787 96.240385 
z
" style="fill:#253494;stroke:#253494;stroke-width:0.886227;"/>
    <path clip-path="url(#p789df2ca26)" d="M 423.550677 104.515012 
C 423.903222 104.515012 424.241376 104.374944 424.490663 104.125657 
C 424.73995 103.87637 424.880018 103.538217 424.880018 103.185672 
C 424.880018 102.833126 424.73995 102.494973 424.490663 102.245686 
C 424.241376 101.996399 423.903222 101.856331 423.550677 101.856331 
C 423.198132 101.856331 422.859979 101.996399 422.610692 102.245686 
C 422.361404 102.494973 422.221337 102.833126 422.221337 103.185672 
C 422.221337 103.538217 422.361404 103.87637 422.610692 104.125657 
C 422.859979 104.374944 423.198132 104.515012 423.550677 104.515012 
z
" style="fill:#253494;stroke:#253494;stroke-width:0.886227;"/>
    <path clip-path="url(#p789df2ca26)" d="M 421.388406 112.789639 
C 421.740952 112.789639 422.079105 112.649571 422.328392 112.400284 
C 422.577679 112.150997 422.717747 111.812844 422.717747 111.460299 
C 422.717747 111.107753 422.577679 110.7696 422.328392 110.520313 
C 422.079105 110.271026 421.740952 110.130958 421.388406 110.130958 
C 421.035861 110.130958 420.697708 110.271026 420.448421 110.520313 
C 420.199134 110.7696 420.059066 111.107753 420.059066 111.460299 
C 420.059066 111.812844 420.199134 112.150997 420.448421 112.400284 
C 420.697708 112.649571 421.035861 112.789639 421.388406 112.789639 
z
" style="fill:#253494;stroke:#253494;stroke-width:0.886227;"/>
    <path clip-path="url(#p789df2ca26)" d="M 417.832548 121.064266 
C 418.185093 121.064266 418.523246 120.924198 418.772533 120.674911 
C 419.02182 120.425624 419.161888 120.087471 419.161888 119.734925 
C 419.161888 119.38238 419.02182 119.044227 418.772533 118.79494 
C 418.523246 118.545653 418.185093 118.405585 417.832548 118.405585 
C 417.480002 118.405585 417.141849 118.545653 416.892562 118.79494 
C 416.643275 119.044227 416.503207 119.38238 416.503207 119.734925 
C 416.503207 120.087471 416.643275 120.425624 416.892562 120.674911 
C 417.141849 120.924198 417.480002 121.064266 417.832548 121.064266 
z
" style="fill:#253494;stroke:#253494;stroke-width:0.886227;"/>
    <path clip-path="url(#p789df2ca26)" d="M 414.685172 129.338893 
C 415.037717 129.338893 415.37587 129.198825 415.625158 128.949538 
C 415.874445 128.700251 416.014512 128.362097 416.014512 128.009552 
C 416.014512 127.657007 415.874445 127.318854 415.625158 127.069567 
C 415.37587 126.82028 415.037717 126.680212 414.685172 126.680212 
C 414.332627 126.680212 413.994473 126.82028 413.745186 127.069567 
C 413.495899 127.318854 413.355832 127.657007 413.355832 128.009552 
C 413.355832 128.362097 413.495899 128.700251 413.745186 128.949538 
C 413.994473 129.198825 414.332627 129.338893 414.685172 129.338893 
z
" style="fill:#253494;stroke:#253494;stroke-width:0.886227;"/>
    <path clip-path="url(#p789df2ca26)" d="M 414.664859 137.613519 
C 415.017404 137.613519 415.355557 137.473452 415.604845 137.224165 
C 415.854132 136.974878 415.994199 136.636724 415.994199 136.284179 
C 415.994199 135.931634 415.854132 135.593481 415.604845 135.344194 
C 415.355557 135.094906 415.017404 134.954839 414.664859 134.954839 
C 414.312314 134.954839 413.97416 135.094906 413.724873 135.344194 
C 413.475586 135.593481 413.335519 135.931634 413.335519 136.284179 
C 413.335519 136.636724 413.475586 136.974878 413.724873 137.224165 
C 413.97416 137.473452 414.312314 137.613519 414.664859 137.613519 
z
" style="fill:#253494;stroke:#253494;stroke-width:0.886227;"/>
    <path clip-path="url(#p789df2ca26)" d="M 413.067962 145.888146 
C 413.420507 145.888146 413.758661 145.748079 414.007948 145.498792 
C 414.257235 145.249504 414.397302 144.911351 414.397302 144.558806 
C 414.397302 144.206261 414.257235 143.868107 414.007948 143.61882 
C 413.758661 143.369533 413.420507 143.229466 413.067962 143.229466 
C 412.715417 143.229466 412.377264 143.369533 412.127976 143.61882 
C 411.878689 143.868107 411.738622 144.206261 411.738622 144.558806 
C 411.738622 144.911351 411.878689 145.249504 412.127976 145.498792 
C 412.377264 145.748079 412.715417 145.888146 413.067962 145.888146 
z
" style="fill:#253494;stroke:#253494;stroke-width:0.886227;"/>
    <path clip-path="url(#p789df2ca26)" d="M 409.909653 154.162773 
C 410.262198 154.162773 410.600352 154.022706 410.849639 153.773418 
C 411.098926 153.524131 411.238993 153.185978 411.238993 152.833433 
C 411.238993 152.480888 411.098926 152.142734 410.849639 151.893447 
C 410.600352 151.64416 410.262198 151.504092 409.909653 151.504092 
C 409.557108 151.504092 409.218955 151.64416 408.969667 151.893447 
C 408.72038 152.142734 408.580313 152.480888 408.580313 152.833433 
C 408.580313 153.185978 408.72038 153.524131 408.969667 153.773418 
C 409.218955 154.022706 409.557108 154.162773 409.909653 154.162773 
z
" style="fill:#253494;stroke:#253494;stroke-width:0.886227;"/>
    <path clip-path="url(#p789df2ca26)" d="M 409.674433 162.4374 
C 410.026978 162.4374 410.365131 162.297332 410.614418 162.048045 
C 410.863705 161.798758 411.003773 161.460605 411.003773 161.10806 
C 411.003773 160.755515 410.863705 160.417361 410.614418 160.168074 
C 410.365131 159.918787 410.026978 159.778719 409.674433 159.778719 
C 409.321887 159.778719 408.983734 159.918787 408.734447 160.168074 
C 408.48516 160.417361 408.345092 160.755515 408.345092 161.10806 
C 408.345092 161.460605 408.48516 161.798758 408.734447 162.048045 
C 408.983734 162.297332 409.321887 162.4374 409.674433 162.4374 
z
" style="fill:#253494;stroke:#253494;stroke-width:0.886227;"/>
    <path clip-path="url(#p789df2ca26)" d="M 405.199503 170.712027 
C 405.552048 170.712027 405.890201 170.571959 406.139489 170.322672 
C 406.388776 170.073385 406.528843 169.735232 406.528843 169.382687 
C 406.528843 169.030141 406.388776 168.691988 406.139489 168.442701 
C 405.890201 168.193414 405.552048 168.053346 405.199503 168.053346 
C 404.846958 168.053346 404.508804 168.193414 404.259517 168.442701 
C 404.01023 168.691988 403.870163 169.030141 403.870163 169.382687 
C 403.870163 169.735232 404.01023 170.073385 404.259517 170.322672 
C 404.508804 170.571959 404.846958 170.712027 405.199503 170.712027 
z
" style="fill:#253494;stroke:#253494;stroke-width:0.886227;"/>
    <path clip-path="url(#p789df2ca26)" d="M 271.124817 178.986654 
C 271.477363 178.986654 271.815516 178.846586 272.064803 178.597299 
C 272.31409 178.348012 272.454158 178.009859 272.454158 177.657313 
C 272.454158 177.304768 272.31409 176.966615 272.064803 176.717328 
C 271.815516 176.468041 271.477363 176.327973 271.124817 176.327973 
C 270.772272 176.327973 270.434119 176.468041 270.184832 176.717328 
C 269.935545 176.966615 269.795477 177.304768 269.795477 177.657313 
C 269.795477 178.009859 269.935545 178.348012 270.184832 178.597299 
C 270.434119 178.846586 270.772272 178.986654 271.124817 178.986654 
z
" style="fill:#253494;stroke:#253494;stroke-width:0.886227;"/>
    <path clip-path="url(#p789df2ca26)" d="M 269.195393 187.261281 
C 269.547939 187.261281 269.886092 187.121213 270.135379 186.871926 
C 270.384666 186.622639 270.524734 186.284485 270.524734 185.93194 
C 270.524734 185.579395 270.384666 185.241242 270.135379 184.991955 
C 269.886092 184.742668 269.547939 184.6026 269.195393 184.6026 
C 268.842848 184.6026 268.504695 184.742668 268.255408 184.991955 
C 268.006121 185.241242 267.866053 185.579395 267.866053 185.93194 
C 267.866053 186.284485 268.006121 186.622639 268.255408 186.871926 
C 268.504695 187.121213 268.842848 187.261281 269.195393 187.261281 
z
" style="fill:#253494;stroke:#253494;stroke-width:0.886227;"/>
    <path clip-path="url(#p789df2ca26)" d="M 267.980344 195.535908 
C 268.332889 195.535908 268.671042 195.39584 268.920329 195.146553 
C 269.169616 194.897266 269.309684 194.559112 269.309684 194.206567 
C 269.309684 193.854022 269.169616 193.515869 268.920329 193.266582 
C 268.671042 193.017294 268.332889 192.877227 267.980344 192.877227 
C 267.627798 192.877227 267.289645 193.017294 267.040358 193.266582 
C 266.791071 193.515869 266.651003 193.854022 266.651003 194.206567 
C 266.651003 194.559112 266.791071 194.897266 267.040358 195.146553 
C 267.289645 195.39584 267.627798 195.535908 267.980344 195.535908 
z
" style="fill:#253494;stroke:#253494;stroke-width:0.886227;"/>
    <path clip-path="url(#p789df2ca26)" d="M 265.943103 203.810534 
C 266.295648 203.810534 266.633801 203.670467 266.883088 203.42118 
C 267.132375 203.171893 267.272443 202.833739 267.272443 202.481194 
C 267.272443 202.128649 267.132375 201.790496 266.883088 201.541208 
C 266.633801 201.291921 266.295648 201.151854 265.943103 201.151854 
C 265.590558 201.151854 265.252404 201.291921 265.003117 201.541208 
C 264.75383 201.790496 264.613762 202.128649 264.613762 202.481194 
C 264.613762 202.833739 264.75383 203.171893 265.003117 203.42118 
C 265.252404 203.670467 265.590558 203.810534 265.943103 203.810534 
z
" style="fill:#253494;stroke:#253494;stroke-width:0.886227;"/>
    <path clip-path="url(#p789df2ca26)" d="M 261.786601 212.085161 
C 262.139146 212.085161 262.4773 211.945094 262.726587 211.695806 
C 262.975874 211.446519 263.115942 211.108366 263.115942 210.755821 
C 263.115942 210.403276 262.975874 210.065122 262.726587 209.815835 
C 262.4773 209.566548 262.139146 209.426481 261.786601 209.426481 
C 261.434056 209.426481 261.095903 209.566548 260.846616 209.815835 
C 260.597328 210.065122 260.457261 210.403276 260.457261 210.755821 
C 260.457261 211.108366 260.597328 211.446519 260.846616 211.695806 
C 261.095903 211.945094 261.434056 212.085161 261.786601 212.085161 
z
" style="fill:#253494;stroke:#253494;stroke-width:0.886227;"/>
    <path clip-path="url(#p789df2ca26)" d="M 261.671274 220.359788 
C 262.023819 220.359788 262.361972 220.21972 262.611259 219.970433 
C 262.860546 219.721146 263.000614 219.382993 263.000614 219.030448 
C 263.000614 218.677903 262.860546 218.339749 262.611259 218.090462 
C 262.361972 217.841175 262.023819 217.701107 261.671274 217.701107 
C 261.318728 217.701107 260.980575 217.841175 260.731288 218.090462 
C 260.482001 218.339749 260.341933 218.677903 260.341933 219.030448 
C 260.341933 219.382993 260.482001 219.721146 260.731288 219.970433 
C 260.980575 220.21972 261.318728 220.359788 261.671274 220.359788 
z
" style="fill:#253494;stroke:#253494;stroke-width:0.886227;"/>
    <path clip-path="url(#p789df2ca26)" d="M 259.081274 228.634415 
C 259.433819 228.634415 259.771972 228.494347 260.02126 228.24506 
C 260.270547 227.995773 260.410614 227.65762 260.410614 227.305075 
C 260.410614 226.952529 260.270547 226.614376 260.02126 226.365089 
C 259.771972 226.115802 259.433819 225.975734 259.081274 225.975734 
C 258.728729 225.975734 258.390575 226.115802 258.141288 226.365089 
C 257.892001 226.614376 257.751934 226.952529 257.751934 227.305075 
C 257.751934 227.65762 257.892001 227.995773 258.141288 228.24506 
C 258.390575 228.494347 258.728729 228.634415 259.081274 228.634415 
z
" style="fill:#253494;stroke:#253494;stroke-width:0.886227;"/>
    <path clip-path="url(#p789df2ca26)" d="M 259.020535 236.909042 
C 259.37308 236.909042 259.711234 236.768974 259.960521 236.519687 
C 260.209808 236.2704 260.349876 235.932247 260.349876 235.579701 
C 260.349876 235.227156 260.209808 234.889003 259.960521 234.639716 
C 259.711234 234.390429 259.37308 234.250361 259.020535 234.250361 
C 258.66799 234.250361 258.329837 234.390429 258.08055 234.639716 
C 257.831263 234.889003 257.691195 235.227156 257.691195 235.579701 
C 257.691195 235.932247 257.831263 236.2704 258.08055 236.519687 
C 258.329837 236.768974 258.66799 236.909042 259.020535 236.909042 
z
" style="fill:#253494;stroke:#253494;stroke-width:0.886227;"/>
    <path clip-path="url(#p789df2ca26)" d="M 256.180068 245.183669 
C 256.532614 245.183669 256.870767 245.043601 257.120054 244.794314 
C 257.369341 244.545027 257.509409 244.206874 257.509409 243.854328 
C 257.509409 243.501783 257.369341 243.16363 257.120054 242.914343 
C 256.870767 242.665056 256.532614 242.524988 256.180068 242.524988 
C 255.827523 242.524988 255.48937 242.665056 255.240083 242.914343 
C 254.990796 243.16363 254.850728 243.501783 254.850728 243.854328 
C 254.850728 244.206874 254.990796 244.545027 255.240083 244.794314 
C 255.48937 245.043601 255.827523 245.183669 256.180068 245.183669 
z
" style="fill:#253494;stroke:#253494;stroke-width:0.886227;"/>
    <path clip-path="url(#p789df2ca26)" d="M 251.797428 253.458296 
C 252.149973 253.458296 252.488126 253.318228 252.737413 253.068941 
C 252.9867 252.819654 253.126768 252.4815 253.126768 252.128955 
C 253.126768 251.77641 252.9867 251.438257 252.737413 251.18897 
C 252.488126 250.939683 252.149973 250.799615 251.797428 250.799615 
C 251.444883 250.799615 251.106729 250.939683 250.857442 251.18897 
C 250.608155 251.438257 250.468087 251.77641 250.468087 252.128955 
C 250.468087 252.4815 250.608155 252.819654 250.857442 253.068941 
C 251.106729 253.318228 251.444883 253.458296 251.797428 253.458296 
z
" style="fill:#253494;stroke:#253494;stroke-width:0.886227;"/>
    <path clip-path="url(#p789df2ca26)" d="M 250.716934 261.732922 
C 251.069479 261.732922 251.407632 261.592855 251.656919 261.343568 
C 251.906206 261.094281 252.046274 260.756127 252.046274 260.403582 
C 252.046274 260.051037 251.906206 259.712884 251.656919 259.463596 
C 251.407632 259.214309 251.069479 259.074242 250.716934 259.074242 
C 250.364389 259.074242 250.026235 259.214309 249.776948 259.463596 
C 249.527661 259.712884 249.387593 260.051037 249.387593 260.403582 
C 249.387593 260.756127 249.527661 261.094281 249.776948 261.343568 
C 250.026235 261.592855 250.364389 261.732922 250.716934 261.732922 
z
" style="fill:#253494;stroke:#253494;stroke-width:0.886227;"/>
    <path clip-path="url(#p789df2ca26)" d="M 250.690957 270.007549 
C 251.043502 270.007549 251.381656 269.867482 251.630943 269.618195 
C 251.88023 269.368907 252.020298 269.030754 252.020298 268.678209 
C 252.020298 268.325664 251.88023 267.98751 251.630943 267.738223 
C 251.381656 267.488936 251.043502 267.348869 250.690957 267.348869 
C 250.338412 267.348869 250.000259 267.488936 249.750972 267.738223 
C 249.501684 267.98751 249.361617 268.325664 249.361617 268.678209 
C 249.361617 269.030754 249.501684 269.368907 249.750972 269.618195 
C 250.000259 269.867482 250.338412 270.007549 250.690957 270.007549 
z
" style="fill:#253494;stroke:#253494;stroke-width:0.886227;"/>
    <path clip-path="url(#p789df2ca26)" d="M 245.576821 278.282176 
C 245.929366 278.282176 246.267519 278.142109 246.516806 277.892821 
C 246.766094 277.643534 246.906161 277.305381 246.906161 276.952836 
C 246.906161 276.600291 246.766094 276.262137 246.516806 276.01285 
C 246.267519 275.763563 245.929366 275.623495 245.576821 275.623495 
C 245.224276 275.623495 244.886122 275.763563 244.636835 276.01285 
C 244.387548 276.262137 244.24748 276.600291 244.24748 276.952836 
C 244.24748 277.305381 244.387548 277.643534 244.636835 277.892821 
C 244.886122 278.142109 245.224276 278.282176 245.576821 278.282176 
z
" style="fill:#253494;stroke:#253494;stroke-width:0.886227;"/>
    <path clip-path="url(#p789df2ca26)" d="M 242.914963 286.556803 
C 243.267509 286.556803 243.605662 286.416735 243.854949 286.167448 
C 244.104236 285.918161 244.244304 285.580008 244.244304 285.227463 
C 244.244304 284.874917 244.104236 284.536764 243.854949 284.287477 
C 243.605662 284.03819 243.267509 283.898122 242.914963 283.898122 
C 242.562418 283.898122 242.224265 284.03819 241.974978 284.287477 
C 241.725691 284.536764 241.585623 284.874917 241.585623 285.227463 
C 241.585623 285.580008 241.725691 285.918161 241.974978 286.167448 
C 242.224265 286.416735 242.562418 286.556803 242.914963 286.556803 
z
" style="fill:#253494;stroke:#253494;stroke-width:0.886227;"/>
    <path clip-path="url(#p789df2ca26)" d="M 239.444158 294.83143 
C 239.796703 294.83143 240.134856 294.691362 240.384143 294.442075 
C 240.63343 294.192788 240.773498 293.854635 240.773498 293.50209 
C 240.773498 293.149544 240.63343 292.811391 240.384143 292.562104 
C 240.134856 292.312817 239.796703 292.172749 239.444158 292.172749 
C 239.091612 292.172749 238.753459 292.312817 238.504172 292.562104 
C 238.254885 292.811391 238.114817 293.149544 238.114817 293.50209 
C 238.114817 293.854635 238.254885 294.192788 238.504172 294.442075 
C 238.753459 294.691362 239.091612 294.83143 239.444158 294.83143 
z
" style="fill:#253494;stroke:#253494;stroke-width:0.886227;"/>
    <path clip-path="url(#p789df2ca26)" d="M 238.928879 303.106057 
C 239.281424 303.106057 239.619577 302.965989 239.868864 302.716702 
C 240.118151 302.467415 240.258219 302.129262 240.258219 301.776716 
C 240.258219 301.424171 240.118151 301.086018 239.868864 300.836731 
C 239.619577 300.587444 239.281424 300.447376 238.928879 300.447376 
C 238.576333 300.447376 238.23818 300.587444 237.988893 300.836731 
C 237.739606 301.086018 237.599538 301.424171 237.599538 301.776716 
C 237.599538 302.129262 237.739606 302.467415 237.988893 302.716702 
C 238.23818 302.965989 238.576333 303.106057 238.928879 303.106057 
z
" style="fill:#253494;stroke:#253494;stroke-width:0.886227;"/>
    <path clip-path="url(#p789df2ca26)" d="M 234.663577 311.380684 
C 235.016122 311.380684 235.354276 311.240616 235.603563 310.991329 
C 235.85285 310.742042 235.992918 310.403888 235.992918 310.051343 
C 235.992918 309.698798 235.85285 309.360645 235.603563 309.111358 
C 235.354276 308.862071 235.016122 308.722003 234.663577 308.722003 
C 234.311032 308.722003 233.972879 308.862071 233.723592 309.111358 
C 233.474304 309.360645 233.334237 309.698798 233.334237 310.051343 
C 233.334237 310.403888 233.474304 310.742042 233.723592 310.991329 
C 233.972879 311.240616 234.311032 311.380684 234.663577 311.380684 
z
" style="fill:#253494;stroke:#253494;stroke-width:0.886227;"/>
    <path clip-path="url(#p789df2ca26)" d="M 228.26623 319.655311 
C 228.618775 319.655311 228.956928 319.515243 229.206216 319.265956 
C 229.455503 319.016669 229.59557 318.678515 229.59557 318.32597 
C 229.59557 317.973425 229.455503 317.635272 229.206216 317.385985 
C 228.956928 317.136697 228.618775 316.99663 228.26623 316.99663 
C 227.913685 316.99663 227.575531 317.136697 227.326244 317.385985 
C 227.076957 317.635272 226.93689 317.973425 226.93689 318.32597 
C 226.93689 318.678515 227.076957 319.016669 227.326244 319.265956 
C 227.575531 319.515243 227.913685 319.655311 228.26623 319.655311 
z
" style="fill:#253494;stroke:#253494;stroke-width:0.886227;"/>
    <path clip-path="url(#p789df2ca26)" d="M 218.573292 327.929937 
C 218.925837 327.929937 219.26399 327.78987 219.513277 327.540583 
C 219.762564 327.291296 219.902632 326.953142 219.902632 326.600597 
C 219.902632 326.248052 219.762564 325.909899 219.513277 325.660611 
C 219.26399 325.411324 218.925837 325.271257 218.573292 325.271257 
C 218.220747 325.271257 217.882593 325.411324 217.633306 325.660611 
C 217.384019 325.909899 217.243951 326.248052 217.243951 326.600597 
C 217.243951 326.953142 217.384019 327.291296 217.633306 327.540583 
C 217.882593 327.78987 218.220747 327.929937 218.573292 327.929937 
z
" style="fill:#253494;stroke:#253494;stroke-width:0.886227;"/>
    <path clip-path="url(#p789df2ca26)" d="M 200.394303 336.204564 
C 200.746848 336.204564 201.085002 336.064497 201.334289 335.815209 
C 201.583576 335.565922 201.723643 335.227769 201.723643 334.875224 
C 201.723643 334.522679 201.583576 334.184525 201.334289 333.935238 
C 201.085002 333.685951 200.746848 333.545883 200.394303 333.545883 
C 200.041758 333.545883 199.703605 333.685951 199.454317 333.935238 
C 199.20503 334.184525 199.064963 334.522679 199.064963 334.875224 
C 199.064963 335.227769 199.20503 335.565922 199.454317 335.815209 
C 199.703605 336.064497 200.041758 336.204564 200.394303 336.204564 
z
" style="fill:#253494;stroke:#253494;stroke-width:0.886227;"/>
   </g>
   <g id="LineCollection_1">
    <path clip-path="url(#p789df2ca26)" d="M 340.20885 339.84 
L 340.20885 7.2 
" style="fill:none;stroke:#808080;stroke-dasharray:3.27904,1.417963;stroke-dashoffset:0;stroke-width:0.886227;"/>
   </g>
   <g id="patch_3">
    <path d="M 61.20885 339.84 
L 61.20885 7.2 
" style="fill:none;stroke:#262626;stroke-linecap:square;stroke-linejoin:miter;"/>
   </g>
   <g id="patch_4">
    <path d="M 619.20885 339.84 
L 619.20885 7.2 
" style="fill:none;stroke:#262626;stroke-linecap:square;stroke-linejoin:miter;"/>
   </g>
   <g id="patch_5">
    <path d="M 61.20885 339.84 
L 619.20885 339.84 
" style="fill:none;stroke:#262626;stroke-linecap:square;stroke-linejoin:miter;"/>
   </g>
   <g id="patch_6">
    <path d="M 61.20885 7.2 
L 619.20885 7.2 
" style="fill:none;stroke:#262626;stroke-linecap:square;stroke-linejoin:miter;"/>
   </g>
   <g id="LineCollection_2">
    <path clip-path="url(#p789df2ca26)" d="M 403.617941 330.73791 
L 555.799759 330.73791 
" style="fill:none;stroke:#000000;stroke-width:0.886227;"/>
   </g>
   <g id="PathCollection_2">
    <defs>
     <path d="M 549.564376 -43.671252 
L 555.799759 -47.271252 
L 549.564376 -50.871252 
" id="m8a440615a0" style="stroke:#000000;stroke-width:0.886227;"/>
    </defs>
    <g clip-path="url(#p789df2ca26)">
     <use style="fill-opacity:0;stroke:#000000;stroke-width:0.886227;" x="0" xlink:href="#m8a440615a0" y="378.009163"/>
    </g>
   </g>
   <g id="text_47">
    <g clip-path="url(#p789df2ca26)">
     <!-- bioRxiv Enriched -->
     <defs>
      <path d="M 7.90625 0 
L 7.90625 71.578125 
L 59.671875 71.578125 
L 59.671875 63.140625 
L 17.390625 63.140625 
L 17.390625 41.21875 
L 56.984375 41.21875 
L 56.984375 32.8125 
L 17.390625 32.8125 
L 17.390625 8.453125 
L 61.328125 8.453125 
L 61.328125 0 
z
" id="ArialMT-69"/>
     </defs>
     <g style="opacity:0.698039;" transform="translate(409.326464 325.565471)scale(0.12 -0.12)">
      <use xlink:href="#ArialMT-98"/>
      <use x="55.615234" xlink:href="#ArialMT-105"/>
      <use x="77.832031" xlink:href="#ArialMT-111"/>
      <use x="133.447266" xlink:href="#ArialMT-82"/>
      <use x="205.664062" xlink:href="#ArialMT-120"/>
      <use x="255.664062" xlink:href="#ArialMT-105"/>
      <use x="277.880859" xlink:href="#ArialMT-118"/>
      <use x="327.880859" xlink:href="#ArialMT-32"/>
      <use x="355.664062" xlink:href="#ArialMT-69"/>
      <use x="422.363281" xlink:href="#ArialMT-110"/>
      <use x="477.978516" xlink:href="#ArialMT-114"/>
      <use x="511.279297" xlink:href="#ArialMT-105"/>
      <use x="533.496094" xlink:href="#ArialMT-99"/>
      <use x="583.496094" xlink:href="#ArialMT-104"/>
      <use x="639.111328" xlink:href="#ArialMT-101"/>
      <use x="694.726562" xlink:href="#ArialMT-100"/>
     </g>
    </g>
   </g>
   <g id="LineCollection_3">
    <path clip-path="url(#p789df2ca26)" d="M 276.799759 16.30209 
L 124.617941 16.30209 
" style="fill:none;stroke:#000000;stroke-width:0.886227;"/>
   </g>
   <g id="PathCollection_3">
    <defs>
     <path d="M 130.853324 -365.307073 
L 124.617941 -361.707073 
L 130.853324 -358.107073 
" id="m3863293bd7" style="stroke:#000000;stroke-width:0.886227;"/>
    </defs>
    <g clip-path="url(#p789df2ca26)">
     <use style="fill-opacity:0;stroke:#000000;stroke-width:0.886227;" x="0" xlink:href="#m3863293bd7" y="378.009163"/>
    </g>
   </g>
   <g id="text_48">
    <g clip-path="url(#p789df2ca26)">
     <!-- NYTAC Enriched -->
     <g style="opacity:0.698039;" transform="translate(180.397486 27.678904)scale(0.12 -0.12)">
      <use xlink:href="#ArialMT-78"/>
      <use x="72.216797" xlink:href="#ArialMT-89"/>
      <use x="138.916016" xlink:href="#ArialMT-84"/>
      <use x="199.890625" xlink:href="#ArialMT-65"/>
      <use x="266.589844" xlink:href="#ArialMT-67"/>
      <use x="338.806641" xlink:href="#ArialMT-32"/>
      <use x="366.589844" xlink:href="#ArialMT-69"/>
      <use x="433.289062" xlink:href="#ArialMT-110"/>
      <use x="488.904297" xlink:href="#ArialMT-114"/>
      <use x="522.205078" xlink:href="#ArialMT-105"/>
      <use x="544.421875" xlink:href="#ArialMT-99"/>
      <use x="594.421875" xlink:href="#ArialMT-104"/>
      <use x="650.037109" xlink:href="#ArialMT-101"/>
      <use x="705.652344" xlink:href="#ArialMT-100"/>
     </g>
    </g>
   </g>
  </g>
 </g>
 <defs>
  <clipPath id="p789df2ca26">
   <rect height="332.64" width="558" x="61.20885" y="7.2"/>
  </clipPath>
 </defs>
</svg>
