<?xml version="1.0" encoding="utf-8" standalone="no"?>
<!DOCTYPE svg PUBLIC "-//W3C//DTD SVG 1.1//EN"
  "http://www.w3.org/Graphics/SVG/1.1/DTD/svg11.dtd">
<!-- Created with matplotlib (https://matplotlib.org/) -->
<svg height="528.553175pt" version="1.1" viewBox="0 0 711.9963 528.553175" width="711.9963pt" xmlns="http://www.w3.org/2000/svg" xmlns:xlink="http://www.w3.org/1999/xlink">
 <defs>
  <style type="text/css">
*{stroke-linecap:butt;stroke-linejoin:round;}
  </style>
 </defs>
 <g id="figure_1">
  <g id="patch_1">
   <path d="M 0 528.553175
L 711.9963 528.553175
L 711.9963 0
L 0 0
z
" style="fill:#ffffff;"/>
  </g>
  <g id="axes_1">
   <g id="patch_2">
    <path d="M 90.9963 478.44
L 704.7963 478.44
L 704.7963 7.2
L 90.9963 7.2
z
" style="fill:#ffffff;"/>
   </g>
   <g id="matplotlib.axis_1">
    <g id="xtick_1">
     <g id="line2d_1">
      <defs>
       <path d="M 0 0
L 0 4.8
" id="m9c6a21c184" style="stroke:#262626;"/>
      </defs>
      <g>
       <use style="fill:#262626;stroke:#262626;" x="214.34982" xlink:href="#m9c6a21c184" y="478.44"/>
      </g>
     </g>
     <g id="text_1">
      <!-- −10 -->
      <defs>
       <path d="M 52.828125 31.203125
L 5.5625 31.203125
L 5.5625 39.40625
L 52.828125 39.40625
z
" id="ArialMT-8722"/>
       <path d="M 37.25 0
L 28.46875 0
L 28.46875 56
Q 25.296875 52.984375 20.140625 49.953125
Q 14.984375 46.921875 10.890625 45.40625
L 10.890625 53.90625
Q 18.265625 57.375 23.78125 62.296875
Q 29.296875 67.234375 31.59375 71.875
L 37.25 71.875
z
" id="ArialMT-49"/>
       <path d="M 4.15625 35.296875
Q 4.15625 48 6.765625 55.734375
Q 9.375 63.484375 14.515625 67.671875
Q 19.671875 71.875 27.484375 71.875
Q 33.25 71.875 37.59375 69.546875
Q 41.9375 67.234375 44.765625 62.859375
Q 47.609375 58.5 49.21875 52.21875
Q 50.828125 45.953125 50.828125 35.296875
Q 50.828125 22.703125 48.234375 14.96875
Q 45.65625 7.234375 40.5 3
Q 35.359375 -1.21875 27.484375 -1.21875
Q 17.140625 -1.21875 11.234375 6.203125
Q 4.15625 15.140625 4.15625 35.296875
z
M 13.1875 35.296875
Q 13.1875 17.671875 17.3125 11.828125
Q 21.4375 6 27.484375 6
Q 33.546875 6 37.671875 11.859375
Q 41.796875 17.71875 41.796875 35.296875
Q 41.796875 52.984375 37.671875 58.78125
Q 33.546875 64.59375 27.390625 64.59375
Q 21.34375 64.59375 17.71875 59.46875
Q 13.1875 52.9375 13.1875 35.296875
z
" id="ArialMT-48"/>
      </defs>
      <g style="fill:#262626;" transform="translate(200.91552 496.977975)scale(0.1584 -0.1584)">
       <use xlink:href="#ArialMT-8722"/>
       <use x="58.398438" xlink:href="#ArialMT-49"/>
       <use x="114.013672" xlink:href="#ArialMT-48"/>
      </g>
     </g>
    </g>
    <g id="xtick_2">
     <g id="line2d_2">
      <g>
       <use style="fill:#262626;stroke:#262626;" x="350.711993" xlink:href="#m9c6a21c184" y="478.44"/>
      </g>
     </g>
     <g id="text_2">
      <!-- 0 -->
      <g style="fill:#262626;" transform="translate(346.30773 496.977975)scale(0.1584 -0.1584)">
       <use xlink:href="#ArialMT-48"/>
      </g>
     </g>
    </g>
    <g id="xtick_3">
     <g id="line2d_3">
      <g>
       <use style="fill:#262626;stroke:#262626;" x="487.074165" xlink:href="#m9c6a21c184" y="478.44"/>
      </g>
     </g>
     <g id="text_3">
      <!-- 10 -->
      <g style="fill:#262626;" transform="translate(478.26564 496.977975)scale(0.1584 -0.1584)">
       <use xlink:href="#ArialMT-49"/>
       <use x="55.615234" xlink:href="#ArialMT-48"/>
      </g>
     </g>
    </g>
    <g id="xtick_4">
     <g id="line2d_4">
      <g>
       <use style="fill:#262626;stroke:#262626;" x="623.436337" xlink:href="#m9c6a21c184" y="478.44"/>
      </g>
     </g>
     <g id="text_4">
      <!-- 20 -->
      <defs>
       <path d="M 50.34375 8.453125
L 50.34375 0
L 3.03125 0
Q 2.9375 3.171875 4.046875 6.109375
Q 5.859375 10.9375 9.828125 15.625
Q 13.8125 20.3125 21.34375 26.46875
Q 33.015625 36.03125 37.109375 41.625
Q 41.21875 47.21875 41.21875 52.203125
Q 41.21875 57.421875 37.46875 61
Q 33.734375 64.59375 27.734375 64.59375
Q 21.390625 64.59375 17.578125 60.78125
Q 13.765625 56.984375 13.71875 50.25
L 4.6875 51.171875
Q 5.609375 61.28125 11.65625 66.578125
Q 17.71875 71.875 27.9375 71.875
Q 38.234375 71.875 44.234375 66.15625
Q 50.25 60.453125 50.25 52
Q 50.25 47.703125 48.484375 43.546875
Q 46.734375 39.40625 42.65625 34.8125
Q 38.578125 30.21875 29.109375 22.21875
Q 21.1875 15.578125 18.9375 13.203125
Q 16.703125 10.84375 15.234375 8.453125
z
" id="ArialMT-50"/>
      </defs>
      <g style="fill:#262626;" transform="translate(614.627812 496.977975)scale(0.1584 -0.1584)">
       <use xlink:href="#ArialMT-50"/>
       <use x="55.615234" xlink:href="#ArialMT-48"/>
      </g>
     </g>
    </g>
    <g id="xtick_5">
     <g id="line2d_5">
      <defs>
       <path d="M 0 0
L 0 3.2
" id="mcd5a7ea7ff" style="stroke:#262626;stroke-width:0.8;"/>
      </defs>
      <g>
       <use style="fill:#262626;stroke:#262626;stroke-width:0.8;" x="146.168734" xlink:href="#mcd5a7ea7ff" y="478.44"/>
      </g>
     </g>
    </g>
    <g id="xtick_6">
     <g id="line2d_6">
      <g>
       <use style="fill:#262626;stroke:#262626;stroke-width:0.8;" x="282.530907" xlink:href="#mcd5a7ea7ff" y="478.44"/>
      </g>
     </g>
    </g>
    <g id="xtick_7">
     <g id="line2d_7">
      <g>
       <use style="fill:#262626;stroke:#262626;stroke-width:0.8;" x="418.893079" xlink:href="#mcd5a7ea7ff" y="478.44"/>
      </g>
     </g>
    </g>
    <g id="xtick_8">
     <g id="line2d_8">
      <g>
       <use style="fill:#262626;stroke:#262626;stroke-width:0.8;" x="555.255251" xlink:href="#mcd5a7ea7ff" y="478.44"/>
      </g>
     </g>
    </g>
    <g id="xtick_9">
     <g id="line2d_9">
      <g>
       <use style="fill:#262626;stroke:#262626;stroke-width:0.8;" x="691.617423" xlink:href="#mcd5a7ea7ff" y="478.44"/>
      </g>
     </g>
    </g>
    <g id="text_5">
     <!-- PMC vs NYTAC log2(Odds Ratio) -->
     <defs>
      <path d="M 7.71875 0
L 7.71875 71.578125
L 34.71875 71.578125
Q 41.84375 71.578125 45.609375 70.90625
Q 50.875 70.015625 54.4375 67.546875
Q 58.015625 65.09375 60.1875 60.640625
Q 62.359375 56.203125 62.359375 50.875
Q 62.359375 41.75 56.546875 35.421875
Q 50.734375 29.109375 35.546875 29.109375
L 17.1875 29.109375
L 17.1875 0
z
M 17.1875 37.546875
L 35.6875 37.546875
Q 44.875 37.546875 48.734375 40.96875
Q 52.59375 44.390625 52.59375 50.59375
Q 52.59375 55.078125 50.3125 58.265625
Q 48.046875 61.46875 44.34375 62.5
Q 41.9375 63.140625 35.5 63.140625
L 17.1875 63.140625
z
" id="ArialMT-80"/>
      <path d="M 7.421875 0
L 7.421875 71.578125
L 21.6875 71.578125
L 38.625 20.90625
Q 40.96875 13.8125 42.046875 10.296875
Q 43.265625 14.203125 45.84375 21.78125
L 62.984375 71.578125
L 75.734375 71.578125
L 75.734375 0
L 66.609375 0
L 66.609375 59.90625
L 45.796875 0
L 37.25 0
L 16.546875 60.9375
L 16.546875 0
z
" id="ArialMT-77"/>
      <path d="M 58.796875 25.09375
L 68.265625 22.703125
Q 65.28125 11.03125 57.546875 4.90625
Q 49.8125 -1.21875 38.625 -1.21875
Q 27.046875 -1.21875 19.796875 3.484375
Q 12.546875 8.203125 8.765625 17.140625
Q 4.984375 26.078125 4.984375 36.328125
Q 4.984375 47.515625 9.25 55.828125
Q 13.53125 64.15625 21.40625 68.46875
Q 29.296875 72.796875 38.765625 72.796875
Q 49.515625 72.796875 56.828125 67.328125
Q 64.15625 61.859375 67.046875 51.953125
L 57.71875 49.75
Q 55.21875 57.5625 50.484375 61.125
Q 45.75 64.703125 38.578125 64.703125
Q 30.328125 64.703125 24.78125 60.734375
Q 19.234375 56.78125 16.984375 50.109375
Q 14.75 43.453125 14.75 36.375
Q 14.75 27.25 17.40625 20.4375
Q 20.0625 13.625 25.671875 10.25
Q 31.296875 6.890625 37.84375 6.890625
Q 45.796875 6.890625 51.3125 11.46875
Q 56.84375 16.0625 58.796875 25.09375
z
" id="ArialMT-67"/>
      <path id="ArialMT-32"/>
      <path d="M 21 0
L 1.265625 51.859375
L 10.546875 51.859375
L 21.6875 20.796875
Q 23.484375 15.765625 25 10.359375
Q 26.171875 14.453125 28.265625 20.21875
L 39.796875 51.859375
L 48.828125 51.859375
L 29.203125 0
z
" id="ArialMT-118"/>
      <path d="M 3.078125 15.484375
L 11.765625 16.84375
Q 12.5 11.625 15.84375 8.84375
Q 19.1875 6.0625 25.203125 6.0625
Q 31.25 6.0625 34.171875 8.515625
Q 37.109375 10.984375 37.109375 14.3125
Q 37.109375 17.28125 34.515625 19
Q 32.71875 20.171875 25.53125 21.96875
Q 15.875 24.421875 12.140625 26.203125
Q 8.40625 27.984375 6.46875 31.125
Q 4.546875 34.28125 4.546875 38.09375
Q 4.546875 41.546875 6.125 44.5
Q 7.71875 47.46875 10.453125 49.421875
Q 12.5 50.921875 16.03125 51.96875
Q 19.578125 53.03125 23.640625 53.03125
Q 29.734375 53.03125 34.34375 51.265625
Q 38.96875 49.515625 41.15625 46.5
Q 43.359375 43.5 44.1875 38.484375
L 35.59375 37.3125
Q 35.015625 41.3125 32.203125 43.546875
Q 29.390625 45.796875 24.265625 45.796875
Q 18.21875 45.796875 15.625 43.796875
Q 13.03125 41.796875 13.03125 39.109375
Q 13.03125 37.40625 14.109375 36.03125
Q 15.1875 34.625 17.484375 33.6875
Q 18.796875 33.203125 25.25 31.453125
Q 34.578125 28.953125 38.25 27.359375
Q 41.9375 25.78125 44.03125 22.75
Q 46.140625 19.734375 46.140625 15.234375
Q 46.140625 10.84375 43.578125 6.953125
Q 41.015625 3.078125 36.171875 0.953125
Q 31.34375 -1.171875 25.25 -1.171875
Q 15.140625 -1.171875 9.84375 3.03125
Q 4.546875 7.234375 3.078125 15.484375
z
" id="ArialMT-115"/>
      <path d="M 7.625 0
L 7.625 71.578125
L 17.328125 71.578125
L 54.9375 15.375
L 54.9375 71.578125
L 64.015625 71.578125
L 64.015625 0
L 54.296875 0
L 16.703125 56.25
L 16.703125 0
z
" id="ArialMT-78"/>
      <path d="M 27.875 0
L 27.875 30.328125
L 0.296875 71.578125
L 11.8125 71.578125
L 25.921875 50
Q 29.828125 43.953125 33.203125 37.890625
Q 36.421875 43.5 41.015625 50.53125
L 54.890625 71.578125
L 65.921875 71.578125
L 37.359375 30.328125
L 37.359375 0
z
" id="ArialMT-89"/>
      <path d="M 25.921875 0
L 25.921875 63.140625
L 2.34375 63.140625
L 2.34375 71.578125
L 59.078125 71.578125
L 59.078125 63.140625
L 35.40625 63.140625
L 35.40625 0
z
" id="ArialMT-84"/>
      <path d="M -0.140625 0
L 27.34375 71.578125
L 37.546875 71.578125
L 66.84375 0
L 56.0625 0
L 47.703125 21.6875
L 17.78125 21.6875
L 9.90625 0
z
M 20.515625 29.390625
L 44.78125 29.390625
L 37.3125 49.21875
Q 33.890625 58.25 32.234375 64.0625
Q 30.859375 57.171875 28.375 50.390625
z
" id="ArialMT-65"/>
      <path d="M 6.390625 0
L 6.390625 71.578125
L 15.1875 71.578125
L 15.1875 0
z
" id="ArialMT-108"/>
      <path d="M 3.328125 25.921875
Q 3.328125 40.328125 11.328125 47.265625
Q 18.015625 53.03125 27.640625 53.03125
Q 38.328125 53.03125 45.109375 46.015625
Q 51.90625 39.015625 51.90625 26.65625
Q 51.90625 16.65625 48.90625 10.90625
Q 45.90625 5.171875 40.15625 2
Q 34.421875 -1.171875 27.640625 -1.171875
Q 16.75 -1.171875 10.03125 5.8125
Q 3.328125 12.796875 3.328125 25.921875
z
M 12.359375 25.921875
Q 12.359375 15.96875 16.703125 11.015625
Q 21.046875 6.0625 27.640625 6.0625
Q 34.1875 6.0625 38.53125 11.03125
Q 42.875 16.015625 42.875 26.21875
Q 42.875 35.84375 38.5 40.796875
Q 34.125 45.75 27.640625 45.75
Q 21.046875 45.75 16.703125 40.8125
Q 12.359375 35.890625 12.359375 25.921875
z
" id="ArialMT-111"/>
      <path d="M 4.984375 -4.296875
L 13.53125 -5.5625
Q 14.0625 -9.515625 16.5 -11.328125
Q 19.78125 -13.765625 25.4375 -13.765625
Q 31.546875 -13.765625 34.859375 -11.328125
Q 38.1875 -8.890625 39.359375 -4.5
Q 40.046875 -1.8125 39.984375 6.78125
Q 34.234375 0 25.640625 0
Q 14.9375 0 9.078125 7.71875
Q 3.21875 15.4375 3.21875 26.21875
Q 3.21875 33.640625 5.90625 39.90625
Q 8.59375 46.1875 13.6875 49.609375
Q 18.796875 53.03125 25.6875 53.03125
Q 34.859375 53.03125 40.828125 45.609375
L 40.828125 51.859375
L 48.921875 51.859375
L 48.921875 7.03125
Q 48.921875 -5.078125 46.453125 -10.125
Q 44 -15.1875 38.640625 -18.109375
Q 33.296875 -21.046875 25.484375 -21.046875
Q 16.21875 -21.046875 10.5 -16.875
Q 4.78125 -12.703125 4.984375 -4.296875
z
M 12.25 26.859375
Q 12.25 16.65625 16.296875 11.96875
Q 20.359375 7.28125 26.46875 7.28125
Q 32.515625 7.28125 36.609375 11.9375
Q 40.71875 16.609375 40.71875 26.5625
Q 40.71875 36.078125 36.5 40.90625
Q 32.28125 45.75 26.3125 45.75
Q 20.453125 45.75 16.34375 40.984375
Q 12.25 36.234375 12.25 26.859375
z
" id="ArialMT-103"/>
      <path d="M 23.390625 -21.046875
Q 16.109375 -11.859375 11.078125 0.4375
Q 6.0625 12.75 6.0625 25.921875
Q 6.0625 37.546875 9.8125 48.1875
Q 14.203125 60.546875 23.390625 72.796875
L 29.6875 72.796875
Q 23.78125 62.640625 21.875 58.296875
Q 18.890625 51.5625 17.1875 44.234375
Q 15.09375 35.109375 15.09375 25.875
Q 15.09375 2.390625 29.6875 -21.046875
z
" id="ArialMT-40"/>
      <path d="M 4.828125 34.859375
Q 4.828125 52.6875 14.390625 62.765625
Q 23.96875 72.859375 39.109375 72.859375
Q 49.03125 72.859375 56.984375 68.109375
Q 64.9375 63.375 69.109375 54.90625
Q 73.296875 46.4375 73.296875 35.6875
Q 73.296875 24.8125 68.890625 16.21875
Q 64.5 7.625 56.4375 3.203125
Q 48.390625 -1.21875 39.0625 -1.21875
Q 28.953125 -1.21875 20.984375 3.65625
Q 13.03125 8.546875 8.921875 16.984375
Q 4.828125 25.4375 4.828125 34.859375
z
M 14.59375 34.71875
Q 14.59375 21.78125 21.546875 14.328125
Q 28.515625 6.890625 39.015625 6.890625
Q 49.703125 6.890625 56.609375 14.40625
Q 63.53125 21.921875 63.53125 35.75
Q 63.53125 44.484375 60.578125 51
Q 57.625 57.515625 51.921875 61.109375
Q 46.234375 64.703125 39.15625 64.703125
Q 29.109375 64.703125 21.84375 57.78125
Q 14.59375 50.875 14.59375 34.71875
z
" id="ArialMT-79"/>
      <path d="M 40.234375 0
L 40.234375 6.546875
Q 35.296875 -1.171875 25.734375 -1.171875
Q 19.53125 -1.171875 14.328125 2.25
Q 9.125 5.671875 6.265625 11.796875
Q 3.421875 17.921875 3.421875 25.875
Q 3.421875 33.640625 6 39.96875
Q 8.59375 46.296875 13.765625 49.65625
Q 18.953125 53.03125 25.34375 53.03125
Q 30.03125 53.03125 33.6875 51.046875
Q 37.359375 49.078125 39.65625 45.90625
L 39.65625 71.578125
L 48.390625 71.578125
L 48.390625 0
z
M 12.453125 25.875
Q 12.453125 15.921875 16.640625 10.984375
Q 20.84375 6.0625 26.5625 6.0625
Q 32.328125 6.0625 36.34375 10.765625
Q 40.375 15.484375 40.375 25.140625
Q 40.375 35.796875 36.265625 40.765625
Q 32.171875 45.75 26.171875 45.75
Q 20.3125 45.75 16.375 40.96875
Q 12.453125 36.1875 12.453125 25.875
z
" id="ArialMT-100"/>
      <path d="M 7.859375 0
L 7.859375 71.578125
L 39.59375 71.578125
Q 49.171875 71.578125 54.140625 69.640625
Q 59.125 67.71875 62.109375 62.828125
Q 65.09375 57.953125 65.09375 52.046875
Q 65.09375 44.4375 60.15625 39.203125
Q 55.21875 33.984375 44.921875 32.5625
Q 48.6875 30.765625 50.640625 29
Q 54.78125 25.203125 58.5 19.484375
L 70.953125 0
L 59.03125 0
L 49.5625 14.890625
Q 45.40625 21.34375 42.71875 24.75
Q 40.046875 28.171875 37.921875 29.53125
Q 35.796875 30.90625 33.59375 31.453125
Q 31.984375 31.78125 28.328125 31.78125
L 17.328125 31.78125
L 17.328125 0
z
M 17.328125 39.984375
L 37.703125 39.984375
Q 44.1875 39.984375 47.84375 41.328125
Q 51.515625 42.671875 53.421875 45.625
Q 55.328125 48.578125 55.328125 52.046875
Q 55.328125 57.125 51.640625 60.390625
Q 47.953125 63.671875 39.984375 63.671875
L 17.328125 63.671875
z
" id="ArialMT-82"/>
      <path d="M 40.4375 6.390625
Q 35.546875 2.25 31.03125 0.53125
Q 26.515625 -1.171875 21.34375 -1.171875
Q 12.796875 -1.171875 8.203125 3
Q 3.609375 7.171875 3.609375 13.671875
Q 3.609375 17.484375 5.34375 20.625
Q 7.078125 23.78125 9.890625 25.6875
Q 12.703125 27.59375 16.21875 28.5625
Q 18.796875 29.25 24.03125 29.890625
Q 34.671875 31.15625 39.703125 32.90625
Q 39.75 34.71875 39.75 35.203125
Q 39.75 40.578125 37.25 42.78125
Q 33.890625 45.75 27.25 45.75
Q 21.046875 45.75 18.09375 43.578125
Q 15.140625 41.40625 13.71875 35.890625
L 5.125 37.0625
Q 6.296875 42.578125 8.984375 45.96875
Q 11.671875 49.359375 16.75 51.1875
Q 21.828125 53.03125 28.515625 53.03125
Q 35.15625 53.03125 39.296875 51.46875
Q 43.453125 49.90625 45.40625 47.53125
Q 47.359375 45.171875 48.140625 41.546875
Q 48.578125 39.3125 48.578125 33.453125
L 48.578125 21.734375
Q 48.578125 9.46875 49.140625 6.21875
Q 49.703125 2.984375 51.375 0
L 42.1875 0
Q 40.828125 2.734375 40.4375 6.390625
z
M 39.703125 26.03125
Q 34.90625 24.078125 25.34375 22.703125
Q 19.921875 21.921875 17.671875 20.9375
Q 15.4375 19.96875 14.203125 18.09375
Q 12.984375 16.21875 12.984375 13.921875
Q 12.984375 10.40625 15.640625 8.0625
Q 18.3125 5.71875 23.4375 5.71875
Q 28.515625 5.71875 32.46875 7.9375
Q 36.421875 10.15625 38.28125 14.015625
Q 39.703125 17 39.703125 22.796875
z
" id="ArialMT-97"/>
      <path d="M 25.78125 7.859375
L 27.046875 0.09375
Q 23.34375 -0.6875 20.40625 -0.6875
Q 15.625 -0.6875 12.984375 0.828125
Q 10.359375 2.34375 9.28125 4.8125
Q 8.203125 7.28125 8.203125 15.1875
L 8.203125 45.015625
L 1.765625 45.015625
L 1.765625 51.859375
L 8.203125 51.859375
L 8.203125 64.703125
L 16.9375 69.96875
L 16.9375 51.859375
L 25.78125 51.859375
L 25.78125 45.015625
L 16.9375 45.015625
L 16.9375 14.703125
Q 16.9375 10.9375 17.40625 9.859375
Q 17.875 8.796875 18.921875 8.15625
Q 19.96875 7.515625 21.921875 7.515625
Q 23.390625 7.515625 25.78125 7.859375
z
" id="ArialMT-116"/>
      <path d="M 6.640625 61.46875
L 6.640625 71.578125
L 15.4375 71.578125
L 15.4375 61.46875
z
M 6.640625 0
L 6.640625 51.859375
L 15.4375 51.859375
L 15.4375 0
z
" id="ArialMT-105"/>
      <path d="M 12.359375 -21.046875
L 6.0625 -21.046875
Q 20.65625 2.390625 20.65625 25.875
Q 20.65625 35.0625 18.5625 44.09375
Q 16.890625 51.421875 13.921875 58.15625
Q 12.015625 62.546875 6.0625 72.796875
L 12.359375 72.796875
Q 21.53125 60.546875 25.921875 48.1875
Q 29.6875 37.546875 29.6875 25.921875
Q 29.6875 12.75 24.625 0.4375
Q 19.578125 -11.859375 12.359375 -21.046875
z
" id="ArialMT-41"/>
     </defs>
     <g style="fill:#262626;" transform="translate(258.37605 517.716275)scale(0.1728 -0.1728)">
      <use xlink:href="#ArialMT-80"/>
      <use x="66.699219" xlink:href="#ArialMT-77"/>
      <use x="150" xlink:href="#ArialMT-67"/>
      <use x="222.216797" xlink:href="#ArialMT-32"/>
      <use x="250" xlink:href="#ArialMT-118"/>
      <use x="300" xlink:href="#ArialMT-115"/>
      <use x="350" xlink:href="#ArialMT-32"/>
      <use x="377.783203" xlink:href="#ArialMT-78"/>
      <use x="450" xlink:href="#ArialMT-89"/>
      <use x="516.699219" xlink:href="#ArialMT-84"/>
      <use x="577.673828" xlink:href="#ArialMT-65"/>
      <use x="644.373047" xlink:href="#ArialMT-67"/>
      <use x="716.589844" xlink:href="#ArialMT-32"/>
      <use x="744.373047" xlink:href="#ArialMT-108"/>
      <use x="766.589844" xlink:href="#ArialMT-111"/>
      <use x="822.205078" xlink:href="#ArialMT-103"/>
      <use x="877.820312" xlink:href="#ArialMT-50"/>
      <use x="933.435547" xlink:href="#ArialMT-40"/>
      <use x="966.736328" xlink:href="#ArialMT-79"/>
      <use x="1044.519531" xlink:href="#ArialMT-100"/>
      <use x="1100.134766" xlink:href="#ArialMT-100"/>
      <use x="1155.75" xlink:href="#ArialMT-115"/>
      <use x="1205.75" xlink:href="#ArialMT-32"/>
      <use x="1233.533203" xlink:href="#ArialMT-82"/>
      <use x="1305.75" xlink:href="#ArialMT-97"/>
      <use x="1361.365234" xlink:href="#ArialMT-116"/>
      <use x="1389.148438" xlink:href="#ArialMT-105"/>
      <use x="1411.365234" xlink:href="#ArialMT-111"/>
      <use x="1466.980469" xlink:href="#ArialMT-41"/>
     </g>
    </g>
   </g>
   <g id="matplotlib.axis_2">
    <g id="ytick_1">
     <g id="line2d_10">
      <defs>
       <path d="M 0 0
L -4.8 0
" id="mbec58c3a57" style="stroke:#262626;"/>
      </defs>
      <g>
       <use style="fill:#262626;stroke:#262626;" x="90.9963" xlink:href="#mbec58c3a57" y="471.406567"/>
      </g>
     </g>
     <g id="text_6">
      <!-- yesterday -->
      <defs>
       <path d="M 6.203125 -19.96875
L 5.21875 -11.71875
Q 8.109375 -12.5 10.25 -12.5
Q 13.1875 -12.5 14.9375 -11.515625
Q 16.703125 -10.546875 17.828125 -8.796875
Q 18.65625 -7.46875 20.515625 -2.25
Q 20.75 -1.515625 21.296875 -0.09375
L 1.609375 51.859375
L 11.078125 51.859375
L 21.875 21.828125
Q 23.96875 16.109375 25.640625 9.8125
Q 27.15625 15.875 29.25 21.625
L 40.328125 51.859375
L 49.125 51.859375
L 29.390625 -0.875
Q 26.21875 -9.421875 24.46875 -12.640625
Q 22.125 -17 19.09375 -19.015625
Q 16.0625 -21.046875 11.859375 -21.046875
Q 9.328125 -21.046875 6.203125 -19.96875
z
" id="ArialMT-121"/>
       <path d="M 42.09375 16.703125
L 51.171875 15.578125
Q 49.03125 7.625 43.21875 3.21875
Q 37.40625 -1.171875 28.375 -1.171875
Q 17 -1.171875 10.328125 5.828125
Q 3.65625 12.84375 3.65625 25.484375
Q 3.65625 38.578125 10.390625 45.796875
Q 17.140625 53.03125 27.875 53.03125
Q 38.28125 53.03125 44.875 45.953125
Q 51.46875 38.875 51.46875 26.03125
Q 51.46875 25.25 51.421875 23.6875
L 12.75 23.6875
Q 13.234375 15.140625 17.578125 10.59375
Q 21.921875 6.0625 28.421875 6.0625
Q 33.25 6.0625 36.671875 8.59375
Q 40.09375 11.140625 42.09375 16.703125
z
M 13.234375 30.90625
L 42.1875 30.90625
Q 41.609375 37.453125 38.875 40.71875
Q 34.671875 45.796875 27.984375 45.796875
Q 21.921875 45.796875 17.796875 41.75
Q 13.671875 37.703125 13.234375 30.90625
z
" id="ArialMT-101"/>
       <path d="M 6.5 0
L 6.5 51.859375
L 14.40625 51.859375
L 14.40625 44
Q 17.4375 49.515625 20 51.265625
Q 22.5625 53.03125 25.640625 53.03125
Q 30.078125 53.03125 34.671875 50.203125
L 31.640625 42.046875
Q 28.421875 43.953125 25.203125 43.953125
Q 22.3125 43.953125 20.015625 42.21875
Q 17.71875 40.484375 16.75 37.40625
Q 15.28125 32.71875 15.28125 27.15625
L 15.28125 0
z
" id="ArialMT-114"/>
      </defs>
      <g style="fill:#262626;" transform="translate(15.127425 477.075555)scale(0.1584 -0.1584)">
       <use xlink:href="#ArialMT-121"/>
       <use x="50" xlink:href="#ArialMT-101"/>
       <use x="105.615234" xlink:href="#ArialMT-115"/>
       <use x="155.615234" xlink:href="#ArialMT-116"/>
       <use x="183.398438" xlink:href="#ArialMT-101"/>
       <use x="239.013672" xlink:href="#ArialMT-114"/>
       <use x="272.314453" xlink:href="#ArialMT-100"/>
       <use x="327.929688" xlink:href="#ArialMT-97"/>
       <use x="383.544922" xlink:href="#ArialMT-121"/>
      </g>
     </g>
    </g>
    <g id="ytick_2">
     <g id="line2d_11">
      <g>
       <use style="fill:#262626;stroke:#262626;" x="90.9963" xlink:href="#mbec58c3a57" y="459.684179"/>
      </g>
     </g>
     <g id="text_7">
      <!-- president -->
      <defs>
       <path d="M 6.59375 -19.875
L 6.59375 51.859375
L 14.59375 51.859375
L 14.59375 45.125
Q 17.4375 49.078125 21 51.046875
Q 24.5625 53.03125 29.640625 53.03125
Q 36.28125 53.03125 41.359375 49.609375
Q 46.4375 46.1875 49.015625 39.953125
Q 51.609375 33.734375 51.609375 26.3125
Q 51.609375 18.359375 48.75 11.984375
Q 45.90625 5.609375 40.453125 2.21875
Q 35.015625 -1.171875 29 -1.171875
Q 24.609375 -1.171875 21.109375 0.6875
Q 17.625 2.546875 15.375 5.375
L 15.375 -19.875
z
M 14.546875 25.640625
Q 14.546875 15.625 18.59375 10.84375
Q 22.65625 6.0625 28.421875 6.0625
Q 34.28125 6.0625 38.453125 11.015625
Q 42.625 15.96875 42.625 26.375
Q 42.625 36.28125 38.546875 41.203125
Q 34.46875 46.140625 28.8125 46.140625
Q 23.1875 46.140625 18.859375 40.890625
Q 14.546875 35.640625 14.546875 25.640625
z
" id="ArialMT-112"/>
       <path d="M 6.59375 0
L 6.59375 51.859375
L 14.5 51.859375
L 14.5 44.484375
Q 20.21875 53.03125 31 53.03125
Q 35.6875 53.03125 39.625 51.34375
Q 43.5625 49.65625 45.515625 46.921875
Q 47.46875 44.1875 48.25 40.4375
Q 48.734375 37.984375 48.734375 31.890625
L 48.734375 0
L 39.9375 0
L 39.9375 31.546875
Q 39.9375 36.921875 38.90625 39.578125
Q 37.890625 42.234375 35.28125 43.8125
Q 32.671875 45.40625 29.15625 45.40625
Q 23.53125 45.40625 19.453125 41.84375
Q 15.375 38.28125 15.375 28.328125
L 15.375 0
z
" id="ArialMT-110"/>
      </defs>
      <g style="fill:#262626;" transform="translate(18.63945 465.353167)scale(0.1584 -0.1584)">
       <use xlink:href="#ArialMT-112"/>
       <use x="55.615234" xlink:href="#ArialMT-114"/>
       <use x="88.916016" xlink:href="#ArialMT-101"/>
       <use x="144.53125" xlink:href="#ArialMT-115"/>
       <use x="194.53125" xlink:href="#ArialMT-105"/>
       <use x="216.748047" xlink:href="#ArialMT-100"/>
       <use x="272.363281" xlink:href="#ArialMT-101"/>
       <use x="327.978516" xlink:href="#ArialMT-110"/>
       <use x="383.59375" xlink:href="#ArialMT-116"/>
      </g>
     </g>
    </g>
    <g id="ytick_3">
     <g id="line2d_12">
      <g>
       <use style="fill:#262626;stroke:#262626;" x="90.9963" xlink:href="#mbec58c3a57" y="447.961791"/>
      </g>
     </g>
     <g id="text_8">
      <!-- - - -->
      <defs>
       <path d="M 3.171875 21.484375
L 3.171875 30.328125
L 30.171875 30.328125
L 30.171875 21.484375
z
" id="ArialMT-45"/>
      </defs>
      <g style="fill:#262626;" transform="translate(73.24785 453.630779)scale(0.1584 -0.1584)">
       <use xlink:href="#ArialMT-45"/>
       <use x="33.300781" xlink:href="#ArialMT-45"/>
      </g>
     </g>
    </g>
    <g id="ytick_4">
     <g id="line2d_13">
      <g>
       <use style="fill:#262626;stroke:#262626;" x="90.9963" xlink:href="#mbec58c3a57" y="436.239403"/>
      </g>
     </g>
     <g id="text_9">
      <!-- said -->
      <g style="fill:#262626;" transform="translate(54.7398 441.90839)scale(0.1584 -0.1584)">
       <use xlink:href="#ArialMT-115"/>
       <use x="50" xlink:href="#ArialMT-97"/>
       <use x="105.615234" xlink:href="#ArialMT-105"/>
       <use x="127.832031" xlink:href="#ArialMT-100"/>
      </g>
     </g>
    </g>
    <g id="ytick_5">
     <g id="line2d_14">
      <g>
       <use style="fill:#262626;stroke:#262626;" x="90.9963" xlink:href="#mbec58c3a57" y="424.517015"/>
      </g>
     </g>
     <g id="text_10">
      <!-- officials -->
      <defs>
       <path d="M 8.6875 0
L 8.6875 45.015625
L 0.921875 45.015625
L 0.921875 51.859375
L 8.6875 51.859375
L 8.6875 57.375
Q 8.6875 62.59375 9.625 65.140625
Q 10.890625 68.5625 14.078125 70.671875
Q 17.28125 72.796875 23.046875 72.796875
Q 26.765625 72.796875 31.25 71.921875
L 29.9375 64.265625
Q 27.203125 64.75 24.75 64.75
Q 20.75 64.75 19.09375 63.03125
Q 17.4375 61.328125 17.4375 56.640625
L 17.4375 51.859375
L 27.546875 51.859375
L 27.546875 45.015625
L 17.4375 45.015625
L 17.4375 0
z
" id="ArialMT-102"/>
       <path d="M 40.4375 19
L 49.078125 17.875
Q 47.65625 8.9375 41.8125 3.875
Q 35.984375 -1.171875 27.484375 -1.171875
Q 16.84375 -1.171875 10.375 5.78125
Q 3.90625 12.75 3.90625 25.734375
Q 3.90625 34.125 6.6875 40.421875
Q 9.46875 46.734375 15.15625 49.875
Q 20.84375 53.03125 27.546875 53.03125
Q 35.984375 53.03125 41.359375 48.75
Q 46.734375 44.484375 48.25 36.625
L 39.703125 35.296875
Q 38.484375 40.53125 35.375 43.15625
Q 32.28125 45.796875 27.875 45.796875
Q 21.234375 45.796875 17.078125 41.03125
Q 12.9375 36.28125 12.9375 25.984375
Q 12.9375 15.53125 16.9375 10.796875
Q 20.953125 6.0625 27.390625 6.0625
Q 32.5625 6.0625 36.03125 9.234375
Q 39.5 12.40625 40.4375 19
z
" id="ArialMT-99"/>
      </defs>
      <g style="fill:#262626;" transform="translate(30.982275 430.186002)scale(0.1584 -0.1584)">
       <use xlink:href="#ArialMT-111"/>
       <use x="55.615234" xlink:href="#ArialMT-102"/>
       <use x="83.382812" xlink:href="#ArialMT-102"/>
       <use x="111.166016" xlink:href="#ArialMT-105"/>
       <use x="133.382812" xlink:href="#ArialMT-99"/>
       <use x="183.382812" xlink:href="#ArialMT-105"/>
       <use x="205.599609" xlink:href="#ArialMT-97"/>
       <use x="261.214844" xlink:href="#ArialMT-108"/>
       <use x="283.431641" xlink:href="#ArialMT-115"/>
      </g>
     </g>
    </g>
    <g id="ytick_6">
     <g id="line2d_15">
      <g>
       <use style="fill:#262626;stroke:#262626;" x="90.9963" xlink:href="#mbec58c3a57" y="412.794627"/>
      </g>
     </g>
     <g id="text_11">
      <!-- p.m. -->
      <defs>
       <path d="M 9.078125 0
L 9.078125 10.015625
L 19.09375 10.015625
L 19.09375 0
z
" id="ArialMT-46"/>
       <path d="M 6.59375 0
L 6.59375 51.859375
L 14.453125 51.859375
L 14.453125 44.578125
Q 16.890625 48.390625 20.9375 50.703125
Q 25 53.03125 30.171875 53.03125
Q 35.9375 53.03125 39.625 50.640625
Q 43.3125 48.25 44.828125 43.953125
Q 50.984375 53.03125 60.84375 53.03125
Q 68.5625 53.03125 72.703125 48.75
Q 76.859375 44.484375 76.859375 35.59375
L 76.859375 0
L 68.109375 0
L 68.109375 32.671875
Q 68.109375 37.9375 67.25 40.25
Q 66.40625 42.578125 64.15625 43.984375
Q 61.921875 45.40625 58.890625 45.40625
Q 53.421875 45.40625 49.796875 41.765625
Q 46.1875 38.140625 46.1875 30.125
L 46.1875 0
L 37.40625 0
L 37.40625 33.6875
Q 37.40625 39.546875 35.25 42.46875
Q 33.109375 45.40625 28.21875 45.40625
Q 24.515625 45.40625 21.359375 43.453125
Q 18.21875 41.5 16.796875 37.734375
Q 15.375 33.984375 15.375 26.90625
L 15.375 0
z
" id="ArialMT-109"/>
      </defs>
      <g style="fill:#262626;" transform="translate(52.99245 418.463614)scale(0.1584 -0.1584)">
       <use xlink:href="#ArialMT-112"/>
       <use x="55.615234" xlink:href="#ArialMT-46"/>
       <use x="83.398438" xlink:href="#ArialMT-109"/>
       <use x="166.699219" xlink:href="#ArialMT-46"/>
      </g>
     </g>
    </g>
    <g id="ytick_7">
     <g id="line2d_16">
      <g>
       <use style="fill:#262626;stroke:#262626;" x="90.9963" xlink:href="#mbec58c3a57" y="401.072239"/>
      </g>
     </g>
     <g id="text_12">
      <!-- says -->
      <g style="fill:#262626;" transform="translate(51.227775 406.648414)scale(0.1584 -0.1584)">
       <use xlink:href="#ArialMT-115"/>
       <use x="50" xlink:href="#ArialMT-97"/>
       <use x="105.615234" xlink:href="#ArialMT-121"/>
       <use x="155.615234" xlink:href="#ArialMT-115"/>
      </g>
     </g>
    </g>
    <g id="ytick_8">
     <g id="line2d_17">
      <g>
       <use style="fill:#262626;stroke:#262626;" x="90.9963" xlink:href="#mbec58c3a57" y="389.349851"/>
      </g>
     </g>
     <g id="text_13">
      <!-- court -->
      <defs>
       <path d="M 40.578125 0
L 40.578125 7.625
Q 34.515625 -1.171875 24.125 -1.171875
Q 19.53125 -1.171875 15.546875 0.578125
Q 11.578125 2.34375 9.640625 5
Q 7.71875 7.671875 6.9375 11.53125
Q 6.390625 14.109375 6.390625 19.734375
L 6.390625 51.859375
L 15.1875 51.859375
L 15.1875 23.09375
Q 15.1875 16.21875 15.71875 13.8125
Q 16.546875 10.359375 19.234375 8.375
Q 21.921875 6.390625 25.875 6.390625
Q 29.828125 6.390625 33.296875 8.421875
Q 36.765625 10.453125 38.203125 13.9375
Q 39.65625 17.4375 39.65625 24.078125
L 39.65625 51.859375
L 48.4375 51.859375
L 48.4375 0
z
" id="ArialMT-117"/>
      </defs>
      <g style="fill:#262626;" transform="translate(48.584475 395.018838)scale(0.1584 -0.1584)">
       <use xlink:href="#ArialMT-99"/>
       <use x="50" xlink:href="#ArialMT-111"/>
       <use x="105.615234" xlink:href="#ArialMT-117"/>
       <use x="161.230469" xlink:href="#ArialMT-114"/>
       <use x="194.53125" xlink:href="#ArialMT-116"/>
      </g>
     </g>
    </g>
    <g id="ytick_9">
     <g id="line2d_18">
      <g>
       <use style="fill:#262626;stroke:#262626;" x="90.9963" xlink:href="#mbec58c3a57" y="377.627463"/>
      </g>
     </g>
     <g id="text_14">
      <!-- york -->
      <defs>
       <path d="M 6.640625 0
L 6.640625 71.578125
L 15.4375 71.578125
L 15.4375 30.765625
L 36.234375 51.859375
L 47.609375 51.859375
L 27.78125 32.625
L 49.609375 0
L 38.765625 0
L 21.625 26.515625
L 15.4375 20.5625
L 15.4375 0
z
" id="ArialMT-107"/>
      </defs>
      <g style="fill:#262626;" transform="translate(53.87355 383.29645)scale(0.1584 -0.1584)">
       <use xlink:href="#ArialMT-121"/>
       <use x="50" xlink:href="#ArialMT-111"/>
       <use x="105.615234" xlink:href="#ArialMT-114"/>
       <use x="138.916016" xlink:href="#ArialMT-107"/>
      </g>
     </g>
    </g>
    <g id="ytick_10">
     <g id="line2d_19">
      <g>
       <use style="fill:#262626;stroke:#262626;" x="90.9963" xlink:href="#mbec58c3a57" y="365.905075"/>
      </g>
     </g>
     <g id="text_15">
      <!-- street -->
      <g style="fill:#262626;" transform="translate(44.183925 371.574062)scale(0.1584 -0.1584)">
       <use xlink:href="#ArialMT-115"/>
       <use x="50" xlink:href="#ArialMT-116"/>
       <use x="77.783203" xlink:href="#ArialMT-114"/>
       <use x="111.083984" xlink:href="#ArialMT-101"/>
       <use x="166.699219" xlink:href="#ArialMT-101"/>
       <use x="222.314453" xlink:href="#ArialMT-116"/>
      </g>
     </g>
    </g>
    <g id="ytick_11">
     <g id="line2d_20">
      <g>
       <use style="fill:#262626;stroke:#262626;" x="90.9963" xlink:href="#mbec58c3a57" y="354.182687"/>
      </g>
     </g>
     <g id="text_16">
      <!-- director -->
      <g style="fill:#262626;" transform="translate(30.982275 359.851674)scale(0.1584 -0.1584)">
       <use xlink:href="#ArialMT-100"/>
       <use x="55.615234" xlink:href="#ArialMT-105"/>
       <use x="77.832031" xlink:href="#ArialMT-114"/>
       <use x="111.132812" xlink:href="#ArialMT-101"/>
       <use x="166.748047" xlink:href="#ArialMT-99"/>
       <use x="216.748047" xlink:href="#ArialMT-116"/>
       <use x="244.53125" xlink:href="#ArialMT-111"/>
       <use x="300.146484" xlink:href="#ArialMT-114"/>
      </g>
     </g>
    </g>
    <g id="ytick_12">
     <g id="line2d_21">
      <g>
       <use style="fill:#262626;stroke:#262626;" x="90.9963" xlink:href="#mbec58c3a57" y="342.460299"/>
      </g>
     </g>
     <g id="text_17">
      <!-- police -->
      <g style="fill:#262626;" transform="translate(42.411825 348.129286)scale(0.1584 -0.1584)">
       <use xlink:href="#ArialMT-112"/>
       <use x="55.615234" xlink:href="#ArialMT-111"/>
       <use x="111.230469" xlink:href="#ArialMT-108"/>
       <use x="133.447266" xlink:href="#ArialMT-105"/>
       <use x="155.664062" xlink:href="#ArialMT-99"/>
       <use x="205.664062" xlink:href="#ArialMT-101"/>
      </g>
     </g>
    </g>
    <g id="ytick_13">
     <g id="line2d_22">
      <g>
       <use style="fill:#262626;stroke:#262626;" x="90.9963" xlink:href="#mbec58c3a57" y="330.73791"/>
      </g>
     </g>
     <g id="text_18">
      <!-- war -->
      <defs>
       <path d="M 16.15625 0
L 0.296875 51.859375
L 9.375 51.859375
L 17.625 21.921875
L 20.703125 10.796875
Q 20.90625 11.625 23.390625 21.484375
L 31.640625 51.859375
L 40.671875 51.859375
L 48.4375 21.78125
L 51.03125 11.859375
L 54 21.875
L 62.890625 51.859375
L 71.4375 51.859375
L 55.21875 0
L 46.09375 0
L 37.84375 31.0625
L 35.84375 39.890625
L 25.34375 0
z
" id="ArialMT-119"/>
      </defs>
      <g style="fill:#262626;" transform="translate(58.2741 336.406898)scale(0.1584 -0.1584)">
       <use xlink:href="#ArialMT-119"/>
       <use x="72.216797" xlink:href="#ArialMT-97"/>
       <use x="127.832031" xlink:href="#ArialMT-114"/>
      </g>
     </g>
    </g>
    <g id="ytick_14">
     <g id="line2d_23">
      <g>
       <use style="fill:#262626;stroke:#262626;" x="90.9963" xlink:href="#mbec58c3a57" y="319.015522"/>
      </g>
     </g>
     <g id="text_19">
      <!-- today -->
      <g style="fill:#262626;" transform="translate(45.050175 324.68451)scale(0.1584 -0.1584)">
       <use xlink:href="#ArialMT-116"/>
       <use x="27.783203" xlink:href="#ArialMT-111"/>
       <use x="83.398438" xlink:href="#ArialMT-100"/>
       <use x="139.013672" xlink:href="#ArialMT-97"/>
       <use x="194.628906" xlink:href="#ArialMT-121"/>
      </g>
     </g>
    </g>
    <g id="ytick_15">
     <g id="line2d_24">
      <g>
       <use style="fill:#262626;stroke:#262626;" x="90.9963" xlink:href="#mbec58c3a57" y="307.293134"/>
      </g>
     </g>
     <g id="text_20">
      <!-- business -->
      <defs>
       <path d="M 14.703125 0
L 6.546875 0
L 6.546875 71.578125
L 15.328125 71.578125
L 15.328125 46.046875
Q 20.90625 53.03125 29.546875 53.03125
Q 34.328125 53.03125 38.59375 51.09375
Q 42.875 49.171875 45.625 45.671875
Q 48.390625 42.1875 49.953125 37.25
Q 51.515625 32.328125 51.515625 26.703125
Q 51.515625 13.375 44.921875 6.09375
Q 38.328125 -1.171875 29.109375 -1.171875
Q 19.921875 -1.171875 14.703125 6.5
z
M 14.59375 26.3125
Q 14.59375 17 17.140625 12.84375
Q 21.296875 6.0625 28.375 6.0625
Q 34.125 6.0625 38.328125 11.0625
Q 42.53125 16.0625 42.53125 25.984375
Q 42.53125 36.140625 38.5 40.96875
Q 34.46875 45.796875 28.765625 45.796875
Q 23 45.796875 18.796875 40.796875
Q 14.59375 35.796875 14.59375 26.3125
z
" id="ArialMT-98"/>
      </defs>
      <g style="fill:#262626;" transform="translate(21.28275 312.962122)scale(0.1584 -0.1584)">
       <use xlink:href="#ArialMT-98"/>
       <use x="55.615234" xlink:href="#ArialMT-117"/>
       <use x="111.230469" xlink:href="#ArialMT-115"/>
       <use x="161.230469" xlink:href="#ArialMT-105"/>
       <use x="183.447266" xlink:href="#ArialMT-110"/>
       <use x="239.0625" xlink:href="#ArialMT-101"/>
       <use x="294.677734" xlink:href="#ArialMT-115"/>
       <use x="344.677734" xlink:href="#ArialMT-115"/>
      </g>
     </g>
    </g>
    <g id="ytick_16">
     <g id="line2d_25">
      <g>
       <use style="fill:#262626;stroke:#262626;" x="90.9963" xlink:href="#mbec58c3a57" y="295.570746"/>
      </g>
     </g>
     <g id="text_21">
      <!-- company -->
      <g style="fill:#262626;" transform="translate(19.527975 301.146921)scale(0.1584 -0.1584)">
       <use xlink:href="#ArialMT-99"/>
       <use x="50" xlink:href="#ArialMT-111"/>
       <use x="105.615234" xlink:href="#ArialMT-109"/>
       <use x="188.916016" xlink:href="#ArialMT-112"/>
       <use x="244.53125" xlink:href="#ArialMT-97"/>
       <use x="300.146484" xlink:href="#ArialMT-110"/>
       <use x="355.761719" xlink:href="#ArialMT-121"/>
      </g>
     </g>
    </g>
    <g id="ytick_17">
     <g id="line2d_26">
      <g>
       <use style="fill:#262626;stroke:#262626;" x="90.9963" xlink:href="#mbec58c3a57" y="283.848358"/>
      </g>
     </g>
     <g id="text_22">
      <!-- john -->
      <defs>
       <path d="M 6.546875 61.375
L 6.546875 71.578125
L 15.328125 71.578125
L 15.328125 61.375
z
M -4.59375 -20.125
L -2.9375 -12.640625
Q -0.296875 -13.328125 1.21875 -13.328125
Q 3.90625 -13.328125 5.21875 -11.546875
Q 6.546875 -9.765625 6.546875 -2.640625
L 6.546875 51.859375
L 15.328125 51.859375
L 15.328125 -2.828125
Q 15.328125 -12.40625 12.84375 -16.15625
Q 9.671875 -21.046875 2.296875 -21.046875
Q -1.265625 -21.046875 -4.59375 -20.125
z
" id="ArialMT-106"/>
       <path d="M 6.59375 0
L 6.59375 71.578125
L 15.375 71.578125
L 15.375 45.90625
Q 21.53125 53.03125 30.90625 53.03125
Q 36.671875 53.03125 40.921875 50.75
Q 45.171875 48.484375 47 44.484375
Q 48.828125 40.484375 48.828125 32.859375
L 48.828125 0
L 40.046875 0
L 40.046875 32.859375
Q 40.046875 39.453125 37.1875 42.453125
Q 34.328125 45.453125 29.109375 45.453125
Q 25.203125 45.453125 21.75 43.421875
Q 18.3125 41.40625 16.84375 37.9375
Q 15.375 34.46875 15.375 28.375
L 15.375 0
z
" id="ArialMT-104"/>
      </defs>
      <g style="fill:#262626;" transform="translate(53.851275 289.517346)scale(0.1584 -0.1584)">
       <use xlink:href="#ArialMT-106"/>
       <use x="22.216797" xlink:href="#ArialMT-111"/>
       <use x="77.832031" xlink:href="#ArialMT-104"/>
       <use x="133.447266" xlink:href="#ArialMT-110"/>
      </g>
     </g>
    </g>
    <g id="ytick_18">
     <g id="line2d_27">
      <g>
       <use style="fill:#262626;stroke:#262626;" x="90.9963" xlink:href="#mbec58c3a57" y="272.12597"/>
      </g>
     </g>
     <g id="text_23">
      <!-- federal -->
      <g style="fill:#262626;" transform="translate(35.367975 277.794958)scale(0.1584 -0.1584)">
       <use xlink:href="#ArialMT-102"/>
       <use x="27.783203" xlink:href="#ArialMT-101"/>
       <use x="83.398438" xlink:href="#ArialMT-100"/>
       <use x="139.013672" xlink:href="#ArialMT-101"/>
       <use x="194.628906" xlink:href="#ArialMT-114"/>
       <use x="227.929688" xlink:href="#ArialMT-97"/>
       <use x="283.544922" xlink:href="#ArialMT-108"/>
      </g>
     </g>
    </g>
    <g id="ytick_19">
     <g id="line2d_28">
      <g>
       <use style="fill:#262626;stroke:#262626;" x="90.9963" xlink:href="#mbec58c3a57" y="260.403582"/>
      </g>
     </g>
     <g id="text_24">
      <!-- money -->
      <g style="fill:#262626;" transform="translate(36.2565 265.979757)scale(0.1584 -0.1584)">
       <use xlink:href="#ArialMT-109"/>
       <use x="83.300781" xlink:href="#ArialMT-111"/>
       <use x="138.916016" xlink:href="#ArialMT-110"/>
       <use x="194.53125" xlink:href="#ArialMT-101"/>
       <use x="250.146484" xlink:href="#ArialMT-121"/>
      </g>
     </g>
    </g>
    <g id="ytick_20">
     <g id="line2d_29">
      <g>
       <use style="fill:#262626;stroke:#262626;" x="90.9963" xlink:href="#mbec58c3a57" y="248.681194"/>
      </g>
     </g>
     <g id="text_25">
      <!-- companies -->
      <g style="fill:#262626;" transform="translate(7.2 254.350182)scale(0.1584 -0.1584)">
       <use xlink:href="#ArialMT-99"/>
       <use x="50" xlink:href="#ArialMT-111"/>
       <use x="105.615234" xlink:href="#ArialMT-109"/>
       <use x="188.916016" xlink:href="#ArialMT-112"/>
       <use x="244.53125" xlink:href="#ArialMT-97"/>
       <use x="300.146484" xlink:href="#ArialMT-110"/>
       <use x="355.761719" xlink:href="#ArialMT-105"/>
       <use x="377.978516" xlink:href="#ArialMT-101"/>
       <use x="433.59375" xlink:href="#ArialMT-115"/>
      </g>
     </g>
    </g>
    <g id="ytick_21">
     <g id="line2d_30">
      <g>
       <use style="fill:#262626;stroke:#262626;" x="90.9963" xlink:href="#mbec58c3a57" y="236.958806"/>
      </g>
     </g>
     <g id="text_26">
      <!-- cell -->
      <g style="fill:#262626;" transform="translate(60.028875 242.627793)scale(0.1584 -0.1584)">
       <use xlink:href="#ArialMT-99"/>
       <use x="50" xlink:href="#ArialMT-101"/>
       <use x="105.615234" xlink:href="#ArialMT-108"/>
       <use x="127.832031" xlink:href="#ArialMT-108"/>
      </g>
     </g>
    </g>
    <g id="ytick_22">
     <g id="line2d_31">
      <g>
       <use style="fill:#262626;stroke:#262626;" x="90.9963" xlink:href="#mbec58c3a57" y="225.236418"/>
      </g>
     </g>
     <g id="text_27">
      <!-- expression -->
      <defs>
       <path d="M 0.734375 0
L 19.671875 26.953125
L 2.15625 51.859375
L 13.140625 51.859375
L 21.09375 39.703125
Q 23.34375 36.234375 24.703125 33.890625
Q 26.859375 37.109375 28.65625 39.59375
L 37.40625 51.859375
L 47.90625 51.859375
L 29.984375 27.4375
L 49.265625 0
L 38.484375 0
L 27.828125 16.109375
L 25 20.453125
L 11.375 0
z
" id="ArialMT-120"/>
      </defs>
      <g style="fill:#262626;" transform="translate(7.2 230.905405)scale(0.1584 -0.1584)">
       <use xlink:href="#ArialMT-101"/>
       <use x="55.615234" xlink:href="#ArialMT-120"/>
       <use x="105.615234" xlink:href="#ArialMT-112"/>
       <use x="161.230469" xlink:href="#ArialMT-114"/>
       <use x="194.53125" xlink:href="#ArialMT-101"/>
       <use x="250.146484" xlink:href="#ArialMT-115"/>
       <use x="300.146484" xlink:href="#ArialMT-115"/>
       <use x="350.146484" xlink:href="#ArialMT-105"/>
       <use x="372.363281" xlink:href="#ArialMT-111"/>
       <use x="427.978516" xlink:href="#ArialMT-110"/>
      </g>
     </g>
    </g>
    <g id="ytick_23">
     <g id="line2d_32">
      <g>
       <use style="fill:#262626;stroke:#262626;" x="90.9963" xlink:href="#mbec58c3a57" y="213.51403"/>
      </g>
     </g>
     <g id="text_28">
      <!-- p -->
      <g style="fill:#262626;" transform="translate(74.987775 219.183017)scale(0.1584 -0.1584)">
       <use xlink:href="#ArialMT-112"/>
      </g>
     </g>
    </g>
    <g id="ytick_24">
     <g id="line2d_33">
      <g>
       <use style="fill:#262626;stroke:#262626;" x="90.9963" xlink:href="#mbec58c3a57" y="201.791642"/>
      </g>
     </g>
     <g id="text_29">
      <!-- genes -->
      <g style="fill:#262626;" transform="translate(40.6422 207.367817)scale(0.1584 -0.1584)">
       <use xlink:href="#ArialMT-103"/>
       <use x="55.615234" xlink:href="#ArialMT-101"/>
       <use x="111.230469" xlink:href="#ArialMT-110"/>
       <use x="166.845703" xlink:href="#ArialMT-101"/>
       <use x="222.460938" xlink:href="#ArialMT-115"/>
      </g>
     </g>
    </g>
    <g id="ytick_25">
     <g id="line2d_34">
      <g>
       <use style="fill:#262626;stroke:#262626;" x="90.9963" xlink:href="#mbec58c3a57" y="190.069254"/>
      </g>
     </g>
     <g id="text_30">
      <!-- cells -->
      <g style="fill:#262626;" transform="translate(52.108875 195.738241)scale(0.1584 -0.1584)">
       <use xlink:href="#ArialMT-99"/>
       <use x="50" xlink:href="#ArialMT-101"/>
       <use x="105.615234" xlink:href="#ArialMT-108"/>
       <use x="127.832031" xlink:href="#ArialMT-108"/>
       <use x="150.048828" xlink:href="#ArialMT-115"/>
      </g>
     </g>
    </g>
    <g id="ytick_26">
     <g id="line2d_35">
      <g>
       <use style="fill:#262626;stroke:#262626;" x="90.9963" xlink:href="#mbec58c3a57" y="178.346866"/>
      </g>
     </g>
     <g id="text_31">
      <!-- protein -->
      <g style="fill:#262626;" transform="translate(35.367975 184.015853)scale(0.1584 -0.1584)">
       <use xlink:href="#ArialMT-112"/>
       <use x="55.615234" xlink:href="#ArialMT-114"/>
       <use x="88.916016" xlink:href="#ArialMT-111"/>
       <use x="144.53125" xlink:href="#ArialMT-116"/>
       <use x="172.314453" xlink:href="#ArialMT-101"/>
       <use x="227.929688" xlink:href="#ArialMT-105"/>
       <use x="250.146484" xlink:href="#ArialMT-110"/>
      </g>
     </g>
    </g>
    <g id="ytick_27">
     <g id="line2d_36">
      <g>
       <use style="fill:#262626;stroke:#262626;" x="90.9963" xlink:href="#mbec58c3a57" y="166.624478"/>
      </g>
     </g>
     <g id="text_32">
      <!-- mice -->
      <g style="fill:#262626;" transform="translate(50.3541 172.293465)scale(0.1584 -0.1584)">
       <use xlink:href="#ArialMT-109"/>
       <use x="83.300781" xlink:href="#ArialMT-105"/>
       <use x="105.517578" xlink:href="#ArialMT-99"/>
       <use x="155.517578" xlink:href="#ArialMT-101"/>
      </g>
     </g>
    </g>
    <g id="ytick_28">
     <g id="line2d_37">
      <g>
       <use style="fill:#262626;stroke:#262626;" x="90.9963" xlink:href="#mbec58c3a57" y="154.90209"/>
      </g>
     </g>
     <g id="text_33">
      <!-- ” -->
      <defs>
       <path d="M 4.25 62.109375
L 4.25 72.3125
L 13.671875 72.3125
L 13.671875 64.265625
Q 13.671875 57.71875 12.15625 54.828125
Q 10.0625 50.875 5.609375 48.875
L 3.46875 52.34375
Q 6.109375 53.421875 7.390625 55.734375
Q 8.6875 58.0625 8.84375 62.109375
z
M 19.390625 62.109375
L 19.390625 72.3125
L 28.8125 72.3125
L 28.8125 64.265625
Q 28.8125 57.71875 27.296875 54.828125
Q 25.203125 50.875 20.75 48.875
L 18.609375 52.34375
Q 21.234375 53.421875 22.53125 55.734375
Q 23.828125 58.0625 23.96875 62.109375
z
" id="ArialMT-8221"/>
      </defs>
      <g style="fill:#262626;" transform="translate(78.522075 160.571077)scale(0.1584 -0.1584)">
       <use xlink:href="#ArialMT-8221"/>
      </g>
     </g>
    </g>
    <g id="ytick_29">
     <g id="line2d_38">
      <g>
       <use style="fill:#262626;stroke:#262626;" x="90.9963" xlink:href="#mbec58c3a57" y="143.179701"/>
      </g>
     </g>
     <g id="text_34">
      <!-- “ -->
      <defs>
       <path d="M 13.484375 59.578125
L 13.484375 49.359375
L 4.046875 49.359375
L 4.046875 57.421875
Q 4.046875 63.96875 5.609375 66.890625
Q 7.671875 70.796875 12.109375 72.796875
L 14.265625 69.390625
Q 11.578125 68.265625 10.296875 66.03125
Q 9.03125 63.8125 8.890625 59.578125
z
M 28.609375 59.578125
L 28.609375 49.359375
L 19.1875 49.359375
L 19.1875 57.421875
Q 19.1875 63.96875 20.75 66.890625
Q 22.796875 70.796875 27.25 72.796875
L 29.390625 69.390625
Q 26.703125 68.265625 25.4375 66.03125
Q 24.171875 63.8125 24.03125 59.578125
z
" id="ArialMT-8220"/>
      </defs>
      <g style="fill:#262626;" transform="translate(78.522075 148.848689)scale(0.1584 -0.1584)">
       <use xlink:href="#ArialMT-8220"/>
      </g>
     </g>
    </g>
    <g id="ytick_30">
     <g id="line2d_39">
      <g>
       <use style="fill:#262626;stroke:#262626;" x="90.9963" xlink:href="#mbec58c3a57" y="131.457313"/>
      </g>
     </g>
     <g id="text_35">
      <!-- et -->
      <g style="fill:#262626;" transform="translate(70.587225 137.126301)scale(0.1584 -0.1584)">
       <use xlink:href="#ArialMT-101"/>
       <use x="55.615234" xlink:href="#ArialMT-116"/>
      </g>
     </g>
    </g>
    <g id="ytick_31">
     <g id="line2d_40">
      <g>
       <use style="fill:#262626;stroke:#262626;" x="90.9963" xlink:href="#mbec58c3a57" y="119.734925"/>
      </g>
     </g>
     <g id="text_36">
      <!-- min -->
      <g style="fill:#262626;" transform="translate(58.2741 125.403913)scale(0.1584 -0.1584)">
       <use xlink:href="#ArialMT-109"/>
       <use x="83.300781" xlink:href="#ArialMT-105"/>
       <use x="105.517578" xlink:href="#ArialMT-110"/>
      </g>
     </g>
    </g>
    <g id="ytick_32">
     <g id="line2d_41">
      <g>
       <use style="fill:#262626;stroke:#262626;" x="90.9963" xlink:href="#mbec58c3a57" y="108.012537"/>
      </g>
     </g>
     <g id="text_37">
      <!-- ’ -->
      <defs>
       <path d="M 6.0625 62.109375
L 6.0625 72.3125
L 15.484375 72.3125
L 15.484375 64.265625
Q 15.484375 57.71875 13.96875 54.828125
Q 11.859375 50.875 7.421875 48.875
L 5.28125 52.34375
Q 7.90625 53.421875 9.203125 55.734375
Q 10.5 58.0625 10.640625 62.109375
z
" id="ArialMT-8217"/>
      </defs>
      <g style="fill:#262626;" transform="translate(80.27685 113.681525)scale(0.1584 -0.1584)">
       <use xlink:href="#ArialMT-8217"/>
      </g>
     </g>
    </g>
    <g id="ytick_33">
     <g id="line2d_42">
      <g>
       <use style="fill:#262626;stroke:#262626;" x="90.9963" xlink:href="#mbec58c3a57" y="96.290149"/>
      </g>
     </g>
     <g id="text_38">
      <!-- fig -->
      <g style="fill:#262626;" transform="translate(67.067775 102.055662)scale(0.1584 -0.1584)">
       <use xlink:href="#ArialMT-102"/>
       <use x="27.783203" xlink:href="#ArialMT-105"/>
       <use x="50" xlink:href="#ArialMT-103"/>
      </g>
     </g>
    </g>
    <g id="ytick_34">
     <g id="line2d_43">
      <g>
       <use style="fill:#262626;stroke:#262626;" x="90.9963" xlink:href="#mbec58c3a57" y="84.567761"/>
      </g>
     </g>
     <g id="text_39">
      <!-- mm -->
      <g style="fill:#262626;" transform="translate(57.40785 90.236749)scale(0.1584 -0.1584)">
       <use xlink:href="#ArialMT-109"/>
       <use x="83.300781" xlink:href="#ArialMT-109"/>
      </g>
     </g>
    </g>
    <g id="ytick_35">
     <g id="line2d_44">
      <g>
       <use style="fill:#262626;stroke:#262626;" x="90.9963" xlink:href="#mbec58c3a57" y="72.845373"/>
      </g>
     </g>
     <g id="text_40">
      <!-- ml -->
      <g style="fill:#262626;" transform="translate(67.082625 78.514361)scale(0.1584 -0.1584)">
       <use xlink:href="#ArialMT-109"/>
       <use x="83.300781" xlink:href="#ArialMT-108"/>
      </g>
     </g>
    </g>
    <g id="ytick_36">
     <g id="line2d_45">
      <g>
       <use style="fill:#262626;stroke:#262626;" x="90.9963" xlink:href="#mbec58c3a57" y="61.122985"/>
      </g>
     </g>
     <g id="text_41">
      <!-- ° -->
      <defs>
       <path d="M 6.25 59.28125
Q 6.25 64.890625 10.21875 68.84375
Q 14.203125 72.796875 19.78125 72.796875
Q 25.4375 72.796875 29.390625 68.84375
Q 33.34375 64.890625 33.34375 59.28125
Q 33.34375 53.65625 29.359375 49.671875
Q 25.390625 45.703125 19.78125 45.703125
Q 14.203125 45.703125 10.21875 49.65625
Q 6.25 53.609375 6.25 59.28125
z
M 11.578125 59.28125
Q 11.578125 55.859375 13.984375 53.4375
Q 16.40625 51.03125 19.828125 51.03125
Q 23.1875 51.03125 25.609375 53.4375
Q 28.03125 55.859375 28.03125 59.28125
Q 28.03125 62.703125 25.609375 65.109375
Q 23.1875 67.53125 19.828125 67.53125
Q 16.40625 67.53125 13.984375 65.109375
Q 11.578125 62.703125 11.578125 59.28125
z
" id="ArialMT-176"/>
      </defs>
      <g style="fill:#262626;" transform="translate(77.462775 66.791973)scale(0.1584 -0.1584)">
       <use xlink:href="#ArialMT-176"/>
      </g>
     </g>
    </g>
    <g id="ytick_37">
     <g id="line2d_46">
      <g>
       <use style="fill:#262626;stroke:#262626;" x="90.9963" xlink:href="#mbec58c3a57" y="49.400597"/>
      </g>
     </g>
     <g id="text_42">
      <!--   -->
      <defs>
       <path d="M 12.5 0
L 12.5 62.5
L 62.5 62.5
L 62.5 0
z
M 14.0625 1.5625
L 60.9375 1.5625
L 60.9375 60.9375
L 14.0625 60.9375
z
" id="ArialMT-8202"/>
      </defs>
      <g style="fill:#262626;" transform="translate(71.9163 55.069585)scale(0.1584 -0.1584)">
       <use xlink:href="#ArialMT-8202"/>
      </g>
     </g>
    </g>
    <g id="ytick_38">
     <g id="line2d_47">
      <g>
       <use style="fill:#262626;stroke:#262626;" x="90.9963" xlink:href="#mbec58c3a57" y="37.678209"/>
      </g>
     </g>
     <g id="text_43">
      <!-- – -->
      <defs>
       <path d="M -0.203125 22.359375
L -0.203125 29.4375
L 55.421875 29.4375
L 55.421875 22.359375
z
" id="ArialMT-8211"/>
      </defs>
      <g style="fill:#262626;" transform="translate(74.987775 43.347196)scale(0.1584 -0.1584)">
       <use xlink:href="#ArialMT-8211"/>
      </g>
     </g>
    </g>
    <g id="ytick_39">
     <g id="line2d_48">
      <g>
       <use style="fill:#262626;stroke:#262626;" x="90.9963" xlink:href="#mbec58c3a57" y="25.955821"/>
      </g>
     </g>
     <g id="text_44">
      <!-- ± -->
      <defs>
       <path d="M 23.296875 12.703125
L 23.296875 32.375
L 3.8125 32.375
L 3.8125 40.53125
L 23.296875 40.53125
L 23.296875 60.015625
L 31.59375 60.015625
L 31.59375 40.53125
L 51.078125 40.53125
L 51.078125 32.375
L 31.59375 32.375
L 31.59375 12.703125
z
M 51.078125 0
L 3.8125 0
L 3.8125 8.203125
L 51.078125 8.203125
z
" id="ArialMT-177"/>
      </defs>
      <g style="fill:#262626;" transform="translate(75.101625 31.624808)scale(0.1584 -0.1584)">
       <use xlink:href="#ArialMT-177"/>
      </g>
     </g>
    </g>
    <g id="ytick_40">
     <g id="line2d_49">
      <g>
       <use style="fill:#262626;stroke:#262626;" x="90.9963" xlink:href="#mbec58c3a57" y="14.233433"/>
      </g>
     </g>
     <g id="text_45">
      <!-- 				 -->
      <defs>
       <path d="M 12.5 0
L 12.5 62.5
L 62.5 62.5
L 62.5 0
z
M 14.0625 1.5625
L 60.9375 1.5625
L 60.9375 60.9375
L 14.0625 60.9375
z
" id="ArialMT-9"/>
      </defs>
      <g style="fill:#262626;" transform="translate(36.2763 19.90242)scale(0.1584 -0.1584)">
       <use xlink:href="#ArialMT-9"/>
       <use x="75" xlink:href="#ArialMT-9"/>
       <use x="150" xlink:href="#ArialMT-9"/>
       <use x="225" xlink:href="#ArialMT-9"/>
      </g>
     </g>
    </g>
   </g>
   <g id="LineCollection_1">
    <path clip-path="url(#p19ac46a8fb)" d="M 599.778518 17.16403
L 599.778518 11.302836
" style="fill:none;stroke:#253494;stroke-width:0.886227;"/>
    <path clip-path="url(#p19ac46a8fb)" d="M 676.8963 17.16403
L 676.8963 11.302836
" style="fill:none;stroke:#253494;stroke-width:0.886227;"/>
    <path clip-path="url(#p19ac46a8fb)" d="M 599.778518 14.233433
L 676.8963 14.233433
" style="fill:none;stroke:#253494;stroke-width:0.886227;"/>
   </g>
   <g id="LineCollection_2">
    <path clip-path="url(#p19ac46a8fb)" d="M 230.172281 450.892388
L 230.172281 445.031194
" style="fill:none;stroke:#253494;stroke-width:0.886227;"/>
    <path clip-path="url(#p19ac46a8fb)" d="M 230.517472 450.892388
L 230.517472 445.031194
" style="fill:none;stroke:#253494;stroke-width:0.886227;"/>
    <path clip-path="url(#p19ac46a8fb)" d="M 230.172281 447.961791
L 230.517472 447.961791
" style="fill:none;stroke:#253494;stroke-width:0.886227;"/>
   </g>
   <g id="LineCollection_3">
    <path clip-path="url(#p19ac46a8fb)" d="M 266.113908 310.223731
L 266.113908 304.362537
" style="fill:none;stroke:#253494;stroke-width:0.886227;"/>
    <path clip-path="url(#p19ac46a8fb)" d="M 266.413877 310.223731
L 266.413877 304.362537
" style="fill:none;stroke:#253494;stroke-width:0.886227;"/>
    <path clip-path="url(#p19ac46a8fb)" d="M 266.113908 307.293134
L 266.413877 307.293134
" style="fill:none;stroke:#253494;stroke-width:0.886227;"/>
   </g>
   <g id="LineCollection_4">
    <path clip-path="url(#p19ac46a8fb)" d="M 425.463731 239.889403
L 425.463731 234.028209
" style="fill:none;stroke:#253494;stroke-width:0.886227;"/>
    <path clip-path="url(#p19ac46a8fb)" d="M 425.852845 239.889403
L 425.852845 234.028209
" style="fill:none;stroke:#253494;stroke-width:0.886227;"/>
    <path clip-path="url(#p19ac46a8fb)" d="M 425.463731 236.958806
L 425.852845 236.958806
" style="fill:none;stroke:#253494;stroke-width:0.886227;"/>
   </g>
   <g id="LineCollection_5">
    <path clip-path="url(#p19ac46a8fb)" d="M 433.989385 192.999851
L 433.989385 187.138657
" style="fill:none;stroke:#253494;stroke-width:0.886227;"/>
    <path clip-path="url(#p19ac46a8fb)" d="M 434.36549 192.999851
L 434.36549 187.138657
" style="fill:none;stroke:#253494;stroke-width:0.886227;"/>
    <path clip-path="url(#p19ac46a8fb)" d="M 433.989385 190.069254
L 434.36549 190.069254
" style="fill:none;stroke:#253494;stroke-width:0.886227;"/>
   </g>
   <g id="LineCollection_6">
    <path clip-path="url(#p19ac46a8fb)" d="M 276.288523 251.611791
L 276.288523 245.750597
" style="fill:none;stroke:#253494;stroke-width:0.886227;"/>
    <path clip-path="url(#p19ac46a8fb)" d="M 276.569245 251.611791
L 276.569245 245.750597
" style="fill:none;stroke:#253494;stroke-width:0.886227;"/>
    <path clip-path="url(#p19ac46a8fb)" d="M 276.288523 248.681194
L 276.569245 248.681194
" style="fill:none;stroke:#253494;stroke-width:0.886227;"/>
   </g>
   <g id="LineCollection_7">
    <path clip-path="url(#p19ac46a8fb)" d="M 266.289529 298.501343
L 266.289529 292.640149
" style="fill:none;stroke:#253494;stroke-width:0.886227;"/>
    <path clip-path="url(#p19ac46a8fb)" d="M 266.48627 298.501343
L 266.48627 292.640149
" style="fill:none;stroke:#253494;stroke-width:0.886227;"/>
    <path clip-path="url(#p19ac46a8fb)" d="M 266.289529 295.570746
L 266.48627 295.570746
" style="fill:none;stroke:#253494;stroke-width:0.886227;"/>
   </g>
   <g id="LineCollection_8">
    <path clip-path="url(#p19ac46a8fb)" d="M 248.711636 392.280448
L 248.711636 386.419254
" style="fill:none;stroke:#253494;stroke-width:0.886227;"/>
    <path clip-path="url(#p19ac46a8fb)" d="M 249.204794 392.280448
L 249.204794 386.419254
" style="fill:none;stroke:#253494;stroke-width:0.886227;"/>
    <path clip-path="url(#p19ac46a8fb)" d="M 248.711636 389.349851
L 249.204794 389.349851
" style="fill:none;stroke:#253494;stroke-width:0.886227;"/>
   </g>
   <g id="LineCollection_9">
    <path clip-path="url(#p19ac46a8fb)" d="M 255.435939 357.113284
L 255.435939 351.25209
" style="fill:none;stroke:#253494;stroke-width:0.886227;"/>
    <path clip-path="url(#p19ac46a8fb)" d="M 255.857997 357.113284
L 255.857997 351.25209
" style="fill:none;stroke:#253494;stroke-width:0.886227;"/>
    <path clip-path="url(#p19ac46a8fb)" d="M 255.435939 354.182687
L 255.857997 354.182687
" style="fill:none;stroke:#253494;stroke-width:0.886227;"/>
   </g>
   <g id="LineCollection_10">
    <path clip-path="url(#p19ac46a8fb)" d="M 462.925942 134.38791
L 462.925942 128.526716
" style="fill:none;stroke:#253494;stroke-width:0.886227;"/>
    <path clip-path="url(#p19ac46a8fb)" d="M 463.831707 134.38791
L 463.831707 128.526716
" style="fill:none;stroke:#253494;stroke-width:0.886227;"/>
    <path clip-path="url(#p19ac46a8fb)" d="M 462.925942 131.457313
L 463.831707 131.457313
" style="fill:none;stroke:#253494;stroke-width:0.886227;"/>
   </g>
   <g id="LineCollection_11">
    <path clip-path="url(#p19ac46a8fb)" d="M 428.82498 228.167015
L 428.82498 222.305821
" style="fill:none;stroke:#253494;stroke-width:0.886227;"/>
    <path clip-path="url(#p19ac46a8fb)" d="M 429.283585 228.167015
L 429.283585 222.305821
" style="fill:none;stroke:#253494;stroke-width:0.886227;"/>
    <path clip-path="url(#p19ac46a8fb)" d="M 428.82498 225.236418
L 429.283585 225.236418
" style="fill:none;stroke:#253494;stroke-width:0.886227;"/>
   </g>
   <g id="LineCollection_12">
    <path clip-path="url(#p19ac46a8fb)" d="M 272.911207 275.056567
L 272.911207 269.195373
" style="fill:none;stroke:#253494;stroke-width:0.886227;"/>
    <path clip-path="url(#p19ac46a8fb)" d="M 273.184324 275.056567
L 273.184324 269.195373
" style="fill:none;stroke:#253494;stroke-width:0.886227;"/>
    <path clip-path="url(#p19ac46a8fb)" d="M 272.911207 272.12597
L 273.184324 272.12597
" style="fill:none;stroke:#253494;stroke-width:0.886227;"/>
   </g>
   <g id="LineCollection_13">
    <path clip-path="url(#p19ac46a8fb)" d="M 477.176065 99.220746
L 477.176065 93.359552
" style="fill:none;stroke:#253494;stroke-width:0.886227;"/>
    <path clip-path="url(#p19ac46a8fb)" d="M 478.706076 99.220746
L 478.706076 93.359552
" style="fill:none;stroke:#253494;stroke-width:0.886227;"/>
    <path clip-path="url(#p19ac46a8fb)" d="M 477.176065 96.290149
L 478.706076 96.290149
" style="fill:none;stroke:#253494;stroke-width:0.886227;"/>
   </g>
   <g id="LineCollection_14">
    <path clip-path="url(#p19ac46a8fb)" d="M 430.482002 204.722239
L 430.482002 198.861045
" style="fill:none;stroke:#253494;stroke-width:0.886227;"/>
    <path clip-path="url(#p19ac46a8fb)" d="M 431.104397 204.722239
L 431.104397 198.861045
" style="fill:none;stroke:#253494;stroke-width:0.886227;"/>
    <path clip-path="url(#p19ac46a8fb)" d="M 430.482002 201.791642
L 431.104397 201.791642
" style="fill:none;stroke:#253494;stroke-width:0.886227;"/>
   </g>
   <g id="LineCollection_15">
    <path clip-path="url(#p19ac46a8fb)" d="M 270.711583 286.778955
L 270.711583 280.917761
" style="fill:none;stroke:#253494;stroke-width:0.886227;"/>
    <path clip-path="url(#p19ac46a8fb)" d="M 271.002833 286.778955
L 271.002833 280.917761
" style="fill:none;stroke:#253494;stroke-width:0.886227;"/>
    <path clip-path="url(#p19ac46a8fb)" d="M 270.711583 283.848358
L 271.002833 283.848358
" style="fill:none;stroke:#253494;stroke-width:0.886227;"/>
   </g>
   <g id="LineCollection_16">
    <path clip-path="url(#p19ac46a8fb)" d="M 439.906035 169.555075
L 439.906035 163.693881
" style="fill:none;stroke:#253494;stroke-width:0.886227;"/>
    <path clip-path="url(#p19ac46a8fb)" d="M 440.745762 169.555075
L 440.745762 163.693881
" style="fill:none;stroke:#253494;stroke-width:0.886227;"/>
    <path clip-path="url(#p19ac46a8fb)" d="M 439.906035 166.624478
L 440.745762 166.624478
" style="fill:none;stroke:#253494;stroke-width:0.886227;"/>
   </g>
   <g id="LineCollection_17">
    <path clip-path="url(#p19ac46a8fb)" d="M 463.797045 122.665522
L 463.797045 116.804328
" style="fill:none;stroke:#253494;stroke-width:0.886227;"/>
    <path clip-path="url(#p19ac46a8fb)" d="M 465.589367 122.665522
L 465.589367 116.804328
" style="fill:none;stroke:#253494;stroke-width:0.886227;"/>
    <path clip-path="url(#p19ac46a8fb)" d="M 463.797045 119.734925
L 465.589367 119.734925
" style="fill:none;stroke:#253494;stroke-width:0.886227;"/>
   </g>
   <g id="LineCollection_18">
    <path clip-path="url(#p19ac46a8fb)" d="M 510.44597 75.77597
L 510.44597 69.914776
" style="fill:none;stroke:#253494;stroke-width:0.886227;"/>
    <path clip-path="url(#p19ac46a8fb)" d="M 516.162411 75.77597
L 516.162411 69.914776
" style="fill:none;stroke:#253494;stroke-width:0.886227;"/>
    <path clip-path="url(#p19ac46a8fb)" d="M 510.44597 72.845373
L 516.162411 72.845373
" style="fill:none;stroke:#253494;stroke-width:0.886227;"/>
   </g>
   <g id="LineCollection_19">
    <path clip-path="url(#p19ac46a8fb)" d="M 497.88184 87.498358
L 497.88184 81.637164
" style="fill:none;stroke:#253494;stroke-width:0.886227;"/>
    <path clip-path="url(#p19ac46a8fb)" d="M 501.946432 87.498358
L 501.946432 81.637164
" style="fill:none;stroke:#253494;stroke-width:0.886227;"/>
    <path clip-path="url(#p19ac46a8fb)" d="M 497.88184 84.567761
L 501.946432 84.567761
" style="fill:none;stroke:#253494;stroke-width:0.886227;"/>
   </g>
   <g id="LineCollection_20">
    <path clip-path="url(#p19ac46a8fb)" d="M 274.219048 263.334179
L 274.219048 257.472985
" style="fill:none;stroke:#253494;stroke-width:0.886227;"/>
    <path clip-path="url(#p19ac46a8fb)" d="M 274.489466 263.334179
L 274.489466 257.472985
" style="fill:none;stroke:#253494;stroke-width:0.886227;"/>
    <path clip-path="url(#p19ac46a8fb)" d="M 274.219048 260.403582
L 274.489466 260.403582
" style="fill:none;stroke:#253494;stroke-width:0.886227;"/>
   </g>
   <g id="LineCollection_21">
    <path clip-path="url(#p19ac46a8fb)" d="M 241.559189 427.447612
L 241.559189 421.586418
" style="fill:none;stroke:#253494;stroke-width:0.886227;"/>
    <path clip-path="url(#p19ac46a8fb)" d="M 242.060744 427.447612
L 242.060744 421.586418
" style="fill:none;stroke:#253494;stroke-width:0.886227;"/>
    <path clip-path="url(#p19ac46a8fb)" d="M 241.559189 424.517015
L 242.060744 424.517015
" style="fill:none;stroke:#253494;stroke-width:0.886227;"/>
   </g>
   <g id="LineCollection_22">
    <path clip-path="url(#p19ac46a8fb)" d="M 430.542504 216.444627
L 430.542504 210.583433
" style="fill:none;stroke:#253494;stroke-width:0.886227;"/>
    <path clip-path="url(#p19ac46a8fb)" d="M 431.000211 216.444627
L 431.000211 210.583433
" style="fill:none;stroke:#253494;stroke-width:0.886227;"/>
    <path clip-path="url(#p19ac46a8fb)" d="M 430.542504 213.51403
L 431.000211 213.51403
" style="fill:none;stroke:#253494;stroke-width:0.886227;"/>
   </g>
   <g id="LineCollection_23">
    <path clip-path="url(#p19ac46a8fb)" d="M 242.092481 415.725224
L 242.092481 409.86403
" style="fill:none;stroke:#253494;stroke-width:0.886227;"/>
    <path clip-path="url(#p19ac46a8fb)" d="M 242.635568 415.725224
L 242.635568 409.86403
" style="fill:none;stroke:#253494;stroke-width:0.886227;"/>
    <path clip-path="url(#p19ac46a8fb)" d="M 242.092481 412.794627
L 242.635568 412.794627
" style="fill:none;stroke:#253494;stroke-width:0.886227;"/>
   </g>
   <g id="LineCollection_24">
    <path clip-path="url(#p19ac46a8fb)" d="M 260.17173 345.390896
L 260.17173 339.529701
" style="fill:none;stroke:#253494;stroke-width:0.886227;"/>
    <path clip-path="url(#p19ac46a8fb)" d="M 260.547139 345.390896
L 260.547139 339.529701
" style="fill:none;stroke:#253494;stroke-width:0.886227;"/>
    <path clip-path="url(#p19ac46a8fb)" d="M 260.17173 342.460299
L 260.547139 342.460299
" style="fill:none;stroke:#253494;stroke-width:0.886227;"/>
   </g>
   <g id="LineCollection_25">
    <path clip-path="url(#p19ac46a8fb)" d="M 219.591198 462.614776
L 219.591198 456.753582
" style="fill:none;stroke:#253494;stroke-width:0.886227;"/>
    <path clip-path="url(#p19ac46a8fb)" d="M 220.253751 462.614776
L 220.253751 456.753582
" style="fill:none;stroke:#253494;stroke-width:0.886227;"/>
    <path clip-path="url(#p19ac46a8fb)" d="M 219.591198 459.684179
L 220.253751 459.684179
" style="fill:none;stroke:#253494;stroke-width:0.886227;"/>
   </g>
   <g id="LineCollection_26">
    <path clip-path="url(#p19ac46a8fb)" d="M 437.661644 181.277463
L 437.661644 175.416269
" style="fill:none;stroke:#253494;stroke-width:0.886227;"/>
    <path clip-path="url(#p19ac46a8fb)" d="M 438.340157 181.277463
L 438.340157 175.416269
" style="fill:none;stroke:#253494;stroke-width:0.886227;"/>
    <path clip-path="url(#p19ac46a8fb)" d="M 437.661644 178.346866
L 438.340157 178.346866
" style="fill:none;stroke:#253494;stroke-width:0.886227;"/>
   </g>
   <g id="LineCollection_27">
    <path clip-path="url(#p19ac46a8fb)" d="M 237.135579 439.17
L 237.135579 433.308806
" style="fill:none;stroke:#253494;stroke-width:0.886227;"/>
    <path clip-path="url(#p19ac46a8fb)" d="M 237.311762 439.17
L 237.311762 433.308806
" style="fill:none;stroke:#253494;stroke-width:0.886227;"/>
    <path clip-path="url(#p19ac46a8fb)" d="M 237.135579 436.239403
L 237.311762 436.239403
" style="fill:none;stroke:#253494;stroke-width:0.886227;"/>
   </g>
   <g id="LineCollection_28">
    <path clip-path="url(#p19ac46a8fb)" d="M 245.811581 404.002836
L 245.811581 398.141642
" style="fill:none;stroke:#253494;stroke-width:0.886227;"/>
    <path clip-path="url(#p19ac46a8fb)" d="M 246.380486 404.002836
L 246.380486 398.141642
" style="fill:none;stroke:#253494;stroke-width:0.886227;"/>
    <path clip-path="url(#p19ac46a8fb)" d="M 245.811581 401.072239
L 246.380486 401.072239
" style="fill:none;stroke:#253494;stroke-width:0.886227;"/>
   </g>
   <g id="LineCollection_29">
    <path clip-path="url(#p19ac46a8fb)" d="M 254.316294 368.835672
L 254.316294 362.974478
" style="fill:none;stroke:#253494;stroke-width:0.886227;"/>
    <path clip-path="url(#p19ac46a8fb)" d="M 254.654024 368.835672
L 254.654024 362.974478
" style="fill:none;stroke:#253494;stroke-width:0.886227;"/>
    <path clip-path="url(#p19ac46a8fb)" d="M 254.316294 365.905075
L 254.654024 365.905075
" style="fill:none;stroke:#253494;stroke-width:0.886227;"/>
   </g>
   <g id="LineCollection_30">
    <path clip-path="url(#p19ac46a8fb)" d="M 263.352365 321.946119
L 263.352365 316.084925
" style="fill:none;stroke:#253494;stroke-width:0.886227;"/>
    <path clip-path="url(#p19ac46a8fb)" d="M 263.605588 321.946119
L 263.605588 316.084925
" style="fill:none;stroke:#253494;stroke-width:0.886227;"/>
    <path clip-path="url(#p19ac46a8fb)" d="M 263.352365 319.015522
L 263.605588 319.015522
" style="fill:none;stroke:#253494;stroke-width:0.886227;"/>
   </g>
   <g id="LineCollection_31">
    <path clip-path="url(#p19ac46a8fb)" d="M 263.230395 333.668507
L 263.230395 327.807313
" style="fill:none;stroke:#253494;stroke-width:0.886227;"/>
    <path clip-path="url(#p19ac46a8fb)" d="M 263.596939 333.668507
L 263.596939 327.807313
" style="fill:none;stroke:#253494;stroke-width:0.886227;"/>
    <path clip-path="url(#p19ac46a8fb)" d="M 263.230395 330.73791
L 263.596939 330.73791
" style="fill:none;stroke:#253494;stroke-width:0.886227;"/>
   </g>
   <g id="LineCollection_32">
    <path clip-path="url(#p19ac46a8fb)" d="M 199.691352 474.337164
L 199.691352 468.47597
" style="fill:none;stroke:#253494;stroke-width:0.886227;"/>
    <path clip-path="url(#p19ac46a8fb)" d="M 201.059417 474.337164
L 201.059417 468.47597
" style="fill:none;stroke:#253494;stroke-width:0.886227;"/>
    <path clip-path="url(#p19ac46a8fb)" d="M 199.691352 471.406567
L 201.059417 471.406567
" style="fill:none;stroke:#253494;stroke-width:0.886227;"/>
   </g>
   <g id="LineCollection_33">
    <path clip-path="url(#p19ac46a8fb)" d="M 254.334657 380.55806
L 254.334657 374.696866
" style="fill:none;stroke:#253494;stroke-width:0.886227;"/>
    <path clip-path="url(#p19ac46a8fb)" d="M 254.579798 380.55806
L 254.579798 374.696866
" style="fill:none;stroke:#253494;stroke-width:0.886227;"/>
    <path clip-path="url(#p19ac46a8fb)" d="M 254.334657 377.627463
L 254.579798 377.627463
" style="fill:none;stroke:#253494;stroke-width:0.886227;"/>
   </g>
   <g id="LineCollection_34">
    <path clip-path="url(#p19ac46a8fb)" d="M 581.597807 64.053582
L 581.597807 58.192388
" style="fill:none;stroke:#253494;stroke-width:0.886227;"/>
    <path clip-path="url(#p19ac46a8fb)" d="M 636.128319 64.053582
L 636.128319 58.192388
" style="fill:none;stroke:#253494;stroke-width:0.886227;"/>
    <path clip-path="url(#p19ac46a8fb)" d="M 581.597807 61.122985
L 636.128319 61.122985
" style="fill:none;stroke:#253494;stroke-width:0.886227;"/>
   </g>
   <g id="LineCollection_35">
    <path clip-path="url(#p19ac46a8fb)" d="M 589.903367 28.886418
L 589.903367 23.025224
" style="fill:none;stroke:#253494;stroke-width:0.886227;"/>
    <path clip-path="url(#p19ac46a8fb)" d="M 667.02115 28.886418
L 667.02115 23.025224
" style="fill:none;stroke:#253494;stroke-width:0.886227;"/>
    <path clip-path="url(#p19ac46a8fb)" d="M 589.903367 25.955821
L 667.02115 25.955821
" style="fill:none;stroke:#253494;stroke-width:0.886227;"/>
   </g>
   <g id="LineCollection_36">
    <path clip-path="url(#p19ac46a8fb)" d="M 574.982448 52.331194
L 574.982448 46.47
" style="fill:none;stroke:#253494;stroke-width:0.886227;"/>
    <path clip-path="url(#p19ac46a8fb)" d="M 652.100235 52.331194
L 652.100235 46.47
" style="fill:none;stroke:#253494;stroke-width:0.886227;"/>
    <path clip-path="url(#p19ac46a8fb)" d="M 574.982448 49.400597
L 652.100235 49.400597
" style="fill:none;stroke:#253494;stroke-width:0.886227;"/>
   </g>
   <g id="LineCollection_37">
    <path clip-path="url(#p19ac46a8fb)" d="M 582.637801 40.608806
L 582.637801 34.747612
" style="fill:none;stroke:#253494;stroke-width:0.886227;"/>
    <path clip-path="url(#p19ac46a8fb)" d="M 659.755586 40.608806
L 659.755586 34.747612
" style="fill:none;stroke:#253494;stroke-width:0.886227;"/>
    <path clip-path="url(#p19ac46a8fb)" d="M 582.637801 37.678209
L 659.755586 37.678209
" style="fill:none;stroke:#253494;stroke-width:0.886227;"/>
   </g>
   <g id="LineCollection_38">
    <path clip-path="url(#p19ac46a8fb)" d="M 473.866479 110.943134
L 473.866479 105.08194
" style="fill:none;stroke:#253494;stroke-width:0.886227;"/>
    <path clip-path="url(#p19ac46a8fb)" d="M 476.224301 110.943134
L 476.224301 105.08194
" style="fill:none;stroke:#253494;stroke-width:0.886227;"/>
    <path clip-path="url(#p19ac46a8fb)" d="M 473.866479 108.012537
L 476.224301 108.012537
" style="fill:none;stroke:#253494;stroke-width:0.886227;"/>
   </g>
   <g id="LineCollection_39">
    <path clip-path="url(#p19ac46a8fb)" d="M 450.834601 146.110299
L 450.834601 140.249104
" style="fill:none;stroke:#253494;stroke-width:0.886227;"/>
    <path clip-path="url(#p19ac46a8fb)" d="M 452.043412 146.110299
L 452.043412 140.249104
" style="fill:none;stroke:#253494;stroke-width:0.886227;"/>
    <path clip-path="url(#p19ac46a8fb)" d="M 450.834601 143.179701
L 452.043412 143.179701
" style="fill:none;stroke:#253494;stroke-width:0.886227;"/>
   </g>
   <g id="LineCollection_40">
    <path clip-path="url(#p19ac46a8fb)" d="M 450.693568 157.832687
L 450.693568 151.971493
" style="fill:none;stroke:#253494;stroke-width:0.886227;"/>
    <path clip-path="url(#p19ac46a8fb)" d="M 451.904465 157.832687
L 451.904465 151.971493
" style="fill:none;stroke:#253494;stroke-width:0.886227;"/>
    <path clip-path="url(#p19ac46a8fb)" d="M 450.693568 154.90209
L 451.904465 154.90209
" style="fill:none;stroke:#253494;stroke-width:0.886227;"/>
   </g>
   <g id="LineCollection_41">
    <path clip-path="url(#p19ac46a8fb)" d="M 350.711993 478.44
L 350.711993 7.2
" style="fill:none;stroke:#808080;stroke-dasharray:3.27904,1.417963;stroke-dashoffset:0;stroke-width:0.886227;"/>
   </g>
   <g id="patch_3">
    <path d="M 90.9963 478.44
L 90.9963 7.2
" style="fill:none;stroke:#262626;stroke-linecap:square;stroke-linejoin:miter;"/>
   </g>
   <g id="patch_4">
    <path d="M 704.7963 478.44
L 704.7963 7.2
" style="fill:none;stroke:#262626;stroke-linecap:square;stroke-linejoin:miter;"/>
   </g>
   <g id="patch_5">
    <path d="M 90.9963 478.44
L 704.7963 478.44
" style="fill:none;stroke:#262626;stroke-linecap:square;stroke-linejoin:miter;"/>
   </g>
   <g id="patch_6">
    <path d="M 90.9963 7.2
L 704.7963 7.2
" style="fill:none;stroke:#262626;stroke-linecap:square;stroke-linejoin:miter;"/>
   </g>
   <g id="LineCollection_42">
    <path clip-path="url(#p19ac46a8fb)" d="M 418.893079 465.545373
L 582.527685 465.545373
" style="fill:none;stroke:#000000;stroke-width:0.886227;"/>
   </g>
   <g id="PathCollection_1">
    <defs>
     <path d="M 576.292302 -59.407802
L 582.527685 -63.007802
L 576.292302 -66.607802
" id="mb6ef536c16" style="stroke:#000000;stroke-width:0.886227;"/>
    </defs>
    <g clip-path="url(#p19ac46a8fb)">
     <use style="fill-opacity:0;stroke:#000000;stroke-width:0.886227;" x="0" xlink:href="#mb6ef536c16" y="528.553175"/>
    </g>
   </g>
   <g id="text_46">
    <g clip-path="url(#p19ac46a8fb)">
     <!-- PMC Enriched -->
     <defs>
      <path d="M 7.90625 0
L 7.90625 71.578125
L 59.671875 71.578125
L 59.671875 63.140625
L 17.390625 63.140625
L 17.390625 41.21875
L 56.984375 41.21875
L 56.984375 32.8125
L 17.390625 32.8125
L 17.390625 8.453125
L 61.328125 8.453125
L 61.328125 0
z
" id="ArialMT-69"/>
     </defs>
     <g style="opacity:0.698039;" transform="translate(434.758572 456.925173)scale(0.12 -0.12)">
      <use xlink:href="#ArialMT-80"/>
      <use x="66.699219" xlink:href="#ArialMT-77"/>
      <use x="150" xlink:href="#ArialMT-67"/>
      <use x="222.216797" xlink:href="#ArialMT-32"/>
      <use x="250" xlink:href="#ArialMT-69"/>
      <use x="316.699219" xlink:href="#ArialMT-110"/>
      <use x="372.314453" xlink:href="#ArialMT-114"/>
      <use x="405.615234" xlink:href="#ArialMT-105"/>
      <use x="427.832031" xlink:href="#ArialMT-99"/>
      <use x="477.832031" xlink:href="#ArialMT-104"/>
      <use x="533.447266" xlink:href="#ArialMT-101"/>
      <use x="589.0625" xlink:href="#ArialMT-100"/>
     </g>
    </g>
   </g>
   <g id="LineCollection_43">
    <path clip-path="url(#p19ac46a8fb)" d="M 282.530907 20.094627
L 118.8963 20.094627
" style="fill:none;stroke:#000000;stroke-width:0.886227;"/>
   </g>
   <g id="PathCollection_2">
    <defs>
     <path d="M 125.131683 -512.058548
L 118.8963 -508.458548
L 125.131683 -504.858548
" id="m29c2f125d4" style="stroke:#000000;stroke-width:0.886227;"/>
    </defs>
    <g clip-path="url(#p19ac46a8fb)">
     <use style="fill-opacity:0;stroke:#000000;stroke-width:0.886227;" x="0" xlink:href="#m29c2f125d4" y="528.553175"/>
    </g>
   </g>
   <g id="text_47">
    <g clip-path="url(#p19ac46a8fb)">
     <!-- NYTAC Enriched -->
     <g style="opacity:0.698039;" transform="translate(182.311038 34.919202)scale(0.12 -0.12)">
      <use xlink:href="#ArialMT-78"/>
      <use x="72.216797" xlink:href="#ArialMT-89"/>
      <use x="138.916016" xlink:href="#ArialMT-84"/>
      <use x="199.890625" xlink:href="#ArialMT-65"/>
      <use x="266.589844" xlink:href="#ArialMT-67"/>
      <use x="338.806641" xlink:href="#ArialMT-32"/>
      <use x="366.589844" xlink:href="#ArialMT-69"/>
      <use x="433.289062" xlink:href="#ArialMT-110"/>
      <use x="488.904297" xlink:href="#ArialMT-114"/>
      <use x="522.205078" xlink:href="#ArialMT-105"/>
      <use x="544.421875" xlink:href="#ArialMT-99"/>
      <use x="594.421875" xlink:href="#ArialMT-104"/>
      <use x="650.037109" xlink:href="#ArialMT-101"/>
      <use x="705.652344" xlink:href="#ArialMT-100"/>
     </g>
    </g>
   </g>
  </g>
 </g>
 <defs>
  <clipPath id="p19ac46a8fb">
   <rect height="471.24" width="613.8" x="90.9963" y="7.2"/>
  </clipPath>
 </defs>
</svg>
