<?xml version="1.0" encoding="utf-8" standalone="no"?>
<!DOCTYPE svg PUBLIC "-//W3C//DTD SVG 1.1//EN"
  "http://www.w3.org/Graphics/SVG/1.1/DTD/svg11.dtd">
<!-- Created with matplotlib (https://matplotlib.org/) -->
<svg height="378.009163pt" version="1.1" viewBox="0 0 643.087188 378.009163" width="643.087188pt" xmlns="http://www.w3.org/2000/svg" xmlns:xlink="http://www.w3.org/1999/xlink">
 <defs>
  <style type="text/css">
*{stroke-linecap:butt;stroke-linejoin:round;}
  </style>
 </defs>
 <g id="figure_1">
  <g id="patch_1">
   <path d="M 0 378.009163 
L 643.087188 378.009163 
L 643.087188 0 
L 0 0 
z
" style="fill:#ffffff;"/>
  </g>
  <g id="axes_1">
   <g id="patch_2">
    <path d="M 77.887188 339.84 
L 635.887187 339.84 
L 635.887187 7.2 
L 77.887188 7.2 
z
" style="fill:#ffffff;"/>
   </g>
   <g id="matplotlib.axis_1">
    <g id="xtick_1">
     <g id="line2d_1">
      <defs>
       <path d="M 0 0 
L 0 4.8 
" id="mfa023639a6" style="stroke:#262626;"/>
      </defs>
      <g>
       <use style="fill:#262626;stroke:#262626;" x="187.796278" xlink:href="#mfa023639a6" y="339.84"/>
      </g>
     </g>
     <g id="text_1">
      <!-- −2 -->
      <defs>
       <path d="M 52.828125 31.203125 
L 5.5625 31.203125 
L 5.5625 39.40625 
L 52.828125 39.40625 
z
" id="ArialMT-8722"/>
       <path d="M 50.34375 8.453125 
L 50.34375 0 
L 3.03125 0 
Q 2.9375 3.171875 4.046875 6.109375 
Q 5.859375 10.9375 9.828125 15.625 
Q 13.8125 20.3125 21.34375 26.46875 
Q 33.015625 36.03125 37.109375 41.625 
Q 41.21875 47.21875 41.21875 52.203125 
Q 41.21875 57.421875 37.46875 61 
Q 33.734375 64.59375 27.734375 64.59375 
Q 21.390625 64.59375 17.578125 60.78125 
Q 13.765625 56.984375 13.71875 50.25 
L 4.6875 51.171875 
Q 5.609375 61.28125 11.65625 66.578125 
Q 17.71875 71.875 27.9375 71.875 
Q 38.234375 71.875 44.234375 66.15625 
Q 50.25 60.453125 50.25 52 
Q 50.25 47.703125 48.484375 43.546875 
Q 46.734375 39.40625 42.65625 34.8125 
Q 38.578125 30.21875 29.109375 22.21875 
Q 21.1875 15.578125 18.9375 13.203125 
Q 16.703125 10.84375 15.234375 8.453125 
z
" id="ArialMT-50"/>
      </defs>
      <g style="fill:#262626;" transform="translate(182.277922 353.968762)scale(0.0968 -0.0968)">
       <use xlink:href="#ArialMT-8722"/>
       <use x="58.398438" xlink:href="#ArialMT-50"/>
      </g>
     </g>
    </g>
    <g id="xtick_2">
     <g id="line2d_2">
      <g>
       <use style="fill:#262626;stroke:#262626;" x="356.887187" xlink:href="#mfa023639a6" y="339.84"/>
      </g>
     </g>
     <g id="text_2">
      <!-- 0 -->
      <defs>
       <path d="M 4.15625 35.296875 
Q 4.15625 48 6.765625 55.734375 
Q 9.375 63.484375 14.515625 67.671875 
Q 19.671875 71.875 27.484375 71.875 
Q 33.25 71.875 37.59375 69.546875 
Q 41.9375 67.234375 44.765625 62.859375 
Q 47.609375 58.5 49.21875 52.21875 
Q 50.828125 45.953125 50.828125 35.296875 
Q 50.828125 22.703125 48.234375 14.96875 
Q 45.65625 7.234375 40.5 3 
Q 35.359375 -1.21875 27.484375 -1.21875 
Q 17.140625 -1.21875 11.234375 6.203125 
Q 4.15625 15.140625 4.15625 35.296875 
z
M 13.1875 35.296875 
Q 13.1875 17.671875 17.3125 11.828125 
Q 21.4375 6 27.484375 6 
Q 33.546875 6 37.671875 11.859375 
Q 41.796875 17.71875 41.796875 35.296875 
Q 41.796875 52.984375 37.671875 58.78125 
Q 33.546875 64.59375 27.390625 64.59375 
Q 21.34375 64.59375 17.71875 59.46875 
Q 13.1875 52.9375 13.1875 35.296875 
z
" id="ArialMT-48"/>
      </defs>
      <g style="fill:#262626;" transform="translate(354.195694 353.968762)scale(0.0968 -0.0968)">
       <use xlink:href="#ArialMT-48"/>
      </g>
     </g>
    </g>
    <g id="xtick_3">
     <g id="line2d_3">
      <g>
       <use style="fill:#262626;stroke:#262626;" x="525.978097" xlink:href="#mfa023639a6" y="339.84"/>
      </g>
     </g>
     <g id="text_3">
      <!-- 2 -->
      <g style="fill:#262626;" transform="translate(523.286603 353.968762)scale(0.0968 -0.0968)">
       <use xlink:href="#ArialMT-50"/>
      </g>
     </g>
    </g>
    <g id="xtick_4">
     <g id="line2d_4">
      <defs>
       <path d="M 0 0 
L 0 3.2 
" id="m6478413427" style="stroke:#262626;stroke-width:0.8;"/>
      </defs>
      <g>
       <use style="fill:#262626;stroke:#262626;stroke-width:0.8;" x="103.250824" xlink:href="#m6478413427" y="339.84"/>
      </g>
     </g>
    </g>
    <g id="xtick_5">
     <g id="line2d_5">
      <g>
       <use style="fill:#262626;stroke:#262626;stroke-width:0.8;" x="272.341733" xlink:href="#m6478413427" y="339.84"/>
      </g>
     </g>
    </g>
    <g id="xtick_6">
     <g id="line2d_6">
      <g>
       <use style="fill:#262626;stroke:#262626;stroke-width:0.8;" x="441.432642" xlink:href="#m6478413427" y="339.84"/>
      </g>
     </g>
    </g>
    <g id="xtick_7">
     <g id="line2d_7">
      <g>
       <use style="fill:#262626;stroke:#262626;stroke-width:0.8;" x="610.523551" xlink:href="#m6478413427" y="339.84"/>
      </g>
     </g>
    </g>
    <g id="text_4">
     <!-- Preprint vs Published log2(Odds Ratio) -->
     <defs>
      <path d="M 7.71875 0 
L 7.71875 71.578125 
L 34.71875 71.578125 
Q 41.84375 71.578125 45.609375 70.90625 
Q 50.875 70.015625 54.4375 67.546875 
Q 58.015625 65.09375 60.1875 60.640625 
Q 62.359375 56.203125 62.359375 50.875 
Q 62.359375 41.75 56.546875 35.421875 
Q 50.734375 29.109375 35.546875 29.109375 
L 17.1875 29.109375 
L 17.1875 0 
z
M 17.1875 37.546875 
L 35.6875 37.546875 
Q 44.875 37.546875 48.734375 40.96875 
Q 52.59375 44.390625 52.59375 50.59375 
Q 52.59375 55.078125 50.3125 58.265625 
Q 48.046875 61.46875 44.34375 62.5 
Q 41.9375 63.140625 35.5 63.140625 
L 17.1875 63.140625 
z
" id="ArialMT-80"/>
      <path d="M 6.5 0 
L 6.5 51.859375 
L 14.40625 51.859375 
L 14.40625 44 
Q 17.4375 49.515625 20 51.265625 
Q 22.5625 53.03125 25.640625 53.03125 
Q 30.078125 53.03125 34.671875 50.203125 
L 31.640625 42.046875 
Q 28.421875 43.953125 25.203125 43.953125 
Q 22.3125 43.953125 20.015625 42.21875 
Q 17.71875 40.484375 16.75 37.40625 
Q 15.28125 32.71875 15.28125 27.15625 
L 15.28125 0 
z
" id="ArialMT-114"/>
      <path d="M 42.09375 16.703125 
L 51.171875 15.578125 
Q 49.03125 7.625 43.21875 3.21875 
Q 37.40625 -1.171875 28.375 -1.171875 
Q 17 -1.171875 10.328125 5.828125 
Q 3.65625 12.84375 3.65625 25.484375 
Q 3.65625 38.578125 10.390625 45.796875 
Q 17.140625 53.03125 27.875 53.03125 
Q 38.28125 53.03125 44.875 45.953125 
Q 51.46875 38.875 51.46875 26.03125 
Q 51.46875 25.25 51.421875 23.6875 
L 12.75 23.6875 
Q 13.234375 15.140625 17.578125 10.59375 
Q 21.921875 6.0625 28.421875 6.0625 
Q 33.25 6.0625 36.671875 8.59375 
Q 40.09375 11.140625 42.09375 16.703125 
z
M 13.234375 30.90625 
L 42.1875 30.90625 
Q 41.609375 37.453125 38.875 40.71875 
Q 34.671875 45.796875 27.984375 45.796875 
Q 21.921875 45.796875 17.796875 41.75 
Q 13.671875 37.703125 13.234375 30.90625 
z
" id="ArialMT-101"/>
      <path d="M 6.59375 -19.875 
L 6.59375 51.859375 
L 14.59375 51.859375 
L 14.59375 45.125 
Q 17.4375 49.078125 21 51.046875 
Q 24.5625 53.03125 29.640625 53.03125 
Q 36.28125 53.03125 41.359375 49.609375 
Q 46.4375 46.1875 49.015625 39.953125 
Q 51.609375 33.734375 51.609375 26.3125 
Q 51.609375 18.359375 48.75 11.984375 
Q 45.90625 5.609375 40.453125 2.21875 
Q 35.015625 -1.171875 29 -1.171875 
Q 24.609375 -1.171875 21.109375 0.6875 
Q 17.625 2.546875 15.375 5.375 
L 15.375 -19.875 
z
M 14.546875 25.640625 
Q 14.546875 15.625 18.59375 10.84375 
Q 22.65625 6.0625 28.421875 6.0625 
Q 34.28125 6.0625 38.453125 11.015625 
Q 42.625 15.96875 42.625 26.375 
Q 42.625 36.28125 38.546875 41.203125 
Q 34.46875 46.140625 28.8125 46.140625 
Q 23.1875 46.140625 18.859375 40.890625 
Q 14.546875 35.640625 14.546875 25.640625 
z
" id="ArialMT-112"/>
      <path d="M 6.640625 61.46875 
L 6.640625 71.578125 
L 15.4375 71.578125 
L 15.4375 61.46875 
z
M 6.640625 0 
L 6.640625 51.859375 
L 15.4375 51.859375 
L 15.4375 0 
z
" id="ArialMT-105"/>
      <path d="M 6.59375 0 
L 6.59375 51.859375 
L 14.5 51.859375 
L 14.5 44.484375 
Q 20.21875 53.03125 31 53.03125 
Q 35.6875 53.03125 39.625 51.34375 
Q 43.5625 49.65625 45.515625 46.921875 
Q 47.46875 44.1875 48.25 40.4375 
Q 48.734375 37.984375 48.734375 31.890625 
L 48.734375 0 
L 39.9375 0 
L 39.9375 31.546875 
Q 39.9375 36.921875 38.90625 39.578125 
Q 37.890625 42.234375 35.28125 43.8125 
Q 32.671875 45.40625 29.15625 45.40625 
Q 23.53125 45.40625 19.453125 41.84375 
Q 15.375 38.28125 15.375 28.328125 
L 15.375 0 
z
" id="ArialMT-110"/>
      <path d="M 25.78125 7.859375 
L 27.046875 0.09375 
Q 23.34375 -0.6875 20.40625 -0.6875 
Q 15.625 -0.6875 12.984375 0.828125 
Q 10.359375 2.34375 9.28125 4.8125 
Q 8.203125 7.28125 8.203125 15.1875 
L 8.203125 45.015625 
L 1.765625 45.015625 
L 1.765625 51.859375 
L 8.203125 51.859375 
L 8.203125 64.703125 
L 16.9375 69.96875 
L 16.9375 51.859375 
L 25.78125 51.859375 
L 25.78125 45.015625 
L 16.9375 45.015625 
L 16.9375 14.703125 
Q 16.9375 10.9375 17.40625 9.859375 
Q 17.875 8.796875 18.921875 8.15625 
Q 19.96875 7.515625 21.921875 7.515625 
Q 23.390625 7.515625 25.78125 7.859375 
z
" id="ArialMT-116"/>
      <path id="ArialMT-32"/>
      <path d="M 21 0 
L 1.265625 51.859375 
L 10.546875 51.859375 
L 21.6875 20.796875 
Q 23.484375 15.765625 25 10.359375 
Q 26.171875 14.453125 28.265625 20.21875 
L 39.796875 51.859375 
L 48.828125 51.859375 
L 29.203125 0 
z
" id="ArialMT-118"/>
      <path d="M 3.078125 15.484375 
L 11.765625 16.84375 
Q 12.5 11.625 15.84375 8.84375 
Q 19.1875 6.0625 25.203125 6.0625 
Q 31.25 6.0625 34.171875 8.515625 
Q 37.109375 10.984375 37.109375 14.3125 
Q 37.109375 17.28125 34.515625 19 
Q 32.71875 20.171875 25.53125 21.96875 
Q 15.875 24.421875 12.140625 26.203125 
Q 8.40625 27.984375 6.46875 31.125 
Q 4.546875 34.28125 4.546875 38.09375 
Q 4.546875 41.546875 6.125 44.5 
Q 7.71875 47.46875 10.453125 49.421875 
Q 12.5 50.921875 16.03125 51.96875 
Q 19.578125 53.03125 23.640625 53.03125 
Q 29.734375 53.03125 34.34375 51.265625 
Q 38.96875 49.515625 41.15625 46.5 
Q 43.359375 43.5 44.1875 38.484375 
L 35.59375 37.3125 
Q 35.015625 41.3125 32.203125 43.546875 
Q 29.390625 45.796875 24.265625 45.796875 
Q 18.21875 45.796875 15.625 43.796875 
Q 13.03125 41.796875 13.03125 39.109375 
Q 13.03125 37.40625 14.109375 36.03125 
Q 15.1875 34.625 17.484375 33.6875 
Q 18.796875 33.203125 25.25 31.453125 
Q 34.578125 28.953125 38.25 27.359375 
Q 41.9375 25.78125 44.03125 22.75 
Q 46.140625 19.734375 46.140625 15.234375 
Q 46.140625 10.84375 43.578125 6.953125 
Q 41.015625 3.078125 36.171875 0.953125 
Q 31.34375 -1.171875 25.25 -1.171875 
Q 15.140625 -1.171875 9.84375 3.03125 
Q 4.546875 7.234375 3.078125 15.484375 
z
" id="ArialMT-115"/>
      <path d="M 40.578125 0 
L 40.578125 7.625 
Q 34.515625 -1.171875 24.125 -1.171875 
Q 19.53125 -1.171875 15.546875 0.578125 
Q 11.578125 2.34375 9.640625 5 
Q 7.71875 7.671875 6.9375 11.53125 
Q 6.390625 14.109375 6.390625 19.734375 
L 6.390625 51.859375 
L 15.1875 51.859375 
L 15.1875 23.09375 
Q 15.1875 16.21875 15.71875 13.8125 
Q 16.546875 10.359375 19.234375 8.375 
Q 21.921875 6.390625 25.875 6.390625 
Q 29.828125 6.390625 33.296875 8.421875 
Q 36.765625 10.453125 38.203125 13.9375 
Q 39.65625 17.4375 39.65625 24.078125 
L 39.65625 51.859375 
L 48.4375 51.859375 
L 48.4375 0 
z
" id="ArialMT-117"/>
      <path d="M 14.703125 0 
L 6.546875 0 
L 6.546875 71.578125 
L 15.328125 71.578125 
L 15.328125 46.046875 
Q 20.90625 53.03125 29.546875 53.03125 
Q 34.328125 53.03125 38.59375 51.09375 
Q 42.875 49.171875 45.625 45.671875 
Q 48.390625 42.1875 49.953125 37.25 
Q 51.515625 32.328125 51.515625 26.703125 
Q 51.515625 13.375 44.921875 6.09375 
Q 38.328125 -1.171875 29.109375 -1.171875 
Q 19.921875 -1.171875 14.703125 6.5 
z
M 14.59375 26.3125 
Q 14.59375 17 17.140625 12.84375 
Q 21.296875 6.0625 28.375 6.0625 
Q 34.125 6.0625 38.328125 11.0625 
Q 42.53125 16.0625 42.53125 25.984375 
Q 42.53125 36.140625 38.5 40.96875 
Q 34.46875 45.796875 28.765625 45.796875 
Q 23 45.796875 18.796875 40.796875 
Q 14.59375 35.796875 14.59375 26.3125 
z
" id="ArialMT-98"/>
      <path d="M 6.390625 0 
L 6.390625 71.578125 
L 15.1875 71.578125 
L 15.1875 0 
z
" id="ArialMT-108"/>
      <path d="M 6.59375 0 
L 6.59375 71.578125 
L 15.375 71.578125 
L 15.375 45.90625 
Q 21.53125 53.03125 30.90625 53.03125 
Q 36.671875 53.03125 40.921875 50.75 
Q 45.171875 48.484375 47 44.484375 
Q 48.828125 40.484375 48.828125 32.859375 
L 48.828125 0 
L 40.046875 0 
L 40.046875 32.859375 
Q 40.046875 39.453125 37.1875 42.453125 
Q 34.328125 45.453125 29.109375 45.453125 
Q 25.203125 45.453125 21.75 43.421875 
Q 18.3125 41.40625 16.84375 37.9375 
Q 15.375 34.46875 15.375 28.375 
L 15.375 0 
z
" id="ArialMT-104"/>
      <path d="M 40.234375 0 
L 40.234375 6.546875 
Q 35.296875 -1.171875 25.734375 -1.171875 
Q 19.53125 -1.171875 14.328125 2.25 
Q 9.125 5.671875 6.265625 11.796875 
Q 3.421875 17.921875 3.421875 25.875 
Q 3.421875 33.640625 6 39.96875 
Q 8.59375 46.296875 13.765625 49.65625 
Q 18.953125 53.03125 25.34375 53.03125 
Q 30.03125 53.03125 33.6875 51.046875 
Q 37.359375 49.078125 39.65625 45.90625 
L 39.65625 71.578125 
L 48.390625 71.578125 
L 48.390625 0 
z
M 12.453125 25.875 
Q 12.453125 15.921875 16.640625 10.984375 
Q 20.84375 6.0625 26.5625 6.0625 
Q 32.328125 6.0625 36.34375 10.765625 
Q 40.375 15.484375 40.375 25.140625 
Q 40.375 35.796875 36.265625 40.765625 
Q 32.171875 45.75 26.171875 45.75 
Q 20.3125 45.75 16.375 40.96875 
Q 12.453125 36.1875 12.453125 25.875 
z
" id="ArialMT-100"/>
      <path d="M 3.328125 25.921875 
Q 3.328125 40.328125 11.328125 47.265625 
Q 18.015625 53.03125 27.640625 53.03125 
Q 38.328125 53.03125 45.109375 46.015625 
Q 51.90625 39.015625 51.90625 26.65625 
Q 51.90625 16.65625 48.90625 10.90625 
Q 45.90625 5.171875 40.15625 2 
Q 34.421875 -1.171875 27.640625 -1.171875 
Q 16.75 -1.171875 10.03125 5.8125 
Q 3.328125 12.796875 3.328125 25.921875 
z
M 12.359375 25.921875 
Q 12.359375 15.96875 16.703125 11.015625 
Q 21.046875 6.0625 27.640625 6.0625 
Q 34.1875 6.0625 38.53125 11.03125 
Q 42.875 16.015625 42.875 26.21875 
Q 42.875 35.84375 38.5 40.796875 
Q 34.125 45.75 27.640625 45.75 
Q 21.046875 45.75 16.703125 40.8125 
Q 12.359375 35.890625 12.359375 25.921875 
z
" id="ArialMT-111"/>
      <path d="M 4.984375 -4.296875 
L 13.53125 -5.5625 
Q 14.0625 -9.515625 16.5 -11.328125 
Q 19.78125 -13.765625 25.4375 -13.765625 
Q 31.546875 -13.765625 34.859375 -11.328125 
Q 38.1875 -8.890625 39.359375 -4.5 
Q 40.046875 -1.8125 39.984375 6.78125 
Q 34.234375 0 25.640625 0 
Q 14.9375 0 9.078125 7.71875 
Q 3.21875 15.4375 3.21875 26.21875 
Q 3.21875 33.640625 5.90625 39.90625 
Q 8.59375 46.1875 13.6875 49.609375 
Q 18.796875 53.03125 25.6875 53.03125 
Q 34.859375 53.03125 40.828125 45.609375 
L 40.828125 51.859375 
L 48.921875 51.859375 
L 48.921875 7.03125 
Q 48.921875 -5.078125 46.453125 -10.125 
Q 44 -15.1875 38.640625 -18.109375 
Q 33.296875 -21.046875 25.484375 -21.046875 
Q 16.21875 -21.046875 10.5 -16.875 
Q 4.78125 -12.703125 4.984375 -4.296875 
z
M 12.25 26.859375 
Q 12.25 16.65625 16.296875 11.96875 
Q 20.359375 7.28125 26.46875 7.28125 
Q 32.515625 7.28125 36.609375 11.9375 
Q 40.71875 16.609375 40.71875 26.5625 
Q 40.71875 36.078125 36.5 40.90625 
Q 32.28125 45.75 26.3125 45.75 
Q 20.453125 45.75 16.34375 40.984375 
Q 12.25 36.234375 12.25 26.859375 
z
" id="ArialMT-103"/>
      <path d="M 23.390625 -21.046875 
Q 16.109375 -11.859375 11.078125 0.4375 
Q 6.0625 12.75 6.0625 25.921875 
Q 6.0625 37.546875 9.8125 48.1875 
Q 14.203125 60.546875 23.390625 72.796875 
L 29.6875 72.796875 
Q 23.78125 62.640625 21.875 58.296875 
Q 18.890625 51.5625 17.1875 44.234375 
Q 15.09375 35.109375 15.09375 25.875 
Q 15.09375 2.390625 29.6875 -21.046875 
z
" id="ArialMT-40"/>
      <path d="M 4.828125 34.859375 
Q 4.828125 52.6875 14.390625 62.765625 
Q 23.96875 72.859375 39.109375 72.859375 
Q 49.03125 72.859375 56.984375 68.109375 
Q 64.9375 63.375 69.109375 54.90625 
Q 73.296875 46.4375 73.296875 35.6875 
Q 73.296875 24.8125 68.890625 16.21875 
Q 64.5 7.625 56.4375 3.203125 
Q 48.390625 -1.21875 39.0625 -1.21875 
Q 28.953125 -1.21875 20.984375 3.65625 
Q 13.03125 8.546875 8.921875 16.984375 
Q 4.828125 25.4375 4.828125 34.859375 
z
M 14.59375 34.71875 
Q 14.59375 21.78125 21.546875 14.328125 
Q 28.515625 6.890625 39.015625 6.890625 
Q 49.703125 6.890625 56.609375 14.40625 
Q 63.53125 21.921875 63.53125 35.75 
Q 63.53125 44.484375 60.578125 51 
Q 57.625 57.515625 51.921875 61.109375 
Q 46.234375 64.703125 39.15625 64.703125 
Q 29.109375 64.703125 21.84375 57.78125 
Q 14.59375 50.875 14.59375 34.71875 
z
" id="ArialMT-79"/>
      <path d="M 7.859375 0 
L 7.859375 71.578125 
L 39.59375 71.578125 
Q 49.171875 71.578125 54.140625 69.640625 
Q 59.125 67.71875 62.109375 62.828125 
Q 65.09375 57.953125 65.09375 52.046875 
Q 65.09375 44.4375 60.15625 39.203125 
Q 55.21875 33.984375 44.921875 32.5625 
Q 48.6875 30.765625 50.640625 29 
Q 54.78125 25.203125 58.5 19.484375 
L 70.953125 0 
L 59.03125 0 
L 49.5625 14.890625 
Q 45.40625 21.34375 42.71875 24.75 
Q 40.046875 28.171875 37.921875 29.53125 
Q 35.796875 30.90625 33.59375 31.453125 
Q 31.984375 31.78125 28.328125 31.78125 
L 17.328125 31.78125 
L 17.328125 0 
z
M 17.328125 39.984375 
L 37.703125 39.984375 
Q 44.1875 39.984375 47.84375 41.328125 
Q 51.515625 42.671875 53.421875 45.625 
Q 55.328125 48.578125 55.328125 52.046875 
Q 55.328125 57.125 51.640625 60.390625 
Q 47.953125 63.671875 39.984375 63.671875 
L 17.328125 63.671875 
z
" id="ArialMT-82"/>
      <path d="M 40.4375 6.390625 
Q 35.546875 2.25 31.03125 0.53125 
Q 26.515625 -1.171875 21.34375 -1.171875 
Q 12.796875 -1.171875 8.203125 3 
Q 3.609375 7.171875 3.609375 13.671875 
Q 3.609375 17.484375 5.34375 20.625 
Q 7.078125 23.78125 9.890625 25.6875 
Q 12.703125 27.59375 16.21875 28.5625 
Q 18.796875 29.25 24.03125 29.890625 
Q 34.671875 31.15625 39.703125 32.90625 
Q 39.75 34.71875 39.75 35.203125 
Q 39.75 40.578125 37.25 42.78125 
Q 33.890625 45.75 27.25 45.75 
Q 21.046875 45.75 18.09375 43.578125 
Q 15.140625 41.40625 13.71875 35.890625 
L 5.125 37.0625 
Q 6.296875 42.578125 8.984375 45.96875 
Q 11.671875 49.359375 16.75 51.1875 
Q 21.828125 53.03125 28.515625 53.03125 
Q 35.15625 53.03125 39.296875 51.46875 
Q 43.453125 49.90625 45.40625 47.53125 
Q 47.359375 45.171875 48.140625 41.546875 
Q 48.578125 39.3125 48.578125 33.453125 
L 48.578125 21.734375 
Q 48.578125 9.46875 49.140625 6.21875 
Q 49.703125 2.984375 51.375 0 
L 42.1875 0 
Q 40.828125 2.734375 40.4375 6.390625 
z
M 39.703125 26.03125 
Q 34.90625 24.078125 25.34375 22.703125 
Q 19.921875 21.921875 17.671875 20.9375 
Q 15.4375 19.96875 14.203125 18.09375 
Q 12.984375 16.21875 12.984375 13.921875 
Q 12.984375 10.40625 15.640625 8.0625 
Q 18.3125 5.71875 23.4375 5.71875 
Q 28.515625 5.71875 32.46875 7.9375 
Q 36.421875 10.15625 38.28125 14.015625 
Q 39.703125 17 39.703125 22.796875 
z
" id="ArialMT-97"/>
      <path d="M 12.359375 -21.046875 
L 6.0625 -21.046875 
Q 20.65625 2.390625 20.65625 25.875 
Q 20.65625 35.0625 18.5625 44.09375 
Q 16.890625 51.421875 13.921875 58.15625 
Q 12.015625 62.546875 6.0625 72.796875 
L 12.359375 72.796875 
Q 21.53125 60.546875 25.921875 48.1875 
Q 29.6875 37.546875 29.6875 25.921875 
Q 29.6875 12.75 24.625 0.4375 
Q 19.578125 -11.859375 12.359375 -21.046875 
z
" id="ArialMT-41"/>
     </defs>
     <g style="fill:#262626;" transform="translate(256.621562 368.586613)scale(0.1056 -0.1056)">
      <use xlink:href="#ArialMT-80"/>
      <use x="66.699219" xlink:href="#ArialMT-114"/>
      <use x="100" xlink:href="#ArialMT-101"/>
      <use x="155.615234" xlink:href="#ArialMT-112"/>
      <use x="211.230469" xlink:href="#ArialMT-114"/>
      <use x="244.53125" xlink:href="#ArialMT-105"/>
      <use x="266.748047" xlink:href="#ArialMT-110"/>
      <use x="322.363281" xlink:href="#ArialMT-116"/>
      <use x="350.146484" xlink:href="#ArialMT-32"/>
      <use x="377.929688" xlink:href="#ArialMT-118"/>
      <use x="427.929688" xlink:href="#ArialMT-115"/>
      <use x="477.929688" xlink:href="#ArialMT-32"/>
      <use x="505.712891" xlink:href="#ArialMT-80"/>
      <use x="572.412109" xlink:href="#ArialMT-117"/>
      <use x="628.027344" xlink:href="#ArialMT-98"/>
      <use x="683.642578" xlink:href="#ArialMT-108"/>
      <use x="705.859375" xlink:href="#ArialMT-105"/>
      <use x="728.076172" xlink:href="#ArialMT-115"/>
      <use x="778.076172" xlink:href="#ArialMT-104"/>
      <use x="833.691406" xlink:href="#ArialMT-101"/>
      <use x="889.306641" xlink:href="#ArialMT-100"/>
      <use x="944.921875" xlink:href="#ArialMT-32"/>
      <use x="972.705078" xlink:href="#ArialMT-108"/>
      <use x="994.921875" xlink:href="#ArialMT-111"/>
      <use x="1050.537109" xlink:href="#ArialMT-103"/>
      <use x="1106.152344" xlink:href="#ArialMT-50"/>
      <use x="1161.767578" xlink:href="#ArialMT-40"/>
      <use x="1195.068359" xlink:href="#ArialMT-79"/>
      <use x="1272.851562" xlink:href="#ArialMT-100"/>
      <use x="1328.466797" xlink:href="#ArialMT-100"/>
      <use x="1384.082031" xlink:href="#ArialMT-115"/>
      <use x="1434.082031" xlink:href="#ArialMT-32"/>
      <use x="1461.865234" xlink:href="#ArialMT-82"/>
      <use x="1534.082031" xlink:href="#ArialMT-97"/>
      <use x="1589.697266" xlink:href="#ArialMT-116"/>
      <use x="1617.480469" xlink:href="#ArialMT-105"/>
      <use x="1639.697266" xlink:href="#ArialMT-111"/>
      <use x="1695.3125" xlink:href="#ArialMT-41"/>
     </g>
    </g>
   </g>
   <g id="matplotlib.axis_2">
    <g id="ytick_1">
     <g id="line2d_8">
      <defs>
       <path d="M 0 0 
L -4.8 0 
" id="mb0c8f566f5" style="stroke:#262626;"/>
      </defs>
      <g>
       <use style="fill:#262626;stroke:#262626;" x="77.887188" xlink:href="#mb0c8f566f5" y="334.875224"/>
      </g>
     </g>
     <g id="text_5">
      <!-- file -->
      <defs>
       <path d="M 8.6875 0 
L 8.6875 45.015625 
L 0.921875 45.015625 
L 0.921875 51.859375 
L 8.6875 51.859375 
L 8.6875 57.375 
Q 8.6875 62.59375 9.625 65.140625 
Q 10.890625 68.5625 14.078125 70.671875 
Q 17.28125 72.796875 23.046875 72.796875 
Q 26.765625 72.796875 31.25 71.921875 
L 29.9375 64.265625 
Q 27.203125 64.75 24.75 64.75 
Q 20.75 64.75 19.09375 63.03125 
Q 17.4375 61.328125 17.4375 56.640625 
L 17.4375 51.859375 
L 27.546875 51.859375 
L 27.546875 45.015625 
L 17.4375 45.015625 
L 17.4375 0 
z
" id="ArialMT-102"/>
      </defs>
      <g style="fill:#262626;" transform="translate(58.313425 338.339605)scale(0.0968 -0.0968)">
       <use xlink:href="#ArialMT-102"/>
       <use x="27.783203" xlink:href="#ArialMT-105"/>
       <use x="50" xlink:href="#ArialMT-108"/>
       <use x="72.216797" xlink:href="#ArialMT-101"/>
      </g>
     </g>
    </g>
    <g id="ytick_2">
     <g id="line2d_9">
      <g>
       <use style="fill:#262626;stroke:#262626;" x="77.887188" xlink:href="#mb0c8f566f5" y="326.600597"/>
      </g>
     </g>
     <g id="text_6">
      <!-- additional -->
      <g style="fill:#262626;" transform="translate(29.247713 330.064978)scale(0.0968 -0.0968)">
       <use xlink:href="#ArialMT-97"/>
       <use x="55.615234" xlink:href="#ArialMT-100"/>
       <use x="111.230469" xlink:href="#ArialMT-100"/>
       <use x="166.845703" xlink:href="#ArialMT-105"/>
       <use x="189.0625" xlink:href="#ArialMT-116"/>
       <use x="216.845703" xlink:href="#ArialMT-105"/>
       <use x="239.0625" xlink:href="#ArialMT-111"/>
       <use x="294.677734" xlink:href="#ArialMT-110"/>
       <use x="350.292969" xlink:href="#ArialMT-97"/>
       <use x="405.908203" xlink:href="#ArialMT-108"/>
      </g>
     </g>
    </g>
    <g id="ytick_3">
     <g id="line2d_10">
      <g>
       <use style="fill:#262626;stroke:#262626;" x="77.887188" xlink:href="#mb0c8f566f5" y="318.32597"/>
      </g>
     </g>
     <g id="text_7">
      <!-- ± -->
      <defs>
       <path d="M 23.296875 12.703125 
L 23.296875 32.375 
L 3.8125 32.375 
L 3.8125 40.53125 
L 23.296875 40.53125 
L 23.296875 60.015625 
L 31.59375 60.015625 
L 31.59375 40.53125 
L 51.078125 40.53125 
L 51.078125 32.375 
L 31.59375 32.375 
L 31.59375 12.703125 
z
M 51.078125 0 
L 3.8125 0 
L 3.8125 8.203125 
L 51.078125 8.203125 
z
" id="ArialMT-177"/>
      </defs>
      <g style="fill:#262626;" transform="translate(65.373775 321.790351)scale(0.0968 -0.0968)">
       <use xlink:href="#ArialMT-177"/>
      </g>
     </g>
    </g>
    <g id="ytick_4">
     <g id="line2d_11">
      <g>
       <use style="fill:#262626;stroke:#262626;" x="77.887188" xlink:href="#mb0c8f566f5" y="310.051343"/>
      </g>
     </g>
     <g id="text_8">
      <!-- – -->
      <defs>
       <path d="M -0.203125 22.359375 
L -0.203125 29.4375 
L 55.421875 29.4375 
L 55.421875 22.359375 
z
" id="ArialMT-8211"/>
      </defs>
      <g style="fill:#262626;" transform="translate(65.3042 313.515725)scale(0.0968 -0.0968)">
       <use xlink:href="#ArialMT-8211"/>
      </g>
     </g>
    </g>
    <g id="ytick_5">
     <g id="line2d_12">
      <g>
       <use style="fill:#262626;stroke:#262626;" x="77.887188" xlink:href="#mb0c8f566f5" y="301.776716"/>
      </g>
     </g>
     <g id="text_9">
      <!-- supplementary -->
      <defs>
       <path d="M 6.59375 0 
L 6.59375 51.859375 
L 14.453125 51.859375 
L 14.453125 44.578125 
Q 16.890625 48.390625 20.9375 50.703125 
Q 25 53.03125 30.171875 53.03125 
Q 35.9375 53.03125 39.625 50.640625 
Q 43.3125 48.25 44.828125 43.953125 
Q 50.984375 53.03125 60.84375 53.03125 
Q 68.5625 53.03125 72.703125 48.75 
Q 76.859375 44.484375 76.859375 35.59375 
L 76.859375 0 
L 68.109375 0 
L 68.109375 32.671875 
Q 68.109375 37.9375 67.25 40.25 
Q 66.40625 42.578125 64.15625 43.984375 
Q 61.921875 45.40625 58.890625 45.40625 
Q 53.421875 45.40625 49.796875 41.765625 
Q 46.1875 38.140625 46.1875 30.125 
L 46.1875 0 
L 37.40625 0 
L 37.40625 33.6875 
Q 37.40625 39.546875 35.25 42.46875 
Q 33.109375 45.40625 28.21875 45.40625 
Q 24.515625 45.40625 21.359375 43.453125 
Q 18.21875 41.5 16.796875 37.734375 
Q 15.375 33.984375 15.375 26.90625 
L 15.375 0 
z
" id="ArialMT-109"/>
       <path d="M 6.203125 -19.96875 
L 5.21875 -11.71875 
Q 8.109375 -12.5 10.25 -12.5 
Q 13.1875 -12.5 14.9375 -11.515625 
Q 16.703125 -10.546875 17.828125 -8.796875 
Q 18.65625 -7.46875 20.515625 -2.25 
Q 20.75 -1.515625 21.296875 -0.09375 
L 1.609375 51.859375 
L 11.078125 51.859375 
L 21.875 21.828125 
Q 23.96875 16.109375 25.640625 9.8125 
Q 27.15625 15.875 29.25 21.625 
L 40.328125 51.859375 
L 49.125 51.859375 
L 29.390625 -0.875 
Q 26.21875 -9.421875 24.46875 -12.640625 
Q 22.125 -17 19.09375 -19.015625 
Q 16.0625 -21.046875 11.859375 -21.046875 
Q 9.328125 -21.046875 6.203125 -19.96875 
z
" id="ArialMT-121"/>
      </defs>
      <g style="fill:#262626;" transform="translate(7.2 305.241098)scale(0.0968 -0.0968)">
       <use xlink:href="#ArialMT-115"/>
       <use x="50" xlink:href="#ArialMT-117"/>
       <use x="105.615234" xlink:href="#ArialMT-112"/>
       <use x="161.230469" xlink:href="#ArialMT-112"/>
       <use x="216.845703" xlink:href="#ArialMT-108"/>
       <use x="239.0625" xlink:href="#ArialMT-101"/>
       <use x="294.677734" xlink:href="#ArialMT-109"/>
       <use x="377.978516" xlink:href="#ArialMT-101"/>
       <use x="433.59375" xlink:href="#ArialMT-110"/>
       <use x="489.208984" xlink:href="#ArialMT-116"/>
       <use x="516.992188" xlink:href="#ArialMT-97"/>
       <use x="572.607422" xlink:href="#ArialMT-114"/>
       <use x="605.908203" xlink:href="#ArialMT-121"/>
      </g>
     </g>
    </g>
    <g id="ytick_6">
     <g id="line2d_13">
      <g>
       <use style="fill:#262626;stroke:#262626;" x="77.887188" xlink:href="#mb0c8f566f5" y="293.50209"/>
      </g>
     </g>
     <g id="text_10">
      <!-- n -->
      <g style="fill:#262626;" transform="translate(65.3042 296.966471)scale(0.0968 -0.0968)">
       <use xlink:href="#ArialMT-110"/>
      </g>
     </g>
    </g>
    <g id="ytick_7">
     <g id="line2d_14">
      <g>
       <use style="fill:#262626;stroke:#262626;" x="77.887188" xlink:href="#mb0c8f566f5" y="285.227463"/>
      </g>
     </g>
     <g id="text_11">
      <!-- mm -->
      <g style="fill:#262626;" transform="translate(54.560913 288.691844)scale(0.0968 -0.0968)">
       <use xlink:href="#ArialMT-109"/>
       <use x="83.300781" xlink:href="#ArialMT-109"/>
      </g>
     </g>
    </g>
    <g id="ytick_8">
     <g id="line2d_15">
      <g>
       <use style="fill:#262626;stroke:#262626;" x="77.887188" xlink:href="#mb0c8f566f5" y="276.952836"/>
      </g>
     </g>
     <g id="text_12">
      <!-- p -->
      <g style="fill:#262626;" transform="translate(65.3042 280.417217)scale(0.0968 -0.0968)">
       <use xlink:href="#ArialMT-112"/>
      </g>
     </g>
    </g>
    <g id="ytick_9">
     <g id="line2d_16">
      <g>
       <use style="fill:#262626;stroke:#262626;" x="77.887188" xlink:href="#mb0c8f566f5" y="268.678209"/>
      </g>
     </g>
     <g id="text_13">
      <!-- fig -->
      <g style="fill:#262626;" transform="translate(60.4642 272.201578)scale(0.0968 -0.0968)">
       <use xlink:href="#ArialMT-102"/>
       <use x="27.783203" xlink:href="#ArialMT-105"/>
       <use x="50" xlink:href="#ArialMT-103"/>
      </g>
     </g>
    </g>
    <g id="ytick_10">
     <g id="line2d_17">
      <g>
       <use style="fill:#262626;stroke:#262626;" x="77.887188" xlink:href="#mb0c8f566f5" y="260.403582"/>
      </g>
     </g>
     <g id="text_14">
      <!-- data -->
      <g style="fill:#262626;" transform="translate(51.849 263.867963)scale(0.0968 -0.0968)">
       <use xlink:href="#ArialMT-100"/>
       <use x="55.615234" xlink:href="#ArialMT-97"/>
       <use x="111.230469" xlink:href="#ArialMT-116"/>
       <use x="139.013672" xlink:href="#ArialMT-97"/>
      </g>
     </g>
    </g>
    <g id="ytick_11">
     <g id="line2d_18">
      <g>
       <use style="fill:#262626;stroke:#262626;" x="77.887188" xlink:href="#mb0c8f566f5" y="252.128955"/>
      </g>
     </g>
     <g id="text_15">
      <!-- ° -->
      <defs>
       <path d="M 6.25 59.28125 
Q 6.25 64.890625 10.21875 68.84375 
Q 14.203125 72.796875 19.78125 72.796875 
Q 25.4375 72.796875 29.390625 68.84375 
Q 33.34375 64.890625 33.34375 59.28125 
Q 33.34375 53.65625 29.359375 49.671875 
Q 25.390625 45.703125 19.78125 45.703125 
Q 14.203125 45.703125 10.21875 49.65625 
Q 6.25 53.609375 6.25 59.28125 
z
M 11.578125 59.28125 
Q 11.578125 55.859375 13.984375 53.4375 
Q 16.40625 51.03125 19.828125 51.03125 
Q 23.1875 51.03125 25.609375 53.4375 
Q 28.03125 55.859375 28.03125 59.28125 
Q 28.03125 62.703125 25.609375 65.109375 
Q 23.1875 67.53125 19.828125 67.53125 
Q 16.40625 67.53125 13.984375 65.109375 
Q 11.578125 62.703125 11.578125 59.28125 
z
" id="ArialMT-176"/>
      </defs>
      <g style="fill:#262626;" transform="translate(66.8167 255.593336)scale(0.0968 -0.0968)">
       <use xlink:href="#ArialMT-176"/>
      </g>
     </g>
    </g>
    <g id="ytick_12">
     <g id="line2d_19">
      <g>
       <use style="fill:#262626;stroke:#262626;" x="77.887188" xlink:href="#mb0c8f566f5" y="243.854328"/>
      </g>
     </g>
     <g id="text_16">
      <!-- table -->
      <g style="fill:#262626;" transform="translate(49.698225 247.31871)scale(0.0968 -0.0968)">
       <use xlink:href="#ArialMT-116"/>
       <use x="27.783203" xlink:href="#ArialMT-97"/>
       <use x="83.398438" xlink:href="#ArialMT-98"/>
       <use x="139.013672" xlink:href="#ArialMT-108"/>
       <use x="161.230469" xlink:href="#ArialMT-101"/>
      </g>
     </g>
    </g>
    <g id="ytick_13">
     <g id="line2d_20">
      <g>
       <use style="fill:#262626;stroke:#262626;" x="77.887188" xlink:href="#mb0c8f566f5" y="235.579701"/>
      </g>
     </g>
     <g id="text_17">
      <!-- performed -->
      <g style="fill:#262626;" transform="translate(26.573613 239.10307)scale(0.0968 -0.0968)">
       <use xlink:href="#ArialMT-112"/>
       <use x="55.615234" xlink:href="#ArialMT-101"/>
       <use x="111.230469" xlink:href="#ArialMT-114"/>
       <use x="144.53125" xlink:href="#ArialMT-102"/>
       <use x="172.314453" xlink:href="#ArialMT-111"/>
       <use x="227.929688" xlink:href="#ArialMT-114"/>
       <use x="261.230469" xlink:href="#ArialMT-109"/>
       <use x="344.53125" xlink:href="#ArialMT-101"/>
       <use x="400.146484" xlink:href="#ArialMT-100"/>
      </g>
     </g>
    </g>
    <g id="ytick_14">
     <g id="line2d_21">
      <g>
       <use style="fill:#262626;stroke:#262626;" x="77.887188" xlink:href="#mb0c8f566f5" y="227.305075"/>
      </g>
     </g>
     <g id="text_18">
      <!-- values -->
      <g style="fill:#262626;" transform="translate(42.70745 230.769456)scale(0.0968 -0.0968)">
       <use xlink:href="#ArialMT-118"/>
       <use x="50" xlink:href="#ArialMT-97"/>
       <use x="105.615234" xlink:href="#ArialMT-108"/>
       <use x="127.832031" xlink:href="#ArialMT-117"/>
       <use x="183.447266" xlink:href="#ArialMT-101"/>
       <use x="239.0625" xlink:href="#ArialMT-115"/>
      </g>
     </g>
    </g>
    <g id="ytick_15">
     <g id="line2d_22">
      <g>
       <use style="fill:#262626;stroke:#262626;" x="77.887188" xlink:href="#mb0c8f566f5" y="219.030448"/>
      </g>
     </g>
     <g id="text_19">
      <!-- 1 -->
      <defs>
       <path d="M 37.25 0 
L 28.46875 0 
L 28.46875 56 
Q 25.296875 52.984375 20.140625 49.953125 
Q 14.984375 46.921875 10.890625 45.40625 
L 10.890625 53.90625 
Q 18.265625 57.375 23.78125 62.296875 
Q 29.296875 67.234375 31.59375 71.875 
L 37.25 71.875 
z
" id="ArialMT-49"/>
      </defs>
      <g style="fill:#262626;" transform="translate(65.3042 222.494829)scale(0.0968 -0.0968)">
       <use xlink:href="#ArialMT-49"/>
      </g>
     </g>
    </g>
    <g id="ytick_16">
     <g id="line2d_23">
      <g>
       <use style="fill:#262626;stroke:#262626;" x="77.887188" xlink:href="#mb0c8f566f5" y="210.755821"/>
      </g>
     </g>
     <g id="text_20">
      <!-- mean -->
      <g style="fill:#262626;" transform="translate(46.475088 214.220202)scale(0.0968 -0.0968)">
       <use xlink:href="#ArialMT-109"/>
       <use x="83.300781" xlink:href="#ArialMT-101"/>
       <use x="138.916016" xlink:href="#ArialMT-97"/>
       <use x="194.53125" xlink:href="#ArialMT-110"/>
      </g>
     </g>
    </g>
    <g id="ytick_17">
     <g id="line2d_24">
      <g>
       <use style="fill:#262626;stroke:#262626;" x="77.887188" xlink:href="#mb0c8f566f5" y="202.481194"/>
      </g>
     </g>
     <g id="text_21">
      <!-- 10 -->
      <g style="fill:#262626;" transform="translate(59.921213 205.945575)scale(0.0968 -0.0968)">
       <use xlink:href="#ArialMT-49"/>
       <use x="55.615234" xlink:href="#ArialMT-48"/>
      </g>
     </g>
    </g>
    <g id="ytick_18">
     <g id="line2d_25">
      <g>
       <use style="fill:#262626;stroke:#262626;" x="77.887188" xlink:href="#mb0c8f566f5" y="194.206567"/>
      </g>
     </g>
     <g id="text_22">
      <!-- samples -->
      <g style="fill:#262626;" transform="translate(34.644313 197.670948)scale(0.0968 -0.0968)">
       <use xlink:href="#ArialMT-115"/>
       <use x="50" xlink:href="#ArialMT-97"/>
       <use x="105.615234" xlink:href="#ArialMT-109"/>
       <use x="188.916016" xlink:href="#ArialMT-112"/>
       <use x="244.53125" xlink:href="#ArialMT-108"/>
       <use x="266.748047" xlink:href="#ArialMT-101"/>
       <use x="322.363281" xlink:href="#ArialMT-115"/>
      </g>
     </g>
    </g>
    <g id="ytick_19">
     <g id="line2d_26">
      <g>
       <use style="fill:#262626;stroke:#262626;" x="77.887188" xlink:href="#mb0c8f566f5" y="185.93194"/>
      </g>
     </g>
     <g id="text_23">
      <!-- value -->
      <g style="fill:#262626;" transform="translate(47.54745 189.396322)scale(0.0968 -0.0968)">
       <use xlink:href="#ArialMT-118"/>
       <use x="50" xlink:href="#ArialMT-97"/>
       <use x="105.615234" xlink:href="#ArialMT-108"/>
       <use x="127.832031" xlink:href="#ArialMT-117"/>
       <use x="183.447266" xlink:href="#ArialMT-101"/>
      </g>
     </g>
    </g>
    <g id="ytick_20">
     <g id="line2d_27">
      <g>
       <use style="fill:#262626;stroke:#262626;" x="77.887188" xlink:href="#mb0c8f566f5" y="177.657313"/>
      </g>
     </g>
     <g id="text_24">
      <!-- total -->
      <g style="fill:#262626;" transform="translate(52.391988 181.121695)scale(0.0968 -0.0968)">
       <use xlink:href="#ArialMT-116"/>
       <use x="27.783203" xlink:href="#ArialMT-111"/>
       <use x="83.398438" xlink:href="#ArialMT-116"/>
       <use x="111.181641" xlink:href="#ArialMT-97"/>
       <use x="166.796875" xlink:href="#ArialMT-108"/>
      </g>
     </g>
    </g>
    <g id="ytick_21">
     <g id="line2d_28">
      <g>
       <use style="fill:#262626;stroke:#262626;" x="77.887188" xlink:href="#mb0c8f566f5" y="169.382687"/>
      </g>
     </g>
     <g id="text_25">
      <!-- regions -->
      <g style="fill:#262626;" transform="translate(38.941325 172.847068)scale(0.0968 -0.0968)">
       <use xlink:href="#ArialMT-114"/>
       <use x="33.300781" xlink:href="#ArialMT-101"/>
       <use x="88.916016" xlink:href="#ArialMT-103"/>
       <use x="144.53125" xlink:href="#ArialMT-105"/>
       <use x="166.748047" xlink:href="#ArialMT-111"/>
       <use x="222.363281" xlink:href="#ArialMT-110"/>
       <use x="277.978516" xlink:href="#ArialMT-115"/>
      </g>
     </g>
    </g>
    <g id="ytick_22">
     <g id="line2d_29">
      <g>
       <use style="fill:#262626;stroke:#262626;" x="77.887188" xlink:href="#mb0c8f566f5" y="161.10806"/>
      </g>
     </g>
     <g id="text_26">
      <!-- mice -->
      <defs>
       <path d="M 40.4375 19 
L 49.078125 17.875 
Q 47.65625 8.9375 41.8125 3.875 
Q 35.984375 -1.171875 27.484375 -1.171875 
Q 16.84375 -1.171875 10.375 5.78125 
Q 3.90625 12.75 3.90625 25.734375 
Q 3.90625 34.125 6.6875 40.421875 
Q 9.46875 46.734375 15.15625 49.875 
Q 20.84375 53.03125 27.546875 53.03125 
Q 35.984375 53.03125 41.359375 48.75 
Q 46.734375 44.484375 48.25 36.625 
L 39.703125 35.296875 
Q 38.484375 40.53125 35.375 43.15625 
Q 32.28125 45.796875 27.875 45.796875 
Q 21.234375 45.796875 17.078125 41.03125 
Q 12.9375 36.28125 12.9375 25.984375 
Q 12.9375 15.53125 16.9375 10.796875 
Q 20.953125 6.0625 27.390625 6.0625 
Q 32.5625 6.0625 36.03125 9.234375 
Q 39.5 12.40625 40.4375 19 
z
" id="ArialMT-99"/>
      </defs>
      <g style="fill:#262626;" transform="translate(50.250288 164.572441)scale(0.0968 -0.0968)">
       <use xlink:href="#ArialMT-109"/>
       <use x="83.300781" xlink:href="#ArialMT-105"/>
       <use x="105.517578" xlink:href="#ArialMT-99"/>
       <use x="155.517578" xlink:href="#ArialMT-101"/>
      </g>
     </g>
    </g>
    <g id="ytick_23">
     <g id="line2d_30">
      <g>
       <use style="fill:#262626;stroke:#262626;" x="77.887188" xlink:href="#mb0c8f566f5" y="152.833433"/>
      </g>
     </g>
     <g id="text_27">
      <!-- human -->
      <g style="fill:#262626;" transform="translate(41.0921 156.297814)scale(0.0968 -0.0968)">
       <use xlink:href="#ArialMT-104"/>
       <use x="55.615234" xlink:href="#ArialMT-117"/>
       <use x="111.230469" xlink:href="#ArialMT-109"/>
       <use x="194.53125" xlink:href="#ArialMT-97"/>
       <use x="250.146484" xlink:href="#ArialMT-110"/>
      </g>
     </g>
    </g>
    <g id="ytick_24">
     <g id="line2d_31">
      <g>
       <use style="fill:#262626;stroke:#262626;" x="77.887188" xlink:href="#mb0c8f566f5" y="144.558806"/>
      </g>
     </g>
     <g id="text_28">
      <!-- specific -->
      <g style="fill:#262626;" transform="translate(38.410438 148.082175)scale(0.0968 -0.0968)">
       <use xlink:href="#ArialMT-115"/>
       <use x="50" xlink:href="#ArialMT-112"/>
       <use x="105.615234" xlink:href="#ArialMT-101"/>
       <use x="161.230469" xlink:href="#ArialMT-99"/>
       <use x="211.230469" xlink:href="#ArialMT-105"/>
       <use x="233.447266" xlink:href="#ArialMT-102"/>
       <use x="261.230469" xlink:href="#ArialMT-105"/>
       <use x="283.447266" xlink:href="#ArialMT-99"/>
      </g>
     </g>
    </g>
    <g id="ytick_25">
     <g id="line2d_32">
      <g>
       <use style="fill:#262626;stroke:#262626;" x="77.887188" xlink:href="#mb0c8f566f5" y="136.284179"/>
      </g>
     </g>
     <g id="text_29">
      <!-- activity -->
      <g style="fill:#262626;" transform="translate(41.1042 139.74856)scale(0.0968 -0.0968)">
       <use xlink:href="#ArialMT-97"/>
       <use x="55.615234" xlink:href="#ArialMT-99"/>
       <use x="105.615234" xlink:href="#ArialMT-116"/>
       <use x="133.398438" xlink:href="#ArialMT-105"/>
       <use x="155.615234" xlink:href="#ArialMT-118"/>
       <use x="205.615234" xlink:href="#ArialMT-105"/>
       <use x="227.832031" xlink:href="#ArialMT-116"/>
       <use x="255.615234" xlink:href="#ArialMT-121"/>
      </g>
     </g>
    </g>
    <g id="ytick_26">
     <g id="line2d_33">
      <g>
       <use style="fill:#262626;stroke:#262626;" x="77.887188" xlink:href="#mb0c8f566f5" y="128.009552"/>
      </g>
     </g>
     <g id="text_30">
      <!-- changes -->
      <g style="fill:#262626;" transform="translate(34.09225 131.473933)scale(0.0968 -0.0968)">
       <use xlink:href="#ArialMT-99"/>
       <use x="50" xlink:href="#ArialMT-104"/>
       <use x="105.615234" xlink:href="#ArialMT-97"/>
       <use x="161.230469" xlink:href="#ArialMT-110"/>
       <use x="216.845703" xlink:href="#ArialMT-103"/>
       <use x="272.460938" xlink:href="#ArialMT-101"/>
       <use x="328.076172" xlink:href="#ArialMT-115"/>
      </g>
     </g>
    </g>
    <g id="ytick_27">
     <g id="line2d_34">
      <g>
       <use style="fill:#262626;stroke:#262626;" x="77.887188" xlink:href="#mb0c8f566f5" y="119.734925"/>
      </g>
     </g>
     <g id="text_31">
      <!-- function -->
      <g style="fill:#262626;" transform="translate(36.786013 123.199307)scale(0.0968 -0.0968)">
       <use xlink:href="#ArialMT-102"/>
       <use x="27.783203" xlink:href="#ArialMT-117"/>
       <use x="83.398438" xlink:href="#ArialMT-110"/>
       <use x="139.013672" xlink:href="#ArialMT-99"/>
       <use x="189.013672" xlink:href="#ArialMT-116"/>
       <use x="216.796875" xlink:href="#ArialMT-105"/>
       <use x="239.013672" xlink:href="#ArialMT-111"/>
       <use x="294.628906" xlink:href="#ArialMT-110"/>
      </g>
     </g>
    </g>
    <g id="ytick_28">
     <g id="line2d_35">
      <g>
       <use style="fill:#262626;stroke:#262626;" x="77.887188" xlink:href="#mb0c8f566f5" y="111.460299"/>
      </g>
     </g>
     <g id="text_32">
      <!-- population -->
      <g style="fill:#262626;" transform="translate(26.0155 114.92468)scale(0.0968 -0.0968)">
       <use xlink:href="#ArialMT-112"/>
       <use x="55.615234" xlink:href="#ArialMT-111"/>
       <use x="111.230469" xlink:href="#ArialMT-112"/>
       <use x="166.845703" xlink:href="#ArialMT-117"/>
       <use x="222.460938" xlink:href="#ArialMT-108"/>
       <use x="244.677734" xlink:href="#ArialMT-97"/>
       <use x="300.292969" xlink:href="#ArialMT-116"/>
       <use x="328.076172" xlink:href="#ArialMT-105"/>
       <use x="350.292969" xlink:href="#ArialMT-111"/>
       <use x="405.908203" xlink:href="#ArialMT-110"/>
      </g>
     </g>
    </g>
    <g id="ytick_29">
     <g id="line2d_36">
      <g>
       <use style="fill:#262626;stroke:#262626;" x="77.887188" xlink:href="#mb0c8f566f5" y="103.185672"/>
      </g>
     </g>
     <g id="text_33">
      <!-- “ -->
      <defs>
       <path d="M 13.484375 59.578125 
L 13.484375 49.359375 
L 4.046875 49.359375 
L 4.046875 57.421875 
Q 4.046875 63.96875 5.609375 66.890625 
Q 7.671875 70.796875 12.109375 72.796875 
L 14.265625 69.390625 
Q 11.578125 68.265625 10.296875 66.03125 
Q 9.03125 63.8125 8.890625 59.578125 
z
M 28.609375 59.578125 
L 28.609375 49.359375 
L 19.1875 49.359375 
L 19.1875 57.421875 
Q 19.1875 63.96875 20.75 66.890625 
Q 22.796875 70.796875 27.25 72.796875 
L 29.390625 69.390625 
Q 26.703125 68.265625 25.4375 66.03125 
Q 24.171875 63.8125 24.03125 59.578125 
z
" id="ArialMT-8220"/>
      </defs>
      <g style="fill:#262626;" transform="translate(67.46405 106.650053)scale(0.0968 -0.0968)">
       <use xlink:href="#ArialMT-8220"/>
      </g>
     </g>
    </g>
    <g id="ytick_30">
     <g id="line2d_37">
      <g>
       <use style="fill:#262626;stroke:#262626;" x="77.887188" xlink:href="#mb0c8f566f5" y="94.911045"/>
      </g>
     </g>
     <g id="text_34">
      <!-- effects -->
      <g style="fill:#262626;" transform="translate(42.17505 98.375426)scale(0.0968 -0.0968)">
       <use xlink:href="#ArialMT-101"/>
       <use x="55.615234" xlink:href="#ArialMT-102"/>
       <use x="83.382812" xlink:href="#ArialMT-102"/>
       <use x="111.166016" xlink:href="#ArialMT-101"/>
       <use x="166.78125" xlink:href="#ArialMT-99"/>
       <use x="216.78125" xlink:href="#ArialMT-116"/>
       <use x="244.564453" xlink:href="#ArialMT-115"/>
      </g>
     </g>
    </g>
    <g id="ytick_31">
     <g id="line2d_38">
      <g>
       <use style="fill:#262626;stroke:#262626;" x="77.887188" xlink:href="#mb0c8f566f5" y="86.636418"/>
      </g>
     </g>
     <g id="text_35">
      <!-- large -->
      <g style="fill:#262626;" transform="translate(49.164313 90.100799)scale(0.0968 -0.0968)">
       <use xlink:href="#ArialMT-108"/>
       <use x="22.216797" xlink:href="#ArialMT-97"/>
       <use x="77.832031" xlink:href="#ArialMT-114"/>
       <use x="111.132812" xlink:href="#ArialMT-103"/>
       <use x="166.748047" xlink:href="#ArialMT-101"/>
      </g>
     </g>
    </g>
    <g id="ytick_32">
     <g id="line2d_39">
      <g>
       <use style="fill:#262626;stroke:#262626;" x="77.887188" xlink:href="#mb0c8f566f5" y="78.361791"/>
      </g>
     </g>
     <g id="text_36">
      <!-- figure -->
      <g style="fill:#262626;" transform="translate(46.475088 81.88516)scale(0.0968 -0.0968)">
       <use xlink:href="#ArialMT-102"/>
       <use x="27.783203" xlink:href="#ArialMT-105"/>
       <use x="50" xlink:href="#ArialMT-103"/>
       <use x="105.615234" xlink:href="#ArialMT-117"/>
       <use x="161.230469" xlink:href="#ArialMT-114"/>
       <use x="194.53125" xlink:href="#ArialMT-101"/>
      </g>
     </g>
    </g>
    <g id="ytick_33">
     <g id="line2d_40">
      <g>
       <use style="fill:#262626;stroke:#262626;" x="77.887188" xlink:href="#mb0c8f566f5" y="70.087164"/>
      </g>
     </g>
     <g id="text_37">
      <!-- studies -->
      <g style="fill:#262626;" transform="translate(40.018225 73.551545)scale(0.0968 -0.0968)">
       <use xlink:href="#ArialMT-115"/>
       <use x="50" xlink:href="#ArialMT-116"/>
       <use x="77.783203" xlink:href="#ArialMT-117"/>
       <use x="133.398438" xlink:href="#ArialMT-100"/>
       <use x="189.013672" xlink:href="#ArialMT-105"/>
       <use x="211.230469" xlink:href="#ArialMT-101"/>
       <use x="266.845703" xlink:href="#ArialMT-115"/>
      </g>
     </g>
    </g>
    <g id="ytick_34">
     <g id="line2d_41">
      <g>
       <use style="fill:#262626;stroke:#262626;" x="77.887188" xlink:href="#mb0c8f566f5" y="61.812537"/>
      </g>
     </g>
     <g id="text_38">
      <!-- ” -->
      <defs>
       <path d="M 4.25 62.109375 
L 4.25 72.3125 
L 13.671875 72.3125 
L 13.671875 64.265625 
Q 13.671875 57.71875 12.15625 54.828125 
Q 10.0625 50.875 5.609375 48.875 
L 3.46875 52.34375 
Q 6.109375 53.421875 7.390625 55.734375 
Q 8.6875 58.0625 8.84375 62.109375 
z
M 19.390625 62.109375 
L 19.390625 72.3125 
L 28.8125 72.3125 
L 28.8125 64.265625 
Q 28.8125 57.71875 27.296875 54.828125 
Q 25.203125 50.875 20.75 48.875 
L 18.609375 52.34375 
Q 21.234375 53.421875 22.53125 55.734375 
Q 23.828125 58.0625 23.96875 62.109375 
z
" id="ArialMT-8221"/>
      </defs>
      <g style="fill:#262626;" transform="translate(67.46405 65.276919)scale(0.0968 -0.0968)">
       <use xlink:href="#ArialMT-8221"/>
      </g>
     </g>
    </g>
    <g id="ytick_35">
     <g id="line2d_42">
      <g>
       <use style="fill:#262626;stroke:#262626;" x="77.887188" xlink:href="#mb0c8f566f5" y="53.53791"/>
      </g>
     </g>
     <g id="text_39">
      <!-- binding -->
      <g style="fill:#262626;" transform="translate(39.4707 57.002292)scale(0.0968 -0.0968)">
       <use xlink:href="#ArialMT-98"/>
       <use x="55.615234" xlink:href="#ArialMT-105"/>
       <use x="77.832031" xlink:href="#ArialMT-110"/>
       <use x="133.447266" xlink:href="#ArialMT-100"/>
       <use x="189.0625" xlink:href="#ArialMT-105"/>
       <use x="211.279297" xlink:href="#ArialMT-110"/>
       <use x="266.894531" xlink:href="#ArialMT-103"/>
      </g>
     </g>
    </g>
    <g id="ytick_36">
     <g id="line2d_43">
      <g>
       <use style="fill:#262626;stroke:#262626;" x="77.887188" xlink:href="#mb0c8f566f5" y="45.263284"/>
      </g>
     </g>
     <g id="text_40">
      <!-- et -->
      <g style="fill:#262626;" transform="translate(62.614975 48.727665)scale(0.0968 -0.0968)">
       <use xlink:href="#ArialMT-101"/>
       <use x="55.615234" xlink:href="#ArialMT-116"/>
      </g>
     </g>
    </g>
    <g id="ytick_37">
     <g id="line2d_44">
      <g>
       <use style="fill:#262626;stroke:#262626;" x="77.887188" xlink:href="#mb0c8f566f5" y="36.988657"/>
      </g>
     </g>
     <g id="text_41">
      <!-- non -->
      <g style="fill:#262626;" transform="translate(54.538225 40.453038)scale(0.0968 -0.0968)">
       <use xlink:href="#ArialMT-110"/>
       <use x="55.615234" xlink:href="#ArialMT-111"/>
       <use x="111.230469" xlink:href="#ArialMT-110"/>
      </g>
     </g>
    </g>
    <g id="ytick_38">
     <g id="line2d_45">
      <g>
       <use style="fill:#262626;stroke:#262626;" x="77.887188" xlink:href="#mb0c8f566f5" y="28.71403"/>
      </g>
     </g>
     <g id="text_42">
      <!-- genetic -->
      <g style="fill:#262626;" transform="translate(39.475238 32.178411)scale(0.0968 -0.0968)">
       <use xlink:href="#ArialMT-103"/>
       <use x="55.615234" xlink:href="#ArialMT-101"/>
       <use x="111.230469" xlink:href="#ArialMT-110"/>
       <use x="166.845703" xlink:href="#ArialMT-101"/>
       <use x="222.460938" xlink:href="#ArialMT-116"/>
       <use x="250.244141" xlink:href="#ArialMT-105"/>
       <use x="272.460938" xlink:href="#ArialMT-99"/>
      </g>
     </g>
    </g>
    <g id="ytick_39">
     <g id="line2d_46">
      <g>
       <use style="fill:#262626;stroke:#262626;" x="77.887188" xlink:href="#mb0c8f566f5" y="20.439403"/>
      </g>
     </g>
     <g id="text_43">
      <!-- al -->
      <g style="fill:#262626;" transform="translate(63.153425 23.903784)scale(0.0968 -0.0968)">
       <use xlink:href="#ArialMT-97"/>
       <use x="55.615234" xlink:href="#ArialMT-108"/>
      </g>
     </g>
    </g>
    <g id="ytick_40">
     <g id="line2d_47">
      <g>
       <use style="fill:#262626;stroke:#262626;" x="77.887188" xlink:href="#mb0c8f566f5" y="12.164776"/>
      </g>
     </g>
     <g id="text_44">
      <!-- ’ -->
      <defs>
       <path d="M 6.0625 62.109375 
L 6.0625 72.3125 
L 15.484375 72.3125 
L 15.484375 64.265625 
Q 15.484375 57.71875 13.96875 54.828125 
Q 11.859375 50.875 7.421875 48.875 
L 5.28125 52.34375 
Q 7.90625 53.421875 9.203125 55.734375 
Q 10.5 58.0625 10.640625 62.109375 
z
" id="ArialMT-8217"/>
      </defs>
      <g style="fill:#262626;" transform="translate(68.536413 15.629157)scale(0.0968 -0.0968)">
       <use xlink:href="#ArialMT-8217"/>
      </g>
     </g>
    </g>
   </g>
   <g id="PathCollection_1">
    <path clip-path="url(#p8b22abb0da)" d="M 382.703688 13.494117 
C 383.056234 13.494117 383.394387 13.354049 383.643674 13.104762 
C 383.892961 12.855475 384.033029 12.517321 384.033029 12.164776 
C 384.033029 11.812231 383.892961 11.474078 383.643674 11.224791 
C 383.394387 10.975503 383.056234 10.835436 382.703688 10.835436 
C 382.351143 10.835436 382.01299 10.975503 381.763703 11.224791 
C 381.514416 11.474078 381.374348 11.812231 381.374348 12.164776 
C 381.374348 12.517321 381.514416 12.855475 381.763703 13.104762 
C 382.01299 13.354049 382.351143 13.494117 382.703688 13.494117 
z
" style="fill:#253494;stroke:#253494;stroke-width:0.886227;"/>
    <path clip-path="url(#p8b22abb0da)" d="M 382.401747 21.768743 
C 382.754292 21.768743 383.092446 21.628676 383.341733 21.379389 
C 383.59102 21.130101 383.731087 20.791948 383.731087 20.439403 
C 383.731087 20.086858 383.59102 19.748704 383.341733 19.499417 
C 383.092446 19.25013 382.754292 19.110063 382.401747 19.110063 
C 382.049202 19.110063 381.711049 19.25013 381.461761 19.499417 
C 381.212474 19.748704 381.072407 20.086858 381.072407 20.439403 
C 381.072407 20.791948 381.212474 21.130101 381.461761 21.379389 
C 381.711049 21.628676 382.049202 21.768743 382.401747 21.768743 
z
" style="fill:#253494;stroke:#253494;stroke-width:0.886227;"/>
    <path clip-path="url(#p8b22abb0da)" d="M 382.395054 30.04337 
C 382.747599 30.04337 383.085752 29.903303 383.335039 29.654015 
C 383.584326 29.404728 383.724394 29.066575 383.724394 28.71403 
C 383.724394 28.361485 383.584326 28.023331 383.335039 27.774044 
C 383.085752 27.524757 382.747599 27.384689 382.395054 27.384689 
C 382.042508 27.384689 381.704355 27.524757 381.455068 27.774044 
C 381.205781 28.023331 381.065713 28.361485 381.065713 28.71403 
C 381.065713 29.066575 381.205781 29.404728 381.455068 29.654015 
C 381.704355 29.903303 382.042508 30.04337 382.395054 30.04337 
z
" style="fill:#253494;stroke:#253494;stroke-width:0.886227;"/>
    <path clip-path="url(#p8b22abb0da)" d="M 381.791221 38.317997 
C 382.143766 38.317997 382.48192 38.177929 382.731207 37.928642 
C 382.980494 37.679355 383.120561 37.341202 383.120561 36.988657 
C 383.120561 36.636112 382.980494 36.297958 382.731207 36.048671 
C 382.48192 35.799384 382.143766 35.659316 381.791221 35.659316 
C 381.438676 35.659316 381.100523 35.799384 380.851235 36.048671 
C 380.601948 36.297958 380.461881 36.636112 380.461881 36.988657 
C 380.461881 37.341202 380.601948 37.679355 380.851235 37.928642 
C 381.100523 38.177929 381.438676 38.317997 381.791221 38.317997 
z
" style="fill:#253494;stroke:#253494;stroke-width:0.886227;"/>
    <path clip-path="url(#p8b22abb0da)" d="M 380.862549 46.592624 
C 381.215094 46.592624 381.553248 46.452556 381.802535 46.203269 
C 382.051822 45.953982 382.191889 45.615829 382.191889 45.263284 
C 382.191889 44.910738 382.051822 44.572585 381.802535 44.323298 
C 381.553248 44.074011 381.215094 43.933943 380.862549 43.933943 
C 380.510004 43.933943 380.171851 44.074011 379.922563 44.323298 
C 379.673276 44.572585 379.533209 44.910738 379.533209 45.263284 
C 379.533209 45.615829 379.673276 45.953982 379.922563 46.203269 
C 380.171851 46.452556 380.510004 46.592624 380.862549 46.592624 
z
" style="fill:#253494;stroke:#253494;stroke-width:0.886227;"/>
    <path clip-path="url(#p8b22abb0da)" d="M 375.728824 54.867251 
C 376.08137 54.867251 376.419523 54.727183 376.66881 54.477896 
C 376.918097 54.228609 377.058165 53.890456 377.058165 53.53791 
C 377.058165 53.185365 376.918097 52.847212 376.66881 52.597925 
C 376.419523 52.348638 376.08137 52.20857 375.728824 52.20857 
C 375.376279 52.20857 375.038126 52.348638 374.788839 52.597925 
C 374.539552 52.847212 374.399484 53.185365 374.399484 53.53791 
C 374.399484 53.890456 374.539552 54.228609 374.788839 54.477896 
C 375.038126 54.727183 375.376279 54.867251 375.728824 54.867251 
z
" style="fill:#253494;stroke:#253494;stroke-width:0.886227;"/>
    <path clip-path="url(#p8b22abb0da)" d="M 375.148968 63.141878 
C 375.501514 63.141878 375.839667 63.00181 376.088954 62.752523 
C 376.338241 62.503236 376.478309 62.165083 376.478309 61.812537 
C 376.478309 61.459992 376.338241 61.121839 376.088954 60.872552 
C 375.839667 60.623265 375.501514 60.483197 375.148968 60.483197 
C 374.796423 60.483197 374.45827 60.623265 374.208983 60.872552 
C 373.959696 61.121839 373.819628 61.459992 373.819628 61.812537 
C 373.819628 62.165083 373.959696 62.503236 374.208983 62.752523 
C 374.45827 63.00181 374.796423 63.141878 375.148968 63.141878 
z
" style="fill:#253494;stroke:#253494;stroke-width:0.886227;"/>
    <path clip-path="url(#p8b22abb0da)" d="M 374.515513 71.416505 
C 374.868058 71.416505 375.206212 71.276437 375.455499 71.02715 
C 375.704786 70.777863 375.844854 70.439709 375.844854 70.087164 
C 375.844854 69.734619 375.704786 69.396466 375.455499 69.147179 
C 375.206212 68.897891 374.868058 68.757824 374.515513 68.757824 
C 374.162968 68.757824 373.824815 68.897891 373.575528 69.147179 
C 373.326241 69.396466 373.186173 69.734619 373.186173 70.087164 
C 373.186173 70.439709 373.326241 70.777863 373.575528 71.02715 
C 373.824815 71.276437 374.162968 71.416505 374.515513 71.416505 
z
" style="fill:#253494;stroke:#253494;stroke-width:0.886227;"/>
    <path clip-path="url(#p8b22abb0da)" d="M 373.787334 79.691131 
C 374.139879 79.691131 374.478032 79.551064 374.727319 79.301777 
C 374.976606 79.05249 375.116674 78.714336 375.116674 78.361791 
C 375.116674 78.009246 374.976606 77.671093 374.727319 77.421805 
C 374.478032 77.172518 374.139879 77.032451 373.787334 77.032451 
C 373.434788 77.032451 373.096635 77.172518 372.847348 77.421805 
C 372.598061 77.671093 372.457993 78.009246 372.457993 78.361791 
C 372.457993 78.714336 372.598061 79.05249 372.847348 79.301777 
C 373.096635 79.551064 373.434788 79.691131 373.787334 79.691131 
z
" style="fill:#253494;stroke:#253494;stroke-width:0.886227;"/>
    <path clip-path="url(#p8b22abb0da)" d="M 373.337198 87.965758 
C 373.689743 87.965758 374.027896 87.825691 374.277183 87.576404 
C 374.52647 87.327116 374.666538 86.988963 374.666538 86.636418 
C 374.666538 86.283873 374.52647 85.945719 374.277183 85.696432 
C 374.027896 85.447145 373.689743 85.307078 373.337198 85.307078 
C 372.984652 85.307078 372.646499 85.447145 372.397212 85.696432 
C 372.147925 85.945719 372.007857 86.283873 372.007857 86.636418 
C 372.007857 86.988963 372.147925 87.327116 372.397212 87.576404 
C 372.646499 87.825691 372.984652 87.965758 373.337198 87.965758 
z
" style="fill:#253494;stroke:#253494;stroke-width:0.886227;"/>
    <path clip-path="url(#p8b22abb0da)" d="M 373.337125 96.240385 
C 373.68967 96.240385 374.027824 96.100317 374.277111 95.85103 
C 374.526398 95.601743 374.666466 95.26359 374.666466 94.911045 
C 374.666466 94.5585 374.526398 94.220346 374.277111 93.971059 
C 374.027824 93.721772 373.68967 93.581704 373.337125 93.581704 
C 372.98458 93.581704 372.646427 93.721772 372.39714 93.971059 
C 372.147853 94.220346 372.007785 94.5585 372.007785 94.911045 
C 372.007785 95.26359 372.147853 95.601743 372.39714 95.85103 
C 372.646427 96.100317 372.98458 96.240385 373.337125 96.240385 
z
" style="fill:#253494;stroke:#253494;stroke-width:0.886227;"/>
    <path clip-path="url(#p8b22abb0da)" d="M 373.01587 104.515012 
C 373.368415 104.515012 373.706569 104.374944 373.955856 104.125657 
C 374.205143 103.87637 374.345211 103.538217 374.345211 103.185672 
C 374.345211 102.833126 374.205143 102.494973 373.955856 102.245686 
C 373.706569 101.996399 373.368415 101.856331 373.01587 101.856331 
C 372.663325 101.856331 372.325172 101.996399 372.075885 102.245686 
C 371.826598 102.494973 371.68653 102.833126 371.68653 103.185672 
C 371.68653 103.538217 371.826598 103.87637 372.075885 104.125657 
C 372.325172 104.374944 372.663325 104.515012 373.01587 104.515012 
z
" style="fill:#253494;stroke:#253494;stroke-width:0.886227;"/>
    <path clip-path="url(#p8b22abb0da)" d="M 372.737033 112.789639 
C 373.089578 112.789639 373.427731 112.649571 373.677019 112.400284 
C 373.926306 112.150997 374.066373 111.812844 374.066373 111.460299 
C 374.066373 111.107753 373.926306 110.7696 373.677019 110.520313 
C 373.427731 110.271026 373.089578 110.130958 372.737033 110.130958 
C 372.384488 110.130958 372.046334 110.271026 371.797047 110.520313 
C 371.54776 110.7696 371.407693 111.107753 371.407693 111.460299 
C 371.407693 111.812844 371.54776 112.150997 371.797047 112.400284 
C 372.046334 112.649571 372.384488 112.789639 372.737033 112.789639 
z
" style="fill:#253494;stroke:#253494;stroke-width:0.886227;"/>
    <path clip-path="url(#p8b22abb0da)" d="M 371.847006 121.064266 
C 372.199551 121.064266 372.537704 120.924198 372.786991 120.674911 
C 373.036278 120.425624 373.176346 120.087471 373.176346 119.734925 
C 373.176346 119.38238 373.036278 119.044227 372.786991 118.79494 
C 372.537704 118.545653 372.199551 118.405585 371.847006 118.405585 
C 371.49446 118.405585 371.156307 118.545653 370.90702 118.79494 
C 370.657733 119.044227 370.517665 119.38238 370.517665 119.734925 
C 370.517665 120.087471 370.657733 120.425624 370.90702 120.674911 
C 371.156307 120.924198 371.49446 121.064266 371.847006 121.064266 
z
" style="fill:#253494;stroke:#253494;stroke-width:0.886227;"/>
    <path clip-path="url(#p8b22abb0da)" d="M 371.52102 129.338893 
C 371.873565 129.338893 372.211719 129.198825 372.461006 128.949538 
C 372.710293 128.700251 372.85036 128.362097 372.85036 128.009552 
C 372.85036 127.657007 372.710293 127.318854 372.461006 127.069567 
C 372.211719 126.82028 371.873565 126.680212 371.52102 126.680212 
C 371.168475 126.680212 370.830322 126.82028 370.581034 127.069567 
C 370.331747 127.318854 370.19168 127.657007 370.19168 128.009552 
C 370.19168 128.362097 370.331747 128.700251 370.581034 128.949538 
C 370.830322 129.198825 371.168475 129.338893 371.52102 129.338893 
z
" style="fill:#253494;stroke:#253494;stroke-width:0.886227;"/>
    <path clip-path="url(#p8b22abb0da)" d="M 371.121902 137.613519 
C 371.474447 137.613519 371.8126 137.473452 372.061887 137.224165 
C 372.311174 136.974878 372.451242 136.636724 372.451242 136.284179 
C 372.451242 135.931634 372.311174 135.593481 372.061887 135.344194 
C 371.8126 135.094906 371.474447 134.954839 371.121902 134.954839 
C 370.769356 134.954839 370.431203 135.094906 370.181916 135.344194 
C 369.932629 135.593481 369.792561 135.931634 369.792561 136.284179 
C 369.792561 136.636724 369.932629 136.974878 370.181916 137.224165 
C 370.431203 137.473452 370.769356 137.613519 371.121902 137.613519 
z
" style="fill:#253494;stroke:#253494;stroke-width:0.886227;"/>
    <path clip-path="url(#p8b22abb0da)" d="M 370.23245 145.888146 
C 370.584995 145.888146 370.923149 145.748079 371.172436 145.498792 
C 371.421723 145.249504 371.561791 144.911351 371.561791 144.558806 
C 371.561791 144.206261 371.421723 143.868107 371.172436 143.61882 
C 370.923149 143.369533 370.584995 143.229466 370.23245 143.229466 
C 369.879905 143.229466 369.541752 143.369533 369.292465 143.61882 
C 369.043178 143.868107 368.90311 144.206261 368.90311 144.558806 
C 368.90311 144.911351 369.043178 145.249504 369.292465 145.498792 
C 369.541752 145.748079 369.879905 145.888146 370.23245 145.888146 
z
" style="fill:#253494;stroke:#253494;stroke-width:0.886227;"/>
    <path clip-path="url(#p8b22abb0da)" d="M 369.882349 154.162773 
C 370.234894 154.162773 370.573047 154.022706 370.822334 153.773418 
C 371.071622 153.524131 371.211689 153.185978 371.211689 152.833433 
C 371.211689 152.480888 371.071622 152.142734 370.822334 151.893447 
C 370.573047 151.64416 370.234894 151.504092 369.882349 151.504092 
C 369.529804 151.504092 369.19165 151.64416 368.942363 151.893447 
C 368.693076 152.142734 368.553008 152.480888 368.553008 152.833433 
C 368.553008 153.185978 368.693076 153.524131 368.942363 153.773418 
C 369.19165 154.022706 369.529804 154.162773 369.882349 154.162773 
z
" style="fill:#253494;stroke:#253494;stroke-width:0.886227;"/>
    <path clip-path="url(#p8b22abb0da)" d="M 369.672948 162.4374 
C 370.025493 162.4374 370.363646 162.297332 370.612933 162.048045 
C 370.862221 161.798758 371.002288 161.460605 371.002288 161.10806 
C 371.002288 160.755515 370.862221 160.417361 370.612933 160.168074 
C 370.363646 159.918787 370.025493 159.778719 369.672948 159.778719 
C 369.320403 159.778719 368.982249 159.918787 368.732962 160.168074 
C 368.483675 160.417361 368.343607 160.755515 368.343607 161.10806 
C 368.343607 161.460605 368.483675 161.798758 368.732962 162.048045 
C 368.982249 162.297332 369.320403 162.4374 369.672948 162.4374 
z
" style="fill:#253494;stroke:#253494;stroke-width:0.886227;"/>
    <path clip-path="url(#p8b22abb0da)" d="M 369.294065 170.712027 
C 369.64661 170.712027 369.984763 170.571959 370.23405 170.322672 
C 370.483337 170.073385 370.623405 169.735232 370.623405 169.382687 
C 370.623405 169.030141 370.483337 168.691988 370.23405 168.442701 
C 369.984763 168.193414 369.64661 168.053346 369.294065 168.053346 
C 368.94152 168.053346 368.603366 168.193414 368.354079 168.442701 
C 368.104792 168.691988 367.964724 169.030141 367.964724 169.382687 
C 367.964724 169.735232 368.104792 170.073385 368.354079 170.322672 
C 368.603366 170.571959 368.94152 170.712027 369.294065 170.712027 
z
" style="fill:#253494;stroke:#253494;stroke-width:0.886227;"/>
    <path clip-path="url(#p8b22abb0da)" d="M 354.390954 178.986654 
C 354.7435 178.986654 355.081653 178.846586 355.33094 178.597299 
C 355.580227 178.348012 355.720295 178.009859 355.720295 177.657313 
C 355.720295 177.304768 355.580227 176.966615 355.33094 176.717328 
C 355.081653 176.468041 354.7435 176.327973 354.390954 176.327973 
C 354.038409 176.327973 353.700256 176.468041 353.450969 176.717328 
C 353.201682 176.966615 353.061614 177.304768 353.061614 177.657313 
C 353.061614 178.009859 353.201682 178.348012 353.450969 178.597299 
C 353.700256 178.846586 354.038409 178.986654 354.390954 178.986654 
z
" style="fill:#253494;stroke:#253494;stroke-width:0.886227;"/>
    <path clip-path="url(#p8b22abb0da)" d="M 353.748305 187.261281 
C 354.10085 187.261281 354.439004 187.121213 354.688291 186.871926 
C 354.937578 186.622639 355.077646 186.284485 355.077646 185.93194 
C 355.077646 185.579395 354.937578 185.241242 354.688291 184.991955 
C 354.439004 184.742668 354.10085 184.6026 353.748305 184.6026 
C 353.39576 184.6026 353.057607 184.742668 352.80832 184.991955 
C 352.559032 185.241242 352.418965 185.579395 352.418965 185.93194 
C 352.418965 186.284485 352.559032 186.622639 352.80832 186.871926 
C 353.057607 187.121213 353.39576 187.261281 353.748305 187.261281 
z
" style="fill:#253494;stroke:#253494;stroke-width:0.886227;"/>
    <path clip-path="url(#p8b22abb0da)" d="M 353.676338 195.535908 
C 354.028883 195.535908 354.367037 195.39584 354.616324 195.146553 
C 354.865611 194.897266 355.005679 194.559112 355.005679 194.206567 
C 355.005679 193.854022 354.865611 193.515869 354.616324 193.266582 
C 354.367037 193.017294 354.028883 192.877227 353.676338 192.877227 
C 353.323793 192.877227 352.98564 193.017294 352.736353 193.266582 
C 352.487066 193.515869 352.346998 193.854022 352.346998 194.206567 
C 352.346998 194.559112 352.487066 194.897266 352.736353 195.146553 
C 352.98564 195.39584 353.323793 195.535908 353.676338 195.535908 
z
" style="fill:#253494;stroke:#253494;stroke-width:0.886227;"/>
    <path clip-path="url(#p8b22abb0da)" d="M 353.397411 203.810534 
C 353.749956 203.810534 354.088109 203.670467 354.337396 203.42118 
C 354.586683 203.171893 354.726751 202.833739 354.726751 202.481194 
C 354.726751 202.128649 354.586683 201.790496 354.337396 201.541208 
C 354.088109 201.291921 353.749956 201.151854 353.397411 201.151854 
C 353.044866 201.151854 352.706712 201.291921 352.457425 201.541208 
C 352.208138 201.790496 352.06807 202.128649 352.06807 202.481194 
C 352.06807 202.833739 352.208138 203.171893 352.457425 203.42118 
C 352.706712 203.670467 353.044866 203.810534 353.397411 203.810534 
z
" style="fill:#253494;stroke:#253494;stroke-width:0.886227;"/>
    <path clip-path="url(#p8b22abb0da)" d="M 352.250919 212.085161 
C 352.603465 212.085161 352.941618 211.945094 353.190905 211.695806 
C 353.440192 211.446519 353.58026 211.108366 353.58026 210.755821 
C 353.58026 210.403276 353.440192 210.065122 353.190905 209.815835 
C 352.941618 209.566548 352.603465 209.426481 352.250919 209.426481 
C 351.898374 209.426481 351.560221 209.566548 351.310934 209.815835 
C 351.061647 210.065122 350.921579 210.403276 350.921579 210.755821 
C 350.921579 211.108366 351.061647 211.446519 351.310934 211.695806 
C 351.560221 211.945094 351.898374 212.085161 352.250919 212.085161 
z
" style="fill:#253494;stroke:#253494;stroke-width:0.886227;"/>
    <path clip-path="url(#p8b22abb0da)" d="M 352.096091 220.359788 
C 352.448636 220.359788 352.786789 220.21972 353.036076 219.970433 
C 353.285363 219.721146 353.425431 219.382993 353.425431 219.030448 
C 353.425431 218.677903 353.285363 218.339749 353.036076 218.090462 
C 352.786789 217.841175 352.448636 217.701107 352.096091 217.701107 
C 351.743546 217.701107 351.405392 217.841175 351.156105 218.090462 
C 350.906818 218.339749 350.76675 218.677903 350.76675 219.030448 
C 350.76675 219.382993 350.906818 219.721146 351.156105 219.970433 
C 351.405392 220.21972 351.743546 220.359788 352.096091 220.359788 
z
" style="fill:#253494;stroke:#253494;stroke-width:0.886227;"/>
    <path clip-path="url(#p8b22abb0da)" d="M 350.808717 228.634415 
C 351.161262 228.634415 351.499415 228.494347 351.748702 228.24506 
C 351.997989 227.995773 352.138057 227.65762 352.138057 227.305075 
C 352.138057 226.952529 351.997989 226.614376 351.748702 226.365089 
C 351.499415 226.115802 351.161262 225.975734 350.808717 225.975734 
C 350.456172 225.975734 350.118018 226.115802 349.868731 226.365089 
C 349.619444 226.614376 349.479376 226.952529 349.479376 227.305075 
C 349.479376 227.65762 349.619444 227.995773 349.868731 228.24506 
C 350.118018 228.494347 350.456172 228.634415 350.808717 228.634415 
z
" style="fill:#253494;stroke:#253494;stroke-width:0.886227;"/>
    <path clip-path="url(#p8b22abb0da)" d="M 349.278822 236.909042 
C 349.631367 236.909042 349.96952 236.768974 350.218807 236.519687 
C 350.468094 236.2704 350.608162 235.932247 350.608162 235.579701 
C 350.608162 235.227156 350.468094 234.889003 350.218807 234.639716 
C 349.96952 234.390429 349.631367 234.250361 349.278822 234.250361 
C 348.926276 234.250361 348.588123 234.390429 348.338836 234.639716 
C 348.089549 234.889003 347.949481 235.227156 347.949481 235.579701 
C 347.949481 235.932247 348.089549 236.2704 348.338836 236.519687 
C 348.588123 236.768974 348.926276 236.909042 349.278822 236.909042 
z
" style="fill:#253494;stroke:#253494;stroke-width:0.886227;"/>
    <path clip-path="url(#p8b22abb0da)" d="M 349.217821 245.183669 
C 349.570366 245.183669 349.90852 245.043601 350.157807 244.794314 
C 350.407094 244.545027 350.547161 244.206874 350.547161 243.854328 
C 350.547161 243.501783 350.407094 243.16363 350.157807 242.914343 
C 349.90852 242.665056 349.570366 242.524988 349.217821 242.524988 
C 348.865276 242.524988 348.527123 242.665056 348.277835 242.914343 
C 348.028548 243.16363 347.888481 243.501783 347.888481 243.854328 
C 347.888481 244.206874 348.028548 244.545027 348.277835 244.794314 
C 348.527123 245.043601 348.865276 245.183669 349.217821 245.183669 
z
" style="fill:#253494;stroke:#253494;stroke-width:0.886227;"/>
    <path clip-path="url(#p8b22abb0da)" d="M 340.884736 253.458296 
C 341.237281 253.458296 341.575435 253.318228 341.824722 253.068941 
C 342.074009 252.819654 342.214077 252.4815 342.214077 252.128955 
C 342.214077 251.77641 342.074009 251.438257 341.824722 251.18897 
C 341.575435 250.939683 341.237281 250.799615 340.884736 250.799615 
C 340.532191 250.799615 340.194038 250.939683 339.944751 251.18897 
C 339.695464 251.438257 339.555396 251.77641 339.555396 252.128955 
C 339.555396 252.4815 339.695464 252.819654 339.944751 253.068941 
C 340.194038 253.318228 340.532191 253.458296 340.884736 253.458296 
z
" style="fill:#253494;stroke:#253494;stroke-width:0.886227;"/>
    <path clip-path="url(#p8b22abb0da)" d="M 340.021199 261.732922 
C 340.373744 261.732922 340.711897 261.592855 340.961184 261.343568 
C 341.210471 261.094281 341.350539 260.756127 341.350539 260.403582 
C 341.350539 260.051037 341.210471 259.712884 340.961184 259.463596 
C 340.711897 259.214309 340.373744 259.074242 340.021199 259.074242 
C 339.668653 259.074242 339.3305 259.214309 339.081213 259.463596 
C 338.831926 259.712884 338.691858 260.051037 338.691858 260.403582 
C 338.691858 260.756127 338.831926 261.094281 339.081213 261.343568 
C 339.3305 261.592855 339.668653 261.732922 340.021199 261.732922 
z
" style="fill:#253494;stroke:#253494;stroke-width:0.886227;"/>
    <path clip-path="url(#p8b22abb0da)" d="M 336.684097 270.007549 
C 337.036642 270.007549 337.374795 269.867482 337.624082 269.618195 
C 337.873369 269.368907 338.013437 269.030754 338.013437 268.678209 
C 338.013437 268.325664 337.873369 267.98751 337.624082 267.738223 
C 337.374795 267.488936 337.036642 267.348869 336.684097 267.348869 
C 336.331552 267.348869 335.993398 267.488936 335.744111 267.738223 
C 335.494824 267.98751 335.354756 268.325664 335.354756 268.678209 
C 335.354756 269.030754 335.494824 269.368907 335.744111 269.618195 
C 335.993398 269.867482 336.331552 270.007549 336.684097 270.007549 
z
" style="fill:#253494;stroke:#253494;stroke-width:0.886227;"/>
    <path clip-path="url(#p8b22abb0da)" d="M 334.046275 278.282176 
C 334.39882 278.282176 334.736973 278.142109 334.98626 277.892821 
C 335.235547 277.643534 335.375615 277.305381 335.375615 276.952836 
C 335.375615 276.600291 335.235547 276.262137 334.98626 276.01285 
C 334.736973 275.763563 334.39882 275.623495 334.046275 275.623495 
C 333.693729 275.623495 333.355576 275.763563 333.106289 276.01285 
C 332.857002 276.262137 332.716934 276.600291 332.716934 276.952836 
C 332.716934 277.305381 332.857002 277.643534 333.106289 277.892821 
C 333.355576 278.142109 333.693729 278.282176 334.046275 278.282176 
z
" style="fill:#253494;stroke:#253494;stroke-width:0.886227;"/>
    <path clip-path="url(#p8b22abb0da)" d="M 333.640024 286.556803 
C 333.992569 286.556803 334.330722 286.416735 334.580009 286.167448 
C 334.829297 285.918161 334.969364 285.580008 334.969364 285.227463 
C 334.969364 284.874917 334.829297 284.536764 334.580009 284.287477 
C 334.330722 284.03819 333.992569 283.898122 333.640024 283.898122 
C 333.287479 283.898122 332.949325 284.03819 332.700038 284.287477 
C 332.450751 284.536764 332.310683 284.874917 332.310683 285.227463 
C 332.310683 285.580008 332.450751 285.918161 332.700038 286.167448 
C 332.949325 286.416735 333.287479 286.556803 333.640024 286.556803 
z
" style="fill:#253494;stroke:#253494;stroke-width:0.886227;"/>
    <path clip-path="url(#p8b22abb0da)" d="M 305.502484 294.83143 
C 305.855029 294.83143 306.193183 294.691362 306.44247 294.442075 
C 306.691757 294.192788 306.831824 293.854635 306.831824 293.50209 
C 306.831824 293.149544 306.691757 292.811391 306.44247 292.562104 
C 306.193183 292.312817 305.855029 292.172749 305.502484 292.172749 
C 305.149939 292.172749 304.811785 292.312817 304.562498 292.562104 
C 304.313211 292.811391 304.173144 293.149544 304.173144 293.50209 
C 304.173144 293.854635 304.313211 294.192788 304.562498 294.442075 
C 304.811785 294.691362 305.149939 294.83143 305.502484 294.83143 
z
" style="fill:#253494;stroke:#253494;stroke-width:0.886227;"/>
    <path clip-path="url(#p8b22abb0da)" d="M 298.304435 303.106057 
C 298.656981 303.106057 298.995134 302.965989 299.244421 302.716702 
C 299.493708 302.467415 299.633776 302.129262 299.633776 301.776716 
C 299.633776 301.424171 299.493708 301.086018 299.244421 300.836731 
C 298.995134 300.587444 298.656981 300.447376 298.304435 300.447376 
C 297.95189 300.447376 297.613737 300.587444 297.36445 300.836731 
C 297.115163 301.086018 296.975095 301.424171 296.975095 301.776716 
C 296.975095 302.129262 297.115163 302.467415 297.36445 302.716702 
C 297.613737 302.965989 297.95189 303.106057 298.304435 303.106057 
z
" style="fill:#253494;stroke:#253494;stroke-width:0.886227;"/>
    <path clip-path="url(#p8b22abb0da)" d="M 284.621562 311.380684 
C 284.974107 311.380684 285.31226 311.240616 285.561547 310.991329 
C 285.810835 310.742042 285.950902 310.403888 285.950902 310.051343 
C 285.950902 309.698798 285.810835 309.360645 285.561547 309.111358 
C 285.31226 308.862071 284.974107 308.722003 284.621562 308.722003 
C 284.269017 308.722003 283.930863 308.862071 283.681576 309.111358 
C 283.432289 309.360645 283.292221 309.698798 283.292221 310.051343 
C 283.292221 310.403888 283.432289 310.742042 283.681576 310.991329 
C 283.930863 311.240616 284.269017 311.380684 284.621562 311.380684 
z
" style="fill:#253494;stroke:#253494;stroke-width:0.886227;"/>
    <path clip-path="url(#p8b22abb0da)" d="M 265.199088 319.655311 
C 265.551633 319.655311 265.889786 319.515243 266.139073 319.265956 
C 266.38836 319.016669 266.528428 318.678515 266.528428 318.32597 
C 266.528428 317.973425 266.38836 317.635272 266.139073 317.385985 
C 265.889786 317.136697 265.551633 316.99663 265.199088 316.99663 
C 264.846542 316.99663 264.508389 317.136697 264.259102 317.385985 
C 264.009815 317.635272 263.869747 317.973425 263.869747 318.32597 
C 263.869747 318.678515 264.009815 319.016669 264.259102 319.265956 
C 264.508389 319.515243 264.846542 319.655311 265.199088 319.655311 
z
" style="fill:#253494;stroke:#253494;stroke-width:0.886227;"/>
    <path clip-path="url(#p8b22abb0da)" d="M 263.19006 327.929937 
C 263.542605 327.929937 263.880758 327.78987 264.130045 327.540583 
C 264.379332 327.291296 264.5194 326.953142 264.5194 326.600597 
C 264.5194 326.248052 264.379332 325.909899 264.130045 325.660611 
C 263.880758 325.411324 263.542605 325.271257 263.19006 325.271257 
C 262.837514 325.271257 262.499361 325.411324 262.250074 325.660611 
C 262.000787 325.909899 261.860719 326.248052 261.860719 326.600597 
C 261.860719 326.953142 262.000787 327.291296 262.250074 327.540583 
C 262.499361 327.78987 262.837514 327.929937 263.19006 327.929937 
z
" style="fill:#253494;stroke:#253494;stroke-width:0.886227;"/>
    <path clip-path="url(#p8b22abb0da)" d="M 184.095915 336.204564 
C 184.44846 336.204564 184.786613 336.064497 185.035901 335.815209 
C 185.285188 335.565922 185.425255 335.227769 185.425255 334.875224 
C 185.425255 334.522679 185.285188 334.184525 185.035901 333.935238 
C 184.786613 333.685951 184.44846 333.545883 184.095915 333.545883 
C 183.74337 333.545883 183.405216 333.685951 183.155929 333.935238 
C 182.906642 334.184525 182.766575 334.522679 182.766575 334.875224 
C 182.766575 335.227769 182.906642 335.565922 183.155929 335.815209 
C 183.405216 336.064497 183.74337 336.204564 184.095915 336.204564 
z
" style="fill:#253494;stroke:#253494;stroke-width:0.886227;"/>
   </g>
   <g id="LineCollection_1">
    <path clip-path="url(#p8b22abb0da)" d="M 356.887187 339.84 
L 356.887187 7.2 
" style="fill:none;stroke:#808080;stroke-dasharray:3.27904,1.417963;stroke-dashoffset:0;stroke-width:0.886227;"/>
   </g>
   <g id="patch_3">
    <path d="M 77.887188 339.84 
L 77.887188 7.2 
" style="fill:none;stroke:#262626;stroke-linecap:square;stroke-linejoin:miter;"/>
   </g>
   <g id="patch_4">
    <path d="M 635.887187 339.84 
L 635.887187 7.2 
" style="fill:none;stroke:#262626;stroke-linecap:square;stroke-linejoin:miter;"/>
   </g>
   <g id="patch_5">
    <path d="M 77.887187 339.84 
L 635.887187 339.84 
" style="fill:none;stroke:#262626;stroke-linecap:square;stroke-linejoin:miter;"/>
   </g>
   <g id="patch_6">
    <path d="M 77.887187 7.2 
L 635.887187 7.2 
" style="fill:none;stroke:#262626;stroke-linecap:square;stroke-linejoin:miter;"/>
   </g>
   <g id="LineCollection_2">
    <path clip-path="url(#p8b22abb0da)" d="M 399.159915 330.73791 
L 568.250824 330.73791 
" style="fill:none;stroke:#000000;stroke-width:0.886227;"/>
   </g>
   <g id="PathCollection_2">
    <defs>
     <path d="M 562.015441 -43.671252 
L 568.250824 -47.271252 
L 562.015441 -50.871252 
" id="md38c2651a4" style="stroke:#000000;stroke-width:0.886227;"/>
    </defs>
    <g clip-path="url(#p8b22abb0da)">
     <use style="fill-opacity:0;stroke:#000000;stroke-width:0.886227;" x="0" xlink:href="#md38c2651a4" y="378.009163"/>
    </g>
   </g>
   <g id="text_45">
    <g clip-path="url(#p8b22abb0da)">
     <!-- Preprint Enriched -->
     <defs>
      <path d="M 7.90625 0 
L 7.90625 71.578125 
L 59.671875 71.578125 
L 59.671875 63.140625 
L 17.390625 63.140625 
L 17.390625 41.21875 
L 56.984375 41.21875 
L 56.984375 32.8125 
L 17.390625 32.8125 
L 17.390625 8.453125 
L 61.328125 8.453125 
L 61.328125 0 
z
" id="ArialMT-69"/>
     </defs>
     <g style="opacity:0.698039;" transform="translate(437.351619 325.565471)scale(0.12 -0.12)">
      <use xlink:href="#ArialMT-80"/>
      <use x="66.699219" xlink:href="#ArialMT-114"/>
      <use x="100" xlink:href="#ArialMT-101"/>
      <use x="155.615234" xlink:href="#ArialMT-112"/>
      <use x="211.230469" xlink:href="#ArialMT-114"/>
      <use x="244.53125" xlink:href="#ArialMT-105"/>
      <use x="266.748047" xlink:href="#ArialMT-110"/>
      <use x="322.363281" xlink:href="#ArialMT-116"/>
      <use x="350.146484" xlink:href="#ArialMT-32"/>
      <use x="377.929688" xlink:href="#ArialMT-69"/>
      <use x="444.628906" xlink:href="#ArialMT-110"/>
      <use x="500.244141" xlink:href="#ArialMT-114"/>
      <use x="533.544922" xlink:href="#ArialMT-105"/>
      <use x="555.761719" xlink:href="#ArialMT-99"/>
      <use x="605.761719" xlink:href="#ArialMT-104"/>
      <use x="661.376953" xlink:href="#ArialMT-101"/>
      <use x="716.992188" xlink:href="#ArialMT-100"/>
     </g>
    </g>
   </g>
   <g id="LineCollection_3">
    <path clip-path="url(#p8b22abb0da)" d="M 314.61446 16.30209 
L 145.523551 16.30209 
" style="fill:none;stroke:#000000;stroke-width:0.886227;"/>
   </g>
   <g id="PathCollection_3">
    <defs>
     <path d="M 151.758934 -365.307073 
L 145.523551 -361.707073 
L 151.758934 -358.107073 
" id="mb87764f219" style="stroke:#000000;stroke-width:0.886227;"/>
    </defs>
    <g clip-path="url(#p8b22abb0da)">
     <use style="fill-opacity:0;stroke:#000000;stroke-width:0.886227;" x="0" xlink:href="#mb87764f219" y="378.009163"/>
    </g>
   </g>
   <g id="text_46">
    <g clip-path="url(#p8b22abb0da)">
     <!-- Published Enriched -->
     <g style="opacity:0.698039;" transform="translate(178.371506 27.678904)scale(0.12 -0.12)">
      <use xlink:href="#ArialMT-80"/>
      <use x="66.699219" xlink:href="#ArialMT-117"/>
      <use x="122.314453" xlink:href="#ArialMT-98"/>
      <use x="177.929688" xlink:href="#ArialMT-108"/>
      <use x="200.146484" xlink:href="#ArialMT-105"/>
      <use x="222.363281" xlink:href="#ArialMT-115"/>
      <use x="272.363281" xlink:href="#ArialMT-104"/>
      <use x="327.978516" xlink:href="#ArialMT-101"/>
      <use x="383.59375" xlink:href="#ArialMT-100"/>
      <use x="439.208984" xlink:href="#ArialMT-32"/>
      <use x="466.992188" xlink:href="#ArialMT-69"/>
      <use x="533.691406" xlink:href="#ArialMT-110"/>
      <use x="589.306641" xlink:href="#ArialMT-114"/>
      <use x="622.607422" xlink:href="#ArialMT-105"/>
      <use x="644.824219" xlink:href="#ArialMT-99"/>
      <use x="694.824219" xlink:href="#ArialMT-104"/>
      <use x="750.439453" xlink:href="#ArialMT-101"/>
      <use x="806.054688" xlink:href="#ArialMT-100"/>
     </g>
    </g>
   </g>
  </g>
 </g>
 <defs>
  <clipPath id="p8b22abb0da">
   <rect height="332.64" width="558" x="77.887188" y="7.2"/>
  </clipPath>
 </defs>
</svg>
