<?xml version="1.0" encoding="utf-8" standalone="no"?>
<!DOCTYPE svg PUBLIC "-//W3C//DTD SVG 1.1//EN"
  "http://www.w3.org/Graphics/SVG/1.1/DTD/svg11.dtd">
<!-- Created with matplotlib (https://matplotlib.org/) -->
<svg height="324.073438pt" version="1.1" viewBox="0 0 450.943625 324.073438" width="450.943625pt" xmlns="http://www.w3.org/2000/svg" xmlns:xlink="http://www.w3.org/1999/xlink">
 <defs>
  <style type="text/css">
*{stroke-linecap:butt;stroke-linejoin:round;}
  </style>
 </defs>
 <g id="figure_1">
  <g id="patch_1">
   <path d="M 0 324.073438 
L 450.943625 324.073438 
L 450.943625 0 
L 0 0 
z
" style="fill:#ffffff;"/>
  </g>
  <g id="axes_1">
   <g id="patch_2">
    <path d="M 72.115625 284.4 
L 443.743625 284.4 
L 443.743625 7.2 
L 72.115625 7.2 
z
" style="fill:#ffffff;"/>
   </g>
   <g id="matplotlib.axis_1">
    <g id="xtick_1">
     <g id="line2d_1">
      <defs>
       <path d="M 0 0 
L 0 4.8 
" id="mcc44abcf39" style="stroke:#262626;"/>
      </defs>
      <g>
       <use style="fill:#262626;stroke:#262626;" x="89.007807" xlink:href="#mcc44abcf39" y="284.4"/>
      </g>
     </g>
     <g id="text_1">
      <!-- 0 -->
      <defs>
       <path d="M 4.15625 35.296875 
Q 4.15625 48 6.765625 55.734375 
Q 9.375 63.484375 14.515625 67.671875 
Q 19.671875 71.875 27.484375 71.875 
Q 33.25 71.875 37.59375 69.546875 
Q 41.9375 67.234375 44.765625 62.859375 
Q 47.609375 58.5 49.21875 52.21875 
Q 50.828125 45.953125 50.828125 35.296875 
Q 50.828125 22.703125 48.234375 14.96875 
Q 45.65625 7.234375 40.5 3 
Q 35.359375 -1.21875 27.484375 -1.21875 
Q 17.140625 -1.21875 11.234375 6.203125 
Q 4.15625 15.140625 4.15625 35.296875 
z
M 13.1875 35.296875 
Q 13.1875 17.671875 17.3125 11.828125 
Q 21.4375 6 27.484375 6 
Q 33.546875 6 37.671875 11.859375 
Q 41.796875 17.71875 41.796875 35.296875 
Q 41.796875 52.984375 37.671875 58.78125 
Q 33.546875 64.59375 27.390625 64.59375 
Q 21.34375 64.59375 17.71875 59.46875 
Q 13.1875 52.9375 13.1875 35.296875 
z
" id="ArialMT-48"/>
      </defs>
      <g style="fill:#262626;" transform="translate(86.227338 298.757812)scale(0.1 -0.1)">
       <use xlink:href="#ArialMT-48"/>
      </g>
     </g>
    </g>
    <g id="xtick_2">
     <g id="line2d_2">
      <g>
       <use style="fill:#262626;stroke:#262626;" x="201.622352" xlink:href="#mcc44abcf39" y="284.4"/>
      </g>
     </g>
     <g id="text_2">
      <!-- 0.5 -->
      <defs>
       <path d="M 9.078125 0 
L 9.078125 10.015625 
L 19.09375 10.015625 
L 19.09375 0 
z
" id="ArialMT-46"/>
       <path d="M 4.15625 18.75 
L 13.375 19.53125 
Q 14.40625 12.796875 18.140625 9.390625 
Q 21.875 6 27.15625 6 
Q 33.5 6 37.890625 10.78125 
Q 42.28125 15.578125 42.28125 23.484375 
Q 42.28125 31 38.0625 35.34375 
Q 33.84375 39.703125 27 39.703125 
Q 22.75 39.703125 19.328125 37.765625 
Q 15.921875 35.84375 13.96875 32.765625 
L 5.71875 33.84375 
L 12.640625 70.609375 
L 48.25 70.609375 
L 48.25 62.203125 
L 19.671875 62.203125 
L 15.828125 42.96875 
Q 22.265625 47.46875 29.34375 47.46875 
Q 38.71875 47.46875 45.15625 40.96875 
Q 51.609375 34.46875 51.609375 24.265625 
Q 51.609375 14.546875 45.953125 7.46875 
Q 39.0625 -1.21875 27.15625 -1.21875 
Q 17.390625 -1.21875 11.203125 4.25 
Q 5.03125 9.71875 4.15625 18.75 
z
" id="ArialMT-53"/>
      </defs>
      <g style="fill:#262626;" transform="translate(194.672352 298.757812)scale(0.1 -0.1)">
       <use xlink:href="#ArialMT-48"/>
       <use x="55.615234" xlink:href="#ArialMT-46"/>
       <use x="83.398438" xlink:href="#ArialMT-53"/>
      </g>
     </g>
    </g>
    <g id="xtick_3">
     <g id="line2d_3">
      <g>
       <use style="fill:#262626;stroke:#262626;" x="314.236898" xlink:href="#mcc44abcf39" y="284.4"/>
      </g>
     </g>
     <g id="text_3">
      <!-- 1 -->
      <defs>
       <path d="M 37.25 0 
L 28.46875 0 
L 28.46875 56 
Q 25.296875 52.984375 20.140625 49.953125 
Q 14.984375 46.921875 10.890625 45.40625 
L 10.890625 53.90625 
Q 18.265625 57.375 23.78125 62.296875 
Q 29.296875 67.234375 31.59375 71.875 
L 37.25 71.875 
z
" id="ArialMT-49"/>
      </defs>
      <g style="fill:#262626;" transform="translate(311.456429 298.757812)scale(0.1 -0.1)">
       <use xlink:href="#ArialMT-49"/>
      </g>
     </g>
    </g>
    <g id="xtick_4">
     <g id="line2d_4">
      <g>
       <use style="fill:#262626;stroke:#262626;" x="426.851443" xlink:href="#mcc44abcf39" y="284.4"/>
      </g>
     </g>
     <g id="text_4">
      <!-- 1.5 -->
      <g style="fill:#262626;" transform="translate(419.901443 298.757812)scale(0.1 -0.1)">
       <use xlink:href="#ArialMT-49"/>
       <use x="55.615234" xlink:href="#ArialMT-46"/>
       <use x="83.398438" xlink:href="#ArialMT-53"/>
      </g>
     </g>
    </g>
    <g id="xtick_5">
     <g id="line2d_5">
      <defs>
       <path d="M 0 0 
L 0 3.2 
" id="mbe8d59f1de" style="stroke:#262626;stroke-width:0.8;"/>
      </defs>
      <g>
       <use style="fill:#262626;stroke:#262626;stroke-width:0.8;" x="145.31508" xlink:href="#mbe8d59f1de" y="284.4"/>
      </g>
     </g>
    </g>
    <g id="xtick_6">
     <g id="line2d_6">
      <g>
       <use style="fill:#262626;stroke:#262626;stroke-width:0.8;" x="257.929625" xlink:href="#mbe8d59f1de" y="284.4"/>
      </g>
     </g>
    </g>
    <g id="xtick_7">
     <g id="line2d_7">
      <g>
       <use style="fill:#262626;stroke:#262626;stroke-width:0.8;" x="370.54417" xlink:href="#mbe8d59f1de" y="284.4"/>
      </g>
     </g>
    </g>
    <g id="text_5">
     <!-- Preprint vs Published Odds Ratio -->
     <defs>
      <path d="M 7.71875 0 
L 7.71875 71.578125 
L 34.71875 71.578125 
Q 41.84375 71.578125 45.609375 70.90625 
Q 50.875 70.015625 54.4375 67.546875 
Q 58.015625 65.09375 60.1875 60.640625 
Q 62.359375 56.203125 62.359375 50.875 
Q 62.359375 41.75 56.546875 35.421875 
Q 50.734375 29.109375 35.546875 29.109375 
L 17.1875 29.109375 
L 17.1875 0 
z
M 17.1875 37.546875 
L 35.6875 37.546875 
Q 44.875 37.546875 48.734375 40.96875 
Q 52.59375 44.390625 52.59375 50.59375 
Q 52.59375 55.078125 50.3125 58.265625 
Q 48.046875 61.46875 44.34375 62.5 
Q 41.9375 63.140625 35.5 63.140625 
L 17.1875 63.140625 
z
" id="ArialMT-80"/>
      <path d="M 6.5 0 
L 6.5 51.859375 
L 14.40625 51.859375 
L 14.40625 44 
Q 17.4375 49.515625 20 51.265625 
Q 22.5625 53.03125 25.640625 53.03125 
Q 30.078125 53.03125 34.671875 50.203125 
L 31.640625 42.046875 
Q 28.421875 43.953125 25.203125 43.953125 
Q 22.3125 43.953125 20.015625 42.21875 
Q 17.71875 40.484375 16.75 37.40625 
Q 15.28125 32.71875 15.28125 27.15625 
L 15.28125 0 
z
" id="ArialMT-114"/>
      <path d="M 42.09375 16.703125 
L 51.171875 15.578125 
Q 49.03125 7.625 43.21875 3.21875 
Q 37.40625 -1.171875 28.375 -1.171875 
Q 17 -1.171875 10.328125 5.828125 
Q 3.65625 12.84375 3.65625 25.484375 
Q 3.65625 38.578125 10.390625 45.796875 
Q 17.140625 53.03125 27.875 53.03125 
Q 38.28125 53.03125 44.875 45.953125 
Q 51.46875 38.875 51.46875 26.03125 
Q 51.46875 25.25 51.421875 23.6875 
L 12.75 23.6875 
Q 13.234375 15.140625 17.578125 10.59375 
Q 21.921875 6.0625 28.421875 6.0625 
Q 33.25 6.0625 36.671875 8.59375 
Q 40.09375 11.140625 42.09375 16.703125 
z
M 13.234375 30.90625 
L 42.1875 30.90625 
Q 41.609375 37.453125 38.875 40.71875 
Q 34.671875 45.796875 27.984375 45.796875 
Q 21.921875 45.796875 17.796875 41.75 
Q 13.671875 37.703125 13.234375 30.90625 
z
" id="ArialMT-101"/>
      <path d="M 6.59375 -19.875 
L 6.59375 51.859375 
L 14.59375 51.859375 
L 14.59375 45.125 
Q 17.4375 49.078125 21 51.046875 
Q 24.5625 53.03125 29.640625 53.03125 
Q 36.28125 53.03125 41.359375 49.609375 
Q 46.4375 46.1875 49.015625 39.953125 
Q 51.609375 33.734375 51.609375 26.3125 
Q 51.609375 18.359375 48.75 11.984375 
Q 45.90625 5.609375 40.453125 2.21875 
Q 35.015625 -1.171875 29 -1.171875 
Q 24.609375 -1.171875 21.109375 0.6875 
Q 17.625 2.546875 15.375 5.375 
L 15.375 -19.875 
z
M 14.546875 25.640625 
Q 14.546875 15.625 18.59375 10.84375 
Q 22.65625 6.0625 28.421875 6.0625 
Q 34.28125 6.0625 38.453125 11.015625 
Q 42.625 15.96875 42.625 26.375 
Q 42.625 36.28125 38.546875 41.203125 
Q 34.46875 46.140625 28.8125 46.140625 
Q 23.1875 46.140625 18.859375 40.890625 
Q 14.546875 35.640625 14.546875 25.640625 
z
" id="ArialMT-112"/>
      <path d="M 6.640625 61.46875 
L 6.640625 71.578125 
L 15.4375 71.578125 
L 15.4375 61.46875 
z
M 6.640625 0 
L 6.640625 51.859375 
L 15.4375 51.859375 
L 15.4375 0 
z
" id="ArialMT-105"/>
      <path d="M 6.59375 0 
L 6.59375 51.859375 
L 14.5 51.859375 
L 14.5 44.484375 
Q 20.21875 53.03125 31 53.03125 
Q 35.6875 53.03125 39.625 51.34375 
Q 43.5625 49.65625 45.515625 46.921875 
Q 47.46875 44.1875 48.25 40.4375 
Q 48.734375 37.984375 48.734375 31.890625 
L 48.734375 0 
L 39.9375 0 
L 39.9375 31.546875 
Q 39.9375 36.921875 38.90625 39.578125 
Q 37.890625 42.234375 35.28125 43.8125 
Q 32.671875 45.40625 29.15625 45.40625 
Q 23.53125 45.40625 19.453125 41.84375 
Q 15.375 38.28125 15.375 28.328125 
L 15.375 0 
z
" id="ArialMT-110"/>
      <path d="M 25.78125 7.859375 
L 27.046875 0.09375 
Q 23.34375 -0.6875 20.40625 -0.6875 
Q 15.625 -0.6875 12.984375 0.828125 
Q 10.359375 2.34375 9.28125 4.8125 
Q 8.203125 7.28125 8.203125 15.1875 
L 8.203125 45.015625 
L 1.765625 45.015625 
L 1.765625 51.859375 
L 8.203125 51.859375 
L 8.203125 64.703125 
L 16.9375 69.96875 
L 16.9375 51.859375 
L 25.78125 51.859375 
L 25.78125 45.015625 
L 16.9375 45.015625 
L 16.9375 14.703125 
Q 16.9375 10.9375 17.40625 9.859375 
Q 17.875 8.796875 18.921875 8.15625 
Q 19.96875 7.515625 21.921875 7.515625 
Q 23.390625 7.515625 25.78125 7.859375 
z
" id="ArialMT-116"/>
      <path id="ArialMT-32"/>
      <path d="M 21 0 
L 1.265625 51.859375 
L 10.546875 51.859375 
L 21.6875 20.796875 
Q 23.484375 15.765625 25 10.359375 
Q 26.171875 14.453125 28.265625 20.21875 
L 39.796875 51.859375 
L 48.828125 51.859375 
L 29.203125 0 
z
" id="ArialMT-118"/>
      <path d="M 3.078125 15.484375 
L 11.765625 16.84375 
Q 12.5 11.625 15.84375 8.84375 
Q 19.1875 6.0625 25.203125 6.0625 
Q 31.25 6.0625 34.171875 8.515625 
Q 37.109375 10.984375 37.109375 14.3125 
Q 37.109375 17.28125 34.515625 19 
Q 32.71875 20.171875 25.53125 21.96875 
Q 15.875 24.421875 12.140625 26.203125 
Q 8.40625 27.984375 6.46875 31.125 
Q 4.546875 34.28125 4.546875 38.09375 
Q 4.546875 41.546875 6.125 44.5 
Q 7.71875 47.46875 10.453125 49.421875 
Q 12.5 50.921875 16.03125 51.96875 
Q 19.578125 53.03125 23.640625 53.03125 
Q 29.734375 53.03125 34.34375 51.265625 
Q 38.96875 49.515625 41.15625 46.5 
Q 43.359375 43.5 44.1875 38.484375 
L 35.59375 37.3125 
Q 35.015625 41.3125 32.203125 43.546875 
Q 29.390625 45.796875 24.265625 45.796875 
Q 18.21875 45.796875 15.625 43.796875 
Q 13.03125 41.796875 13.03125 39.109375 
Q 13.03125 37.40625 14.109375 36.03125 
Q 15.1875 34.625 17.484375 33.6875 
Q 18.796875 33.203125 25.25 31.453125 
Q 34.578125 28.953125 38.25 27.359375 
Q 41.9375 25.78125 44.03125 22.75 
Q 46.140625 19.734375 46.140625 15.234375 
Q 46.140625 10.84375 43.578125 6.953125 
Q 41.015625 3.078125 36.171875 0.953125 
Q 31.34375 -1.171875 25.25 -1.171875 
Q 15.140625 -1.171875 9.84375 3.03125 
Q 4.546875 7.234375 3.078125 15.484375 
z
" id="ArialMT-115"/>
      <path d="M 40.578125 0 
L 40.578125 7.625 
Q 34.515625 -1.171875 24.125 -1.171875 
Q 19.53125 -1.171875 15.546875 0.578125 
Q 11.578125 2.34375 9.640625 5 
Q 7.71875 7.671875 6.9375 11.53125 
Q 6.390625 14.109375 6.390625 19.734375 
L 6.390625 51.859375 
L 15.1875 51.859375 
L 15.1875 23.09375 
Q 15.1875 16.21875 15.71875 13.8125 
Q 16.546875 10.359375 19.234375 8.375 
Q 21.921875 6.390625 25.875 6.390625 
Q 29.828125 6.390625 33.296875 8.421875 
Q 36.765625 10.453125 38.203125 13.9375 
Q 39.65625 17.4375 39.65625 24.078125 
L 39.65625 51.859375 
L 48.4375 51.859375 
L 48.4375 0 
z
" id="ArialMT-117"/>
      <path d="M 14.703125 0 
L 6.546875 0 
L 6.546875 71.578125 
L 15.328125 71.578125 
L 15.328125 46.046875 
Q 20.90625 53.03125 29.546875 53.03125 
Q 34.328125 53.03125 38.59375 51.09375 
Q 42.875 49.171875 45.625 45.671875 
Q 48.390625 42.1875 49.953125 37.25 
Q 51.515625 32.328125 51.515625 26.703125 
Q 51.515625 13.375 44.921875 6.09375 
Q 38.328125 -1.171875 29.109375 -1.171875 
Q 19.921875 -1.171875 14.703125 6.5 
z
M 14.59375 26.3125 
Q 14.59375 17 17.140625 12.84375 
Q 21.296875 6.0625 28.375 6.0625 
Q 34.125 6.0625 38.328125 11.0625 
Q 42.53125 16.0625 42.53125 25.984375 
Q 42.53125 36.140625 38.5 40.96875 
Q 34.46875 45.796875 28.765625 45.796875 
Q 23 45.796875 18.796875 40.796875 
Q 14.59375 35.796875 14.59375 26.3125 
z
" id="ArialMT-98"/>
      <path d="M 6.390625 0 
L 6.390625 71.578125 
L 15.1875 71.578125 
L 15.1875 0 
z
" id="ArialMT-108"/>
      <path d="M 6.59375 0 
L 6.59375 71.578125 
L 15.375 71.578125 
L 15.375 45.90625 
Q 21.53125 53.03125 30.90625 53.03125 
Q 36.671875 53.03125 40.921875 50.75 
Q 45.171875 48.484375 47 44.484375 
Q 48.828125 40.484375 48.828125 32.859375 
L 48.828125 0 
L 40.046875 0 
L 40.046875 32.859375 
Q 40.046875 39.453125 37.1875 42.453125 
Q 34.328125 45.453125 29.109375 45.453125 
Q 25.203125 45.453125 21.75 43.421875 
Q 18.3125 41.40625 16.84375 37.9375 
Q 15.375 34.46875 15.375 28.375 
L 15.375 0 
z
" id="ArialMT-104"/>
      <path d="M 40.234375 0 
L 40.234375 6.546875 
Q 35.296875 -1.171875 25.734375 -1.171875 
Q 19.53125 -1.171875 14.328125 2.25 
Q 9.125 5.671875 6.265625 11.796875 
Q 3.421875 17.921875 3.421875 25.875 
Q 3.421875 33.640625 6 39.96875 
Q 8.59375 46.296875 13.765625 49.65625 
Q 18.953125 53.03125 25.34375 53.03125 
Q 30.03125 53.03125 33.6875 51.046875 
Q 37.359375 49.078125 39.65625 45.90625 
L 39.65625 71.578125 
L 48.390625 71.578125 
L 48.390625 0 
z
M 12.453125 25.875 
Q 12.453125 15.921875 16.640625 10.984375 
Q 20.84375 6.0625 26.5625 6.0625 
Q 32.328125 6.0625 36.34375 10.765625 
Q 40.375 15.484375 40.375 25.140625 
Q 40.375 35.796875 36.265625 40.765625 
Q 32.171875 45.75 26.171875 45.75 
Q 20.3125 45.75 16.375 40.96875 
Q 12.453125 36.1875 12.453125 25.875 
z
" id="ArialMT-100"/>
      <path d="M 4.828125 34.859375 
Q 4.828125 52.6875 14.390625 62.765625 
Q 23.96875 72.859375 39.109375 72.859375 
Q 49.03125 72.859375 56.984375 68.109375 
Q 64.9375 63.375 69.109375 54.90625 
Q 73.296875 46.4375 73.296875 35.6875 
Q 73.296875 24.8125 68.890625 16.21875 
Q 64.5 7.625 56.4375 3.203125 
Q 48.390625 -1.21875 39.0625 -1.21875 
Q 28.953125 -1.21875 20.984375 3.65625 
Q 13.03125 8.546875 8.921875 16.984375 
Q 4.828125 25.4375 4.828125 34.859375 
z
M 14.59375 34.71875 
Q 14.59375 21.78125 21.546875 14.328125 
Q 28.515625 6.890625 39.015625 6.890625 
Q 49.703125 6.890625 56.609375 14.40625 
Q 63.53125 21.921875 63.53125 35.75 
Q 63.53125 44.484375 60.578125 51 
Q 57.625 57.515625 51.921875 61.109375 
Q 46.234375 64.703125 39.15625 64.703125 
Q 29.109375 64.703125 21.84375 57.78125 
Q 14.59375 50.875 14.59375 34.71875 
z
" id="ArialMT-79"/>
      <path d="M 7.859375 0 
L 7.859375 71.578125 
L 39.59375 71.578125 
Q 49.171875 71.578125 54.140625 69.640625 
Q 59.125 67.71875 62.109375 62.828125 
Q 65.09375 57.953125 65.09375 52.046875 
Q 65.09375 44.4375 60.15625 39.203125 
Q 55.21875 33.984375 44.921875 32.5625 
Q 48.6875 30.765625 50.640625 29 
Q 54.78125 25.203125 58.5 19.484375 
L 70.953125 0 
L 59.03125 0 
L 49.5625 14.890625 
Q 45.40625 21.34375 42.71875 24.75 
Q 40.046875 28.171875 37.921875 29.53125 
Q 35.796875 30.90625 33.59375 31.453125 
Q 31.984375 31.78125 28.328125 31.78125 
L 17.328125 31.78125 
L 17.328125 0 
z
M 17.328125 39.984375 
L 37.703125 39.984375 
Q 44.1875 39.984375 47.84375 41.328125 
Q 51.515625 42.671875 53.421875 45.625 
Q 55.328125 48.578125 55.328125 52.046875 
Q 55.328125 57.125 51.640625 60.390625 
Q 47.953125 63.671875 39.984375 63.671875 
L 17.328125 63.671875 
z
" id="ArialMT-82"/>
      <path d="M 40.4375 6.390625 
Q 35.546875 2.25 31.03125 0.53125 
Q 26.515625 -1.171875 21.34375 -1.171875 
Q 12.796875 -1.171875 8.203125 3 
Q 3.609375 7.171875 3.609375 13.671875 
Q 3.609375 17.484375 5.34375 20.625 
Q 7.078125 23.78125 9.890625 25.6875 
Q 12.703125 27.59375 16.21875 28.5625 
Q 18.796875 29.25 24.03125 29.890625 
Q 34.671875 31.15625 39.703125 32.90625 
Q 39.75 34.71875 39.75 35.203125 
Q 39.75 40.578125 37.25 42.78125 
Q 33.890625 45.75 27.25 45.75 
Q 21.046875 45.75 18.09375 43.578125 
Q 15.140625 41.40625 13.71875 35.890625 
L 5.125 37.0625 
Q 6.296875 42.578125 8.984375 45.96875 
Q 11.671875 49.359375 16.75 51.1875 
Q 21.828125 53.03125 28.515625 53.03125 
Q 35.15625 53.03125 39.296875 51.46875 
Q 43.453125 49.90625 45.40625 47.53125 
Q 47.359375 45.171875 48.140625 41.546875 
Q 48.578125 39.3125 48.578125 33.453125 
L 48.578125 21.734375 
Q 48.578125 9.46875 49.140625 6.21875 
Q 49.703125 2.984375 51.375 0 
L 42.1875 0 
Q 40.828125 2.734375 40.4375 6.390625 
z
M 39.703125 26.03125 
Q 34.90625 24.078125 25.34375 22.703125 
Q 19.921875 21.921875 17.671875 20.9375 
Q 15.4375 19.96875 14.203125 18.09375 
Q 12.984375 16.21875 12.984375 13.921875 
Q 12.984375 10.40625 15.640625 8.0625 
Q 18.3125 5.71875 23.4375 5.71875 
Q 28.515625 5.71875 32.46875 7.9375 
Q 36.421875 10.15625 38.28125 14.015625 
Q 39.703125 17 39.703125 22.796875 
z
" id="ArialMT-97"/>
      <path d="M 3.328125 25.921875 
Q 3.328125 40.328125 11.328125 47.265625 
Q 18.015625 53.03125 27.640625 53.03125 
Q 38.328125 53.03125 45.109375 46.015625 
Q 51.90625 39.015625 51.90625 26.65625 
Q 51.90625 16.65625 48.90625 10.90625 
Q 45.90625 5.171875 40.15625 2 
Q 34.421875 -1.171875 27.640625 -1.171875 
Q 16.75 -1.171875 10.03125 5.8125 
Q 3.328125 12.796875 3.328125 25.921875 
z
M 12.359375 25.921875 
Q 12.359375 15.96875 16.703125 11.015625 
Q 21.046875 6.0625 27.640625 6.0625 
Q 34.1875 6.0625 38.53125 11.03125 
Q 42.875 16.015625 42.875 26.21875 
Q 42.875 35.84375 38.5 40.796875 
Q 34.125 45.75 27.640625 45.75 
Q 21.046875 45.75 16.703125 40.8125 
Q 12.359375 35.890625 12.359375 25.921875 
z
" id="ArialMT-111"/>
     </defs>
     <g style="fill:#262626;" transform="translate(163.563125 314.488438)scale(0.12 -0.12)">
      <use xlink:href="#ArialMT-80"/>
      <use x="66.699219" xlink:href="#ArialMT-114"/>
      <use x="100" xlink:href="#ArialMT-101"/>
      <use x="155.615234" xlink:href="#ArialMT-112"/>
      <use x="211.230469" xlink:href="#ArialMT-114"/>
      <use x="244.53125" xlink:href="#ArialMT-105"/>
      <use x="266.748047" xlink:href="#ArialMT-110"/>
      <use x="322.363281" xlink:href="#ArialMT-116"/>
      <use x="350.146484" xlink:href="#ArialMT-32"/>
      <use x="377.929688" xlink:href="#ArialMT-118"/>
      <use x="427.929688" xlink:href="#ArialMT-115"/>
      <use x="477.929688" xlink:href="#ArialMT-32"/>
      <use x="505.712891" xlink:href="#ArialMT-80"/>
      <use x="572.412109" xlink:href="#ArialMT-117"/>
      <use x="628.027344" xlink:href="#ArialMT-98"/>
      <use x="683.642578" xlink:href="#ArialMT-108"/>
      <use x="705.859375" xlink:href="#ArialMT-105"/>
      <use x="728.076172" xlink:href="#ArialMT-115"/>
      <use x="778.076172" xlink:href="#ArialMT-104"/>
      <use x="833.691406" xlink:href="#ArialMT-101"/>
      <use x="889.306641" xlink:href="#ArialMT-100"/>
      <use x="944.921875" xlink:href="#ArialMT-32"/>
      <use x="972.705078" xlink:href="#ArialMT-79"/>
      <use x="1050.488281" xlink:href="#ArialMT-100"/>
      <use x="1106.103516" xlink:href="#ArialMT-100"/>
      <use x="1161.71875" xlink:href="#ArialMT-115"/>
      <use x="1211.71875" xlink:href="#ArialMT-32"/>
      <use x="1239.501953" xlink:href="#ArialMT-82"/>
      <use x="1311.71875" xlink:href="#ArialMT-97"/>
      <use x="1367.333984" xlink:href="#ArialMT-116"/>
      <use x="1395.117188" xlink:href="#ArialMT-105"/>
      <use x="1417.333984" xlink:href="#ArialMT-111"/>
     </g>
    </g>
   </g>
   <g id="matplotlib.axis_2">
    <g id="ytick_1">
     <g id="line2d_8">
      <defs>
       <path d="M 0 0 
L -4.8 0 
" id="m3565071201" style="stroke:#262626;"/>
      </defs>
      <g>
       <use style="fill:#262626;stroke:#262626;" x="72.115625" xlink:href="#m3565071201" y="280.262687"/>
      </g>
     </g>
     <g id="text_6">
      <!-- file -->
      <defs>
       <path d="M 8.6875 0 
L 8.6875 45.015625 
L 0.921875 45.015625 
L 0.921875 51.859375 
L 8.6875 51.859375 
L 8.6875 57.375 
Q 8.6875 62.59375 9.625 65.140625 
Q 10.890625 68.5625 14.078125 70.671875 
Q 17.28125 72.796875 23.046875 72.796875 
Q 26.765625 72.796875 31.25 71.921875 
L 29.9375 64.265625 
Q 27.203125 64.75 24.75 64.75 
Q 20.75 64.75 19.09375 63.03125 
Q 17.4375 61.328125 17.4375 56.640625 
L 17.4375 51.859375 
L 27.546875 51.859375 
L 27.546875 45.015625 
L 17.4375 45.015625 
L 17.4375 0 
z
" id="ArialMT-102"/>
      </defs>
      <g style="fill:#262626;" transform="translate(53.66675 283.412124)scale(0.088 -0.088)">
       <use xlink:href="#ArialMT-102"/>
       <use x="27.783203" xlink:href="#ArialMT-105"/>
       <use x="50" xlink:href="#ArialMT-108"/>
       <use x="72.216797" xlink:href="#ArialMT-101"/>
      </g>
     </g>
    </g>
    <g id="ytick_2">
     <g id="line2d_9">
      <g>
       <use style="fill:#262626;stroke:#262626;" x="72.115625" xlink:href="#m3565071201" y="273.367164"/>
      </g>
     </g>
     <g id="text_7">
      <!-- additional -->
      <g style="fill:#262626;" transform="translate(27.243375 276.516602)scale(0.088 -0.088)">
       <use xlink:href="#ArialMT-97"/>
       <use x="55.615234" xlink:href="#ArialMT-100"/>
       <use x="111.230469" xlink:href="#ArialMT-100"/>
       <use x="166.845703" xlink:href="#ArialMT-105"/>
       <use x="189.0625" xlink:href="#ArialMT-116"/>
       <use x="216.845703" xlink:href="#ArialMT-105"/>
       <use x="239.0625" xlink:href="#ArialMT-111"/>
       <use x="294.677734" xlink:href="#ArialMT-110"/>
       <use x="350.292969" xlink:href="#ArialMT-97"/>
       <use x="405.908203" xlink:href="#ArialMT-108"/>
      </g>
     </g>
    </g>
    <g id="ytick_3">
     <g id="line2d_10">
      <g>
       <use style="fill:#262626;stroke:#262626;" x="72.115625" xlink:href="#m3565071201" y="266.471642"/>
      </g>
     </g>
     <g id="text_8">
      <!-- ± -->
      <defs>
       <path d="M 23.296875 12.703125 
L 23.296875 32.375 
L 3.8125 32.375 
L 3.8125 40.53125 
L 23.296875 40.53125 
L 23.296875 60.015625 
L 31.59375 60.015625 
L 31.59375 40.53125 
L 51.078125 40.53125 
L 51.078125 32.375 
L 31.59375 32.375 
L 31.59375 12.703125 
z
M 51.078125 0 
L 3.8125 0 
L 3.8125 8.203125 
L 51.078125 8.203125 
z
" id="ArialMT-177"/>
      </defs>
      <g style="fill:#262626;" transform="translate(60.08525 269.621079)scale(0.088 -0.088)">
       <use xlink:href="#ArialMT-177"/>
      </g>
     </g>
    </g>
    <g id="ytick_4">
     <g id="line2d_11">
      <g>
       <use style="fill:#262626;stroke:#262626;" x="72.115625" xlink:href="#m3565071201" y="259.576119"/>
      </g>
     </g>
     <g id="text_9">
      <!-- – -->
      <defs>
       <path d="M -0.203125 22.359375 
L -0.203125 29.4375 
L 55.421875 29.4375 
L 55.421875 22.359375 
z
" id="ArialMT-8211"/>
      </defs>
      <g style="fill:#262626;" transform="translate(60.022 262.725557)scale(0.088 -0.088)">
       <use xlink:href="#ArialMT-8211"/>
      </g>
     </g>
    </g>
    <g id="ytick_5">
     <g id="line2d_12">
      <g>
       <use style="fill:#262626;stroke:#262626;" x="72.115625" xlink:href="#m3565071201" y="252.680597"/>
      </g>
     </g>
     <g id="text_10">
      <!-- supplementary -->
      <defs>
       <path d="M 6.59375 0 
L 6.59375 51.859375 
L 14.453125 51.859375 
L 14.453125 44.578125 
Q 16.890625 48.390625 20.9375 50.703125 
Q 25 53.03125 30.171875 53.03125 
Q 35.9375 53.03125 39.625 50.640625 
Q 43.3125 48.25 44.828125 43.953125 
Q 50.984375 53.03125 60.84375 53.03125 
Q 68.5625 53.03125 72.703125 48.75 
Q 76.859375 44.484375 76.859375 35.59375 
L 76.859375 0 
L 68.109375 0 
L 68.109375 32.671875 
Q 68.109375 37.9375 67.25 40.25 
Q 66.40625 42.578125 64.15625 43.984375 
Q 61.921875 45.40625 58.890625 45.40625 
Q 53.421875 45.40625 49.796875 41.765625 
Q 46.1875 38.140625 46.1875 30.125 
L 46.1875 0 
L 37.40625 0 
L 37.40625 33.6875 
Q 37.40625 39.546875 35.25 42.46875 
Q 33.109375 45.40625 28.21875 45.40625 
Q 24.515625 45.40625 21.359375 43.453125 
Q 18.21875 41.5 16.796875 37.734375 
Q 15.375 33.984375 15.375 26.90625 
L 15.375 0 
z
" id="ArialMT-109"/>
       <path d="M 6.203125 -19.96875 
L 5.21875 -11.71875 
Q 8.109375 -12.5 10.25 -12.5 
Q 13.1875 -12.5 14.9375 -11.515625 
Q 16.703125 -10.546875 17.828125 -8.796875 
Q 18.65625 -7.46875 20.515625 -2.25 
Q 20.75 -1.515625 21.296875 -0.09375 
L 1.609375 51.859375 
L 11.078125 51.859375 
L 21.875 21.828125 
Q 23.96875 16.109375 25.640625 9.8125 
Q 27.15625 15.875 29.25 21.625 
L 40.328125 51.859375 
L 49.125 51.859375 
L 29.390625 -0.875 
Q 26.21875 -9.421875 24.46875 -12.640625 
Q 22.125 -17 19.09375 -19.015625 
Q 16.0625 -21.046875 11.859375 -21.046875 
Q 9.328125 -21.046875 6.203125 -19.96875 
z
" id="ArialMT-121"/>
      </defs>
      <g style="fill:#262626;" transform="translate(7.2 255.830035)scale(0.088 -0.088)">
       <use xlink:href="#ArialMT-115"/>
       <use x="50" xlink:href="#ArialMT-117"/>
       <use x="105.615234" xlink:href="#ArialMT-112"/>
       <use x="161.230469" xlink:href="#ArialMT-112"/>
       <use x="216.845703" xlink:href="#ArialMT-108"/>
       <use x="239.0625" xlink:href="#ArialMT-101"/>
       <use x="294.677734" xlink:href="#ArialMT-109"/>
       <use x="377.978516" xlink:href="#ArialMT-101"/>
       <use x="433.59375" xlink:href="#ArialMT-110"/>
       <use x="489.208984" xlink:href="#ArialMT-116"/>
       <use x="516.992188" xlink:href="#ArialMT-97"/>
       <use x="572.607422" xlink:href="#ArialMT-114"/>
       <use x="605.908203" xlink:href="#ArialMT-121"/>
      </g>
     </g>
    </g>
    <g id="ytick_6">
     <g id="line2d_13">
      <g>
       <use style="fill:#262626;stroke:#262626;" x="72.115625" xlink:href="#m3565071201" y="245.785075"/>
      </g>
     </g>
     <g id="text_11">
      <!-- n -->
      <g style="fill:#262626;" transform="translate(60.022 248.934512)scale(0.088 -0.088)">
       <use xlink:href="#ArialMT-110"/>
      </g>
     </g>
    </g>
    <g id="ytick_7">
     <g id="line2d_14">
      <g>
       <use style="fill:#262626;stroke:#262626;" x="72.115625" xlink:href="#m3565071201" y="238.889552"/>
      </g>
     </g>
     <g id="text_12">
      <!-- mm -->
      <g style="fill:#262626;" transform="translate(50.255375 242.03899)scale(0.088 -0.088)">
       <use xlink:href="#ArialMT-109"/>
       <use x="83.300781" xlink:href="#ArialMT-109"/>
      </g>
     </g>
    </g>
    <g id="ytick_8">
     <g id="line2d_15">
      <g>
       <use style="fill:#262626;stroke:#262626;" x="72.115625" xlink:href="#m3565071201" y="231.99403"/>
      </g>
     </g>
     <g id="text_13">
      <!-- p -->
      <g style="fill:#262626;" transform="translate(60.022 235.143467)scale(0.088 -0.088)">
       <use xlink:href="#ArialMT-112"/>
      </g>
     </g>
    </g>
    <g id="ytick_9">
     <g id="line2d_16">
      <g>
       <use style="fill:#262626;stroke:#262626;" x="72.115625" xlink:href="#m3565071201" y="225.098507"/>
      </g>
     </g>
     <g id="text_14">
      <!-- fig -->
      <defs>
       <path d="M 4.984375 -4.296875 
L 13.53125 -5.5625 
Q 14.0625 -9.515625 16.5 -11.328125 
Q 19.78125 -13.765625 25.4375 -13.765625 
Q 31.546875 -13.765625 34.859375 -11.328125 
Q 38.1875 -8.890625 39.359375 -4.5 
Q 40.046875 -1.8125 39.984375 6.78125 
Q 34.234375 0 25.640625 0 
Q 14.9375 0 9.078125 7.71875 
Q 3.21875 15.4375 3.21875 26.21875 
Q 3.21875 33.640625 5.90625 39.90625 
Q 8.59375 46.1875 13.6875 49.609375 
Q 18.796875 53.03125 25.6875 53.03125 
Q 34.859375 53.03125 40.828125 45.609375 
L 40.828125 51.859375 
L 48.921875 51.859375 
L 48.921875 7.03125 
Q 48.921875 -5.078125 46.453125 -10.125 
Q 44 -15.1875 38.640625 -18.109375 
Q 33.296875 -21.046875 25.484375 -21.046875 
Q 16.21875 -21.046875 10.5 -16.875 
Q 4.78125 -12.703125 4.984375 -4.296875 
z
M 12.25 26.859375 
Q 12.25 16.65625 16.296875 11.96875 
Q 20.359375 7.28125 26.46875 7.28125 
Q 32.515625 7.28125 36.609375 11.9375 
Q 40.71875 16.609375 40.71875 26.5625 
Q 40.71875 36.078125 36.5 40.90625 
Q 32.28125 45.75 26.3125 45.75 
Q 20.453125 45.75 16.34375 40.984375 
Q 12.25 36.234375 12.25 26.859375 
z
" id="ArialMT-103"/>
      </defs>
      <g style="fill:#262626;" transform="translate(55.622 228.30157)scale(0.088 -0.088)">
       <use xlink:href="#ArialMT-102"/>
       <use x="27.783203" xlink:href="#ArialMT-105"/>
       <use x="50" xlink:href="#ArialMT-103"/>
      </g>
     </g>
    </g>
    <g id="ytick_10">
     <g id="line2d_17">
      <g>
       <use style="fill:#262626;stroke:#262626;" x="72.115625" xlink:href="#m3565071201" y="218.202985"/>
      </g>
     </g>
     <g id="text_15">
      <!-- data -->
      <g style="fill:#262626;" transform="translate(47.79 221.352423)scale(0.088 -0.088)">
       <use xlink:href="#ArialMT-100"/>
       <use x="55.615234" xlink:href="#ArialMT-97"/>
       <use x="111.230469" xlink:href="#ArialMT-116"/>
       <use x="139.013672" xlink:href="#ArialMT-97"/>
      </g>
     </g>
    </g>
    <g id="ytick_11">
     <g id="line2d_18">
      <g>
       <use style="fill:#262626;stroke:#262626;" x="72.115625" xlink:href="#m3565071201" y="211.307463"/>
      </g>
     </g>
     <g id="text_16">
      <!-- ° -->
      <defs>
       <path d="M 6.25 59.28125 
Q 6.25 64.890625 10.21875 68.84375 
Q 14.203125 72.796875 19.78125 72.796875 
Q 25.4375 72.796875 29.390625 68.84375 
Q 33.34375 64.890625 33.34375 59.28125 
Q 33.34375 53.65625 29.359375 49.671875 
Q 25.390625 45.703125 19.78125 45.703125 
Q 14.203125 45.703125 10.21875 49.65625 
Q 6.25 53.609375 6.25 59.28125 
z
M 11.578125 59.28125 
Q 11.578125 55.859375 13.984375 53.4375 
Q 16.40625 51.03125 19.828125 51.03125 
Q 23.1875 51.03125 25.609375 53.4375 
Q 28.03125 55.859375 28.03125 59.28125 
Q 28.03125 62.703125 25.609375 65.109375 
Q 23.1875 67.53125 19.828125 67.53125 
Q 16.40625 67.53125 13.984375 65.109375 
Q 11.578125 62.703125 11.578125 59.28125 
z
" id="ArialMT-176"/>
      </defs>
      <g style="fill:#262626;" transform="translate(61.397 214.4569)scale(0.088 -0.088)">
       <use xlink:href="#ArialMT-176"/>
      </g>
     </g>
    </g>
    <g id="ytick_12">
     <g id="line2d_19">
      <g>
       <use style="fill:#262626;stroke:#262626;" x="72.115625" xlink:href="#m3565071201" y="204.41194"/>
      </g>
     </g>
     <g id="text_17">
      <!-- table -->
      <g style="fill:#262626;" transform="translate(45.83475 207.561378)scale(0.088 -0.088)">
       <use xlink:href="#ArialMT-116"/>
       <use x="27.783203" xlink:href="#ArialMT-97"/>
       <use x="83.398438" xlink:href="#ArialMT-98"/>
       <use x="139.013672" xlink:href="#ArialMT-108"/>
       <use x="161.230469" xlink:href="#ArialMT-101"/>
      </g>
     </g>
    </g>
    <g id="ytick_13">
     <g id="line2d_20">
      <g>
       <use style="fill:#262626;stroke:#262626;" x="72.115625" xlink:href="#m3565071201" y="197.516418"/>
      </g>
     </g>
     <g id="text_18">
      <!-- performed -->
      <g style="fill:#262626;" transform="translate(24.812375 200.71948)scale(0.088 -0.088)">
       <use xlink:href="#ArialMT-112"/>
       <use x="55.615234" xlink:href="#ArialMT-101"/>
       <use x="111.230469" xlink:href="#ArialMT-114"/>
       <use x="144.53125" xlink:href="#ArialMT-102"/>
       <use x="172.314453" xlink:href="#ArialMT-111"/>
       <use x="227.929688" xlink:href="#ArialMT-114"/>
       <use x="261.230469" xlink:href="#ArialMT-109"/>
       <use x="344.53125" xlink:href="#ArialMT-101"/>
       <use x="400.146484" xlink:href="#ArialMT-100"/>
      </g>
     </g>
    </g>
    <g id="ytick_14">
     <g id="line2d_21">
      <g>
       <use style="fill:#262626;stroke:#262626;" x="72.115625" xlink:href="#m3565071201" y="190.620896"/>
      </g>
     </g>
     <g id="text_19">
      <!-- values -->
      <g style="fill:#262626;" transform="translate(39.4795 193.770333)scale(0.088 -0.088)">
       <use xlink:href="#ArialMT-118"/>
       <use x="50" xlink:href="#ArialMT-97"/>
       <use x="105.615234" xlink:href="#ArialMT-108"/>
       <use x="127.832031" xlink:href="#ArialMT-117"/>
       <use x="183.447266" xlink:href="#ArialMT-101"/>
       <use x="239.0625" xlink:href="#ArialMT-115"/>
      </g>
     </g>
    </g>
    <g id="ytick_15">
     <g id="line2d_22">
      <g>
       <use style="fill:#262626;stroke:#262626;" x="72.115625" xlink:href="#m3565071201" y="183.725373"/>
      </g>
     </g>
     <g id="text_20">
      <!-- 1 -->
      <g style="fill:#262626;" transform="translate(60.022 186.874811)scale(0.088 -0.088)">
       <use xlink:href="#ArialMT-49"/>
      </g>
     </g>
    </g>
    <g id="ytick_16">
     <g id="line2d_23">
      <g>
       <use style="fill:#262626;stroke:#262626;" x="72.115625" xlink:href="#m3565071201" y="176.829851"/>
      </g>
     </g>
     <g id="text_21">
      <!-- mean -->
      <g style="fill:#262626;" transform="translate(42.904625 179.979288)scale(0.088 -0.088)">
       <use xlink:href="#ArialMT-109"/>
       <use x="83.300781" xlink:href="#ArialMT-101"/>
       <use x="138.916016" xlink:href="#ArialMT-97"/>
       <use x="194.53125" xlink:href="#ArialMT-110"/>
      </g>
     </g>
    </g>
    <g id="ytick_17">
     <g id="line2d_24">
      <g>
       <use style="fill:#262626;stroke:#262626;" x="72.115625" xlink:href="#m3565071201" y="169.934328"/>
      </g>
     </g>
     <g id="text_22">
      <!-- 10 -->
      <g style="fill:#262626;" transform="translate(55.128375 173.083766)scale(0.088 -0.088)">
       <use xlink:href="#ArialMT-49"/>
       <use x="55.615234" xlink:href="#ArialMT-48"/>
      </g>
     </g>
    </g>
    <g id="ytick_18">
     <g id="line2d_25">
      <g>
       <use style="fill:#262626;stroke:#262626;" x="72.115625" xlink:href="#m3565071201" y="163.038806"/>
      </g>
     </g>
     <g id="text_23">
      <!-- samples -->
      <g style="fill:#262626;" transform="translate(32.149375 166.188243)scale(0.088 -0.088)">
       <use xlink:href="#ArialMT-115"/>
       <use x="50" xlink:href="#ArialMT-97"/>
       <use x="105.615234" xlink:href="#ArialMT-109"/>
       <use x="188.916016" xlink:href="#ArialMT-112"/>
       <use x="244.53125" xlink:href="#ArialMT-108"/>
       <use x="266.748047" xlink:href="#ArialMT-101"/>
       <use x="322.363281" xlink:href="#ArialMT-115"/>
      </g>
     </g>
    </g>
    <g id="ytick_19">
     <g id="line2d_26">
      <g>
       <use style="fill:#262626;stroke:#262626;" x="72.115625" xlink:href="#m3565071201" y="156.143284"/>
      </g>
     </g>
     <g id="text_24">
      <!-- value -->
      <g style="fill:#262626;" transform="translate(43.8795 159.292721)scale(0.088 -0.088)">
       <use xlink:href="#ArialMT-118"/>
       <use x="50" xlink:href="#ArialMT-97"/>
       <use x="105.615234" xlink:href="#ArialMT-108"/>
       <use x="127.832031" xlink:href="#ArialMT-117"/>
       <use x="183.447266" xlink:href="#ArialMT-101"/>
      </g>
     </g>
    </g>
    <g id="ytick_20">
     <g id="line2d_27">
      <g>
       <use style="fill:#262626;stroke:#262626;" x="72.115625" xlink:href="#m3565071201" y="149.247761"/>
      </g>
     </g>
     <g id="text_25">
      <!-- total -->
      <g style="fill:#262626;" transform="translate(48.283625 152.397199)scale(0.088 -0.088)">
       <use xlink:href="#ArialMT-116"/>
       <use x="27.783203" xlink:href="#ArialMT-111"/>
       <use x="83.398438" xlink:href="#ArialMT-116"/>
       <use x="111.181641" xlink:href="#ArialMT-97"/>
       <use x="166.796875" xlink:href="#ArialMT-108"/>
      </g>
     </g>
    </g>
    <g id="ytick_21">
     <g id="line2d_28">
      <g>
       <use style="fill:#262626;stroke:#262626;" x="72.115625" xlink:href="#m3565071201" y="142.352239"/>
      </g>
     </g>
     <g id="text_26">
      <!-- regions -->
      <g style="fill:#262626;" transform="translate(36.05575 145.501676)scale(0.088 -0.088)">
       <use xlink:href="#ArialMT-114"/>
       <use x="33.300781" xlink:href="#ArialMT-101"/>
       <use x="88.916016" xlink:href="#ArialMT-103"/>
       <use x="144.53125" xlink:href="#ArialMT-105"/>
       <use x="166.748047" xlink:href="#ArialMT-111"/>
       <use x="222.363281" xlink:href="#ArialMT-110"/>
       <use x="277.978516" xlink:href="#ArialMT-115"/>
      </g>
     </g>
    </g>
    <g id="ytick_22">
     <g id="line2d_29">
      <g>
       <use style="fill:#262626;stroke:#262626;" x="72.115625" xlink:href="#m3565071201" y="135.456716"/>
      </g>
     </g>
     <g id="text_27">
      <!-- mice -->
      <defs>
       <path d="M 40.4375 19 
L 49.078125 17.875 
Q 47.65625 8.9375 41.8125 3.875 
Q 35.984375 -1.171875 27.484375 -1.171875 
Q 16.84375 -1.171875 10.375 5.78125 
Q 3.90625 12.75 3.90625 25.734375 
Q 3.90625 34.125 6.6875 40.421875 
Q 9.46875 46.734375 15.15625 49.875 
Q 20.84375 53.03125 27.546875 53.03125 
Q 35.984375 53.03125 41.359375 48.75 
Q 46.734375 44.484375 48.25 36.625 
L 39.703125 35.296875 
Q 38.484375 40.53125 35.375 43.15625 
Q 32.28125 45.796875 27.875 45.796875 
Q 21.234375 45.796875 17.078125 41.03125 
Q 12.9375 36.28125 12.9375 25.984375 
Q 12.9375 15.53125 16.9375 10.796875 
Q 20.953125 6.0625 27.390625 6.0625 
Q 32.5625 6.0625 36.03125 9.234375 
Q 39.5 12.40625 40.4375 19 
z
" id="ArialMT-99"/>
      </defs>
      <g style="fill:#262626;" transform="translate(46.336625 138.606154)scale(0.088 -0.088)">
       <use xlink:href="#ArialMT-109"/>
       <use x="83.300781" xlink:href="#ArialMT-105"/>
       <use x="105.517578" xlink:href="#ArialMT-99"/>
       <use x="155.517578" xlink:href="#ArialMT-101"/>
      </g>
     </g>
    </g>
    <g id="ytick_23">
     <g id="line2d_30">
      <g>
       <use style="fill:#262626;stroke:#262626;" x="72.115625" xlink:href="#m3565071201" y="128.561194"/>
      </g>
     </g>
     <g id="text_28">
      <!-- human -->
      <g style="fill:#262626;" transform="translate(38.011 131.710632)scale(0.088 -0.088)">
       <use xlink:href="#ArialMT-104"/>
       <use x="55.615234" xlink:href="#ArialMT-117"/>
       <use x="111.230469" xlink:href="#ArialMT-109"/>
       <use x="194.53125" xlink:href="#ArialMT-97"/>
       <use x="250.146484" xlink:href="#ArialMT-110"/>
      </g>
     </g>
    </g>
    <g id="ytick_24">
     <g id="line2d_31">
      <g>
       <use style="fill:#262626;stroke:#262626;" x="72.115625" xlink:href="#m3565071201" y="121.665672"/>
      </g>
     </g>
     <g id="text_29">
      <!-- specific -->
      <g style="fill:#262626;" transform="translate(35.573125 124.868734)scale(0.088 -0.088)">
       <use xlink:href="#ArialMT-115"/>
       <use x="50" xlink:href="#ArialMT-112"/>
       <use x="105.615234" xlink:href="#ArialMT-101"/>
       <use x="161.230469" xlink:href="#ArialMT-99"/>
       <use x="211.230469" xlink:href="#ArialMT-105"/>
       <use x="233.447266" xlink:href="#ArialMT-102"/>
       <use x="261.230469" xlink:href="#ArialMT-105"/>
       <use x="283.447266" xlink:href="#ArialMT-99"/>
      </g>
     </g>
    </g>
    <g id="ytick_25">
     <g id="line2d_32">
      <g>
       <use style="fill:#262626;stroke:#262626;" x="72.115625" xlink:href="#m3565071201" y="114.770149"/>
      </g>
     </g>
     <g id="text_30">
      <!-- activity -->
      <g style="fill:#262626;" transform="translate(38.022 117.919587)scale(0.088 -0.088)">
       <use xlink:href="#ArialMT-97"/>
       <use x="55.615234" xlink:href="#ArialMT-99"/>
       <use x="105.615234" xlink:href="#ArialMT-116"/>
       <use x="133.398438" xlink:href="#ArialMT-105"/>
       <use x="155.615234" xlink:href="#ArialMT-118"/>
       <use x="205.615234" xlink:href="#ArialMT-105"/>
       <use x="227.832031" xlink:href="#ArialMT-116"/>
       <use x="255.615234" xlink:href="#ArialMT-121"/>
      </g>
     </g>
    </g>
    <g id="ytick_26">
     <g id="line2d_33">
      <g>
       <use style="fill:#262626;stroke:#262626;" x="72.115625" xlink:href="#m3565071201" y="107.874627"/>
      </g>
     </g>
     <g id="text_31">
      <!-- changes -->
      <g style="fill:#262626;" transform="translate(31.6475 111.024064)scale(0.088 -0.088)">
       <use xlink:href="#ArialMT-99"/>
       <use x="50" xlink:href="#ArialMT-104"/>
       <use x="105.615234" xlink:href="#ArialMT-97"/>
       <use x="161.230469" xlink:href="#ArialMT-110"/>
       <use x="216.845703" xlink:href="#ArialMT-103"/>
       <use x="272.460938" xlink:href="#ArialMT-101"/>
       <use x="328.076172" xlink:href="#ArialMT-115"/>
      </g>
     </g>
    </g>
    <g id="ytick_27">
     <g id="line2d_34">
      <g>
       <use style="fill:#262626;stroke:#262626;" x="72.115625" xlink:href="#m3565071201" y="100.979104"/>
      </g>
     </g>
     <g id="text_32">
      <!-- function -->
      <g style="fill:#262626;" transform="translate(34.096375 104.128542)scale(0.088 -0.088)">
       <use xlink:href="#ArialMT-102"/>
       <use x="27.783203" xlink:href="#ArialMT-117"/>
       <use x="83.398438" xlink:href="#ArialMT-110"/>
       <use x="139.013672" xlink:href="#ArialMT-99"/>
       <use x="189.013672" xlink:href="#ArialMT-116"/>
       <use x="216.796875" xlink:href="#ArialMT-105"/>
       <use x="239.013672" xlink:href="#ArialMT-111"/>
       <use x="294.628906" xlink:href="#ArialMT-110"/>
      </g>
     </g>
    </g>
    <g id="ytick_28">
     <g id="line2d_35">
      <g>
       <use style="fill:#262626;stroke:#262626;" x="72.115625" xlink:href="#m3565071201" y="94.083582"/>
      </g>
     </g>
     <g id="text_33">
      <!-- population -->
      <g style="fill:#262626;" transform="translate(24.305 97.23302)scale(0.088 -0.088)">
       <use xlink:href="#ArialMT-112"/>
       <use x="55.615234" xlink:href="#ArialMT-111"/>
       <use x="111.230469" xlink:href="#ArialMT-112"/>
       <use x="166.845703" xlink:href="#ArialMT-117"/>
       <use x="222.460938" xlink:href="#ArialMT-108"/>
       <use x="244.677734" xlink:href="#ArialMT-97"/>
       <use x="300.292969" xlink:href="#ArialMT-116"/>
       <use x="328.076172" xlink:href="#ArialMT-105"/>
       <use x="350.292969" xlink:href="#ArialMT-111"/>
       <use x="405.908203" xlink:href="#ArialMT-110"/>
      </g>
     </g>
    </g>
    <g id="ytick_29">
     <g id="line2d_36">
      <g>
       <use style="fill:#262626;stroke:#262626;" x="72.115625" xlink:href="#m3565071201" y="87.18806"/>
      </g>
     </g>
     <g id="text_34">
      <!-- “ -->
      <defs>
       <path d="M 13.484375 59.578125 
L 13.484375 49.359375 
L 4.046875 49.359375 
L 4.046875 57.421875 
Q 4.046875 63.96875 5.609375 66.890625 
Q 7.671875 70.796875 12.109375 72.796875 
L 14.265625 69.390625 
Q 11.578125 68.265625 10.296875 66.03125 
Q 9.03125 63.8125 8.890625 59.578125 
z
M 28.609375 59.578125 
L 28.609375 49.359375 
L 19.1875 49.359375 
L 19.1875 57.421875 
Q 19.1875 63.96875 20.75 66.890625 
Q 22.796875 70.796875 27.25 72.796875 
L 29.390625 69.390625 
Q 26.703125 68.265625 25.4375 66.03125 
Q 24.171875 63.8125 24.03125 59.578125 
z
" id="ArialMT-8220"/>
      </defs>
      <g style="fill:#262626;" transform="translate(61.9855 90.337497)scale(0.088 -0.088)">
       <use xlink:href="#ArialMT-8220"/>
      </g>
     </g>
    </g>
    <g id="ytick_30">
     <g id="line2d_37">
      <g>
       <use style="fill:#262626;stroke:#262626;" x="72.115625" xlink:href="#m3565071201" y="80.292537"/>
      </g>
     </g>
     <g id="text_35">
      <!-- effects -->
      <g style="fill:#262626;" transform="translate(38.9955 83.441975)scale(0.088 -0.088)">
       <use xlink:href="#ArialMT-101"/>
       <use x="55.615234" xlink:href="#ArialMT-102"/>
       <use x="83.382812" xlink:href="#ArialMT-102"/>
       <use x="111.166016" xlink:href="#ArialMT-101"/>
       <use x="166.78125" xlink:href="#ArialMT-99"/>
       <use x="216.78125" xlink:href="#ArialMT-116"/>
       <use x="244.564453" xlink:href="#ArialMT-115"/>
      </g>
     </g>
    </g>
    <g id="ytick_31">
     <g id="line2d_38">
      <g>
       <use style="fill:#262626;stroke:#262626;" x="72.115625" xlink:href="#m3565071201" y="73.397015"/>
      </g>
     </g>
     <g id="text_36">
      <!-- large -->
      <g style="fill:#262626;" transform="translate(45.349375 76.546452)scale(0.088 -0.088)">
       <use xlink:href="#ArialMT-108"/>
       <use x="22.216797" xlink:href="#ArialMT-97"/>
       <use x="77.832031" xlink:href="#ArialMT-114"/>
       <use x="111.132812" xlink:href="#ArialMT-103"/>
       <use x="166.748047" xlink:href="#ArialMT-101"/>
      </g>
     </g>
    </g>
    <g id="ytick_32">
     <g id="line2d_39">
      <g>
       <use style="fill:#262626;stroke:#262626;" x="72.115625" xlink:href="#m3565071201" y="66.501493"/>
      </g>
     </g>
     <g id="text_37">
      <!-- figure -->
      <g style="fill:#262626;" transform="translate(42.904625 69.704555)scale(0.088 -0.088)">
       <use xlink:href="#ArialMT-102"/>
       <use x="27.783203" xlink:href="#ArialMT-105"/>
       <use x="50" xlink:href="#ArialMT-103"/>
       <use x="105.615234" xlink:href="#ArialMT-117"/>
       <use x="161.230469" xlink:href="#ArialMT-114"/>
       <use x="194.53125" xlink:href="#ArialMT-101"/>
      </g>
     </g>
    </g>
    <g id="ytick_33">
     <g id="line2d_40">
      <g>
       <use style="fill:#262626;stroke:#262626;" x="72.115625" xlink:href="#m3565071201" y="59.60597"/>
      </g>
     </g>
     <g id="text_38">
      <!-- studies -->
      <g style="fill:#262626;" transform="translate(37.03475 62.755408)scale(0.088 -0.088)">
       <use xlink:href="#ArialMT-115"/>
       <use x="50" xlink:href="#ArialMT-116"/>
       <use x="77.783203" xlink:href="#ArialMT-117"/>
       <use x="133.398438" xlink:href="#ArialMT-100"/>
       <use x="189.013672" xlink:href="#ArialMT-105"/>
       <use x="211.230469" xlink:href="#ArialMT-101"/>
       <use x="266.845703" xlink:href="#ArialMT-115"/>
      </g>
     </g>
    </g>
    <g id="ytick_34">
     <g id="line2d_41">
      <g>
       <use style="fill:#262626;stroke:#262626;" x="72.115625" xlink:href="#m3565071201" y="52.710448"/>
      </g>
     </g>
     <g id="text_39">
      <!-- ” -->
      <defs>
       <path d="M 4.25 62.109375 
L 4.25 72.3125 
L 13.671875 72.3125 
L 13.671875 64.265625 
Q 13.671875 57.71875 12.15625 54.828125 
Q 10.0625 50.875 5.609375 48.875 
L 3.46875 52.34375 
Q 6.109375 53.421875 7.390625 55.734375 
Q 8.6875 58.0625 8.84375 62.109375 
z
M 19.390625 62.109375 
L 19.390625 72.3125 
L 28.8125 72.3125 
L 28.8125 64.265625 
Q 28.8125 57.71875 27.296875 54.828125 
Q 25.203125 50.875 20.75 48.875 
L 18.609375 52.34375 
Q 21.234375 53.421875 22.53125 55.734375 
Q 23.828125 58.0625 23.96875 62.109375 
z
" id="ArialMT-8221"/>
      </defs>
      <g style="fill:#262626;" transform="translate(61.9855 55.859885)scale(0.088 -0.088)">
       <use xlink:href="#ArialMT-8221"/>
      </g>
     </g>
    </g>
    <g id="ytick_35">
     <g id="line2d_42">
      <g>
       <use style="fill:#262626;stroke:#262626;" x="72.115625" xlink:href="#m3565071201" y="45.814925"/>
      </g>
     </g>
     <g id="text_40">
      <!-- binding -->
      <g style="fill:#262626;" transform="translate(36.537 48.964363)scale(0.088 -0.088)">
       <use xlink:href="#ArialMT-98"/>
       <use x="55.615234" xlink:href="#ArialMT-105"/>
       <use x="77.832031" xlink:href="#ArialMT-110"/>
       <use x="133.447266" xlink:href="#ArialMT-100"/>
       <use x="189.0625" xlink:href="#ArialMT-105"/>
       <use x="211.279297" xlink:href="#ArialMT-110"/>
       <use x="266.894531" xlink:href="#ArialMT-103"/>
      </g>
     </g>
    </g>
    <g id="ytick_36">
     <g id="line2d_43">
      <g>
       <use style="fill:#262626;stroke:#262626;" x="72.115625" xlink:href="#m3565071201" y="38.919403"/>
      </g>
     </g>
     <g id="text_41">
      <!-- et -->
      <g style="fill:#262626;" transform="translate(57.57725 42.06884)scale(0.088 -0.088)">
       <use xlink:href="#ArialMT-101"/>
       <use x="55.615234" xlink:href="#ArialMT-116"/>
      </g>
     </g>
    </g>
    <g id="ytick_37">
     <g id="line2d_44">
      <g>
       <use style="fill:#262626;stroke:#262626;" x="72.115625" xlink:href="#m3565071201" y="32.023881"/>
      </g>
     </g>
     <g id="text_42">
      <!-- non -->
      <g style="fill:#262626;" transform="translate(50.23475 35.173318)scale(0.088 -0.088)">
       <use xlink:href="#ArialMT-110"/>
       <use x="55.615234" xlink:href="#ArialMT-111"/>
       <use x="111.230469" xlink:href="#ArialMT-110"/>
      </g>
     </g>
    </g>
    <g id="ytick_38">
     <g id="line2d_45">
      <g>
       <use style="fill:#262626;stroke:#262626;" x="72.115625" xlink:href="#m3565071201" y="25.128358"/>
      </g>
     </g>
     <g id="text_43">
      <!-- genetic -->
      <g style="fill:#262626;" transform="translate(36.541125 28.277796)scale(0.088 -0.088)">
       <use xlink:href="#ArialMT-103"/>
       <use x="55.615234" xlink:href="#ArialMT-101"/>
       <use x="111.230469" xlink:href="#ArialMT-110"/>
       <use x="166.845703" xlink:href="#ArialMT-101"/>
       <use x="222.460938" xlink:href="#ArialMT-116"/>
       <use x="250.244141" xlink:href="#ArialMT-105"/>
       <use x="272.460938" xlink:href="#ArialMT-99"/>
      </g>
     </g>
    </g>
    <g id="ytick_39">
     <g id="line2d_46">
      <g>
       <use style="fill:#262626;stroke:#262626;" x="72.115625" xlink:href="#m3565071201" y="18.232836"/>
      </g>
     </g>
     <g id="text_44">
      <!-- al -->
      <g style="fill:#262626;" transform="translate(58.06675 21.382273)scale(0.088 -0.088)">
       <use xlink:href="#ArialMT-97"/>
       <use x="55.615234" xlink:href="#ArialMT-108"/>
      </g>
     </g>
    </g>
    <g id="ytick_40">
     <g id="line2d_47">
      <g>
       <use style="fill:#262626;stroke:#262626;" x="72.115625" xlink:href="#m3565071201" y="11.337313"/>
      </g>
     </g>
     <g id="text_45">
      <!-- ’ -->
      <defs>
       <path d="M 6.0625 62.109375 
L 6.0625 72.3125 
L 15.484375 72.3125 
L 15.484375 64.265625 
Q 15.484375 57.71875 13.96875 54.828125 
Q 11.859375 50.875 7.421875 48.875 
L 5.28125 52.34375 
Q 7.90625 53.421875 9.203125 55.734375 
Q 10.5 58.0625 10.640625 62.109375 
z
" id="ArialMT-8217"/>
      </defs>
      <g style="fill:#262626;" transform="translate(62.960375 14.486751)scale(0.088 -0.088)">
       <use xlink:href="#ArialMT-8217"/>
      </g>
     </g>
    </g>
   </g>
   <g id="LineCollection_1">
    <path clip-path="url(#p362dee36e2)" d="M 304.492091 183.725373 
L 306.63607 183.725373 
" style="fill:none;stroke:#253494;stroke-width:0.531736;"/>
   </g>
   <g id="PathCollection_1">
    <defs>
     <path d="M 0 1.506586 
C 0.399551 1.506586 0.782792 1.347842 1.065317 1.065317 
C 1.347842 0.782792 1.506586 0.399551 1.506586 0 
C 1.506586 -0.399551 1.347842 -0.782792 1.065317 -1.065317 
C 0.782792 -1.347842 0.399551 -1.506586 0 -1.506586 
C -0.399551 -1.506586 -0.782792 -1.347842 -1.065317 -1.065317 
C -1.347842 -0.782792 -1.506586 -0.399551 -1.506586 0 
C -1.506586 0.399551 -1.347842 0.782792 -1.065317 1.065317 
C -0.782792 1.347842 -0.399551 1.506586 0 1.506586 
z
" id="m066e328c15" style="stroke:#253494;stroke-width:0.886227;"/>
    </defs>
    <g clip-path="url(#p362dee36e2)">
     <use style="fill:#253494;stroke:#253494;stroke-width:0.886227;" x="305.561427" xlink:href="#m066e328c15" y="183.725373"/>
    </g>
   </g>
   <g id="LineCollection_2">
    <path clip-path="url(#p362dee36e2)" d="M 306.228635 169.934328 
L 309.552349 169.934328 
" style="fill:none;stroke:#253494;stroke-width:0.531736;"/>
   </g>
   <g id="PathCollection_2">
    <g clip-path="url(#p362dee36e2)">
     <use style="fill:#253494;stroke:#253494;stroke-width:0.886227;" x="307.884183" xlink:href="#m066e328c15" y="169.934328"/>
    </g>
   </g>
   <g id="LineCollection_3">
    <path clip-path="url(#p362dee36e2)" d="M 340.013394 114.770149 
L 344.238539 114.770149 
" style="fill:none;stroke:#253494;stroke-width:0.531736;"/>
   </g>
   <g id="PathCollection_3">
    <g clip-path="url(#p362dee36e2)">
     <use style="fill:#253494;stroke:#253494;stroke-width:0.886227;" x="342.11715" xlink:href="#m066e328c15" y="114.770149"/>
    </g>
   </g>
   <g id="LineCollection_4">
    <path clip-path="url(#p362dee36e2)" d="M 192.417669 273.367164 
L 194.557427 273.367164 
" style="fill:none;stroke:#253494;stroke-width:0.531736;"/>
   </g>
   <g id="PathCollection_4">
    <g clip-path="url(#p362dee36e2)">
     <use style="fill:#253494;stroke:#253494;stroke-width:0.886227;" x="193.48207" xlink:href="#m066e328c15" y="273.367164"/>
    </g>
   </g>
   <g id="LineCollection_5">
    <path clip-path="url(#p362dee36e2)" d="M 365.549617 18.232836 
L 367.736006 18.232836 
" style="fill:none;stroke:#253494;stroke-width:0.531736;"/>
   </g>
   <g id="PathCollection_5">
    <g clip-path="url(#p362dee36e2)">
     <use style="fill:#253494;stroke:#253494;stroke-width:0.886227;" x="366.640659" xlink:href="#m066e328c15" y="18.232836"/>
    </g>
   </g>
   <g id="LineCollection_6">
    <path clip-path="url(#p362dee36e2)" d="M 349.486362 45.814925 
L 354.255076 45.814925 
" style="fill:none;stroke:#253494;stroke-width:0.531736;"/>
   </g>
   <g id="PathCollection_6">
    <g clip-path="url(#p362dee36e2)">
     <use style="fill:#253494;stroke:#253494;stroke-width:0.886227;" x="351.859905" xlink:href="#m066e328c15" y="45.814925"/>
    </g>
   </g>
   <g id="LineCollection_7">
    <path clip-path="url(#p362dee36e2)" d="M 340.429569 107.874627 
L 345.489084 107.874627 
" style="fill:none;stroke:#253494;stroke-width:0.531736;"/>
   </g>
   <g id="PathCollection_7">
    <g clip-path="url(#p362dee36e2)">
     <use style="fill:#253494;stroke:#253494;stroke-width:0.886227;" x="342.946726" xlink:href="#m066e328c15" y="107.874627"/>
    </g>
   </g>
   <g id="LineCollection_8">
    <path clip-path="url(#p362dee36e2)" d="M 284.274523 218.202985 
L 286.030242 218.202985 
" style="fill:none;stroke:#253494;stroke-width:0.531736;"/>
   </g>
   <g id="PathCollection_8">
    <g clip-path="url(#p362dee36e2)">
     <use style="fill:#253494;stroke:#253494;stroke-width:0.886227;" x="285.150418" xlink:href="#m066e328c15" y="218.202985"/>
    </g>
   </g>
   <g id="LineCollection_9">
    <path clip-path="url(#p362dee36e2)" d="M 344.315253 80.292537 
L 349.220089 80.292537 
" style="fill:none;stroke:#253494;stroke-width:0.531736;"/>
   </g>
   <g id="PathCollection_9">
    <g clip-path="url(#p362dee36e2)">
     <use style="fill:#253494;stroke:#253494;stroke-width:0.886227;" x="346.756004" xlink:href="#m066e328c15" y="80.292537"/>
    </g>
   </g>
   <g id="LineCollection_10">
    <path clip-path="url(#p362dee36e2)" d="M 362.089352 38.919403 
L 364.233209 38.919403 
" style="fill:none;stroke:#253494;stroke-width:0.531736;"/>
   </g>
   <g id="PathCollection_10">
    <g clip-path="url(#p362dee36e2)">
     <use style="fill:#253494;stroke:#253494;stroke-width:0.886227;" x="363.159185" xlink:href="#m066e328c15" y="38.919403"/>
    </g>
   </g>
   <g id="LineCollection_11">
    <path clip-path="url(#p362dee36e2)" d="M 278.984032 225.098507 
L 280.733661 225.098507 
" style="fill:none;stroke:#253494;stroke-width:0.531736;"/>
   </g>
   <g id="PathCollection_11">
    <g clip-path="url(#p362dee36e2)">
     <use style="fill:#253494;stroke:#253494;stroke-width:0.886227;" x="279.856842" xlink:href="#m066e328c15" y="225.098507"/>
    </g>
   </g>
   <g id="LineCollection_12">
    <path clip-path="url(#p362dee36e2)" d="M 346.397205 66.501493 
L 349.027723 66.501493 
" style="fill:none;stroke:#253494;stroke-width:0.531736;"/>
   </g>
   <g id="PathCollection_12">
    <g clip-path="url(#p362dee36e2)">
     <use style="fill:#253494;stroke:#253494;stroke-width:0.886227;" x="347.709121" xlink:href="#m066e328c15" y="66.501493"/>
    </g>
   </g>
   <g id="LineCollection_13">
    <path clip-path="url(#p362dee36e2)" d="M 142.889596 280.262687 
L 144.385668 280.262687 
" style="fill:none;stroke:#253494;stroke-width:0.531736;"/>
   </g>
   <g id="PathCollection_13">
    <g clip-path="url(#p362dee36e2)">
     <use style="fill:#253494;stroke:#253494;stroke-width:0.886227;" x="143.63251" xlink:href="#m066e328c15" y="280.262687"/>
    </g>
   </g>
   <g id="LineCollection_14">
    <path clip-path="url(#p362dee36e2)" d="M 341.366332 100.979104 
L 345.906527 100.979104 
" style="fill:none;stroke:#253494;stroke-width:0.531736;"/>
   </g>
   <g id="PathCollection_14">
    <g clip-path="url(#p362dee36e2)">
     <use style="fill:#253494;stroke:#253494;stroke-width:0.886227;" x="343.62631" xlink:href="#m066e328c15" y="100.979104"/>
    </g>
   </g>
   <g id="LineCollection_15">
    <path clip-path="url(#p362dee36e2)" d="M 363.902046 25.128358 
L 369.375783 25.128358 
" style="fill:none;stroke:#253494;stroke-width:0.531736;"/>
   </g>
   <g id="PathCollection_15">
    <g clip-path="url(#p362dee36e2)">
     <use style="fill:#253494;stroke:#253494;stroke-width:0.886227;" x="366.625424" xlink:href="#m066e328c15" y="25.128358"/>
    </g>
   </g>
   <g id="LineCollection_16">
    <path clip-path="url(#p362dee36e2)" d="M 337.292443 128.561194 
L 341.844138 128.561194 
" style="fill:none;stroke:#253494;stroke-width:0.531736;"/>
   </g>
   <g id="PathCollection_16">
    <g clip-path="url(#p362dee36e2)">
     <use style="fill:#253494;stroke:#253494;stroke-width:0.886227;" x="339.557955" xlink:href="#m066e328c15" y="128.561194"/>
    </g>
   </g>
   <g id="LineCollection_17">
    <path clip-path="url(#p362dee36e2)" d="M 344.114974 73.397015 
L 349.424684 73.397015 
" style="fill:none;stroke:#253494;stroke-width:0.531736;"/>
   </g>
   <g id="PathCollection_17">
    <g clip-path="url(#p362dee36e2)">
     <use style="fill:#253494;stroke:#253494;stroke-width:0.886227;" x="346.756157" xlink:href="#m066e328c15" y="73.397015"/>
    </g>
   </g>
   <g id="LineCollection_18">
    <path clip-path="url(#p362dee36e2)" d="M 303.905793 176.829851 
L 307.784528 176.829851 
" style="fill:none;stroke:#253494;stroke-width:0.531736;"/>
   </g>
   <g id="PathCollection_18">
    <g clip-path="url(#p362dee36e2)">
     <use style="fill:#253494;stroke:#253494;stroke-width:0.886227;" x="305.836488" xlink:href="#m066e328c15" y="176.829851"/>
    </g>
   </g>
   <g id="LineCollection_19">
    <path clip-path="url(#p362dee36e2)" d="M 336.603389 135.456716 
L 341.678727 135.456716 
" style="fill:none;stroke:#253494;stroke-width:0.531736;"/>
   </g>
   <g id="PathCollection_19">
    <g clip-path="url(#p362dee36e2)">
     <use style="fill:#253494;stroke:#253494;stroke-width:0.886227;" x="339.128185" xlink:href="#m066e328c15" y="135.456716"/>
    </g>
   </g>
   <g id="LineCollection_20">
    <path clip-path="url(#p362dee36e2)" d="M 273.371281 238.889552 
L 276.951512 238.889552 
" style="fill:none;stroke:#253494;stroke-width:0.531736;"/>
   </g>
   <g id="PathCollection_20">
    <g clip-path="url(#p362dee36e2)">
     <use style="fill:#253494;stroke:#253494;stroke-width:0.886227;" x="275.152789" xlink:href="#m066e328c15" y="238.889552"/>
    </g>
   </g>
   <g id="LineCollection_21">
    <path clip-path="url(#p362dee36e2)" d="M 235.556104 245.785075 
L 238.064177 245.785075 
" style="fill:none;stroke:#253494;stroke-width:0.531736;"/>
   </g>
   <g id="PathCollection_21">
    <g clip-path="url(#p362dee36e2)">
     <use style="fill:#253494;stroke:#253494;stroke-width:0.886227;" x="236.80482" xlink:href="#m066e328c15" y="245.785075"/>
    </g>
   </g>
   <g id="LineCollection_22">
    <path clip-path="url(#p362dee36e2)" d="M 362.927675 32.023881 
L 367.601022 32.023881 
" style="fill:none;stroke:#253494;stroke-width:0.531736;"/>
   </g>
   <g id="PathCollection_22">
    <g clip-path="url(#p362dee36e2)">
     <use style="fill:#253494;stroke:#253494;stroke-width:0.886227;" x="365.254466" xlink:href="#m066e328c15" y="32.023881"/>
    </g>
   </g>
   <g id="LineCollection_23">
    <path clip-path="url(#p362dee36e2)" d="M 274.50364 231.99403 
L 277.052672 231.99403 
" style="fill:none;stroke:#253494;stroke-width:0.531736;"/>
   </g>
   <g id="PathCollection_23">
    <g clip-path="url(#p362dee36e2)">
     <use style="fill:#253494;stroke:#253494;stroke-width:0.886227;" x="275.773807" xlink:href="#m066e328c15" y="231.99403"/>
    </g>
   </g>
   <g id="LineCollection_24">
    <path clip-path="url(#p362dee36e2)" d="M 298.817744 197.516418 
L 302.431523 197.516418 
" style="fill:none;stroke:#253494;stroke-width:0.531736;"/>
   </g>
   <g id="PathCollection_24">
    <g clip-path="url(#p362dee36e2)">
     <use style="fill:#253494;stroke:#253494;stroke-width:0.886227;" x="300.616919" xlink:href="#m066e328c15" y="197.516418"/>
    </g>
   </g>
   <g id="LineCollection_25">
    <path clip-path="url(#p362dee36e2)" d="M 343.283223 94.083582 
L 347.71801 94.083582 
" style="fill:none;stroke:#253494;stroke-width:0.531736;"/>
   </g>
   <g id="PathCollection_25">
    <g clip-path="url(#p362dee36e2)">
     <use style="fill:#253494;stroke:#253494;stroke-width:0.886227;" x="345.491032" xlink:href="#m066e328c15" y="94.083582"/>
    </g>
   </g>
   <g id="LineCollection_26">
    <path clip-path="url(#p362dee36e2)" d="M 336.101975 142.352239 
L 340.623416 142.352239 
" style="fill:none;stroke:#253494;stroke-width:0.531736;"/>
   </g>
   <g id="PathCollection_26">
    <g clip-path="url(#p362dee36e2)">
     <use style="fill:#253494;stroke:#253494;stroke-width:0.886227;" x="338.352447" xlink:href="#m066e328c15" y="142.352239"/>
    </g>
   </g>
   <g id="LineCollection_27">
    <path clip-path="url(#p362dee36e2)" d="M 306.652797 163.038806 
L 310.131554 163.038806 
" style="fill:none;stroke:#253494;stroke-width:0.531736;"/>
   </g>
   <g id="PathCollection_27">
    <g clip-path="url(#p362dee36e2)">
     <use style="fill:#253494;stroke:#253494;stroke-width:0.886227;" x="308.38528" xlink:href="#m066e328c15" y="163.038806"/>
    </g>
   </g>
   <g id="LineCollection_28">
    <path clip-path="url(#p362dee36e2)" d="M 338.303461 121.665672 
L 342.26847 121.665672 
" style="fill:none;stroke:#253494;stroke-width:0.531736;"/>
   </g>
   <g id="PathCollection_28">
    <g clip-path="url(#p362dee36e2)">
     <use style="fill:#253494;stroke:#253494;stroke-width:0.886227;" x="340.278145" xlink:href="#m066e328c15" y="121.665672"/>
    </g>
   </g>
   <g id="LineCollection_29">
    <path clip-path="url(#p362dee36e2)" d="M 346.942665 59.60597 
L 351.594492 59.60597 
" style="fill:none;stroke:#253494;stroke-width:0.531736;"/>
   </g>
   <g id="PathCollection_29">
    <g clip-path="url(#p362dee36e2)">
     <use style="fill:#253494;stroke:#253494;stroke-width:0.886227;" x="349.258185" xlink:href="#m066e328c15" y="59.60597"/>
    </g>
   </g>
   <g id="LineCollection_30">
    <path clip-path="url(#p362dee36e2)" d="M 227.157512 252.680597 
L 229.522923 252.680597 
" style="fill:none;stroke:#253494;stroke-width:0.531736;"/>
   </g>
   <g id="PathCollection_30">
    <g clip-path="url(#p362dee36e2)">
     <use style="fill:#253494;stroke:#253494;stroke-width:0.886227;" x="228.335198" xlink:href="#m066e328c15" y="252.680597"/>
    </g>
   </g>
   <g id="LineCollection_31">
    <path clip-path="url(#p362dee36e2)" d="M 298.905491 204.41194 
L 302.129025 204.41194 
" style="fill:none;stroke:#253494;stroke-width:0.531736;"/>
   </g>
   <g id="PathCollection_31">
    <g clip-path="url(#p362dee36e2)">
     <use style="fill:#253494;stroke:#253494;stroke-width:0.886227;" x="300.511117" xlink:href="#m066e328c15" y="204.41194"/>
    </g>
   </g>
   <g id="LineCollection_32">
    <path clip-path="url(#p362dee36e2)" d="M 307.585721 149.247761 
L 311.782917 149.247761 
" style="fill:none;stroke:#253494;stroke-width:0.531736;"/>
   </g>
   <g id="PathCollection_32">
    <g clip-path="url(#p362dee36e2)">
     <use style="fill:#253494;stroke:#253494;stroke-width:0.886227;" x="309.67434" xlink:href="#m066e328c15" y="149.247761"/>
    </g>
   </g>
   <g id="LineCollection_33">
    <path clip-path="url(#p362dee36e2)" d="M 306.39684 156.143284 
L 310.653306 156.143284 
" style="fill:none;stroke:#253494;stroke-width:0.531736;"/>
   </g>
   <g id="PathCollection_33">
    <g clip-path="url(#p362dee36e2)">
     <use style="fill:#253494;stroke:#253494;stroke-width:0.886227;" x="308.514756" xlink:href="#m066e328c15" y="156.143284"/>
    </g>
   </g>
   <g id="LineCollection_34">
    <path clip-path="url(#p362dee36e2)" d="M 301.553165 190.620896 
L 305.036632 190.620896 
" style="fill:none;stroke:#253494;stroke-width:0.531736;"/>
   </g>
   <g id="PathCollection_34">
    <g clip-path="url(#p362dee36e2)">
     <use style="fill:#253494;stroke:#253494;stroke-width:0.886227;" x="303.28782" xlink:href="#m066e328c15" y="190.620896"/>
    </g>
   </g>
   <g id="LineCollection_35">
    <path clip-path="url(#p362dee36e2)" d="M 284.809088 211.307463 
L 288.294246 211.307463 
" style="fill:none;stroke:#253494;stroke-width:0.531736;"/>
   </g>
   <g id="PathCollection_35">
    <g clip-path="url(#p362dee36e2)">
     <use style="fill:#253494;stroke:#253494;stroke-width:0.886227;" x="286.543981" xlink:href="#m066e328c15" y="211.307463"/>
    </g>
   </g>
   <g id="LineCollection_36">
    <path clip-path="url(#p362dee36e2)" d="M 194.01004 266.471642 
L 196.438076 266.471642 
" style="fill:none;stroke:#253494;stroke-width:0.531736;"/>
   </g>
   <g id="PathCollection_36">
    <g clip-path="url(#p362dee36e2)">
     <use style="fill:#253494;stroke:#253494;stroke-width:0.886227;" x="195.21712" xlink:href="#m066e328c15" y="266.471642"/>
    </g>
   </g>
   <g id="LineCollection_37">
    <path clip-path="url(#p362dee36e2)" d="M 212.400185 259.576119 
L 214.711205 259.576119 
" style="fill:none;stroke:#253494;stroke-width:0.531736;"/>
   </g>
   <g id="PathCollection_37">
    <g clip-path="url(#p362dee36e2)">
     <use style="fill:#253494;stroke:#253494;stroke-width:0.886227;" x="213.550335" xlink:href="#m066e328c15" y="259.576119"/>
    </g>
   </g>
   <g id="LineCollection_38">
    <path clip-path="url(#p362dee36e2)" d="M 364.909235 11.337313 
L 369.769549 11.337313 
" style="fill:none;stroke:#253494;stroke-width:0.531736;"/>
   </g>
   <g id="PathCollection_38">
    <g clip-path="url(#p362dee36e2)">
     <use style="fill:#253494;stroke:#253494;stroke-width:0.886227;" x="367.328783" xlink:href="#m066e328c15" y="11.337313"/>
    </g>
   </g>
   <g id="LineCollection_39">
    <path clip-path="url(#p362dee36e2)" d="M 343.865787 87.18806 
L 348.309488 87.18806 
" style="fill:none;stroke:#253494;stroke-width:0.531736;"/>
   </g>
   <g id="PathCollection_39">
    <g clip-path="url(#p362dee36e2)">
     <use style="fill:#253494;stroke:#253494;stroke-width:0.886227;" x="346.078036" xlink:href="#m066e328c15" y="87.18806"/>
    </g>
   </g>
   <g id="LineCollection_40">
    <path clip-path="url(#p362dee36e2)" d="M 348.361514 52.710448 
L 352.884602 52.710448 
" style="fill:none;stroke:#253494;stroke-width:0.531736;"/>
   </g>
   <g id="PathCollection_40">
    <g clip-path="url(#p362dee36e2)">
     <use style="fill:#253494;stroke:#253494;stroke-width:0.886227;" x="350.613283" xlink:href="#m066e328c15" y="52.710448"/>
    </g>
   </g>
   <g id="LineCollection_41">
    <path clip-path="url(#p362dee36e2)" d="M 314.236898 284.4 
L 314.236898 7.2 
" style="fill:none;stroke:#808080;stroke-dasharray:3.27904,1.417963;stroke-dashoffset:0;stroke-width:0.886227;"/>
   </g>
   <g id="patch_3">
    <path d="M 72.115625 284.4 
L 72.115625 7.2 
" style="fill:none;stroke:#262626;stroke-linecap:square;stroke-linejoin:miter;"/>
   </g>
   <g id="patch_4">
    <path d="M 443.743625 284.4 
L 443.743625 7.2 
" style="fill:none;stroke:#262626;stroke-linecap:square;stroke-linejoin:miter;"/>
   </g>
   <g id="patch_5">
    <path d="M 72.115625 284.4 
L 443.743625 284.4 
" style="fill:none;stroke:#262626;stroke-linecap:square;stroke-linejoin:miter;"/>
   </g>
   <g id="patch_6">
    <path d="M 72.115625 7.2 
L 443.743625 7.2 
" style="fill:none;stroke:#262626;stroke-linecap:square;stroke-linejoin:miter;"/>
   </g>
  </g>
 </g>
 <defs>
  <clipPath id="p362dee36e2">
   <rect height="277.2" width="371.628" x="72.115625" y="7.2"/>
  </clipPath>
 </defs>
</svg>
