<?xml version="1.0" encoding="utf-8" standalone="no"?>
<!DOCTYPE svg PUBLIC "-//W3C//DTD SVG 1.1//EN"
  "http://www.w3.org/Graphics/SVG/1.1/DTD/svg11.dtd">
<!-- Created with matplotlib (https://matplotlib.org/) -->
<svg height="638.468725pt" version="1.1" viewBox="0 0 891.266282 638.468725" width="891.266282pt" xmlns="http://www.w3.org/2000/svg" xmlns:xlink="http://www.w3.org/1999/xlink">
 <defs>
  <style type="text/css">
*{stroke-linecap:butt;stroke-linejoin:round;}
  </style>
 </defs>
 <g id="figure_1">
  <g id="patch_1">
   <path d="M 0 638.468725 
L 891.266282 638.468725 
L 891.266282 0 
L 0 0 
z
" style="fill:#ffffff;"/>
  </g>
  <g id="axes_1">
   <g id="patch_2">
    <path d="M 104.98125 593.9056 
L 482.30925 593.9056 
L 482.30925 26.2 
L 104.98125 26.2 
z
" style="fill:#eaeaf2;"/>
   </g>
   <g id="matplotlib.axis_1">
    <g id="xtick_1">
     <g id="line2d_1">
      <path clip-path="url(#pfad9a93bf6)" d="M 122.132523 593.9056 
L 122.132523 26.2 
" style="fill:none;stroke:#ffffff;stroke-linecap:round;stroke-width:0.8;"/>
     </g>
     <g id="line2d_2">
      <defs>
       <path d="M 0 0 
L 0 4.8 
" id="m32f8d36458" style="stroke:#262626;"/>
      </defs>
      <g>
       <use style="fill:#262626;stroke:#262626;" x="122.132523" xlink:href="#m32f8d36458" y="593.9056"/>
      </g>
     </g>
     <g id="text_1">
      <!-- 0 -->
      <defs>
       <path d="M 46 36.53125 
Q 46 50.203125 43.4375 55.78125 
Q 40.875 61.375 34.8125 61.375 
Q 28.765625 61.375 26.171875 55.78125 
Q 23.578125 50.203125 23.578125 36.53125 
Q 23.578125 22.703125 26.171875 17.03125 
Q 28.765625 11.375 34.8125 11.375 
Q 40.828125 11.375 43.40625 17.03125 
Q 46 22.703125 46 36.53125 
z
M 64.796875 36.375 
Q 64.796875 18.265625 56.984375 8.421875 
Q 49.171875 -1.421875 34.8125 -1.421875 
Q 20.40625 -1.421875 12.59375 8.421875 
Q 4.78125 18.265625 4.78125 36.375 
Q 4.78125 54.546875 12.59375 64.375 
Q 20.40625 74.21875 34.8125 74.21875 
Q 49.171875 74.21875 56.984375 64.375 
Q 64.796875 54.546875 64.796875 36.375 
z
" id="DejaVuSans-Bold-48"/>
      </defs>
      <g style="fill:#262626;" transform="translate(118.305726 609.463881)scale(0.11 -0.11)">
       <use xlink:href="#DejaVuSans-Bold-48"/>
      </g>
     </g>
    </g>
    <g id="xtick_2">
     <g id="line2d_3">
      <path clip-path="url(#pfad9a93bf6)" d="M 210.221482 593.9056 
L 210.221482 26.2 
" style="fill:none;stroke:#ffffff;stroke-linecap:round;stroke-width:0.8;"/>
     </g>
     <g id="line2d_4">
      <g>
       <use style="fill:#262626;stroke:#262626;" x="210.221482" xlink:href="#m32f8d36458" y="593.9056"/>
      </g>
     </g>
     <g id="text_2">
      <!-- 100,000 -->
      <defs>
       <path d="M 11.71875 12.984375 
L 28.328125 12.984375 
L 28.328125 60.109375 
L 11.28125 56.59375 
L 11.28125 69.390625 
L 28.21875 72.90625 
L 46.09375 72.90625 
L 46.09375 12.984375 
L 62.703125 12.984375 
L 62.703125 0 
L 11.71875 0 
z
" id="DejaVuSans-Bold-49"/>
       <path d="M 10.203125 18.890625 
L 27.78125 18.890625 
L 27.78125 4 
L 15.71875 -14.203125 
L 5.328125 -14.203125 
L 10.203125 4 
z
" id="DejaVuSans-Bold-44"/>
      </defs>
      <g style="fill:#262626;" transform="translate(185.17156 609.463881)scale(0.11 -0.11)">
       <use xlink:href="#DejaVuSans-Bold-49"/>
       <use x="69.580078" xlink:href="#DejaVuSans-Bold-48"/>
       <use x="139.160156" xlink:href="#DejaVuSans-Bold-48"/>
       <use x="208.740234" xlink:href="#DejaVuSans-Bold-44"/>
       <use x="246.728516" xlink:href="#DejaVuSans-Bold-48"/>
       <use x="316.308594" xlink:href="#DejaVuSans-Bold-48"/>
       <use x="385.888672" xlink:href="#DejaVuSans-Bold-48"/>
      </g>
     </g>
    </g>
    <g id="xtick_3">
     <g id="line2d_5">
      <path clip-path="url(#pfad9a93bf6)" d="M 298.310441 593.9056 
L 298.310441 26.2 
" style="fill:none;stroke:#ffffff;stroke-linecap:round;stroke-width:0.8;"/>
     </g>
     <g id="line2d_6">
      <g>
       <use style="fill:#262626;stroke:#262626;" x="298.310441" xlink:href="#m32f8d36458" y="593.9056"/>
      </g>
     </g>
     <g id="text_3">
      <!-- 200,000 -->
      <defs>
       <path d="M 28.8125 13.8125 
L 60.890625 13.8125 
L 60.890625 0 
L 7.90625 0 
L 7.90625 13.8125 
L 34.515625 37.3125 
Q 38.09375 40.53125 39.796875 43.609375 
Q 41.5 46.6875 41.5 50 
Q 41.5 55.125 38.0625 58.25 
Q 34.625 61.375 28.90625 61.375 
Q 24.515625 61.375 19.28125 59.5 
Q 14.0625 57.625 8.109375 53.90625 
L 8.109375 69.921875 
Q 14.453125 72.015625 20.65625 73.109375 
Q 26.859375 74.21875 32.8125 74.21875 
Q 45.90625 74.21875 53.15625 68.453125 
Q 60.40625 62.703125 60.40625 52.390625 
Q 60.40625 46.4375 57.328125 41.28125 
Q 54.25 36.140625 44.390625 27.484375 
z
" id="DejaVuSans-Bold-50"/>
      </defs>
      <g style="fill:#262626;" transform="translate(273.260519 609.463881)scale(0.11 -0.11)">
       <use xlink:href="#DejaVuSans-Bold-50"/>
       <use x="69.580078" xlink:href="#DejaVuSans-Bold-48"/>
       <use x="139.160156" xlink:href="#DejaVuSans-Bold-48"/>
       <use x="208.740234" xlink:href="#DejaVuSans-Bold-44"/>
       <use x="246.728516" xlink:href="#DejaVuSans-Bold-48"/>
       <use x="316.308594" xlink:href="#DejaVuSans-Bold-48"/>
       <use x="385.888672" xlink:href="#DejaVuSans-Bold-48"/>
      </g>
     </g>
    </g>
    <g id="xtick_4">
     <g id="line2d_7">
      <path clip-path="url(#pfad9a93bf6)" d="M 386.399401 593.9056 
L 386.399401 26.2 
" style="fill:none;stroke:#ffffff;stroke-linecap:round;stroke-width:0.8;"/>
     </g>
     <g id="line2d_8">
      <g>
       <use style="fill:#262626;stroke:#262626;" x="386.399401" xlink:href="#m32f8d36458" y="593.9056"/>
      </g>
     </g>
     <g id="text_4">
      <!-- 300,000 -->
      <defs>
       <path d="M 46.578125 39.3125 
Q 53.953125 37.40625 57.78125 32.6875 
Q 61.625 27.984375 61.625 20.703125 
Q 61.625 9.859375 53.3125 4.21875 
Q 45.015625 -1.421875 29.109375 -1.421875 
Q 23.484375 -1.421875 17.84375 -0.515625 
Q 12.203125 0.390625 6.6875 2.203125 
L 6.6875 16.703125 
Q 11.96875 14.0625 17.15625 12.71875 
Q 22.359375 11.375 27.390625 11.375 
Q 34.859375 11.375 38.84375 13.953125 
Q 42.828125 16.546875 42.828125 21.390625 
Q 42.828125 26.375 38.75 28.9375 
Q 34.671875 31.5 26.703125 31.5 
L 19.1875 31.5 
L 19.1875 43.609375 
L 27.09375 43.609375 
Q 34.1875 43.609375 37.640625 45.828125 
Q 41.109375 48.046875 41.109375 52.59375 
Q 41.109375 56.78125 37.734375 59.078125 
Q 34.375 61.375 28.21875 61.375 
Q 23.6875 61.375 19.046875 60.34375 
Q 14.40625 59.328125 9.8125 57.328125 
L 9.8125 71.09375 
Q 15.375 72.65625 20.84375 73.4375 
Q 26.3125 74.21875 31.59375 74.21875 
Q 45.796875 74.21875 52.84375 69.546875 
Q 59.90625 64.890625 59.90625 55.515625 
Q 59.90625 49.125 56.53125 45.046875 
Q 53.171875 40.96875 46.578125 39.3125 
z
" id="DejaVuSans-Bold-51"/>
      </defs>
      <g style="fill:#262626;" transform="translate(361.349479 609.463881)scale(0.11 -0.11)">
       <use xlink:href="#DejaVuSans-Bold-51"/>
       <use x="69.580078" xlink:href="#DejaVuSans-Bold-48"/>
       <use x="139.160156" xlink:href="#DejaVuSans-Bold-48"/>
       <use x="208.740234" xlink:href="#DejaVuSans-Bold-44"/>
       <use x="246.728516" xlink:href="#DejaVuSans-Bold-48"/>
       <use x="316.308594" xlink:href="#DejaVuSans-Bold-48"/>
       <use x="385.888672" xlink:href="#DejaVuSans-Bold-48"/>
      </g>
     </g>
    </g>
    <g id="xtick_5">
     <g id="line2d_9">
      <path clip-path="url(#pfad9a93bf6)" d="M 474.48836 593.9056 
L 474.48836 26.2 
" style="fill:none;stroke:#ffffff;stroke-linecap:round;stroke-width:0.8;"/>
     </g>
     <g id="line2d_10">
      <g>
       <use style="fill:#262626;stroke:#262626;" x="474.48836" xlink:href="#m32f8d36458" y="593.9056"/>
      </g>
     </g>
     <g id="text_5">
      <!-- 400,000 -->
      <defs>
       <path d="M 36.8125 57.421875 
L 16.21875 26.90625 
L 36.8125 26.90625 
z
M 33.6875 72.90625 
L 54.59375 72.90625 
L 54.59375 26.90625 
L 64.984375 26.90625 
L 64.984375 13.28125 
L 54.59375 13.28125 
L 54.59375 0 
L 36.8125 0 
L 36.8125 13.28125 
L 4.5 13.28125 
L 4.5 29.390625 
z
" id="DejaVuSans-Bold-52"/>
      </defs>
      <g style="fill:#262626;" transform="translate(449.438438 609.463881)scale(0.11 -0.11)">
       <use xlink:href="#DejaVuSans-Bold-52"/>
       <use x="69.580078" xlink:href="#DejaVuSans-Bold-48"/>
       <use x="139.160156" xlink:href="#DejaVuSans-Bold-48"/>
       <use x="208.740234" xlink:href="#DejaVuSans-Bold-44"/>
       <use x="246.728516" xlink:href="#DejaVuSans-Bold-48"/>
       <use x="316.308594" xlink:href="#DejaVuSans-Bold-48"/>
       <use x="385.888672" xlink:href="#DejaVuSans-Bold-48"/>
      </g>
     </g>
    </g>
    <g id="xtick_6">
     <g id="line2d_11">
      <defs>
       <path d="M 0 0 
L 0 3.2 
" id="m868897283b" style="stroke:#262626;stroke-width:0.8;"/>
      </defs>
      <g>
       <use style="fill:#262626;stroke:#262626;stroke-width:0.8;" x="166.177002" xlink:href="#m868897283b" y="593.9056"/>
      </g>
     </g>
    </g>
    <g id="xtick_7">
     <g id="line2d_12">
      <g>
       <use style="fill:#262626;stroke:#262626;stroke-width:0.8;" x="254.265962" xlink:href="#m868897283b" y="593.9056"/>
      </g>
     </g>
    </g>
    <g id="xtick_8">
     <g id="line2d_13">
      <g>
       <use style="fill:#262626;stroke:#262626;stroke-width:0.8;" x="342.354921" xlink:href="#m868897283b" y="593.9056"/>
      </g>
     </g>
    </g>
    <g id="xtick_9">
     <g id="line2d_14">
      <g>
       <use style="fill:#262626;stroke:#262626;stroke-width:0.8;" x="430.44388" xlink:href="#m868897283b" y="593.9056"/>
      </g>
     </g>
    </g>
   </g>
   <g id="matplotlib.axis_2">
    <g id="ytick_1">
     <g id="line2d_15">
      <path clip-path="url(#pfad9a93bf6)" d="M 104.98125 585.432382 
L 482.30925 585.432382 
" style="fill:none;stroke:#ffffff;stroke-linecap:round;stroke-width:0.8;"/>
     </g>
     <g id="line2d_16">
      <defs>
       <path d="M 0 0 
L -4.8 0 
" id="mc3b8b0f9d9" style="stroke:#262626;"/>
      </defs>
      <g>
       <use style="fill:#262626;stroke:#262626;" x="104.98125" xlink:href="#mc3b8b0f9d9" y="585.432382"/>
      </g>
     </g>
     <g id="text_6">
      <!-- file -->
      <defs>
       <path d="M 37.109375 75.984375 
L 37.109375 68.5 
L 28.515625 68.5 
Q 23.6875 68.5 21.796875 66.546875 
Q 19.921875 64.59375 19.921875 59.515625 
L 19.921875 54.6875 
L 34.71875 54.6875 
L 34.71875 47.703125 
L 19.921875 47.703125 
L 19.921875 0 
L 10.890625 0 
L 10.890625 47.703125 
L 2.296875 47.703125 
L 2.296875 54.6875 
L 10.890625 54.6875 
L 10.890625 58.5 
Q 10.890625 67.625 15.140625 71.796875 
Q 19.390625 75.984375 28.609375 75.984375 
z
" id="DejaVuSans-102"/>
       <path d="M 9.421875 54.6875 
L 18.40625 54.6875 
L 18.40625 0 
L 9.421875 0 
z
M 9.421875 75.984375 
L 18.40625 75.984375 
L 18.40625 64.59375 
L 9.421875 64.59375 
z
" id="DejaVuSans-105"/>
       <path d="M 9.421875 75.984375 
L 18.40625 75.984375 
L 18.40625 0 
L 9.421875 0 
z
" id="DejaVuSans-108"/>
       <path d="M 56.203125 29.59375 
L 56.203125 25.203125 
L 14.890625 25.203125 
Q 15.484375 15.921875 20.484375 11.0625 
Q 25.484375 6.203125 34.421875 6.203125 
Q 39.59375 6.203125 44.453125 7.46875 
Q 49.3125 8.734375 54.109375 11.28125 
L 54.109375 2.78125 
Q 49.265625 0.734375 44.1875 -0.34375 
Q 39.109375 -1.421875 33.890625 -1.421875 
Q 20.796875 -1.421875 13.15625 6.1875 
Q 5.515625 13.8125 5.515625 26.8125 
Q 5.515625 40.234375 12.765625 48.109375 
Q 20.015625 56 32.328125 56 
Q 43.359375 56 49.78125 48.890625 
Q 56.203125 41.796875 56.203125 29.59375 
z
M 47.21875 32.234375 
Q 47.125 39.59375 43.09375 43.984375 
Q 39.0625 48.390625 32.421875 48.390625 
Q 24.90625 48.390625 20.390625 44.140625 
Q 15.875 39.890625 15.1875 32.171875 
z
" id="DejaVuSans-101"/>
      </defs>
      <g style="fill:#262626;" transform="translate(79.505625 589.991445)scale(0.12 -0.12)">
       <use xlink:href="#DejaVuSans-102"/>
       <use x="35.205078" xlink:href="#DejaVuSans-105"/>
       <use x="62.988281" xlink:href="#DejaVuSans-108"/>
       <use x="90.771484" xlink:href="#DejaVuSans-101"/>
      </g>
     </g>
    </g>
    <g id="ytick_2">
     <g id="line2d_17">
      <path clip-path="url(#pfad9a93bf6)" d="M 104.98125 571.310352 
L 482.30925 571.310352 
" style="fill:none;stroke:#ffffff;stroke-linecap:round;stroke-width:0.8;"/>
     </g>
     <g id="line2d_18">
      <g>
       <use style="fill:#262626;stroke:#262626;" x="104.98125" xlink:href="#mc3b8b0f9d9" y="571.310352"/>
      </g>
     </g>
     <g id="text_7">
      <!-- additional -->
      <defs>
       <path d="M 34.28125 27.484375 
Q 23.390625 27.484375 19.1875 25 
Q 14.984375 22.515625 14.984375 16.5 
Q 14.984375 11.71875 18.140625 8.90625 
Q 21.296875 6.109375 26.703125 6.109375 
Q 34.1875 6.109375 38.703125 11.40625 
Q 43.21875 16.703125 43.21875 25.484375 
L 43.21875 27.484375 
z
M 52.203125 31.203125 
L 52.203125 0 
L 43.21875 0 
L 43.21875 8.296875 
Q 40.140625 3.328125 35.546875 0.953125 
Q 30.953125 -1.421875 24.3125 -1.421875 
Q 15.921875 -1.421875 10.953125 3.296875 
Q 6 8.015625 6 15.921875 
Q 6 25.140625 12.171875 29.828125 
Q 18.359375 34.515625 30.609375 34.515625 
L 43.21875 34.515625 
L 43.21875 35.40625 
Q 43.21875 41.609375 39.140625 45 
Q 35.0625 48.390625 27.6875 48.390625 
Q 23 48.390625 18.546875 47.265625 
Q 14.109375 46.140625 10.015625 43.890625 
L 10.015625 52.203125 
Q 14.9375 54.109375 19.578125 55.046875 
Q 24.21875 56 28.609375 56 
Q 40.484375 56 46.34375 49.84375 
Q 52.203125 43.703125 52.203125 31.203125 
z
" id="DejaVuSans-97"/>
       <path d="M 45.40625 46.390625 
L 45.40625 75.984375 
L 54.390625 75.984375 
L 54.390625 0 
L 45.40625 0 
L 45.40625 8.203125 
Q 42.578125 3.328125 38.25 0.953125 
Q 33.9375 -1.421875 27.875 -1.421875 
Q 17.96875 -1.421875 11.734375 6.484375 
Q 5.515625 14.40625 5.515625 27.296875 
Q 5.515625 40.1875 11.734375 48.09375 
Q 17.96875 56 27.875 56 
Q 33.9375 56 38.25 53.625 
Q 42.578125 51.265625 45.40625 46.390625 
z
M 14.796875 27.296875 
Q 14.796875 17.390625 18.875 11.75 
Q 22.953125 6.109375 30.078125 6.109375 
Q 37.203125 6.109375 41.296875 11.75 
Q 45.40625 17.390625 45.40625 27.296875 
Q 45.40625 37.203125 41.296875 42.84375 
Q 37.203125 48.484375 30.078125 48.484375 
Q 22.953125 48.484375 18.875 42.84375 
Q 14.796875 37.203125 14.796875 27.296875 
z
" id="DejaVuSans-100"/>
       <path d="M 18.3125 70.21875 
L 18.3125 54.6875 
L 36.8125 54.6875 
L 36.8125 47.703125 
L 18.3125 47.703125 
L 18.3125 18.015625 
Q 18.3125 11.328125 20.140625 9.421875 
Q 21.96875 7.515625 27.59375 7.515625 
L 36.8125 7.515625 
L 36.8125 0 
L 27.59375 0 
Q 17.1875 0 13.234375 3.875 
Q 9.28125 7.765625 9.28125 18.015625 
L 9.28125 47.703125 
L 2.6875 47.703125 
L 2.6875 54.6875 
L 9.28125 54.6875 
L 9.28125 70.21875 
z
" id="DejaVuSans-116"/>
       <path d="M 30.609375 48.390625 
Q 23.390625 48.390625 19.1875 42.75 
Q 14.984375 37.109375 14.984375 27.296875 
Q 14.984375 17.484375 19.15625 11.84375 
Q 23.34375 6.203125 30.609375 6.203125 
Q 37.796875 6.203125 41.984375 11.859375 
Q 46.1875 17.53125 46.1875 27.296875 
Q 46.1875 37.015625 41.984375 42.703125 
Q 37.796875 48.390625 30.609375 48.390625 
z
M 30.609375 56 
Q 42.328125 56 49.015625 48.375 
Q 55.71875 40.765625 55.71875 27.296875 
Q 55.71875 13.875 49.015625 6.21875 
Q 42.328125 -1.421875 30.609375 -1.421875 
Q 18.84375 -1.421875 12.171875 6.21875 
Q 5.515625 13.875 5.515625 27.296875 
Q 5.515625 40.765625 12.171875 48.375 
Q 18.84375 56 30.609375 56 
z
" id="DejaVuSans-111"/>
       <path d="M 54.890625 33.015625 
L 54.890625 0 
L 45.90625 0 
L 45.90625 32.71875 
Q 45.90625 40.484375 42.875 44.328125 
Q 39.84375 48.1875 33.796875 48.1875 
Q 26.515625 48.1875 22.3125 43.546875 
Q 18.109375 38.921875 18.109375 30.90625 
L 18.109375 0 
L 9.078125 0 
L 9.078125 54.6875 
L 18.109375 54.6875 
L 18.109375 46.1875 
Q 21.34375 51.125 25.703125 53.5625 
Q 30.078125 56 35.796875 56 
Q 45.21875 56 50.046875 50.171875 
Q 54.890625 44.34375 54.890625 33.015625 
z
" id="DejaVuSans-110"/>
      </defs>
      <g style="fill:#262626;" transform="translate(38.184375 575.869415)scale(0.12 -0.12)">
       <use xlink:href="#DejaVuSans-97"/>
       <use x="61.279297" xlink:href="#DejaVuSans-100"/>
       <use x="124.755859" xlink:href="#DejaVuSans-100"/>
       <use x="188.232422" xlink:href="#DejaVuSans-105"/>
       <use x="216.015625" xlink:href="#DejaVuSans-116"/>
       <use x="255.224609" xlink:href="#DejaVuSans-105"/>
       <use x="283.007812" xlink:href="#DejaVuSans-111"/>
       <use x="344.189453" xlink:href="#DejaVuSans-110"/>
       <use x="407.568359" xlink:href="#DejaVuSans-97"/>
       <use x="468.847656" xlink:href="#DejaVuSans-108"/>
      </g>
     </g>
    </g>
    <g id="ytick_3">
     <g id="line2d_19">
      <path clip-path="url(#pfad9a93bf6)" d="M 104.98125 557.188322 
L 482.30925 557.188322 
" style="fill:none;stroke:#ffffff;stroke-linecap:round;stroke-width:0.8;"/>
     </g>
     <g id="line2d_20">
      <g>
       <use style="fill:#262626;stroke:#262626;" x="104.98125" xlink:href="#mc3b8b0f9d9" y="557.188322"/>
      </g>
     </g>
     <g id="text_8">
      <!-- data -->
      <g style="fill:#262626;" transform="translate(70.75125 561.747385)scale(0.12 -0.12)">
       <use xlink:href="#DejaVuSans-100"/>
       <use x="63.476562" xlink:href="#DejaVuSans-97"/>
       <use x="124.755859" xlink:href="#DejaVuSans-116"/>
       <use x="163.964844" xlink:href="#DejaVuSans-97"/>
      </g>
     </g>
    </g>
    <g id="ytick_4">
     <g id="line2d_21">
      <path clip-path="url(#pfad9a93bf6)" d="M 104.98125 543.066293 
L 482.30925 543.066293 
" style="fill:none;stroke:#ffffff;stroke-linecap:round;stroke-width:0.8;"/>
     </g>
     <g id="line2d_22">
      <g>
       <use style="fill:#262626;stroke:#262626;" x="104.98125" xlink:href="#mc3b8b0f9d9" y="543.066293"/>
      </g>
     </g>
     <g id="text_9">
      <!-- – -->
      <defs>
       <path d="M 4.890625 30.90625 
L 45.125 30.90625 
L 45.125 23.875 
L 4.890625 23.875 
z
" id="DejaVuSans-8211"/>
      </defs>
      <g style="fill:#262626;" transform="translate(91.78125 547.625355)scale(0.12 -0.12)">
       <use xlink:href="#DejaVuSans-8211"/>
      </g>
     </g>
    </g>
    <g id="ytick_5">
     <g id="line2d_23">
      <path clip-path="url(#pfad9a93bf6)" d="M 104.98125 528.944263 
L 482.30925 528.944263 
" style="fill:none;stroke:#ffffff;stroke-linecap:round;stroke-width:0.8;"/>
     </g>
     <g id="line2d_24">
      <g>
       <use style="fill:#262626;stroke:#262626;" x="104.98125" xlink:href="#mc3b8b0f9d9" y="528.944263"/>
      </g>
     </g>
     <g id="text_10">
      <!-- supplementary -->
      <defs>
       <path d="M 44.28125 53.078125 
L 44.28125 44.578125 
Q 40.484375 46.53125 36.375 47.5 
Q 32.28125 48.484375 27.875 48.484375 
Q 21.1875 48.484375 17.84375 46.4375 
Q 14.5 44.390625 14.5 40.28125 
Q 14.5 37.15625 16.890625 35.375 
Q 19.28125 33.59375 26.515625 31.984375 
L 29.59375 31.296875 
Q 39.15625 29.25 43.1875 25.515625 
Q 47.21875 21.78125 47.21875 15.09375 
Q 47.21875 7.46875 41.1875 3.015625 
Q 35.15625 -1.421875 24.609375 -1.421875 
Q 20.21875 -1.421875 15.453125 -0.5625 
Q 10.6875 0.296875 5.421875 2 
L 5.421875 11.28125 
Q 10.40625 8.6875 15.234375 7.390625 
Q 20.0625 6.109375 24.8125 6.109375 
Q 31.15625 6.109375 34.5625 8.28125 
Q 37.984375 10.453125 37.984375 14.40625 
Q 37.984375 18.0625 35.515625 20.015625 
Q 33.0625 21.96875 24.703125 23.78125 
L 21.578125 24.515625 
Q 13.234375 26.265625 9.515625 29.90625 
Q 5.8125 33.546875 5.8125 39.890625 
Q 5.8125 47.609375 11.28125 51.796875 
Q 16.75 56 26.8125 56 
Q 31.78125 56 36.171875 55.265625 
Q 40.578125 54.546875 44.28125 53.078125 
z
" id="DejaVuSans-115"/>
       <path d="M 8.5 21.578125 
L 8.5 54.6875 
L 17.484375 54.6875 
L 17.484375 21.921875 
Q 17.484375 14.15625 20.5 10.265625 
Q 23.53125 6.390625 29.59375 6.390625 
Q 36.859375 6.390625 41.078125 11.03125 
Q 45.3125 15.671875 45.3125 23.6875 
L 45.3125 54.6875 
L 54.296875 54.6875 
L 54.296875 0 
L 45.3125 0 
L 45.3125 8.40625 
Q 42.046875 3.421875 37.71875 1 
Q 33.40625 -1.421875 27.6875 -1.421875 
Q 18.265625 -1.421875 13.375 4.4375 
Q 8.5 10.296875 8.5 21.578125 
z
M 31.109375 56 
z
" id="DejaVuSans-117"/>
       <path d="M 18.109375 8.203125 
L 18.109375 -20.796875 
L 9.078125 -20.796875 
L 9.078125 54.6875 
L 18.109375 54.6875 
L 18.109375 46.390625 
Q 20.953125 51.265625 25.265625 53.625 
Q 29.59375 56 35.59375 56 
Q 45.5625 56 51.78125 48.09375 
Q 58.015625 40.1875 58.015625 27.296875 
Q 58.015625 14.40625 51.78125 6.484375 
Q 45.5625 -1.421875 35.59375 -1.421875 
Q 29.59375 -1.421875 25.265625 0.953125 
Q 20.953125 3.328125 18.109375 8.203125 
z
M 48.6875 27.296875 
Q 48.6875 37.203125 44.609375 42.84375 
Q 40.53125 48.484375 33.40625 48.484375 
Q 26.265625 48.484375 22.1875 42.84375 
Q 18.109375 37.203125 18.109375 27.296875 
Q 18.109375 17.390625 22.1875 11.75 
Q 26.265625 6.109375 33.40625 6.109375 
Q 40.53125 6.109375 44.609375 11.75 
Q 48.6875 17.390625 48.6875 27.296875 
z
" id="DejaVuSans-112"/>
       <path d="M 52 44.1875 
Q 55.375 50.25 60.0625 53.125 
Q 64.75 56 71.09375 56 
Q 79.640625 56 84.28125 50.015625 
Q 88.921875 44.046875 88.921875 33.015625 
L 88.921875 0 
L 79.890625 0 
L 79.890625 32.71875 
Q 79.890625 40.578125 77.09375 44.375 
Q 74.3125 48.1875 68.609375 48.1875 
Q 61.625 48.1875 57.5625 43.546875 
Q 53.515625 38.921875 53.515625 30.90625 
L 53.515625 0 
L 44.484375 0 
L 44.484375 32.71875 
Q 44.484375 40.625 41.703125 44.40625 
Q 38.921875 48.1875 33.109375 48.1875 
Q 26.21875 48.1875 22.15625 43.53125 
Q 18.109375 38.875 18.109375 30.90625 
L 18.109375 0 
L 9.078125 0 
L 9.078125 54.6875 
L 18.109375 54.6875 
L 18.109375 46.1875 
Q 21.1875 51.21875 25.484375 53.609375 
Q 29.78125 56 35.6875 56 
Q 41.65625 56 45.828125 52.96875 
Q 50 49.953125 52 44.1875 
z
" id="DejaVuSans-109"/>
       <path d="M 41.109375 46.296875 
Q 39.59375 47.171875 37.8125 47.578125 
Q 36.03125 48 33.890625 48 
Q 26.265625 48 22.1875 43.046875 
Q 18.109375 38.09375 18.109375 28.8125 
L 18.109375 0 
L 9.078125 0 
L 9.078125 54.6875 
L 18.109375 54.6875 
L 18.109375 46.1875 
Q 20.953125 51.171875 25.484375 53.578125 
Q 30.03125 56 36.53125 56 
Q 37.453125 56 38.578125 55.875 
Q 39.703125 55.765625 41.0625 55.515625 
z
" id="DejaVuSans-114"/>
       <path d="M 32.171875 -5.078125 
Q 28.375 -14.84375 24.75 -17.8125 
Q 21.140625 -20.796875 15.09375 -20.796875 
L 7.90625 -20.796875 
L 7.90625 -13.28125 
L 13.1875 -13.28125 
Q 16.890625 -13.28125 18.9375 -11.515625 
Q 21 -9.765625 23.484375 -3.21875 
L 25.09375 0.875 
L 2.984375 54.6875 
L 12.5 54.6875 
L 29.59375 11.921875 
L 46.6875 54.6875 
L 56.203125 54.6875 
z
" id="DejaVuSans-121"/>
      </defs>
      <g style="fill:#262626;" transform="translate(7.2 533.503325)scale(0.12 -0.12)">
       <use xlink:href="#DejaVuSans-115"/>
       <use x="52.099609" xlink:href="#DejaVuSans-117"/>
       <use x="115.478516" xlink:href="#DejaVuSans-112"/>
       <use x="178.955078" xlink:href="#DejaVuSans-112"/>
       <use x="242.431641" xlink:href="#DejaVuSans-108"/>
       <use x="270.214844" xlink:href="#DejaVuSans-101"/>
       <use x="331.738281" xlink:href="#DejaVuSans-109"/>
       <use x="429.150391" xlink:href="#DejaVuSans-101"/>
       <use x="490.673828" xlink:href="#DejaVuSans-110"/>
       <use x="554.052734" xlink:href="#DejaVuSans-116"/>
       <use x="593.261719" xlink:href="#DejaVuSans-97"/>
       <use x="654.541016" xlink:href="#DejaVuSans-114"/>
       <use x="695.654297" xlink:href="#DejaVuSans-121"/>
      </g>
     </g>
    </g>
    <g id="ytick_6">
     <g id="line2d_25">
      <path clip-path="url(#pfad9a93bf6)" d="M 104.98125 514.822233 
L 482.30925 514.822233 
" style="fill:none;stroke:#ffffff;stroke-linecap:round;stroke-width:0.8;"/>
     </g>
     <g id="line2d_26">
      <g>
       <use style="fill:#262626;stroke:#262626;" x="104.98125" xlink:href="#mc3b8b0f9d9" y="514.822233"/>
      </g>
     </g>
     <g id="text_11">
      <!-- n -->
      <g style="fill:#262626;" transform="translate(90.17625 519.381295)scale(0.12 -0.12)">
       <use xlink:href="#DejaVuSans-110"/>
      </g>
     </g>
    </g>
    <g id="ytick_7">
     <g id="line2d_27">
      <path clip-path="url(#pfad9a93bf6)" d="M 104.98125 500.700203 
L 482.30925 500.700203 
" style="fill:none;stroke:#ffffff;stroke-linecap:round;stroke-width:0.8;"/>
     </g>
     <g id="line2d_28">
      <g>
       <use style="fill:#262626;stroke:#262626;" x="104.98125" xlink:href="#mc3b8b0f9d9" y="500.700203"/>
      </g>
     </g>
     <g id="text_12">
      <!-- p -->
      <g style="fill:#262626;" transform="translate(90.163125 505.259265)scale(0.12 -0.12)">
       <use xlink:href="#DejaVuSans-112"/>
      </g>
     </g>
    </g>
    <g id="ytick_8">
     <g id="line2d_29">
      <path clip-path="url(#pfad9a93bf6)" d="M 104.98125 486.578173 
L 482.30925 486.578173 
" style="fill:none;stroke:#ffffff;stroke-linecap:round;stroke-width:0.8;"/>
     </g>
     <g id="line2d_30">
      <g>
       <use style="fill:#262626;stroke:#262626;" x="104.98125" xlink:href="#mc3b8b0f9d9" y="486.578173"/>
      </g>
     </g>
     <g id="text_13">
      <!-- fig -->
      <defs>
       <path d="M 45.40625 27.984375 
Q 45.40625 37.75 41.375 43.109375 
Q 37.359375 48.484375 30.078125 48.484375 
Q 22.859375 48.484375 18.828125 43.109375 
Q 14.796875 37.75 14.796875 27.984375 
Q 14.796875 18.265625 18.828125 12.890625 
Q 22.859375 7.515625 30.078125 7.515625 
Q 37.359375 7.515625 41.375 12.890625 
Q 45.40625 18.265625 45.40625 27.984375 
z
M 54.390625 6.78125 
Q 54.390625 -7.171875 48.1875 -13.984375 
Q 42 -20.796875 29.203125 -20.796875 
Q 24.46875 -20.796875 20.265625 -20.09375 
Q 16.0625 -19.390625 12.109375 -17.921875 
L 12.109375 -9.1875 
Q 16.0625 -11.328125 19.921875 -12.34375 
Q 23.78125 -13.375 27.78125 -13.375 
Q 36.625 -13.375 41.015625 -8.765625 
Q 45.40625 -4.15625 45.40625 5.171875 
L 45.40625 9.625 
Q 42.625 4.78125 38.28125 2.390625 
Q 33.9375 0 27.875 0 
Q 17.828125 0 11.671875 7.65625 
Q 5.515625 15.328125 5.515625 27.984375 
Q 5.515625 40.671875 11.671875 48.328125 
Q 17.828125 56 27.875 56 
Q 33.9375 56 38.28125 53.609375 
Q 42.625 51.21875 45.40625 46.390625 
L 45.40625 54.6875 
L 54.390625 54.6875 
z
" id="DejaVuSans-103"/>
      </defs>
      <g style="fill:#262626;" transform="translate(82.605 491.137236)scale(0.12 -0.12)">
       <use xlink:href="#DejaVuSans-102"/>
       <use x="35.205078" xlink:href="#DejaVuSans-105"/>
       <use x="62.988281" xlink:href="#DejaVuSans-103"/>
      </g>
     </g>
    </g>
    <g id="ytick_9">
     <g id="line2d_31">
      <path clip-path="url(#pfad9a93bf6)" d="M 104.98125 472.456143 
L 482.30925 472.456143 
" style="fill:none;stroke:#ffffff;stroke-linecap:round;stroke-width:0.8;"/>
     </g>
     <g id="line2d_32">
      <g>
       <use style="fill:#262626;stroke:#262626;" x="104.98125" xlink:href="#mc3b8b0f9d9" y="472.456143"/>
      </g>
     </g>
     <g id="text_14">
      <!-- ° -->
      <defs>
       <path d="M 25 67.921875 
Q 21.09375 67.921875 18.40625 65.203125 
Q 15.71875 62.5 15.71875 58.59375 
Q 15.71875 54.734375 18.40625 52.078125 
Q 21.09375 49.421875 25 49.421875 
Q 28.90625 49.421875 31.59375 52.078125 
Q 34.28125 54.734375 34.28125 58.59375 
Q 34.28125 62.453125 31.5625 65.1875 
Q 28.859375 67.921875 25 67.921875 
z
M 25 74.21875 
Q 28.125 74.21875 31 73.015625 
Q 33.890625 71.828125 35.984375 69.578125 
Q 38.234375 67.390625 39.359375 64.59375 
Q 40.484375 61.8125 40.484375 58.59375 
Q 40.484375 52.15625 35.96875 47.6875 
Q 31.453125 43.21875 24.90625 43.21875 
Q 18.3125 43.21875 13.90625 47.609375 
Q 9.515625 52 9.515625 58.59375 
Q 9.515625 65.140625 14 69.671875 
Q 18.5 74.21875 25 74.21875 
z
" id="DejaVuSans-176"/>
      </defs>
      <g style="fill:#262626;" transform="translate(91.78125 477.015206)scale(0.12 -0.12)">
       <use xlink:href="#DejaVuSans-176"/>
      </g>
     </g>
    </g>
    <g id="ytick_10">
     <g id="line2d_33">
      <path clip-path="url(#pfad9a93bf6)" d="M 104.98125 458.334113 
L 482.30925 458.334113 
" style="fill:none;stroke:#ffffff;stroke-linecap:round;stroke-width:0.8;"/>
     </g>
     <g id="line2d_34">
      <g>
       <use style="fill:#262626;stroke:#262626;" x="104.98125" xlink:href="#mc3b8b0f9d9" y="458.334113"/>
      </g>
     </g>
     <g id="text_15">
      <!-- table -->
      <defs>
       <path d="M 48.6875 27.296875 
Q 48.6875 37.203125 44.609375 42.84375 
Q 40.53125 48.484375 33.40625 48.484375 
Q 26.265625 48.484375 22.1875 42.84375 
Q 18.109375 37.203125 18.109375 27.296875 
Q 18.109375 17.390625 22.1875 11.75 
Q 26.265625 6.109375 33.40625 6.109375 
Q 40.53125 6.109375 44.609375 11.75 
Q 48.6875 17.390625 48.6875 27.296875 
z
M 18.109375 46.390625 
Q 20.953125 51.265625 25.265625 53.625 
Q 29.59375 56 35.59375 56 
Q 45.5625 56 51.78125 48.09375 
Q 58.015625 40.1875 58.015625 27.296875 
Q 58.015625 14.40625 51.78125 6.484375 
Q 45.5625 -1.421875 35.59375 -1.421875 
Q 29.59375 -1.421875 25.265625 0.953125 
Q 20.953125 3.328125 18.109375 8.203125 
L 18.109375 0 
L 9.078125 0 
L 9.078125 75.984375 
L 18.109375 75.984375 
z
" id="DejaVuSans-98"/>
      </defs>
      <g style="fill:#262626;" transform="translate(67.3875 462.893176)scale(0.12 -0.12)">
       <use xlink:href="#DejaVuSans-116"/>
       <use x="39.208984" xlink:href="#DejaVuSans-97"/>
       <use x="100.488281" xlink:href="#DejaVuSans-98"/>
       <use x="163.964844" xlink:href="#DejaVuSans-108"/>
       <use x="191.748047" xlink:href="#DejaVuSans-101"/>
      </g>
     </g>
    </g>
    <g id="ytick_11">
     <g id="line2d_35">
      <path clip-path="url(#pfad9a93bf6)" d="M 104.98125 444.212084 
L 482.30925 444.212084 
" style="fill:none;stroke:#ffffff;stroke-linecap:round;stroke-width:0.8;"/>
     </g>
     <g id="line2d_36">
      <g>
       <use style="fill:#262626;stroke:#262626;" x="104.98125" xlink:href="#mc3b8b0f9d9" y="444.212084"/>
      </g>
     </g>
     <g id="text_16">
      <!-- value -->
      <defs>
       <path d="M 2.984375 54.6875 
L 12.5 54.6875 
L 29.59375 8.796875 
L 46.6875 54.6875 
L 56.203125 54.6875 
L 35.6875 0 
L 23.484375 0 
z
" id="DejaVuSans-118"/>
      </defs>
      <g style="fill:#262626;" transform="translate(65.0025 448.771146)scale(0.12 -0.12)">
       <use xlink:href="#DejaVuSans-118"/>
       <use x="59.179688" xlink:href="#DejaVuSans-97"/>
       <use x="120.458984" xlink:href="#DejaVuSans-108"/>
       <use x="148.242188" xlink:href="#DejaVuSans-117"/>
       <use x="211.621094" xlink:href="#DejaVuSans-101"/>
      </g>
     </g>
    </g>
    <g id="ytick_12">
     <g id="line2d_37">
      <path clip-path="url(#pfad9a93bf6)" d="M 104.98125 430.090054 
L 482.30925 430.090054 
" style="fill:none;stroke:#ffffff;stroke-linecap:round;stroke-width:0.8;"/>
     </g>
     <g id="line2d_38">
      <g>
       <use style="fill:#262626;stroke:#262626;" x="104.98125" xlink:href="#mc3b8b0f9d9" y="430.090054"/>
      </g>
     </g>
     <g id="text_17">
      <!-- t -->
      <g style="fill:#262626;" transform="translate(93.076875 434.649116)scale(0.12 -0.12)">
       <use xlink:href="#DejaVuSans-116"/>
      </g>
     </g>
    </g>
    <g id="ytick_13">
     <g id="line2d_39">
      <path clip-path="url(#pfad9a93bf6)" d="M 104.98125 415.968024 
L 482.30925 415.968024 
" style="fill:none;stroke:#ffffff;stroke-linecap:round;stroke-width:0.8;"/>
     </g>
     <g id="line2d_40">
      <g>
       <use style="fill:#262626;stroke:#262626;" x="104.98125" xlink:href="#mc3b8b0f9d9" y="415.968024"/>
      </g>
     </g>
     <g id="text_18">
      <!-- mean -->
      <g style="fill:#262626;" transform="translate(63.75 420.527086)scale(0.12 -0.12)">
       <use xlink:href="#DejaVuSans-109"/>
       <use x="97.412109" xlink:href="#DejaVuSans-101"/>
       <use x="158.935547" xlink:href="#DejaVuSans-97"/>
       <use x="220.214844" xlink:href="#DejaVuSans-110"/>
      </g>
     </g>
    </g>
    <g id="ytick_14">
     <g id="line2d_41">
      <path clip-path="url(#pfad9a93bf6)" d="M 104.98125 401.845994 
L 482.30925 401.845994 
" style="fill:none;stroke:#ffffff;stroke-linecap:round;stroke-width:0.8;"/>
     </g>
     <g id="line2d_42">
      <g>
       <use style="fill:#262626;stroke:#262626;" x="104.98125" xlink:href="#mc3b8b0f9d9" y="401.845994"/>
      </g>
     </g>
     <g id="text_19">
      <!-- 1 -->
      <defs>
       <path d="M 12.40625 8.296875 
L 28.515625 8.296875 
L 28.515625 63.921875 
L 10.984375 60.40625 
L 10.984375 69.390625 
L 28.421875 72.90625 
L 38.28125 72.90625 
L 38.28125 8.296875 
L 54.390625 8.296875 
L 54.390625 0 
L 12.40625 0 
z
" id="DejaVuSans-49"/>
      </defs>
      <g style="fill:#262626;" transform="translate(90.14625 406.405057)scale(0.12 -0.12)">
       <use xlink:href="#DejaVuSans-49"/>
      </g>
     </g>
    </g>
    <g id="ytick_15">
     <g id="line2d_43">
      <path clip-path="url(#pfad9a93bf6)" d="M 104.98125 387.723964 
L 482.30925 387.723964 
" style="fill:none;stroke:#ffffff;stroke-linecap:round;stroke-width:0.8;"/>
     </g>
     <g id="line2d_44">
      <g>
       <use style="fill:#262626;stroke:#262626;" x="104.98125" xlink:href="#mc3b8b0f9d9" y="387.723964"/>
      </g>
     </g>
     <g id="text_20">
      <!-- experiment -->
      <defs>
       <path d="M 54.890625 54.6875 
L 35.109375 28.078125 
L 55.90625 0 
L 45.3125 0 
L 29.390625 21.484375 
L 13.484375 0 
L 2.875 0 
L 24.125 28.609375 
L 4.6875 54.6875 
L 15.28125 54.6875 
L 29.78125 35.203125 
L 44.28125 54.6875 
z
" id="DejaVuSans-120"/>
      </defs>
      <g style="fill:#262626;" transform="translate(28.64625 392.283027)scale(0.12 -0.12)">
       <use xlink:href="#DejaVuSans-101"/>
       <use x="61.507812" xlink:href="#DejaVuSans-120"/>
       <use x="120.6875" xlink:href="#DejaVuSans-112"/>
       <use x="184.164062" xlink:href="#DejaVuSans-101"/>
       <use x="245.6875" xlink:href="#DejaVuSans-114"/>
       <use x="286.800781" xlink:href="#DejaVuSans-105"/>
       <use x="314.583984" xlink:href="#DejaVuSans-109"/>
       <use x="411.996094" xlink:href="#DejaVuSans-101"/>
       <use x="473.519531" xlink:href="#DejaVuSans-110"/>
       <use x="536.898438" xlink:href="#DejaVuSans-116"/>
      </g>
     </g>
    </g>
    <g id="ytick_16">
     <g id="line2d_45">
      <path clip-path="url(#pfad9a93bf6)" d="M 104.98125 373.601934 
L 482.30925 373.601934 
" style="fill:none;stroke:#ffffff;stroke-linecap:round;stroke-width:0.8;"/>
     </g>
     <g id="line2d_46">
      <g>
       <use style="fill:#262626;stroke:#262626;" x="104.98125" xlink:href="#mc3b8b0f9d9" y="373.601934"/>
      </g>
     </g>
     <g id="text_21">
      <!-- perform -->
      <g style="fill:#262626;" transform="translate(49.659375 378.160997)scale(0.12 -0.12)">
       <use xlink:href="#DejaVuSans-112"/>
       <use x="63.476562" xlink:href="#DejaVuSans-101"/>
       <use x="125" xlink:href="#DejaVuSans-114"/>
       <use x="166.113281" xlink:href="#DejaVuSans-102"/>
       <use x="201.318359" xlink:href="#DejaVuSans-111"/>
       <use x="262.5" xlink:href="#DejaVuSans-114"/>
       <use x="303.597656" xlink:href="#DejaVuSans-109"/>
      </g>
     </g>
    </g>
    <g id="ytick_17">
     <g id="line2d_47">
      <path clip-path="url(#pfad9a93bf6)" d="M 104.98125 359.479904 
L 482.30925 359.479904 
" style="fill:none;stroke:#ffffff;stroke-linecap:round;stroke-width:0.8;"/>
     </g>
     <g id="line2d_48">
      <g>
       <use style="fill:#262626;stroke:#262626;" x="104.98125" xlink:href="#mc3b8b0f9d9" y="359.479904"/>
      </g>
     </g>
     <g id="text_22">
      <!-- c -->
      <defs>
       <path d="M 48.78125 52.59375 
L 48.78125 44.1875 
Q 44.96875 46.296875 41.140625 47.34375 
Q 37.3125 48.390625 33.40625 48.390625 
Q 24.65625 48.390625 19.8125 42.84375 
Q 14.984375 37.3125 14.984375 27.296875 
Q 14.984375 17.28125 19.8125 11.734375 
Q 24.65625 6.203125 33.40625 6.203125 
Q 37.3125 6.203125 41.140625 7.25 
Q 44.96875 8.296875 48.78125 10.40625 
L 48.78125 2.09375 
Q 45.015625 0.34375 40.984375 -0.53125 
Q 36.96875 -1.421875 32.421875 -1.421875 
Q 20.0625 -1.421875 12.78125 6.34375 
Q 5.515625 14.109375 5.515625 27.296875 
Q 5.515625 40.671875 12.859375 48.328125 
Q 20.21875 56 33.015625 56 
Q 37.15625 56 41.109375 55.140625 
Q 45.0625 54.296875 48.78125 52.59375 
z
" id="DejaVuSans-99"/>
      </defs>
      <g style="fill:#262626;" transform="translate(91.183125 364.038967)scale(0.12 -0.12)">
       <use xlink:href="#DejaVuSans-99"/>
      </g>
     </g>
    </g>
    <g id="ytick_18">
     <g id="line2d_49">
      <path clip-path="url(#pfad9a93bf6)" d="M 104.98125 345.357875 
L 482.30925 345.357875 
" style="fill:none;stroke:#ffffff;stroke-linecap:round;stroke-width:0.8;"/>
     </g>
     <g id="line2d_50">
      <g>
       <use style="fill:#262626;stroke:#262626;" x="104.98125" xlink:href="#mc3b8b0f9d9" y="345.357875"/>
      </g>
     </g>
     <g id="text_23">
      <!-- 10 -->
      <defs>
       <path d="M 31.78125 66.40625 
Q 24.171875 66.40625 20.328125 58.90625 
Q 16.5 51.421875 16.5 36.375 
Q 16.5 21.390625 20.328125 13.890625 
Q 24.171875 6.390625 31.78125 6.390625 
Q 39.453125 6.390625 43.28125 13.890625 
Q 47.125 21.390625 47.125 36.375 
Q 47.125 51.421875 43.28125 58.90625 
Q 39.453125 66.40625 31.78125 66.40625 
z
M 31.78125 74.21875 
Q 44.046875 74.21875 50.515625 64.515625 
Q 56.984375 54.828125 56.984375 36.375 
Q 56.984375 17.96875 50.515625 8.265625 
Q 44.046875 -1.421875 31.78125 -1.421875 
Q 19.53125 -1.421875 13.0625 8.265625 
Q 6.59375 17.96875 6.59375 36.375 
Q 6.59375 54.828125 13.0625 64.515625 
Q 19.53125 74.21875 31.78125 74.21875 
z
" id="DejaVuSans-48"/>
      </defs>
      <g style="fill:#262626;" transform="translate(82.51125 349.916937)scale(0.12 -0.12)">
       <use xlink:href="#DejaVuSans-49"/>
       <use x="63.623047" xlink:href="#DejaVuSans-48"/>
      </g>
     </g>
    </g>
    <g id="ytick_19">
     <g id="line2d_51">
      <path clip-path="url(#pfad9a93bf6)" d="M 104.98125 331.235845 
L 482.30925 331.235845 
" style="fill:none;stroke:#ffffff;stroke-linecap:round;stroke-width:0.8;"/>
     </g>
     <g id="line2d_52">
      <g>
       <use style="fill:#262626;stroke:#262626;" x="104.98125" xlink:href="#mc3b8b0f9d9" y="331.235845"/>
      </g>
     </g>
     <g id="text_24">
      <!-- b -->
      <g style="fill:#262626;" transform="translate(90.163125 335.794907)scale(0.12 -0.12)">
       <use xlink:href="#DejaVuSans-98"/>
      </g>
     </g>
    </g>
    <g id="ytick_20">
     <g id="line2d_53">
      <path clip-path="url(#pfad9a93bf6)" d="M 104.98125 317.113815 
L 482.30925 317.113815 
" style="fill:none;stroke:#ffffff;stroke-linecap:round;stroke-width:0.8;"/>
     </g>
     <g id="line2d_54">
      <g>
       <use style="fill:#262626;stroke:#262626;" x="104.98125" xlink:href="#mc3b8b0f9d9" y="317.113815"/>
      </g>
     </g>
     <g id="text_25">
      <!-- d -->
      <g style="fill:#262626;" transform="translate(90.163125 321.672877)scale(0.12 -0.12)">
       <use xlink:href="#DejaVuSans-100"/>
      </g>
     </g>
    </g>
    <g id="ytick_21">
     <g id="line2d_55">
      <path clip-path="url(#pfad9a93bf6)" d="M 104.98125 302.991785 
L 482.30925 302.991785 
" style="fill:none;stroke:#ffffff;stroke-linecap:round;stroke-width:0.8;"/>
     </g>
     <g id="line2d_56">
      <g>
       <use style="fill:#262626;stroke:#262626;" x="104.98125" xlink:href="#mc3b8b0f9d9" y="302.991785"/>
      </g>
     </g>
     <g id="text_26">
      <!-- increase -->
      <g style="fill:#262626;" transform="translate(46.9425 307.550848)scale(0.12 -0.12)">
       <use xlink:href="#DejaVuSans-105"/>
       <use x="27.783203" xlink:href="#DejaVuSans-110"/>
       <use x="91.162109" xlink:href="#DejaVuSans-99"/>
       <use x="146.142578" xlink:href="#DejaVuSans-114"/>
       <use x="187.224609" xlink:href="#DejaVuSans-101"/>
       <use x="248.748047" xlink:href="#DejaVuSans-97"/>
       <use x="310.027344" xlink:href="#DejaVuSans-115"/>
       <use x="362.126953" xlink:href="#DejaVuSans-101"/>
      </g>
     </g>
    </g>
    <g id="ytick_22">
     <g id="line2d_57">
      <path clip-path="url(#pfad9a93bf6)" d="M 104.98125 288.869755 
L 482.30925 288.869755 
" style="fill:none;stroke:#ffffff;stroke-linecap:round;stroke-width:0.8;"/>
     </g>
     <g id="line2d_58">
      <g>
       <use style="fill:#262626;stroke:#262626;" x="104.98125" xlink:href="#mc3b8b0f9d9" y="288.869755"/>
      </g>
     </g>
     <g id="text_27">
      <!-- identify -->
      <g style="fill:#262626;" transform="translate(52.4775 293.428818)scale(0.12 -0.12)">
       <use xlink:href="#DejaVuSans-105"/>
       <use x="27.783203" xlink:href="#DejaVuSans-100"/>
       <use x="91.259766" xlink:href="#DejaVuSans-101"/>
       <use x="152.783203" xlink:href="#DejaVuSans-110"/>
       <use x="216.162109" xlink:href="#DejaVuSans-116"/>
       <use x="255.371094" xlink:href="#DejaVuSans-105"/>
       <use x="283.154297" xlink:href="#DejaVuSans-102"/>
       <use x="318.34375" xlink:href="#DejaVuSans-121"/>
      </g>
     </g>
    </g>
    <g id="ytick_23">
     <g id="line2d_59">
      <path clip-path="url(#pfad9a93bf6)" d="M 104.98125 274.747725 
L 482.30925 274.747725 
" style="fill:none;stroke:#ffffff;stroke-linecap:round;stroke-width:0.8;"/>
     </g>
     <g id="line2d_60">
      <g>
       <use style="fill:#262626;stroke:#262626;" x="104.98125" xlink:href="#mc3b8b0f9d9" y="274.747725"/>
      </g>
     </g>
     <g id="text_28">
      <!-- interaction -->
      <g style="fill:#262626;" transform="translate(32.88375 279.306788)scale(0.12 -0.12)">
       <use xlink:href="#DejaVuSans-105"/>
       <use x="27.783203" xlink:href="#DejaVuSans-110"/>
       <use x="91.162109" xlink:href="#DejaVuSans-116"/>
       <use x="130.371094" xlink:href="#DejaVuSans-101"/>
       <use x="191.894531" xlink:href="#DejaVuSans-114"/>
       <use x="233.007812" xlink:href="#DejaVuSans-97"/>
       <use x="294.287109" xlink:href="#DejaVuSans-99"/>
       <use x="349.267578" xlink:href="#DejaVuSans-116"/>
       <use x="388.476562" xlink:href="#DejaVuSans-105"/>
       <use x="416.259766" xlink:href="#DejaVuSans-111"/>
       <use x="477.441406" xlink:href="#DejaVuSans-110"/>
      </g>
     </g>
    </g>
    <g id="ytick_24">
     <g id="line2d_61">
      <path clip-path="url(#pfad9a93bf6)" d="M 104.98125 260.625696 
L 482.30925 260.625696 
" style="fill:none;stroke:#ffffff;stroke-linecap:round;stroke-width:0.8;"/>
     </g>
     <g id="line2d_62">
      <g>
       <use style="fill:#262626;stroke:#262626;" x="104.98125" xlink:href="#mc3b8b0f9d9" y="260.625696"/>
      </g>
     </g>
     <g id="text_29">
      <!-- associate -->
      <g style="fill:#262626;" transform="translate(41.20875 265.184758)scale(0.12 -0.12)">
       <use xlink:href="#DejaVuSans-97"/>
       <use x="61.279297" xlink:href="#DejaVuSans-115"/>
       <use x="113.378906" xlink:href="#DejaVuSans-115"/>
       <use x="165.478516" xlink:href="#DejaVuSans-111"/>
       <use x="226.660156" xlink:href="#DejaVuSans-99"/>
       <use x="281.640625" xlink:href="#DejaVuSans-105"/>
       <use x="309.423828" xlink:href="#DejaVuSans-97"/>
       <use x="370.703125" xlink:href="#DejaVuSans-116"/>
       <use x="409.912109" xlink:href="#DejaVuSans-101"/>
      </g>
     </g>
    </g>
    <g id="ytick_25">
     <g id="line2d_63">
      <path clip-path="url(#pfad9a93bf6)" d="M 104.98125 246.503666 
L 482.30925 246.503666 
" style="fill:none;stroke:#ffffff;stroke-linecap:round;stroke-width:0.8;"/>
     </g>
     <g id="line2d_64">
      <g>
       <use style="fill:#262626;stroke:#262626;" x="104.98125" xlink:href="#mc3b8b0f9d9" y="246.503666"/>
      </g>
     </g>
     <g id="text_30">
      <!-- specific -->
      <g style="fill:#262626;" transform="translate(52.44 251.062728)scale(0.12 -0.12)">
       <use xlink:href="#DejaVuSans-115"/>
       <use x="52.099609" xlink:href="#DejaVuSans-112"/>
       <use x="115.576172" xlink:href="#DejaVuSans-101"/>
       <use x="177.099609" xlink:href="#DejaVuSans-99"/>
       <use x="232.080078" xlink:href="#DejaVuSans-105"/>
       <use x="259.863281" xlink:href="#DejaVuSans-102"/>
       <use x="295.068359" xlink:href="#DejaVuSans-105"/>
       <use x="322.851562" xlink:href="#DejaVuSans-99"/>
      </g>
     </g>
    </g>
    <g id="ytick_26">
     <g id="line2d_65">
      <path clip-path="url(#pfad9a93bf6)" d="M 104.98125 232.381636 
L 482.30925 232.381636 
" style="fill:none;stroke:#ffffff;stroke-linecap:round;stroke-width:0.8;"/>
     </g>
     <g id="line2d_66">
      <g>
       <use style="fill:#262626;stroke:#262626;" x="104.98125" xlink:href="#mc3b8b0f9d9" y="232.381636"/>
      </g>
     </g>
     <g id="text_31">
      <!-- function -->
      <g style="fill:#262626;" transform="translate(48.763125 236.940698)scale(0.12 -0.12)">
       <use xlink:href="#DejaVuSans-102"/>
       <use x="35.205078" xlink:href="#DejaVuSans-117"/>
       <use x="98.583984" xlink:href="#DejaVuSans-110"/>
       <use x="161.962891" xlink:href="#DejaVuSans-99"/>
       <use x="216.943359" xlink:href="#DejaVuSans-116"/>
       <use x="256.152344" xlink:href="#DejaVuSans-105"/>
       <use x="283.935547" xlink:href="#DejaVuSans-111"/>
       <use x="345.117188" xlink:href="#DejaVuSans-110"/>
      </g>
     </g>
    </g>
    <g id="ytick_27">
     <g id="line2d_67">
      <path clip-path="url(#pfad9a93bf6)" d="M 104.98125 218.259606 
L 482.30925 218.259606 
" style="fill:none;stroke:#ffffff;stroke-linecap:round;stroke-width:0.8;"/>
     </g>
     <g id="line2d_68">
      <g>
       <use style="fill:#262626;stroke:#262626;" x="104.98125" xlink:href="#mc3b8b0f9d9" y="218.259606"/>
      </g>
     </g>
     <g id="text_32">
      <!-- network -->
      <defs>
       <path d="M 4.203125 54.6875 
L 13.1875 54.6875 
L 24.421875 12.015625 
L 35.59375 54.6875 
L 46.1875 54.6875 
L 57.421875 12.015625 
L 68.609375 54.6875 
L 77.59375 54.6875 
L 63.28125 0 
L 52.6875 0 
L 40.921875 44.828125 
L 29.109375 0 
L 18.5 0 
z
" id="DejaVuSans-119"/>
       <path d="M 9.078125 75.984375 
L 18.109375 75.984375 
L 18.109375 31.109375 
L 44.921875 54.6875 
L 56.390625 54.6875 
L 27.390625 29.109375 
L 57.625 0 
L 45.90625 0 
L 18.109375 26.703125 
L 18.109375 0 
L 9.078125 0 
z
" id="DejaVuSans-107"/>
      </defs>
      <g style="fill:#262626;" transform="translate(49.05 222.818668)scale(0.12 -0.12)">
       <use xlink:href="#DejaVuSans-110"/>
       <use x="63.378906" xlink:href="#DejaVuSans-101"/>
       <use x="124.902344" xlink:href="#DejaVuSans-116"/>
       <use x="164.111328" xlink:href="#DejaVuSans-119"/>
       <use x="245.898438" xlink:href="#DejaVuSans-111"/>
       <use x="307.080078" xlink:href="#DejaVuSans-114"/>
       <use x="348.193359" xlink:href="#DejaVuSans-107"/>
      </g>
     </g>
    </g>
    <g id="ytick_28">
     <g id="line2d_69">
      <path clip-path="url(#pfad9a93bf6)" d="M 104.98125 204.137576 
L 482.30925 204.137576 
" style="fill:none;stroke:#ffffff;stroke-linecap:round;stroke-width:0.8;"/>
     </g>
     <g id="line2d_70">
      <g>
       <use style="fill:#262626;stroke:#262626;" x="104.98125" xlink:href="#mc3b8b0f9d9" y="204.137576"/>
      </g>
     </g>
     <g id="text_33">
      <!-- activity -->
      <g style="fill:#262626;" transform="translate(53.548125 208.696639)scale(0.12 -0.12)">
       <use xlink:href="#DejaVuSans-97"/>
       <use x="61.279297" xlink:href="#DejaVuSans-99"/>
       <use x="116.259766" xlink:href="#DejaVuSans-116"/>
       <use x="155.46875" xlink:href="#DejaVuSans-105"/>
       <use x="183.251953" xlink:href="#DejaVuSans-118"/>
       <use x="242.431641" xlink:href="#DejaVuSans-105"/>
       <use x="270.214844" xlink:href="#DejaVuSans-116"/>
       <use x="309.423828" xlink:href="#DejaVuSans-121"/>
      </g>
     </g>
    </g>
    <g id="ytick_29">
     <g id="line2d_71">
      <path clip-path="url(#pfad9a93bf6)" d="M 104.98125 190.015546 
L 482.30925 190.015546 
" style="fill:none;stroke:#ffffff;stroke-linecap:round;stroke-width:0.8;"/>
     </g>
     <g id="line2d_72">
      <g>
       <use style="fill:#262626;stroke:#262626;" x="104.98125" xlink:href="#mc3b8b0f9d9" y="190.015546"/>
      </g>
     </g>
     <g id="text_34">
      <!-- " -->
      <defs>
       <path d="M 17.921875 72.90625 
L 17.921875 45.796875 
L 9.625 45.796875 
L 9.625 72.90625 
z
M 36.375 72.90625 
L 36.375 45.796875 
L 28.078125 45.796875 
L 28.078125 72.90625 
z
" id="DejaVuSans-34"/>
      </defs>
      <g style="fill:#262626;" transform="translate(92.26125 194.574609)scale(0.12 -0.12)">
       <use xlink:href="#DejaVuSans-34"/>
      </g>
     </g>
    </g>
    <g id="ytick_30">
     <g id="line2d_73">
      <path clip-path="url(#pfad9a93bf6)" d="M 104.98125 175.893516 
L 482.30925 175.893516 
" style="fill:none;stroke:#ffffff;stroke-linecap:round;stroke-width:0.8;"/>
     </g>
     <g id="line2d_74">
      <g>
       <use style="fill:#262626;stroke:#262626;" x="104.98125" xlink:href="#mc3b8b0f9d9" y="175.893516"/>
      </g>
     </g>
     <g id="text_35">
      <!-- population -->
      <g style="fill:#262626;" transform="translate(33.924375 180.452579)scale(0.12 -0.12)">
       <use xlink:href="#DejaVuSans-112"/>
       <use x="63.476562" xlink:href="#DejaVuSans-111"/>
       <use x="124.658203" xlink:href="#DejaVuSans-112"/>
       <use x="188.134766" xlink:href="#DejaVuSans-117"/>
       <use x="251.513672" xlink:href="#DejaVuSans-108"/>
       <use x="279.296875" xlink:href="#DejaVuSans-97"/>
       <use x="340.576172" xlink:href="#DejaVuSans-116"/>
       <use x="379.785156" xlink:href="#DejaVuSans-105"/>
       <use x="407.568359" xlink:href="#DejaVuSans-111"/>
       <use x="468.75" xlink:href="#DejaVuSans-110"/>
      </g>
     </g>
    </g>
    <g id="ytick_31">
     <g id="line2d_75">
      <path clip-path="url(#pfad9a93bf6)" d="M 104.98125 161.771487 
L 482.30925 161.771487 
" style="fill:none;stroke:#ffffff;stroke-linecap:round;stroke-width:0.8;"/>
     </g>
     <g id="line2d_76">
      <g>
       <use style="fill:#262626;stroke:#262626;" x="104.98125" xlink:href="#mc3b8b0f9d9" y="161.771487"/>
      </g>
     </g>
     <g id="text_36">
      <!-- suggest -->
      <g style="fill:#262626;" transform="translate(50.349375 166.330549)scale(0.12 -0.12)">
       <use xlink:href="#DejaVuSans-115"/>
       <use x="52.099609" xlink:href="#DejaVuSans-117"/>
       <use x="115.478516" xlink:href="#DejaVuSans-103"/>
       <use x="178.955078" xlink:href="#DejaVuSans-103"/>
       <use x="242.431641" xlink:href="#DejaVuSans-101"/>
       <use x="303.955078" xlink:href="#DejaVuSans-115"/>
       <use x="356.054688" xlink:href="#DejaVuSans-116"/>
      </g>
     </g>
    </g>
    <g id="ytick_32">
     <g id="line2d_77">
      <path clip-path="url(#pfad9a93bf6)" d="M 104.98125 147.649457 
L 482.30925 147.649457 
" style="fill:none;stroke:#ffffff;stroke-linecap:round;stroke-width:0.8;"/>
     </g>
     <g id="line2d_78">
      <g>
       <use style="fill:#262626;stroke:#262626;" x="104.98125" xlink:href="#mc3b8b0f9d9" y="147.649457"/>
      </g>
     </g>
     <g id="text_37">
      <!-- structure -->
      <g style="fill:#262626;" transform="translate(43.066875 152.208519)scale(0.12 -0.12)">
       <use xlink:href="#DejaVuSans-115"/>
       <use x="52.099609" xlink:href="#DejaVuSans-116"/>
       <use x="91.308594" xlink:href="#DejaVuSans-114"/>
       <use x="132.421875" xlink:href="#DejaVuSans-117"/>
       <use x="195.800781" xlink:href="#DejaVuSans-99"/>
       <use x="250.78125" xlink:href="#DejaVuSans-116"/>
       <use x="289.990234" xlink:href="#DejaVuSans-117"/>
       <use x="353.369141" xlink:href="#DejaVuSans-114"/>
       <use x="394.451172" xlink:href="#DejaVuSans-101"/>
      </g>
     </g>
    </g>
    <g id="ytick_33">
     <g id="line2d_79">
      <path clip-path="url(#pfad9a93bf6)" d="M 104.98125 133.527427 
L 482.30925 133.527427 
" style="fill:none;stroke:#ffffff;stroke-linecap:round;stroke-width:0.8;"/>
     </g>
     <g id="line2d_80">
      <g>
       <use style="fill:#262626;stroke:#262626;" x="104.98125" xlink:href="#mc3b8b0f9d9" y="133.527427"/>
      </g>
     </g>
     <g id="text_38">
      <!-- genome -->
      <g style="fill:#262626;" transform="translate(48.759375 138.086489)scale(0.12 -0.12)">
       <use xlink:href="#DejaVuSans-103"/>
       <use x="63.476562" xlink:href="#DejaVuSans-101"/>
       <use x="125" xlink:href="#DejaVuSans-110"/>
       <use x="188.378906" xlink:href="#DejaVuSans-111"/>
       <use x="249.560547" xlink:href="#DejaVuSans-109"/>
       <use x="346.972656" xlink:href="#DejaVuSans-101"/>
      </g>
     </g>
    </g>
    <g id="ytick_34">
     <g id="line2d_81">
      <path clip-path="url(#pfad9a93bf6)" d="M 104.98125 119.405397 
L 482.30925 119.405397 
" style="fill:none;stroke:#ffffff;stroke-linecap:round;stroke-width:0.8;"/>
     </g>
     <g id="line2d_82">
      <g>
       <use style="fill:#262626;stroke:#262626;" x="104.98125" xlink:href="#mc3b8b0f9d9" y="119.405397"/>
      </g>
     </g>
     <g id="text_39">
      <!-- human -->
      <defs>
       <path d="M 54.890625 33.015625 
L 54.890625 0 
L 45.90625 0 
L 45.90625 32.71875 
Q 45.90625 40.484375 42.875 44.328125 
Q 39.84375 48.1875 33.796875 48.1875 
Q 26.515625 48.1875 22.3125 43.546875 
Q 18.109375 38.921875 18.109375 30.90625 
L 18.109375 0 
L 9.078125 0 
L 9.078125 75.984375 
L 18.109375 75.984375 
L 18.109375 46.1875 
Q 21.34375 51.125 25.703125 53.5625 
Q 30.078125 56 35.796875 56 
Q 45.21875 56 50.046875 50.171875 
Q 54.890625 44.34375 54.890625 33.015625 
z
" id="DejaVuSans-104"/>
      </defs>
      <g style="fill:#262626;" transform="translate(55.92375 123.96446)scale(0.12 -0.12)">
       <use xlink:href="#DejaVuSans-104"/>
       <use x="63.378906" xlink:href="#DejaVuSans-117"/>
       <use x="126.757812" xlink:href="#DejaVuSans-109"/>
       <use x="224.169922" xlink:href="#DejaVuSans-97"/>
       <use x="285.449219" xlink:href="#DejaVuSans-110"/>
      </g>
     </g>
    </g>
    <g id="ytick_35">
     <g id="line2d_83">
      <path clip-path="url(#pfad9a93bf6)" d="M 104.98125 105.283367 
L 482.30925 105.283367 
" style="fill:none;stroke:#ffffff;stroke-linecap:round;stroke-width:0.8;"/>
     </g>
     <g id="line2d_84">
      <g>
       <use style="fill:#262626;stroke:#262626;" x="104.98125" xlink:href="#mc3b8b0f9d9" y="105.283367"/>
      </g>
     </g>
     <g id="text_40">
      <!-- specie -->
      <g style="fill:#262626;" transform="translate(59.2125 109.84243)scale(0.12 -0.12)">
       <use xlink:href="#DejaVuSans-115"/>
       <use x="52.099609" xlink:href="#DejaVuSans-112"/>
       <use x="115.576172" xlink:href="#DejaVuSans-101"/>
       <use x="177.099609" xlink:href="#DejaVuSans-99"/>
       <use x="232.080078" xlink:href="#DejaVuSans-105"/>
       <use x="259.863281" xlink:href="#DejaVuSans-101"/>
      </g>
     </g>
    </g>
    <g id="ytick_36">
     <g id="line2d_85">
      <path clip-path="url(#pfad9a93bf6)" d="M 104.98125 91.161337 
L 482.30925 91.161337 
" style="fill:none;stroke:#ffffff;stroke-linecap:round;stroke-width:0.8;"/>
     </g>
     <g id="line2d_86">
      <g>
       <use style="fill:#262626;stroke:#262626;" x="104.98125" xlink:href="#mc3b8b0f9d9" y="91.161337"/>
      </g>
     </g>
     <g id="text_41">
      <!-- ' -->
      <defs>
       <path d="M 17.921875 72.90625 
L 17.921875 45.796875 
L 9.625 45.796875 
L 9.625 72.90625 
z
" id="DejaVuSans-39"/>
      </defs>
      <g style="fill:#262626;" transform="translate(94.483125 95.7204)scale(0.12 -0.12)">
       <use xlink:href="#DejaVuSans-39"/>
      </g>
     </g>
    </g>
    <g id="ytick_37">
     <g id="line2d_87">
      <path clip-path="url(#pfad9a93bf6)" d="M 104.98125 77.039307 
L 482.30925 77.039307 
" style="fill:none;stroke:#ffffff;stroke-linecap:round;stroke-width:0.8;"/>
     </g>
     <g id="line2d_88">
      <g>
       <use style="fill:#262626;stroke:#262626;" x="104.98125" xlink:href="#mc3b8b0f9d9" y="77.039307"/>
      </g>
     </g>
     <g id="text_42">
      <!-- figure -->
      <g style="fill:#262626;" transform="translate(62.686875 81.59837)scale(0.12 -0.12)">
       <use xlink:href="#DejaVuSans-102"/>
       <use x="35.205078" xlink:href="#DejaVuSans-105"/>
       <use x="62.988281" xlink:href="#DejaVuSans-103"/>
       <use x="126.464844" xlink:href="#DejaVuSans-117"/>
       <use x="189.84375" xlink:href="#DejaVuSans-114"/>
       <use x="230.925781" xlink:href="#DejaVuSans-101"/>
      </g>
     </g>
    </g>
    <g id="ytick_38">
     <g id="line2d_89">
      <path clip-path="url(#pfad9a93bf6)" d="M 104.98125 62.917278 
L 482.30925 62.917278 
" style="fill:none;stroke:#ffffff;stroke-linecap:round;stroke-width:0.8;"/>
     </g>
     <g id="line2d_90">
      <g>
       <use style="fill:#262626;stroke:#262626;" x="104.98125" xlink:href="#mc3b8b0f9d9" y="62.917278"/>
      </g>
     </g>
     <g id="text_43">
      <!-- et -->
      <g style="fill:#262626;" transform="translate(85.693125 67.47634)scale(0.12 -0.12)">
       <use xlink:href="#DejaVuSans-101"/>
       <use x="61.523438" xlink:href="#DejaVuSans-116"/>
      </g>
     </g>
    </g>
    <g id="ytick_39">
     <g id="line2d_91">
      <path clip-path="url(#pfad9a93bf6)" d="M 104.98125 48.795248 
L 482.30925 48.795248 
" style="fill:none;stroke:#ffffff;stroke-linecap:round;stroke-width:0.8;"/>
     </g>
     <g id="line2d_92">
      <g>
       <use style="fill:#262626;stroke:#262626;" x="104.98125" xlink:href="#mc3b8b0f9d9" y="48.795248"/>
      </g>
     </g>
     <g id="text_44">
      <!-- al -->
      <g style="fill:#262626;" transform="translate(87.09375 53.35431)scale(0.12 -0.12)">
       <use xlink:href="#DejaVuSans-97"/>
       <use x="61.279297" xlink:href="#DejaVuSans-108"/>
      </g>
     </g>
    </g>
    <g id="ytick_40">
     <g id="line2d_93">
      <path clip-path="url(#pfad9a93bf6)" d="M 104.98125 34.673218 
L 482.30925 34.673218 
" style="fill:none;stroke:#ffffff;stroke-linecap:round;stroke-width:0.8;"/>
     </g>
     <g id="line2d_94">
      <g>
       <use style="fill:#262626;stroke:#262626;" x="104.98125" xlink:href="#mc3b8b0f9d9" y="34.673218"/>
      </g>
     </g>
     <g id="text_45">
      <!-- non -->
      <g style="fill:#262626;" transform="translate(75.22875 39.23228)scale(0.12 -0.12)">
       <use xlink:href="#DejaVuSans-110"/>
       <use x="63.378906" xlink:href="#DejaVuSans-111"/>
       <use x="124.560547" xlink:href="#DejaVuSans-110"/>
      </g>
     </g>
    </g>
   </g>
   <g id="PolyCollection_1">
    <path clip-path="url(#pfad9a93bf6)" d="M 122.132523 591.787296 
L 122.132523 579.077469 
L 151.112909 579.077469 
L 151.112909 591.787296 
z
" style="fill:#595959;"/>
    <path clip-path="url(#pfad9a93bf6)" d="M 122.132523 577.665266 
L 122.132523 564.955439 
L 159.055891 564.955439 
L 159.055891 577.665266 
z
" style="fill:#595959;"/>
    <path clip-path="url(#pfad9a93bf6)" d="M 122.132523 563.543236 
L 122.132523 550.833409 
L 158.137123 550.833409 
L 158.137123 563.543236 
z
" style="fill:#595959;"/>
    <path clip-path="url(#pfad9a93bf6)" d="M 122.132523 549.421206 
L 122.132523 536.711379 
L 168.275281 536.711379 
L 168.275281 549.421206 
z
" style="fill:#595959;"/>
    <path clip-path="url(#pfad9a93bf6)" d="M 122.132523 535.299176 
L 122.132523 522.589349 
L 183.675874 522.589349 
L 183.675874 535.299176 
z
" style="fill:#595959;"/>
    <path clip-path="url(#pfad9a93bf6)" d="M 122.132523 521.177146 
L 122.132523 508.467319 
L 179.634353 508.467319 
L 179.634353 521.177146 
z
" style="fill:#595959;"/>
    <path clip-path="url(#pfad9a93bf6)" d="M 122.132523 507.055116 
L 122.132523 494.34529 
L 221.75585 494.34529 
L 221.75585 507.055116 
z
" style="fill:#595959;"/>
    <path clip-path="url(#pfad9a93bf6)" d="M 122.132523 492.933087 
L 122.132523 480.22326 
L 352.78113 480.22326 
L 352.78113 492.933087 
z
" style="fill:#595959;"/>
    <path clip-path="url(#pfad9a93bf6)" d="M 122.132523 478.811057 
L 122.132523 466.10123 
L 185.407703 466.10123 
L 185.407703 478.811057 
z
" style="fill:#595959;"/>
    <path clip-path="url(#pfad9a93bf6)" d="M 122.132523 464.689027 
L 122.132523 451.9792 
L 215.631025 451.9792 
L 215.631025 464.689027 
z
" style="fill:#595959;"/>
    <path clip-path="url(#pfad9a93bf6)" d="M 122.132523 450.566997 
L 122.132523 437.85717 
L 256.321958 437.85717 
L 256.321958 450.566997 
z
" style="fill:#595959;"/>
    <path clip-path="url(#pfad9a93bf6)" d="M 122.132523 436.444967 
L 122.132523 423.73514 
L 186.620688 423.73514 
L 186.620688 436.444967 
z
" style="fill:#595959;"/>
    <path clip-path="url(#pfad9a93bf6)" d="M 122.132523 422.322937 
L 122.132523 409.61311 
L 199.993473 409.61311 
L 199.993473 422.322937 
z
" style="fill:#595959;"/>
    <path clip-path="url(#pfad9a93bf6)" d="M 122.132523 408.200907 
L 122.132523 395.491081 
L 332.107532 395.491081 
L 332.107532 408.200907 
z
" style="fill:#595959;"/>
    <path clip-path="url(#pfad9a93bf6)" d="M 122.132523 394.078878 
L 122.132523 381.369051 
L 197.075967 381.369051 
L 197.075967 394.078878 
z
" style="fill:#595959;"/>
    <path clip-path="url(#pfad9a93bf6)" d="M 122.132523 379.956848 
L 122.132523 367.247021 
L 210.381804 367.247021 
L 210.381804 379.956848 
z
" style="fill:#595959;"/>
    <path clip-path="url(#pfad9a93bf6)" d="M 122.132523 365.834818 
L 122.132523 353.124991 
L 272.836876 353.124991 
L 272.836876 365.834818 
z
" style="fill:#595959;"/>
    <path clip-path="url(#pfad9a93bf6)" d="M 122.132523 351.712788 
L 122.132523 339.002961 
L 211.499653 339.002961 
L 211.499653 351.712788 
z
" style="fill:#595959;"/>
    <path clip-path="url(#pfad9a93bf6)" d="M 122.132523 337.590758 
L 122.132523 324.880931 
L 232.544105 324.880931 
L 232.544105 337.590758 
z
" style="fill:#595959;"/>
    <path clip-path="url(#pfad9a93bf6)" d="M 122.132523 323.468728 
L 122.132523 310.758901 
L 188.393919 310.758901 
L 188.393919 323.468728 
z
" style="fill:#595959;"/>
    <path clip-path="url(#pfad9a93bf6)" d="M 122.132523 309.346699 
L 122.132523 296.636872 
L 247.654004 296.636872 
L 247.654004 309.346699 
z
" style="fill:#595959;"/>
    <path clip-path="url(#pfad9a93bf6)" d="M 122.132523 295.224669 
L 122.132523 282.514842 
L 230.208867 282.514842 
L 230.208867 295.224669 
z
" style="fill:#595959;"/>
    <path clip-path="url(#pfad9a93bf6)" d="M 122.132523 281.102639 
L 122.132523 268.392812 
L 192.971902 268.392812 
L 192.971902 281.102639 
z
" style="fill:#595959;"/>
    <path clip-path="url(#pfad9a93bf6)" d="M 122.132523 266.980609 
L 122.132523 254.270782 
L 198.964594 254.270782 
L 198.964594 266.980609 
z
" style="fill:#595959;"/>
    <path clip-path="url(#pfad9a93bf6)" d="M 122.132523 252.858579 
L 122.132523 240.148752 
L 211.240671 240.148752 
L 211.240671 252.858579 
z
" style="fill:#595959;"/>
    <path clip-path="url(#pfad9a93bf6)" d="M 122.132523 238.736549 
L 122.132523 226.026722 
L 212.746112 226.026722 
L 212.746112 238.736549 
z
" style="fill:#595959;"/>
    <path clip-path="url(#pfad9a93bf6)" d="M 122.132523 224.614519 
L 122.132523 211.904693 
L 197.292665 211.904693 
L 197.292665 224.614519 
z
" style="fill:#595959;"/>
    <path clip-path="url(#pfad9a93bf6)" d="M 122.132523 210.49249 
L 122.132523 197.782663 
L 206.113013 197.782663 
L 206.113013 210.49249 
z
" style="fill:#595959;"/>
    <path clip-path="url(#pfad9a93bf6)" d="M 122.132523 196.37046 
L 122.132523 183.660633 
L 274.477973 183.660633 
L 274.477973 196.37046 
z
" style="fill:#595959;"/>
    <path clip-path="url(#pfad9a93bf6)" d="M 122.132523 182.24843 
L 122.132523 169.538603 
L 240.145301 169.538603 
L 240.145301 182.24843 
z
" style="fill:#595959;"/>
    <path clip-path="url(#pfad9a93bf6)" d="M 122.132523 168.1264 
L 122.132523 155.416573 
L 209.10099 155.416573 
L 209.10099 168.1264 
z
" style="fill:#595959;"/>
    <path clip-path="url(#pfad9a93bf6)" d="M 122.132523 154.00437 
L 122.132523 141.294543 
L 191.985306 141.294543 
L 191.985306 154.00437 
z
" style="fill:#595959;"/>
    <path clip-path="url(#pfad9a93bf6)" d="M 122.132523 139.88234 
L 122.132523 127.172513 
L 240.961005 127.172513 
L 240.961005 139.88234 
z
" style="fill:#595959;"/>
    <path clip-path="url(#pfad9a93bf6)" d="M 122.132523 125.76031 
L 122.132523 113.050484 
L 200.433918 113.050484 
L 200.433918 125.76031 
z
" style="fill:#595959;"/>
    <path clip-path="url(#pfad9a93bf6)" d="M 122.132523 111.638281 
L 122.132523 98.928454 
L 200.774822 98.928454 
L 200.774822 111.638281 
z
" style="fill:#595959;"/>
    <path clip-path="url(#pfad9a93bf6)" d="M 122.132523 97.516251 
L 122.132523 84.806424 
L 230.185083 84.806424 
L 230.185083 97.516251 
z
" style="fill:#595959;"/>
    <path clip-path="url(#pfad9a93bf6)" d="M 122.132523 83.394221 
L 122.132523 70.684394 
L 338.861313 70.684394 
L 338.861313 83.394221 
z
" style="fill:#595959;"/>
    <path clip-path="url(#pfad9a93bf6)" d="M 122.132523 69.272191 
L 122.132523 56.562364 
L 465.157977 56.562364 
L 465.157977 69.272191 
z
" style="fill:#595959;"/>
    <path clip-path="url(#pfad9a93bf6)" d="M 122.132523 55.150161 
L 122.132523 42.440334 
L 462.391103 42.440334 
L 462.391103 55.150161 
z
" style="fill:#595959;"/>
    <path clip-path="url(#pfad9a93bf6)" d="M 122.132523 41.028131 
L 122.132523 28.318304 
L 204.532697 28.318304 
L 204.532697 41.028131 
z
" style="fill:#595959;"/>
   </g>
   <g id="patch_3">
    <path d="M 104.98125 26.2 
L 482.30925 26.2 
L 482.30925 7.2 
L 104.98125 7.2 
z
" style="fill:#d3d3d3;"/>
   </g>
   <g id="patch_4">
    <path d="M 104.98125 593.9056 
L 104.98125 26.2 
" style="fill:none;stroke:#ffffff;stroke-linecap:square;stroke-linejoin:miter;"/>
   </g>
   <g id="patch_5">
    <path d="M 482.30925 593.9056 
L 482.30925 26.2 
" style="fill:none;stroke:#ffffff;stroke-linecap:square;stroke-linejoin:miter;"/>
   </g>
   <g id="patch_6">
    <path d="M 104.98125 593.9056 
L 482.30925 593.9056 
" style="fill:none;stroke:#ffffff;stroke-linecap:square;stroke-linejoin:miter;"/>
   </g>
   <g id="patch_7">
    <path d="M 104.98125 26.2 
L 482.30925 26.2 
" style="fill:none;stroke:#ffffff;stroke-linecap:square;stroke-linejoin:miter;"/>
   </g>
   <g id="text_46">
    <!-- preprint -->
    <g style="fill:#262626;" transform="translate(267.577203 20.287188)scale(0.13 -0.13)">
     <use xlink:href="#DejaVuSans-112"/>
     <use x="63.476562" xlink:href="#DejaVuSans-114"/>
     <use x="104.558594" xlink:href="#DejaVuSans-101"/>
     <use x="166.082031" xlink:href="#DejaVuSans-112"/>
     <use x="229.558594" xlink:href="#DejaVuSans-114"/>
     <use x="270.671875" xlink:href="#DejaVuSans-105"/>
     <use x="298.455078" xlink:href="#DejaVuSans-110"/>
     <use x="361.833984" xlink:href="#DejaVuSans-116"/>
    </g>
   </g>
  </g>
  <g id="axes_2">
   <g id="patch_8">
    <path d="M 489.50925 593.9056 
L 866.83725 593.9056 
L 866.83725 26.2 
L 489.50925 26.2 
z
" style="fill:#eaeaf2;"/>
   </g>
   <g id="matplotlib.axis_3">
    <g id="xtick_10">
     <g id="line2d_95">
      <path clip-path="url(#pfc70d55ba9)" d="M 506.660523 593.9056 
L 506.660523 26.2 
" style="fill:none;stroke:#ffffff;stroke-linecap:round;stroke-width:0.8;"/>
     </g>
     <g id="line2d_96">
      <g>
       <use style="fill:#262626;stroke:#262626;" x="506.660523" xlink:href="#m32f8d36458" y="593.9056"/>
      </g>
     </g>
     <g id="text_47">
      <!-- 0 -->
      <g style="fill:#262626;" transform="translate(502.833726 609.463881)scale(0.11 -0.11)">
       <use xlink:href="#DejaVuSans-Bold-48"/>
      </g>
     </g>
    </g>
    <g id="xtick_11">
     <g id="line2d_97">
      <path clip-path="url(#pfc70d55ba9)" d="M 594.749482 593.9056 
L 594.749482 26.2 
" style="fill:none;stroke:#ffffff;stroke-linecap:round;stroke-width:0.8;"/>
     </g>
     <g id="line2d_98">
      <g>
       <use style="fill:#262626;stroke:#262626;" x="594.749482" xlink:href="#m32f8d36458" y="593.9056"/>
      </g>
     </g>
     <g id="text_48">
      <!-- 100,000 -->
      <g style="fill:#262626;" transform="translate(569.69956 609.463881)scale(0.11 -0.11)">
       <use xlink:href="#DejaVuSans-Bold-49"/>
       <use x="69.580078" xlink:href="#DejaVuSans-Bold-48"/>
       <use x="139.160156" xlink:href="#DejaVuSans-Bold-48"/>
       <use x="208.740234" xlink:href="#DejaVuSans-Bold-44"/>
       <use x="246.728516" xlink:href="#DejaVuSans-Bold-48"/>
       <use x="316.308594" xlink:href="#DejaVuSans-Bold-48"/>
       <use x="385.888672" xlink:href="#DejaVuSans-Bold-48"/>
      </g>
     </g>
    </g>
    <g id="xtick_12">
     <g id="line2d_99">
      <path clip-path="url(#pfc70d55ba9)" d="M 682.838441 593.9056 
L 682.838441 26.2 
" style="fill:none;stroke:#ffffff;stroke-linecap:round;stroke-width:0.8;"/>
     </g>
     <g id="line2d_100">
      <g>
       <use style="fill:#262626;stroke:#262626;" x="682.838441" xlink:href="#m32f8d36458" y="593.9056"/>
      </g>
     </g>
     <g id="text_49">
      <!-- 200,000 -->
      <g style="fill:#262626;" transform="translate(657.788519 609.463881)scale(0.11 -0.11)">
       <use xlink:href="#DejaVuSans-Bold-50"/>
       <use x="69.580078" xlink:href="#DejaVuSans-Bold-48"/>
       <use x="139.160156" xlink:href="#DejaVuSans-Bold-48"/>
       <use x="208.740234" xlink:href="#DejaVuSans-Bold-44"/>
       <use x="246.728516" xlink:href="#DejaVuSans-Bold-48"/>
       <use x="316.308594" xlink:href="#DejaVuSans-Bold-48"/>
       <use x="385.888672" xlink:href="#DejaVuSans-Bold-48"/>
      </g>
     </g>
    </g>
    <g id="xtick_13">
     <g id="line2d_101">
      <path clip-path="url(#pfc70d55ba9)" d="M 770.927401 593.9056 
L 770.927401 26.2 
" style="fill:none;stroke:#ffffff;stroke-linecap:round;stroke-width:0.8;"/>
     </g>
     <g id="line2d_102">
      <g>
       <use style="fill:#262626;stroke:#262626;" x="770.927401" xlink:href="#m32f8d36458" y="593.9056"/>
      </g>
     </g>
     <g id="text_50">
      <!-- 300,000 -->
      <g style="fill:#262626;" transform="translate(745.877479 609.463881)scale(0.11 -0.11)">
       <use xlink:href="#DejaVuSans-Bold-51"/>
       <use x="69.580078" xlink:href="#DejaVuSans-Bold-48"/>
       <use x="139.160156" xlink:href="#DejaVuSans-Bold-48"/>
       <use x="208.740234" xlink:href="#DejaVuSans-Bold-44"/>
       <use x="246.728516" xlink:href="#DejaVuSans-Bold-48"/>
       <use x="316.308594" xlink:href="#DejaVuSans-Bold-48"/>
       <use x="385.888672" xlink:href="#DejaVuSans-Bold-48"/>
      </g>
     </g>
    </g>
    <g id="xtick_14">
     <g id="line2d_103">
      <path clip-path="url(#pfc70d55ba9)" d="M 859.01636 593.9056 
L 859.01636 26.2 
" style="fill:none;stroke:#ffffff;stroke-linecap:round;stroke-width:0.8;"/>
     </g>
     <g id="line2d_104">
      <g>
       <use style="fill:#262626;stroke:#262626;" x="859.01636" xlink:href="#m32f8d36458" y="593.9056"/>
      </g>
     </g>
     <g id="text_51">
      <!-- 400,000 -->
      <g style="fill:#262626;" transform="translate(833.966438 609.463881)scale(0.11 -0.11)">
       <use xlink:href="#DejaVuSans-Bold-52"/>
       <use x="69.580078" xlink:href="#DejaVuSans-Bold-48"/>
       <use x="139.160156" xlink:href="#DejaVuSans-Bold-48"/>
       <use x="208.740234" xlink:href="#DejaVuSans-Bold-44"/>
       <use x="246.728516" xlink:href="#DejaVuSans-Bold-48"/>
       <use x="316.308594" xlink:href="#DejaVuSans-Bold-48"/>
       <use x="385.888672" xlink:href="#DejaVuSans-Bold-48"/>
      </g>
     </g>
    </g>
    <g id="xtick_15">
     <g id="line2d_105">
      <g>
       <use style="fill:#262626;stroke:#262626;stroke-width:0.8;" x="550.705002" xlink:href="#m868897283b" y="593.9056"/>
      </g>
     </g>
    </g>
    <g id="xtick_16">
     <g id="line2d_106">
      <g>
       <use style="fill:#262626;stroke:#262626;stroke-width:0.8;" x="638.793962" xlink:href="#m868897283b" y="593.9056"/>
      </g>
     </g>
    </g>
    <g id="xtick_17">
     <g id="line2d_107">
      <g>
       <use style="fill:#262626;stroke:#262626;stroke-width:0.8;" x="726.882921" xlink:href="#m868897283b" y="593.9056"/>
      </g>
     </g>
    </g>
    <g id="xtick_18">
     <g id="line2d_108">
      <g>
       <use style="fill:#262626;stroke:#262626;stroke-width:0.8;" x="814.97188" xlink:href="#m868897283b" y="593.9056"/>
      </g>
     </g>
    </g>
    <g id="text_52">
     <!-- count -->
     <g style="fill:#262626;" transform="translate(452.461875 628.149194)scale(0.15 -0.15)">
      <use xlink:href="#DejaVuSans-99"/>
      <use x="54.980469" xlink:href="#DejaVuSans-111"/>
      <use x="116.162109" xlink:href="#DejaVuSans-117"/>
      <use x="179.541016" xlink:href="#DejaVuSans-110"/>
      <use x="242.919922" xlink:href="#DejaVuSans-116"/>
     </g>
    </g>
   </g>
   <g id="matplotlib.axis_4">
    <g id="ytick_41">
     <g id="line2d_109">
      <path clip-path="url(#pfc70d55ba9)" d="M 489.50925 585.432382 
L 866.83725 585.432382 
" style="fill:none;stroke:#ffffff;stroke-linecap:round;stroke-width:0.8;"/>
     </g>
    </g>
    <g id="ytick_42">
     <g id="line2d_110">
      <path clip-path="url(#pfc70d55ba9)" d="M 489.50925 571.310352 
L 866.83725 571.310352 
" style="fill:none;stroke:#ffffff;stroke-linecap:round;stroke-width:0.8;"/>
     </g>
    </g>
    <g id="ytick_43">
     <g id="line2d_111">
      <path clip-path="url(#pfc70d55ba9)" d="M 489.50925 557.188322 
L 866.83725 557.188322 
" style="fill:none;stroke:#ffffff;stroke-linecap:round;stroke-width:0.8;"/>
     </g>
    </g>
    <g id="ytick_44">
     <g id="line2d_112">
      <path clip-path="url(#pfc70d55ba9)" d="M 489.50925 543.066293 
L 866.83725 543.066293 
" style="fill:none;stroke:#ffffff;stroke-linecap:round;stroke-width:0.8;"/>
     </g>
    </g>
    <g id="ytick_45">
     <g id="line2d_113">
      <path clip-path="url(#pfc70d55ba9)" d="M 489.50925 528.944263 
L 866.83725 528.944263 
" style="fill:none;stroke:#ffffff;stroke-linecap:round;stroke-width:0.8;"/>
     </g>
    </g>
    <g id="ytick_46">
     <g id="line2d_114">
      <path clip-path="url(#pfc70d55ba9)" d="M 489.50925 514.822233 
L 866.83725 514.822233 
" style="fill:none;stroke:#ffffff;stroke-linecap:round;stroke-width:0.8;"/>
     </g>
    </g>
    <g id="ytick_47">
     <g id="line2d_115">
      <path clip-path="url(#pfc70d55ba9)" d="M 489.50925 500.700203 
L 866.83725 500.700203 
" style="fill:none;stroke:#ffffff;stroke-linecap:round;stroke-width:0.8;"/>
     </g>
    </g>
    <g id="ytick_48">
     <g id="line2d_116">
      <path clip-path="url(#pfc70d55ba9)" d="M 489.50925 486.578173 
L 866.83725 486.578173 
" style="fill:none;stroke:#ffffff;stroke-linecap:round;stroke-width:0.8;"/>
     </g>
    </g>
    <g id="ytick_49">
     <g id="line2d_117">
      <path clip-path="url(#pfc70d55ba9)" d="M 489.50925 472.456143 
L 866.83725 472.456143 
" style="fill:none;stroke:#ffffff;stroke-linecap:round;stroke-width:0.8;"/>
     </g>
    </g>
    <g id="ytick_50">
     <g id="line2d_118">
      <path clip-path="url(#pfc70d55ba9)" d="M 489.50925 458.334113 
L 866.83725 458.334113 
" style="fill:none;stroke:#ffffff;stroke-linecap:round;stroke-width:0.8;"/>
     </g>
    </g>
    <g id="ytick_51">
     <g id="line2d_119">
      <path clip-path="url(#pfc70d55ba9)" d="M 489.50925 444.212084 
L 866.83725 444.212084 
" style="fill:none;stroke:#ffffff;stroke-linecap:round;stroke-width:0.8;"/>
     </g>
    </g>
    <g id="ytick_52">
     <g id="line2d_120">
      <path clip-path="url(#pfc70d55ba9)" d="M 489.50925 430.090054 
L 866.83725 430.090054 
" style="fill:none;stroke:#ffffff;stroke-linecap:round;stroke-width:0.8;"/>
     </g>
    </g>
    <g id="ytick_53">
     <g id="line2d_121">
      <path clip-path="url(#pfc70d55ba9)" d="M 489.50925 415.968024 
L 866.83725 415.968024 
" style="fill:none;stroke:#ffffff;stroke-linecap:round;stroke-width:0.8;"/>
     </g>
    </g>
    <g id="ytick_54">
     <g id="line2d_122">
      <path clip-path="url(#pfc70d55ba9)" d="M 489.50925 401.845994 
L 866.83725 401.845994 
" style="fill:none;stroke:#ffffff;stroke-linecap:round;stroke-width:0.8;"/>
     </g>
    </g>
    <g id="ytick_55">
     <g id="line2d_123">
      <path clip-path="url(#pfc70d55ba9)" d="M 489.50925 387.723964 
L 866.83725 387.723964 
" style="fill:none;stroke:#ffffff;stroke-linecap:round;stroke-width:0.8;"/>
     </g>
    </g>
    <g id="ytick_56">
     <g id="line2d_124">
      <path clip-path="url(#pfc70d55ba9)" d="M 489.50925 373.601934 
L 866.83725 373.601934 
" style="fill:none;stroke:#ffffff;stroke-linecap:round;stroke-width:0.8;"/>
     </g>
    </g>
    <g id="ytick_57">
     <g id="line2d_125">
      <path clip-path="url(#pfc70d55ba9)" d="M 489.50925 359.479904 
L 866.83725 359.479904 
" style="fill:none;stroke:#ffffff;stroke-linecap:round;stroke-width:0.8;"/>
     </g>
    </g>
    <g id="ytick_58">
     <g id="line2d_126">
      <path clip-path="url(#pfc70d55ba9)" d="M 489.50925 345.357875 
L 866.83725 345.357875 
" style="fill:none;stroke:#ffffff;stroke-linecap:round;stroke-width:0.8;"/>
     </g>
    </g>
    <g id="ytick_59">
     <g id="line2d_127">
      <path clip-path="url(#pfc70d55ba9)" d="M 489.50925 331.235845 
L 866.83725 331.235845 
" style="fill:none;stroke:#ffffff;stroke-linecap:round;stroke-width:0.8;"/>
     </g>
    </g>
    <g id="ytick_60">
     <g id="line2d_128">
      <path clip-path="url(#pfc70d55ba9)" d="M 489.50925 317.113815 
L 866.83725 317.113815 
" style="fill:none;stroke:#ffffff;stroke-linecap:round;stroke-width:0.8;"/>
     </g>
    </g>
    <g id="ytick_61">
     <g id="line2d_129">
      <path clip-path="url(#pfc70d55ba9)" d="M 489.50925 302.991785 
L 866.83725 302.991785 
" style="fill:none;stroke:#ffffff;stroke-linecap:round;stroke-width:0.8;"/>
     </g>
    </g>
    <g id="ytick_62">
     <g id="line2d_130">
      <path clip-path="url(#pfc70d55ba9)" d="M 489.50925 288.869755 
L 866.83725 288.869755 
" style="fill:none;stroke:#ffffff;stroke-linecap:round;stroke-width:0.8;"/>
     </g>
    </g>
    <g id="ytick_63">
     <g id="line2d_131">
      <path clip-path="url(#pfc70d55ba9)" d="M 489.50925 274.747725 
L 866.83725 274.747725 
" style="fill:none;stroke:#ffffff;stroke-linecap:round;stroke-width:0.8;"/>
     </g>
    </g>
    <g id="ytick_64">
     <g id="line2d_132">
      <path clip-path="url(#pfc70d55ba9)" d="M 489.50925 260.625696 
L 866.83725 260.625696 
" style="fill:none;stroke:#ffffff;stroke-linecap:round;stroke-width:0.8;"/>
     </g>
    </g>
    <g id="ytick_65">
     <g id="line2d_133">
      <path clip-path="url(#pfc70d55ba9)" d="M 489.50925 246.503666 
L 866.83725 246.503666 
" style="fill:none;stroke:#ffffff;stroke-linecap:round;stroke-width:0.8;"/>
     </g>
    </g>
    <g id="ytick_66">
     <g id="line2d_134">
      <path clip-path="url(#pfc70d55ba9)" d="M 489.50925 232.381636 
L 866.83725 232.381636 
" style="fill:none;stroke:#ffffff;stroke-linecap:round;stroke-width:0.8;"/>
     </g>
    </g>
    <g id="ytick_67">
     <g id="line2d_135">
      <path clip-path="url(#pfc70d55ba9)" d="M 489.50925 218.259606 
L 866.83725 218.259606 
" style="fill:none;stroke:#ffffff;stroke-linecap:round;stroke-width:0.8;"/>
     </g>
    </g>
    <g id="ytick_68">
     <g id="line2d_136">
      <path clip-path="url(#pfc70d55ba9)" d="M 489.50925 204.137576 
L 866.83725 204.137576 
" style="fill:none;stroke:#ffffff;stroke-linecap:round;stroke-width:0.8;"/>
     </g>
    </g>
    <g id="ytick_69">
     <g id="line2d_137">
      <path clip-path="url(#pfc70d55ba9)" d="M 489.50925 190.015546 
L 866.83725 190.015546 
" style="fill:none;stroke:#ffffff;stroke-linecap:round;stroke-width:0.8;"/>
     </g>
    </g>
    <g id="ytick_70">
     <g id="line2d_138">
      <path clip-path="url(#pfc70d55ba9)" d="M 489.50925 175.893516 
L 866.83725 175.893516 
" style="fill:none;stroke:#ffffff;stroke-linecap:round;stroke-width:0.8;"/>
     </g>
    </g>
    <g id="ytick_71">
     <g id="line2d_139">
      <path clip-path="url(#pfc70d55ba9)" d="M 489.50925 161.771487 
L 866.83725 161.771487 
" style="fill:none;stroke:#ffffff;stroke-linecap:round;stroke-width:0.8;"/>
     </g>
    </g>
    <g id="ytick_72">
     <g id="line2d_140">
      <path clip-path="url(#pfc70d55ba9)" d="M 489.50925 147.649457 
L 866.83725 147.649457 
" style="fill:none;stroke:#ffffff;stroke-linecap:round;stroke-width:0.8;"/>
     </g>
    </g>
    <g id="ytick_73">
     <g id="line2d_141">
      <path clip-path="url(#pfc70d55ba9)" d="M 489.50925 133.527427 
L 866.83725 133.527427 
" style="fill:none;stroke:#ffffff;stroke-linecap:round;stroke-width:0.8;"/>
     </g>
    </g>
    <g id="ytick_74">
     <g id="line2d_142">
      <path clip-path="url(#pfc70d55ba9)" d="M 489.50925 119.405397 
L 866.83725 119.405397 
" style="fill:none;stroke:#ffffff;stroke-linecap:round;stroke-width:0.8;"/>
     </g>
    </g>
    <g id="ytick_75">
     <g id="line2d_143">
      <path clip-path="url(#pfc70d55ba9)" d="M 489.50925 105.283367 
L 866.83725 105.283367 
" style="fill:none;stroke:#ffffff;stroke-linecap:round;stroke-width:0.8;"/>
     </g>
    </g>
    <g id="ytick_76">
     <g id="line2d_144">
      <path clip-path="url(#pfc70d55ba9)" d="M 489.50925 91.161337 
L 866.83725 91.161337 
" style="fill:none;stroke:#ffffff;stroke-linecap:round;stroke-width:0.8;"/>
     </g>
    </g>
    <g id="ytick_77">
     <g id="line2d_145">
      <path clip-path="url(#pfc70d55ba9)" d="M 489.50925 77.039307 
L 866.83725 77.039307 
" style="fill:none;stroke:#ffffff;stroke-linecap:round;stroke-width:0.8;"/>
     </g>
    </g>
    <g id="ytick_78">
     <g id="line2d_146">
      <path clip-path="url(#pfc70d55ba9)" d="M 489.50925 62.917278 
L 866.83725 62.917278 
" style="fill:none;stroke:#ffffff;stroke-linecap:round;stroke-width:0.8;"/>
     </g>
    </g>
    <g id="ytick_79">
     <g id="line2d_147">
      <path clip-path="url(#pfc70d55ba9)" d="M 489.50925 48.795248 
L 866.83725 48.795248 
" style="fill:none;stroke:#ffffff;stroke-linecap:round;stroke-width:0.8;"/>
     </g>
    </g>
    <g id="ytick_80">
     <g id="line2d_148">
      <path clip-path="url(#pfc70d55ba9)" d="M 489.50925 34.673218 
L 866.83725 34.673218 
" style="fill:none;stroke:#ffffff;stroke-linecap:round;stroke-width:0.8;"/>
     </g>
    </g>
   </g>
   <g id="PolyCollection_2">
    <path clip-path="url(#pfc70d55ba9)" d="M 506.660523 591.787296 
L 506.660523 579.077469 
L 602.206212 579.077469 
L 602.206212 591.787296 
z
" style="fill:#595959;"/>
    <path clip-path="url(#pfc70d55ba9)" d="M 506.660523 577.665266 
L 506.660523 564.955439 
L 599.582042 564.955439 
L 599.582042 577.665266 
z
" style="fill:#595959;"/>
    <path clip-path="url(#pfc70d55ba9)" d="M 506.660523 563.543236 
L 506.660523 550.833409 
L 584.569922 550.833409 
L 584.569922 563.543236 
z
" style="fill:#595959;"/>
    <path clip-path="url(#pfc70d55ba9)" d="M 506.660523 549.421206 
L 506.660523 536.711379 
L 602.999894 536.711379 
L 602.999894 549.421206 
z
" style="fill:#595959;"/>
    <path clip-path="url(#pfc70d55ba9)" d="M 506.660523 535.299176 
L 506.660523 522.589349 
L 620.664373 522.589349 
L 620.664373 535.299176 
z
" style="fill:#595959;"/>
    <path clip-path="url(#pfc70d55ba9)" d="M 506.660523 521.177146 
L 506.660523 508.467319 
L 610.471599 508.467319 
L 610.471599 521.177146 
z
" style="fill:#595959;"/>
    <path clip-path="url(#pfc70d55ba9)" d="M 506.660523 507.055116 
L 506.660523 494.34529 
L 652.226647 494.34529 
L 652.226647 507.055116 
z
" style="fill:#595959;"/>
    <path clip-path="url(#pfc70d55ba9)" d="M 506.660523 492.933087 
L 506.660523 480.22326 
L 840.453373 480.22326 
L 840.453373 492.933087 
z
" style="fill:#595959;"/>
    <path clip-path="url(#pfc70d55ba9)" d="M 506.660523 478.811057 
L 506.660523 466.10123 
L 588.931206 466.10123 
L 588.931206 478.811057 
z
" style="fill:#595959;"/>
    <path clip-path="url(#pfc70d55ba9)" d="M 506.660523 464.689027 
L 506.660523 451.9792 
L 621.58226 451.9792 
L 621.58226 464.689027 
z
" style="fill:#595959;"/>
    <path clip-path="url(#pfc70d55ba9)" d="M 506.660523 450.566997 
L 506.660523 437.85717 
L 668.46937 437.85717 
L 668.46937 450.566997 
z
" style="fill:#595959;"/>
    <path clip-path="url(#pfc70d55ba9)" d="M 506.660523 436.444967 
L 506.660523 423.73514 
L 584.37965 423.73514 
L 584.37965 436.444967 
z
" style="fill:#595959;"/>
    <path clip-path="url(#pfc70d55ba9)" d="M 506.660523 422.322937 
L 506.660523 409.61311 
L 600.452361 409.61311 
L 600.452361 422.322937 
z
" style="fill:#595959;"/>
    <path clip-path="url(#pfc70d55ba9)" d="M 506.660523 408.200907 
L 506.660523 395.491081 
L 758.969324 395.491081 
L 758.969324 408.200907 
z
" style="fill:#595959;"/>
    <path clip-path="url(#pfc70d55ba9)" d="M 506.660523 394.078878 
L 506.660523 381.369051 
L 596.542973 381.369051 
L 596.542973 394.078878 
z
" style="fill:#595959;"/>
    <path clip-path="url(#pfc70d55ba9)" d="M 506.660523 379.956848 
L 506.660523 367.247021 
L 612.191977 367.247021 
L 612.191977 379.956848 
z
" style="fill:#595959;"/>
    <path clip-path="url(#pfc70d55ba9)" d="M 506.660523 365.834818 
L 506.660523 353.124991 
L 685.214201 353.124991 
L 685.214201 365.834818 
z
" style="fill:#595959;"/>
    <path clip-path="url(#pfc70d55ba9)" d="M 506.660523 351.712788 
L 506.660523 339.002961 
L 612.381368 339.002961 
L 612.381368 351.712788 
z
" style="fill:#595959;"/>
    <path clip-path="url(#pfc70d55ba9)" d="M 506.660523 337.590758 
L 506.660523 324.880931 
L 636.463128 324.880931 
L 636.463128 337.590758 
z
" style="fill:#595959;"/>
    <path clip-path="url(#pfc70d55ba9)" d="M 506.660523 323.468728 
L 506.660523 310.758901 
L 584.512664 310.758901 
L 584.512664 323.468728 
z
" style="fill:#595959;"/>
    <path clip-path="url(#pfc70d55ba9)" d="M 506.660523 309.346699 
L 506.660523 296.636872 
L 638.897907 296.636872 
L 638.897907 309.346699 
z
" style="fill:#595959;"/>
    <path clip-path="url(#pfc70d55ba9)" d="M 506.660523 295.224669 
L 506.660523 282.514842 
L 620.298804 282.514842 
L 620.298804 295.224669 
z
" style="fill:#595959;"/>
    <path clip-path="url(#pfc70d55ba9)" d="M 506.660523 281.102639 
L 506.660523 268.392812 
L 580.901898 268.392812 
L 580.901898 281.102639 
z
" style="fill:#595959;"/>
    <path clip-path="url(#pfc70d55ba9)" d="M 506.660523 266.980609 
L 506.660523 254.270782 
L 587.155333 254.270782 
L 587.155333 266.980609 
z
" style="fill:#595959;"/>
    <path clip-path="url(#pfc70d55ba9)" d="M 506.660523 252.858579 
L 506.660523 240.148752 
L 599.937041 240.148752 
L 599.937041 252.858579 
z
" style="fill:#595959;"/>
    <path clip-path="url(#pfc70d55ba9)" d="M 506.660523 238.736549 
L 506.660523 226.026722 
L 601.447766 226.026722 
L 601.447766 238.736549 
z
" style="fill:#595959;"/>
    <path clip-path="url(#pfc70d55ba9)" d="M 506.660523 224.614519 
L 506.660523 211.904693 
L 585.264944 211.904693 
L 585.264944 224.614519 
z
" style="fill:#595959;"/>
    <path clip-path="url(#pfc70d55ba9)" d="M 506.660523 210.49249 
L 506.660523 197.782663 
L 594.426196 197.782663 
L 594.426196 210.49249 
z
" style="fill:#595959;"/>
    <path clip-path="url(#pfc70d55ba9)" d="M 506.660523 196.37046 
L 506.660523 183.660633 
L 665.392423 183.660633 
L 665.392423 196.37046 
z
" style="fill:#595959;"/>
    <path clip-path="url(#pfc70d55ba9)" d="M 506.660523 182.24843 
L 506.660523 169.538603 
L 629.571048 169.538603 
L 629.571048 182.24843 
z
" style="fill:#595959;"/>
    <path clip-path="url(#pfc70d55ba9)" d="M 506.660523 168.1264 
L 506.660523 155.416573 
L 597.006321 155.416573 
L 597.006321 168.1264 
z
" style="fill:#595959;"/>
    <path clip-path="url(#pfc70d55ba9)" d="M 506.660523 154.00437 
L 506.660523 141.294543 
L 578.948965 141.294543 
L 578.948965 154.00437 
z
" style="fill:#595959;"/>
    <path clip-path="url(#pfc70d55ba9)" d="M 506.660523 139.88234 
L 506.660523 127.172513 
L 629.227501 127.172513 
L 629.227501 139.88234 
z
" style="fill:#595959;"/>
    <path clip-path="url(#pfc70d55ba9)" d="M 506.660523 125.76031 
L 506.660523 113.050484 
L 587.33063 113.050484 
L 587.33063 125.76031 
z
" style="fill:#595959;"/>
    <path clip-path="url(#pfc70d55ba9)" d="M 506.660523 111.638281 
L 506.660523 98.928454 
L 586.611824 98.928454 
L 586.611824 111.638281 
z
" style="fill:#595959;"/>
    <path clip-path="url(#pfc70d55ba9)" d="M 506.660523 97.516251 
L 506.660523 84.806424 
L 615.448626 84.806424 
L 615.448626 97.516251 
z
" style="fill:#595959;"/>
    <path clip-path="url(#pfc70d55ba9)" d="M 506.660523 83.394221 
L 506.660523 70.684394 
L 723.620106 70.684394 
L 723.620106 83.394221 
z
" style="fill:#595959;"/>
    <path clip-path="url(#pfc70d55ba9)" d="M 506.660523 69.272191 
L 506.660523 56.562364 
L 848.465064 56.562364 
L 848.465064 69.272191 
z
" style="fill:#595959;"/>
    <path clip-path="url(#pfc70d55ba9)" d="M 506.660523 55.150161 
L 506.660523 42.440334 
L 841.268196 42.440334 
L 841.268196 55.150161 
z
" style="fill:#595959;"/>
    <path clip-path="url(#pfc70d55ba9)" d="M 506.660523 41.028131 
L 506.660523 28.318304 
L 585.057935 28.318304 
L 585.057935 41.028131 
z
" style="fill:#595959;"/>
   </g>
   <g id="patch_9">
    <path d="M 489.50925 26.2 
L 866.83725 26.2 
L 866.83725 7.2 
L 489.50925 7.2 
z
" style="fill:#d3d3d3;"/>
   </g>
   <g id="patch_10">
    <path d="M 489.50925 593.9056 
L 489.50925 26.2 
" style="fill:none;stroke:#ffffff;stroke-linecap:square;stroke-linejoin:miter;"/>
   </g>
   <g id="patch_11">
    <path d="M 866.83725 593.9056 
L 866.83725 26.2 
" style="fill:none;stroke:#ffffff;stroke-linecap:square;stroke-linejoin:miter;"/>
   </g>
   <g id="patch_12">
    <path d="M 489.50925 593.9056 
L 866.83725 593.9056 
" style="fill:none;stroke:#ffffff;stroke-linecap:square;stroke-linejoin:miter;"/>
   </g>
   <g id="patch_13">
    <path d="M 489.50925 26.2 
L 866.83725 26.2 
" style="fill:none;stroke:#ffffff;stroke-linecap:square;stroke-linejoin:miter;"/>
   </g>
   <g id="text_53">
    <!-- published -->
    <g style="fill:#262626;" transform="translate(646.557859 20.287188)scale(0.13 -0.13)">
     <use xlink:href="#DejaVuSans-112"/>
     <use x="63.476562" xlink:href="#DejaVuSans-117"/>
     <use x="126.855469" xlink:href="#DejaVuSans-98"/>
     <use x="190.332031" xlink:href="#DejaVuSans-108"/>
     <use x="218.115234" xlink:href="#DejaVuSans-105"/>
     <use x="245.898438" xlink:href="#DejaVuSans-115"/>
     <use x="297.998047" xlink:href="#DejaVuSans-104"/>
     <use x="361.376953" xlink:href="#DejaVuSans-101"/>
     <use x="422.900391" xlink:href="#DejaVuSans-100"/>
    </g>
   </g>
  </g>
 </g>
 <defs>
  <clipPath id="pfad9a93bf6">
   <rect height="567.7056" width="377.328" x="104.98125" y="26.2"/>
  </clipPath>
  <clipPath id="pfc70d55ba9">
   <rect height="567.7056" width="377.328" x="489.50925" y="26.2"/>
  </clipPath>
 </defs>
</svg>
