<?xml version="1.0" encoding="utf-8" standalone="no"?>
<!DOCTYPE svg PUBLIC "-//W3C//DTD SVG 1.1//EN"
  "http://www.w3.org/Graphics/SVG/1.1/DTD/svg11.dtd">
<!-- Created with matplotlib (https://matplotlib.org/) -->
<svg height="397.359687pt" version="1.1" viewBox="0 0 643.087188 397.359687" width="643.087188pt" xmlns="http://www.w3.org/2000/svg" xmlns:xlink="http://www.w3.org/1999/xlink">
 <defs>
  <style type="text/css">
*{stroke-linecap:butt;stroke-linejoin:round;}
  </style>
 </defs>
 <g id="figure_1">
  <g id="patch_1">
   <path d="M 0 397.359687
L 643.087188 397.359687
L 643.087188 0
L 0 0
z
" style="fill:#ffffff;"/>
  </g>
  <g id="axes_1">
   <g id="patch_2">
    <path d="M 77.887188 357.84
L 353.287188 357.84
L 353.287188 25.2
L 77.887188 25.2
z
" style="fill:#ffffff;"/>
   </g>
   <g id="matplotlib.axis_1">
    <g id="xtick_1">
     <g id="line2d_1">
      <defs>
       <path d="M 0 0
L 0 4.8
" id="m6db0ce62e7" style="stroke:#262626;"/>
      </defs>
      <g>
       <use style="fill:#262626;stroke:#262626;" x="90.405369" xlink:href="#m6db0ce62e7" y="357.84"/>
      </g>
     </g>
     <g id="text_1">
      <!-- 0 -->
      <defs>
       <path d="M 4.15625 35.296875
Q 4.15625 48 6.765625 55.734375
Q 9.375 63.484375 14.515625 67.671875
Q 19.671875 71.875 27.484375 71.875
Q 33.25 71.875 37.59375 69.546875
Q 41.9375 67.234375 44.765625 62.859375
Q 47.609375 58.5 49.21875 52.21875
Q 50.828125 45.953125 50.828125 35.296875
Q 50.828125 22.703125 48.234375 14.96875
Q 45.65625 7.234375 40.5 3
Q 35.359375 -1.21875 27.484375 -1.21875
Q 17.140625 -1.21875 11.234375 6.203125
Q 4.15625 15.140625 4.15625 35.296875
z
M 13.1875 35.296875
Q 13.1875 17.671875 17.3125 11.828125
Q 21.4375 6 27.484375 6
Q 33.546875 6 37.671875 11.859375
Q 41.796875 17.71875 41.796875 35.296875
Q 41.796875 52.984375 37.671875 58.78125
Q 33.546875 64.59375 27.390625 64.59375
Q 21.34375 64.59375 17.71875 59.46875
Q 13.1875 52.9375 13.1875 35.296875
z
" id="ArialMT-48"/>
      </defs>
      <g style="fill:#262626;" transform="translate(87.624901 372.197812)scale(0.1 -0.1)">
       <use xlink:href="#ArialMT-48"/>
      </g>
     </g>
    </g>
    <g id="xtick_2">
     <g id="line2d_2">
      <g>
       <use style="fill:#262626;stroke:#262626;" x="174.885219" xlink:href="#m6db0ce62e7" y="357.84"/>
      </g>
     </g>
     <g id="text_2">
      <!-- 2e+05 -->
      <defs>
       <path d="M 50.34375 8.453125
L 50.34375 0
L 3.03125 0
Q 2.9375 3.171875 4.046875 6.109375
Q 5.859375 10.9375 9.828125 15.625
Q 13.8125 20.3125 21.34375 26.46875
Q 33.015625 36.03125 37.109375 41.625
Q 41.21875 47.21875 41.21875 52.203125
Q 41.21875 57.421875 37.46875 61
Q 33.734375 64.59375 27.734375 64.59375
Q 21.390625 64.59375 17.578125 60.78125
Q 13.765625 56.984375 13.71875 50.25
L 4.6875 51.171875
Q 5.609375 61.28125 11.65625 66.578125
Q 17.71875 71.875 27.9375 71.875
Q 38.234375 71.875 44.234375 66.15625
Q 50.25 60.453125 50.25 52
Q 50.25 47.703125 48.484375 43.546875
Q 46.734375 39.40625 42.65625 34.8125
Q 38.578125 30.21875 29.109375 22.21875
Q 21.1875 15.578125 18.9375 13.203125
Q 16.703125 10.84375 15.234375 8.453125
z
" id="ArialMT-50"/>
       <path d="M 42.09375 16.703125
L 51.171875 15.578125
Q 49.03125 7.625 43.21875 3.21875
Q 37.40625 -1.171875 28.375 -1.171875
Q 17 -1.171875 10.328125 5.828125
Q 3.65625 12.84375 3.65625 25.484375
Q 3.65625 38.578125 10.390625 45.796875
Q 17.140625 53.03125 27.875 53.03125
Q 38.28125 53.03125 44.875 45.953125
Q 51.46875 38.875 51.46875 26.03125
Q 51.46875 25.25 51.421875 23.6875
L 12.75 23.6875
Q 13.234375 15.140625 17.578125 10.59375
Q 21.921875 6.0625 28.421875 6.0625
Q 33.25 6.0625 36.671875 8.59375
Q 40.09375 11.140625 42.09375 16.703125
z
M 13.234375 30.90625
L 42.1875 30.90625
Q 41.609375 37.453125 38.875 40.71875
Q 34.671875 45.796875 27.984375 45.796875
Q 21.921875 45.796875 17.796875 41.75
Q 13.671875 37.703125 13.234375 30.90625
z
" id="ArialMT-101"/>
       <path d="M 25.046875 11.578125
L 25.046875 31.203125
L 5.5625 31.203125
L 5.5625 39.40625
L 25.046875 39.40625
L 25.046875 58.890625
L 33.34375 58.890625
L 33.34375 39.40625
L 52.828125 39.40625
L 52.828125 31.203125
L 33.34375 31.203125
L 33.34375 11.578125
z
" id="ArialMT-43"/>
       <path d="M 4.15625 18.75
L 13.375 19.53125
Q 14.40625 12.796875 18.140625 9.390625
Q 21.875 6 27.15625 6
Q 33.5 6 37.890625 10.78125
Q 42.28125 15.578125 42.28125 23.484375
Q 42.28125 31 38.0625 35.34375
Q 33.84375 39.703125 27 39.703125
Q 22.75 39.703125 19.328125 37.765625
Q 15.921875 35.84375 13.96875 32.765625
L 5.71875 33.84375
L 12.640625 70.609375
L 48.25 70.609375
L 48.25 62.203125
L 19.671875 62.203125
L 15.828125 42.96875
Q 22.265625 47.46875 29.34375 47.46875
Q 38.71875 47.46875 45.15625 40.96875
Q 51.609375 34.46875 51.609375 24.265625
Q 51.609375 14.546875 45.953125 7.46875
Q 39.0625 -1.21875 27.15625 -1.21875
Q 17.390625 -1.21875 11.203125 4.25
Q 5.03125 9.71875 4.15625 18.75
z
" id="ArialMT-53"/>
      </defs>
      <g style="fill:#262626;" transform="translate(160.843031 372.197812)scale(0.1 -0.1)">
       <use xlink:href="#ArialMT-50"/>
       <use x="55.615234" xlink:href="#ArialMT-101"/>
       <use x="111.230469" xlink:href="#ArialMT-43"/>
       <use x="169.628906" xlink:href="#ArialMT-48"/>
       <use x="225.244141" xlink:href="#ArialMT-53"/>
      </g>
     </g>
    </g>
    <g id="xtick_3">
     <g id="line2d_3">
      <g>
       <use style="fill:#262626;stroke:#262626;" x="259.365068" xlink:href="#m6db0ce62e7" y="357.84"/>
      </g>
     </g>
     <g id="text_3">
      <!-- 4e+05 -->
      <defs>
       <path d="M 32.328125 0
L 32.328125 17.140625
L 1.265625 17.140625
L 1.265625 25.203125
L 33.9375 71.578125
L 41.109375 71.578125
L 41.109375 25.203125
L 50.78125 25.203125
L 50.78125 17.140625
L 41.109375 17.140625
L 41.109375 0
z
M 32.328125 25.203125
L 32.328125 57.46875
L 9.90625 25.203125
z
" id="ArialMT-52"/>
      </defs>
      <g style="fill:#262626;" transform="translate(245.32288 372.197812)scale(0.1 -0.1)">
       <use xlink:href="#ArialMT-52"/>
       <use x="55.615234" xlink:href="#ArialMT-101"/>
       <use x="111.230469" xlink:href="#ArialMT-43"/>
       <use x="169.628906" xlink:href="#ArialMT-48"/>
       <use x="225.244141" xlink:href="#ArialMT-53"/>
      </g>
     </g>
    </g>
    <g id="xtick_4">
     <g id="line2d_4">
      <g>
       <use style="fill:#262626;stroke:#262626;" x="343.844917" xlink:href="#m6db0ce62e7" y="357.84"/>
      </g>
     </g>
     <g id="text_4">
      <!-- 6e+05 -->
      <defs>
       <path d="M 49.75 54.046875
L 41.015625 53.375
Q 39.84375 58.546875 37.703125 60.890625
Q 34.125 64.65625 28.90625 64.65625
Q 24.703125 64.65625 21.53125 62.3125
Q 17.390625 59.28125 14.984375 53.46875
Q 12.59375 47.65625 12.5 36.921875
Q 15.671875 41.75 20.265625 44.09375
Q 24.859375 46.4375 29.890625 46.4375
Q 38.671875 46.4375 44.84375 39.96875
Q 51.03125 33.5 51.03125 23.25
Q 51.03125 16.5 48.125 10.71875
Q 45.21875 4.9375 40.140625 1.859375
Q 35.0625 -1.21875 28.609375 -1.21875
Q 17.625 -1.21875 10.6875 6.859375
Q 3.765625 14.9375 3.765625 33.5
Q 3.765625 54.25 11.421875 63.671875
Q 18.109375 71.875 29.4375 71.875
Q 37.890625 71.875 43.28125 67.140625
Q 48.6875 62.40625 49.75 54.046875
z
M 13.875 23.1875
Q 13.875 18.65625 15.796875 14.5
Q 17.71875 10.359375 21.1875 8.171875
Q 24.65625 6 28.46875 6
Q 34.03125 6 38.03125 10.484375
Q 42.046875 14.984375 42.046875 22.703125
Q 42.046875 30.125 38.078125 34.390625
Q 34.125 38.671875 28.125 38.671875
Q 22.171875 38.671875 18.015625 34.390625
Q 13.875 30.125 13.875 23.1875
z
" id="ArialMT-54"/>
      </defs>
      <g style="fill:#262626;" transform="translate(329.802729 372.197812)scale(0.1 -0.1)">
       <use xlink:href="#ArialMT-54"/>
       <use x="55.615234" xlink:href="#ArialMT-101"/>
       <use x="111.230469" xlink:href="#ArialMT-43"/>
       <use x="169.628906" xlink:href="#ArialMT-48"/>
       <use x="225.244141" xlink:href="#ArialMT-53"/>
      </g>
     </g>
    </g>
    <g id="xtick_5">
     <g id="line2d_5">
      <defs>
       <path d="M 0 0
L 0 3.2
" id="m091fb68d52" style="stroke:#262626;stroke-width:0.8;"/>
      </defs>
      <g>
       <use style="fill:#262626;stroke:#262626;stroke-width:0.8;" x="132.645294" xlink:href="#m091fb68d52" y="357.84"/>
      </g>
     </g>
    </g>
    <g id="xtick_6">
     <g id="line2d_6">
      <g>
       <use style="fill:#262626;stroke:#262626;stroke-width:0.8;" x="217.125143" xlink:href="#m091fb68d52" y="357.84"/>
      </g>
     </g>
    </g>
    <g id="xtick_7">
     <g id="line2d_7">
      <g>
       <use style="fill:#262626;stroke:#262626;stroke-width:0.8;" x="301.604992" xlink:href="#m091fb68d52" y="357.84"/>
      </g>
     </g>
    </g>
   </g>
   <g id="matplotlib.axis_2">
    <g id="ytick_1">
     <g id="line2d_8">
      <defs>
       <path d="M 0 0
L -4.8 0
" id="me8e1adf245" style="stroke:#262626;"/>
      </defs>
      <g>
       <use style="fill:#262626;stroke:#262626;" x="77.887188" xlink:href="#me8e1adf245" y="352.875224"/>
      </g>
     </g>
     <g id="text_5">
      <!-- ’ -->
      <defs>
       <path d="M 6.0625 62.109375
L 6.0625 72.3125
L 15.484375 72.3125
L 15.484375 64.265625
Q 15.484375 57.71875 13.96875 54.828125
Q 11.859375 50.875 7.421875 48.875
L 5.28125 52.34375
Q 7.90625 53.421875 9.203125 55.734375
Q 10.5 58.0625 10.640625 62.109375
z
" id="ArialMT-8217"/>
      </defs>
      <g style="fill:#262626;" transform="translate(68.536413 356.339605)scale(0.0968 -0.0968)">
       <use xlink:href="#ArialMT-8217"/>
      </g>
     </g>
    </g>
    <g id="ytick_2">
     <g id="line2d_9">
      <g>
       <use style="fill:#262626;stroke:#262626;" x="77.887188" xlink:href="#me8e1adf245" y="344.600597"/>
      </g>
     </g>
     <g id="text_6">
      <!-- al -->
      <defs>
       <path d="M 40.4375 6.390625
Q 35.546875 2.25 31.03125 0.53125
Q 26.515625 -1.171875 21.34375 -1.171875
Q 12.796875 -1.171875 8.203125 3
Q 3.609375 7.171875 3.609375 13.671875
Q 3.609375 17.484375 5.34375 20.625
Q 7.078125 23.78125 9.890625 25.6875
Q 12.703125 27.59375 16.21875 28.5625
Q 18.796875 29.25 24.03125 29.890625
Q 34.671875 31.15625 39.703125 32.90625
Q 39.75 34.71875 39.75 35.203125
Q 39.75 40.578125 37.25 42.78125
Q 33.890625 45.75 27.25 45.75
Q 21.046875 45.75 18.09375 43.578125
Q 15.140625 41.40625 13.71875 35.890625
L 5.125 37.0625
Q 6.296875 42.578125 8.984375 45.96875
Q 11.671875 49.359375 16.75 51.1875
Q 21.828125 53.03125 28.515625 53.03125
Q 35.15625 53.03125 39.296875 51.46875
Q 43.453125 49.90625 45.40625 47.53125
Q 47.359375 45.171875 48.140625 41.546875
Q 48.578125 39.3125 48.578125 33.453125
L 48.578125 21.734375
Q 48.578125 9.46875 49.140625 6.21875
Q 49.703125 2.984375 51.375 0
L 42.1875 0
Q 40.828125 2.734375 40.4375 6.390625
z
M 39.703125 26.03125
Q 34.90625 24.078125 25.34375 22.703125
Q 19.921875 21.921875 17.671875 20.9375
Q 15.4375 19.96875 14.203125 18.09375
Q 12.984375 16.21875 12.984375 13.921875
Q 12.984375 10.40625 15.640625 8.0625
Q 18.3125 5.71875 23.4375 5.71875
Q 28.515625 5.71875 32.46875 7.9375
Q 36.421875 10.15625 38.28125 14.015625
Q 39.703125 17 39.703125 22.796875
z
" id="ArialMT-97"/>
       <path d="M 6.390625 0
L 6.390625 71.578125
L 15.1875 71.578125
L 15.1875 0
z
" id="ArialMT-108"/>
      </defs>
      <g style="fill:#262626;" transform="translate(63.153425 348.064978)scale(0.0968 -0.0968)">
       <use xlink:href="#ArialMT-97"/>
       <use x="55.615234" xlink:href="#ArialMT-108"/>
      </g>
     </g>
    </g>
    <g id="ytick_3">
     <g id="line2d_10">
      <g>
       <use style="fill:#262626;stroke:#262626;" x="77.887188" xlink:href="#me8e1adf245" y="336.32597"/>
      </g>
     </g>
     <g id="text_7">
      <!-- genetic -->
      <defs>
       <path d="M 4.984375 -4.296875
L 13.53125 -5.5625
Q 14.0625 -9.515625 16.5 -11.328125
Q 19.78125 -13.765625 25.4375 -13.765625
Q 31.546875 -13.765625 34.859375 -11.328125
Q 38.1875 -8.890625 39.359375 -4.5
Q 40.046875 -1.8125 39.984375 6.78125
Q 34.234375 0 25.640625 0
Q 14.9375 0 9.078125 7.71875
Q 3.21875 15.4375 3.21875 26.21875
Q 3.21875 33.640625 5.90625 39.90625
Q 8.59375 46.1875 13.6875 49.609375
Q 18.796875 53.03125 25.6875 53.03125
Q 34.859375 53.03125 40.828125 45.609375
L 40.828125 51.859375
L 48.921875 51.859375
L 48.921875 7.03125
Q 48.921875 -5.078125 46.453125 -10.125
Q 44 -15.1875 38.640625 -18.109375
Q 33.296875 -21.046875 25.484375 -21.046875
Q 16.21875 -21.046875 10.5 -16.875
Q 4.78125 -12.703125 4.984375 -4.296875
z
M 12.25 26.859375
Q 12.25 16.65625 16.296875 11.96875
Q 20.359375 7.28125 26.46875 7.28125
Q 32.515625 7.28125 36.609375 11.9375
Q 40.71875 16.609375 40.71875 26.5625
Q 40.71875 36.078125 36.5 40.90625
Q 32.28125 45.75 26.3125 45.75
Q 20.453125 45.75 16.34375 40.984375
Q 12.25 36.234375 12.25 26.859375
z
" id="ArialMT-103"/>
       <path d="M 6.59375 0
L 6.59375 51.859375
L 14.5 51.859375
L 14.5 44.484375
Q 20.21875 53.03125 31 53.03125
Q 35.6875 53.03125 39.625 51.34375
Q 43.5625 49.65625 45.515625 46.921875
Q 47.46875 44.1875 48.25 40.4375
Q 48.734375 37.984375 48.734375 31.890625
L 48.734375 0
L 39.9375 0
L 39.9375 31.546875
Q 39.9375 36.921875 38.90625 39.578125
Q 37.890625 42.234375 35.28125 43.8125
Q 32.671875 45.40625 29.15625 45.40625
Q 23.53125 45.40625 19.453125 41.84375
Q 15.375 38.28125 15.375 28.328125
L 15.375 0
z
" id="ArialMT-110"/>
       <path d="M 25.78125 7.859375
L 27.046875 0.09375
Q 23.34375 -0.6875 20.40625 -0.6875
Q 15.625 -0.6875 12.984375 0.828125
Q 10.359375 2.34375 9.28125 4.8125
Q 8.203125 7.28125 8.203125 15.1875
L 8.203125 45.015625
L 1.765625 45.015625
L 1.765625 51.859375
L 8.203125 51.859375
L 8.203125 64.703125
L 16.9375 69.96875
L 16.9375 51.859375
L 25.78125 51.859375
L 25.78125 45.015625
L 16.9375 45.015625
L 16.9375 14.703125
Q 16.9375 10.9375 17.40625 9.859375
Q 17.875 8.796875 18.921875 8.15625
Q 19.96875 7.515625 21.921875 7.515625
Q 23.390625 7.515625 25.78125 7.859375
z
" id="ArialMT-116"/>
       <path d="M 6.640625 61.46875
L 6.640625 71.578125
L 15.4375 71.578125
L 15.4375 61.46875
z
M 6.640625 0
L 6.640625 51.859375
L 15.4375 51.859375
L 15.4375 0
z
" id="ArialMT-105"/>
       <path d="M 40.4375 19
L 49.078125 17.875
Q 47.65625 8.9375 41.8125 3.875
Q 35.984375 -1.171875 27.484375 -1.171875
Q 16.84375 -1.171875 10.375 5.78125
Q 3.90625 12.75 3.90625 25.734375
Q 3.90625 34.125 6.6875 40.421875
Q 9.46875 46.734375 15.15625 49.875
Q 20.84375 53.03125 27.546875 53.03125
Q 35.984375 53.03125 41.359375 48.75
Q 46.734375 44.484375 48.25 36.625
L 39.703125 35.296875
Q 38.484375 40.53125 35.375 43.15625
Q 32.28125 45.796875 27.875 45.796875
Q 21.234375 45.796875 17.078125 41.03125
Q 12.9375 36.28125 12.9375 25.984375
Q 12.9375 15.53125 16.9375 10.796875
Q 20.953125 6.0625 27.390625 6.0625
Q 32.5625 6.0625 36.03125 9.234375
Q 39.5 12.40625 40.4375 19
z
" id="ArialMT-99"/>
      </defs>
      <g style="fill:#262626;" transform="translate(39.475238 339.790351)scale(0.0968 -0.0968)">
       <use xlink:href="#ArialMT-103"/>
       <use x="55.615234" xlink:href="#ArialMT-101"/>
       <use x="111.230469" xlink:href="#ArialMT-110"/>
       <use x="166.845703" xlink:href="#ArialMT-101"/>
       <use x="222.460938" xlink:href="#ArialMT-116"/>
       <use x="250.244141" xlink:href="#ArialMT-105"/>
       <use x="272.460938" xlink:href="#ArialMT-99"/>
      </g>
     </g>
    </g>
    <g id="ytick_4">
     <g id="line2d_11">
      <g>
       <use style="fill:#262626;stroke:#262626;" x="77.887188" xlink:href="#me8e1adf245" y="328.051343"/>
      </g>
     </g>
     <g id="text_8">
      <!-- non -->
      <defs>
       <path d="M 3.328125 25.921875
Q 3.328125 40.328125 11.328125 47.265625
Q 18.015625 53.03125 27.640625 53.03125
Q 38.328125 53.03125 45.109375 46.015625
Q 51.90625 39.015625 51.90625 26.65625
Q 51.90625 16.65625 48.90625 10.90625
Q 45.90625 5.171875 40.15625 2
Q 34.421875 -1.171875 27.640625 -1.171875
Q 16.75 -1.171875 10.03125 5.8125
Q 3.328125 12.796875 3.328125 25.921875
z
M 12.359375 25.921875
Q 12.359375 15.96875 16.703125 11.015625
Q 21.046875 6.0625 27.640625 6.0625
Q 34.1875 6.0625 38.53125 11.03125
Q 42.875 16.015625 42.875 26.21875
Q 42.875 35.84375 38.5 40.796875
Q 34.125 45.75 27.640625 45.75
Q 21.046875 45.75 16.703125 40.8125
Q 12.359375 35.890625 12.359375 25.921875
z
" id="ArialMT-111"/>
      </defs>
      <g style="fill:#262626;" transform="translate(54.538225 331.515725)scale(0.0968 -0.0968)">
       <use xlink:href="#ArialMT-110"/>
       <use x="55.615234" xlink:href="#ArialMT-111"/>
       <use x="111.230469" xlink:href="#ArialMT-110"/>
      </g>
     </g>
    </g>
    <g id="ytick_5">
     <g id="line2d_12">
      <g>
       <use style="fill:#262626;stroke:#262626;" x="77.887188" xlink:href="#me8e1adf245" y="319.776716"/>
      </g>
     </g>
     <g id="text_9">
      <!-- et -->
      <g style="fill:#262626;" transform="translate(62.614975 323.241098)scale(0.0968 -0.0968)">
       <use xlink:href="#ArialMT-101"/>
       <use x="55.615234" xlink:href="#ArialMT-116"/>
      </g>
     </g>
    </g>
    <g id="ytick_6">
     <g id="line2d_13">
      <g>
       <use style="fill:#262626;stroke:#262626;" x="77.887188" xlink:href="#me8e1adf245" y="311.50209"/>
      </g>
     </g>
     <g id="text_10">
      <!-- binding -->
      <defs>
       <path d="M 14.703125 0
L 6.546875 0
L 6.546875 71.578125
L 15.328125 71.578125
L 15.328125 46.046875
Q 20.90625 53.03125 29.546875 53.03125
Q 34.328125 53.03125 38.59375 51.09375
Q 42.875 49.171875 45.625 45.671875
Q 48.390625 42.1875 49.953125 37.25
Q 51.515625 32.328125 51.515625 26.703125
Q 51.515625 13.375 44.921875 6.09375
Q 38.328125 -1.171875 29.109375 -1.171875
Q 19.921875 -1.171875 14.703125 6.5
z
M 14.59375 26.3125
Q 14.59375 17 17.140625 12.84375
Q 21.296875 6.0625 28.375 6.0625
Q 34.125 6.0625 38.328125 11.0625
Q 42.53125 16.0625 42.53125 25.984375
Q 42.53125 36.140625 38.5 40.96875
Q 34.46875 45.796875 28.765625 45.796875
Q 23 45.796875 18.796875 40.796875
Q 14.59375 35.796875 14.59375 26.3125
z
" id="ArialMT-98"/>
       <path d="M 40.234375 0
L 40.234375 6.546875
Q 35.296875 -1.171875 25.734375 -1.171875
Q 19.53125 -1.171875 14.328125 2.25
Q 9.125 5.671875 6.265625 11.796875
Q 3.421875 17.921875 3.421875 25.875
Q 3.421875 33.640625 6 39.96875
Q 8.59375 46.296875 13.765625 49.65625
Q 18.953125 53.03125 25.34375 53.03125
Q 30.03125 53.03125 33.6875 51.046875
Q 37.359375 49.078125 39.65625 45.90625
L 39.65625 71.578125
L 48.390625 71.578125
L 48.390625 0
z
M 12.453125 25.875
Q 12.453125 15.921875 16.640625 10.984375
Q 20.84375 6.0625 26.5625 6.0625
Q 32.328125 6.0625 36.34375 10.765625
Q 40.375 15.484375 40.375 25.140625
Q 40.375 35.796875 36.265625 40.765625
Q 32.171875 45.75 26.171875 45.75
Q 20.3125 45.75 16.375 40.96875
Q 12.453125 36.1875 12.453125 25.875
z
" id="ArialMT-100"/>
      </defs>
      <g style="fill:#262626;" transform="translate(39.4707 314.966471)scale(0.0968 -0.0968)">
       <use xlink:href="#ArialMT-98"/>
       <use x="55.615234" xlink:href="#ArialMT-105"/>
       <use x="77.832031" xlink:href="#ArialMT-110"/>
       <use x="133.447266" xlink:href="#ArialMT-100"/>
       <use x="189.0625" xlink:href="#ArialMT-105"/>
       <use x="211.279297" xlink:href="#ArialMT-110"/>
       <use x="266.894531" xlink:href="#ArialMT-103"/>
      </g>
     </g>
    </g>
    <g id="ytick_7">
     <g id="line2d_14">
      <g>
       <use style="fill:#262626;stroke:#262626;" x="77.887188" xlink:href="#me8e1adf245" y="303.227463"/>
      </g>
     </g>
     <g id="text_11">
      <!-- ” -->
      <defs>
       <path d="M 4.25 62.109375
L 4.25 72.3125
L 13.671875 72.3125
L 13.671875 64.265625
Q 13.671875 57.71875 12.15625 54.828125
Q 10.0625 50.875 5.609375 48.875
L 3.46875 52.34375
Q 6.109375 53.421875 7.390625 55.734375
Q 8.6875 58.0625 8.84375 62.109375
z
M 19.390625 62.109375
L 19.390625 72.3125
L 28.8125 72.3125
L 28.8125 64.265625
Q 28.8125 57.71875 27.296875 54.828125
Q 25.203125 50.875 20.75 48.875
L 18.609375 52.34375
Q 21.234375 53.421875 22.53125 55.734375
Q 23.828125 58.0625 23.96875 62.109375
z
" id="ArialMT-8221"/>
      </defs>
      <g style="fill:#262626;" transform="translate(67.46405 306.691844)scale(0.0968 -0.0968)">
       <use xlink:href="#ArialMT-8221"/>
      </g>
     </g>
    </g>
    <g id="ytick_8">
     <g id="line2d_15">
      <g>
       <use style="fill:#262626;stroke:#262626;" x="77.887188" xlink:href="#me8e1adf245" y="294.952836"/>
      </g>
     </g>
     <g id="text_12">
      <!-- studies -->
      <defs>
       <path d="M 3.078125 15.484375
L 11.765625 16.84375
Q 12.5 11.625 15.84375 8.84375
Q 19.1875 6.0625 25.203125 6.0625
Q 31.25 6.0625 34.171875 8.515625
Q 37.109375 10.984375 37.109375 14.3125
Q 37.109375 17.28125 34.515625 19
Q 32.71875 20.171875 25.53125 21.96875
Q 15.875 24.421875 12.140625 26.203125
Q 8.40625 27.984375 6.46875 31.125
Q 4.546875 34.28125 4.546875 38.09375
Q 4.546875 41.546875 6.125 44.5
Q 7.71875 47.46875 10.453125 49.421875
Q 12.5 50.921875 16.03125 51.96875
Q 19.578125 53.03125 23.640625 53.03125
Q 29.734375 53.03125 34.34375 51.265625
Q 38.96875 49.515625 41.15625 46.5
Q 43.359375 43.5 44.1875 38.484375
L 35.59375 37.3125
Q 35.015625 41.3125 32.203125 43.546875
Q 29.390625 45.796875 24.265625 45.796875
Q 18.21875 45.796875 15.625 43.796875
Q 13.03125 41.796875 13.03125 39.109375
Q 13.03125 37.40625 14.109375 36.03125
Q 15.1875 34.625 17.484375 33.6875
Q 18.796875 33.203125 25.25 31.453125
Q 34.578125 28.953125 38.25 27.359375
Q 41.9375 25.78125 44.03125 22.75
Q 46.140625 19.734375 46.140625 15.234375
Q 46.140625 10.84375 43.578125 6.953125
Q 41.015625 3.078125 36.171875 0.953125
Q 31.34375 -1.171875 25.25 -1.171875
Q 15.140625 -1.171875 9.84375 3.03125
Q 4.546875 7.234375 3.078125 15.484375
z
" id="ArialMT-115"/>
       <path d="M 40.578125 0
L 40.578125 7.625
Q 34.515625 -1.171875 24.125 -1.171875
Q 19.53125 -1.171875 15.546875 0.578125
Q 11.578125 2.34375 9.640625 5
Q 7.71875 7.671875 6.9375 11.53125
Q 6.390625 14.109375 6.390625 19.734375
L 6.390625 51.859375
L 15.1875 51.859375
L 15.1875 23.09375
Q 15.1875 16.21875 15.71875 13.8125
Q 16.546875 10.359375 19.234375 8.375
Q 21.921875 6.390625 25.875 6.390625
Q 29.828125 6.390625 33.296875 8.421875
Q 36.765625 10.453125 38.203125 13.9375
Q 39.65625 17.4375 39.65625 24.078125
L 39.65625 51.859375
L 48.4375 51.859375
L 48.4375 0
z
" id="ArialMT-117"/>
      </defs>
      <g style="fill:#262626;" transform="translate(40.018225 298.417217)scale(0.0968 -0.0968)">
       <use xlink:href="#ArialMT-115"/>
       <use x="50" xlink:href="#ArialMT-116"/>
       <use x="77.783203" xlink:href="#ArialMT-117"/>
       <use x="133.398438" xlink:href="#ArialMT-100"/>
       <use x="189.013672" xlink:href="#ArialMT-105"/>
       <use x="211.230469" xlink:href="#ArialMT-101"/>
       <use x="266.845703" xlink:href="#ArialMT-115"/>
      </g>
     </g>
    </g>
    <g id="ytick_9">
     <g id="line2d_16">
      <g>
       <use style="fill:#262626;stroke:#262626;" x="77.887188" xlink:href="#me8e1adf245" y="286.678209"/>
      </g>
     </g>
     <g id="text_13">
      <!-- figure -->
      <defs>
       <path d="M 8.6875 0
L 8.6875 45.015625
L 0.921875 45.015625
L 0.921875 51.859375
L 8.6875 51.859375
L 8.6875 57.375
Q 8.6875 62.59375 9.625 65.140625
Q 10.890625 68.5625 14.078125 70.671875
Q 17.28125 72.796875 23.046875 72.796875
Q 26.765625 72.796875 31.25 71.921875
L 29.9375 64.265625
Q 27.203125 64.75 24.75 64.75
Q 20.75 64.75 19.09375 63.03125
Q 17.4375 61.328125 17.4375 56.640625
L 17.4375 51.859375
L 27.546875 51.859375
L 27.546875 45.015625
L 17.4375 45.015625
L 17.4375 0
z
" id="ArialMT-102"/>
       <path d="M 6.5 0
L 6.5 51.859375
L 14.40625 51.859375
L 14.40625 44
Q 17.4375 49.515625 20 51.265625
Q 22.5625 53.03125 25.640625 53.03125
Q 30.078125 53.03125 34.671875 50.203125
L 31.640625 42.046875
Q 28.421875 43.953125 25.203125 43.953125
Q 22.3125 43.953125 20.015625 42.21875
Q 17.71875 40.484375 16.75 37.40625
Q 15.28125 32.71875 15.28125 27.15625
L 15.28125 0
z
" id="ArialMT-114"/>
      </defs>
      <g style="fill:#262626;" transform="translate(46.475088 290.201578)scale(0.0968 -0.0968)">
       <use xlink:href="#ArialMT-102"/>
       <use x="27.783203" xlink:href="#ArialMT-105"/>
       <use x="50" xlink:href="#ArialMT-103"/>
       <use x="105.615234" xlink:href="#ArialMT-117"/>
       <use x="161.230469" xlink:href="#ArialMT-114"/>
       <use x="194.53125" xlink:href="#ArialMT-101"/>
      </g>
     </g>
    </g>
    <g id="ytick_10">
     <g id="line2d_17">
      <g>
       <use style="fill:#262626;stroke:#262626;" x="77.887188" xlink:href="#me8e1adf245" y="278.403582"/>
      </g>
     </g>
     <g id="text_14">
      <!-- large -->
      <g style="fill:#262626;" transform="translate(49.164313 281.867963)scale(0.0968 -0.0968)">
       <use xlink:href="#ArialMT-108"/>
       <use x="22.216797" xlink:href="#ArialMT-97"/>
       <use x="77.832031" xlink:href="#ArialMT-114"/>
       <use x="111.132812" xlink:href="#ArialMT-103"/>
       <use x="166.748047" xlink:href="#ArialMT-101"/>
      </g>
     </g>
    </g>
    <g id="ytick_11">
     <g id="line2d_18">
      <g>
       <use style="fill:#262626;stroke:#262626;" x="77.887188" xlink:href="#me8e1adf245" y="270.128955"/>
      </g>
     </g>
     <g id="text_15">
      <!-- effects -->
      <g style="fill:#262626;" transform="translate(42.17505 273.593336)scale(0.0968 -0.0968)">
       <use xlink:href="#ArialMT-101"/>
       <use x="55.615234" xlink:href="#ArialMT-102"/>
       <use x="83.382812" xlink:href="#ArialMT-102"/>
       <use x="111.166016" xlink:href="#ArialMT-101"/>
       <use x="166.78125" xlink:href="#ArialMT-99"/>
       <use x="216.78125" xlink:href="#ArialMT-116"/>
       <use x="244.564453" xlink:href="#ArialMT-115"/>
      </g>
     </g>
    </g>
    <g id="ytick_12">
     <g id="line2d_19">
      <g>
       <use style="fill:#262626;stroke:#262626;" x="77.887188" xlink:href="#me8e1adf245" y="261.854328"/>
      </g>
     </g>
     <g id="text_16">
      <!-- “ -->
      <defs>
       <path d="M 13.484375 59.578125
L 13.484375 49.359375
L 4.046875 49.359375
L 4.046875 57.421875
Q 4.046875 63.96875 5.609375 66.890625
Q 7.671875 70.796875 12.109375 72.796875
L 14.265625 69.390625
Q 11.578125 68.265625 10.296875 66.03125
Q 9.03125 63.8125 8.890625 59.578125
z
M 28.609375 59.578125
L 28.609375 49.359375
L 19.1875 49.359375
L 19.1875 57.421875
Q 19.1875 63.96875 20.75 66.890625
Q 22.796875 70.796875 27.25 72.796875
L 29.390625 69.390625
Q 26.703125 68.265625 25.4375 66.03125
Q 24.171875 63.8125 24.03125 59.578125
z
" id="ArialMT-8220"/>
      </defs>
      <g style="fill:#262626;" transform="translate(67.46405 265.31871)scale(0.0968 -0.0968)">
       <use xlink:href="#ArialMT-8220"/>
      </g>
     </g>
    </g>
    <g id="ytick_13">
     <g id="line2d_20">
      <g>
       <use style="fill:#262626;stroke:#262626;" x="77.887188" xlink:href="#me8e1adf245" y="253.579701"/>
      </g>
     </g>
     <g id="text_17">
      <!-- population -->
      <defs>
       <path d="M 6.59375 -19.875
L 6.59375 51.859375
L 14.59375 51.859375
L 14.59375 45.125
Q 17.4375 49.078125 21 51.046875
Q 24.5625 53.03125 29.640625 53.03125
Q 36.28125 53.03125 41.359375 49.609375
Q 46.4375 46.1875 49.015625 39.953125
Q 51.609375 33.734375 51.609375 26.3125
Q 51.609375 18.359375 48.75 11.984375
Q 45.90625 5.609375 40.453125 2.21875
Q 35.015625 -1.171875 29 -1.171875
Q 24.609375 -1.171875 21.109375 0.6875
Q 17.625 2.546875 15.375 5.375
L 15.375 -19.875
z
M 14.546875 25.640625
Q 14.546875 15.625 18.59375 10.84375
Q 22.65625 6.0625 28.421875 6.0625
Q 34.28125 6.0625 38.453125 11.015625
Q 42.625 15.96875 42.625 26.375
Q 42.625 36.28125 38.546875 41.203125
Q 34.46875 46.140625 28.8125 46.140625
Q 23.1875 46.140625 18.859375 40.890625
Q 14.546875 35.640625 14.546875 25.640625
z
" id="ArialMT-112"/>
      </defs>
      <g style="fill:#262626;" transform="translate(26.0155 257.044083)scale(0.0968 -0.0968)">
       <use xlink:href="#ArialMT-112"/>
       <use x="55.615234" xlink:href="#ArialMT-111"/>
       <use x="111.230469" xlink:href="#ArialMT-112"/>
       <use x="166.845703" xlink:href="#ArialMT-117"/>
       <use x="222.460938" xlink:href="#ArialMT-108"/>
       <use x="244.677734" xlink:href="#ArialMT-97"/>
       <use x="300.292969" xlink:href="#ArialMT-116"/>
       <use x="328.076172" xlink:href="#ArialMT-105"/>
       <use x="350.292969" xlink:href="#ArialMT-111"/>
       <use x="405.908203" xlink:href="#ArialMT-110"/>
      </g>
     </g>
    </g>
    <g id="ytick_14">
     <g id="line2d_21">
      <g>
       <use style="fill:#262626;stroke:#262626;" x="77.887188" xlink:href="#me8e1adf245" y="245.305075"/>
      </g>
     </g>
     <g id="text_18">
      <!-- function -->
      <g style="fill:#262626;" transform="translate(36.786013 248.769456)scale(0.0968 -0.0968)">
       <use xlink:href="#ArialMT-102"/>
       <use x="27.783203" xlink:href="#ArialMT-117"/>
       <use x="83.398438" xlink:href="#ArialMT-110"/>
       <use x="139.013672" xlink:href="#ArialMT-99"/>
       <use x="189.013672" xlink:href="#ArialMT-116"/>
       <use x="216.796875" xlink:href="#ArialMT-105"/>
       <use x="239.013672" xlink:href="#ArialMT-111"/>
       <use x="294.628906" xlink:href="#ArialMT-110"/>
      </g>
     </g>
    </g>
    <g id="ytick_15">
     <g id="line2d_22">
      <g>
       <use style="fill:#262626;stroke:#262626;" x="77.887188" xlink:href="#me8e1adf245" y="237.030448"/>
      </g>
     </g>
     <g id="text_19">
      <!-- changes -->
      <defs>
       <path d="M 6.59375 0
L 6.59375 71.578125
L 15.375 71.578125
L 15.375 45.90625
Q 21.53125 53.03125 30.90625 53.03125
Q 36.671875 53.03125 40.921875 50.75
Q 45.171875 48.484375 47 44.484375
Q 48.828125 40.484375 48.828125 32.859375
L 48.828125 0
L 40.046875 0
L 40.046875 32.859375
Q 40.046875 39.453125 37.1875 42.453125
Q 34.328125 45.453125 29.109375 45.453125
Q 25.203125 45.453125 21.75 43.421875
Q 18.3125 41.40625 16.84375 37.9375
Q 15.375 34.46875 15.375 28.375
L 15.375 0
z
" id="ArialMT-104"/>
      </defs>
      <g style="fill:#262626;" transform="translate(34.09225 240.494829)scale(0.0968 -0.0968)">
       <use xlink:href="#ArialMT-99"/>
       <use x="50" xlink:href="#ArialMT-104"/>
       <use x="105.615234" xlink:href="#ArialMT-97"/>
       <use x="161.230469" xlink:href="#ArialMT-110"/>
       <use x="216.845703" xlink:href="#ArialMT-103"/>
       <use x="272.460938" xlink:href="#ArialMT-101"/>
       <use x="328.076172" xlink:href="#ArialMT-115"/>
      </g>
     </g>
    </g>
    <g id="ytick_16">
     <g id="line2d_23">
      <g>
       <use style="fill:#262626;stroke:#262626;" x="77.887188" xlink:href="#me8e1adf245" y="228.755821"/>
      </g>
     </g>
     <g id="text_20">
      <!-- activity -->
      <defs>
       <path d="M 21 0
L 1.265625 51.859375
L 10.546875 51.859375
L 21.6875 20.796875
Q 23.484375 15.765625 25 10.359375
Q 26.171875 14.453125 28.265625 20.21875
L 39.796875 51.859375
L 48.828125 51.859375
L 29.203125 0
z
" id="ArialMT-118"/>
       <path d="M 6.203125 -19.96875
L 5.21875 -11.71875
Q 8.109375 -12.5 10.25 -12.5
Q 13.1875 -12.5 14.9375 -11.515625
Q 16.703125 -10.546875 17.828125 -8.796875
Q 18.65625 -7.46875 20.515625 -2.25
Q 20.75 -1.515625 21.296875 -0.09375
L 1.609375 51.859375
L 11.078125 51.859375
L 21.875 21.828125
Q 23.96875 16.109375 25.640625 9.8125
Q 27.15625 15.875 29.25 21.625
L 40.328125 51.859375
L 49.125 51.859375
L 29.390625 -0.875
Q 26.21875 -9.421875 24.46875 -12.640625
Q 22.125 -17 19.09375 -19.015625
Q 16.0625 -21.046875 11.859375 -21.046875
Q 9.328125 -21.046875 6.203125 -19.96875
z
" id="ArialMT-121"/>
      </defs>
      <g style="fill:#262626;" transform="translate(41.1042 232.220202)scale(0.0968 -0.0968)">
       <use xlink:href="#ArialMT-97"/>
       <use x="55.615234" xlink:href="#ArialMT-99"/>
       <use x="105.615234" xlink:href="#ArialMT-116"/>
       <use x="133.398438" xlink:href="#ArialMT-105"/>
       <use x="155.615234" xlink:href="#ArialMT-118"/>
       <use x="205.615234" xlink:href="#ArialMT-105"/>
       <use x="227.832031" xlink:href="#ArialMT-116"/>
       <use x="255.615234" xlink:href="#ArialMT-121"/>
      </g>
     </g>
    </g>
    <g id="ytick_17">
     <g id="line2d_24">
      <g>
       <use style="fill:#262626;stroke:#262626;" x="77.887188" xlink:href="#me8e1adf245" y="220.481194"/>
      </g>
     </g>
     <g id="text_21">
      <!-- specific -->
      <g style="fill:#262626;" transform="translate(38.410438 224.004563)scale(0.0968 -0.0968)">
       <use xlink:href="#ArialMT-115"/>
       <use x="50" xlink:href="#ArialMT-112"/>
       <use x="105.615234" xlink:href="#ArialMT-101"/>
       <use x="161.230469" xlink:href="#ArialMT-99"/>
       <use x="211.230469" xlink:href="#ArialMT-105"/>
       <use x="233.447266" xlink:href="#ArialMT-102"/>
       <use x="261.230469" xlink:href="#ArialMT-105"/>
       <use x="283.447266" xlink:href="#ArialMT-99"/>
      </g>
     </g>
    </g>
    <g id="ytick_18">
     <g id="line2d_25">
      <g>
       <use style="fill:#262626;stroke:#262626;" x="77.887188" xlink:href="#me8e1adf245" y="212.206567"/>
      </g>
     </g>
     <g id="text_22">
      <!-- human -->
      <defs>
       <path d="M 6.59375 0
L 6.59375 51.859375
L 14.453125 51.859375
L 14.453125 44.578125
Q 16.890625 48.390625 20.9375 50.703125
Q 25 53.03125 30.171875 53.03125
Q 35.9375 53.03125 39.625 50.640625
Q 43.3125 48.25 44.828125 43.953125
Q 50.984375 53.03125 60.84375 53.03125
Q 68.5625 53.03125 72.703125 48.75
Q 76.859375 44.484375 76.859375 35.59375
L 76.859375 0
L 68.109375 0
L 68.109375 32.671875
Q 68.109375 37.9375 67.25 40.25
Q 66.40625 42.578125 64.15625 43.984375
Q 61.921875 45.40625 58.890625 45.40625
Q 53.421875 45.40625 49.796875 41.765625
Q 46.1875 38.140625 46.1875 30.125
L 46.1875 0
L 37.40625 0
L 37.40625 33.6875
Q 37.40625 39.546875 35.25 42.46875
Q 33.109375 45.40625 28.21875 45.40625
Q 24.515625 45.40625 21.359375 43.453125
Q 18.21875 41.5 16.796875 37.734375
Q 15.375 33.984375 15.375 26.90625
L 15.375 0
z
" id="ArialMT-109"/>
      </defs>
      <g style="fill:#262626;" transform="translate(41.0921 215.670948)scale(0.0968 -0.0968)">
       <use xlink:href="#ArialMT-104"/>
       <use x="55.615234" xlink:href="#ArialMT-117"/>
       <use x="111.230469" xlink:href="#ArialMT-109"/>
       <use x="194.53125" xlink:href="#ArialMT-97"/>
       <use x="250.146484" xlink:href="#ArialMT-110"/>
      </g>
     </g>
    </g>
    <g id="ytick_19">
     <g id="line2d_26">
      <g>
       <use style="fill:#262626;stroke:#262626;" x="77.887188" xlink:href="#me8e1adf245" y="203.93194"/>
      </g>
     </g>
     <g id="text_23">
      <!-- mice -->
      <g style="fill:#262626;" transform="translate(50.250288 207.396322)scale(0.0968 -0.0968)">
       <use xlink:href="#ArialMT-109"/>
       <use x="83.300781" xlink:href="#ArialMT-105"/>
       <use x="105.517578" xlink:href="#ArialMT-99"/>
       <use x="155.517578" xlink:href="#ArialMT-101"/>
      </g>
     </g>
    </g>
    <g id="ytick_20">
     <g id="line2d_27">
      <g>
       <use style="fill:#262626;stroke:#262626;" x="77.887188" xlink:href="#me8e1adf245" y="195.657313"/>
      </g>
     </g>
     <g id="text_24">
      <!-- regions -->
      <g style="fill:#262626;" transform="translate(38.941325 199.121695)scale(0.0968 -0.0968)">
       <use xlink:href="#ArialMT-114"/>
       <use x="33.300781" xlink:href="#ArialMT-101"/>
       <use x="88.916016" xlink:href="#ArialMT-103"/>
       <use x="144.53125" xlink:href="#ArialMT-105"/>
       <use x="166.748047" xlink:href="#ArialMT-111"/>
       <use x="222.363281" xlink:href="#ArialMT-110"/>
       <use x="277.978516" xlink:href="#ArialMT-115"/>
      </g>
     </g>
    </g>
    <g id="ytick_21">
     <g id="line2d_28">
      <g>
       <use style="fill:#262626;stroke:#262626;" x="77.887188" xlink:href="#me8e1adf245" y="187.382687"/>
      </g>
     </g>
     <g id="text_25">
      <!-- total -->
      <g style="fill:#262626;" transform="translate(52.391988 190.847068)scale(0.0968 -0.0968)">
       <use xlink:href="#ArialMT-116"/>
       <use x="27.783203" xlink:href="#ArialMT-111"/>
       <use x="83.398438" xlink:href="#ArialMT-116"/>
       <use x="111.181641" xlink:href="#ArialMT-97"/>
       <use x="166.796875" xlink:href="#ArialMT-108"/>
      </g>
     </g>
    </g>
    <g id="ytick_22">
     <g id="line2d_29">
      <g>
       <use style="fill:#262626;stroke:#262626;" x="77.887188" xlink:href="#me8e1adf245" y="179.10806"/>
      </g>
     </g>
     <g id="text_26">
      <!-- value -->
      <g style="fill:#262626;" transform="translate(47.54745 182.572441)scale(0.0968 -0.0968)">
       <use xlink:href="#ArialMT-118"/>
       <use x="50" xlink:href="#ArialMT-97"/>
       <use x="105.615234" xlink:href="#ArialMT-108"/>
       <use x="127.832031" xlink:href="#ArialMT-117"/>
       <use x="183.447266" xlink:href="#ArialMT-101"/>
      </g>
     </g>
    </g>
    <g id="ytick_23">
     <g id="line2d_30">
      <g>
       <use style="fill:#262626;stroke:#262626;" x="77.887188" xlink:href="#me8e1adf245" y="170.833433"/>
      </g>
     </g>
     <g id="text_27">
      <!-- samples -->
      <g style="fill:#262626;" transform="translate(34.644313 174.297814)scale(0.0968 -0.0968)">
       <use xlink:href="#ArialMT-115"/>
       <use x="50" xlink:href="#ArialMT-97"/>
       <use x="105.615234" xlink:href="#ArialMT-109"/>
       <use x="188.916016" xlink:href="#ArialMT-112"/>
       <use x="244.53125" xlink:href="#ArialMT-108"/>
       <use x="266.748047" xlink:href="#ArialMT-101"/>
       <use x="322.363281" xlink:href="#ArialMT-115"/>
      </g>
     </g>
    </g>
    <g id="ytick_24">
     <g id="line2d_31">
      <g>
       <use style="fill:#262626;stroke:#262626;" x="77.887188" xlink:href="#me8e1adf245" y="162.558806"/>
      </g>
     </g>
     <g id="text_28">
      <!-- 10 -->
      <defs>
       <path d="M 37.25 0
L 28.46875 0
L 28.46875 56
Q 25.296875 52.984375 20.140625 49.953125
Q 14.984375 46.921875 10.890625 45.40625
L 10.890625 53.90625
Q 18.265625 57.375 23.78125 62.296875
Q 29.296875 67.234375 31.59375 71.875
L 37.25 71.875
z
" id="ArialMT-49"/>
      </defs>
      <g style="fill:#262626;" transform="translate(59.921213 166.023187)scale(0.0968 -0.0968)">
       <use xlink:href="#ArialMT-49"/>
       <use x="55.615234" xlink:href="#ArialMT-48"/>
      </g>
     </g>
    </g>
    <g id="ytick_25">
     <g id="line2d_32">
      <g>
       <use style="fill:#262626;stroke:#262626;" x="77.887188" xlink:href="#me8e1adf245" y="154.284179"/>
      </g>
     </g>
     <g id="text_29">
      <!-- mean -->
      <g style="fill:#262626;" transform="translate(46.475088 157.74856)scale(0.0968 -0.0968)">
       <use xlink:href="#ArialMT-109"/>
       <use x="83.300781" xlink:href="#ArialMT-101"/>
       <use x="138.916016" xlink:href="#ArialMT-97"/>
       <use x="194.53125" xlink:href="#ArialMT-110"/>
      </g>
     </g>
    </g>
    <g id="ytick_26">
     <g id="line2d_33">
      <g>
       <use style="fill:#262626;stroke:#262626;" x="77.887188" xlink:href="#me8e1adf245" y="146.009552"/>
      </g>
     </g>
     <g id="text_30">
      <!-- 1 -->
      <g style="fill:#262626;" transform="translate(65.3042 149.473933)scale(0.0968 -0.0968)">
       <use xlink:href="#ArialMT-49"/>
      </g>
     </g>
    </g>
    <g id="ytick_27">
     <g id="line2d_34">
      <g>
       <use style="fill:#262626;stroke:#262626;" x="77.887188" xlink:href="#me8e1adf245" y="137.734925"/>
      </g>
     </g>
     <g id="text_31">
      <!-- values -->
      <g style="fill:#262626;" transform="translate(42.70745 141.199307)scale(0.0968 -0.0968)">
       <use xlink:href="#ArialMT-118"/>
       <use x="50" xlink:href="#ArialMT-97"/>
       <use x="105.615234" xlink:href="#ArialMT-108"/>
       <use x="127.832031" xlink:href="#ArialMT-117"/>
       <use x="183.447266" xlink:href="#ArialMT-101"/>
       <use x="239.0625" xlink:href="#ArialMT-115"/>
      </g>
     </g>
    </g>
    <g id="ytick_28">
     <g id="line2d_35">
      <g>
       <use style="fill:#262626;stroke:#262626;" x="77.887188" xlink:href="#me8e1adf245" y="129.460299"/>
      </g>
     </g>
     <g id="text_32">
      <!-- performed -->
      <g style="fill:#262626;" transform="translate(26.573613 132.983667)scale(0.0968 -0.0968)">
       <use xlink:href="#ArialMT-112"/>
       <use x="55.615234" xlink:href="#ArialMT-101"/>
       <use x="111.230469" xlink:href="#ArialMT-114"/>
       <use x="144.53125" xlink:href="#ArialMT-102"/>
       <use x="172.314453" xlink:href="#ArialMT-111"/>
       <use x="227.929688" xlink:href="#ArialMT-114"/>
       <use x="261.230469" xlink:href="#ArialMT-109"/>
       <use x="344.53125" xlink:href="#ArialMT-101"/>
       <use x="400.146484" xlink:href="#ArialMT-100"/>
      </g>
     </g>
    </g>
    <g id="ytick_29">
     <g id="line2d_36">
      <g>
       <use style="fill:#262626;stroke:#262626;" x="77.887188" xlink:href="#me8e1adf245" y="121.185672"/>
      </g>
     </g>
     <g id="text_33">
      <!-- table -->
      <g style="fill:#262626;" transform="translate(49.698225 124.650053)scale(0.0968 -0.0968)">
       <use xlink:href="#ArialMT-116"/>
       <use x="27.783203" xlink:href="#ArialMT-97"/>
       <use x="83.398438" xlink:href="#ArialMT-98"/>
       <use x="139.013672" xlink:href="#ArialMT-108"/>
       <use x="161.230469" xlink:href="#ArialMT-101"/>
      </g>
     </g>
    </g>
    <g id="ytick_30">
     <g id="line2d_37">
      <g>
       <use style="fill:#262626;stroke:#262626;" x="77.887188" xlink:href="#me8e1adf245" y="112.911045"/>
      </g>
     </g>
     <g id="text_34">
      <!-- ° -->
      <defs>
       <path d="M 6.25 59.28125
Q 6.25 64.890625 10.21875 68.84375
Q 14.203125 72.796875 19.78125 72.796875
Q 25.4375 72.796875 29.390625 68.84375
Q 33.34375 64.890625 33.34375 59.28125
Q 33.34375 53.65625 29.359375 49.671875
Q 25.390625 45.703125 19.78125 45.703125
Q 14.203125 45.703125 10.21875 49.65625
Q 6.25 53.609375 6.25 59.28125
z
M 11.578125 59.28125
Q 11.578125 55.859375 13.984375 53.4375
Q 16.40625 51.03125 19.828125 51.03125
Q 23.1875 51.03125 25.609375 53.4375
Q 28.03125 55.859375 28.03125 59.28125
Q 28.03125 62.703125 25.609375 65.109375
Q 23.1875 67.53125 19.828125 67.53125
Q 16.40625 67.53125 13.984375 65.109375
Q 11.578125 62.703125 11.578125 59.28125
z
" id="ArialMT-176"/>
      </defs>
      <g style="fill:#262626;" transform="translate(66.8167 116.375426)scale(0.0968 -0.0968)">
       <use xlink:href="#ArialMT-176"/>
      </g>
     </g>
    </g>
    <g id="ytick_31">
     <g id="line2d_38">
      <g>
       <use style="fill:#262626;stroke:#262626;" x="77.887188" xlink:href="#me8e1adf245" y="104.636418"/>
      </g>
     </g>
     <g id="text_35">
      <!-- data -->
      <g style="fill:#262626;" transform="translate(51.849 108.100799)scale(0.0968 -0.0968)">
       <use xlink:href="#ArialMT-100"/>
       <use x="55.615234" xlink:href="#ArialMT-97"/>
       <use x="111.230469" xlink:href="#ArialMT-116"/>
       <use x="139.013672" xlink:href="#ArialMT-97"/>
      </g>
     </g>
    </g>
    <g id="ytick_32">
     <g id="line2d_39">
      <g>
       <use style="fill:#262626;stroke:#262626;" x="77.887188" xlink:href="#me8e1adf245" y="96.361791"/>
      </g>
     </g>
     <g id="text_36">
      <!-- fig -->
      <g style="fill:#262626;" transform="translate(60.4642 99.88516)scale(0.0968 -0.0968)">
       <use xlink:href="#ArialMT-102"/>
       <use x="27.783203" xlink:href="#ArialMT-105"/>
       <use x="50" xlink:href="#ArialMT-103"/>
      </g>
     </g>
    </g>
    <g id="ytick_33">
     <g id="line2d_40">
      <g>
       <use style="fill:#262626;stroke:#262626;" x="77.887188" xlink:href="#me8e1adf245" y="88.087164"/>
      </g>
     </g>
     <g id="text_37">
      <!-- p -->
      <g style="fill:#262626;" transform="translate(65.3042 91.551545)scale(0.0968 -0.0968)">
       <use xlink:href="#ArialMT-112"/>
      </g>
     </g>
    </g>
    <g id="ytick_34">
     <g id="line2d_41">
      <g>
       <use style="fill:#262626;stroke:#262626;" x="77.887188" xlink:href="#me8e1adf245" y="79.812537"/>
      </g>
     </g>
     <g id="text_38">
      <!-- mm -->
      <g style="fill:#262626;" transform="translate(54.560913 83.276919)scale(0.0968 -0.0968)">
       <use xlink:href="#ArialMT-109"/>
       <use x="83.300781" xlink:href="#ArialMT-109"/>
      </g>
     </g>
    </g>
    <g id="ytick_35">
     <g id="line2d_42">
      <g>
       <use style="fill:#262626;stroke:#262626;" x="77.887188" xlink:href="#me8e1adf245" y="71.53791"/>
      </g>
     </g>
     <g id="text_39">
      <!-- n -->
      <g style="fill:#262626;" transform="translate(65.3042 75.002292)scale(0.0968 -0.0968)">
       <use xlink:href="#ArialMT-110"/>
      </g>
     </g>
    </g>
    <g id="ytick_36">
     <g id="line2d_43">
      <g>
       <use style="fill:#262626;stroke:#262626;" x="77.887188" xlink:href="#me8e1adf245" y="63.263284"/>
      </g>
     </g>
     <g id="text_40">
      <!-- supplementary -->
      <g style="fill:#262626;" transform="translate(7.2 66.727665)scale(0.0968 -0.0968)">
       <use xlink:href="#ArialMT-115"/>
       <use x="50" xlink:href="#ArialMT-117"/>
       <use x="105.615234" xlink:href="#ArialMT-112"/>
       <use x="161.230469" xlink:href="#ArialMT-112"/>
       <use x="216.845703" xlink:href="#ArialMT-108"/>
       <use x="239.0625" xlink:href="#ArialMT-101"/>
       <use x="294.677734" xlink:href="#ArialMT-109"/>
       <use x="377.978516" xlink:href="#ArialMT-101"/>
       <use x="433.59375" xlink:href="#ArialMT-110"/>
       <use x="489.208984" xlink:href="#ArialMT-116"/>
       <use x="516.992188" xlink:href="#ArialMT-97"/>
       <use x="572.607422" xlink:href="#ArialMT-114"/>
       <use x="605.908203" xlink:href="#ArialMT-121"/>
      </g>
     </g>
    </g>
    <g id="ytick_37">
     <g id="line2d_44">
      <g>
       <use style="fill:#262626;stroke:#262626;" x="77.887188" xlink:href="#me8e1adf245" y="54.988657"/>
      </g>
     </g>
     <g id="text_41">
      <!-- – -->
      <defs>
       <path d="M -0.203125 22.359375
L -0.203125 29.4375
L 55.421875 29.4375
L 55.421875 22.359375
z
" id="ArialMT-8211"/>
      </defs>
      <g style="fill:#262626;" transform="translate(65.3042 58.453038)scale(0.0968 -0.0968)">
       <use xlink:href="#ArialMT-8211"/>
      </g>
     </g>
    </g>
    <g id="ytick_38">
     <g id="line2d_45">
      <g>
       <use style="fill:#262626;stroke:#262626;" x="77.887188" xlink:href="#me8e1adf245" y="46.71403"/>
      </g>
     </g>
     <g id="text_42">
      <!-- ± -->
      <defs>
       <path d="M 23.296875 12.703125
L 23.296875 32.375
L 3.8125 32.375
L 3.8125 40.53125
L 23.296875 40.53125
L 23.296875 60.015625
L 31.59375 60.015625
L 31.59375 40.53125
L 51.078125 40.53125
L 51.078125 32.375
L 31.59375 32.375
L 31.59375 12.703125
z
M 51.078125 0
L 3.8125 0
L 3.8125 8.203125
L 51.078125 8.203125
z
" id="ArialMT-177"/>
      </defs>
      <g style="fill:#262626;" transform="translate(65.373775 50.178411)scale(0.0968 -0.0968)">
       <use xlink:href="#ArialMT-177"/>
      </g>
     </g>
    </g>
    <g id="ytick_39">
     <g id="line2d_46">
      <g>
       <use style="fill:#262626;stroke:#262626;" x="77.887188" xlink:href="#me8e1adf245" y="38.439403"/>
      </g>
     </g>
     <g id="text_43">
      <!-- additional -->
      <g style="fill:#262626;" transform="translate(29.247713 41.903784)scale(0.0968 -0.0968)">
       <use xlink:href="#ArialMT-97"/>
       <use x="55.615234" xlink:href="#ArialMT-100"/>
       <use x="111.230469" xlink:href="#ArialMT-100"/>
       <use x="166.845703" xlink:href="#ArialMT-105"/>
       <use x="189.0625" xlink:href="#ArialMT-116"/>
       <use x="216.845703" xlink:href="#ArialMT-105"/>
       <use x="239.0625" xlink:href="#ArialMT-111"/>
       <use x="294.677734" xlink:href="#ArialMT-110"/>
       <use x="350.292969" xlink:href="#ArialMT-97"/>
       <use x="405.908203" xlink:href="#ArialMT-108"/>
      </g>
     </g>
    </g>
    <g id="ytick_40">
     <g id="line2d_47">
      <g>
       <use style="fill:#262626;stroke:#262626;" x="77.887188" xlink:href="#me8e1adf245" y="30.164776"/>
      </g>
     </g>
     <g id="text_44">
      <!-- file -->
      <g style="fill:#262626;" transform="translate(58.313425 33.629157)scale(0.0968 -0.0968)">
       <use xlink:href="#ArialMT-102"/>
       <use x="27.783203" xlink:href="#ArialMT-105"/>
       <use x="50" xlink:href="#ArialMT-108"/>
       <use x="72.216797" xlink:href="#ArialMT-101"/>
      </g>
     </g>
    </g>
   </g>
   <g id="PolyCollection_1">
    <path clip-path="url(#pf99bd030b3)" d="M 90.405369 356.598806
L 90.405369 349.151642
L 140.810694 349.151642
L 140.810694 356.598806
z
" style="fill:#253494;"/>
    <path clip-path="url(#pf99bd030b3)" d="M 90.405369 348.324179
L 90.405369 340.877015
L 339.05322 340.877015
L 339.05322 348.324179
z
" style="fill:#253494;"/>
    <path clip-path="url(#pf99bd030b3)" d="M 90.405369 340.049552
L 90.405369 332.602388
L 129.878156 332.602388
L 129.878156 340.049552
z
" style="fill:#253494;"/>
    <path clip-path="url(#pf99bd030b3)" d="M 90.405369 331.774925
L 90.405369 324.327761
L 143.887872 324.327761
L 143.887872 331.774925
z
" style="fill:#253494;"/>
    <path clip-path="url(#pf99bd030b3)" d="M 90.405369 323.500299
L 90.405369 316.053134
L 340.769006 316.053134
L 340.769006 323.500299
z
" style="fill:#253494;"/>
    <path clip-path="url(#pf99bd030b3)" d="M 90.405369 315.225672
L 90.405369 307.778507
L 135.605045 307.778507
L 135.605045 315.225672
z
" style="fill:#253494;"/>
    <path clip-path="url(#pf99bd030b3)" d="M 90.405369 306.951045
L 90.405369 299.503881
L 140.044462 299.503881
L 140.044462 306.951045
z
" style="fill:#253494;"/>
    <path clip-path="url(#pf99bd030b3)" d="M 90.405369 298.676418
L 90.405369 291.229254
L 136.711309 291.229254
L 136.711309 298.676418
z
" style="fill:#253494;"/>
    <path clip-path="url(#pf99bd030b3)" d="M 90.405369 290.401791
L 90.405369 282.954627
L 233.354145 282.954627
L 233.354145 290.401791
z
" style="fill:#253494;"/>
    <path clip-path="url(#pf99bd030b3)" d="M 90.405369 282.127164
L 90.405369 274.68
L 125.069986 274.68
L 125.069986 282.127164
z
" style="fill:#253494;"/>
    <path clip-path="url(#pf99bd030b3)" d="M 90.405369 273.852537
L 90.405369 266.405373
L 131.034686 266.405373
L 131.034686 273.852537
z
" style="fill:#253494;"/>
    <path clip-path="url(#pf99bd030b3)" d="M 90.405369 265.57791
L 90.405369 258.130746
L 139.582357 258.130746
L 139.582357 265.57791
z
" style="fill:#253494;"/>
    <path clip-path="url(#pf99bd030b3)" d="M 90.405369 257.303284
L 90.405369 249.856119
L 139.492386 249.856119
L 139.492386 257.303284
z
" style="fill:#253494;"/>
    <path clip-path="url(#pf99bd030b3)" d="M 90.405369 249.028657
L 90.405369 241.581493
L 136.370855 241.581493
L 136.370855 249.028657
z
" style="fill:#253494;"/>
    <path clip-path="url(#pf99bd030b3)" d="M 90.405369 240.75403
L 90.405369 233.306866
L 127.159173 233.306866
L 127.159173 240.75403
z
" style="fill:#253494;"/>
    <path clip-path="url(#pf99bd030b3)" d="M 90.405369 232.479403
L 90.405369 225.032239
L 142.689526 225.032239
L 142.689526 232.479403
z
" style="fill:#253494;"/>
    <path clip-path="url(#pf99bd030b3)" d="M 90.405369 224.204776
L 90.405369 216.757612
L 148.688862 216.757612
L 148.688862 224.204776
z
" style="fill:#253494;"/>
    <path clip-path="url(#pf99bd030b3)" d="M 90.405369 215.930149
L 90.405369 208.482985
L 134.294341 208.482985
L 134.294341 215.930149
z
" style="fill:#253494;"/>
    <path clip-path="url(#pf99bd030b3)" d="M 90.405369 207.655522
L 90.405369 200.208358
L 125.543495 200.208358
L 125.543495 207.655522
z
" style="fill:#253494;"/>
    <path clip-path="url(#pf99bd030b3)" d="M 90.405369 199.380896
L 90.405369 191.933731
L 134.33996 191.933731
L 134.33996 199.380896
z
" style="fill:#253494;"/>
    <path clip-path="url(#pf99bd030b3)" d="M 90.405369 191.106269
L 90.405369 183.659104
L 127.806288 183.659104
L 127.806288 191.106269
z
" style="fill:#253494;"/>
    <path clip-path="url(#pf99bd030b3)" d="M 90.405369 182.831642
L 90.405369 175.384478
L 126.291142 175.384478
L 126.291142 182.831642
z
" style="fill:#253494;"/>
    <path clip-path="url(#pf99bd030b3)" d="M 90.405369 174.557015
L 90.405369 167.109851
L 144.074995 167.109851
L 144.074995 174.557015
z
" style="fill:#253494;"/>
    <path clip-path="url(#pf99bd030b3)" d="M 90.405369 166.282388
L 90.405369 158.835224
L 148.868804 158.835224
L 148.868804 166.282388
z
" style="fill:#253494;"/>
    <path clip-path="url(#pf99bd030b3)" d="M 90.405369 158.007761
L 90.405369 150.560597
L 132.312866 150.560597
L 132.312866 158.007761
z
" style="fill:#253494;"/>
    <path clip-path="url(#pf99bd030b3)" d="M 90.405369 149.733134
L 90.405369 142.28597
L 227.476037 142.28597
L 227.476037 149.733134
z
" style="fill:#253494;"/>
    <path clip-path="url(#pf99bd030b3)" d="M 90.405369 141.458507
L 90.405369 134.011343
L 140.852934 134.011343
L 140.852934 141.458507
z
" style="fill:#253494;"/>
    <path clip-path="url(#pf99bd030b3)" d="M 90.405369 133.183881
L 90.405369 125.736716
L 135.821314 125.736716
L 135.821314 133.183881
z
" style="fill:#253494;"/>
    <path clip-path="url(#pf99bd030b3)" d="M 90.405369 124.909254
L 90.405369 117.46209
L 147.429268 117.46209
L 147.429268 124.909254
z
" style="fill:#253494;"/>
    <path clip-path="url(#pf99bd030b3)" d="M 90.405369 116.634627
L 90.405369 109.187463
L 131.511997 109.187463
L 131.511997 116.634627
z
" style="fill:#253494;"/>
    <path clip-path="url(#pf99bd030b3)" d="M 90.405369 108.36
L 90.405369 100.912836
L 250.078198 100.912836
L 250.078198 108.36
z
" style="fill:#253494;"/>
    <path clip-path="url(#pf99bd030b3)" d="M 90.405369 100.085373
L 90.405369 92.638209
L 240.58393 92.638209
L 240.58393 100.085373
z
" style="fill:#253494;"/>
    <path clip-path="url(#pf99bd030b3)" d="M 90.405369 91.810746
L 90.405369 84.363582
L 157.305807 84.363582
L 157.305807 91.810746
z
" style="fill:#253494;"/>
    <path clip-path="url(#pf99bd030b3)" d="M 90.405369 83.536119
L 90.405369 76.088955
L 124.007229 76.088955
L 124.007229 83.536119
z
" style="fill:#253494;"/>
    <path clip-path="url(#pf99bd030b3)" d="M 90.405369 75.261493
L 90.405369 67.814328
L 129.336641 67.814328
L 129.336641 75.261493
z
" style="fill:#253494;"/>
    <path clip-path="url(#pf99bd030b3)" d="M 90.405369 66.986866
L 90.405369 59.539701
L 128.3647 59.539701
L 128.3647 66.986866
z
" style="fill:#253494;"/>
    <path clip-path="url(#pf99bd030b3)" d="M 90.405369 58.712239
L 90.405369 51.265075
L 120.805443 51.265075
L 120.805443 58.712239
z
" style="fill:#253494;"/>
    <path clip-path="url(#pf99bd030b3)" d="M 90.405369 50.437612
L 90.405369 42.990448
L 109.309848 42.990448
L 109.309848 50.437612
z
" style="fill:#253494;"/>
    <path clip-path="url(#pf99bd030b3)" d="M 90.405369 42.162985
L 90.405369 34.715821
L 113.829942 34.715821
L 113.829942 42.162985
z
" style="fill:#253494;"/>
    <path clip-path="url(#pf99bd030b3)" d="M 90.405369 33.888358
L 90.405369 26.441194
L 101.383103 26.441194
L 101.383103 33.888358
z
" style="fill:#253494;"/>
   </g>
   <g id="patch_3">
    <path d="M 77.887188 25.2
L 353.287188 25.2
L 353.287188 7.2
L 77.887188 7.2
z
" style="fill:#ffffff;"/>
   </g>
   <g id="patch_4">
    <path d="M 77.887188 357.84
L 77.887188 25.2
" style="fill:none;stroke:#262626;stroke-linecap:square;stroke-linejoin:miter;"/>
   </g>
   <g id="patch_5">
    <path d="M 353.287188 357.84
L 353.287188 25.2
" style="fill:none;stroke:#262626;stroke-linecap:square;stroke-linejoin:miter;"/>
   </g>
   <g id="patch_6">
    <path d="M 77.887188 357.84
L 353.287188 357.84
" style="fill:none;stroke:#262626;stroke-linecap:square;stroke-linejoin:miter;"/>
   </g>
   <g id="patch_7">
    <path d="M 77.887188 25.2
L 353.287188 25.2
" style="fill:none;stroke:#262626;stroke-linecap:square;stroke-linejoin:miter;"/>
   </g>
   <g id="text_45">
    <!-- Preprint -->
    <defs>
     <path d="M 7.71875 0
L 7.71875 71.578125
L 34.71875 71.578125
Q 41.84375 71.578125 45.609375 70.90625
Q 50.875 70.015625 54.4375 67.546875
Q 58.015625 65.09375 60.1875 60.640625
Q 62.359375 56.203125 62.359375 50.875
Q 62.359375 41.75 56.546875 35.421875
Q 50.734375 29.109375 35.546875 29.109375
L 17.1875 29.109375
L 17.1875 0
z
M 17.1875 37.546875
L 35.6875 37.546875
Q 44.875 37.546875 48.734375 40.96875
Q 52.59375 44.390625 52.59375 50.59375
Q 52.59375 55.078125 50.3125 58.265625
Q 48.046875 61.46875 44.34375 62.5
Q 41.9375 63.140625 35.5 63.140625
L 17.1875 63.140625
z
" id="ArialMT-80"/>
    </defs>
    <g style="fill:#262626;" transform="translate(194.579688 19.302187)scale(0.12 -0.12)">
     <use xlink:href="#ArialMT-80"/>
     <use x="66.699219" xlink:href="#ArialMT-114"/>
     <use x="100" xlink:href="#ArialMT-101"/>
     <use x="155.615234" xlink:href="#ArialMT-112"/>
     <use x="211.230469" xlink:href="#ArialMT-114"/>
     <use x="244.53125" xlink:href="#ArialMT-105"/>
     <use x="266.748047" xlink:href="#ArialMT-110"/>
     <use x="322.363281" xlink:href="#ArialMT-116"/>
    </g>
   </g>
  </g>
  <g id="axes_2">
   <g id="patch_8">
    <path d="M 360.487188 357.84
L 635.887187 357.84
L 635.887187 25.2
L 360.487188 25.2
z
" style="fill:#ffffff;"/>
   </g>
   <g id="matplotlib.axis_3">
    <g id="xtick_8">
     <g id="line2d_48">
      <g>
       <use style="fill:#262626;stroke:#262626;" x="373.005369" xlink:href="#m6db0ce62e7" y="357.84"/>
      </g>
     </g>
     <g id="text_46">
      <!-- 0 -->
      <g style="fill:#262626;" transform="translate(370.224901 372.197812)scale(0.1 -0.1)">
       <use xlink:href="#ArialMT-48"/>
      </g>
     </g>
    </g>
    <g id="xtick_9">
     <g id="line2d_49">
      <g>
       <use style="fill:#262626;stroke:#262626;" x="429.813366" xlink:href="#m6db0ce62e7" y="357.84"/>
      </g>
     </g>
     <g id="text_47">
      <!-- 1e+05 -->
      <g style="fill:#262626;" transform="translate(415.771179 372.197812)scale(0.1 -0.1)">
       <use xlink:href="#ArialMT-49"/>
       <use x="55.615234" xlink:href="#ArialMT-101"/>
       <use x="111.230469" xlink:href="#ArialMT-43"/>
       <use x="169.628906" xlink:href="#ArialMT-48"/>
       <use x="225.244141" xlink:href="#ArialMT-53"/>
      </g>
     </g>
    </g>
    <g id="xtick_10">
     <g id="line2d_50">
      <g>
       <use style="fill:#262626;stroke:#262626;" x="486.621363" xlink:href="#m6db0ce62e7" y="357.84"/>
      </g>
     </g>
     <g id="text_48">
      <!-- 2e+05 -->
      <g style="fill:#262626;" transform="translate(472.579176 372.197812)scale(0.1 -0.1)">
       <use xlink:href="#ArialMT-50"/>
       <use x="55.615234" xlink:href="#ArialMT-101"/>
       <use x="111.230469" xlink:href="#ArialMT-43"/>
       <use x="169.628906" xlink:href="#ArialMT-48"/>
       <use x="225.244141" xlink:href="#ArialMT-53"/>
      </g>
     </g>
    </g>
    <g id="xtick_11">
     <g id="line2d_51">
      <g>
       <use style="fill:#262626;stroke:#262626;" x="543.42936" xlink:href="#m6db0ce62e7" y="357.84"/>
      </g>
     </g>
     <g id="text_49">
      <!-- 3e+05 -->
      <defs>
       <path d="M 4.203125 18.890625
L 12.984375 20.0625
Q 14.5 12.59375 18.140625 9.296875
Q 21.78125 6 27 6
Q 33.203125 6 37.46875 10.296875
Q 41.75 14.59375 41.75 20.953125
Q 41.75 27 37.796875 30.921875
Q 33.84375 34.859375 27.734375 34.859375
Q 25.25 34.859375 21.53125 33.890625
L 22.515625 41.609375
Q 23.390625 41.5 23.921875 41.5
Q 29.546875 41.5 34.03125 44.421875
Q 38.53125 47.359375 38.53125 53.46875
Q 38.53125 58.296875 35.25 61.46875
Q 31.984375 64.65625 26.8125 64.65625
Q 21.6875 64.65625 18.265625 61.421875
Q 14.84375 58.203125 13.875 51.765625
L 5.078125 53.328125
Q 6.6875 62.15625 12.390625 67.015625
Q 18.109375 71.875 26.609375 71.875
Q 32.46875 71.875 37.390625 69.359375
Q 42.328125 66.84375 44.9375 62.5
Q 47.5625 58.15625 47.5625 53.265625
Q 47.5625 48.640625 45.0625 44.828125
Q 42.578125 41.015625 37.703125 38.765625
Q 44.046875 37.3125 47.5625 32.6875
Q 51.078125 28.078125 51.078125 21.140625
Q 51.078125 11.765625 44.234375 5.25
Q 37.40625 -1.265625 26.953125 -1.265625
Q 17.53125 -1.265625 11.296875 4.34375
Q 5.078125 9.96875 4.203125 18.890625
z
" id="ArialMT-51"/>
      </defs>
      <g style="fill:#262626;" transform="translate(529.387173 372.197812)scale(0.1 -0.1)">
       <use xlink:href="#ArialMT-51"/>
       <use x="55.615234" xlink:href="#ArialMT-101"/>
       <use x="111.230469" xlink:href="#ArialMT-43"/>
       <use x="169.628906" xlink:href="#ArialMT-48"/>
       <use x="225.244141" xlink:href="#ArialMT-53"/>
      </g>
     </g>
    </g>
    <g id="xtick_12">
     <g id="line2d_52">
      <g>
       <use style="fill:#262626;stroke:#262626;" x="600.237357" xlink:href="#m6db0ce62e7" y="357.84"/>
      </g>
     </g>
     <g id="text_50">
      <!-- 4e+05 -->
      <g style="fill:#262626;" transform="translate(586.19517 372.197812)scale(0.1 -0.1)">
       <use xlink:href="#ArialMT-52"/>
       <use x="55.615234" xlink:href="#ArialMT-101"/>
       <use x="111.230469" xlink:href="#ArialMT-43"/>
       <use x="169.628906" xlink:href="#ArialMT-48"/>
       <use x="225.244141" xlink:href="#ArialMT-53"/>
      </g>
     </g>
    </g>
    <g id="xtick_13">
     <g id="line2d_53">
      <g>
       <use style="fill:#262626;stroke:#262626;stroke-width:0.8;" x="401.409368" xlink:href="#m091fb68d52" y="357.84"/>
      </g>
     </g>
    </g>
    <g id="xtick_14">
     <g id="line2d_54">
      <g>
       <use style="fill:#262626;stroke:#262626;stroke-width:0.8;" x="458.217365" xlink:href="#m091fb68d52" y="357.84"/>
      </g>
     </g>
    </g>
    <g id="xtick_15">
     <g id="line2d_55">
      <g>
       <use style="fill:#262626;stroke:#262626;stroke-width:0.8;" x="515.025362" xlink:href="#m091fb68d52" y="357.84"/>
      </g>
     </g>
    </g>
    <g id="xtick_16">
     <g id="line2d_56">
      <g>
       <use style="fill:#262626;stroke:#262626;stroke-width:0.8;" x="571.833359" xlink:href="#m091fb68d52" y="357.84"/>
      </g>
     </g>
    </g>
    <g id="xtick_17">
     <g id="line2d_57">
      <g>
       <use style="fill:#262626;stroke:#262626;stroke-width:0.8;" x="628.641356" xlink:href="#m091fb68d52" y="357.84"/>
      </g>
     </g>
    </g>
    <g id="text_51">
     <!-- count -->
     <g style="fill:#262626;" transform="translate(333.210625 387.774687)scale(0.12 -0.12)">
      <use xlink:href="#ArialMT-99"/>
      <use x="50" xlink:href="#ArialMT-111"/>
      <use x="105.615234" xlink:href="#ArialMT-117"/>
      <use x="161.230469" xlink:href="#ArialMT-110"/>
      <use x="216.845703" xlink:href="#ArialMT-116"/>
     </g>
    </g>
   </g>
   <g id="matplotlib.axis_4">
    <g id="ytick_41"/>
    <g id="ytick_42"/>
    <g id="ytick_43"/>
    <g id="ytick_44"/>
    <g id="ytick_45"/>
    <g id="ytick_46"/>
    <g id="ytick_47"/>
    <g id="ytick_48"/>
    <g id="ytick_49"/>
    <g id="ytick_50"/>
    <g id="ytick_51"/>
    <g id="ytick_52"/>
    <g id="ytick_53"/>
    <g id="ytick_54"/>
    <g id="ytick_55"/>
    <g id="ytick_56"/>
    <g id="ytick_57"/>
    <g id="ytick_58"/>
    <g id="ytick_59"/>
    <g id="ytick_60"/>
    <g id="ytick_61"/>
    <g id="ytick_62"/>
    <g id="ytick_63"/>
    <g id="ytick_64"/>
    <g id="ytick_65"/>
    <g id="ytick_66"/>
    <g id="ytick_67"/>
    <g id="ytick_68"/>
    <g id="ytick_69"/>
    <g id="ytick_70"/>
    <g id="ytick_71"/>
    <g id="ytick_72"/>
    <g id="ytick_73"/>
    <g id="ytick_74"/>
    <g id="ytick_75"/>
    <g id="ytick_76"/>
    <g id="ytick_77"/>
    <g id="ytick_78"/>
    <g id="ytick_79"/>
    <g id="ytick_80"/>
   </g>
   <g id="PolyCollection_2">
    <path clip-path="url(#p9dead51680)" d="M 373.005369 356.598806
L 373.005369 349.151642
L 422.655559 349.151642
L 422.655559 356.598806
z
" style="fill:#253494;"/>
    <path clip-path="url(#p9dead51680)" d="M 373.005369 348.324179
L 373.005369 340.877015
L 618.535213 340.877015
L 618.535213 348.324179
z
" style="fill:#253494;"/>
    <path clip-path="url(#p9dead51680)" d="M 373.005369 340.049552
L 373.005369 332.602388
L 411.985313 332.602388
L 411.985313 340.049552
z
" style="fill:#253494;"/>
    <path clip-path="url(#p9dead51680)" d="M 373.005369 331.774925
L 373.005369 324.327761
L 426.082217 324.327761
L 426.082217 331.774925
z
" style="fill:#253494;"/>
    <path clip-path="url(#p9dead51680)" d="M 373.005369 323.500299
L 373.005369 316.053134
L 623.369006 316.053134
L 623.369006 323.500299
z
" style="fill:#253494;"/>
    <path clip-path="url(#p9dead51680)" d="M 373.005369 315.225672
L 373.005369 307.778507
L 420.148054 307.778507
L 420.148054 315.225672
z
" style="fill:#253494;"/>
    <path clip-path="url(#p9dead51680)" d="M 373.005369 306.951045
L 373.005369 299.503881
L 425.02502 299.503881
L 425.02502 306.951045
z
" style="fill:#253494;"/>
    <path clip-path="url(#p9dead51680)" d="M 373.005369 298.676418
L 373.005369 291.229254
L 421.784692 291.229254
L 421.784692 298.676418
z
" style="fill:#253494;"/>
    <path clip-path="url(#p9dead51680)" d="M 373.005369 290.401791
L 373.005369 282.954627
L 524.491278 282.954627
L 524.491278 290.401791
z
" style="fill:#253494;"/>
    <path clip-path="url(#p9dead51680)" d="M 373.005369 282.127164
L 373.005369 274.68
L 409.876032 274.68
L 409.876032 282.127164
z
" style="fill:#253494;"/>
    <path clip-path="url(#p9dead51680)" d="M 373.005369 273.852537
L 373.005369 266.405373
L 416.220349 266.405373
L 416.220349 273.852537
z
" style="fill:#253494;"/>
    <path clip-path="url(#p9dead51680)" d="M 373.005369 265.57791
L 373.005369 258.130746
L 425.449944 258.130746
L 425.449944 265.57791
z
" style="fill:#253494;"/>
    <path clip-path="url(#p9dead51680)" d="M 373.005369 257.303284
L 373.005369 249.856119
L 425.473803 249.856119
L 425.473803 257.303284
z
" style="fill:#253494;"/>
    <path clip-path="url(#p9dead51680)" d="M 373.005369 249.028657
L 373.005369 241.581493
L 422.497064 241.581493
L 422.497064 249.028657
z
" style="fill:#253494;"/>
    <path clip-path="url(#p9dead51680)" d="M 373.005369 240.75403
L 373.005369 233.306866
L 412.684619 233.306866
L 412.684619 240.75403
z
" style="fill:#253494;"/>
    <path clip-path="url(#p9dead51680)" d="M 373.005369 232.479403
L 373.005369 225.032239
L 429.636125 225.032239
L 429.636125 232.479403
z
" style="fill:#253494;"/>
    <path clip-path="url(#p9dead51680)" d="M 373.005369 224.204776
L 373.005369 216.757612
L 436.596241 216.757612
L 436.596241 224.204776
z
" style="fill:#253494;"/>
    <path clip-path="url(#p9dead51680)" d="M 373.005369 215.930149
L 373.005369 208.482985
L 421.028578 208.482985
L 421.028578 215.930149
z
" style="fill:#253494;"/>
    <path clip-path="url(#p9dead51680)" d="M 373.005369 207.655522
L 373.005369 200.208358
L 411.519487 200.208358
L 411.519487 207.655522
z
" style="fill:#253494;"/>
    <path clip-path="url(#p9dead51680)" d="M 373.005369 199.380896
L 373.005369 191.933731
L 421.310913 191.933731
L 421.310913 199.380896
z
" style="fill:#253494;"/>
    <path clip-path="url(#p9dead51680)" d="M 373.005369 191.106269
L 373.005369 183.659104
L 419.47147 183.659104
L 419.47147 191.106269
z
" style="fill:#253494;"/>
    <path clip-path="url(#p9dead51680)" d="M 373.005369 182.831642
L 373.005369 175.384478
L 417.824607 175.384478
L 417.824607 182.831642
z
" style="fill:#253494;"/>
    <path clip-path="url(#p9dead51680)" d="M 373.005369 174.557015
L 373.005369 167.109851
L 440.075163 167.109851
L 440.075163 174.557015
z
" style="fill:#253494;"/>
    <path clip-path="url(#p9dead51680)" d="M 373.005369 166.282388
L 373.005369 158.835224
L 446.23315 158.835224
L 446.23315 166.282388
z
" style="fill:#253494;"/>
    <path clip-path="url(#p9dead51680)" d="M 373.005369 158.007761
L 373.005369 150.560597
L 425.991892 150.560597
L 425.991892 158.007761
z
" style="fill:#253494;"/>
    <path clip-path="url(#p9dead51680)" d="M 373.005369 149.733134
L 373.005369 142.28597
L 546.533349 142.28597
L 546.533349 149.733134
z
" style="fill:#253494;"/>
    <path clip-path="url(#p9dead51680)" d="M 373.005369 141.458507
L 373.005369 134.011343
L 437.548343 134.011343
L 437.548343 141.458507
z
" style="fill:#253494;"/>
    <path clip-path="url(#p9dead51680)" d="M 373.005369 133.183881
L 373.005369 125.736716
L 431.844252 125.736716
L 431.844252 133.183881
z
" style="fill:#253494;"/>
    <path clip-path="url(#p9dead51680)" d="M 373.005369 124.909254
L 373.005369 117.46209
L 446.919958 117.46209
L 446.919958 124.909254
z
" style="fill:#253494;"/>
    <path clip-path="url(#p9dead51680)" d="M 373.005369 116.634627
L 373.005369 109.187463
L 430.055368 109.187463
L 430.055368 116.634627
z
" style="fill:#253494;"/>
    <path clip-path="url(#p9dead51680)" d="M 373.005369 108.36
L 373.005369 100.912836
L 596.182403 100.912836
L 596.182403 108.36
z
" style="fill:#253494;"/>
    <path clip-path="url(#p9dead51680)" d="M 373.005369 100.085373
L 373.005369 92.638209
L 588.734306 92.638209
L 588.734306 100.085373
z
" style="fill:#253494;"/>
    <path clip-path="url(#p9dead51680)" d="M 373.005369 91.810746
L 373.005369 84.363582
L 471.20765 84.363582
L 471.20765 91.810746
z
" style="fill:#253494;"/>
    <path clip-path="url(#p9dead51680)" d="M 373.005369 83.536119
L 373.005369 76.088955
L 422.493656 76.088955
L 422.493656 83.536119
z
" style="fill:#253494;"/>
    <path clip-path="url(#p9dead51680)" d="M 373.005369 75.261493
L 373.005369 67.814328
L 445.219695 67.814328
L 445.219695 75.261493
z
" style="fill:#253494;"/>
    <path clip-path="url(#p9dead51680)" d="M 373.005369 66.986866
L 373.005369 59.539701
L 447.697092 59.539701
L 447.697092 66.986866
z
" style="fill:#253494;"/>
    <path clip-path="url(#p9dead51680)" d="M 373.005369 58.712239
L 373.005369 51.265075
L 439.924054 51.265075
L 439.924054 58.712239
z
" style="fill:#253494;"/>
    <path clip-path="url(#p9dead51680)" d="M 373.005369 50.437612
L 373.005369 42.990448
L 421.802303 42.990448
L 421.802303 50.437612
z
" style="fill:#253494;"/>
    <path clip-path="url(#p9dead51680)" d="M 373.005369 42.162985
L 373.005369 34.715821
L 434.473894 34.715821
L 434.473894 42.162985
z
" style="fill:#253494;"/>
    <path clip-path="url(#p9dead51680)" d="M 373.005369 33.888358
L 373.005369 26.441194
L 428.100605 26.441194
L 428.100605 33.888358
z
" style="fill:#253494;"/>
   </g>
   <g id="patch_9">
    <path d="M 360.487188 25.2
L 635.887187 25.2
L 635.887187 7.2
L 360.487188 7.2
z
" style="fill:#ffffff;"/>
   </g>
   <g id="patch_10">
    <path d="M 360.487188 357.84
L 360.487188 25.2
" style="fill:none;stroke:#262626;stroke-linecap:square;stroke-linejoin:miter;"/>
   </g>
   <g id="patch_11">
    <path d="M 635.887187 357.84
L 635.887187 25.2
" style="fill:none;stroke:#262626;stroke-linecap:square;stroke-linejoin:miter;"/>
   </g>
   <g id="patch_12">
    <path d="M 360.487188 357.84
L 635.887187 357.84
" style="fill:none;stroke:#262626;stroke-linecap:square;stroke-linejoin:miter;"/>
   </g>
   <g id="patch_13">
    <path d="M 360.487188 25.2
L 635.887187 25.2
" style="fill:none;stroke:#262626;stroke-linecap:square;stroke-linejoin:miter;"/>
   </g>
   <g id="text_52">
    <!-- Published -->
    <g style="fill:#262626;" transform="translate(471.835938 19.302187)scale(0.12 -0.12)">
     <use xlink:href="#ArialMT-80"/>
     <use x="66.699219" xlink:href="#ArialMT-117"/>
     <use x="122.314453" xlink:href="#ArialMT-98"/>
     <use x="177.929688" xlink:href="#ArialMT-108"/>
     <use x="200.146484" xlink:href="#ArialMT-105"/>
     <use x="222.363281" xlink:href="#ArialMT-115"/>
     <use x="272.363281" xlink:href="#ArialMT-104"/>
     <use x="327.978516" xlink:href="#ArialMT-101"/>
     <use x="383.59375" xlink:href="#ArialMT-100"/>
    </g>
   </g>
  </g>
 </g>
 <defs>
  <clipPath id="pf99bd030b3">
   <rect height="332.64" width="275.4" x="77.887188" y="25.2"/>
  </clipPath>
  <clipPath id="p9dead51680">
   <rect height="332.64" width="275.4" x="360.487188" y="25.2"/>
  </clipPath>
 </defs>
</svg>
