<?xml version="1.0" encoding="utf-8" standalone="no"?>
<!DOCTYPE svg PUBLIC "-//W3C//DTD SVG 1.1//EN"
  "http://www.w3.org/Graphics/SVG/1.1/DTD/svg11.dtd">
<!-- Created with matplotlib (https://matplotlib.org/) -->
<svg height="333.022077pt" version="1.1" viewBox="0 0 612.94636 333.022077" width="612.94636pt" xmlns="http://www.w3.org/2000/svg" xmlns:xlink="http://www.w3.org/1999/xlink">
 <defs>
  <style type="text/css">
*{stroke-linecap:butt;stroke-linejoin:round;}
  </style>
 </defs>
 <g id="figure_1">
  <g id="patch_1">
   <path d="M 0 333.022077 
L 612.94636 333.022077 
L 612.94636 0 
L 0 0 
z
" style="fill:#ffffff;"/>
  </g>
  <g id="axes_1">
   <g id="patch_2">
    <path d="M 241.50995 292.252777 
L 598.62995 292.252777 
L 598.62995 26.140777 
L 241.50995 26.140777 
z
" style="fill:#ffffff;"/>
   </g>
   <g id="matplotlib.axis_1">
    <g id="xtick_1">
     <g id="line2d_1">
      <defs>
       <path d="M 0 0 
L 0 4.8 
" id="mfab66649dd" style="stroke:#262626;"/>
      </defs>
      <g>
       <use style="fill:#262626;stroke:#262626;" x="257.742677" xlink:href="#mfab66649dd" y="292.252777"/>
      </g>
     </g>
     <g id="text_1">
      <!-- 0 -->
      <defs>
       <path d="M 31.78125 66.40625 
Q 24.171875 66.40625 20.328125 58.90625 
Q 16.5 51.421875 16.5 36.375 
Q 16.5 21.390625 20.328125 13.890625 
Q 24.171875 6.390625 31.78125 6.390625 
Q 39.453125 6.390625 43.28125 13.890625 
Q 47.125 21.390625 47.125 36.375 
Q 47.125 51.421875 43.28125 58.90625 
Q 39.453125 66.40625 31.78125 66.40625 
z
M 31.78125 74.21875 
Q 44.046875 74.21875 50.515625 64.515625 
Q 56.984375 54.828125 56.984375 36.375 
Q 56.984375 17.96875 50.515625 8.265625 
Q 44.046875 -1.421875 31.78125 -1.421875 
Q 19.53125 -1.421875 13.0625 8.265625 
Q 6.59375 17.96875 6.59375 36.375 
Q 6.59375 54.828125 13.0625 64.515625 
Q 19.53125 74.21875 31.78125 74.21875 
z
" id="DejaVuSans-48"/>
      </defs>
      <g style="fill:#262626;" transform="translate(254.383277 307.476727)scale(0.1056 -0.1056)">
       <use xlink:href="#DejaVuSans-48"/>
      </g>
     </g>
    </g>
    <g id="xtick_2">
     <g id="line2d_2">
      <g>
       <use style="fill:#262626;stroke:#262626;" x="311.706704" xlink:href="#mfab66649dd" y="292.252777"/>
      </g>
     </g>
     <g id="text_2">
      <!-- 62 days -->
      <defs>
       <path d="M 33.015625 40.375 
Q 26.375 40.375 22.484375 35.828125 
Q 18.609375 31.296875 18.609375 23.390625 
Q 18.609375 15.53125 22.484375 10.953125 
Q 26.375 6.390625 33.015625 6.390625 
Q 39.65625 6.390625 43.53125 10.953125 
Q 47.40625 15.53125 47.40625 23.390625 
Q 47.40625 31.296875 43.53125 35.828125 
Q 39.65625 40.375 33.015625 40.375 
z
M 52.59375 71.296875 
L 52.59375 62.3125 
Q 48.875 64.0625 45.09375 64.984375 
Q 41.3125 65.921875 37.59375 65.921875 
Q 27.828125 65.921875 22.671875 59.328125 
Q 17.53125 52.734375 16.796875 39.40625 
Q 19.671875 43.65625 24.015625 45.921875 
Q 28.375 48.1875 33.59375 48.1875 
Q 44.578125 48.1875 50.953125 41.515625 
Q 57.328125 34.859375 57.328125 23.390625 
Q 57.328125 12.15625 50.6875 5.359375 
Q 44.046875 -1.421875 33.015625 -1.421875 
Q 20.359375 -1.421875 13.671875 8.265625 
Q 6.984375 17.96875 6.984375 36.375 
Q 6.984375 53.65625 15.1875 63.9375 
Q 23.390625 74.21875 37.203125 74.21875 
Q 40.921875 74.21875 44.703125 73.484375 
Q 48.484375 72.75 52.59375 71.296875 
z
" id="DejaVuSans-54"/>
       <path d="M 19.1875 8.296875 
L 53.609375 8.296875 
L 53.609375 0 
L 7.328125 0 
L 7.328125 8.296875 
Q 12.9375 14.109375 22.625 23.890625 
Q 32.328125 33.6875 34.8125 36.53125 
Q 39.546875 41.84375 41.421875 45.53125 
Q 43.3125 49.21875 43.3125 52.78125 
Q 43.3125 58.59375 39.234375 62.25 
Q 35.15625 65.921875 28.609375 65.921875 
Q 23.96875 65.921875 18.8125 64.3125 
Q 13.671875 62.703125 7.8125 59.421875 
L 7.8125 69.390625 
Q 13.765625 71.78125 18.9375 73 
Q 24.125 74.21875 28.421875 74.21875 
Q 39.75 74.21875 46.484375 68.546875 
Q 53.21875 62.890625 53.21875 53.421875 
Q 53.21875 48.921875 51.53125 44.890625 
Q 49.859375 40.875 45.40625 35.40625 
Q 44.1875 33.984375 37.640625 27.21875 
Q 31.109375 20.453125 19.1875 8.296875 
z
" id="DejaVuSans-50"/>
       <path id="DejaVuSans-32"/>
       <path d="M 45.40625 46.390625 
L 45.40625 75.984375 
L 54.390625 75.984375 
L 54.390625 0 
L 45.40625 0 
L 45.40625 8.203125 
Q 42.578125 3.328125 38.25 0.953125 
Q 33.9375 -1.421875 27.875 -1.421875 
Q 17.96875 -1.421875 11.734375 6.484375 
Q 5.515625 14.40625 5.515625 27.296875 
Q 5.515625 40.1875 11.734375 48.09375 
Q 17.96875 56 27.875 56 
Q 33.9375 56 38.25 53.625 
Q 42.578125 51.265625 45.40625 46.390625 
z
M 14.796875 27.296875 
Q 14.796875 17.390625 18.875 11.75 
Q 22.953125 6.109375 30.078125 6.109375 
Q 37.203125 6.109375 41.296875 11.75 
Q 45.40625 17.390625 45.40625 27.296875 
Q 45.40625 37.203125 41.296875 42.84375 
Q 37.203125 48.484375 30.078125 48.484375 
Q 22.953125 48.484375 18.875 42.84375 
Q 14.796875 37.203125 14.796875 27.296875 
z
" id="DejaVuSans-100"/>
       <path d="M 34.28125 27.484375 
Q 23.390625 27.484375 19.1875 25 
Q 14.984375 22.515625 14.984375 16.5 
Q 14.984375 11.71875 18.140625 8.90625 
Q 21.296875 6.109375 26.703125 6.109375 
Q 34.1875 6.109375 38.703125 11.40625 
Q 43.21875 16.703125 43.21875 25.484375 
L 43.21875 27.484375 
z
M 52.203125 31.203125 
L 52.203125 0 
L 43.21875 0 
L 43.21875 8.296875 
Q 40.140625 3.328125 35.546875 0.953125 
Q 30.953125 -1.421875 24.3125 -1.421875 
Q 15.921875 -1.421875 10.953125 3.296875 
Q 6 8.015625 6 15.921875 
Q 6 25.140625 12.171875 29.828125 
Q 18.359375 34.515625 30.609375 34.515625 
L 43.21875 34.515625 
L 43.21875 35.40625 
Q 43.21875 41.609375 39.140625 45 
Q 35.0625 48.390625 27.6875 48.390625 
Q 23 48.390625 18.546875 47.265625 
Q 14.109375 46.140625 10.015625 43.890625 
L 10.015625 52.203125 
Q 14.9375 54.109375 19.578125 55.046875 
Q 24.21875 56 28.609375 56 
Q 40.484375 56 46.34375 49.84375 
Q 52.203125 43.703125 52.203125 31.203125 
z
" id="DejaVuSans-97"/>
       <path d="M 32.171875 -5.078125 
Q 28.375 -14.84375 24.75 -17.8125 
Q 21.140625 -20.796875 15.09375 -20.796875 
L 7.90625 -20.796875 
L 7.90625 -13.28125 
L 13.1875 -13.28125 
Q 16.890625 -13.28125 18.9375 -11.515625 
Q 21 -9.765625 23.484375 -3.21875 
L 25.09375 0.875 
L 2.984375 54.6875 
L 12.5 54.6875 
L 29.59375 11.921875 
L 46.6875 54.6875 
L 56.203125 54.6875 
z
" id="DejaVuSans-121"/>
       <path d="M 44.28125 53.078125 
L 44.28125 44.578125 
Q 40.484375 46.53125 36.375 47.5 
Q 32.28125 48.484375 27.875 48.484375 
Q 21.1875 48.484375 17.84375 46.4375 
Q 14.5 44.390625 14.5 40.28125 
Q 14.5 37.15625 16.890625 35.375 
Q 19.28125 33.59375 26.515625 31.984375 
L 29.59375 31.296875 
Q 39.15625 29.25 43.1875 25.515625 
Q 47.21875 21.78125 47.21875 15.09375 
Q 47.21875 7.46875 41.1875 3.015625 
Q 35.15625 -1.421875 24.609375 -1.421875 
Q 20.21875 -1.421875 15.453125 -0.5625 
Q 10.6875 0.296875 5.421875 2 
L 5.421875 11.28125 
Q 10.40625 8.6875 15.234375 7.390625 
Q 20.0625 6.109375 24.8125 6.109375 
Q 31.15625 6.109375 34.5625 8.28125 
Q 37.984375 10.453125 37.984375 14.40625 
Q 37.984375 18.0625 35.515625 20.015625 
Q 33.0625 21.96875 24.703125 23.78125 
L 21.578125 24.515625 
Q 13.234375 26.265625 9.515625 29.90625 
Q 5.8125 33.546875 5.8125 39.890625 
Q 5.8125 47.609375 11.28125 51.796875 
Q 16.75 56 26.8125 56 
Q 31.78125 56 36.171875 55.265625 
Q 40.578125 54.546875 44.28125 53.078125 
z
" id="DejaVuSans-115"/>
      </defs>
      <g style="fill:#262626;" transform="translate(290.846579 307.476727)scale(0.1056 -0.1056)">
       <use xlink:href="#DejaVuSans-54"/>
       <use x="63.623047" xlink:href="#DejaVuSans-50"/>
       <use x="127.246094" xlink:href="#DejaVuSans-32"/>
       <use x="159.033203" xlink:href="#DejaVuSans-100"/>
       <use x="222.509766" xlink:href="#DejaVuSans-97"/>
       <use x="283.789062" xlink:href="#DejaVuSans-121"/>
       <use x="342.96875" xlink:href="#DejaVuSans-115"/>
      </g>
     </g>
    </g>
    <g id="xtick_3">
     <g id="line2d_3">
      <g>
       <use style="fill:#262626;stroke:#262626;" x="365.67073" xlink:href="#mfab66649dd" y="292.252777"/>
      </g>
     </g>
     <g id="text_3">
      <!-- 124 days -->
      <defs>
       <path d="M 12.40625 8.296875 
L 28.515625 8.296875 
L 28.515625 63.921875 
L 10.984375 60.40625 
L 10.984375 69.390625 
L 28.421875 72.90625 
L 38.28125 72.90625 
L 38.28125 8.296875 
L 54.390625 8.296875 
L 54.390625 0 
L 12.40625 0 
z
" id="DejaVuSans-49"/>
       <path d="M 37.796875 64.3125 
L 12.890625 25.390625 
L 37.796875 25.390625 
z
M 35.203125 72.90625 
L 47.609375 72.90625 
L 47.609375 25.390625 
L 58.015625 25.390625 
L 58.015625 17.1875 
L 47.609375 17.1875 
L 47.609375 0 
L 37.796875 0 
L 37.796875 17.1875 
L 4.890625 17.1875 
L 4.890625 26.703125 
z
" id="DejaVuSans-52"/>
      </defs>
      <g style="fill:#262626;" transform="translate(341.451205 307.476727)scale(0.1056 -0.1056)">
       <use xlink:href="#DejaVuSans-49"/>
       <use x="63.623047" xlink:href="#DejaVuSans-50"/>
       <use x="127.246094" xlink:href="#DejaVuSans-52"/>
       <use x="190.869141" xlink:href="#DejaVuSans-32"/>
       <use x="222.65625" xlink:href="#DejaVuSans-100"/>
       <use x="286.132812" xlink:href="#DejaVuSans-97"/>
       <use x="347.412109" xlink:href="#DejaVuSans-121"/>
       <use x="406.591797" xlink:href="#DejaVuSans-115"/>
      </g>
     </g>
    </g>
    <g id="xtick_4">
     <g id="line2d_4">
      <g>
       <use style="fill:#262626;stroke:#262626;" x="419.634756" xlink:href="#mfab66649dd" y="292.252777"/>
      </g>
     </g>
     <g id="text_4">
      <!-- 186 days -->
      <defs>
       <path d="M 31.78125 34.625 
Q 24.75 34.625 20.71875 30.859375 
Q 16.703125 27.09375 16.703125 20.515625 
Q 16.703125 13.921875 20.71875 10.15625 
Q 24.75 6.390625 31.78125 6.390625 
Q 38.8125 6.390625 42.859375 10.171875 
Q 46.921875 13.96875 46.921875 20.515625 
Q 46.921875 27.09375 42.890625 30.859375 
Q 38.875 34.625 31.78125 34.625 
z
M 21.921875 38.8125 
Q 15.578125 40.375 12.03125 44.71875 
Q 8.5 49.078125 8.5 55.328125 
Q 8.5 64.0625 14.71875 69.140625 
Q 20.953125 74.21875 31.78125 74.21875 
Q 42.671875 74.21875 48.875 69.140625 
Q 55.078125 64.0625 55.078125 55.328125 
Q 55.078125 49.078125 51.53125 44.71875 
Q 48 40.375 41.703125 38.8125 
Q 48.828125 37.15625 52.796875 32.3125 
Q 56.78125 27.484375 56.78125 20.515625 
Q 56.78125 9.90625 50.3125 4.234375 
Q 43.84375 -1.421875 31.78125 -1.421875 
Q 19.734375 -1.421875 13.25 4.234375 
Q 6.78125 9.90625 6.78125 20.515625 
Q 6.78125 27.484375 10.78125 32.3125 
Q 14.796875 37.15625 21.921875 38.8125 
z
M 18.3125 54.390625 
Q 18.3125 48.734375 21.84375 45.5625 
Q 25.390625 42.390625 31.78125 42.390625 
Q 38.140625 42.390625 41.71875 45.5625 
Q 45.3125 48.734375 45.3125 54.390625 
Q 45.3125 60.0625 41.71875 63.234375 
Q 38.140625 66.40625 31.78125 66.40625 
Q 25.390625 66.40625 21.84375 63.234375 
Q 18.3125 60.0625 18.3125 54.390625 
z
" id="DejaVuSans-56"/>
      </defs>
      <g style="fill:#262626;" transform="translate(395.415231 307.476727)scale(0.1056 -0.1056)">
       <use xlink:href="#DejaVuSans-49"/>
       <use x="63.623047" xlink:href="#DejaVuSans-56"/>
       <use x="127.246094" xlink:href="#DejaVuSans-54"/>
       <use x="190.869141" xlink:href="#DejaVuSans-32"/>
       <use x="222.65625" xlink:href="#DejaVuSans-100"/>
       <use x="286.132812" xlink:href="#DejaVuSans-97"/>
       <use x="347.412109" xlink:href="#DejaVuSans-121"/>
       <use x="406.591797" xlink:href="#DejaVuSans-115"/>
      </g>
     </g>
    </g>
    <g id="xtick_5">
     <g id="line2d_5">
      <g>
       <use style="fill:#262626;stroke:#262626;" x="473.598783" xlink:href="#mfab66649dd" y="292.252777"/>
      </g>
     </g>
     <g id="text_5">
      <!-- 248 days -->
      <g style="fill:#262626;" transform="translate(449.379258 307.476727)scale(0.1056 -0.1056)">
       <use xlink:href="#DejaVuSans-50"/>
       <use x="63.623047" xlink:href="#DejaVuSans-52"/>
       <use x="127.246094" xlink:href="#DejaVuSans-56"/>
       <use x="190.869141" xlink:href="#DejaVuSans-32"/>
       <use x="222.65625" xlink:href="#DejaVuSans-100"/>
       <use x="286.132812" xlink:href="#DejaVuSans-97"/>
       <use x="347.412109" xlink:href="#DejaVuSans-121"/>
       <use x="406.591797" xlink:href="#DejaVuSans-115"/>
      </g>
     </g>
    </g>
    <g id="xtick_6">
     <g id="line2d_6">
      <g>
       <use style="fill:#262626;stroke:#262626;" x="527.562809" xlink:href="#mfab66649dd" y="292.252777"/>
      </g>
     </g>
     <g id="text_6">
      <!-- 310 days -->
      <defs>
       <path d="M 40.578125 39.3125 
Q 47.65625 37.796875 51.625 33 
Q 55.609375 28.21875 55.609375 21.1875 
Q 55.609375 10.40625 48.1875 4.484375 
Q 40.765625 -1.421875 27.09375 -1.421875 
Q 22.515625 -1.421875 17.65625 -0.515625 
Q 12.796875 0.390625 7.625 2.203125 
L 7.625 11.71875 
Q 11.71875 9.328125 16.59375 8.109375 
Q 21.484375 6.890625 26.8125 6.890625 
Q 36.078125 6.890625 40.9375 10.546875 
Q 45.796875 14.203125 45.796875 21.1875 
Q 45.796875 27.640625 41.28125 31.265625 
Q 36.765625 34.90625 28.71875 34.90625 
L 20.21875 34.90625 
L 20.21875 43.015625 
L 29.109375 43.015625 
Q 36.375 43.015625 40.234375 45.921875 
Q 44.09375 48.828125 44.09375 54.296875 
Q 44.09375 59.90625 40.109375 62.90625 
Q 36.140625 65.921875 28.71875 65.921875 
Q 24.65625 65.921875 20.015625 65.03125 
Q 15.375 64.15625 9.8125 62.3125 
L 9.8125 71.09375 
Q 15.4375 72.65625 20.34375 73.4375 
Q 25.25 74.21875 29.59375 74.21875 
Q 40.828125 74.21875 47.359375 69.109375 
Q 53.90625 64.015625 53.90625 55.328125 
Q 53.90625 49.265625 50.4375 45.09375 
Q 46.96875 40.921875 40.578125 39.3125 
z
" id="DejaVuSans-51"/>
      </defs>
      <g style="fill:#262626;" transform="translate(503.343284 307.476727)scale(0.1056 -0.1056)">
       <use xlink:href="#DejaVuSans-51"/>
       <use x="63.623047" xlink:href="#DejaVuSans-49"/>
       <use x="127.246094" xlink:href="#DejaVuSans-48"/>
       <use x="190.869141" xlink:href="#DejaVuSans-32"/>
       <use x="222.65625" xlink:href="#DejaVuSans-100"/>
       <use x="286.132812" xlink:href="#DejaVuSans-97"/>
       <use x="347.412109" xlink:href="#DejaVuSans-121"/>
       <use x="406.591797" xlink:href="#DejaVuSans-115"/>
      </g>
     </g>
    </g>
    <g id="xtick_7">
     <g id="line2d_7">
      <g>
       <use style="fill:#262626;stroke:#262626;" x="581.526835" xlink:href="#mfab66649dd" y="292.252777"/>
      </g>
     </g>
     <g id="text_7">
      <!-- 372 days -->
      <defs>
       <path d="M 8.203125 72.90625 
L 55.078125 72.90625 
L 55.078125 68.703125 
L 28.609375 0 
L 18.3125 0 
L 43.21875 64.59375 
L 8.203125 64.59375 
z
" id="DejaVuSans-55"/>
      </defs>
      <g style="fill:#262626;" transform="translate(557.30731 307.476727)scale(0.1056 -0.1056)">
       <use xlink:href="#DejaVuSans-51"/>
       <use x="63.623047" xlink:href="#DejaVuSans-55"/>
       <use x="127.246094" xlink:href="#DejaVuSans-50"/>
       <use x="190.869141" xlink:href="#DejaVuSans-32"/>
       <use x="222.65625" xlink:href="#DejaVuSans-100"/>
       <use x="286.132812" xlink:href="#DejaVuSans-97"/>
       <use x="347.412109" xlink:href="#DejaVuSans-121"/>
       <use x="406.591797" xlink:href="#DejaVuSans-115"/>
      </g>
     </g>
    </g>
    <g id="xtick_8"/>
    <g id="xtick_9"/>
    <g id="xtick_10"/>
    <g id="xtick_11"/>
    <g id="xtick_12"/>
    <g id="xtick_13"/>
    <g id="text_8">
     <!-- Time Until 50% of Preprints are Published -->
     <defs>
      <path d="M -0.296875 72.90625 
L 61.375 72.90625 
L 61.375 64.59375 
L 35.5 64.59375 
L 35.5 0 
L 25.59375 0 
L 25.59375 64.59375 
L -0.296875 64.59375 
z
" id="DejaVuSans-84"/>
      <path d="M 9.421875 54.6875 
L 18.40625 54.6875 
L 18.40625 0 
L 9.421875 0 
z
M 9.421875 75.984375 
L 18.40625 75.984375 
L 18.40625 64.59375 
L 9.421875 64.59375 
z
" id="DejaVuSans-105"/>
      <path d="M 52 44.1875 
Q 55.375 50.25 60.0625 53.125 
Q 64.75 56 71.09375 56 
Q 79.640625 56 84.28125 50.015625 
Q 88.921875 44.046875 88.921875 33.015625 
L 88.921875 0 
L 79.890625 0 
L 79.890625 32.71875 
Q 79.890625 40.578125 77.09375 44.375 
Q 74.3125 48.1875 68.609375 48.1875 
Q 61.625 48.1875 57.5625 43.546875 
Q 53.515625 38.921875 53.515625 30.90625 
L 53.515625 0 
L 44.484375 0 
L 44.484375 32.71875 
Q 44.484375 40.625 41.703125 44.40625 
Q 38.921875 48.1875 33.109375 48.1875 
Q 26.21875 48.1875 22.15625 43.53125 
Q 18.109375 38.875 18.109375 30.90625 
L 18.109375 0 
L 9.078125 0 
L 9.078125 54.6875 
L 18.109375 54.6875 
L 18.109375 46.1875 
Q 21.1875 51.21875 25.484375 53.609375 
Q 29.78125 56 35.6875 56 
Q 41.65625 56 45.828125 52.96875 
Q 50 49.953125 52 44.1875 
z
" id="DejaVuSans-109"/>
      <path d="M 56.203125 29.59375 
L 56.203125 25.203125 
L 14.890625 25.203125 
Q 15.484375 15.921875 20.484375 11.0625 
Q 25.484375 6.203125 34.421875 6.203125 
Q 39.59375 6.203125 44.453125 7.46875 
Q 49.3125 8.734375 54.109375 11.28125 
L 54.109375 2.78125 
Q 49.265625 0.734375 44.1875 -0.34375 
Q 39.109375 -1.421875 33.890625 -1.421875 
Q 20.796875 -1.421875 13.15625 6.1875 
Q 5.515625 13.8125 5.515625 26.8125 
Q 5.515625 40.234375 12.765625 48.109375 
Q 20.015625 56 32.328125 56 
Q 43.359375 56 49.78125 48.890625 
Q 56.203125 41.796875 56.203125 29.59375 
z
M 47.21875 32.234375 
Q 47.125 39.59375 43.09375 43.984375 
Q 39.0625 48.390625 32.421875 48.390625 
Q 24.90625 48.390625 20.390625 44.140625 
Q 15.875 39.890625 15.1875 32.171875 
z
" id="DejaVuSans-101"/>
      <path d="M 8.6875 72.90625 
L 18.609375 72.90625 
L 18.609375 28.609375 
Q 18.609375 16.890625 22.84375 11.734375 
Q 27.09375 6.59375 36.625 6.59375 
Q 46.09375 6.59375 50.34375 11.734375 
Q 54.59375 16.890625 54.59375 28.609375 
L 54.59375 72.90625 
L 64.5 72.90625 
L 64.5 27.390625 
Q 64.5 13.140625 57.4375 5.859375 
Q 50.390625 -1.421875 36.625 -1.421875 
Q 22.796875 -1.421875 15.734375 5.859375 
Q 8.6875 13.140625 8.6875 27.390625 
z
" id="DejaVuSans-85"/>
      <path d="M 54.890625 33.015625 
L 54.890625 0 
L 45.90625 0 
L 45.90625 32.71875 
Q 45.90625 40.484375 42.875 44.328125 
Q 39.84375 48.1875 33.796875 48.1875 
Q 26.515625 48.1875 22.3125 43.546875 
Q 18.109375 38.921875 18.109375 30.90625 
L 18.109375 0 
L 9.078125 0 
L 9.078125 54.6875 
L 18.109375 54.6875 
L 18.109375 46.1875 
Q 21.34375 51.125 25.703125 53.5625 
Q 30.078125 56 35.796875 56 
Q 45.21875 56 50.046875 50.171875 
Q 54.890625 44.34375 54.890625 33.015625 
z
" id="DejaVuSans-110"/>
      <path d="M 18.3125 70.21875 
L 18.3125 54.6875 
L 36.8125 54.6875 
L 36.8125 47.703125 
L 18.3125 47.703125 
L 18.3125 18.015625 
Q 18.3125 11.328125 20.140625 9.421875 
Q 21.96875 7.515625 27.59375 7.515625 
L 36.8125 7.515625 
L 36.8125 0 
L 27.59375 0 
Q 17.1875 0 13.234375 3.875 
Q 9.28125 7.765625 9.28125 18.015625 
L 9.28125 47.703125 
L 2.6875 47.703125 
L 2.6875 54.6875 
L 9.28125 54.6875 
L 9.28125 70.21875 
z
" id="DejaVuSans-116"/>
      <path d="M 9.421875 75.984375 
L 18.40625 75.984375 
L 18.40625 0 
L 9.421875 0 
z
" id="DejaVuSans-108"/>
      <path d="M 10.796875 72.90625 
L 49.515625 72.90625 
L 49.515625 64.59375 
L 19.828125 64.59375 
L 19.828125 46.734375 
Q 21.96875 47.46875 24.109375 47.828125 
Q 26.265625 48.1875 28.421875 48.1875 
Q 40.625 48.1875 47.75 41.5 
Q 54.890625 34.8125 54.890625 23.390625 
Q 54.890625 11.625 47.5625 5.09375 
Q 40.234375 -1.421875 26.90625 -1.421875 
Q 22.3125 -1.421875 17.546875 -0.640625 
Q 12.796875 0.140625 7.71875 1.703125 
L 7.71875 11.625 
Q 12.109375 9.234375 16.796875 8.0625 
Q 21.484375 6.890625 26.703125 6.890625 
Q 35.15625 6.890625 40.078125 11.328125 
Q 45.015625 15.765625 45.015625 23.390625 
Q 45.015625 31 40.078125 35.4375 
Q 35.15625 39.890625 26.703125 39.890625 
Q 22.75 39.890625 18.8125 39.015625 
Q 14.890625 38.140625 10.796875 36.28125 
z
" id="DejaVuSans-53"/>
      <path d="M 72.703125 32.078125 
Q 68.453125 32.078125 66.03125 28.46875 
Q 63.625 24.859375 63.625 18.40625 
Q 63.625 12.0625 66.03125 8.421875 
Q 68.453125 4.78125 72.703125 4.78125 
Q 76.859375 4.78125 79.265625 8.421875 
Q 81.6875 12.0625 81.6875 18.40625 
Q 81.6875 24.8125 79.265625 28.4375 
Q 76.859375 32.078125 72.703125 32.078125 
z
M 72.703125 38.28125 
Q 80.421875 38.28125 84.953125 32.90625 
Q 89.5 27.546875 89.5 18.40625 
Q 89.5 9.28125 84.9375 3.921875 
Q 80.375 -1.421875 72.703125 -1.421875 
Q 64.890625 -1.421875 60.34375 3.921875 
Q 55.8125 9.28125 55.8125 18.40625 
Q 55.8125 27.59375 60.375 32.9375 
Q 64.9375 38.28125 72.703125 38.28125 
z
M 22.3125 68.015625 
Q 18.109375 68.015625 15.6875 64.375 
Q 13.28125 60.75 13.28125 54.390625 
Q 13.28125 47.953125 15.671875 44.328125 
Q 18.0625 40.71875 22.3125 40.71875 
Q 26.5625 40.71875 28.96875 44.328125 
Q 31.390625 47.953125 31.390625 54.390625 
Q 31.390625 60.6875 28.953125 64.34375 
Q 26.515625 68.015625 22.3125 68.015625 
z
M 66.40625 74.21875 
L 74.21875 74.21875 
L 28.609375 -1.421875 
L 20.796875 -1.421875 
z
M 22.3125 74.21875 
Q 30.03125 74.21875 34.609375 68.875 
Q 39.203125 63.53125 39.203125 54.390625 
Q 39.203125 45.171875 34.640625 39.84375 
Q 30.078125 34.515625 22.3125 34.515625 
Q 14.546875 34.515625 10.03125 39.859375 
Q 5.515625 45.21875 5.515625 54.390625 
Q 5.515625 63.484375 10.046875 68.84375 
Q 14.59375 74.21875 22.3125 74.21875 
z
" id="DejaVuSans-37"/>
      <path d="M 30.609375 48.390625 
Q 23.390625 48.390625 19.1875 42.75 
Q 14.984375 37.109375 14.984375 27.296875 
Q 14.984375 17.484375 19.15625 11.84375 
Q 23.34375 6.203125 30.609375 6.203125 
Q 37.796875 6.203125 41.984375 11.859375 
Q 46.1875 17.53125 46.1875 27.296875 
Q 46.1875 37.015625 41.984375 42.703125 
Q 37.796875 48.390625 30.609375 48.390625 
z
M 30.609375 56 
Q 42.328125 56 49.015625 48.375 
Q 55.71875 40.765625 55.71875 27.296875 
Q 55.71875 13.875 49.015625 6.21875 
Q 42.328125 -1.421875 30.609375 -1.421875 
Q 18.84375 -1.421875 12.171875 6.21875 
Q 5.515625 13.875 5.515625 27.296875 
Q 5.515625 40.765625 12.171875 48.375 
Q 18.84375 56 30.609375 56 
z
" id="DejaVuSans-111"/>
      <path d="M 37.109375 75.984375 
L 37.109375 68.5 
L 28.515625 68.5 
Q 23.6875 68.5 21.796875 66.546875 
Q 19.921875 64.59375 19.921875 59.515625 
L 19.921875 54.6875 
L 34.71875 54.6875 
L 34.71875 47.703125 
L 19.921875 47.703125 
L 19.921875 0 
L 10.890625 0 
L 10.890625 47.703125 
L 2.296875 47.703125 
L 2.296875 54.6875 
L 10.890625 54.6875 
L 10.890625 58.5 
Q 10.890625 67.625 15.140625 71.796875 
Q 19.390625 75.984375 28.609375 75.984375 
z
" id="DejaVuSans-102"/>
      <path d="M 19.671875 64.796875 
L 19.671875 37.40625 
L 32.078125 37.40625 
Q 38.96875 37.40625 42.71875 40.96875 
Q 46.484375 44.53125 46.484375 51.125 
Q 46.484375 57.671875 42.71875 61.234375 
Q 38.96875 64.796875 32.078125 64.796875 
z
M 9.8125 72.90625 
L 32.078125 72.90625 
Q 44.34375 72.90625 50.609375 67.359375 
Q 56.890625 61.8125 56.890625 51.125 
Q 56.890625 40.328125 50.609375 34.8125 
Q 44.34375 29.296875 32.078125 29.296875 
L 19.671875 29.296875 
L 19.671875 0 
L 9.8125 0 
z
" id="DejaVuSans-80"/>
      <path d="M 41.109375 46.296875 
Q 39.59375 47.171875 37.8125 47.578125 
Q 36.03125 48 33.890625 48 
Q 26.265625 48 22.1875 43.046875 
Q 18.109375 38.09375 18.109375 28.8125 
L 18.109375 0 
L 9.078125 0 
L 9.078125 54.6875 
L 18.109375 54.6875 
L 18.109375 46.1875 
Q 20.953125 51.171875 25.484375 53.578125 
Q 30.03125 56 36.53125 56 
Q 37.453125 56 38.578125 55.875 
Q 39.703125 55.765625 41.0625 55.515625 
z
" id="DejaVuSans-114"/>
      <path d="M 18.109375 8.203125 
L 18.109375 -20.796875 
L 9.078125 -20.796875 
L 9.078125 54.6875 
L 18.109375 54.6875 
L 18.109375 46.390625 
Q 20.953125 51.265625 25.265625 53.625 
Q 29.59375 56 35.59375 56 
Q 45.5625 56 51.78125 48.09375 
Q 58.015625 40.1875 58.015625 27.296875 
Q 58.015625 14.40625 51.78125 6.484375 
Q 45.5625 -1.421875 35.59375 -1.421875 
Q 29.59375 -1.421875 25.265625 0.953125 
Q 20.953125 3.328125 18.109375 8.203125 
z
M 48.6875 27.296875 
Q 48.6875 37.203125 44.609375 42.84375 
Q 40.53125 48.484375 33.40625 48.484375 
Q 26.265625 48.484375 22.1875 42.84375 
Q 18.109375 37.203125 18.109375 27.296875 
Q 18.109375 17.390625 22.1875 11.75 
Q 26.265625 6.109375 33.40625 6.109375 
Q 40.53125 6.109375 44.609375 11.75 
Q 48.6875 17.390625 48.6875 27.296875 
z
" id="DejaVuSans-112"/>
      <path d="M 8.5 21.578125 
L 8.5 54.6875 
L 17.484375 54.6875 
L 17.484375 21.921875 
Q 17.484375 14.15625 20.5 10.265625 
Q 23.53125 6.390625 29.59375 6.390625 
Q 36.859375 6.390625 41.078125 11.03125 
Q 45.3125 15.671875 45.3125 23.6875 
L 45.3125 54.6875 
L 54.296875 54.6875 
L 54.296875 0 
L 45.3125 0 
L 45.3125 8.40625 
Q 42.046875 3.421875 37.71875 1 
Q 33.40625 -1.421875 27.6875 -1.421875 
Q 18.265625 -1.421875 13.375 4.4375 
Q 8.5 10.296875 8.5 21.578125 
z
M 31.109375 56 
z
" id="DejaVuSans-117"/>
      <path d="M 48.6875 27.296875 
Q 48.6875 37.203125 44.609375 42.84375 
Q 40.53125 48.484375 33.40625 48.484375 
Q 26.265625 48.484375 22.1875 42.84375 
Q 18.109375 37.203125 18.109375 27.296875 
Q 18.109375 17.390625 22.1875 11.75 
Q 26.265625 6.109375 33.40625 6.109375 
Q 40.53125 6.109375 44.609375 11.75 
Q 48.6875 17.390625 48.6875 27.296875 
z
M 18.109375 46.390625 
Q 20.953125 51.265625 25.265625 53.625 
Q 29.59375 56 35.59375 56 
Q 45.5625 56 51.78125 48.09375 
Q 58.015625 40.1875 58.015625 27.296875 
Q 58.015625 14.40625 51.78125 6.484375 
Q 45.5625 -1.421875 35.59375 -1.421875 
Q 29.59375 -1.421875 25.265625 0.953125 
Q 20.953125 3.328125 18.109375 8.203125 
L 18.109375 0 
L 9.078125 0 
L 9.078125 75.984375 
L 18.109375 75.984375 
z
" id="DejaVuSans-98"/>
      <path d="M 54.890625 33.015625 
L 54.890625 0 
L 45.90625 0 
L 45.90625 32.71875 
Q 45.90625 40.484375 42.875 44.328125 
Q 39.84375 48.1875 33.796875 48.1875 
Q 26.515625 48.1875 22.3125 43.546875 
Q 18.109375 38.921875 18.109375 30.90625 
L 18.109375 0 
L 9.078125 0 
L 9.078125 75.984375 
L 18.109375 75.984375 
L 18.109375 46.1875 
Q 21.34375 51.125 25.703125 53.5625 
Q 30.078125 56 35.796875 56 
Q 45.21875 56 50.046875 50.171875 
Q 54.890625 44.34375 54.890625 33.015625 
z
" id="DejaVuSans-104"/>
     </defs>
     <g style="fill:#262626;" transform="translate(294.18875 323.426277)scale(0.1152 -0.1152)">
      <use xlink:href="#DejaVuSans-84"/>
      <use x="61.037109" xlink:href="#DejaVuSans-105"/>
      <use x="88.820312" xlink:href="#DejaVuSans-109"/>
      <use x="186.232422" xlink:href="#DejaVuSans-101"/>
      <use x="247.755859" xlink:href="#DejaVuSans-32"/>
      <use x="279.542969" xlink:href="#DejaVuSans-85"/>
      <use x="352.736328" xlink:href="#DejaVuSans-110"/>
      <use x="416.115234" xlink:href="#DejaVuSans-116"/>
      <use x="455.324219" xlink:href="#DejaVuSans-105"/>
      <use x="483.107422" xlink:href="#DejaVuSans-108"/>
      <use x="510.890625" xlink:href="#DejaVuSans-32"/>
      <use x="542.677734" xlink:href="#DejaVuSans-53"/>
      <use x="606.300781" xlink:href="#DejaVuSans-48"/>
      <use x="669.923828" xlink:href="#DejaVuSans-37"/>
      <use x="764.943359" xlink:href="#DejaVuSans-32"/>
      <use x="796.730469" xlink:href="#DejaVuSans-111"/>
      <use x="857.912109" xlink:href="#DejaVuSans-102"/>
      <use x="893.117188" xlink:href="#DejaVuSans-32"/>
      <use x="924.904297" xlink:href="#DejaVuSans-80"/>
      <use x="985.191406" xlink:href="#DejaVuSans-114"/>
      <use x="1026.273438" xlink:href="#DejaVuSans-101"/>
      <use x="1087.796875" xlink:href="#DejaVuSans-112"/>
      <use x="1151.273438" xlink:href="#DejaVuSans-114"/>
      <use x="1192.386719" xlink:href="#DejaVuSans-105"/>
      <use x="1220.169922" xlink:href="#DejaVuSans-110"/>
      <use x="1283.548828" xlink:href="#DejaVuSans-116"/>
      <use x="1322.757812" xlink:href="#DejaVuSans-115"/>
      <use x="1374.857422" xlink:href="#DejaVuSans-32"/>
      <use x="1406.644531" xlink:href="#DejaVuSans-97"/>
      <use x="1467.923828" xlink:href="#DejaVuSans-114"/>
      <use x="1509.005859" xlink:href="#DejaVuSans-101"/>
      <use x="1570.529297" xlink:href="#DejaVuSans-32"/>
      <use x="1602.316406" xlink:href="#DejaVuSans-80"/>
      <use x="1662.603516" xlink:href="#DejaVuSans-117"/>
      <use x="1725.982422" xlink:href="#DejaVuSans-98"/>
      <use x="1789.458984" xlink:href="#DejaVuSans-108"/>
      <use x="1817.242188" xlink:href="#DejaVuSans-105"/>
      <use x="1845.025391" xlink:href="#DejaVuSans-115"/>
      <use x="1897.125" xlink:href="#DejaVuSans-104"/>
      <use x="1960.503906" xlink:href="#DejaVuSans-101"/>
      <use x="2022.027344" xlink:href="#DejaVuSans-100"/>
     </g>
    </g>
   </g>
   <g id="matplotlib.axis_2">
    <g id="ytick_1">
     <g id="line2d_8">
      <defs>
       <path d="M 0 0 
L -4.8 0 
" id="m4719144922" style="stroke:#262626;"/>
      </defs>
      <g>
       <use style="fill:#262626;stroke:#262626;" x="241.50995" xlink:href="#m4719144922" y="286.590819"/>
      </g>
     </g>
     <g id="text_9">
      <!-- zoology -->
      <defs>
       <path d="M 5.515625 54.6875 
L 48.1875 54.6875 
L 48.1875 46.484375 
L 14.40625 7.171875 
L 48.1875 7.171875 
L 48.1875 0 
L 4.296875 0 
L 4.296875 8.203125 
L 38.09375 47.515625 
L 5.515625 47.515625 
z
" id="DejaVuSans-122"/>
       <path d="M 45.40625 27.984375 
Q 45.40625 37.75 41.375 43.109375 
Q 37.359375 48.484375 30.078125 48.484375 
Q 22.859375 48.484375 18.828125 43.109375 
Q 14.796875 37.75 14.796875 27.984375 
Q 14.796875 18.265625 18.828125 12.890625 
Q 22.859375 7.515625 30.078125 7.515625 
Q 37.359375 7.515625 41.375 12.890625 
Q 45.40625 18.265625 45.40625 27.984375 
z
M 54.390625 6.78125 
Q 54.390625 -7.171875 48.1875 -13.984375 
Q 42 -20.796875 29.203125 -20.796875 
Q 24.46875 -20.796875 20.265625 -20.09375 
Q 16.0625 -19.390625 12.109375 -17.921875 
L 12.109375 -9.1875 
Q 16.0625 -11.328125 19.921875 -12.34375 
Q 23.78125 -13.375 27.78125 -13.375 
Q 36.625 -13.375 41.015625 -8.765625 
Q 45.40625 -4.15625 45.40625 5.171875 
L 45.40625 9.625 
Q 42.625 4.78125 38.28125 2.390625 
Q 33.9375 0 27.875 0 
Q 17.828125 0 11.671875 7.65625 
Q 5.515625 15.328125 5.515625 27.984375 
Q 5.515625 40.671875 11.671875 48.328125 
Q 17.828125 56 27.875 56 
Q 33.9375 56 38.28125 53.609375 
Q 42.625 51.21875 45.40625 46.390625 
L 45.40625 54.6875 
L 54.390625 54.6875 
z
" id="DejaVuSans-103"/>
      </defs>
      <g style="fill:#262626;" transform="translate(193.49555 290.602794)scale(0.1056 -0.1056)">
       <use xlink:href="#DejaVuSans-122"/>
       <use x="52.490234" xlink:href="#DejaVuSans-111"/>
       <use x="113.671875" xlink:href="#DejaVuSans-111"/>
       <use x="174.853516" xlink:href="#DejaVuSans-108"/>
       <use x="202.636719" xlink:href="#DejaVuSans-111"/>
       <use x="263.818359" xlink:href="#DejaVuSans-103"/>
       <use x="327.294922" xlink:href="#DejaVuSans-121"/>
      </g>
     </g>
    </g>
    <g id="ytick_2">
     <g id="line2d_9">
      <g>
       <use style="fill:#262626;stroke:#262626;" x="241.50995" xlink:href="#m4719144922" y="277.154224"/>
      </g>
     </g>
     <g id="text_10">
      <!-- systems biology -->
      <g style="fill:#262626;" transform="translate(148.8284 281.166199)scale(0.1056 -0.1056)">
       <use xlink:href="#DejaVuSans-115"/>
       <use x="52.099609" xlink:href="#DejaVuSans-121"/>
       <use x="111.279297" xlink:href="#DejaVuSans-115"/>
       <use x="163.378906" xlink:href="#DejaVuSans-116"/>
       <use x="202.587891" xlink:href="#DejaVuSans-101"/>
       <use x="264.111328" xlink:href="#DejaVuSans-109"/>
       <use x="361.523438" xlink:href="#DejaVuSans-115"/>
       <use x="413.623047" xlink:href="#DejaVuSans-32"/>
       <use x="445.410156" xlink:href="#DejaVuSans-98"/>
       <use x="508.886719" xlink:href="#DejaVuSans-105"/>
       <use x="536.669922" xlink:href="#DejaVuSans-111"/>
       <use x="597.851562" xlink:href="#DejaVuSans-108"/>
       <use x="625.634766" xlink:href="#DejaVuSans-111"/>
       <use x="686.816406" xlink:href="#DejaVuSans-103"/>
       <use x="750.292969" xlink:href="#DejaVuSans-121"/>
      </g>
     </g>
    </g>
    <g id="ytick_3">
     <g id="line2d_10">
      <g>
       <use style="fill:#262626;stroke:#262626;" x="241.50995" xlink:href="#m4719144922" y="267.717628"/>
      </g>
     </g>
     <g id="text_11">
      <!-- synthetic biology -->
      <defs>
       <path d="M 48.78125 52.59375 
L 48.78125 44.1875 
Q 44.96875 46.296875 41.140625 47.34375 
Q 37.3125 48.390625 33.40625 48.390625 
Q 24.65625 48.390625 19.8125 42.84375 
Q 14.984375 37.3125 14.984375 27.296875 
Q 14.984375 17.28125 19.8125 11.734375 
Q 24.65625 6.203125 33.40625 6.203125 
Q 37.3125 6.203125 41.140625 7.25 
Q 44.96875 8.296875 48.78125 10.40625 
L 48.78125 2.09375 
Q 45.015625 0.34375 40.984375 -0.53125 
Q 36.96875 -1.421875 32.421875 -1.421875 
Q 20.0625 -1.421875 12.78125 6.34375 
Q 5.515625 14.109375 5.515625 27.296875 
Q 5.515625 40.671875 12.859375 48.328125 
Q 20.21875 56 33.015625 56 
Q 37.15625 56 41.109375 55.140625 
Q 45.0625 54.296875 48.78125 52.59375 
z
" id="DejaVuSans-99"/>
      </defs>
      <g style="fill:#262626;" transform="translate(143.852 271.729603)scale(0.1056 -0.1056)">
       <use xlink:href="#DejaVuSans-115"/>
       <use x="52.099609" xlink:href="#DejaVuSans-121"/>
       <use x="111.279297" xlink:href="#DejaVuSans-110"/>
       <use x="174.658203" xlink:href="#DejaVuSans-116"/>
       <use x="213.867188" xlink:href="#DejaVuSans-104"/>
       <use x="277.246094" xlink:href="#DejaVuSans-101"/>
       <use x="338.769531" xlink:href="#DejaVuSans-116"/>
       <use x="377.978516" xlink:href="#DejaVuSans-105"/>
       <use x="405.761719" xlink:href="#DejaVuSans-99"/>
       <use x="460.742188" xlink:href="#DejaVuSans-32"/>
       <use x="492.529297" xlink:href="#DejaVuSans-98"/>
       <use x="556.005859" xlink:href="#DejaVuSans-105"/>
       <use x="583.789062" xlink:href="#DejaVuSans-111"/>
       <use x="644.970703" xlink:href="#DejaVuSans-108"/>
       <use x="672.753906" xlink:href="#DejaVuSans-111"/>
       <use x="733.935547" xlink:href="#DejaVuSans-103"/>
       <use x="797.412109" xlink:href="#DejaVuSans-121"/>
      </g>
     </g>
    </g>
    <g id="ytick_4">
     <g id="line2d_11">
      <g>
       <use style="fill:#262626;stroke:#262626;" x="241.50995" xlink:href="#m4719144922" y="258.281032"/>
      </g>
     </g>
     <g id="text_12">
      <!-- scientific communication and education -->
      <g style="fill:#262626;" transform="translate(23.3492 262.293007)scale(0.1056 -0.1056)">
       <use xlink:href="#DejaVuSans-115"/>
       <use x="52.099609" xlink:href="#DejaVuSans-99"/>
       <use x="107.080078" xlink:href="#DejaVuSans-105"/>
       <use x="134.863281" xlink:href="#DejaVuSans-101"/>
       <use x="196.386719" xlink:href="#DejaVuSans-110"/>
       <use x="259.765625" xlink:href="#DejaVuSans-116"/>
       <use x="298.974609" xlink:href="#DejaVuSans-105"/>
       <use x="326.757812" xlink:href="#DejaVuSans-102"/>
       <use x="361.962891" xlink:href="#DejaVuSans-105"/>
       <use x="389.746094" xlink:href="#DejaVuSans-99"/>
       <use x="444.726562" xlink:href="#DejaVuSans-32"/>
       <use x="476.513672" xlink:href="#DejaVuSans-99"/>
       <use x="531.494141" xlink:href="#DejaVuSans-111"/>
       <use x="592.675781" xlink:href="#DejaVuSans-109"/>
       <use x="690.087891" xlink:href="#DejaVuSans-109"/>
       <use x="787.5" xlink:href="#DejaVuSans-117"/>
       <use x="850.878906" xlink:href="#DejaVuSans-110"/>
       <use x="914.257812" xlink:href="#DejaVuSans-105"/>
       <use x="942.041016" xlink:href="#DejaVuSans-99"/>
       <use x="997.021484" xlink:href="#DejaVuSans-97"/>
       <use x="1058.300781" xlink:href="#DejaVuSans-116"/>
       <use x="1097.509766" xlink:href="#DejaVuSans-105"/>
       <use x="1125.292969" xlink:href="#DejaVuSans-111"/>
       <use x="1186.474609" xlink:href="#DejaVuSans-110"/>
       <use x="1249.853516" xlink:href="#DejaVuSans-32"/>
       <use x="1281.640625" xlink:href="#DejaVuSans-97"/>
       <use x="1342.919922" xlink:href="#DejaVuSans-110"/>
       <use x="1406.298828" xlink:href="#DejaVuSans-100"/>
       <use x="1469.775391" xlink:href="#DejaVuSans-32"/>
       <use x="1501.5625" xlink:href="#DejaVuSans-101"/>
       <use x="1563.085938" xlink:href="#DejaVuSans-100"/>
       <use x="1626.5625" xlink:href="#DejaVuSans-117"/>
       <use x="1689.941406" xlink:href="#DejaVuSans-99"/>
       <use x="1744.921875" xlink:href="#DejaVuSans-97"/>
       <use x="1806.201172" xlink:href="#DejaVuSans-116"/>
       <use x="1845.410156" xlink:href="#DejaVuSans-105"/>
       <use x="1873.193359" xlink:href="#DejaVuSans-111"/>
       <use x="1934.375" xlink:href="#DejaVuSans-110"/>
      </g>
     </g>
    </g>
    <g id="ytick_5">
     <g id="line2d_12">
      <g>
       <use style="fill:#262626;stroke:#262626;" x="241.50995" xlink:href="#m4719144922" y="248.844436"/>
      </g>
     </g>
     <g id="text_13">
      <!-- scientific communication -->
      <g style="fill:#262626;" transform="translate(102.3281 252.856411)scale(0.1056 -0.1056)">
       <use xlink:href="#DejaVuSans-115"/>
       <use x="52.099609" xlink:href="#DejaVuSans-99"/>
       <use x="107.080078" xlink:href="#DejaVuSans-105"/>
       <use x="134.863281" xlink:href="#DejaVuSans-101"/>
       <use x="196.386719" xlink:href="#DejaVuSans-110"/>
       <use x="259.765625" xlink:href="#DejaVuSans-116"/>
       <use x="298.974609" xlink:href="#DejaVuSans-105"/>
       <use x="326.757812" xlink:href="#DejaVuSans-102"/>
       <use x="361.962891" xlink:href="#DejaVuSans-105"/>
       <use x="389.746094" xlink:href="#DejaVuSans-99"/>
       <use x="444.726562" xlink:href="#DejaVuSans-32"/>
       <use x="476.513672" xlink:href="#DejaVuSans-99"/>
       <use x="531.494141" xlink:href="#DejaVuSans-111"/>
       <use x="592.675781" xlink:href="#DejaVuSans-109"/>
       <use x="690.087891" xlink:href="#DejaVuSans-109"/>
       <use x="787.5" xlink:href="#DejaVuSans-117"/>
       <use x="850.878906" xlink:href="#DejaVuSans-110"/>
       <use x="914.257812" xlink:href="#DejaVuSans-105"/>
       <use x="942.041016" xlink:href="#DejaVuSans-99"/>
       <use x="997.021484" xlink:href="#DejaVuSans-97"/>
       <use x="1058.300781" xlink:href="#DejaVuSans-116"/>
       <use x="1097.509766" xlink:href="#DejaVuSans-105"/>
       <use x="1125.292969" xlink:href="#DejaVuSans-111"/>
       <use x="1186.474609" xlink:href="#DejaVuSans-110"/>
      </g>
     </g>
    </g>
    <g id="ytick_6">
     <g id="line2d_13">
      <g>
       <use style="fill:#262626;stroke:#262626;" x="241.50995" xlink:href="#m4719144922" y="239.407841"/>
      </g>
     </g>
     <g id="text_14">
      <!-- plant biology -->
      <g style="fill:#262626;" transform="translate(165.56435 243.419816)scale(0.1056 -0.1056)">
       <use xlink:href="#DejaVuSans-112"/>
       <use x="63.476562" xlink:href="#DejaVuSans-108"/>
       <use x="91.259766" xlink:href="#DejaVuSans-97"/>
       <use x="152.539062" xlink:href="#DejaVuSans-110"/>
       <use x="215.917969" xlink:href="#DejaVuSans-116"/>
       <use x="255.126953" xlink:href="#DejaVuSans-32"/>
       <use x="286.914062" xlink:href="#DejaVuSans-98"/>
       <use x="350.390625" xlink:href="#DejaVuSans-105"/>
       <use x="378.173828" xlink:href="#DejaVuSans-111"/>
       <use x="439.355469" xlink:href="#DejaVuSans-108"/>
       <use x="467.138672" xlink:href="#DejaVuSans-111"/>
       <use x="528.320312" xlink:href="#DejaVuSans-103"/>
       <use x="591.796875" xlink:href="#DejaVuSans-121"/>
      </g>
     </g>
    </g>
    <g id="ytick_7">
     <g id="line2d_14">
      <g>
       <use style="fill:#262626;stroke:#262626;" x="241.50995" xlink:href="#m4719144922" y="229.971245"/>
      </g>
     </g>
     <g id="text_15">
      <!-- physiology -->
      <g style="fill:#262626;" transform="translate(177.41795 233.98322)scale(0.1056 -0.1056)">
       <use xlink:href="#DejaVuSans-112"/>
       <use x="63.476562" xlink:href="#DejaVuSans-104"/>
       <use x="126.855469" xlink:href="#DejaVuSans-121"/>
       <use x="186.035156" xlink:href="#DejaVuSans-115"/>
       <use x="238.134766" xlink:href="#DejaVuSans-105"/>
       <use x="265.917969" xlink:href="#DejaVuSans-111"/>
       <use x="327.099609" xlink:href="#DejaVuSans-108"/>
       <use x="354.882812" xlink:href="#DejaVuSans-111"/>
       <use x="416.064453" xlink:href="#DejaVuSans-103"/>
       <use x="479.541016" xlink:href="#DejaVuSans-121"/>
      </g>
     </g>
    </g>
    <g id="ytick_8">
     <g id="line2d_15">
      <g>
       <use style="fill:#262626;stroke:#262626;" x="241.50995" xlink:href="#m4719144922" y="220.534649"/>
      </g>
     </g>
     <g id="text_16">
      <!-- pharmacology -->
      <g style="fill:#262626;" transform="translate(158.7284 224.546624)scale(0.1056 -0.1056)">
       <use xlink:href="#DejaVuSans-112"/>
       <use x="63.476562" xlink:href="#DejaVuSans-104"/>
       <use x="126.855469" xlink:href="#DejaVuSans-97"/>
       <use x="188.134766" xlink:href="#DejaVuSans-114"/>
       <use x="229.232422" xlink:href="#DejaVuSans-109"/>
       <use x="326.644531" xlink:href="#DejaVuSans-97"/>
       <use x="387.923828" xlink:href="#DejaVuSans-99"/>
       <use x="442.904297" xlink:href="#DejaVuSans-111"/>
       <use x="504.085938" xlink:href="#DejaVuSans-108"/>
       <use x="531.869141" xlink:href="#DejaVuSans-111"/>
       <use x="593.050781" xlink:href="#DejaVuSans-103"/>
       <use x="656.527344" xlink:href="#DejaVuSans-121"/>
      </g>
     </g>
    </g>
    <g id="ytick_9">
     <g id="line2d_16">
      <g>
       <use style="fill:#262626;stroke:#262626;" x="241.50995" xlink:href="#m4719144922" y="211.098053"/>
      </g>
     </g>
     <g id="text_17">
      <!-- pathology -->
      <g style="fill:#262626;" transform="translate(181.4918 215.110028)scale(0.1056 -0.1056)">
       <use xlink:href="#DejaVuSans-112"/>
       <use x="63.476562" xlink:href="#DejaVuSans-97"/>
       <use x="124.755859" xlink:href="#DejaVuSans-116"/>
       <use x="163.964844" xlink:href="#DejaVuSans-104"/>
       <use x="227.34375" xlink:href="#DejaVuSans-111"/>
       <use x="288.525391" xlink:href="#DejaVuSans-108"/>
       <use x="316.308594" xlink:href="#DejaVuSans-111"/>
       <use x="377.490234" xlink:href="#DejaVuSans-103"/>
       <use x="440.966797" xlink:href="#DejaVuSans-121"/>
      </g>
     </g>
    </g>
    <g id="ytick_10">
     <g id="line2d_17">
      <g>
       <use style="fill:#262626;stroke:#262626;" x="241.50995" xlink:href="#m4719144922" y="201.661458"/>
      </g>
     </g>
     <g id="text_18">
      <!-- paleontology -->
      <g style="fill:#262626;" transform="translate(165.599 205.673433)scale(0.1056 -0.1056)">
       <use xlink:href="#DejaVuSans-112"/>
       <use x="63.476562" xlink:href="#DejaVuSans-97"/>
       <use x="124.755859" xlink:href="#DejaVuSans-108"/>
       <use x="152.539062" xlink:href="#DejaVuSans-101"/>
       <use x="214.0625" xlink:href="#DejaVuSans-111"/>
       <use x="275.244141" xlink:href="#DejaVuSans-110"/>
       <use x="338.623047" xlink:href="#DejaVuSans-116"/>
       <use x="377.832031" xlink:href="#DejaVuSans-111"/>
       <use x="439.013672" xlink:href="#DejaVuSans-108"/>
       <use x="466.796875" xlink:href="#DejaVuSans-111"/>
       <use x="527.978516" xlink:href="#DejaVuSans-103"/>
       <use x="591.455078" xlink:href="#DejaVuSans-121"/>
      </g>
     </g>
    </g>
    <g id="ytick_11">
     <g id="line2d_18">
      <g>
       <use style="fill:#262626;stroke:#262626;" x="241.50995" xlink:href="#m4719144922" y="192.224862"/>
      </g>
     </g>
     <g id="text_19">
      <!-- neuroscience -->
      <g style="fill:#262626;" transform="translate(163.8929 196.236837)scale(0.1056 -0.1056)">
       <use xlink:href="#DejaVuSans-110"/>
       <use x="63.378906" xlink:href="#DejaVuSans-101"/>
       <use x="124.902344" xlink:href="#DejaVuSans-117"/>
       <use x="188.28125" xlink:href="#DejaVuSans-114"/>
       <use x="229.363281" xlink:href="#DejaVuSans-111"/>
       <use x="290.544922" xlink:href="#DejaVuSans-115"/>
       <use x="342.644531" xlink:href="#DejaVuSans-99"/>
       <use x="397.625" xlink:href="#DejaVuSans-105"/>
       <use x="425.408203" xlink:href="#DejaVuSans-101"/>
       <use x="486.931641" xlink:href="#DejaVuSans-110"/>
       <use x="550.310547" xlink:href="#DejaVuSans-99"/>
       <use x="605.291016" xlink:href="#DejaVuSans-101"/>
      </g>
     </g>
    </g>
    <g id="ytick_12">
     <g id="line2d_19">
      <g>
       <use style="fill:#262626;stroke:#262626;" x="241.50995" xlink:href="#m4719144922" y="182.788266"/>
      </g>
     </g>
     <g id="text_20">
      <!-- molecular biology -->
      <g style="fill:#262626;" transform="translate(140.08175 186.800241)scale(0.1056 -0.1056)">
       <use xlink:href="#DejaVuSans-109"/>
       <use x="97.412109" xlink:href="#DejaVuSans-111"/>
       <use x="158.59375" xlink:href="#DejaVuSans-108"/>
       <use x="186.376953" xlink:href="#DejaVuSans-101"/>
       <use x="247.900391" xlink:href="#DejaVuSans-99"/>
       <use x="302.880859" xlink:href="#DejaVuSans-117"/>
       <use x="366.259766" xlink:href="#DejaVuSans-108"/>
       <use x="394.042969" xlink:href="#DejaVuSans-97"/>
       <use x="455.322266" xlink:href="#DejaVuSans-114"/>
       <use x="496.435547" xlink:href="#DejaVuSans-32"/>
       <use x="528.222656" xlink:href="#DejaVuSans-98"/>
       <use x="591.699219" xlink:href="#DejaVuSans-105"/>
       <use x="619.482422" xlink:href="#DejaVuSans-111"/>
       <use x="680.664062" xlink:href="#DejaVuSans-108"/>
       <use x="708.447266" xlink:href="#DejaVuSans-111"/>
       <use x="769.628906" xlink:href="#DejaVuSans-103"/>
       <use x="833.105469" xlink:href="#DejaVuSans-121"/>
      </g>
     </g>
    </g>
    <g id="ytick_13">
     <g id="line2d_20">
      <g>
       <use style="fill:#262626;stroke:#262626;" x="241.50995" xlink:href="#m4719144922" y="173.35167"/>
      </g>
     </g>
     <g id="text_21">
      <!-- microbiology -->
      <g style="fill:#262626;" transform="translate(166.03625 177.363645)scale(0.1056 -0.1056)">
       <use xlink:href="#DejaVuSans-109"/>
       <use x="97.412109" xlink:href="#DejaVuSans-105"/>
       <use x="125.195312" xlink:href="#DejaVuSans-99"/>
       <use x="180.175781" xlink:href="#DejaVuSans-114"/>
       <use x="221.257812" xlink:href="#DejaVuSans-111"/>
       <use x="282.439453" xlink:href="#DejaVuSans-98"/>
       <use x="345.916016" xlink:href="#DejaVuSans-105"/>
       <use x="373.699219" xlink:href="#DejaVuSans-111"/>
       <use x="434.880859" xlink:href="#DejaVuSans-108"/>
       <use x="462.664062" xlink:href="#DejaVuSans-111"/>
       <use x="523.845703" xlink:href="#DejaVuSans-103"/>
       <use x="587.322266" xlink:href="#DejaVuSans-121"/>
      </g>
     </g>
    </g>
    <g id="ytick_14">
     <g id="line2d_21">
      <g>
       <use style="fill:#262626;stroke:#262626;" x="241.50995" xlink:href="#m4719144922" y="163.915075"/>
      </g>
     </g>
     <g id="text_22">
      <!-- immunology -->
      <g style="fill:#262626;" transform="translate(168.6086 167.92705)scale(0.1056 -0.1056)">
       <use xlink:href="#DejaVuSans-105"/>
       <use x="27.783203" xlink:href="#DejaVuSans-109"/>
       <use x="125.195312" xlink:href="#DejaVuSans-109"/>
       <use x="222.607422" xlink:href="#DejaVuSans-117"/>
       <use x="285.986328" xlink:href="#DejaVuSans-110"/>
       <use x="349.365234" xlink:href="#DejaVuSans-111"/>
       <use x="410.546875" xlink:href="#DejaVuSans-108"/>
       <use x="438.330078" xlink:href="#DejaVuSans-111"/>
       <use x="499.511719" xlink:href="#DejaVuSans-103"/>
       <use x="562.988281" xlink:href="#DejaVuSans-121"/>
      </g>
     </g>
    </g>
    <g id="ytick_15">
     <g id="line2d_22">
      <g>
       <use style="fill:#262626;stroke:#262626;" x="241.50995" xlink:href="#m4719144922" y="154.478479"/>
      </g>
     </g>
     <g id="text_23">
      <!-- genomics -->
      <g style="fill:#262626;" transform="translate(183.42725 158.490454)scale(0.1056 -0.1056)">
       <use xlink:href="#DejaVuSans-103"/>
       <use x="63.476562" xlink:href="#DejaVuSans-101"/>
       <use x="125" xlink:href="#DejaVuSans-110"/>
       <use x="188.378906" xlink:href="#DejaVuSans-111"/>
       <use x="249.560547" xlink:href="#DejaVuSans-109"/>
       <use x="346.972656" xlink:href="#DejaVuSans-105"/>
       <use x="374.755859" xlink:href="#DejaVuSans-99"/>
       <use x="429.736328" xlink:href="#DejaVuSans-115"/>
      </g>
     </g>
    </g>
    <g id="ytick_16">
     <g id="line2d_23">
      <g>
       <use style="fill:#262626;stroke:#262626;" x="241.50995" xlink:href="#m4719144922" y="145.041883"/>
      </g>
     </g>
     <g id="text_24">
      <!-- genetics -->
      <g style="fill:#262626;" transform="translate(189.5372 149.053858)scale(0.1056 -0.1056)">
       <use xlink:href="#DejaVuSans-103"/>
       <use x="63.476562" xlink:href="#DejaVuSans-101"/>
       <use x="125" xlink:href="#DejaVuSans-110"/>
       <use x="188.378906" xlink:href="#DejaVuSans-101"/>
       <use x="249.902344" xlink:href="#DejaVuSans-116"/>
       <use x="289.111328" xlink:href="#DejaVuSans-105"/>
       <use x="316.894531" xlink:href="#DejaVuSans-99"/>
       <use x="371.875" xlink:href="#DejaVuSans-115"/>
      </g>
     </g>
    </g>
    <g id="ytick_17">
     <g id="line2d_24">
      <g>
       <use style="fill:#262626;stroke:#262626;" x="241.50995" xlink:href="#m4719144922" y="135.605287"/>
      </g>
     </g>
     <g id="text_25">
      <!-- evolutionary biology -->
      <defs>
       <path d="M 2.984375 54.6875 
L 12.5 54.6875 
L 29.59375 8.796875 
L 46.6875 54.6875 
L 56.203125 54.6875 
L 35.6875 0 
L 23.484375 0 
z
" id="DejaVuSans-118"/>
      </defs>
      <g style="fill:#262626;" transform="translate(126.38015 139.617262)scale(0.1056 -0.1056)">
       <use xlink:href="#DejaVuSans-101"/>
       <use x="61.523438" xlink:href="#DejaVuSans-118"/>
       <use x="120.703125" xlink:href="#DejaVuSans-111"/>
       <use x="181.884766" xlink:href="#DejaVuSans-108"/>
       <use x="209.667969" xlink:href="#DejaVuSans-117"/>
       <use x="273.046875" xlink:href="#DejaVuSans-116"/>
       <use x="312.255859" xlink:href="#DejaVuSans-105"/>
       <use x="340.039062" xlink:href="#DejaVuSans-111"/>
       <use x="401.220703" xlink:href="#DejaVuSans-110"/>
       <use x="464.599609" xlink:href="#DejaVuSans-97"/>
       <use x="525.878906" xlink:href="#DejaVuSans-114"/>
       <use x="566.992188" xlink:href="#DejaVuSans-121"/>
       <use x="626.171875" xlink:href="#DejaVuSans-32"/>
       <use x="657.958984" xlink:href="#DejaVuSans-98"/>
       <use x="721.435547" xlink:href="#DejaVuSans-105"/>
       <use x="749.21875" xlink:href="#DejaVuSans-111"/>
       <use x="810.400391" xlink:href="#DejaVuSans-108"/>
       <use x="838.183594" xlink:href="#DejaVuSans-111"/>
       <use x="899.365234" xlink:href="#DejaVuSans-103"/>
       <use x="962.841797" xlink:href="#DejaVuSans-121"/>
      </g>
     </g>
    </g>
    <g id="ytick_18">
     <g id="line2d_25">
      <g>
       <use style="fill:#262626;stroke:#262626;" x="241.50995" xlink:href="#m4719144922" y="126.168692"/>
      </g>
     </g>
     <g id="text_26">
      <!-- epidemiology -->
      <g style="fill:#262626;" transform="translate(162.9425 130.180667)scale(0.1056 -0.1056)">
       <use xlink:href="#DejaVuSans-101"/>
       <use x="61.523438" xlink:href="#DejaVuSans-112"/>
       <use x="125" xlink:href="#DejaVuSans-105"/>
       <use x="152.783203" xlink:href="#DejaVuSans-100"/>
       <use x="216.259766" xlink:href="#DejaVuSans-101"/>
       <use x="277.783203" xlink:href="#DejaVuSans-109"/>
       <use x="375.195312" xlink:href="#DejaVuSans-105"/>
       <use x="402.978516" xlink:href="#DejaVuSans-111"/>
       <use x="464.160156" xlink:href="#DejaVuSans-108"/>
       <use x="491.943359" xlink:href="#DejaVuSans-111"/>
       <use x="553.125" xlink:href="#DejaVuSans-103"/>
       <use x="616.601562" xlink:href="#DejaVuSans-121"/>
      </g>
     </g>
    </g>
    <g id="ytick_19">
     <g id="line2d_26">
      <g>
       <use style="fill:#262626;stroke:#262626;" x="241.50995" xlink:href="#m4719144922" y="116.732096"/>
      </g>
     </g>
     <g id="text_27">
      <!-- ecology -->
      <g style="fill:#262626;" transform="translate(193.19525 120.744071)scale(0.1056 -0.1056)">
       <use xlink:href="#DejaVuSans-101"/>
       <use x="61.523438" xlink:href="#DejaVuSans-99"/>
       <use x="116.503906" xlink:href="#DejaVuSans-111"/>
       <use x="177.685547" xlink:href="#DejaVuSans-108"/>
       <use x="205.46875" xlink:href="#DejaVuSans-111"/>
       <use x="266.650391" xlink:href="#DejaVuSans-103"/>
       <use x="330.126953" xlink:href="#DejaVuSans-121"/>
      </g>
     </g>
    </g>
    <g id="ytick_20">
     <g id="line2d_27">
      <g>
       <use style="fill:#262626;stroke:#262626;" x="241.50995" xlink:href="#m4719144922" y="107.2955"/>
      </g>
     </g>
     <g id="text_28">
      <!-- developmental biology -->
      <g style="fill:#262626;" transform="translate(113.4359 111.307475)scale(0.1056 -0.1056)">
       <use xlink:href="#DejaVuSans-100"/>
       <use x="63.476562" xlink:href="#DejaVuSans-101"/>
       <use x="125" xlink:href="#DejaVuSans-118"/>
       <use x="184.179688" xlink:href="#DejaVuSans-101"/>
       <use x="245.703125" xlink:href="#DejaVuSans-108"/>
       <use x="273.486328" xlink:href="#DejaVuSans-111"/>
       <use x="334.667969" xlink:href="#DejaVuSans-112"/>
       <use x="398.144531" xlink:href="#DejaVuSans-109"/>
       <use x="495.556641" xlink:href="#DejaVuSans-101"/>
       <use x="557.080078" xlink:href="#DejaVuSans-110"/>
       <use x="620.458984" xlink:href="#DejaVuSans-116"/>
       <use x="659.667969" xlink:href="#DejaVuSans-97"/>
       <use x="720.947266" xlink:href="#DejaVuSans-108"/>
       <use x="748.730469" xlink:href="#DejaVuSans-32"/>
       <use x="780.517578" xlink:href="#DejaVuSans-98"/>
       <use x="843.994141" xlink:href="#DejaVuSans-105"/>
       <use x="871.777344" xlink:href="#DejaVuSans-111"/>
       <use x="932.958984" xlink:href="#DejaVuSans-108"/>
       <use x="960.742188" xlink:href="#DejaVuSans-111"/>
       <use x="1021.923828" xlink:href="#DejaVuSans-103"/>
       <use x="1085.400391" xlink:href="#DejaVuSans-121"/>
      </g>
     </g>
    </g>
    <g id="ytick_21">
     <g id="line2d_28">
      <g>
       <use style="fill:#262626;stroke:#262626;" x="241.50995" xlink:href="#m4719144922" y="97.858904"/>
      </g>
     </g>
     <g id="text_29">
      <!-- clinical trials -->
      <g style="fill:#262626;" transform="translate(168.12185 101.870879)scale(0.1056 -0.1056)">
       <use xlink:href="#DejaVuSans-99"/>
       <use x="54.980469" xlink:href="#DejaVuSans-108"/>
       <use x="82.763672" xlink:href="#DejaVuSans-105"/>
       <use x="110.546875" xlink:href="#DejaVuSans-110"/>
       <use x="173.925781" xlink:href="#DejaVuSans-105"/>
       <use x="201.708984" xlink:href="#DejaVuSans-99"/>
       <use x="256.689453" xlink:href="#DejaVuSans-97"/>
       <use x="317.96875" xlink:href="#DejaVuSans-108"/>
       <use x="345.751953" xlink:href="#DejaVuSans-32"/>
       <use x="377.539062" xlink:href="#DejaVuSans-116"/>
       <use x="416.748047" xlink:href="#DejaVuSans-114"/>
       <use x="457.861328" xlink:href="#DejaVuSans-105"/>
       <use x="485.644531" xlink:href="#DejaVuSans-97"/>
       <use x="546.923828" xlink:href="#DejaVuSans-108"/>
       <use x="574.707031" xlink:href="#DejaVuSans-115"/>
      </g>
     </g>
    </g>
    <g id="ytick_22">
     <g id="line2d_29">
      <g>
       <use style="fill:#262626;stroke:#262626;" x="241.50995" xlink:href="#m4719144922" y="88.422309"/>
      </g>
     </g>
     <g id="text_30">
      <!-- cell biology -->
      <g style="fill:#262626;" transform="translate(174.3341 92.434284)scale(0.1056 -0.1056)">
       <use xlink:href="#DejaVuSans-99"/>
       <use x="54.980469" xlink:href="#DejaVuSans-101"/>
       <use x="116.503906" xlink:href="#DejaVuSans-108"/>
       <use x="144.287109" xlink:href="#DejaVuSans-108"/>
       <use x="172.070312" xlink:href="#DejaVuSans-32"/>
       <use x="203.857422" xlink:href="#DejaVuSans-98"/>
       <use x="267.333984" xlink:href="#DejaVuSans-105"/>
       <use x="295.117188" xlink:href="#DejaVuSans-111"/>
       <use x="356.298828" xlink:href="#DejaVuSans-108"/>
       <use x="384.082031" xlink:href="#DejaVuSans-111"/>
       <use x="445.263672" xlink:href="#DejaVuSans-103"/>
       <use x="508.740234" xlink:href="#DejaVuSans-121"/>
      </g>
     </g>
    </g>
    <g id="ytick_23">
     <g id="line2d_30">
      <g>
       <use style="fill:#262626;stroke:#262626;" x="241.50995" xlink:href="#m4719144922" y="78.985713"/>
      </g>
     </g>
     <g id="text_31">
      <!-- cancer biology -->
      <g style="fill:#262626;" transform="translate(156.8903 82.997688)scale(0.1056 -0.1056)">
       <use xlink:href="#DejaVuSans-99"/>
       <use x="54.980469" xlink:href="#DejaVuSans-97"/>
       <use x="116.259766" xlink:href="#DejaVuSans-110"/>
       <use x="179.638672" xlink:href="#DejaVuSans-99"/>
       <use x="234.619141" xlink:href="#DejaVuSans-101"/>
       <use x="296.142578" xlink:href="#DejaVuSans-114"/>
       <use x="337.255859" xlink:href="#DejaVuSans-32"/>
       <use x="369.042969" xlink:href="#DejaVuSans-98"/>
       <use x="432.519531" xlink:href="#DejaVuSans-105"/>
       <use x="460.302734" xlink:href="#DejaVuSans-111"/>
       <use x="521.484375" xlink:href="#DejaVuSans-108"/>
       <use x="549.267578" xlink:href="#DejaVuSans-111"/>
       <use x="610.449219" xlink:href="#DejaVuSans-103"/>
       <use x="673.925781" xlink:href="#DejaVuSans-121"/>
      </g>
     </g>
    </g>
    <g id="ytick_24">
     <g id="line2d_31">
      <g>
       <use style="fill:#262626;stroke:#262626;" x="241.50995" xlink:href="#m4719144922" y="69.549117"/>
      </g>
     </g>
     <g id="text_32">
      <!-- biophysics -->
      <g style="fill:#262626;" transform="translate(178.8221 73.561092)scale(0.1056 -0.1056)">
       <use xlink:href="#DejaVuSans-98"/>
       <use x="63.476562" xlink:href="#DejaVuSans-105"/>
       <use x="91.259766" xlink:href="#DejaVuSans-111"/>
       <use x="152.441406" xlink:href="#DejaVuSans-112"/>
       <use x="215.917969" xlink:href="#DejaVuSans-104"/>
       <use x="279.296875" xlink:href="#DejaVuSans-121"/>
       <use x="338.476562" xlink:href="#DejaVuSans-115"/>
       <use x="390.576172" xlink:href="#DejaVuSans-105"/>
       <use x="418.359375" xlink:href="#DejaVuSans-99"/>
       <use x="473.339844" xlink:href="#DejaVuSans-115"/>
      </g>
     </g>
    </g>
    <g id="ytick_25">
     <g id="line2d_32">
      <g>
       <use style="fill:#262626;stroke:#262626;" x="241.50995" xlink:href="#m4719144922" y="60.112522"/>
      </g>
     </g>
     <g id="text_33">
      <!-- bioinformatics -->
      <g style="fill:#262626;" transform="translate(158.92805 64.124497)scale(0.1056 -0.1056)">
       <use xlink:href="#DejaVuSans-98"/>
       <use x="63.476562" xlink:href="#DejaVuSans-105"/>
       <use x="91.259766" xlink:href="#DejaVuSans-111"/>
       <use x="152.441406" xlink:href="#DejaVuSans-105"/>
       <use x="180.224609" xlink:href="#DejaVuSans-110"/>
       <use x="243.603516" xlink:href="#DejaVuSans-102"/>
       <use x="278.808594" xlink:href="#DejaVuSans-111"/>
       <use x="339.990234" xlink:href="#DejaVuSans-114"/>
       <use x="381.087891" xlink:href="#DejaVuSans-109"/>
       <use x="478.5" xlink:href="#DejaVuSans-97"/>
       <use x="539.779297" xlink:href="#DejaVuSans-116"/>
       <use x="578.988281" xlink:href="#DejaVuSans-105"/>
       <use x="606.771484" xlink:href="#DejaVuSans-99"/>
       <use x="661.751953" xlink:href="#DejaVuSans-115"/>
      </g>
     </g>
    </g>
    <g id="ytick_26">
     <g id="line2d_33">
      <g>
       <use style="fill:#262626;stroke:#262626;" x="241.50995" xlink:href="#m4719144922" y="50.675926"/>
      </g>
     </g>
     <g id="text_34">
      <!-- bioengineering -->
      <g style="fill:#262626;" transform="translate(155.02415 54.687901)scale(0.1056 -0.1056)">
       <use xlink:href="#DejaVuSans-98"/>
       <use x="63.476562" xlink:href="#DejaVuSans-105"/>
       <use x="91.259766" xlink:href="#DejaVuSans-111"/>
       <use x="152.441406" xlink:href="#DejaVuSans-101"/>
       <use x="213.964844" xlink:href="#DejaVuSans-110"/>
       <use x="277.34375" xlink:href="#DejaVuSans-103"/>
       <use x="340.820312" xlink:href="#DejaVuSans-105"/>
       <use x="368.603516" xlink:href="#DejaVuSans-110"/>
       <use x="431.982422" xlink:href="#DejaVuSans-101"/>
       <use x="493.505859" xlink:href="#DejaVuSans-101"/>
       <use x="555.029297" xlink:href="#DejaVuSans-114"/>
       <use x="596.142578" xlink:href="#DejaVuSans-105"/>
       <use x="623.925781" xlink:href="#DejaVuSans-110"/>
       <use x="687.304688" xlink:href="#DejaVuSans-103"/>
      </g>
     </g>
    </g>
    <g id="ytick_27">
     <g id="line2d_34">
      <g>
       <use style="fill:#262626;stroke:#262626;" x="241.50995" xlink:href="#m4719144922" y="41.23933"/>
      </g>
     </g>
     <g id="text_35">
      <!-- biochemistry -->
      <g style="fill:#262626;" transform="translate(165.76235 45.251305)scale(0.1056 -0.1056)">
       <use xlink:href="#DejaVuSans-98"/>
       <use x="63.476562" xlink:href="#DejaVuSans-105"/>
       <use x="91.259766" xlink:href="#DejaVuSans-111"/>
       <use x="152.441406" xlink:href="#DejaVuSans-99"/>
       <use x="207.421875" xlink:href="#DejaVuSans-104"/>
       <use x="270.800781" xlink:href="#DejaVuSans-101"/>
       <use x="332.324219" xlink:href="#DejaVuSans-109"/>
       <use x="429.736328" xlink:href="#DejaVuSans-105"/>
       <use x="457.519531" xlink:href="#DejaVuSans-115"/>
       <use x="509.619141" xlink:href="#DejaVuSans-116"/>
       <use x="548.828125" xlink:href="#DejaVuSans-114"/>
       <use x="589.941406" xlink:href="#DejaVuSans-121"/>
      </g>
     </g>
    </g>
    <g id="ytick_28">
     <g id="line2d_35">
      <g>
       <use style="fill:#262626;stroke:#262626;" x="241.50995" xlink:href="#m4719144922" y="31.802734"/>
      </g>
     </g>
     <g id="text_36">
      <!-- animal behavior and cognition -->
      <g style="fill:#262626;" transform="translate(73.40855 35.814709)scale(0.1056 -0.1056)">
       <use xlink:href="#DejaVuSans-97"/>
       <use x="61.279297" xlink:href="#DejaVuSans-110"/>
       <use x="124.658203" xlink:href="#DejaVuSans-105"/>
       <use x="152.441406" xlink:href="#DejaVuSans-109"/>
       <use x="249.853516" xlink:href="#DejaVuSans-97"/>
       <use x="311.132812" xlink:href="#DejaVuSans-108"/>
       <use x="338.916016" xlink:href="#DejaVuSans-32"/>
       <use x="370.703125" xlink:href="#DejaVuSans-98"/>
       <use x="434.179688" xlink:href="#DejaVuSans-101"/>
       <use x="495.703125" xlink:href="#DejaVuSans-104"/>
       <use x="559.082031" xlink:href="#DejaVuSans-97"/>
       <use x="620.361328" xlink:href="#DejaVuSans-118"/>
       <use x="679.541016" xlink:href="#DejaVuSans-105"/>
       <use x="707.324219" xlink:href="#DejaVuSans-111"/>
       <use x="768.505859" xlink:href="#DejaVuSans-114"/>
       <use x="809.619141" xlink:href="#DejaVuSans-32"/>
       <use x="841.40625" xlink:href="#DejaVuSans-97"/>
       <use x="902.685547" xlink:href="#DejaVuSans-110"/>
       <use x="966.064453" xlink:href="#DejaVuSans-100"/>
       <use x="1029.541016" xlink:href="#DejaVuSans-32"/>
       <use x="1061.328125" xlink:href="#DejaVuSans-99"/>
       <use x="1116.308594" xlink:href="#DejaVuSans-111"/>
       <use x="1177.490234" xlink:href="#DejaVuSans-103"/>
       <use x="1240.966797" xlink:href="#DejaVuSans-110"/>
       <use x="1304.345703" xlink:href="#DejaVuSans-105"/>
       <use x="1332.128906" xlink:href="#DejaVuSans-116"/>
       <use x="1371.337891" xlink:href="#DejaVuSans-105"/>
       <use x="1399.121094" xlink:href="#DejaVuSans-111"/>
       <use x="1460.302734" xlink:href="#DejaVuSans-110"/>
      </g>
     </g>
    </g>
    <g id="text_37">
     <!-- Preprint Categories -->
     <defs>
      <path d="M 64.40625 67.28125 
L 64.40625 56.890625 
Q 59.421875 61.53125 53.78125 63.8125 
Q 48.140625 66.109375 41.796875 66.109375 
Q 29.296875 66.109375 22.65625 58.46875 
Q 16.015625 50.828125 16.015625 36.375 
Q 16.015625 21.96875 22.65625 14.328125 
Q 29.296875 6.6875 41.796875 6.6875 
Q 48.140625 6.6875 53.78125 8.984375 
Q 59.421875 11.28125 64.40625 15.921875 
L 64.40625 5.609375 
Q 59.234375 2.09375 53.4375 0.328125 
Q 47.65625 -1.421875 41.21875 -1.421875 
Q 24.65625 -1.421875 15.125 8.703125 
Q 5.609375 18.84375 5.609375 36.375 
Q 5.609375 53.953125 15.125 64.078125 
Q 24.65625 74.21875 41.21875 74.21875 
Q 47.75 74.21875 53.53125 72.484375 
Q 59.328125 70.75 64.40625 67.28125 
z
" id="DejaVuSans-67"/>
     </defs>
     <g style="fill:#262626;" transform="translate(15.9534 213.263377)rotate(-90)scale(0.1152 -0.1152)">
      <use xlink:href="#DejaVuSans-80"/>
      <use x="60.287109" xlink:href="#DejaVuSans-114"/>
      <use x="101.369141" xlink:href="#DejaVuSans-101"/>
      <use x="162.892578" xlink:href="#DejaVuSans-112"/>
      <use x="226.369141" xlink:href="#DejaVuSans-114"/>
      <use x="267.482422" xlink:href="#DejaVuSans-105"/>
      <use x="295.265625" xlink:href="#DejaVuSans-110"/>
      <use x="358.644531" xlink:href="#DejaVuSans-116"/>
      <use x="397.853516" xlink:href="#DejaVuSans-32"/>
      <use x="429.640625" xlink:href="#DejaVuSans-67"/>
      <use x="499.464844" xlink:href="#DejaVuSans-97"/>
      <use x="560.744141" xlink:href="#DejaVuSans-116"/>
      <use x="599.953125" xlink:href="#DejaVuSans-101"/>
      <use x="661.476562" xlink:href="#DejaVuSans-103"/>
      <use x="724.953125" xlink:href="#DejaVuSans-111"/>
      <use x="786.134766" xlink:href="#DejaVuSans-114"/>
      <use x="827.248047" xlink:href="#DejaVuSans-105"/>
      <use x="855.03125" xlink:href="#DejaVuSans-101"/>
      <use x="916.554688" xlink:href="#DejaVuSans-115"/>
     </g>
    </g>
   </g>
   <g id="PolyCollection_1">
    <path clip-path="url(#pe3cc8e237f)" d="M 257.742677 290.837287 
L 257.742677 282.344351 
L 375.244993 282.344351 
L 375.244993 290.837287 
z
" style="fill:#41b6c4;"/>
    <path clip-path="url(#pe3cc8e237f)" d="M 257.742677 281.400692 
L 257.742677 272.907756 
L 437.042507 272.907756 
L 437.042507 281.400692 
z
" style="fill:#41b6c4;"/>
    <path clip-path="url(#pe3cc8e237f)" d="M 257.742677 271.964096 
L 257.742677 263.47116 
L 403.967781 263.47116 
L 403.967781 271.964096 
z
" style="fill:#41b6c4;"/>
    <path clip-path="url(#pe3cc8e237f)" d="M 257.742677 262.5275 
L 257.742677 254.034564 
L 582.397223 254.034564 
L 582.397223 262.5275 
z
" style="fill:#41b6c4;"/>
    <path clip-path="url(#pe3cc8e237f)" d="M 257.742677 253.090904 
L 257.742677 244.597968 
L 417.023594 244.597968 
L 417.023594 253.090904 
z
" style="fill:#41b6c4;"/>
    <path clip-path="url(#pe3cc8e237f)" d="M 257.742677 243.654309 
L 257.742677 235.161373 
L 388.300805 235.161373 
L 388.300805 243.654309 
z
" style="fill:#41b6c4;"/>
    <path clip-path="url(#pe3cc8e237f)" d="M 257.742677 234.217713 
L 257.742677 225.724777 
L 403.967781 225.724777 
L 403.967781 234.217713 
z
" style="fill:#41b6c4;"/>
    <path clip-path="url(#pe3cc8e237f)" d="M 257.742677 224.781117 
L 257.742677 216.288181 
L 394.393518 216.288181 
L 394.393518 224.781117 
z
" style="fill:#41b6c4;"/>
    <path clip-path="url(#pe3cc8e237f)" d="M 257.742677 215.344522 
L 257.742677 206.851585 
L 397.004681 206.851585 
L 397.004681 215.344522 
z
" style="fill:#41b6c4;"/>
    <path clip-path="url(#pe3cc8e237f)" d="M 257.742677 205.907926 
L 257.742677 197.41499 
L 423.116306 197.41499 
L 423.116306 205.907926 
z
" style="fill:#41b6c4;"/>
    <path clip-path="url(#pe3cc8e237f)" d="M 257.742677 196.47133 
L 257.742677 187.978394 
L 413.542044 187.978394 
L 413.542044 196.47133 
z
" style="fill:#41b6c4;"/>
    <path clip-path="url(#pe3cc8e237f)" d="M 257.742677 187.034734 
L 257.742677 178.541798 
L 389.171193 178.541798 
L 389.171193 187.034734 
z
" style="fill:#41b6c4;"/>
    <path clip-path="url(#pe3cc8e237f)" d="M 257.742677 177.598139 
L 257.742677 169.105202 
L 379.59693 169.105202 
L 379.59693 177.598139 
z
" style="fill:#41b6c4;"/>
    <path clip-path="url(#pe3cc8e237f)" d="M 257.742677 168.161543 
L 257.742677 159.668607 
L 397.004681 159.668607 
L 397.004681 168.161543 
z
" style="fill:#41b6c4;"/>
    <path clip-path="url(#pe3cc8e237f)" d="M 257.742677 158.724947 
L 257.742677 150.232011 
L 423.116306 150.232011 
L 423.116306 158.724947 
z
" style="fill:#41b6c4;"/>
    <path clip-path="url(#pe3cc8e237f)" d="M 257.742677 149.288351 
L 257.742677 140.795415 
L 410.060494 140.795415 
L 410.060494 149.288351 
z
" style="fill:#41b6c4;"/>
    <path clip-path="url(#pe3cc8e237f)" d="M 257.742677 139.851756 
L 257.742677 131.358819 
L 407.449331 131.358819 
L 407.449331 139.851756 
z
" style="fill:#41b6c4;"/>
    <path clip-path="url(#pe3cc8e237f)" d="M 257.742677 130.41516 
L 257.742677 121.922224 
L 421.375531 121.922224 
L 421.375531 130.41516 
z
" style="fill:#41b6c4;"/>
    <path clip-path="url(#pe3cc8e237f)" d="M 257.742677 120.978564 
L 257.742677 112.485628 
L 416.153206 112.485628 
L 416.153206 120.978564 
z
" style="fill:#41b6c4;"/>
    <path clip-path="url(#pe3cc8e237f)" d="M 257.742677 111.541968 
L 257.742677 103.049032 
L 401.356618 103.049032 
L 401.356618 111.541968 
z
" style="fill:#41b6c4;"/>
    <path clip-path="url(#pe3cc8e237f)" d="M 257.742677 102.105373 
L 257.742677 93.612436 
L 384.819255 93.612436 
L 384.819255 102.105373 
z
" style="fill:#41b6c4;"/>
    <path clip-path="url(#pe3cc8e237f)" d="M 257.742677 92.668777 
L 257.742677 84.175841 
L 406.578943 84.175841 
L 406.578943 92.668777 
z
" style="fill:#41b6c4;"/>
    <path clip-path="url(#pe3cc8e237f)" d="M 257.742677 83.232181 
L 257.742677 74.739245 
L 417.023594 74.739245 
L 417.023594 83.232181 
z
" style="fill:#41b6c4;"/>
    <path clip-path="url(#pe3cc8e237f)" d="M 257.742677 73.795585 
L 257.742677 65.302649 
L 384.819255 65.302649 
L 384.819255 73.795585 
z
" style="fill:#41b6c4;"/>
    <path clip-path="url(#pe3cc8e237f)" d="M 257.742677 64.35899 
L 257.742677 55.866053 
L 419.634756 55.866053 
L 419.634756 64.35899 
z
" style="fill:#41b6c4;"/>
    <path clip-path="url(#pe3cc8e237f)" d="M 257.742677 54.922394 
L 257.742677 46.429458 
L 402.227006 46.429458 
L 402.227006 54.922394 
z
" style="fill:#41b6c4;"/>
    <path clip-path="url(#pe3cc8e237f)" d="M 257.742677 45.485798 
L 257.742677 36.992862 
L 381.337705 36.992862 
L 381.337705 45.485798 
z
" style="fill:#41b6c4;"/>
    <path clip-path="url(#pe3cc8e237f)" d="M 257.742677 36.049202 
L 257.742677 27.556266 
L 396.134293 27.556266 
L 396.134293 36.049202 
z
" style="fill:#41b6c4;"/>
   </g>
   <g id="patch_3">
    <path d="M 241.50995 292.252777 
L 241.50995 26.140777 
" style="fill:none;stroke:#262626;stroke-linecap:square;stroke-linejoin:miter;"/>
   </g>
   <g id="patch_4">
    <path d="M 598.62995 292.252777 
L 598.62995 26.140777 
" style="fill:none;stroke:#262626;stroke-linecap:square;stroke-linejoin:miter;"/>
   </g>
   <g id="patch_5">
    <path d="M 241.50995 292.252777 
L 598.62995 292.252777 
" style="fill:none;stroke:#262626;stroke-linecap:square;stroke-linejoin:miter;"/>
   </g>
   <g id="patch_6">
    <path d="M 241.50995 26.140777 
L 598.62995 26.140777 
" style="fill:none;stroke:#262626;stroke-linecap:square;stroke-linejoin:miter;"/>
   </g>
  </g>
  <g id="text_38">
   <!-- Preprint Category Half-Life -->
   <defs>
    <path d="M 9.8125 72.90625 
L 19.671875 72.90625 
L 19.671875 43.015625 
L 55.515625 43.015625 
L 55.515625 72.90625 
L 65.375 72.90625 
L 65.375 0 
L 55.515625 0 
L 55.515625 34.71875 
L 19.671875 34.71875 
L 19.671875 0 
L 9.8125 0 
z
" id="DejaVuSans-72"/>
    <path d="M 4.890625 31.390625 
L 31.203125 31.390625 
L 31.203125 23.390625 
L 4.890625 23.390625 
z
" id="DejaVuSans-45"/>
    <path d="M 9.8125 72.90625 
L 19.671875 72.90625 
L 19.671875 8.296875 
L 55.171875 8.296875 
L 55.171875 0 
L 9.8125 0 
z
" id="DejaVuSans-76"/>
   </defs>
   <g style="fill:#262626;" transform="translate(337.47605 15.9534)scale(0.1152 -0.1152)">
    <use xlink:href="#DejaVuSans-80"/>
    <use x="60.287109" xlink:href="#DejaVuSans-114"/>
    <use x="101.369141" xlink:href="#DejaVuSans-101"/>
    <use x="162.892578" xlink:href="#DejaVuSans-112"/>
    <use x="226.369141" xlink:href="#DejaVuSans-114"/>
    <use x="267.482422" xlink:href="#DejaVuSans-105"/>
    <use x="295.265625" xlink:href="#DejaVuSans-110"/>
    <use x="358.644531" xlink:href="#DejaVuSans-116"/>
    <use x="397.853516" xlink:href="#DejaVuSans-32"/>
    <use x="429.640625" xlink:href="#DejaVuSans-67"/>
    <use x="499.464844" xlink:href="#DejaVuSans-97"/>
    <use x="560.744141" xlink:href="#DejaVuSans-116"/>
    <use x="599.953125" xlink:href="#DejaVuSans-101"/>
    <use x="661.476562" xlink:href="#DejaVuSans-103"/>
    <use x="724.953125" xlink:href="#DejaVuSans-111"/>
    <use x="786.134766" xlink:href="#DejaVuSans-114"/>
    <use x="827.248047" xlink:href="#DejaVuSans-121"/>
    <use x="886.427734" xlink:href="#DejaVuSans-32"/>
    <use x="918.214844" xlink:href="#DejaVuSans-72"/>
    <use x="993.410156" xlink:href="#DejaVuSans-97"/>
    <use x="1054.689453" xlink:href="#DejaVuSans-108"/>
    <use x="1082.472656" xlink:href="#DejaVuSans-102"/>
    <use x="1117.599609" xlink:href="#DejaVuSans-45"/>
    <use x="1153.683594" xlink:href="#DejaVuSans-76"/>
    <use x="1209.396484" xlink:href="#DejaVuSans-105"/>
    <use x="1237.179688" xlink:href="#DejaVuSans-102"/>
    <use x="1272.384766" xlink:href="#DejaVuSans-101"/>
   </g>
  </g>
 </g>
 <defs>
  <clipPath id="pe3cc8e237f">
   <rect height="266.112" width="357.12" x="241.50995" y="26.140777"/>
  </clipPath>
 </defs>
</svg>
