<?xml version="1.0" encoding="utf-8" standalone="no"?>
<!DOCTYPE svg PUBLIC "-//W3C//DTD SVG 1.1//EN"
  "http://www.w3.org/Graphics/SVG/1.1/DTD/svg11.dtd">
<!-- Created with matplotlib (https://matplotlib.org/) -->
<svg height="558.953211pt" version="1.1" viewBox="0 0 964.61125 558.953211" width="964.61125pt" xmlns="http://www.w3.org/2000/svg" xmlns:xlink="http://www.w3.org/1999/xlink">
 <defs>
  <style type="text/css">
*{stroke-linecap:butt;stroke-linejoin:round;}
  </style>
 </defs>
 <g id="figure_1">
  <g id="patch_1">
   <path d="M 0 558.953211
L 964.61125 558.953211
L 964.61125 0
L 0 0
z
" style="fill:#ffffff;"/>
  </g>
  <g id="axes_1">
   <g id="patch_2">
    <path d="M 343.61125 505.405961
L 957.41125 505.405961
L 957.41125 34.165961
L 343.61125 34.165961
z
" style="fill:#ffffff;"/>
   </g>
   <g id="matplotlib.axis_1">
    <g id="xtick_1">
     <g id="line2d_1">
      <defs>
       <path d="M 0 0
L 0 4.8
" id="m3a6c035981" style="stroke:#262626;"/>
      </defs>
      <g>
       <use style="fill:#262626;stroke:#262626;" x="371.51125" xlink:href="#m3a6c035981" y="505.405961"/>
      </g>
     </g>
     <g id="text_1">
      <!-- 0 -->
      <defs>
       <path d="M 4.15625 35.296875
Q 4.15625 48 6.765625 55.734375
Q 9.375 63.484375 14.515625 67.671875
Q 19.671875 71.875 27.484375 71.875
Q 33.25 71.875 37.59375 69.546875
Q 41.9375 67.234375 44.765625 62.859375
Q 47.609375 58.5 49.21875 52.21875
Q 50.828125 45.953125 50.828125 35.296875
Q 50.828125 22.703125 48.234375 14.96875
Q 45.65625 7.234375 40.5 3
Q 35.359375 -1.21875 27.484375 -1.21875
Q 17.140625 -1.21875 11.234375 6.203125
Q 4.15625 15.140625 4.15625 35.296875
z
M 13.1875 35.296875
Q 13.1875 17.671875 17.3125 11.828125
Q 21.4375 6 27.484375 6
Q 33.546875 6 37.671875 11.859375
Q 41.796875 17.71875 41.796875 35.296875
Q 41.796875 52.984375 37.671875 58.78125
Q 33.546875 64.59375 27.390625 64.59375
Q 21.34375 64.59375 17.71875 59.46875
Q 13.1875 52.9375 13.1875 35.296875
z
" id="ArialMT-48"/>
      </defs>
      <g style="fill:#262626;" transform="translate(366.617625 525.203711)scale(0.176 -0.176)">
       <use xlink:href="#ArialMT-48"/>
      </g>
     </g>
    </g>
    <g id="xtick_2">
     <g id="line2d_2">
      <g>
       <use style="fill:#262626;stroke:#262626;" x="588.822808" xlink:href="#m3a6c035981" y="505.405961"/>
      </g>
     </g>
     <g id="text_2">
      <!-- 155 days -->
      <defs>
       <path d="M 37.25 0
L 28.46875 0
L 28.46875 56
Q 25.296875 52.984375 20.140625 49.953125
Q 14.984375 46.921875 10.890625 45.40625
L 10.890625 53.90625
Q 18.265625 57.375 23.78125 62.296875
Q 29.296875 67.234375 31.59375 71.875
L 37.25 71.875
z
" id="ArialMT-49"/>
       <path d="M 4.15625 18.75
L 13.375 19.53125
Q 14.40625 12.796875 18.140625 9.390625
Q 21.875 6 27.15625 6
Q 33.5 6 37.890625 10.78125
Q 42.28125 15.578125 42.28125 23.484375
Q 42.28125 31 38.0625 35.34375
Q 33.84375 39.703125 27 39.703125
Q 22.75 39.703125 19.328125 37.765625
Q 15.921875 35.84375 13.96875 32.765625
L 5.71875 33.84375
L 12.640625 70.609375
L 48.25 70.609375
L 48.25 62.203125
L 19.671875 62.203125
L 15.828125 42.96875
Q 22.265625 47.46875 29.34375 47.46875
Q 38.71875 47.46875 45.15625 40.96875
Q 51.609375 34.46875 51.609375 24.265625
Q 51.609375 14.546875 45.953125 7.46875
Q 39.0625 -1.21875 27.15625 -1.21875
Q 17.390625 -1.21875 11.203125 4.25
Q 5.03125 9.71875 4.15625 18.75
z
" id="ArialMT-53"/>
       <path id="ArialMT-32"/>
       <path d="M 40.234375 0
L 40.234375 6.546875
Q 35.296875 -1.171875 25.734375 -1.171875
Q 19.53125 -1.171875 14.328125 2.25
Q 9.125 5.671875 6.265625 11.796875
Q 3.421875 17.921875 3.421875 25.875
Q 3.421875 33.640625 6 39.96875
Q 8.59375 46.296875 13.765625 49.65625
Q 18.953125 53.03125 25.34375 53.03125
Q 30.03125 53.03125 33.6875 51.046875
Q 37.359375 49.078125 39.65625 45.90625
L 39.65625 71.578125
L 48.390625 71.578125
L 48.390625 0
z
M 12.453125 25.875
Q 12.453125 15.921875 16.640625 10.984375
Q 20.84375 6.0625 26.5625 6.0625
Q 32.328125 6.0625 36.34375 10.765625
Q 40.375 15.484375 40.375 25.140625
Q 40.375 35.796875 36.265625 40.765625
Q 32.171875 45.75 26.171875 45.75
Q 20.3125 45.75 16.375 40.96875
Q 12.453125 36.1875 12.453125 25.875
z
" id="ArialMT-100"/>
       <path d="M 40.4375 6.390625
Q 35.546875 2.25 31.03125 0.53125
Q 26.515625 -1.171875 21.34375 -1.171875
Q 12.796875 -1.171875 8.203125 3
Q 3.609375 7.171875 3.609375 13.671875
Q 3.609375 17.484375 5.34375 20.625
Q 7.078125 23.78125 9.890625 25.6875
Q 12.703125 27.59375 16.21875 28.5625
Q 18.796875 29.25 24.03125 29.890625
Q 34.671875 31.15625 39.703125 32.90625
Q 39.75 34.71875 39.75 35.203125
Q 39.75 40.578125 37.25 42.78125
Q 33.890625 45.75 27.25 45.75
Q 21.046875 45.75 18.09375 43.578125
Q 15.140625 41.40625 13.71875 35.890625
L 5.125 37.0625
Q 6.296875 42.578125 8.984375 45.96875
Q 11.671875 49.359375 16.75 51.1875
Q 21.828125 53.03125 28.515625 53.03125
Q 35.15625 53.03125 39.296875 51.46875
Q 43.453125 49.90625 45.40625 47.53125
Q 47.359375 45.171875 48.140625 41.546875
Q 48.578125 39.3125 48.578125 33.453125
L 48.578125 21.734375
Q 48.578125 9.46875 49.140625 6.21875
Q 49.703125 2.984375 51.375 0
L 42.1875 0
Q 40.828125 2.734375 40.4375 6.390625
z
M 39.703125 26.03125
Q 34.90625 24.078125 25.34375 22.703125
Q 19.921875 21.921875 17.671875 20.9375
Q 15.4375 19.96875 14.203125 18.09375
Q 12.984375 16.21875 12.984375 13.921875
Q 12.984375 10.40625 15.640625 8.0625
Q 18.3125 5.71875 23.4375 5.71875
Q 28.515625 5.71875 32.46875 7.9375
Q 36.421875 10.15625 38.28125 14.015625
Q 39.703125 17 39.703125 22.796875
z
" id="ArialMT-97"/>
       <path d="M 6.203125 -19.96875
L 5.21875 -11.71875
Q 8.109375 -12.5 10.25 -12.5
Q 13.1875 -12.5 14.9375 -11.515625
Q 16.703125 -10.546875 17.828125 -8.796875
Q 18.65625 -7.46875 20.515625 -2.25
Q 20.75 -1.515625 21.296875 -0.09375
L 1.609375 51.859375
L 11.078125 51.859375
L 21.875 21.828125
Q 23.96875 16.109375 25.640625 9.8125
Q 27.15625 15.875 29.25 21.625
L 40.328125 51.859375
L 49.125 51.859375
L 29.390625 -0.875
Q 26.21875 -9.421875 24.46875 -12.640625
Q 22.125 -17 19.09375 -19.015625
Q 16.0625 -21.046875 11.859375 -21.046875
Q 9.328125 -21.046875 6.203125 -19.96875
z
" id="ArialMT-121"/>
       <path d="M 3.078125 15.484375
L 11.765625 16.84375
Q 12.5 11.625 15.84375 8.84375
Q 19.1875 6.0625 25.203125 6.0625
Q 31.25 6.0625 34.171875 8.515625
Q 37.109375 10.984375 37.109375 14.3125
Q 37.109375 17.28125 34.515625 19
Q 32.71875 20.171875 25.53125 21.96875
Q 15.875 24.421875 12.140625 26.203125
Q 8.40625 27.984375 6.46875 31.125
Q 4.546875 34.28125 4.546875 38.09375
Q 4.546875 41.546875 6.125 44.5
Q 7.71875 47.46875 10.453125 49.421875
Q 12.5 50.921875 16.03125 51.96875
Q 19.578125 53.03125 23.640625 53.03125
Q 29.734375 53.03125 34.34375 51.265625
Q 38.96875 49.515625 41.15625 46.5
Q 43.359375 43.5 44.1875 38.484375
L 35.59375 37.3125
Q 35.015625 41.3125 32.203125 43.546875
Q 29.390625 45.796875 24.265625 45.796875
Q 18.21875 45.796875 15.625 43.796875
Q 13.03125 41.796875 13.03125 39.109375
Q 13.03125 37.40625 14.109375 36.03125
Q 15.1875 34.625 17.484375 33.6875
Q 18.796875 33.203125 25.25 31.453125
Q 34.578125 28.953125 38.25 27.359375
Q 41.9375 25.78125 44.03125 22.75
Q 46.140625 19.734375 46.140625 15.234375
Q 46.140625 10.84375 43.578125 6.953125
Q 41.015625 3.078125 36.171875 0.953125
Q 31.34375 -1.171875 25.25 -1.171875
Q 15.140625 -1.171875 9.84375 3.03125
Q 4.546875 7.234375 3.078125 15.484375
z
" id="ArialMT-115"/>
      </defs>
      <g style="fill:#262626;" transform="translate(553.109933 525.255961)scale(0.176 -0.176)">
       <use xlink:href="#ArialMT-49"/>
       <use x="55.615234" xlink:href="#ArialMT-53"/>
       <use x="111.230469" xlink:href="#ArialMT-53"/>
       <use x="166.845703" xlink:href="#ArialMT-32"/>
       <use x="194.628906" xlink:href="#ArialMT-100"/>
       <use x="250.244141" xlink:href="#ArialMT-97"/>
       <use x="305.859375" xlink:href="#ArialMT-121"/>
       <use x="355.859375" xlink:href="#ArialMT-115"/>
      </g>
     </g>
    </g>
    <g id="xtick_3">
     <g id="line2d_3">
      <g>
       <use style="fill:#262626;stroke:#262626;" x="806.134366" xlink:href="#m3a6c035981" y="505.405961"/>
      </g>
     </g>
     <g id="text_3">
      <!-- 310 days -->
      <defs>
       <path d="M 4.203125 18.890625
L 12.984375 20.0625
Q 14.5 12.59375 18.140625 9.296875
Q 21.78125 6 27 6
Q 33.203125 6 37.46875 10.296875
Q 41.75 14.59375 41.75 20.953125
Q 41.75 27 37.796875 30.921875
Q 33.84375 34.859375 27.734375 34.859375
Q 25.25 34.859375 21.53125 33.890625
L 22.515625 41.609375
Q 23.390625 41.5 23.921875 41.5
Q 29.546875 41.5 34.03125 44.421875
Q 38.53125 47.359375 38.53125 53.46875
Q 38.53125 58.296875 35.25 61.46875
Q 31.984375 64.65625 26.8125 64.65625
Q 21.6875 64.65625 18.265625 61.421875
Q 14.84375 58.203125 13.875 51.765625
L 5.078125 53.328125
Q 6.6875 62.15625 12.390625 67.015625
Q 18.109375 71.875 26.609375 71.875
Q 32.46875 71.875 37.390625 69.359375
Q 42.328125 66.84375 44.9375 62.5
Q 47.5625 58.15625 47.5625 53.265625
Q 47.5625 48.640625 45.0625 44.828125
Q 42.578125 41.015625 37.703125 38.765625
Q 44.046875 37.3125 47.5625 32.6875
Q 51.078125 28.078125 51.078125 21.140625
Q 51.078125 11.765625 44.234375 5.25
Q 37.40625 -1.265625 26.953125 -1.265625
Q 17.53125 -1.265625 11.296875 4.34375
Q 5.078125 9.96875 4.203125 18.890625
z
" id="ArialMT-51"/>
      </defs>
      <g style="fill:#262626;" transform="translate(770.421491 525.255961)scale(0.176 -0.176)">
       <use xlink:href="#ArialMT-51"/>
       <use x="55.615234" xlink:href="#ArialMT-49"/>
       <use x="111.230469" xlink:href="#ArialMT-48"/>
       <use x="166.845703" xlink:href="#ArialMT-32"/>
       <use x="194.628906" xlink:href="#ArialMT-100"/>
       <use x="250.244141" xlink:href="#ArialMT-97"/>
       <use x="305.859375" xlink:href="#ArialMT-121"/>
       <use x="355.859375" xlink:href="#ArialMT-115"/>
      </g>
     </g>
    </g>
    <g id="xtick_4"/>
    <g id="xtick_5"/>
    <g id="xtick_6"/>
    <g id="text_4">
     <!-- Time Until 50% of Preprints are Published -->
     <defs>
      <path d="M 25.921875 0
L 25.921875 63.140625
L 2.34375 63.140625
L 2.34375 71.578125
L 59.078125 71.578125
L 59.078125 63.140625
L 35.40625 63.140625
L 35.40625 0
z
" id="ArialMT-84"/>
      <path d="M 6.640625 61.46875
L 6.640625 71.578125
L 15.4375 71.578125
L 15.4375 61.46875
z
M 6.640625 0
L 6.640625 51.859375
L 15.4375 51.859375
L 15.4375 0
z
" id="ArialMT-105"/>
      <path d="M 6.59375 0
L 6.59375 51.859375
L 14.453125 51.859375
L 14.453125 44.578125
Q 16.890625 48.390625 20.9375 50.703125
Q 25 53.03125 30.171875 53.03125
Q 35.9375 53.03125 39.625 50.640625
Q 43.3125 48.25 44.828125 43.953125
Q 50.984375 53.03125 60.84375 53.03125
Q 68.5625 53.03125 72.703125 48.75
Q 76.859375 44.484375 76.859375 35.59375
L 76.859375 0
L 68.109375 0
L 68.109375 32.671875
Q 68.109375 37.9375 67.25 40.25
Q 66.40625 42.578125 64.15625 43.984375
Q 61.921875 45.40625 58.890625 45.40625
Q 53.421875 45.40625 49.796875 41.765625
Q 46.1875 38.140625 46.1875 30.125
L 46.1875 0
L 37.40625 0
L 37.40625 33.6875
Q 37.40625 39.546875 35.25 42.46875
Q 33.109375 45.40625 28.21875 45.40625
Q 24.515625 45.40625 21.359375 43.453125
Q 18.21875 41.5 16.796875 37.734375
Q 15.375 33.984375 15.375 26.90625
L 15.375 0
z
" id="ArialMT-109"/>
      <path d="M 42.09375 16.703125
L 51.171875 15.578125
Q 49.03125 7.625 43.21875 3.21875
Q 37.40625 -1.171875 28.375 -1.171875
Q 17 -1.171875 10.328125 5.828125
Q 3.65625 12.84375 3.65625 25.484375
Q 3.65625 38.578125 10.390625 45.796875
Q 17.140625 53.03125 27.875 53.03125
Q 38.28125 53.03125 44.875 45.953125
Q 51.46875 38.875 51.46875 26.03125
Q 51.46875 25.25 51.421875 23.6875
L 12.75 23.6875
Q 13.234375 15.140625 17.578125 10.59375
Q 21.921875 6.0625 28.421875 6.0625
Q 33.25 6.0625 36.671875 8.59375
Q 40.09375 11.140625 42.09375 16.703125
z
M 13.234375 30.90625
L 42.1875 30.90625
Q 41.609375 37.453125 38.875 40.71875
Q 34.671875 45.796875 27.984375 45.796875
Q 21.921875 45.796875 17.796875 41.75
Q 13.671875 37.703125 13.234375 30.90625
z
" id="ArialMT-101"/>
      <path d="M 54.6875 71.578125
L 64.15625 71.578125
L 64.15625 30.21875
Q 64.15625 19.4375 61.71875 13.078125
Q 59.28125 6.734375 52.90625 2.75
Q 46.53125 -1.21875 36.1875 -1.21875
Q 26.125 -1.21875 19.71875 2.25
Q 13.328125 5.71875 10.59375 12.28125
Q 7.859375 18.84375 7.859375 30.21875
L 7.859375 71.578125
L 17.328125 71.578125
L 17.328125 30.28125
Q 17.328125 20.953125 19.0625 16.53125
Q 20.796875 12.109375 25.015625 9.71875
Q 29.25 7.328125 35.359375 7.328125
Q 45.796875 7.328125 50.234375 12.0625
Q 54.6875 16.796875 54.6875 30.28125
z
" id="ArialMT-85"/>
      <path d="M 6.59375 0
L 6.59375 51.859375
L 14.5 51.859375
L 14.5 44.484375
Q 20.21875 53.03125 31 53.03125
Q 35.6875 53.03125 39.625 51.34375
Q 43.5625 49.65625 45.515625 46.921875
Q 47.46875 44.1875 48.25 40.4375
Q 48.734375 37.984375 48.734375 31.890625
L 48.734375 0
L 39.9375 0
L 39.9375 31.546875
Q 39.9375 36.921875 38.90625 39.578125
Q 37.890625 42.234375 35.28125 43.8125
Q 32.671875 45.40625 29.15625 45.40625
Q 23.53125 45.40625 19.453125 41.84375
Q 15.375 38.28125 15.375 28.328125
L 15.375 0
z
" id="ArialMT-110"/>
      <path d="M 25.78125 7.859375
L 27.046875 0.09375
Q 23.34375 -0.6875 20.40625 -0.6875
Q 15.625 -0.6875 12.984375 0.828125
Q 10.359375 2.34375 9.28125 4.8125
Q 8.203125 7.28125 8.203125 15.1875
L 8.203125 45.015625
L 1.765625 45.015625
L 1.765625 51.859375
L 8.203125 51.859375
L 8.203125 64.703125
L 16.9375 69.96875
L 16.9375 51.859375
L 25.78125 51.859375
L 25.78125 45.015625
L 16.9375 45.015625
L 16.9375 14.703125
Q 16.9375 10.9375 17.40625 9.859375
Q 17.875 8.796875 18.921875 8.15625
Q 19.96875 7.515625 21.921875 7.515625
Q 23.390625 7.515625 25.78125 7.859375
z
" id="ArialMT-116"/>
      <path d="M 6.390625 0
L 6.390625 71.578125
L 15.1875 71.578125
L 15.1875 0
z
" id="ArialMT-108"/>
      <path d="M 5.8125 54.390625
Q 5.8125 62.0625 9.671875 67.421875
Q 13.53125 72.796875 20.84375 72.796875
Q 27.59375 72.796875 32 67.984375
Q 36.421875 63.1875 36.421875 53.859375
Q 36.421875 44.78125 31.953125 39.875
Q 27.484375 34.96875 20.953125 34.96875
Q 14.453125 34.96875 10.125 39.796875
Q 5.8125 44.625 5.8125 54.390625
z
M 21.09375 66.75
Q 17.828125 66.75 15.65625 63.90625
Q 13.484375 61.078125 13.484375 53.515625
Q 13.484375 46.625 15.671875 43.8125
Q 17.875 41.015625 21.09375 41.015625
Q 24.421875 41.015625 26.59375 43.84375
Q 28.765625 46.6875 28.765625 54.203125
Q 28.765625 61.140625 26.5625 63.9375
Q 24.359375 66.75 21.09375 66.75
z
M 21.140625 -2.640625
L 60.296875 72.796875
L 67.4375 72.796875
L 28.421875 -2.640625
z
M 52.09375 16.796875
Q 52.09375 24.515625 55.953125 29.859375
Q 59.8125 35.203125 67.1875 35.203125
Q 73.921875 35.203125 78.34375 30.390625
Q 82.765625 25.59375 82.765625 16.265625
Q 82.765625 7.171875 78.296875 2.265625
Q 73.828125 -2.640625 67.234375 -2.640625
Q 60.75 -2.640625 56.421875 2.21875
Q 52.09375 7.078125 52.09375 16.796875
z
M 67.4375 29.15625
Q 64.109375 29.15625 61.9375 26.3125
Q 59.765625 23.484375 59.765625 15.921875
Q 59.765625 9.078125 61.953125 6.25
Q 64.15625 3.421875 67.390625 3.421875
Q 70.75 3.421875 72.921875 6.25
Q 75.09375 9.078125 75.09375 16.609375
Q 75.09375 23.53125 72.890625 26.34375
Q 70.703125 29.15625 67.4375 29.15625
z
" id="ArialMT-37"/>
      <path d="M 3.328125 25.921875
Q 3.328125 40.328125 11.328125 47.265625
Q 18.015625 53.03125 27.640625 53.03125
Q 38.328125 53.03125 45.109375 46.015625
Q 51.90625 39.015625 51.90625 26.65625
Q 51.90625 16.65625 48.90625 10.90625
Q 45.90625 5.171875 40.15625 2
Q 34.421875 -1.171875 27.640625 -1.171875
Q 16.75 -1.171875 10.03125 5.8125
Q 3.328125 12.796875 3.328125 25.921875
z
M 12.359375 25.921875
Q 12.359375 15.96875 16.703125 11.015625
Q 21.046875 6.0625 27.640625 6.0625
Q 34.1875 6.0625 38.53125 11.03125
Q 42.875 16.015625 42.875 26.21875
Q 42.875 35.84375 38.5 40.796875
Q 34.125 45.75 27.640625 45.75
Q 21.046875 45.75 16.703125 40.8125
Q 12.359375 35.890625 12.359375 25.921875
z
" id="ArialMT-111"/>
      <path d="M 8.6875 0
L 8.6875 45.015625
L 0.921875 45.015625
L 0.921875 51.859375
L 8.6875 51.859375
L 8.6875 57.375
Q 8.6875 62.59375 9.625 65.140625
Q 10.890625 68.5625 14.078125 70.671875
Q 17.28125 72.796875 23.046875 72.796875
Q 26.765625 72.796875 31.25 71.921875
L 29.9375 64.265625
Q 27.203125 64.75 24.75 64.75
Q 20.75 64.75 19.09375 63.03125
Q 17.4375 61.328125 17.4375 56.640625
L 17.4375 51.859375
L 27.546875 51.859375
L 27.546875 45.015625
L 17.4375 45.015625
L 17.4375 0
z
" id="ArialMT-102"/>
      <path d="M 7.71875 0
L 7.71875 71.578125
L 34.71875 71.578125
Q 41.84375 71.578125 45.609375 70.90625
Q 50.875 70.015625 54.4375 67.546875
Q 58.015625 65.09375 60.1875 60.640625
Q 62.359375 56.203125 62.359375 50.875
Q 62.359375 41.75 56.546875 35.421875
Q 50.734375 29.109375 35.546875 29.109375
L 17.1875 29.109375
L 17.1875 0
z
M 17.1875 37.546875
L 35.6875 37.546875
Q 44.875 37.546875 48.734375 40.96875
Q 52.59375 44.390625 52.59375 50.59375
Q 52.59375 55.078125 50.3125 58.265625
Q 48.046875 61.46875 44.34375 62.5
Q 41.9375 63.140625 35.5 63.140625
L 17.1875 63.140625
z
" id="ArialMT-80"/>
      <path d="M 6.5 0
L 6.5 51.859375
L 14.40625 51.859375
L 14.40625 44
Q 17.4375 49.515625 20 51.265625
Q 22.5625 53.03125 25.640625 53.03125
Q 30.078125 53.03125 34.671875 50.203125
L 31.640625 42.046875
Q 28.421875 43.953125 25.203125 43.953125
Q 22.3125 43.953125 20.015625 42.21875
Q 17.71875 40.484375 16.75 37.40625
Q 15.28125 32.71875 15.28125 27.15625
L 15.28125 0
z
" id="ArialMT-114"/>
      <path d="M 6.59375 -19.875
L 6.59375 51.859375
L 14.59375 51.859375
L 14.59375 45.125
Q 17.4375 49.078125 21 51.046875
Q 24.5625 53.03125 29.640625 53.03125
Q 36.28125 53.03125 41.359375 49.609375
Q 46.4375 46.1875 49.015625 39.953125
Q 51.609375 33.734375 51.609375 26.3125
Q 51.609375 18.359375 48.75 11.984375
Q 45.90625 5.609375 40.453125 2.21875
Q 35.015625 -1.171875 29 -1.171875
Q 24.609375 -1.171875 21.109375 0.6875
Q 17.625 2.546875 15.375 5.375
L 15.375 -19.875
z
M 14.546875 25.640625
Q 14.546875 15.625 18.59375 10.84375
Q 22.65625 6.0625 28.421875 6.0625
Q 34.28125 6.0625 38.453125 11.015625
Q 42.625 15.96875 42.625 26.375
Q 42.625 36.28125 38.546875 41.203125
Q 34.46875 46.140625 28.8125 46.140625
Q 23.1875 46.140625 18.859375 40.890625
Q 14.546875 35.640625 14.546875 25.640625
z
" id="ArialMT-112"/>
      <path d="M 40.578125 0
L 40.578125 7.625
Q 34.515625 -1.171875 24.125 -1.171875
Q 19.53125 -1.171875 15.546875 0.578125
Q 11.578125 2.34375 9.640625 5
Q 7.71875 7.671875 6.9375 11.53125
Q 6.390625 14.109375 6.390625 19.734375
L 6.390625 51.859375
L 15.1875 51.859375
L 15.1875 23.09375
Q 15.1875 16.21875 15.71875 13.8125
Q 16.546875 10.359375 19.234375 8.375
Q 21.921875 6.390625 25.875 6.390625
Q 29.828125 6.390625 33.296875 8.421875
Q 36.765625 10.453125 38.203125 13.9375
Q 39.65625 17.4375 39.65625 24.078125
L 39.65625 51.859375
L 48.4375 51.859375
L 48.4375 0
z
" id="ArialMT-117"/>
      <path d="M 14.703125 0
L 6.546875 0
L 6.546875 71.578125
L 15.328125 71.578125
L 15.328125 46.046875
Q 20.90625 53.03125 29.546875 53.03125
Q 34.328125 53.03125 38.59375 51.09375
Q 42.875 49.171875 45.625 45.671875
Q 48.390625 42.1875 49.953125 37.25
Q 51.515625 32.328125 51.515625 26.703125
Q 51.515625 13.375 44.921875 6.09375
Q 38.328125 -1.171875 29.109375 -1.171875
Q 19.921875 -1.171875 14.703125 6.5
z
M 14.59375 26.3125
Q 14.59375 17 17.140625 12.84375
Q 21.296875 6.0625 28.375 6.0625
Q 34.125 6.0625 38.328125 11.0625
Q 42.53125 16.0625 42.53125 25.984375
Q 42.53125 36.140625 38.5 40.96875
Q 34.46875 45.796875 28.765625 45.796875
Q 23 45.796875 18.796875 40.796875
Q 14.59375 35.796875 14.59375 26.3125
z
" id="ArialMT-98"/>
      <path d="M 6.59375 0
L 6.59375 71.578125
L 15.375 71.578125
L 15.375 45.90625
Q 21.53125 53.03125 30.90625 53.03125
Q 36.671875 53.03125 40.921875 50.75
Q 45.171875 48.484375 47 44.484375
Q 48.828125 40.484375 48.828125 32.859375
L 48.828125 0
L 40.046875 0
L 40.046875 32.859375
Q 40.046875 39.453125 37.1875 42.453125
Q 34.328125 45.453125 29.109375 45.453125
Q 25.203125 45.453125 21.75 43.421875
Q 18.3125 41.40625 16.84375 37.9375
Q 15.375 34.46875 15.375 28.375
L 15.375 0
z
" id="ArialMT-104"/>
     </defs>
     <g style="fill:#262626;" transform="translate(462.41125 547.937211)scale(0.192 -0.192)">
      <use xlink:href="#ArialMT-84"/>
      <use x="61.037109" xlink:href="#ArialMT-105"/>
      <use x="83.253906" xlink:href="#ArialMT-109"/>
      <use x="166.554688" xlink:href="#ArialMT-101"/>
      <use x="222.169922" xlink:href="#ArialMT-32"/>
      <use x="249.953125" xlink:href="#ArialMT-85"/>
      <use x="322.169922" xlink:href="#ArialMT-110"/>
      <use x="377.785156" xlink:href="#ArialMT-116"/>
      <use x="405.568359" xlink:href="#ArialMT-105"/>
      <use x="427.785156" xlink:href="#ArialMT-108"/>
      <use x="450.001953" xlink:href="#ArialMT-32"/>
      <use x="477.785156" xlink:href="#ArialMT-53"/>
      <use x="533.400391" xlink:href="#ArialMT-48"/>
      <use x="589.015625" xlink:href="#ArialMT-37"/>
      <use x="677.931641" xlink:href="#ArialMT-32"/>
      <use x="705.714844" xlink:href="#ArialMT-111"/>
      <use x="761.330078" xlink:href="#ArialMT-102"/>
      <use x="789.113281" xlink:href="#ArialMT-32"/>
      <use x="816.896484" xlink:href="#ArialMT-80"/>
      <use x="883.595703" xlink:href="#ArialMT-114"/>
      <use x="916.896484" xlink:href="#ArialMT-101"/>
      <use x="972.511719" xlink:href="#ArialMT-112"/>
      <use x="1028.126953" xlink:href="#ArialMT-114"/>
      <use x="1061.427734" xlink:href="#ArialMT-105"/>
      <use x="1083.644531" xlink:href="#ArialMT-110"/>
      <use x="1139.259766" xlink:href="#ArialMT-116"/>
      <use x="1167.042969" xlink:href="#ArialMT-115"/>
      <use x="1217.042969" xlink:href="#ArialMT-32"/>
      <use x="1244.826172" xlink:href="#ArialMT-97"/>
      <use x="1300.441406" xlink:href="#ArialMT-114"/>
      <use x="1333.742188" xlink:href="#ArialMT-101"/>
      <use x="1389.357422" xlink:href="#ArialMT-32"/>
      <use x="1417.140625" xlink:href="#ArialMT-80"/>
      <use x="1483.839844" xlink:href="#ArialMT-117"/>
      <use x="1539.455078" xlink:href="#ArialMT-98"/>
      <use x="1595.070312" xlink:href="#ArialMT-108"/>
      <use x="1617.287109" xlink:href="#ArialMT-105"/>
      <use x="1639.503906" xlink:href="#ArialMT-115"/>
      <use x="1689.503906" xlink:href="#ArialMT-104"/>
      <use x="1745.119141" xlink:href="#ArialMT-101"/>
      <use x="1800.734375" xlink:href="#ArialMT-100"/>
     </g>
    </g>
   </g>
   <g id="matplotlib.axis_2">
    <g id="ytick_1">
     <g id="line2d_4">
      <defs>
       <path d="M 0 0
L -4.8 0
" id="m698e3d2472" style="stroke:#262626;"/>
      </defs>
      <g>
       <use style="fill:#262626;stroke:#262626;" x="343.61125" xlink:href="#m698e3d2472" y="495.379578"/>
      </g>
     </g>
     <g id="text_5">
      <!-- scientific communication and education -->
      <defs>
       <path d="M 40.4375 19
L 49.078125 17.875
Q 47.65625 8.9375 41.8125 3.875
Q 35.984375 -1.171875 27.484375 -1.171875
Q 16.84375 -1.171875 10.375 5.78125
Q 3.90625 12.75 3.90625 25.734375
Q 3.90625 34.125 6.6875 40.421875
Q 9.46875 46.734375 15.15625 49.875
Q 20.84375 53.03125 27.546875 53.03125
Q 35.984375 53.03125 41.359375 48.75
Q 46.734375 44.484375 48.25 36.625
L 39.703125 35.296875
Q 38.484375 40.53125 35.375 43.15625
Q 32.28125 45.796875 27.875 45.796875
Q 21.234375 45.796875 17.078125 41.03125
Q 12.9375 36.28125 12.9375 25.984375
Q 12.9375 15.53125 16.9375 10.796875
Q 20.953125 6.0625 27.390625 6.0625
Q 32.5625 6.0625 36.03125 9.234375
Q 39.5 12.40625 40.4375 19
z
" id="ArialMT-99"/>
      </defs>
      <g style="fill:#262626;" transform="translate(30.218 501.678453)scale(0.176 -0.176)">
       <use xlink:href="#ArialMT-115"/>
       <use x="50" xlink:href="#ArialMT-99"/>
       <use x="100" xlink:href="#ArialMT-105"/>
       <use x="122.216797" xlink:href="#ArialMT-101"/>
       <use x="177.832031" xlink:href="#ArialMT-110"/>
       <use x="233.447266" xlink:href="#ArialMT-116"/>
       <use x="261.230469" xlink:href="#ArialMT-105"/>
       <use x="283.447266" xlink:href="#ArialMT-102"/>
       <use x="311.230469" xlink:href="#ArialMT-105"/>
       <use x="333.447266" xlink:href="#ArialMT-99"/>
       <use x="383.447266" xlink:href="#ArialMT-32"/>
       <use x="411.230469" xlink:href="#ArialMT-99"/>
       <use x="461.230469" xlink:href="#ArialMT-111"/>
       <use x="516.845703" xlink:href="#ArialMT-109"/>
       <use x="600.146484" xlink:href="#ArialMT-109"/>
       <use x="683.447266" xlink:href="#ArialMT-117"/>
       <use x="739.0625" xlink:href="#ArialMT-110"/>
       <use x="794.677734" xlink:href="#ArialMT-105"/>
       <use x="816.894531" xlink:href="#ArialMT-99"/>
       <use x="866.894531" xlink:href="#ArialMT-97"/>
       <use x="922.509766" xlink:href="#ArialMT-116"/>
       <use x="950.292969" xlink:href="#ArialMT-105"/>
       <use x="972.509766" xlink:href="#ArialMT-111"/>
       <use x="1028.125" xlink:href="#ArialMT-110"/>
       <use x="1083.740234" xlink:href="#ArialMT-32"/>
       <use x="1111.523438" xlink:href="#ArialMT-97"/>
       <use x="1167.138672" xlink:href="#ArialMT-110"/>
       <use x="1222.753906" xlink:href="#ArialMT-100"/>
       <use x="1278.369141" xlink:href="#ArialMT-32"/>
       <use x="1306.152344" xlink:href="#ArialMT-101"/>
       <use x="1361.767578" xlink:href="#ArialMT-100"/>
       <use x="1417.382812" xlink:href="#ArialMT-117"/>
       <use x="1472.998047" xlink:href="#ArialMT-99"/>
       <use x="1522.998047" xlink:href="#ArialMT-97"/>
       <use x="1578.613281" xlink:href="#ArialMT-116"/>
       <use x="1606.396484" xlink:href="#ArialMT-105"/>
       <use x="1628.613281" xlink:href="#ArialMT-111"/>
       <use x="1684.228516" xlink:href="#ArialMT-110"/>
      </g>
     </g>
    </g>
    <g id="ytick_2">
     <g id="line2d_5">
      <g>
       <use style="fill:#262626;stroke:#262626;" x="343.61125" xlink:href="#m698e3d2472" y="478.66894"/>
      </g>
     </g>
     <g id="text_6">
      <!-- systems biology -->
      <defs>
       <path d="M 4.984375 -4.296875
L 13.53125 -5.5625
Q 14.0625 -9.515625 16.5 -11.328125
Q 19.78125 -13.765625 25.4375 -13.765625
Q 31.546875 -13.765625 34.859375 -11.328125
Q 38.1875 -8.890625 39.359375 -4.5
Q 40.046875 -1.8125 39.984375 6.78125
Q 34.234375 0 25.640625 0
Q 14.9375 0 9.078125 7.71875
Q 3.21875 15.4375 3.21875 26.21875
Q 3.21875 33.640625 5.90625 39.90625
Q 8.59375 46.1875 13.6875 49.609375
Q 18.796875 53.03125 25.6875 53.03125
Q 34.859375 53.03125 40.828125 45.609375
L 40.828125 51.859375
L 48.921875 51.859375
L 48.921875 7.03125
Q 48.921875 -5.078125 46.453125 -10.125
Q 44 -15.1875 38.640625 -18.109375
Q 33.296875 -21.046875 25.484375 -21.046875
Q 16.21875 -21.046875 10.5 -16.875
Q 4.78125 -12.703125 4.984375 -4.296875
z
M 12.25 26.859375
Q 12.25 16.65625 16.296875 11.96875
Q 20.359375 7.28125 26.46875 7.28125
Q 32.515625 7.28125 36.609375 11.9375
Q 40.71875 16.609375 40.71875 26.5625
Q 40.71875 36.078125 36.5 40.90625
Q 32.28125 45.75 26.3125 45.75
Q 20.453125 45.75 16.34375 40.984375
Q 12.25 36.234375 12.25 26.859375
z
" id="ArialMT-103"/>
      </defs>
      <g style="fill:#262626;" transform="translate(211.21475 484.967815)scale(0.176 -0.176)">
       <use xlink:href="#ArialMT-115"/>
       <use x="50" xlink:href="#ArialMT-121"/>
       <use x="100" xlink:href="#ArialMT-115"/>
       <use x="150" xlink:href="#ArialMT-116"/>
       <use x="177.783203" xlink:href="#ArialMT-101"/>
       <use x="233.398438" xlink:href="#ArialMT-109"/>
       <use x="316.699219" xlink:href="#ArialMT-115"/>
       <use x="366.699219" xlink:href="#ArialMT-32"/>
       <use x="394.482422" xlink:href="#ArialMT-98"/>
       <use x="450.097656" xlink:href="#ArialMT-105"/>
       <use x="472.314453" xlink:href="#ArialMT-111"/>
       <use x="527.929688" xlink:href="#ArialMT-108"/>
       <use x="550.146484" xlink:href="#ArialMT-111"/>
       <use x="605.761719" xlink:href="#ArialMT-103"/>
       <use x="661.376953" xlink:href="#ArialMT-121"/>
      </g>
     </g>
    </g>
    <g id="ytick_3">
     <g id="line2d_6">
      <g>
       <use style="fill:#262626;stroke:#262626;" x="343.61125" xlink:href="#m698e3d2472" y="461.958302"/>
      </g>
     </g>
     <g id="text_7">
      <!-- genomics -->
      <g style="fill:#262626;" transform="translate(261.0915 468.257177)scale(0.176 -0.176)">
       <use xlink:href="#ArialMT-103"/>
       <use x="55.615234" xlink:href="#ArialMT-101"/>
       <use x="111.230469" xlink:href="#ArialMT-110"/>
       <use x="166.845703" xlink:href="#ArialMT-111"/>
       <use x="222.460938" xlink:href="#ArialMT-109"/>
       <use x="305.761719" xlink:href="#ArialMT-105"/>
       <use x="327.978516" xlink:href="#ArialMT-99"/>
       <use x="377.978516" xlink:href="#ArialMT-115"/>
      </g>
     </g>
    </g>
    <g id="ytick_4">
     <g id="line2d_7">
      <g>
       <use style="fill:#262626;stroke:#262626;" x="343.61125" xlink:href="#m698e3d2472" y="445.247664"/>
      </g>
     </g>
     <g id="text_8">
      <!-- paleontology -->
      <g style="fill:#262626;" transform="translate(236.60275 451.546539)scale(0.176 -0.176)">
       <use xlink:href="#ArialMT-112"/>
       <use x="55.615234" xlink:href="#ArialMT-97"/>
       <use x="111.230469" xlink:href="#ArialMT-108"/>
       <use x="133.447266" xlink:href="#ArialMT-101"/>
       <use x="189.0625" xlink:href="#ArialMT-111"/>
       <use x="244.677734" xlink:href="#ArialMT-110"/>
       <use x="300.292969" xlink:href="#ArialMT-116"/>
       <use x="328.076172" xlink:href="#ArialMT-111"/>
       <use x="383.691406" xlink:href="#ArialMT-108"/>
       <use x="405.908203" xlink:href="#ArialMT-111"/>
       <use x="461.523438" xlink:href="#ArialMT-103"/>
       <use x="517.138672" xlink:href="#ArialMT-121"/>
      </g>
     </g>
    </g>
    <g id="ytick_5">
     <g id="line2d_8">
      <g>
       <use style="fill:#262626;stroke:#262626;" x="343.61125" xlink:href="#m698e3d2472" y="428.537025"/>
      </g>
     </g>
     <g id="text_9">
      <!-- epidemiology -->
      <g style="fill:#262626;" transform="translate(232.70875 434.8359)scale(0.176 -0.176)">
       <use xlink:href="#ArialMT-101"/>
       <use x="55.615234" xlink:href="#ArialMT-112"/>
       <use x="111.230469" xlink:href="#ArialMT-105"/>
       <use x="133.447266" xlink:href="#ArialMT-100"/>
       <use x="189.0625" xlink:href="#ArialMT-101"/>
       <use x="244.677734" xlink:href="#ArialMT-109"/>
       <use x="327.978516" xlink:href="#ArialMT-105"/>
       <use x="350.195312" xlink:href="#ArialMT-111"/>
       <use x="405.810547" xlink:href="#ArialMT-108"/>
       <use x="428.027344" xlink:href="#ArialMT-111"/>
       <use x="483.642578" xlink:href="#ArialMT-103"/>
       <use x="539.257812" xlink:href="#ArialMT-121"/>
      </g>
     </g>
    </g>
    <g id="ytick_6">
     <g id="line2d_9">
      <g>
       <use style="fill:#262626;stroke:#262626;" x="343.61125" xlink:href="#m698e3d2472" y="411.826387"/>
      </g>
     </g>
     <g id="text_10">
      <!-- bioinformatics -->
      <g style="fill:#262626;" transform="translate(227.844 418.125262)scale(0.176 -0.176)">
       <use xlink:href="#ArialMT-98"/>
       <use x="55.615234" xlink:href="#ArialMT-105"/>
       <use x="77.832031" xlink:href="#ArialMT-111"/>
       <use x="133.447266" xlink:href="#ArialMT-105"/>
       <use x="155.664062" xlink:href="#ArialMT-110"/>
       <use x="211.279297" xlink:href="#ArialMT-102"/>
       <use x="239.0625" xlink:href="#ArialMT-111"/>
       <use x="294.677734" xlink:href="#ArialMT-114"/>
       <use x="327.978516" xlink:href="#ArialMT-109"/>
       <use x="411.279297" xlink:href="#ArialMT-97"/>
       <use x="466.894531" xlink:href="#ArialMT-116"/>
       <use x="494.677734" xlink:href="#ArialMT-105"/>
       <use x="516.894531" xlink:href="#ArialMT-99"/>
       <use x="566.894531" xlink:href="#ArialMT-115"/>
      </g>
     </g>
    </g>
    <g id="ytick_7">
     <g id="line2d_10">
      <g>
       <use style="fill:#262626;stroke:#262626;" x="343.61125" xlink:href="#m698e3d2472" y="395.115749"/>
      </g>
     </g>
     <g id="text_11">
      <!-- scientific communication -->
      <g style="fill:#262626;" transform="translate(145.68225 401.414624)scale(0.176 -0.176)">
       <use xlink:href="#ArialMT-115"/>
       <use x="50" xlink:href="#ArialMT-99"/>
       <use x="100" xlink:href="#ArialMT-105"/>
       <use x="122.216797" xlink:href="#ArialMT-101"/>
       <use x="177.832031" xlink:href="#ArialMT-110"/>
       <use x="233.447266" xlink:href="#ArialMT-116"/>
       <use x="261.230469" xlink:href="#ArialMT-105"/>
       <use x="283.447266" xlink:href="#ArialMT-102"/>
       <use x="311.230469" xlink:href="#ArialMT-105"/>
       <use x="333.447266" xlink:href="#ArialMT-99"/>
       <use x="383.447266" xlink:href="#ArialMT-32"/>
       <use x="411.230469" xlink:href="#ArialMT-99"/>
       <use x="461.230469" xlink:href="#ArialMT-111"/>
       <use x="516.845703" xlink:href="#ArialMT-109"/>
       <use x="600.146484" xlink:href="#ArialMT-109"/>
       <use x="683.447266" xlink:href="#ArialMT-117"/>
       <use x="739.0625" xlink:href="#ArialMT-110"/>
       <use x="794.677734" xlink:href="#ArialMT-105"/>
       <use x="816.894531" xlink:href="#ArialMT-99"/>
       <use x="866.894531" xlink:href="#ArialMT-97"/>
       <use x="922.509766" xlink:href="#ArialMT-116"/>
       <use x="950.292969" xlink:href="#ArialMT-105"/>
       <use x="972.509766" xlink:href="#ArialMT-111"/>
       <use x="1028.125" xlink:href="#ArialMT-110"/>
      </g>
     </g>
    </g>
    <g id="ytick_8">
     <g id="line2d_11">
      <g>
       <use style="fill:#262626;stroke:#262626;" x="343.61125" xlink:href="#m698e3d2472" y="378.40511"/>
      </g>
     </g>
     <g id="text_12">
      <!-- cancer biology -->
      <g style="fill:#262626;" transform="translate(222.92975 384.703985)scale(0.176 -0.176)">
       <use xlink:href="#ArialMT-99"/>
       <use x="50" xlink:href="#ArialMT-97"/>
       <use x="105.615234" xlink:href="#ArialMT-110"/>
       <use x="161.230469" xlink:href="#ArialMT-99"/>
       <use x="211.230469" xlink:href="#ArialMT-101"/>
       <use x="266.845703" xlink:href="#ArialMT-114"/>
       <use x="300.146484" xlink:href="#ArialMT-32"/>
       <use x="327.929688" xlink:href="#ArialMT-98"/>
       <use x="383.544922" xlink:href="#ArialMT-105"/>
       <use x="405.761719" xlink:href="#ArialMT-111"/>
       <use x="461.376953" xlink:href="#ArialMT-108"/>
       <use x="483.59375" xlink:href="#ArialMT-111"/>
       <use x="539.208984" xlink:href="#ArialMT-103"/>
       <use x="594.824219" xlink:href="#ArialMT-121"/>
      </g>
     </g>
    </g>
    <g id="ytick_9">
     <g id="line2d_12">
      <g>
       <use style="fill:#262626;stroke:#262626;" x="343.61125" xlink:href="#m698e3d2472" y="361.694472"/>
      </g>
     </g>
     <g id="text_13">
      <!-- ecology -->
      <g style="fill:#262626;" transform="translate(275.75175 367.993347)scale(0.176 -0.176)">
       <use xlink:href="#ArialMT-101"/>
       <use x="55.615234" xlink:href="#ArialMT-99"/>
       <use x="105.615234" xlink:href="#ArialMT-111"/>
       <use x="161.230469" xlink:href="#ArialMT-108"/>
       <use x="183.447266" xlink:href="#ArialMT-111"/>
       <use x="239.0625" xlink:href="#ArialMT-103"/>
       <use x="294.677734" xlink:href="#ArialMT-121"/>
      </g>
     </g>
    </g>
    <g id="ytick_10">
     <g id="line2d_13">
      <g>
       <use style="fill:#262626;stroke:#262626;" x="343.61125" xlink:href="#m698e3d2472" y="344.983834"/>
      </g>
     </g>
     <g id="text_14">
      <!-- neuroscience -->
      <g style="fill:#262626;" transform="translate(231.72975 351.282709)scale(0.176 -0.176)">
       <use xlink:href="#ArialMT-110"/>
       <use x="55.615234" xlink:href="#ArialMT-101"/>
       <use x="111.230469" xlink:href="#ArialMT-117"/>
       <use x="166.845703" xlink:href="#ArialMT-114"/>
       <use x="200.146484" xlink:href="#ArialMT-111"/>
       <use x="255.761719" xlink:href="#ArialMT-115"/>
       <use x="305.761719" xlink:href="#ArialMT-99"/>
       <use x="355.761719" xlink:href="#ArialMT-105"/>
       <use x="377.978516" xlink:href="#ArialMT-101"/>
       <use x="433.59375" xlink:href="#ArialMT-110"/>
       <use x="489.208984" xlink:href="#ArialMT-99"/>
       <use x="539.208984" xlink:href="#ArialMT-101"/>
      </g>
     </g>
    </g>
    <g id="ytick_11">
     <g id="line2d_14">
      <g>
       <use style="fill:#262626;stroke:#262626;" x="343.61125" xlink:href="#m698e3d2472" y="328.273195"/>
      </g>
     </g>
     <g id="text_15">
      <!-- genetics -->
      <g style="fill:#262626;" transform="translate(270.86225 334.57207)scale(0.176 -0.176)">
       <use xlink:href="#ArialMT-103"/>
       <use x="55.615234" xlink:href="#ArialMT-101"/>
       <use x="111.230469" xlink:href="#ArialMT-110"/>
       <use x="166.845703" xlink:href="#ArialMT-101"/>
       <use x="222.460938" xlink:href="#ArialMT-116"/>
       <use x="250.244141" xlink:href="#ArialMT-105"/>
       <use x="272.460938" xlink:href="#ArialMT-99"/>
       <use x="322.460938" xlink:href="#ArialMT-115"/>
      </g>
     </g>
    </g>
    <g id="ytick_12">
     <g id="line2d_15">
      <g>
       <use style="fill:#262626;stroke:#262626;" x="343.61125" xlink:href="#m698e3d2472" y="311.562557"/>
      </g>
     </g>
     <g id="text_16">
      <!-- evolutionary biology -->
      <defs>
       <path d="M 21 0
L 1.265625 51.859375
L 10.546875 51.859375
L 21.6875 20.796875
Q 23.484375 15.765625 25 10.359375
Q 26.171875 14.453125 28.265625 20.21875
L 39.796875 51.859375
L 48.828125 51.859375
L 29.203125 0
z
" id="ArialMT-118"/>
      </defs>
      <g style="fill:#262626;" transform="translate(180.8575 317.861432)scale(0.176 -0.176)">
       <use xlink:href="#ArialMT-101"/>
       <use x="55.615234" xlink:href="#ArialMT-118"/>
       <use x="105.615234" xlink:href="#ArialMT-111"/>
       <use x="161.230469" xlink:href="#ArialMT-108"/>
       <use x="183.447266" xlink:href="#ArialMT-117"/>
       <use x="239.0625" xlink:href="#ArialMT-116"/>
       <use x="266.845703" xlink:href="#ArialMT-105"/>
       <use x="289.0625" xlink:href="#ArialMT-111"/>
       <use x="344.677734" xlink:href="#ArialMT-110"/>
       <use x="400.292969" xlink:href="#ArialMT-97"/>
       <use x="455.908203" xlink:href="#ArialMT-114"/>
       <use x="489.208984" xlink:href="#ArialMT-121"/>
       <use x="539.208984" xlink:href="#ArialMT-32"/>
       <use x="566.992188" xlink:href="#ArialMT-98"/>
       <use x="622.607422" xlink:href="#ArialMT-105"/>
       <use x="644.824219" xlink:href="#ArialMT-111"/>
       <use x="700.439453" xlink:href="#ArialMT-108"/>
       <use x="722.65625" xlink:href="#ArialMT-111"/>
       <use x="778.271484" xlink:href="#ArialMT-103"/>
       <use x="833.886719" xlink:href="#ArialMT-121"/>
      </g>
     </g>
    </g>
    <g id="ytick_13">
     <g id="line2d_16">
      <g>
       <use style="fill:#262626;stroke:#262626;" x="343.61125" xlink:href="#m698e3d2472" y="294.851919"/>
      </g>
     </g>
     <g id="text_17">
      <!-- cell biology -->
      <g style="fill:#262626;" transform="translate(249.3435 301.150794)scale(0.176 -0.176)">
       <use xlink:href="#ArialMT-99"/>
       <use x="50" xlink:href="#ArialMT-101"/>
       <use x="105.615234" xlink:href="#ArialMT-108"/>
       <use x="127.832031" xlink:href="#ArialMT-108"/>
       <use x="150.048828" xlink:href="#ArialMT-32"/>
       <use x="177.832031" xlink:href="#ArialMT-98"/>
       <use x="233.447266" xlink:href="#ArialMT-105"/>
       <use x="255.664062" xlink:href="#ArialMT-111"/>
       <use x="311.279297" xlink:href="#ArialMT-108"/>
       <use x="333.496094" xlink:href="#ArialMT-111"/>
       <use x="389.111328" xlink:href="#ArialMT-103"/>
       <use x="444.726562" xlink:href="#ArialMT-121"/>
      </g>
     </g>
    </g>
    <g id="ytick_14">
     <g id="line2d_17">
      <g>
       <use style="fill:#262626;stroke:#262626;" x="343.61125" xlink:href="#m698e3d2472" y="278.141281"/>
      </g>
     </g>
     <g id="text_18">
      <!-- physiology -->
      <g style="fill:#262626;" transform="translate(253.254 284.440156)scale(0.176 -0.176)">
       <use xlink:href="#ArialMT-112"/>
       <use x="55.615234" xlink:href="#ArialMT-104"/>
       <use x="111.230469" xlink:href="#ArialMT-121"/>
       <use x="161.230469" xlink:href="#ArialMT-115"/>
       <use x="211.230469" xlink:href="#ArialMT-105"/>
       <use x="233.447266" xlink:href="#ArialMT-111"/>
       <use x="289.0625" xlink:href="#ArialMT-108"/>
       <use x="311.279297" xlink:href="#ArialMT-111"/>
       <use x="366.894531" xlink:href="#ArialMT-103"/>
       <use x="422.509766" xlink:href="#ArialMT-121"/>
      </g>
     </g>
    </g>
    <g id="ytick_15">
     <g id="line2d_18">
      <g>
       <use style="fill:#262626;stroke:#262626;" x="343.61125" xlink:href="#m698e3d2472" y="261.430642"/>
      </g>
     </g>
     <g id="text_19">
      <!-- synthetic biology -->
      <g style="fill:#262626;" transform="translate(206.3005 267.729517)scale(0.176 -0.176)">
       <use xlink:href="#ArialMT-115"/>
       <use x="50" xlink:href="#ArialMT-121"/>
       <use x="100" xlink:href="#ArialMT-110"/>
       <use x="155.615234" xlink:href="#ArialMT-116"/>
       <use x="183.398438" xlink:href="#ArialMT-104"/>
       <use x="239.013672" xlink:href="#ArialMT-101"/>
       <use x="294.628906" xlink:href="#ArialMT-116"/>
       <use x="322.412109" xlink:href="#ArialMT-105"/>
       <use x="344.628906" xlink:href="#ArialMT-99"/>
       <use x="394.628906" xlink:href="#ArialMT-32"/>
       <use x="422.412109" xlink:href="#ArialMT-98"/>
       <use x="478.027344" xlink:href="#ArialMT-105"/>
       <use x="500.244141" xlink:href="#ArialMT-111"/>
       <use x="555.859375" xlink:href="#ArialMT-108"/>
       <use x="578.076172" xlink:href="#ArialMT-111"/>
       <use x="633.691406" xlink:href="#ArialMT-103"/>
       <use x="689.306641" xlink:href="#ArialMT-121"/>
      </g>
     </g>
    </g>
    <g id="ytick_16">
     <g id="line2d_19">
      <g>
       <use style="fill:#262626;stroke:#262626;" x="343.61125" xlink:href="#m698e3d2472" y="244.720004"/>
      </g>
     </g>
     <g id="text_20">
      <!-- bioengineering -->
      <g style="fill:#262626;" transform="translate(220.947 251.018879)scale(0.176 -0.176)">
       <use xlink:href="#ArialMT-98"/>
       <use x="55.615234" xlink:href="#ArialMT-105"/>
       <use x="77.832031" xlink:href="#ArialMT-111"/>
       <use x="133.447266" xlink:href="#ArialMT-101"/>
       <use x="189.0625" xlink:href="#ArialMT-110"/>
       <use x="244.677734" xlink:href="#ArialMT-103"/>
       <use x="300.292969" xlink:href="#ArialMT-105"/>
       <use x="322.509766" xlink:href="#ArialMT-110"/>
       <use x="378.125" xlink:href="#ArialMT-101"/>
       <use x="433.740234" xlink:href="#ArialMT-101"/>
       <use x="489.355469" xlink:href="#ArialMT-114"/>
       <use x="522.65625" xlink:href="#ArialMT-105"/>
       <use x="544.873047" xlink:href="#ArialMT-110"/>
       <use x="600.488281" xlink:href="#ArialMT-103"/>
      </g>
     </g>
    </g>
    <g id="ytick_17">
     <g id="line2d_20">
      <g>
       <use style="fill:#262626;stroke:#262626;" x="343.61125" xlink:href="#m698e3d2472" y="228.009366"/>
      </g>
     </g>
     <g id="text_21">
      <!-- developmental biology -->
      <g style="fill:#262626;" transform="translate(161.283 234.308241)scale(0.176 -0.176)">
       <use xlink:href="#ArialMT-100"/>
       <use x="55.615234" xlink:href="#ArialMT-101"/>
       <use x="111.230469" xlink:href="#ArialMT-118"/>
       <use x="161.230469" xlink:href="#ArialMT-101"/>
       <use x="216.845703" xlink:href="#ArialMT-108"/>
       <use x="239.0625" xlink:href="#ArialMT-111"/>
       <use x="294.677734" xlink:href="#ArialMT-112"/>
       <use x="350.292969" xlink:href="#ArialMT-109"/>
       <use x="433.59375" xlink:href="#ArialMT-101"/>
       <use x="489.208984" xlink:href="#ArialMT-110"/>
       <use x="544.824219" xlink:href="#ArialMT-116"/>
       <use x="572.607422" xlink:href="#ArialMT-97"/>
       <use x="628.222656" xlink:href="#ArialMT-108"/>
       <use x="650.439453" xlink:href="#ArialMT-32"/>
       <use x="678.222656" xlink:href="#ArialMT-98"/>
       <use x="733.837891" xlink:href="#ArialMT-105"/>
       <use x="756.054688" xlink:href="#ArialMT-111"/>
       <use x="811.669922" xlink:href="#ArialMT-108"/>
       <use x="833.886719" xlink:href="#ArialMT-111"/>
       <use x="889.501953" xlink:href="#ArialMT-103"/>
       <use x="945.117188" xlink:href="#ArialMT-121"/>
      </g>
     </g>
    </g>
    <g id="ytick_18">
     <g id="line2d_21">
      <g>
       <use style="fill:#262626;stroke:#262626;" x="343.61125" xlink:href="#m698e3d2472" y="211.298727"/>
      </g>
     </g>
     <g id="text_22">
      <!-- pathology -->
      <g style="fill:#262626;" transform="translate(260.08775 217.597602)scale(0.176 -0.176)">
       <use xlink:href="#ArialMT-112"/>
       <use x="55.615234" xlink:href="#ArialMT-97"/>
       <use x="111.230469" xlink:href="#ArialMT-116"/>
       <use x="139.013672" xlink:href="#ArialMT-104"/>
       <use x="194.628906" xlink:href="#ArialMT-111"/>
       <use x="250.244141" xlink:href="#ArialMT-108"/>
       <use x="272.460938" xlink:href="#ArialMT-111"/>
       <use x="328.076172" xlink:href="#ArialMT-103"/>
       <use x="383.691406" xlink:href="#ArialMT-121"/>
      </g>
     </g>
    </g>
    <g id="ytick_19">
     <g id="line2d_22">
      <g>
       <use style="fill:#262626;stroke:#262626;" x="343.61125" xlink:href="#m698e3d2472" y="194.588089"/>
      </g>
     </g>
     <g id="text_23">
      <!-- immunology -->
      <g style="fill:#262626;" transform="translate(241.5335 200.886964)scale(0.176 -0.176)">
       <use xlink:href="#ArialMT-105"/>
       <use x="22.216797" xlink:href="#ArialMT-109"/>
       <use x="105.517578" xlink:href="#ArialMT-109"/>
       <use x="188.818359" xlink:href="#ArialMT-117"/>
       <use x="244.433594" xlink:href="#ArialMT-110"/>
       <use x="300.048828" xlink:href="#ArialMT-111"/>
       <use x="355.664062" xlink:href="#ArialMT-108"/>
       <use x="377.880859" xlink:href="#ArialMT-111"/>
       <use x="433.496094" xlink:href="#ArialMT-103"/>
       <use x="489.111328" xlink:href="#ArialMT-121"/>
      </g>
     </g>
    </g>
    <g id="ytick_20">
     <g id="line2d_23">
      <g>
       <use style="fill:#262626;stroke:#262626;" x="343.61125" xlink:href="#m698e3d2472" y="177.877451"/>
      </g>
     </g>
     <g id="text_24">
      <!-- animal behavior and cognition -->
      <g style="fill:#262626;" transform="translate(102.58425 184.176326)scale(0.176 -0.176)">
       <use xlink:href="#ArialMT-97"/>
       <use x="55.615234" xlink:href="#ArialMT-110"/>
       <use x="111.230469" xlink:href="#ArialMT-105"/>
       <use x="133.447266" xlink:href="#ArialMT-109"/>
       <use x="216.748047" xlink:href="#ArialMT-97"/>
       <use x="272.363281" xlink:href="#ArialMT-108"/>
       <use x="294.580078" xlink:href="#ArialMT-32"/>
       <use x="322.363281" xlink:href="#ArialMT-98"/>
       <use x="377.978516" xlink:href="#ArialMT-101"/>
       <use x="433.59375" xlink:href="#ArialMT-104"/>
       <use x="489.208984" xlink:href="#ArialMT-97"/>
       <use x="544.824219" xlink:href="#ArialMT-118"/>
       <use x="594.824219" xlink:href="#ArialMT-105"/>
       <use x="617.041016" xlink:href="#ArialMT-111"/>
       <use x="672.65625" xlink:href="#ArialMT-114"/>
       <use x="705.957031" xlink:href="#ArialMT-32"/>
       <use x="733.740234" xlink:href="#ArialMT-97"/>
       <use x="789.355469" xlink:href="#ArialMT-110"/>
       <use x="844.970703" xlink:href="#ArialMT-100"/>
       <use x="900.585938" xlink:href="#ArialMT-32"/>
       <use x="928.369141" xlink:href="#ArialMT-99"/>
       <use x="978.369141" xlink:href="#ArialMT-111"/>
       <use x="1033.984375" xlink:href="#ArialMT-103"/>
       <use x="1089.599609" xlink:href="#ArialMT-110"/>
       <use x="1145.214844" xlink:href="#ArialMT-105"/>
       <use x="1167.431641" xlink:href="#ArialMT-116"/>
       <use x="1195.214844" xlink:href="#ArialMT-105"/>
       <use x="1217.431641" xlink:href="#ArialMT-111"/>
       <use x="1273.046875" xlink:href="#ArialMT-110"/>
      </g>
     </g>
    </g>
    <g id="ytick_21">
     <g id="line2d_24">
      <g>
       <use style="fill:#262626;stroke:#262626;" x="343.61125" xlink:href="#m698e3d2472" y="161.166812"/>
      </g>
     </g>
     <g id="text_25">
      <!-- pharmacology -->
      <g style="fill:#262626;" transform="translate(225.8695 167.465687)scale(0.176 -0.176)">
       <use xlink:href="#ArialMT-112"/>
       <use x="55.615234" xlink:href="#ArialMT-104"/>
       <use x="111.230469" xlink:href="#ArialMT-97"/>
       <use x="166.845703" xlink:href="#ArialMT-114"/>
       <use x="200.146484" xlink:href="#ArialMT-109"/>
       <use x="283.447266" xlink:href="#ArialMT-97"/>
       <use x="339.0625" xlink:href="#ArialMT-99"/>
       <use x="389.0625" xlink:href="#ArialMT-111"/>
       <use x="444.677734" xlink:href="#ArialMT-108"/>
       <use x="466.894531" xlink:href="#ArialMT-111"/>
       <use x="522.509766" xlink:href="#ArialMT-103"/>
       <use x="578.125" xlink:href="#ArialMT-121"/>
      </g>
     </g>
    </g>
    <g id="ytick_22">
     <g id="line2d_25">
      <g>
       <use style="fill:#262626;stroke:#262626;" x="343.61125" xlink:href="#m698e3d2472" y="144.456174"/>
      </g>
     </g>
     <g id="text_26">
      <!-- molecular biology -->
      <g style="fill:#262626;" transform="translate(199.46125 150.755049)scale(0.176 -0.176)">
       <use xlink:href="#ArialMT-109"/>
       <use x="83.300781" xlink:href="#ArialMT-111"/>
       <use x="138.916016" xlink:href="#ArialMT-108"/>
       <use x="161.132812" xlink:href="#ArialMT-101"/>
       <use x="216.748047" xlink:href="#ArialMT-99"/>
       <use x="266.748047" xlink:href="#ArialMT-117"/>
       <use x="322.363281" xlink:href="#ArialMT-108"/>
       <use x="344.580078" xlink:href="#ArialMT-97"/>
       <use x="400.195312" xlink:href="#ArialMT-114"/>
       <use x="433.496094" xlink:href="#ArialMT-32"/>
       <use x="461.279297" xlink:href="#ArialMT-98"/>
       <use x="516.894531" xlink:href="#ArialMT-105"/>
       <use x="539.111328" xlink:href="#ArialMT-111"/>
       <use x="594.726562" xlink:href="#ArialMT-108"/>
       <use x="616.943359" xlink:href="#ArialMT-111"/>
       <use x="672.558594" xlink:href="#ArialMT-103"/>
       <use x="728.173828" xlink:href="#ArialMT-121"/>
      </g>
     </g>
    </g>
    <g id="ytick_23">
     <g id="line2d_26">
      <g>
       <use style="fill:#262626;stroke:#262626;" x="343.61125" xlink:href="#m698e3d2472" y="127.745536"/>
      </g>
     </g>
     <g id="text_27">
      <!-- plant biology -->
      <g style="fill:#262626;" transform="translate(237.59 134.044411)scale(0.176 -0.176)">
       <use xlink:href="#ArialMT-112"/>
       <use x="55.615234" xlink:href="#ArialMT-108"/>
       <use x="77.832031" xlink:href="#ArialMT-97"/>
       <use x="133.447266" xlink:href="#ArialMT-110"/>
       <use x="189.0625" xlink:href="#ArialMT-116"/>
       <use x="216.845703" xlink:href="#ArialMT-32"/>
       <use x="244.628906" xlink:href="#ArialMT-98"/>
       <use x="300.244141" xlink:href="#ArialMT-105"/>
       <use x="322.460938" xlink:href="#ArialMT-111"/>
       <use x="378.076172" xlink:href="#ArialMT-108"/>
       <use x="400.292969" xlink:href="#ArialMT-111"/>
       <use x="455.908203" xlink:href="#ArialMT-103"/>
       <use x="511.523438" xlink:href="#ArialMT-121"/>
      </g>
     </g>
    </g>
    <g id="ytick_24">
     <g id="line2d_27">
      <g>
       <use style="fill:#262626;stroke:#262626;" x="343.61125" xlink:href="#m698e3d2472" y="111.034898"/>
      </g>
     </g>
     <g id="text_28">
      <!-- clinical trials -->
      <g style="fill:#262626;" transform="translate(241.54725 117.333773)scale(0.176 -0.176)">
       <use xlink:href="#ArialMT-99"/>
       <use x="50" xlink:href="#ArialMT-108"/>
       <use x="72.216797" xlink:href="#ArialMT-105"/>
       <use x="94.433594" xlink:href="#ArialMT-110"/>
       <use x="150.048828" xlink:href="#ArialMT-105"/>
       <use x="172.265625" xlink:href="#ArialMT-99"/>
       <use x="222.265625" xlink:href="#ArialMT-97"/>
       <use x="277.880859" xlink:href="#ArialMT-108"/>
       <use x="300.097656" xlink:href="#ArialMT-32"/>
       <use x="327.880859" xlink:href="#ArialMT-116"/>
       <use x="355.664062" xlink:href="#ArialMT-114"/>
       <use x="388.964844" xlink:href="#ArialMT-105"/>
       <use x="411.181641" xlink:href="#ArialMT-97"/>
       <use x="466.796875" xlink:href="#ArialMT-108"/>
       <use x="489.013672" xlink:href="#ArialMT-115"/>
      </g>
     </g>
    </g>
    <g id="ytick_25">
     <g id="line2d_28">
      <g>
       <use style="fill:#262626;stroke:#262626;" x="343.61125" xlink:href="#m698e3d2472" y="94.324259"/>
      </g>
     </g>
     <g id="text_29">
      <!-- biophysics -->
      <g style="fill:#262626;" transform="translate(254.24125 100.623134)scale(0.176 -0.176)">
       <use xlink:href="#ArialMT-98"/>
       <use x="55.615234" xlink:href="#ArialMT-105"/>
       <use x="77.832031" xlink:href="#ArialMT-111"/>
       <use x="133.447266" xlink:href="#ArialMT-112"/>
       <use x="189.0625" xlink:href="#ArialMT-104"/>
       <use x="244.677734" xlink:href="#ArialMT-121"/>
       <use x="294.677734" xlink:href="#ArialMT-115"/>
       <use x="344.677734" xlink:href="#ArialMT-105"/>
       <use x="366.894531" xlink:href="#ArialMT-99"/>
       <use x="416.894531" xlink:href="#ArialMT-115"/>
      </g>
     </g>
    </g>
    <g id="ytick_26">
     <g id="line2d_29">
      <g>
       <use style="fill:#262626;stroke:#262626;" x="343.61125" xlink:href="#m698e3d2472" y="77.613621"/>
      </g>
     </g>
     <g id="text_30">
      <!-- biochemistry -->
      <g style="fill:#262626;" transform="translate(237.63125 83.912496)scale(0.176 -0.176)">
       <use xlink:href="#ArialMT-98"/>
       <use x="55.615234" xlink:href="#ArialMT-105"/>
       <use x="77.832031" xlink:href="#ArialMT-111"/>
       <use x="133.447266" xlink:href="#ArialMT-99"/>
       <use x="183.447266" xlink:href="#ArialMT-104"/>
       <use x="239.0625" xlink:href="#ArialMT-101"/>
       <use x="294.677734" xlink:href="#ArialMT-109"/>
       <use x="377.978516" xlink:href="#ArialMT-105"/>
       <use x="400.195312" xlink:href="#ArialMT-115"/>
       <use x="450.195312" xlink:href="#ArialMT-116"/>
       <use x="477.978516" xlink:href="#ArialMT-114"/>
       <use x="511.279297" xlink:href="#ArialMT-121"/>
      </g>
     </g>
    </g>
    <g id="ytick_27">
     <g id="line2d_30">
      <g>
       <use style="fill:#262626;stroke:#262626;" x="343.61125" xlink:href="#m698e3d2472" y="60.902983"/>
      </g>
     </g>
     <g id="text_31">
      <!-- microbiology -->
      <g style="fill:#262626;" transform="translate(237.623 67.201858)scale(0.176 -0.176)">
       <use xlink:href="#ArialMT-109"/>
       <use x="83.300781" xlink:href="#ArialMT-105"/>
       <use x="105.517578" xlink:href="#ArialMT-99"/>
       <use x="155.517578" xlink:href="#ArialMT-114"/>
       <use x="188.818359" xlink:href="#ArialMT-111"/>
       <use x="244.433594" xlink:href="#ArialMT-98"/>
       <use x="300.048828" xlink:href="#ArialMT-105"/>
       <use x="322.265625" xlink:href="#ArialMT-111"/>
       <use x="377.880859" xlink:href="#ArialMT-108"/>
       <use x="400.097656" xlink:href="#ArialMT-111"/>
       <use x="455.712891" xlink:href="#ArialMT-103"/>
       <use x="511.328125" xlink:href="#ArialMT-121"/>
      </g>
     </g>
    </g>
    <g id="ytick_28">
     <g id="line2d_31">
      <g>
       <use style="fill:#262626;stroke:#262626;" x="343.61125" xlink:href="#m698e3d2472" y="44.192344"/>
      </g>
     </g>
     <g id="text_32">
      <!-- zoology -->
      <defs>
       <path d="M 1.953125 0
L 1.953125 7.125
L 34.96875 45.015625
Q 29.34375 44.734375 25.046875 44.734375
L 3.90625 44.734375
L 3.90625 51.859375
L 46.296875 51.859375
L 46.296875 46.046875
L 18.21875 13.140625
L 12.796875 7.125
Q 18.703125 7.5625 23.875 7.5625
L 47.859375 7.5625
L 47.859375 0
z
" id="ArialMT-122"/>
      </defs>
      <g style="fill:#262626;" transform="translate(275.75175 50.491219)scale(0.176 -0.176)">
       <use xlink:href="#ArialMT-122"/>
       <use x="50" xlink:href="#ArialMT-111"/>
       <use x="105.615234" xlink:href="#ArialMT-111"/>
       <use x="161.230469" xlink:href="#ArialMT-108"/>
       <use x="183.447266" xlink:href="#ArialMT-111"/>
       <use x="239.0625" xlink:href="#ArialMT-103"/>
       <use x="294.677734" xlink:href="#ArialMT-121"/>
      </g>
     </g>
    </g>
    <g id="text_33">
     <!-- Preprint Categories -->
     <defs>
      <path d="M 58.796875 25.09375
L 68.265625 22.703125
Q 65.28125 11.03125 57.546875 4.90625
Q 49.8125 -1.21875 38.625 -1.21875
Q 27.046875 -1.21875 19.796875 3.484375
Q 12.546875 8.203125 8.765625 17.140625
Q 4.984375 26.078125 4.984375 36.328125
Q 4.984375 47.515625 9.25 55.828125
Q 13.53125 64.15625 21.40625 68.46875
Q 29.296875 72.796875 38.765625 72.796875
Q 49.515625 72.796875 56.828125 67.328125
Q 64.15625 61.859375 67.046875 51.953125
L 57.71875 49.75
Q 55.21875 57.5625 50.484375 61.125
Q 45.75 64.703125 38.578125 64.703125
Q 30.328125 64.703125 24.78125 60.734375
Q 19.234375 56.78125 16.984375 50.109375
Q 14.75 43.453125 14.75 36.375
Q 14.75 27.25 17.40625 20.4375
Q 20.0625 13.625 25.671875 10.25
Q 31.296875 6.890625 37.84375 6.890625
Q 45.796875 6.890625 51.3125 11.46875
Q 56.84375 16.0625 58.796875 25.09375
z
" id="ArialMT-67"/>
     </defs>
     <g style="fill:#262626;" transform="translate(21.177 349.426961)rotate(-90)scale(0.192 -0.192)">
      <use xlink:href="#ArialMT-80"/>
      <use x="66.699219" xlink:href="#ArialMT-114"/>
      <use x="100" xlink:href="#ArialMT-101"/>
      <use x="155.615234" xlink:href="#ArialMT-112"/>
      <use x="211.230469" xlink:href="#ArialMT-114"/>
      <use x="244.53125" xlink:href="#ArialMT-105"/>
      <use x="266.748047" xlink:href="#ArialMT-110"/>
      <use x="322.363281" xlink:href="#ArialMT-116"/>
      <use x="350.146484" xlink:href="#ArialMT-32"/>
      <use x="377.929688" xlink:href="#ArialMT-67"/>
      <use x="450.146484" xlink:href="#ArialMT-97"/>
      <use x="505.761719" xlink:href="#ArialMT-116"/>
      <use x="533.544922" xlink:href="#ArialMT-101"/>
      <use x="589.160156" xlink:href="#ArialMT-103"/>
      <use x="644.775391" xlink:href="#ArialMT-111"/>
      <use x="700.390625" xlink:href="#ArialMT-114"/>
      <use x="733.691406" xlink:href="#ArialMT-105"/>
      <use x="755.908203" xlink:href="#ArialMT-101"/>
      <use x="811.523438" xlink:href="#ArialMT-115"/>
     </g>
    </g>
   </g>
   <g id="PolyCollection_1">
    <path clip-path="url(#p2756ac78b2)" d="M 371.51125 502.899366
L 371.51125 487.859791
L 894.460999 487.859791
L 894.460999 502.899366
z
" style="fill:#1f78b4;"/>
    <path clip-path="url(#p2756ac78b2)" d="M 371.51125 486.188727
L 371.51125 471.149153
L 660.32532 471.149153
L 660.32532 486.188727
z
" style="fill:#1f78b4;"/>
    <path clip-path="url(#p2756ac78b2)" d="M 371.51125 469.478089
L 371.51125 454.438515
L 637.89316 454.438515
L 637.89316 469.478089
z
" style="fill:#1f78b4;"/>
    <path clip-path="url(#p2756ac78b2)" d="M 371.51125 452.767451
L 371.51125 437.727876
L 637.89316 437.727876
L 637.89316 452.767451
z
" style="fill:#1f78b4;"/>
    <path clip-path="url(#p2756ac78b2)" d="M 371.51125 436.056812
L 371.51125 421.017238
L 635.089139 421.017238
L 635.089139 436.056812
z
" style="fill:#1f78b4;"/>
    <path clip-path="url(#p2756ac78b2)" d="M 371.51125 419.346174
L 371.51125 404.3066
L 632.285119 404.3066
L 632.285119 419.346174
z
" style="fill:#1f78b4;"/>
    <path clip-path="url(#p2756ac78b2)" d="M 371.51125 402.635536
L 371.51125 387.595961
L 628.079089 387.595961
L 628.079089 402.635536
z
" style="fill:#1f78b4;"/>
    <path clip-path="url(#p2756ac78b2)" d="M 371.51125 385.924898
L 371.51125 370.885323
L 628.079089 370.885323
L 628.079089 385.924898
z
" style="fill:#1f78b4;"/>
    <path clip-path="url(#p2756ac78b2)" d="M 371.51125 369.214259
L 371.51125 354.174685
L 626.677079 354.174685
L 626.677079 369.214259
z
" style="fill:#1f78b4;"/>
    <path clip-path="url(#p2756ac78b2)" d="M 371.51125 352.503621
L 371.51125 337.464047
L 622.471049 337.464047
L 622.471049 352.503621
z
" style="fill:#1f78b4;"/>
    <path clip-path="url(#p2756ac78b2)" d="M 371.51125 335.792983
L 371.51125 320.753408
L 616.863009 320.753408
L 616.863009 335.792983
z
" style="fill:#1f78b4;"/>
    <path clip-path="url(#p2756ac78b2)" d="M 371.51125 319.082344
L 371.51125 304.04277
L 612.656979 304.04277
L 612.656979 319.082344
z
" style="fill:#1f78b4;"/>
    <path clip-path="url(#p2756ac78b2)" d="M 371.51125 302.371706
L 371.51125 287.332132
L 611.254969 287.332132
L 611.254969 302.371706
z
" style="fill:#1f78b4;"/>
    <path clip-path="url(#p2756ac78b2)" d="M 371.51125 285.661068
L 371.51125 270.621493
L 607.048938 270.621493
L 607.048938 285.661068
z
" style="fill:#1f78b4;"/>
    <path clip-path="url(#p2756ac78b2)" d="M 371.51125 268.950429
L 371.51125 253.910855
L 607.048938 253.910855
L 607.048938 268.950429
z
" style="fill:#1f78b4;"/>
    <path clip-path="url(#p2756ac78b2)" d="M 371.51125 252.239791
L 371.51125 237.200217
L 604.244918 237.200217
L 604.244918 252.239791
z
" style="fill:#1f78b4;"/>
    <path clip-path="url(#p2756ac78b2)" d="M 371.51125 235.529153
L 371.51125 220.489578
L 602.842908 220.489578
L 602.842908 235.529153
z
" style="fill:#1f78b4;"/>
    <path clip-path="url(#p2756ac78b2)" d="M 371.51125 218.818515
L 371.51125 203.77894
L 595.832858 203.77894
L 595.832858 218.818515
z
" style="fill:#1f78b4;"/>
    <path clip-path="url(#p2756ac78b2)" d="M 371.51125 202.107876
L 371.51125 187.068302
L 595.832858 187.068302
L 595.832858 202.107876
z
" style="fill:#1f78b4;"/>
    <path clip-path="url(#p2756ac78b2)" d="M 371.51125 185.397238
L 371.51125 170.357664
L 594.430848 170.357664
L 594.430848 185.397238
z
" style="fill:#1f78b4;"/>
    <path clip-path="url(#p2756ac78b2)" d="M 371.51125 168.6866
L 371.51125 153.647025
L 591.626828 153.647025
L 591.626828 168.6866
z
" style="fill:#1f78b4;"/>
    <path clip-path="url(#p2756ac78b2)" d="M 371.51125 151.975961
L 371.51125 136.936387
L 583.214768 136.936387
L 583.214768 151.975961
z
" style="fill:#1f78b4;"/>
    <path clip-path="url(#p2756ac78b2)" d="M 371.51125 135.265323
L 371.51125 120.225749
L 581.812758 120.225749
L 581.812758 135.265323
z
" style="fill:#1f78b4;"/>
    <path clip-path="url(#p2756ac78b2)" d="M 371.51125 118.554685
L 371.51125 103.51511
L 576.204717 103.51511
L 576.204717 118.554685
z
" style="fill:#1f78b4;"/>
    <path clip-path="url(#p2756ac78b2)" d="M 371.51125 101.844047
L 371.51125 86.804472
L 576.204717 86.804472
L 576.204717 101.844047
z
" style="fill:#1f78b4;"/>
    <path clip-path="url(#p2756ac78b2)" d="M 371.51125 85.133408
L 371.51125 70.093834
L 570.596677 70.093834
L 570.596677 85.133408
z
" style="fill:#1f78b4;"/>
    <path clip-path="url(#p2756ac78b2)" d="M 371.51125 68.42277
L 371.51125 53.383195
L 567.792657 53.383195
L 567.792657 68.42277
z
" style="fill:#1f78b4;"/>
    <path clip-path="url(#p2756ac78b2)" d="M 371.51125 51.712132
L 371.51125 36.672557
L 560.782607 36.672557
L 560.782607 51.712132
z
" style="fill:#1f78b4;"/>
   </g>
   <g id="LineCollection_1">
    <path clip-path="url(#p2756ac78b2)" d="M 577.606727 182.05511
L 577.606727 173.699791
" style="fill:none;stroke:#000000;stroke-width:0.886227;"/>
    <path clip-path="url(#p2756ac78b2)" d="M 616.863009 182.05511
L 616.863009 173.699791
" style="fill:none;stroke:#000000;stroke-width:0.886227;"/>
    <path clip-path="url(#p2756ac78b2)" d="M 616.863009 177.877451
L 577.606727 177.877451
" style="fill:none;stroke:#000000;stroke-width:0.886227;"/>
   </g>
   <g id="LineCollection_2">
    <path clip-path="url(#p2756ac78b2)" d="M 562.184617 81.791281
L 562.184617 73.435961
" style="fill:none;stroke:#000000;stroke-width:0.886227;"/>
    <path clip-path="url(#p2756ac78b2)" d="M 583.214768 81.791281
L 583.214768 73.435961
" style="fill:none;stroke:#000000;stroke-width:0.886227;"/>
    <path clip-path="url(#p2756ac78b2)" d="M 583.214768 77.613621
L 562.184617 77.613621
" style="fill:none;stroke:#000000;stroke-width:0.886227;"/>
   </g>
   <g id="LineCollection_3">
    <path clip-path="url(#p2756ac78b2)" d="M 587.420798 248.897664
L 587.420798 240.542344
" style="fill:none;stroke:#000000;stroke-width:0.886227;"/>
    <path clip-path="url(#p2756ac78b2)" d="M 623.873059 248.897664
L 623.873059 240.542344
" style="fill:none;stroke:#000000;stroke-width:0.886227;"/>
    <path clip-path="url(#p2756ac78b2)" d="M 623.873059 244.720004
L 587.420798 244.720004
" style="fill:none;stroke:#000000;stroke-width:0.886227;"/>
   </g>
   <g id="LineCollection_4">
    <path clip-path="url(#p2756ac78b2)" d="M 625.275069 416.004047
L 625.275069 407.648727
" style="fill:none;stroke:#000000;stroke-width:0.886227;"/>
    <path clip-path="url(#p2756ac78b2)" d="M 640.69718 416.004047
L 640.69718 407.648727
" style="fill:none;stroke:#000000;stroke-width:0.886227;"/>
    <path clip-path="url(#p2756ac78b2)" d="M 640.69718 411.826387
L 625.275069 411.826387
" style="fill:none;stroke:#000000;stroke-width:0.886227;"/>
   </g>
   <g id="LineCollection_5">
    <path clip-path="url(#p2756ac78b2)" d="M 567.792657 98.501919
L 567.792657 90.1466
" style="fill:none;stroke:#000000;stroke-width:0.886227;"/>
    <path clip-path="url(#p2756ac78b2)" d="M 587.420798 98.501919
L 587.420798 90.1466
" style="fill:none;stroke:#000000;stroke-width:0.886227;"/>
    <path clip-path="url(#p2756ac78b2)" d="M 587.420798 94.324259
L 567.792657 94.324259
" style="fill:none;stroke:#000000;stroke-width:0.886227;"/>
   </g>
   <g id="LineCollection_6">
    <path clip-path="url(#p2756ac78b2)" d="M 614.058989 382.58277
L 614.058989 374.227451
" style="fill:none;stroke:#000000;stroke-width:0.886227;"/>
    <path clip-path="url(#p2756ac78b2)" d="M 642.09919 382.58277
L 642.09919 374.227451
" style="fill:none;stroke:#000000;stroke-width:0.886227;"/>
    <path clip-path="url(#p2756ac78b2)" d="M 642.09919 378.40511
L 614.058989 378.40511
" style="fill:none;stroke:#000000;stroke-width:0.886227;"/>
   </g>
   <g id="LineCollection_7">
    <path clip-path="url(#p2756ac78b2)" d="M 602.842908 299.029578
L 602.842908 290.674259
" style="fill:none;stroke:#000000;stroke-width:0.886227;"/>
    <path clip-path="url(#p2756ac78b2)" d="M 618.265019 299.029578
L 618.265019 290.674259
" style="fill:none;stroke:#000000;stroke-width:0.886227;"/>
    <path clip-path="url(#p2756ac78b2)" d="M 618.265019 294.851919
L 602.842908 294.851919
" style="fill:none;stroke:#000000;stroke-width:0.886227;"/>
   </g>
   <g id="LineCollection_8">
    <path clip-path="url(#p2756ac78b2)" d="M 527.134366 115.212557
L 527.134366 106.857238
" style="fill:none;stroke:#000000;stroke-width:0.886227;"/>
    <path clip-path="url(#p2756ac78b2)" d="M 656.11929 115.212557
L 656.11929 106.857238
" style="fill:none;stroke:#000000;stroke-width:0.886227;"/>
    <path clip-path="url(#p2756ac78b2)" d="M 656.11929 111.034898
L 527.134366 111.034898
" style="fill:none;stroke:#000000;stroke-width:0.886227;"/>
   </g>
   <g id="LineCollection_9">
    <path clip-path="url(#p2756ac78b2)" d="M 595.832858 232.187025
L 595.832858 223.831706
" style="fill:none;stroke:#000000;stroke-width:0.886227;"/>
    <path clip-path="url(#p2756ac78b2)" d="M 615.460999 232.187025
L 615.460999 223.831706
" style="fill:none;stroke:#000000;stroke-width:0.886227;"/>
    <path clip-path="url(#p2756ac78b2)" d="M 615.460999 228.009366
L 595.832858 228.009366
" style="fill:none;stroke:#000000;stroke-width:0.886227;"/>
   </g>
   <g id="LineCollection_10">
    <path clip-path="url(#p2756ac78b2)" d="M 612.656979 365.872132
L 612.656979 357.516812
" style="fill:none;stroke:#000000;stroke-width:0.886227;"/>
    <path clip-path="url(#p2756ac78b2)" d="M 637.89316 365.872132
L 637.89316 357.516812
" style="fill:none;stroke:#000000;stroke-width:0.886227;"/>
    <path clip-path="url(#p2756ac78b2)" d="M 637.89316 361.694472
L 612.656979 361.694472
" style="fill:none;stroke:#000000;stroke-width:0.886227;"/>
   </g>
   <g id="LineCollection_11">
    <path clip-path="url(#p2756ac78b2)" d="M 621.069039 432.714685
L 621.069039 424.359366
" style="fill:none;stroke:#000000;stroke-width:0.886227;"/>
    <path clip-path="url(#p2756ac78b2)" d="M 651.91326 432.714685
L 651.91326 424.359366
" style="fill:none;stroke:#000000;stroke-width:0.886227;"/>
    <path clip-path="url(#p2756ac78b2)" d="M 651.91326 428.537025
L 621.069039 428.537025
" style="fill:none;stroke:#000000;stroke-width:0.886227;"/>
   </g>
   <g id="LineCollection_12">
    <path clip-path="url(#p2756ac78b2)" d="M 602.842908 315.740217
L 602.842908 307.384898
" style="fill:none;stroke:#000000;stroke-width:0.886227;"/>
    <path clip-path="url(#p2756ac78b2)" d="M 622.471049 315.740217
L 622.471049 307.384898
" style="fill:none;stroke:#000000;stroke-width:0.886227;"/>
    <path clip-path="url(#p2756ac78b2)" d="M 622.471049 311.562557
L 602.842908 311.562557
" style="fill:none;stroke:#000000;stroke-width:0.886227;"/>
   </g>
   <g id="LineCollection_13">
    <path clip-path="url(#p2756ac78b2)" d="M 608.450948 332.450855
L 608.450948 324.095536
" style="fill:none;stroke:#000000;stroke-width:0.886227;"/>
    <path clip-path="url(#p2756ac78b2)" d="M 625.275069 332.450855
L 625.275069 324.095536
" style="fill:none;stroke:#000000;stroke-width:0.886227;"/>
    <path clip-path="url(#p2756ac78b2)" d="M 625.275069 328.273195
L 608.450948 328.273195
" style="fill:none;stroke:#000000;stroke-width:0.886227;"/>
   </g>
   <g id="LineCollection_14">
    <path clip-path="url(#p2756ac78b2)" d="M 630.883109 466.135961
L 630.883109 457.780642
" style="fill:none;stroke:#000000;stroke-width:0.886227;"/>
    <path clip-path="url(#p2756ac78b2)" d="M 644.90321 466.135961
L 644.90321 457.780642
" style="fill:none;stroke:#000000;stroke-width:0.886227;"/>
    <path clip-path="url(#p2756ac78b2)" d="M 644.90321 461.958302
L 630.883109 461.958302
" style="fill:none;stroke:#000000;stroke-width:0.886227;"/>
   </g>
   <g id="LineCollection_15">
    <path clip-path="url(#p2756ac78b2)" d="M 583.214768 198.765749
L 583.214768 190.410429
" style="fill:none;stroke:#000000;stroke-width:0.886227;"/>
    <path clip-path="url(#p2756ac78b2)" d="M 608.450948 198.765749
L 608.450948 190.410429
" style="fill:none;stroke:#000000;stroke-width:0.886227;"/>
    <path clip-path="url(#p2756ac78b2)" d="M 608.450948 194.588089
L 583.214768 194.588089
" style="fill:none;stroke:#000000;stroke-width:0.886227;"/>
   </g>
   <g id="LineCollection_16">
    <path clip-path="url(#p2756ac78b2)" d="M 563.586627 65.080642
L 563.586627 56.725323
" style="fill:none;stroke:#000000;stroke-width:0.886227;"/>
    <path clip-path="url(#p2756ac78b2)" d="M 574.802707 65.080642
L 574.802707 56.725323
" style="fill:none;stroke:#000000;stroke-width:0.886227;"/>
    <path clip-path="url(#p2756ac78b2)" d="M 574.802707 60.902983
L 563.586627 60.902983
" style="fill:none;stroke:#000000;stroke-width:0.886227;"/>
   </g>
   <g id="LineCollection_17">
    <path clip-path="url(#p2756ac78b2)" d="M 571.998687 148.633834
L 571.998687 140.278515
" style="fill:none;stroke:#000000;stroke-width:0.886227;"/>
    <path clip-path="url(#p2756ac78b2)" d="M 595.832858 148.633834
L 595.832858 140.278515
" style="fill:none;stroke:#000000;stroke-width:0.886227;"/>
    <path clip-path="url(#p2756ac78b2)" d="M 595.832858 144.456174
L 571.998687 144.456174
" style="fill:none;stroke:#000000;stroke-width:0.886227;"/>
   </g>
   <g id="LineCollection_18">
    <path clip-path="url(#p2756ac78b2)" d="M 616.863009 349.161493
L 616.863009 340.806174
" style="fill:none;stroke:#000000;stroke-width:0.886227;"/>
    <path clip-path="url(#p2756ac78b2)" d="M 628.079089 349.161493
L 628.079089 340.806174
" style="fill:none;stroke:#000000;stroke-width:0.886227;"/>
    <path clip-path="url(#p2756ac78b2)" d="M 628.079089 344.983834
L 616.863009 344.983834
" style="fill:none;stroke:#000000;stroke-width:0.886227;"/>
   </g>
   <g id="LineCollection_19">
    <path clip-path="url(#p2756ac78b2)" d="M 591.626828 449.425323
L 591.626828 441.070004
" style="fill:none;stroke:#000000;stroke-width:0.886227;"/>
    <path clip-path="url(#p2756ac78b2)" d="M 692.571552 449.425323
L 692.571552 441.070004
" style="fill:none;stroke:#000000;stroke-width:0.886227;"/>
    <path clip-path="url(#p2756ac78b2)" d="M 692.571552 445.247664
L 591.626828 445.247664
" style="fill:none;stroke:#000000;stroke-width:0.886227;"/>
   </g>
   <g id="LineCollection_20">
    <path clip-path="url(#p2756ac78b2)" d="M 556.576577 215.476387
L 556.576577 207.121068
" style="fill:none;stroke:#000000;stroke-width:0.886227;"/>
    <path clip-path="url(#p2756ac78b2)" d="M 628.079089 215.476387
L 628.079089 207.121068
" style="fill:none;stroke:#000000;stroke-width:0.886227;"/>
    <path clip-path="url(#p2756ac78b2)" d="M 628.079089 211.298727
L 556.576577 211.298727
" style="fill:none;stroke:#000000;stroke-width:0.886227;"/>
   </g>
   <g id="LineCollection_21">
    <path clip-path="url(#p2756ac78b2)" d="M 570.596677 165.344472
L 570.596677 156.989153
" style="fill:none;stroke:#000000;stroke-width:0.886227;"/>
    <path clip-path="url(#p2756ac78b2)" d="M 618.265019 165.344472
L 618.265019 156.989153
" style="fill:none;stroke:#000000;stroke-width:0.886227;"/>
    <path clip-path="url(#p2756ac78b2)" d="M 618.265019 161.166812
L 570.596677 161.166812
" style="fill:none;stroke:#000000;stroke-width:0.886227;"/>
   </g>
   <g id="LineCollection_22">
    <path clip-path="url(#p2756ac78b2)" d="M 580.410747 282.31894
L 580.410747 273.963621
" style="fill:none;stroke:#000000;stroke-width:0.886227;"/>
    <path clip-path="url(#p2756ac78b2)" d="M 626.677079 282.31894
L 626.677079 273.963621
" style="fill:none;stroke:#000000;stroke-width:0.886227;"/>
    <path clip-path="url(#p2756ac78b2)" d="M 626.677079 278.141281
L 580.410747 278.141281
" style="fill:none;stroke:#000000;stroke-width:0.886227;"/>
   </g>
   <g id="LineCollection_23">
    <path clip-path="url(#p2756ac78b2)" d="M 571.998687 131.923195
L 571.998687 123.567876
" style="fill:none;stroke:#000000;stroke-width:0.886227;"/>
    <path clip-path="url(#p2756ac78b2)" d="M 594.430848 131.923195
L 594.430848 123.567876
" style="fill:none;stroke:#000000;stroke-width:0.886227;"/>
    <path clip-path="url(#p2756ac78b2)" d="M 594.430848 127.745536
L 571.998687 127.745536
" style="fill:none;stroke:#000000;stroke-width:0.886227;"/>
   </g>
   <g id="LineCollection_24">
    <path clip-path="url(#p2756ac78b2)" d="M 609.852959 399.293408
L 609.852959 390.938089
" style="fill:none;stroke:#000000;stroke-width:0.886227;"/>
    <path clip-path="url(#p2756ac78b2)" d="M 650.51125 399.293408
L 650.51125 390.938089
" style="fill:none;stroke:#000000;stroke-width:0.886227;"/>
    <path clip-path="url(#p2756ac78b2)" d="M 650.51125 395.115749
L 609.852959 395.115749
" style="fill:none;stroke:#000000;stroke-width:0.886227;"/>
   </g>
   <g id="LineCollection_25">
    <path clip-path="url(#p2756ac78b2)" d="M 894.460999 499.557238
L 894.460999 491.201919
" style="fill:none;stroke:#000000;stroke-width:0.886227;"/>
    <path clip-path="url(#p2756ac78b2)" d="M 929.51125 499.557238
L 929.51125 491.201919
" style="fill:none;stroke:#000000;stroke-width:0.886227;"/>
    <path clip-path="url(#p2756ac78b2)" d="M 929.51125 495.379578
L 894.460999 495.379578
" style="fill:none;stroke:#000000;stroke-width:0.886227;"/>
   </g>
   <g id="LineCollection_26">
    <path clip-path="url(#p2756ac78b2)" d="M 591.626828 265.608302
L 591.626828 257.252983
" style="fill:none;stroke:#000000;stroke-width:0.886227;"/>
    <path clip-path="url(#p2756ac78b2)" d="M 628.079089 265.608302
L 628.079089 257.252983
" style="fill:none;stroke:#000000;stroke-width:0.886227;"/>
    <path clip-path="url(#p2756ac78b2)" d="M 628.079089 261.430642
L 591.626828 261.430642
" style="fill:none;stroke:#000000;stroke-width:0.886227;"/>
   </g>
   <g id="LineCollection_27">
    <path clip-path="url(#p2756ac78b2)" d="M 644.90321 482.8466
L 644.90321 474.491281
" style="fill:none;stroke:#000000;stroke-width:0.886227;"/>
    <path clip-path="url(#p2756ac78b2)" d="M 677.149441 482.8466
L 677.149441 474.491281
" style="fill:none;stroke:#000000;stroke-width:0.886227;"/>
    <path clip-path="url(#p2756ac78b2)" d="M 677.149441 478.66894
L 644.90321 478.66894
" style="fill:none;stroke:#000000;stroke-width:0.886227;"/>
   </g>
   <g id="LineCollection_28">
    <path clip-path="url(#p2756ac78b2)" d="M 549.566526 48.370004
L 549.566526 40.014685
" style="fill:none;stroke:#000000;stroke-width:0.886227;"/>
    <path clip-path="url(#p2756ac78b2)" d="M 590.224818 48.370004
L 590.224818 40.014685
" style="fill:none;stroke:#000000;stroke-width:0.886227;"/>
    <path clip-path="url(#p2756ac78b2)" d="M 590.224818 44.192344
L 549.566526 44.192344
" style="fill:none;stroke:#000000;stroke-width:0.886227;"/>
   </g>
   <g id="patch_3">
    <path d="M 343.61125 505.405961
L 343.61125 34.165961
" style="fill:none;stroke:#262626;stroke-linecap:square;stroke-linejoin:miter;"/>
   </g>
   <g id="patch_4">
    <path d="M 957.41125 505.405961
L 957.41125 34.165961
" style="fill:none;stroke:#262626;stroke-linecap:square;stroke-linejoin:miter;"/>
   </g>
   <g id="patch_5">
    <path d="M 343.61125 505.405961
L 957.41125 505.405961
" style="fill:none;stroke:#262626;stroke-linecap:square;stroke-linejoin:miter;"/>
   </g>
   <g id="patch_6">
    <path d="M 343.61125 34.165961
L 957.41125 34.165961
" style="fill:none;stroke:#262626;stroke-linecap:square;stroke-linejoin:miter;"/>
   </g>
  </g>
  <g id="text_34">
   <!-- Preprint Category Half-Life -->
   <defs>
    <path d="M 8.015625 0
L 8.015625 71.578125
L 17.484375 71.578125
L 17.484375 42.1875
L 54.6875 42.1875
L 54.6875 71.578125
L 64.15625 71.578125
L 64.15625 0
L 54.6875 0
L 54.6875 33.734375
L 17.484375 33.734375
L 17.484375 0
z
" id="ArialMT-72"/>
    <path d="M 3.171875 21.484375
L 3.171875 30.328125
L 30.171875 30.328125
L 30.171875 21.484375
z
" id="ArialMT-45"/>
    <path d="M 7.328125 0
L 7.328125 71.578125
L 16.796875 71.578125
L 16.796875 8.453125
L 52.046875 8.453125
L 52.046875 0
z
" id="ArialMT-76"/>
   </defs>
   <g style="fill:#262626;" transform="translate(526.96975 21.177)scale(0.192 -0.192)">
    <use xlink:href="#ArialMT-80"/>
    <use x="66.699219" xlink:href="#ArialMT-114"/>
    <use x="100" xlink:href="#ArialMT-101"/>
    <use x="155.615234" xlink:href="#ArialMT-112"/>
    <use x="211.230469" xlink:href="#ArialMT-114"/>
    <use x="244.53125" xlink:href="#ArialMT-105"/>
    <use x="266.748047" xlink:href="#ArialMT-110"/>
    <use x="322.363281" xlink:href="#ArialMT-116"/>
    <use x="350.146484" xlink:href="#ArialMT-32"/>
    <use x="377.929688" xlink:href="#ArialMT-67"/>
    <use x="450.146484" xlink:href="#ArialMT-97"/>
    <use x="505.761719" xlink:href="#ArialMT-116"/>
    <use x="533.544922" xlink:href="#ArialMT-101"/>
    <use x="589.160156" xlink:href="#ArialMT-103"/>
    <use x="644.775391" xlink:href="#ArialMT-111"/>
    <use x="700.390625" xlink:href="#ArialMT-114"/>
    <use x="733.691406" xlink:href="#ArialMT-121"/>
    <use x="783.691406" xlink:href="#ArialMT-32"/>
    <use x="811.474609" xlink:href="#ArialMT-72"/>
    <use x="883.691406" xlink:href="#ArialMT-97"/>
    <use x="939.306641" xlink:href="#ArialMT-108"/>
    <use x="961.523438" xlink:href="#ArialMT-102"/>
    <use x="989.306641" xlink:href="#ArialMT-45"/>
    <use x="1022.607422" xlink:href="#ArialMT-76"/>
    <use x="1078.222656" xlink:href="#ArialMT-105"/>
    <use x="1100.439453" xlink:href="#ArialMT-102"/>
    <use x="1128.222656" xlink:href="#ArialMT-101"/>
   </g>
  </g>
 </g>
 <defs>
  <clipPath id="p2756ac78b2">
   <rect height="471.24" width="613.8" x="343.61125" y="34.165961"/>
  </clipPath>
 </defs>
</svg>
