<?xml version="1.0" encoding="utf-8" standalone="no"?>
<!DOCTYPE svg PUBLIC "-//W3C//DTD SVG 1.1//EN"
  "http://www.w3.org/Graphics/SVG/1.1/DTD/svg11.dtd">
<!-- Created with matplotlib (https://matplotlib.org/) -->
<svg height="327.930058pt" version="1.1" viewBox="0 0 567.316562 327.930058" width="567.316562pt" xmlns="http://www.w3.org/2000/svg" xmlns:xlink="http://www.w3.org/1999/xlink">
 <defs>
  <style type="text/css">
*{stroke-linecap:butt;stroke-linejoin:round;}
  </style>
 </defs>
 <g id="figure_1">
  <g id="patch_1">
   <path d="M 0 327.930058 
L 567.316562 327.930058 
L 567.316562 0 
L 0 0 
z
" style="fill:#ffffff;stroke:#ffffff;stroke-linejoin:miter;"/>
  </g>
  <g id="axes_1">
   <g id="patch_2">
    <path d="M 202.996563 292.217371 
L 560.116563 292.217371 
L 560.116563 26.105371 
L 202.996563 26.105371 
z
" style="fill:#ebebeb;"/>
   </g>
   <g id="matplotlib.axis_1">
    <g id="xtick_1">
     <g id="line2d_1">
      <path clip-path="url(#pbae5278597)" d="M 219.22929 292.217371 
L 219.22929 26.105371 
" style="fill:none;stroke:#ffffff;"/>
     </g>
     <g id="line2d_2">
      <path d="M 219.22929 292.217371 
" style="fill:none;stroke:#333333;stroke-width:1.5;"/>
      <defs>
       <path d="M 0 0 
L 0 2.75 
" id="m58e09649b6" style="stroke:#333333;"/>
      </defs>
      <g>
       <use style="fill:#333333;stroke:#333333;" x="219.22929" xlink:href="#m58e09649b6" y="292.217371"/>
      </g>
     </g>
     <g id="text_1">
      <!-- 0 -->
      <defs>
       <path d="M 31.78125 66.40625 
Q 24.171875 66.40625 20.328125 58.90625 
Q 16.5 51.421875 16.5 36.375 
Q 16.5 21.390625 20.328125 13.890625 
Q 24.171875 6.390625 31.78125 6.390625 
Q 39.453125 6.390625 43.28125 13.890625 
Q 47.125 21.390625 47.125 36.375 
Q 47.125 51.421875 43.28125 58.90625 
Q 39.453125 66.40625 31.78125 66.40625 
z
M 31.78125 74.21875 
Q 44.046875 74.21875 50.515625 64.515625 
Q 56.984375 54.828125 56.984375 36.375 
Q 56.984375 17.96875 50.515625 8.265625 
Q 44.046875 -1.421875 31.78125 -1.421875 
Q 19.53125 -1.421875 13.0625 8.265625 
Q 6.59375 17.96875 6.59375 36.375 
Q 6.59375 54.828125 13.0625 64.515625 
Q 19.53125 74.21875 31.78125 74.21875 
z
" id="DejaVuSans-48"/>
      </defs>
      <g style="fill:#4d4d4d;" transform="translate(216.42979 303.853996)scale(0.088 -0.088)">
       <use xlink:href="#DejaVuSans-48"/>
      </g>
     </g>
    </g>
    <g id="xtick_2">
     <g id="line2d_3">
      <path clip-path="url(#pbae5278597)" d="M 283.466438 292.217371 
L 283.466438 26.105371 
" style="fill:none;stroke:#ffffff;"/>
     </g>
     <g id="line2d_4">
      <path d="M 283.466438 292.217371 
" style="fill:none;stroke:#333333;stroke-width:1.5;"/>
      <g>
       <use style="fill:#333333;stroke:#333333;" x="283.466438" xlink:href="#m58e09649b6" y="292.217371"/>
      </g>
     </g>
     <g id="text_2">
      <!-- 500 -->
      <defs>
       <path d="M 10.796875 72.90625 
L 49.515625 72.90625 
L 49.515625 64.59375 
L 19.828125 64.59375 
L 19.828125 46.734375 
Q 21.96875 47.46875 24.109375 47.828125 
Q 26.265625 48.1875 28.421875 48.1875 
Q 40.625 48.1875 47.75 41.5 
Q 54.890625 34.8125 54.890625 23.390625 
Q 54.890625 11.625 47.5625 5.09375 
Q 40.234375 -1.421875 26.90625 -1.421875 
Q 22.3125 -1.421875 17.546875 -0.640625 
Q 12.796875 0.140625 7.71875 1.703125 
L 7.71875 11.625 
Q 12.109375 9.234375 16.796875 8.0625 
Q 21.484375 6.890625 26.703125 6.890625 
Q 35.15625 6.890625 40.078125 11.328125 
Q 45.015625 15.765625 45.015625 23.390625 
Q 45.015625 31 40.078125 35.4375 
Q 35.15625 39.890625 26.703125 39.890625 
Q 22.75 39.890625 18.8125 39.015625 
Q 14.890625 38.140625 10.796875 36.28125 
z
" id="DejaVuSans-53"/>
      </defs>
      <g style="fill:#4d4d4d;" transform="translate(275.067938 303.853996)scale(0.088 -0.088)">
       <use xlink:href="#DejaVuSans-53"/>
       <use x="63.623047" xlink:href="#DejaVuSans-48"/>
       <use x="127.246094" xlink:href="#DejaVuSans-48"/>
      </g>
     </g>
    </g>
    <g id="xtick_3">
     <g id="line2d_5">
      <path clip-path="url(#pbae5278597)" d="M 347.703586 292.217371 
L 347.703586 26.105371 
" style="fill:none;stroke:#ffffff;"/>
     </g>
     <g id="line2d_6">
      <path d="M 347.703586 292.217371 
" style="fill:none;stroke:#333333;stroke-width:1.5;"/>
      <g>
       <use style="fill:#333333;stroke:#333333;" x="347.703586" xlink:href="#m58e09649b6" y="292.217371"/>
      </g>
     </g>
     <g id="text_3">
      <!-- 1000 -->
      <defs>
       <path d="M 12.40625 8.296875 
L 28.515625 8.296875 
L 28.515625 63.921875 
L 10.984375 60.40625 
L 10.984375 69.390625 
L 28.421875 72.90625 
L 38.28125 72.90625 
L 38.28125 8.296875 
L 54.390625 8.296875 
L 54.390625 0 
L 12.40625 0 
z
" id="DejaVuSans-49"/>
      </defs>
      <g style="fill:#4d4d4d;" transform="translate(336.505586 303.853996)scale(0.088 -0.088)">
       <use xlink:href="#DejaVuSans-49"/>
       <use x="63.623047" xlink:href="#DejaVuSans-48"/>
       <use x="127.246094" xlink:href="#DejaVuSans-48"/>
       <use x="190.869141" xlink:href="#DejaVuSans-48"/>
      </g>
     </g>
    </g>
    <g id="xtick_4">
     <g id="line2d_7">
      <path clip-path="url(#pbae5278597)" d="M 411.940733 292.217371 
L 411.940733 26.105371 
" style="fill:none;stroke:#ffffff;"/>
     </g>
     <g id="line2d_8">
      <path d="M 411.940733 292.217371 
" style="fill:none;stroke:#333333;stroke-width:1.5;"/>
      <g>
       <use style="fill:#333333;stroke:#333333;" x="411.940733" xlink:href="#m58e09649b6" y="292.217371"/>
      </g>
     </g>
     <g id="text_4">
      <!-- 1500 -->
      <g style="fill:#4d4d4d;" transform="translate(400.742733 303.853996)scale(0.088 -0.088)">
       <use xlink:href="#DejaVuSans-49"/>
       <use x="63.623047" xlink:href="#DejaVuSans-53"/>
       <use x="127.246094" xlink:href="#DejaVuSans-48"/>
       <use x="190.869141" xlink:href="#DejaVuSans-48"/>
      </g>
     </g>
    </g>
    <g id="xtick_5">
     <g id="line2d_9">
      <path clip-path="url(#pbae5278597)" d="M 476.177881 292.217371 
L 476.177881 26.105371 
" style="fill:none;stroke:#ffffff;"/>
     </g>
     <g id="line2d_10">
      <path d="M 476.177881 292.217371 
" style="fill:none;stroke:#333333;stroke-width:1.5;"/>
      <g>
       <use style="fill:#333333;stroke:#333333;" x="476.177881" xlink:href="#m58e09649b6" y="292.217371"/>
      </g>
     </g>
     <g id="text_5">
      <!-- 2000 -->
      <defs>
       <path d="M 19.1875 8.296875 
L 53.609375 8.296875 
L 53.609375 0 
L 7.328125 0 
L 7.328125 8.296875 
Q 12.9375 14.109375 22.625 23.890625 
Q 32.328125 33.6875 34.8125 36.53125 
Q 39.546875 41.84375 41.421875 45.53125 
Q 43.3125 49.21875 43.3125 52.78125 
Q 43.3125 58.59375 39.234375 62.25 
Q 35.15625 65.921875 28.609375 65.921875 
Q 23.96875 65.921875 18.8125 64.3125 
Q 13.671875 62.703125 7.8125 59.421875 
L 7.8125 69.390625 
Q 13.765625 71.78125 18.9375 73 
Q 24.125 74.21875 28.421875 74.21875 
Q 39.75 74.21875 46.484375 68.546875 
Q 53.21875 62.890625 53.21875 53.421875 
Q 53.21875 48.921875 51.53125 44.890625 
Q 49.859375 40.875 45.40625 35.40625 
Q 44.1875 33.984375 37.640625 27.21875 
Q 31.109375 20.453125 19.1875 8.296875 
z
" id="DejaVuSans-50"/>
      </defs>
      <g style="fill:#4d4d4d;" transform="translate(464.979881 303.853996)scale(0.088 -0.088)">
       <use xlink:href="#DejaVuSans-50"/>
       <use x="63.623047" xlink:href="#DejaVuSans-48"/>
       <use x="127.246094" xlink:href="#DejaVuSans-48"/>
       <use x="190.869141" xlink:href="#DejaVuSans-48"/>
      </g>
     </g>
    </g>
    <g id="xtick_6">
     <g id="line2d_11">
      <path clip-path="url(#pbae5278597)" d="M 540.415029 292.217371 
L 540.415029 26.105371 
" style="fill:none;stroke:#ffffff;"/>
     </g>
     <g id="line2d_12">
      <path d="M 540.415029 292.217371 
" style="fill:none;stroke:#333333;stroke-width:1.5;"/>
      <g>
       <use style="fill:#333333;stroke:#333333;" x="540.415029" xlink:href="#m58e09649b6" y="292.217371"/>
      </g>
     </g>
     <g id="text_6">
      <!-- 2500 -->
      <g style="fill:#4d4d4d;" transform="translate(529.217029 303.853996)scale(0.088 -0.088)">
       <use xlink:href="#DejaVuSans-50"/>
       <use x="63.623047" xlink:href="#DejaVuSans-53"/>
       <use x="127.246094" xlink:href="#DejaVuSans-48"/>
       <use x="190.869141" xlink:href="#DejaVuSans-48"/>
      </g>
     </g>
    </g>
    <g id="xtick_7">
     <g id="line2d_13">
      <path clip-path="url(#pbae5278597)" d="M 251.347864 292.217371 
L 251.347864 26.105371 
" style="fill:none;stroke:#ffffff;stroke-width:0.5;"/>
     </g>
    </g>
    <g id="xtick_8">
     <g id="line2d_14">
      <path clip-path="url(#pbae5278597)" d="M 315.585012 292.217371 
L 315.585012 26.105371 
" style="fill:none;stroke:#ffffff;stroke-width:0.5;"/>
     </g>
    </g>
    <g id="xtick_9">
     <g id="line2d_15">
      <path clip-path="url(#pbae5278597)" d="M 379.82216 292.217371 
L 379.82216 26.105371 
" style="fill:none;stroke:#ffffff;stroke-width:0.5;"/>
     </g>
    </g>
    <g id="xtick_10">
     <g id="line2d_16">
      <path clip-path="url(#pbae5278597)" d="M 444.059307 292.217371 
L 444.059307 26.105371 
" style="fill:none;stroke:#ffffff;stroke-width:0.5;"/>
     </g>
    </g>
    <g id="xtick_11">
     <g id="line2d_17">
      <path clip-path="url(#pbae5278597)" d="M 508.296455 292.217371 
L 508.296455 26.105371 
" style="fill:none;stroke:#ffffff;stroke-width:0.5;"/>
     </g>
    </g>
    <g id="text_7">
     <!-- Days Until 50% of Preprints are Published -->
     <defs>
      <path d="M 19.671875 64.796875 
L 19.671875 8.109375 
L 31.59375 8.109375 
Q 46.6875 8.109375 53.6875 14.9375 
Q 60.6875 21.78125 60.6875 36.53125 
Q 60.6875 51.171875 53.6875 57.984375 
Q 46.6875 64.796875 31.59375 64.796875 
z
M 9.8125 72.90625 
L 30.078125 72.90625 
Q 51.265625 72.90625 61.171875 64.09375 
Q 71.09375 55.28125 71.09375 36.53125 
Q 71.09375 17.671875 61.125 8.828125 
Q 51.171875 0 30.078125 0 
L 9.8125 0 
z
" id="DejaVuSans-68"/>
      <path d="M 34.28125 27.484375 
Q 23.390625 27.484375 19.1875 25 
Q 14.984375 22.515625 14.984375 16.5 
Q 14.984375 11.71875 18.140625 8.90625 
Q 21.296875 6.109375 26.703125 6.109375 
Q 34.1875 6.109375 38.703125 11.40625 
Q 43.21875 16.703125 43.21875 25.484375 
L 43.21875 27.484375 
z
M 52.203125 31.203125 
L 52.203125 0 
L 43.21875 0 
L 43.21875 8.296875 
Q 40.140625 3.328125 35.546875 0.953125 
Q 30.953125 -1.421875 24.3125 -1.421875 
Q 15.921875 -1.421875 10.953125 3.296875 
Q 6 8.015625 6 15.921875 
Q 6 25.140625 12.171875 29.828125 
Q 18.359375 34.515625 30.609375 34.515625 
L 43.21875 34.515625 
L 43.21875 35.40625 
Q 43.21875 41.609375 39.140625 45 
Q 35.0625 48.390625 27.6875 48.390625 
Q 23 48.390625 18.546875 47.265625 
Q 14.109375 46.140625 10.015625 43.890625 
L 10.015625 52.203125 
Q 14.9375 54.109375 19.578125 55.046875 
Q 24.21875 56 28.609375 56 
Q 40.484375 56 46.34375 49.84375 
Q 52.203125 43.703125 52.203125 31.203125 
z
" id="DejaVuSans-97"/>
      <path d="M 32.171875 -5.078125 
Q 28.375 -14.84375 24.75 -17.8125 
Q 21.140625 -20.796875 15.09375 -20.796875 
L 7.90625 -20.796875 
L 7.90625 -13.28125 
L 13.1875 -13.28125 
Q 16.890625 -13.28125 18.9375 -11.515625 
Q 21 -9.765625 23.484375 -3.21875 
L 25.09375 0.875 
L 2.984375 54.6875 
L 12.5 54.6875 
L 29.59375 11.921875 
L 46.6875 54.6875 
L 56.203125 54.6875 
z
" id="DejaVuSans-121"/>
      <path d="M 44.28125 53.078125 
L 44.28125 44.578125 
Q 40.484375 46.53125 36.375 47.5 
Q 32.28125 48.484375 27.875 48.484375 
Q 21.1875 48.484375 17.84375 46.4375 
Q 14.5 44.390625 14.5 40.28125 
Q 14.5 37.15625 16.890625 35.375 
Q 19.28125 33.59375 26.515625 31.984375 
L 29.59375 31.296875 
Q 39.15625 29.25 43.1875 25.515625 
Q 47.21875 21.78125 47.21875 15.09375 
Q 47.21875 7.46875 41.1875 3.015625 
Q 35.15625 -1.421875 24.609375 -1.421875 
Q 20.21875 -1.421875 15.453125 -0.5625 
Q 10.6875 0.296875 5.421875 2 
L 5.421875 11.28125 
Q 10.40625 8.6875 15.234375 7.390625 
Q 20.0625 6.109375 24.8125 6.109375 
Q 31.15625 6.109375 34.5625 8.28125 
Q 37.984375 10.453125 37.984375 14.40625 
Q 37.984375 18.0625 35.515625 20.015625 
Q 33.0625 21.96875 24.703125 23.78125 
L 21.578125 24.515625 
Q 13.234375 26.265625 9.515625 29.90625 
Q 5.8125 33.546875 5.8125 39.890625 
Q 5.8125 47.609375 11.28125 51.796875 
Q 16.75 56 26.8125 56 
Q 31.78125 56 36.171875 55.265625 
Q 40.578125 54.546875 44.28125 53.078125 
z
" id="DejaVuSans-115"/>
      <path id="DejaVuSans-32"/>
      <path d="M 8.6875 72.90625 
L 18.609375 72.90625 
L 18.609375 28.609375 
Q 18.609375 16.890625 22.84375 11.734375 
Q 27.09375 6.59375 36.625 6.59375 
Q 46.09375 6.59375 50.34375 11.734375 
Q 54.59375 16.890625 54.59375 28.609375 
L 54.59375 72.90625 
L 64.5 72.90625 
L 64.5 27.390625 
Q 64.5 13.140625 57.4375 5.859375 
Q 50.390625 -1.421875 36.625 -1.421875 
Q 22.796875 -1.421875 15.734375 5.859375 
Q 8.6875 13.140625 8.6875 27.390625 
z
" id="DejaVuSans-85"/>
      <path d="M 54.890625 33.015625 
L 54.890625 0 
L 45.90625 0 
L 45.90625 32.71875 
Q 45.90625 40.484375 42.875 44.328125 
Q 39.84375 48.1875 33.796875 48.1875 
Q 26.515625 48.1875 22.3125 43.546875 
Q 18.109375 38.921875 18.109375 30.90625 
L 18.109375 0 
L 9.078125 0 
L 9.078125 54.6875 
L 18.109375 54.6875 
L 18.109375 46.1875 
Q 21.34375 51.125 25.703125 53.5625 
Q 30.078125 56 35.796875 56 
Q 45.21875 56 50.046875 50.171875 
Q 54.890625 44.34375 54.890625 33.015625 
z
" id="DejaVuSans-110"/>
      <path d="M 18.3125 70.21875 
L 18.3125 54.6875 
L 36.8125 54.6875 
L 36.8125 47.703125 
L 18.3125 47.703125 
L 18.3125 18.015625 
Q 18.3125 11.328125 20.140625 9.421875 
Q 21.96875 7.515625 27.59375 7.515625 
L 36.8125 7.515625 
L 36.8125 0 
L 27.59375 0 
Q 17.1875 0 13.234375 3.875 
Q 9.28125 7.765625 9.28125 18.015625 
L 9.28125 47.703125 
L 2.6875 47.703125 
L 2.6875 54.6875 
L 9.28125 54.6875 
L 9.28125 70.21875 
z
" id="DejaVuSans-116"/>
      <path d="M 9.421875 54.6875 
L 18.40625 54.6875 
L 18.40625 0 
L 9.421875 0 
z
M 9.421875 75.984375 
L 18.40625 75.984375 
L 18.40625 64.59375 
L 9.421875 64.59375 
z
" id="DejaVuSans-105"/>
      <path d="M 9.421875 75.984375 
L 18.40625 75.984375 
L 18.40625 0 
L 9.421875 0 
z
" id="DejaVuSans-108"/>
      <path d="M 72.703125 32.078125 
Q 68.453125 32.078125 66.03125 28.46875 
Q 63.625 24.859375 63.625 18.40625 
Q 63.625 12.0625 66.03125 8.421875 
Q 68.453125 4.78125 72.703125 4.78125 
Q 76.859375 4.78125 79.265625 8.421875 
Q 81.6875 12.0625 81.6875 18.40625 
Q 81.6875 24.8125 79.265625 28.4375 
Q 76.859375 32.078125 72.703125 32.078125 
z
M 72.703125 38.28125 
Q 80.421875 38.28125 84.953125 32.90625 
Q 89.5 27.546875 89.5 18.40625 
Q 89.5 9.28125 84.9375 3.921875 
Q 80.375 -1.421875 72.703125 -1.421875 
Q 64.890625 -1.421875 60.34375 3.921875 
Q 55.8125 9.28125 55.8125 18.40625 
Q 55.8125 27.59375 60.375 32.9375 
Q 64.9375 38.28125 72.703125 38.28125 
z
M 22.3125 68.015625 
Q 18.109375 68.015625 15.6875 64.375 
Q 13.28125 60.75 13.28125 54.390625 
Q 13.28125 47.953125 15.671875 44.328125 
Q 18.0625 40.71875 22.3125 40.71875 
Q 26.5625 40.71875 28.96875 44.328125 
Q 31.390625 47.953125 31.390625 54.390625 
Q 31.390625 60.6875 28.953125 64.34375 
Q 26.515625 68.015625 22.3125 68.015625 
z
M 66.40625 74.21875 
L 74.21875 74.21875 
L 28.609375 -1.421875 
L 20.796875 -1.421875 
z
M 22.3125 74.21875 
Q 30.03125 74.21875 34.609375 68.875 
Q 39.203125 63.53125 39.203125 54.390625 
Q 39.203125 45.171875 34.640625 39.84375 
Q 30.078125 34.515625 22.3125 34.515625 
Q 14.546875 34.515625 10.03125 39.859375 
Q 5.515625 45.21875 5.515625 54.390625 
Q 5.515625 63.484375 10.046875 68.84375 
Q 14.59375 74.21875 22.3125 74.21875 
z
" id="DejaVuSans-37"/>
      <path d="M 30.609375 48.390625 
Q 23.390625 48.390625 19.1875 42.75 
Q 14.984375 37.109375 14.984375 27.296875 
Q 14.984375 17.484375 19.15625 11.84375 
Q 23.34375 6.203125 30.609375 6.203125 
Q 37.796875 6.203125 41.984375 11.859375 
Q 46.1875 17.53125 46.1875 27.296875 
Q 46.1875 37.015625 41.984375 42.703125 
Q 37.796875 48.390625 30.609375 48.390625 
z
M 30.609375 56 
Q 42.328125 56 49.015625 48.375 
Q 55.71875 40.765625 55.71875 27.296875 
Q 55.71875 13.875 49.015625 6.21875 
Q 42.328125 -1.421875 30.609375 -1.421875 
Q 18.84375 -1.421875 12.171875 6.21875 
Q 5.515625 13.875 5.515625 27.296875 
Q 5.515625 40.765625 12.171875 48.375 
Q 18.84375 56 30.609375 56 
z
" id="DejaVuSans-111"/>
      <path d="M 37.109375 75.984375 
L 37.109375 68.5 
L 28.515625 68.5 
Q 23.6875 68.5 21.796875 66.546875 
Q 19.921875 64.59375 19.921875 59.515625 
L 19.921875 54.6875 
L 34.71875 54.6875 
L 34.71875 47.703125 
L 19.921875 47.703125 
L 19.921875 0 
L 10.890625 0 
L 10.890625 47.703125 
L 2.296875 47.703125 
L 2.296875 54.6875 
L 10.890625 54.6875 
L 10.890625 58.5 
Q 10.890625 67.625 15.140625 71.796875 
Q 19.390625 75.984375 28.609375 75.984375 
z
" id="DejaVuSans-102"/>
      <path d="M 19.671875 64.796875 
L 19.671875 37.40625 
L 32.078125 37.40625 
Q 38.96875 37.40625 42.71875 40.96875 
Q 46.484375 44.53125 46.484375 51.125 
Q 46.484375 57.671875 42.71875 61.234375 
Q 38.96875 64.796875 32.078125 64.796875 
z
M 9.8125 72.90625 
L 32.078125 72.90625 
Q 44.34375 72.90625 50.609375 67.359375 
Q 56.890625 61.8125 56.890625 51.125 
Q 56.890625 40.328125 50.609375 34.8125 
Q 44.34375 29.296875 32.078125 29.296875 
L 19.671875 29.296875 
L 19.671875 0 
L 9.8125 0 
z
" id="DejaVuSans-80"/>
      <path d="M 41.109375 46.296875 
Q 39.59375 47.171875 37.8125 47.578125 
Q 36.03125 48 33.890625 48 
Q 26.265625 48 22.1875 43.046875 
Q 18.109375 38.09375 18.109375 28.8125 
L 18.109375 0 
L 9.078125 0 
L 9.078125 54.6875 
L 18.109375 54.6875 
L 18.109375 46.1875 
Q 20.953125 51.171875 25.484375 53.578125 
Q 30.03125 56 36.53125 56 
Q 37.453125 56 38.578125 55.875 
Q 39.703125 55.765625 41.0625 55.515625 
z
" id="DejaVuSans-114"/>
      <path d="M 56.203125 29.59375 
L 56.203125 25.203125 
L 14.890625 25.203125 
Q 15.484375 15.921875 20.484375 11.0625 
Q 25.484375 6.203125 34.421875 6.203125 
Q 39.59375 6.203125 44.453125 7.46875 
Q 49.3125 8.734375 54.109375 11.28125 
L 54.109375 2.78125 
Q 49.265625 0.734375 44.1875 -0.34375 
Q 39.109375 -1.421875 33.890625 -1.421875 
Q 20.796875 -1.421875 13.15625 6.1875 
Q 5.515625 13.8125 5.515625 26.8125 
Q 5.515625 40.234375 12.765625 48.109375 
Q 20.015625 56 32.328125 56 
Q 43.359375 56 49.78125 48.890625 
Q 56.203125 41.796875 56.203125 29.59375 
z
M 47.21875 32.234375 
Q 47.125 39.59375 43.09375 43.984375 
Q 39.0625 48.390625 32.421875 48.390625 
Q 24.90625 48.390625 20.390625 44.140625 
Q 15.875 39.890625 15.1875 32.171875 
z
" id="DejaVuSans-101"/>
      <path d="M 18.109375 8.203125 
L 18.109375 -20.796875 
L 9.078125 -20.796875 
L 9.078125 54.6875 
L 18.109375 54.6875 
L 18.109375 46.390625 
Q 20.953125 51.265625 25.265625 53.625 
Q 29.59375 56 35.59375 56 
Q 45.5625 56 51.78125 48.09375 
Q 58.015625 40.1875 58.015625 27.296875 
Q 58.015625 14.40625 51.78125 6.484375 
Q 45.5625 -1.421875 35.59375 -1.421875 
Q 29.59375 -1.421875 25.265625 0.953125 
Q 20.953125 3.328125 18.109375 8.203125 
z
M 48.6875 27.296875 
Q 48.6875 37.203125 44.609375 42.84375 
Q 40.53125 48.484375 33.40625 48.484375 
Q 26.265625 48.484375 22.1875 42.84375 
Q 18.109375 37.203125 18.109375 27.296875 
Q 18.109375 17.390625 22.1875 11.75 
Q 26.265625 6.109375 33.40625 6.109375 
Q 40.53125 6.109375 44.609375 11.75 
Q 48.6875 17.390625 48.6875 27.296875 
z
" id="DejaVuSans-112"/>
      <path d="M 8.5 21.578125 
L 8.5 54.6875 
L 17.484375 54.6875 
L 17.484375 21.921875 
Q 17.484375 14.15625 20.5 10.265625 
Q 23.53125 6.390625 29.59375 6.390625 
Q 36.859375 6.390625 41.078125 11.03125 
Q 45.3125 15.671875 45.3125 23.6875 
L 45.3125 54.6875 
L 54.296875 54.6875 
L 54.296875 0 
L 45.3125 0 
L 45.3125 8.40625 
Q 42.046875 3.421875 37.71875 1 
Q 33.40625 -1.421875 27.6875 -1.421875 
Q 18.265625 -1.421875 13.375 4.4375 
Q 8.5 10.296875 8.5 21.578125 
z
M 31.109375 56 
z
" id="DejaVuSans-117"/>
      <path d="M 48.6875 27.296875 
Q 48.6875 37.203125 44.609375 42.84375 
Q 40.53125 48.484375 33.40625 48.484375 
Q 26.265625 48.484375 22.1875 42.84375 
Q 18.109375 37.203125 18.109375 27.296875 
Q 18.109375 17.390625 22.1875 11.75 
Q 26.265625 6.109375 33.40625 6.109375 
Q 40.53125 6.109375 44.609375 11.75 
Q 48.6875 17.390625 48.6875 27.296875 
z
M 18.109375 46.390625 
Q 20.953125 51.265625 25.265625 53.625 
Q 29.59375 56 35.59375 56 
Q 45.5625 56 51.78125 48.09375 
Q 58.015625 40.1875 58.015625 27.296875 
Q 58.015625 14.40625 51.78125 6.484375 
Q 45.5625 -1.421875 35.59375 -1.421875 
Q 29.59375 -1.421875 25.265625 0.953125 
Q 20.953125 3.328125 18.109375 8.203125 
L 18.109375 0 
L 9.078125 0 
L 9.078125 75.984375 
L 18.109375 75.984375 
z
" id="DejaVuSans-98"/>
      <path d="M 54.890625 33.015625 
L 54.890625 0 
L 45.90625 0 
L 45.90625 32.71875 
Q 45.90625 40.484375 42.875 44.328125 
Q 39.84375 48.1875 33.796875 48.1875 
Q 26.515625 48.1875 22.3125 43.546875 
Q 18.109375 38.921875 18.109375 30.90625 
L 18.109375 0 
L 9.078125 0 
L 9.078125 75.984375 
L 18.109375 75.984375 
L 18.109375 46.1875 
Q 21.34375 51.125 25.703125 53.5625 
Q 30.078125 56 35.796875 56 
Q 45.21875 56 50.046875 50.171875 
Q 54.890625 44.34375 54.890625 33.015625 
z
" id="DejaVuSans-104"/>
      <path d="M 45.40625 46.390625 
L 45.40625 75.984375 
L 54.390625 75.984375 
L 54.390625 0 
L 45.40625 0 
L 45.40625 8.203125 
Q 42.578125 3.328125 38.25 0.953125 
Q 33.9375 -1.421875 27.875 -1.421875 
Q 17.96875 -1.421875 11.734375 6.484375 
Q 5.515625 14.40625 5.515625 27.296875 
Q 5.515625 40.1875 11.734375 48.09375 
Q 17.96875 56 27.875 56 
Q 33.9375 56 38.25 53.625 
Q 42.578125 51.265625 45.40625 46.390625 
z
M 14.796875 27.296875 
Q 14.796875 17.390625 18.875 11.75 
Q 22.953125 6.109375 30.078125 6.109375 
Q 37.203125 6.109375 41.296875 11.75 
Q 45.40625 17.390625 45.40625 27.296875 
Q 45.40625 37.203125 41.296875 42.84375 
Q 37.203125 48.484375 30.078125 48.484375 
Q 22.953125 48.484375 18.875 42.84375 
Q 14.796875 37.203125 14.796875 27.296875 
z
" id="DejaVuSans-100"/>
     </defs>
     <g transform="translate(260.997813 318.442402)scale(0.11 -0.11)">
      <use xlink:href="#DejaVuSans-68"/>
      <use x="77.001953" xlink:href="#DejaVuSans-97"/>
      <use x="138.28125" xlink:href="#DejaVuSans-121"/>
      <use x="197.460938" xlink:href="#DejaVuSans-115"/>
      <use x="249.560547" xlink:href="#DejaVuSans-32"/>
      <use x="281.347656" xlink:href="#DejaVuSans-85"/>
      <use x="354.541016" xlink:href="#DejaVuSans-110"/>
      <use x="417.919922" xlink:href="#DejaVuSans-116"/>
      <use x="457.128906" xlink:href="#DejaVuSans-105"/>
      <use x="484.912109" xlink:href="#DejaVuSans-108"/>
      <use x="512.695312" xlink:href="#DejaVuSans-32"/>
      <use x="544.482422" xlink:href="#DejaVuSans-53"/>
      <use x="608.105469" xlink:href="#DejaVuSans-48"/>
      <use x="671.728516" xlink:href="#DejaVuSans-37"/>
      <use x="766.748047" xlink:href="#DejaVuSans-32"/>
      <use x="798.535156" xlink:href="#DejaVuSans-111"/>
      <use x="859.716797" xlink:href="#DejaVuSans-102"/>
      <use x="894.921875" xlink:href="#DejaVuSans-32"/>
      <use x="926.708984" xlink:href="#DejaVuSans-80"/>
      <use x="986.996094" xlink:href="#DejaVuSans-114"/>
      <use x="1028.078125" xlink:href="#DejaVuSans-101"/>
      <use x="1089.601562" xlink:href="#DejaVuSans-112"/>
      <use x="1153.078125" xlink:href="#DejaVuSans-114"/>
      <use x="1194.191406" xlink:href="#DejaVuSans-105"/>
      <use x="1221.974609" xlink:href="#DejaVuSans-110"/>
      <use x="1285.353516" xlink:href="#DejaVuSans-116"/>
      <use x="1324.5625" xlink:href="#DejaVuSans-115"/>
      <use x="1376.662109" xlink:href="#DejaVuSans-32"/>
      <use x="1408.449219" xlink:href="#DejaVuSans-97"/>
      <use x="1469.728516" xlink:href="#DejaVuSans-114"/>
      <use x="1510.810547" xlink:href="#DejaVuSans-101"/>
      <use x="1572.333984" xlink:href="#DejaVuSans-32"/>
      <use x="1604.121094" xlink:href="#DejaVuSans-80"/>
      <use x="1664.408203" xlink:href="#DejaVuSans-117"/>
      <use x="1727.787109" xlink:href="#DejaVuSans-98"/>
      <use x="1791.263672" xlink:href="#DejaVuSans-108"/>
      <use x="1819.046875" xlink:href="#DejaVuSans-105"/>
      <use x="1846.830078" xlink:href="#DejaVuSans-115"/>
      <use x="1898.929688" xlink:href="#DejaVuSans-104"/>
      <use x="1962.308594" xlink:href="#DejaVuSans-101"/>
      <use x="2023.832031" xlink:href="#DejaVuSans-100"/>
     </g>
    </g>
   </g>
   <g id="matplotlib.axis_2">
    <g id="ytick_1">
     <g id="line2d_18">
      <path clip-path="url(#pbae5278597)" d="M 202.996563 286.555413 
L 560.116563 286.555413 
" style="fill:none;stroke:#ffffff;"/>
     </g>
     <g id="line2d_19">
      <path d="M 202.996563 286.555413 
" style="fill:none;stroke:#333333;stroke-width:1.5;"/>
      <defs>
       <path d="M 0 0 
L -2.75 0 
" id="m3290f39abd" style="stroke:#333333;"/>
      </defs>
      <g>
       <use style="fill:#333333;stroke:#333333;" x="202.996563" xlink:href="#m3290f39abd" y="286.555413"/>
      </g>
     </g>
     <g id="text_8">
      <!-- zoology -->
      <defs>
       <path d="M 5.515625 54.6875 
L 48.1875 54.6875 
L 48.1875 46.484375 
L 14.40625 7.171875 
L 48.1875 7.171875 
L 48.1875 0 
L 4.296875 0 
L 4.296875 8.203125 
L 38.09375 47.515625 
L 5.515625 47.515625 
z
" id="DejaVuSans-122"/>
       <path d="M 45.40625 27.984375 
Q 45.40625 37.75 41.375 43.109375 
Q 37.359375 48.484375 30.078125 48.484375 
Q 22.859375 48.484375 18.828125 43.109375 
Q 14.796875 37.75 14.796875 27.984375 
Q 14.796875 18.265625 18.828125 12.890625 
Q 22.859375 7.515625 30.078125 7.515625 
Q 37.359375 7.515625 41.375 12.890625 
Q 45.40625 18.265625 45.40625 27.984375 
z
M 54.390625 6.78125 
Q 54.390625 -7.171875 48.1875 -13.984375 
Q 42 -20.796875 29.203125 -20.796875 
Q 24.46875 -20.796875 20.265625 -20.09375 
Q 16.0625 -19.390625 12.109375 -17.921875 
L 12.109375 -9.1875 
Q 16.0625 -11.328125 19.921875 -12.34375 
Q 23.78125 -13.375 27.78125 -13.375 
Q 36.625 -13.375 41.015625 -8.765625 
Q 45.40625 -4.15625 45.40625 5.171875 
L 45.40625 9.625 
Q 42.625 4.78125 38.28125 2.390625 
Q 33.9375 0 27.875 0 
Q 17.828125 0 11.671875 7.65625 
Q 5.515625 15.328125 5.515625 27.984375 
Q 5.515625 40.671875 11.671875 48.328125 
Q 17.828125 56 27.875 56 
Q 33.9375 56 38.28125 53.609375 
Q 42.625 51.21875 45.40625 46.390625 
L 45.40625 54.6875 
L 54.390625 54.6875 
z
" id="DejaVuSans-103"/>
      </defs>
      <g style="fill:#4d4d4d;" transform="translate(164.034563 288.983663)scale(0.088 -0.088)">
       <use xlink:href="#DejaVuSans-122"/>
       <use x="52.490234" xlink:href="#DejaVuSans-111"/>
       <use x="113.671875" xlink:href="#DejaVuSans-111"/>
       <use x="174.853516" xlink:href="#DejaVuSans-108"/>
       <use x="202.636719" xlink:href="#DejaVuSans-111"/>
       <use x="263.818359" xlink:href="#DejaVuSans-103"/>
       <use x="327.294922" xlink:href="#DejaVuSans-121"/>
      </g>
     </g>
    </g>
    <g id="ytick_2">
     <g id="line2d_20">
      <path clip-path="url(#pbae5278597)" d="M 202.996563 277.118818 
L 560.116563 277.118818 
" style="fill:none;stroke:#ffffff;"/>
     </g>
     <g id="line2d_21">
      <path d="M 202.996563 277.118818 
" style="fill:none;stroke:#333333;stroke-width:1.5;"/>
      <g>
       <use style="fill:#333333;stroke:#333333;" x="202.996563" xlink:href="#m3290f39abd" y="277.118818"/>
      </g>
     </g>
     <g id="text_9">
      <!-- clinical trials -->
      <defs>
       <path d="M 48.78125 52.59375 
L 48.78125 44.1875 
Q 44.96875 46.296875 41.140625 47.34375 
Q 37.3125 48.390625 33.40625 48.390625 
Q 24.65625 48.390625 19.8125 42.84375 
Q 14.984375 37.3125 14.984375 27.296875 
Q 14.984375 17.28125 19.8125 11.734375 
Q 24.65625 6.203125 33.40625 6.203125 
Q 37.3125 6.203125 41.140625 7.25 
Q 44.96875 8.296875 48.78125 10.40625 
L 48.78125 2.09375 
Q 45.015625 0.34375 40.984375 -0.53125 
Q 36.96875 -1.421875 32.421875 -1.421875 
Q 20.0625 -1.421875 12.78125 6.34375 
Q 5.515625 14.109375 5.515625 27.296875 
Q 5.515625 40.671875 12.859375 48.328125 
Q 20.21875 56 33.015625 56 
Q 37.15625 56 41.109375 55.140625 
Q 45.0625 54.296875 48.78125 52.59375 
z
" id="DejaVuSans-99"/>
      </defs>
      <g style="fill:#4d4d4d;" transform="translate(142.889813 279.547068)scale(0.088 -0.088)">
       <use xlink:href="#DejaVuSans-99"/>
       <use x="54.980469" xlink:href="#DejaVuSans-108"/>
       <use x="82.763672" xlink:href="#DejaVuSans-105"/>
       <use x="110.546875" xlink:href="#DejaVuSans-110"/>
       <use x="173.925781" xlink:href="#DejaVuSans-105"/>
       <use x="201.708984" xlink:href="#DejaVuSans-99"/>
       <use x="256.689453" xlink:href="#DejaVuSans-97"/>
       <use x="317.96875" xlink:href="#DejaVuSans-108"/>
       <use x="345.751953" xlink:href="#DejaVuSans-32"/>
       <use x="377.539062" xlink:href="#DejaVuSans-116"/>
       <use x="416.748047" xlink:href="#DejaVuSans-114"/>
       <use x="457.861328" xlink:href="#DejaVuSans-105"/>
       <use x="485.644531" xlink:href="#DejaVuSans-97"/>
       <use x="546.923828" xlink:href="#DejaVuSans-108"/>
       <use x="574.707031" xlink:href="#DejaVuSans-115"/>
      </g>
     </g>
    </g>
    <g id="ytick_3">
     <g id="line2d_22">
      <path clip-path="url(#pbae5278597)" d="M 202.996563 267.682222 
L 560.116563 267.682222 
" style="fill:none;stroke:#ffffff;"/>
     </g>
     <g id="line2d_23">
      <path d="M 202.996563 267.682222 
" style="fill:none;stroke:#333333;stroke-width:1.5;"/>
      <g>
       <use style="fill:#333333;stroke:#333333;" x="202.996563" xlink:href="#m3290f39abd" y="267.682222"/>
      </g>
     </g>
     <g id="text_10">
      <!-- pathology -->
      <g style="fill:#4d4d4d;" transform="translate(154.031438 270.110472)scale(0.088 -0.088)">
       <use xlink:href="#DejaVuSans-112"/>
       <use x="63.476562" xlink:href="#DejaVuSans-97"/>
       <use x="124.755859" xlink:href="#DejaVuSans-116"/>
       <use x="163.964844" xlink:href="#DejaVuSans-104"/>
       <use x="227.34375" xlink:href="#DejaVuSans-111"/>
       <use x="288.525391" xlink:href="#DejaVuSans-108"/>
       <use x="316.308594" xlink:href="#DejaVuSans-111"/>
       <use x="377.490234" xlink:href="#DejaVuSans-103"/>
       <use x="440.966797" xlink:href="#DejaVuSans-121"/>
      </g>
     </g>
    </g>
    <g id="ytick_4">
     <g id="line2d_24">
      <path clip-path="url(#pbae5278597)" d="M 202.996563 258.245626 
L 560.116563 258.245626 
" style="fill:none;stroke:#ffffff;"/>
     </g>
     <g id="line2d_25">
      <path d="M 202.996563 258.245626 
" style="fill:none;stroke:#333333;stroke-width:1.5;"/>
      <g>
       <use style="fill:#333333;stroke:#333333;" x="202.996563" xlink:href="#m3290f39abd" y="258.245626"/>
      </g>
     </g>
     <g id="text_11">
      <!-- scientific communication -->
      <defs>
       <path d="M 52 44.1875 
Q 55.375 50.25 60.0625 53.125 
Q 64.75 56 71.09375 56 
Q 79.640625 56 84.28125 50.015625 
Q 88.921875 44.046875 88.921875 33.015625 
L 88.921875 0 
L 79.890625 0 
L 79.890625 32.71875 
Q 79.890625 40.578125 77.09375 44.375 
Q 74.3125 48.1875 68.609375 48.1875 
Q 61.625 48.1875 57.5625 43.546875 
Q 53.515625 38.921875 53.515625 30.90625 
L 53.515625 0 
L 44.484375 0 
L 44.484375 32.71875 
Q 44.484375 40.625 41.703125 44.40625 
Q 38.921875 48.1875 33.109375 48.1875 
Q 26.21875 48.1875 22.15625 43.53125 
Q 18.109375 38.875 18.109375 30.90625 
L 18.109375 0 
L 9.078125 0 
L 9.078125 54.6875 
L 18.109375 54.6875 
L 18.109375 46.1875 
Q 21.1875 51.21875 25.484375 53.609375 
Q 29.78125 56 35.6875 56 
Q 41.65625 56 45.828125 52.96875 
Q 50 49.953125 52 44.1875 
z
" id="DejaVuSans-109"/>
      </defs>
      <g style="fill:#4d4d4d;" transform="translate(88.061688 260.673876)scale(0.088 -0.088)">
       <use xlink:href="#DejaVuSans-115"/>
       <use x="52.099609" xlink:href="#DejaVuSans-99"/>
       <use x="107.080078" xlink:href="#DejaVuSans-105"/>
       <use x="134.863281" xlink:href="#DejaVuSans-101"/>
       <use x="196.386719" xlink:href="#DejaVuSans-110"/>
       <use x="259.765625" xlink:href="#DejaVuSans-116"/>
       <use x="298.974609" xlink:href="#DejaVuSans-105"/>
       <use x="326.757812" xlink:href="#DejaVuSans-102"/>
       <use x="361.962891" xlink:href="#DejaVuSans-105"/>
       <use x="389.746094" xlink:href="#DejaVuSans-99"/>
       <use x="444.726562" xlink:href="#DejaVuSans-32"/>
       <use x="476.513672" xlink:href="#DejaVuSans-99"/>
       <use x="531.494141" xlink:href="#DejaVuSans-111"/>
       <use x="592.675781" xlink:href="#DejaVuSans-109"/>
       <use x="690.087891" xlink:href="#DejaVuSans-109"/>
       <use x="787.5" xlink:href="#DejaVuSans-117"/>
       <use x="850.878906" xlink:href="#DejaVuSans-110"/>
       <use x="914.257812" xlink:href="#DejaVuSans-105"/>
       <use x="942.041016" xlink:href="#DejaVuSans-99"/>
       <use x="997.021484" xlink:href="#DejaVuSans-97"/>
       <use x="1058.300781" xlink:href="#DejaVuSans-116"/>
       <use x="1097.509766" xlink:href="#DejaVuSans-105"/>
       <use x="1125.292969" xlink:href="#DejaVuSans-111"/>
       <use x="1186.474609" xlink:href="#DejaVuSans-110"/>
      </g>
     </g>
    </g>
    <g id="ytick_5">
     <g id="line2d_26">
      <path clip-path="url(#pbae5278597)" d="M 202.996563 248.80903 
L 560.116563 248.80903 
" style="fill:none;stroke:#ffffff;"/>
     </g>
     <g id="line2d_27">
      <path d="M 202.996563 248.80903 
" style="fill:none;stroke:#333333;stroke-width:1.5;"/>
      <g>
       <use style="fill:#333333;stroke:#333333;" x="202.996563" xlink:href="#m3290f39abd" y="248.80903"/>
      </g>
     </g>
     <g id="text_12">
      <!-- physiology -->
      <g style="fill:#4d4d4d;" transform="translate(150.636563 251.23728)scale(0.088 -0.088)">
       <use xlink:href="#DejaVuSans-112"/>
       <use x="63.476562" xlink:href="#DejaVuSans-104"/>
       <use x="126.855469" xlink:href="#DejaVuSans-121"/>
       <use x="186.035156" xlink:href="#DejaVuSans-115"/>
       <use x="238.134766" xlink:href="#DejaVuSans-105"/>
       <use x="265.917969" xlink:href="#DejaVuSans-111"/>
       <use x="327.099609" xlink:href="#DejaVuSans-108"/>
       <use x="354.882812" xlink:href="#DejaVuSans-111"/>
       <use x="416.064453" xlink:href="#DejaVuSans-103"/>
       <use x="479.541016" xlink:href="#DejaVuSans-121"/>
      </g>
     </g>
    </g>
    <g id="ytick_6">
     <g id="line2d_28">
      <path clip-path="url(#pbae5278597)" d="M 202.996563 239.372435 
L 560.116563 239.372435 
" style="fill:none;stroke:#ffffff;"/>
     </g>
     <g id="line2d_29">
      <path d="M 202.996563 239.372435 
" style="fill:none;stroke:#333333;stroke-width:1.5;"/>
      <g>
       <use style="fill:#333333;stroke:#333333;" x="202.996563" xlink:href="#m3290f39abd" y="239.372435"/>
      </g>
     </g>
     <g id="text_13">
      <!-- immunology -->
      <g style="fill:#4d4d4d;" transform="translate(143.295438 241.800685)scale(0.088 -0.088)">
       <use xlink:href="#DejaVuSans-105"/>
       <use x="27.783203" xlink:href="#DejaVuSans-109"/>
       <use x="125.195312" xlink:href="#DejaVuSans-109"/>
       <use x="222.607422" xlink:href="#DejaVuSans-117"/>
       <use x="285.986328" xlink:href="#DejaVuSans-110"/>
       <use x="349.365234" xlink:href="#DejaVuSans-111"/>
       <use x="410.546875" xlink:href="#DejaVuSans-108"/>
       <use x="438.330078" xlink:href="#DejaVuSans-111"/>
       <use x="499.511719" xlink:href="#DejaVuSans-103"/>
       <use x="562.988281" xlink:href="#DejaVuSans-121"/>
      </g>
     </g>
    </g>
    <g id="ytick_7">
     <g id="line2d_30">
      <path clip-path="url(#pbae5278597)" d="M 202.996563 229.935839 
L 560.116563 229.935839 
" style="fill:none;stroke:#ffffff;"/>
     </g>
     <g id="line2d_31">
      <path d="M 202.996563 229.935839 
" style="fill:none;stroke:#333333;stroke-width:1.5;"/>
      <g>
       <use style="fill:#333333;stroke:#333333;" x="202.996563" xlink:href="#m3290f39abd" y="229.935839"/>
      </g>
     </g>
     <g id="text_14">
      <!-- ecology -->
      <g style="fill:#4d4d4d;" transform="translate(163.784313 232.364089)scale(0.088 -0.088)">
       <use xlink:href="#DejaVuSans-101"/>
       <use x="61.523438" xlink:href="#DejaVuSans-99"/>
       <use x="116.503906" xlink:href="#DejaVuSans-111"/>
       <use x="177.685547" xlink:href="#DejaVuSans-108"/>
       <use x="205.46875" xlink:href="#DejaVuSans-111"/>
       <use x="266.650391" xlink:href="#DejaVuSans-103"/>
       <use x="330.126953" xlink:href="#DejaVuSans-121"/>
      </g>
     </g>
    </g>
    <g id="ytick_8">
     <g id="line2d_32">
      <path clip-path="url(#pbae5278597)" d="M 202.996563 220.499243 
L 560.116563 220.499243 
" style="fill:none;stroke:#ffffff;"/>
     </g>
     <g id="line2d_33">
      <path d="M 202.996563 220.499243 
" style="fill:none;stroke:#333333;stroke-width:1.5;"/>
      <g>
       <use style="fill:#333333;stroke:#333333;" x="202.996563" xlink:href="#m3290f39abd" y="220.499243"/>
      </g>
     </g>
     <g id="text_15">
      <!-- paleontology -->
      <g style="fill:#4d4d4d;" transform="translate(140.787438 222.927493)scale(0.088 -0.088)">
       <use xlink:href="#DejaVuSans-112"/>
       <use x="63.476562" xlink:href="#DejaVuSans-97"/>
       <use x="124.755859" xlink:href="#DejaVuSans-108"/>
       <use x="152.539062" xlink:href="#DejaVuSans-101"/>
       <use x="214.0625" xlink:href="#DejaVuSans-111"/>
       <use x="275.244141" xlink:href="#DejaVuSans-110"/>
       <use x="338.623047" xlink:href="#DejaVuSans-116"/>
       <use x="377.832031" xlink:href="#DejaVuSans-111"/>
       <use x="439.013672" xlink:href="#DejaVuSans-108"/>
       <use x="466.796875" xlink:href="#DejaVuSans-111"/>
       <use x="527.978516" xlink:href="#DejaVuSans-103"/>
       <use x="591.455078" xlink:href="#DejaVuSans-121"/>
      </g>
     </g>
    </g>
    <g id="ytick_9">
     <g id="line2d_34">
      <path clip-path="url(#pbae5278597)" d="M 202.996563 211.062647 
L 560.116563 211.062647 
" style="fill:none;stroke:#ffffff;"/>
     </g>
     <g id="line2d_35">
      <path d="M 202.996563 211.062647 
" style="fill:none;stroke:#333333;stroke-width:1.5;"/>
      <g>
       <use style="fill:#333333;stroke:#333333;" x="202.996563" xlink:href="#m3290f39abd" y="211.062647"/>
      </g>
     </g>
     <g id="text_16">
      <!-- cancer biology -->
      <g style="fill:#4d4d4d;" transform="translate(133.530188 213.490897)scale(0.088 -0.088)">
       <use xlink:href="#DejaVuSans-99"/>
       <use x="54.980469" xlink:href="#DejaVuSans-97"/>
       <use x="116.259766" xlink:href="#DejaVuSans-110"/>
       <use x="179.638672" xlink:href="#DejaVuSans-99"/>
       <use x="234.619141" xlink:href="#DejaVuSans-101"/>
       <use x="296.142578" xlink:href="#DejaVuSans-114"/>
       <use x="337.255859" xlink:href="#DejaVuSans-32"/>
       <use x="369.042969" xlink:href="#DejaVuSans-98"/>
       <use x="432.519531" xlink:href="#DejaVuSans-105"/>
       <use x="460.302734" xlink:href="#DejaVuSans-111"/>
       <use x="521.484375" xlink:href="#DejaVuSans-108"/>
       <use x="549.267578" xlink:href="#DejaVuSans-111"/>
       <use x="610.449219" xlink:href="#DejaVuSans-103"/>
       <use x="673.925781" xlink:href="#DejaVuSans-121"/>
      </g>
     </g>
    </g>
    <g id="ytick_10">
     <g id="line2d_36">
      <path clip-path="url(#pbae5278597)" d="M 202.996563 201.626052 
L 560.116563 201.626052 
" style="fill:none;stroke:#ffffff;"/>
     </g>
     <g id="line2d_37">
      <path d="M 202.996563 201.626052 
" style="fill:none;stroke:#333333;stroke-width:1.5;"/>
      <g>
       <use style="fill:#333333;stroke:#333333;" x="202.996563" xlink:href="#m3290f39abd" y="201.626052"/>
      </g>
     </g>
     <g id="text_17">
      <!-- epidemiology -->
      <g style="fill:#4d4d4d;" transform="translate(138.573688 204.054302)scale(0.088 -0.088)">
       <use xlink:href="#DejaVuSans-101"/>
       <use x="61.523438" xlink:href="#DejaVuSans-112"/>
       <use x="125" xlink:href="#DejaVuSans-105"/>
       <use x="152.783203" xlink:href="#DejaVuSans-100"/>
       <use x="216.259766" xlink:href="#DejaVuSans-101"/>
       <use x="277.783203" xlink:href="#DejaVuSans-109"/>
       <use x="375.195312" xlink:href="#DejaVuSans-105"/>
       <use x="402.978516" xlink:href="#DejaVuSans-111"/>
       <use x="464.160156" xlink:href="#DejaVuSans-108"/>
       <use x="491.943359" xlink:href="#DejaVuSans-111"/>
       <use x="553.125" xlink:href="#DejaVuSans-103"/>
       <use x="616.601562" xlink:href="#DejaVuSans-121"/>
      </g>
     </g>
    </g>
    <g id="ytick_11">
     <g id="line2d_38">
      <path clip-path="url(#pbae5278597)" d="M 202.996563 192.189456 
L 560.116563 192.189456 
" style="fill:none;stroke:#ffffff;"/>
     </g>
     <g id="line2d_39">
      <path d="M 202.996563 192.189456 
" style="fill:none;stroke:#333333;stroke-width:1.5;"/>
      <g>
       <use style="fill:#333333;stroke:#333333;" x="202.996563" xlink:href="#m3290f39abd" y="192.189456"/>
      </g>
     </g>
     <g id="text_18">
      <!-- plant biology -->
      <g style="fill:#4d4d4d;" transform="translate(140.758563 194.617706)scale(0.088 -0.088)">
       <use xlink:href="#DejaVuSans-112"/>
       <use x="63.476562" xlink:href="#DejaVuSans-108"/>
       <use x="91.259766" xlink:href="#DejaVuSans-97"/>
       <use x="152.539062" xlink:href="#DejaVuSans-110"/>
       <use x="215.917969" xlink:href="#DejaVuSans-116"/>
       <use x="255.126953" xlink:href="#DejaVuSans-32"/>
       <use x="286.914062" xlink:href="#DejaVuSans-98"/>
       <use x="350.390625" xlink:href="#DejaVuSans-105"/>
       <use x="378.173828" xlink:href="#DejaVuSans-111"/>
       <use x="439.355469" xlink:href="#DejaVuSans-108"/>
       <use x="467.138672" xlink:href="#DejaVuSans-111"/>
       <use x="528.320312" xlink:href="#DejaVuSans-103"/>
       <use x="591.796875" xlink:href="#DejaVuSans-121"/>
      </g>
     </g>
    </g>
    <g id="ytick_12">
     <g id="line2d_40">
      <path clip-path="url(#pbae5278597)" d="M 202.996563 182.75286 
L 560.116563 182.75286 
" style="fill:none;stroke:#ffffff;"/>
     </g>
     <g id="line2d_41">
      <path d="M 202.996563 182.75286 
" style="fill:none;stroke:#333333;stroke-width:1.5;"/>
      <g>
       <use style="fill:#333333;stroke:#333333;" x="202.996563" xlink:href="#m3290f39abd" y="182.75286"/>
      </g>
     </g>
     <g id="text_19">
      <!-- scientific communication and education -->
      <g style="fill:#4d4d4d;" transform="translate(22.245937 185.18111)scale(0.088 -0.088)">
       <use xlink:href="#DejaVuSans-115"/>
       <use x="52.099609" xlink:href="#DejaVuSans-99"/>
       <use x="107.080078" xlink:href="#DejaVuSans-105"/>
       <use x="134.863281" xlink:href="#DejaVuSans-101"/>
       <use x="196.386719" xlink:href="#DejaVuSans-110"/>
       <use x="259.765625" xlink:href="#DejaVuSans-116"/>
       <use x="298.974609" xlink:href="#DejaVuSans-105"/>
       <use x="326.757812" xlink:href="#DejaVuSans-102"/>
       <use x="361.962891" xlink:href="#DejaVuSans-105"/>
       <use x="389.746094" xlink:href="#DejaVuSans-99"/>
       <use x="444.726562" xlink:href="#DejaVuSans-32"/>
       <use x="476.513672" xlink:href="#DejaVuSans-99"/>
       <use x="531.494141" xlink:href="#DejaVuSans-111"/>
       <use x="592.675781" xlink:href="#DejaVuSans-109"/>
       <use x="690.087891" xlink:href="#DejaVuSans-109"/>
       <use x="787.5" xlink:href="#DejaVuSans-117"/>
       <use x="850.878906" xlink:href="#DejaVuSans-110"/>
       <use x="914.257812" xlink:href="#DejaVuSans-105"/>
       <use x="942.041016" xlink:href="#DejaVuSans-99"/>
       <use x="997.021484" xlink:href="#DejaVuSans-97"/>
       <use x="1058.300781" xlink:href="#DejaVuSans-116"/>
       <use x="1097.509766" xlink:href="#DejaVuSans-105"/>
       <use x="1125.292969" xlink:href="#DejaVuSans-111"/>
       <use x="1186.474609" xlink:href="#DejaVuSans-110"/>
       <use x="1249.853516" xlink:href="#DejaVuSans-32"/>
       <use x="1281.640625" xlink:href="#DejaVuSans-97"/>
       <use x="1342.919922" xlink:href="#DejaVuSans-110"/>
       <use x="1406.298828" xlink:href="#DejaVuSans-100"/>
       <use x="1469.775391" xlink:href="#DejaVuSans-32"/>
       <use x="1501.5625" xlink:href="#DejaVuSans-101"/>
       <use x="1563.085938" xlink:href="#DejaVuSans-100"/>
       <use x="1626.5625" xlink:href="#DejaVuSans-117"/>
       <use x="1689.941406" xlink:href="#DejaVuSans-99"/>
       <use x="1744.921875" xlink:href="#DejaVuSans-97"/>
       <use x="1806.201172" xlink:href="#DejaVuSans-116"/>
       <use x="1845.410156" xlink:href="#DejaVuSans-105"/>
       <use x="1873.193359" xlink:href="#DejaVuSans-111"/>
       <use x="1934.375" xlink:href="#DejaVuSans-110"/>
      </g>
     </g>
    </g>
    <g id="ytick_13">
     <g id="line2d_42">
      <path clip-path="url(#pbae5278597)" d="M 202.996563 173.316264 
L 560.116563 173.316264 
" style="fill:none;stroke:#ffffff;"/>
     </g>
     <g id="line2d_43">
      <path d="M 202.996563 173.316264 
" style="fill:none;stroke:#333333;stroke-width:1.5;"/>
      <g>
       <use style="fill:#333333;stroke:#333333;" x="202.996563" xlink:href="#m3290f39abd" y="173.316264"/>
      </g>
     </g>
     <g id="text_20">
      <!-- bioengineering -->
      <g style="fill:#4d4d4d;" transform="translate(131.975063 175.744514)scale(0.088 -0.088)">
       <use xlink:href="#DejaVuSans-98"/>
       <use x="63.476562" xlink:href="#DejaVuSans-105"/>
       <use x="91.259766" xlink:href="#DejaVuSans-111"/>
       <use x="152.441406" xlink:href="#DejaVuSans-101"/>
       <use x="213.964844" xlink:href="#DejaVuSans-110"/>
       <use x="277.34375" xlink:href="#DejaVuSans-103"/>
       <use x="340.820312" xlink:href="#DejaVuSans-105"/>
       <use x="368.603516" xlink:href="#DejaVuSans-110"/>
       <use x="431.982422" xlink:href="#DejaVuSans-101"/>
       <use x="493.505859" xlink:href="#DejaVuSans-101"/>
       <use x="555.029297" xlink:href="#DejaVuSans-114"/>
       <use x="596.142578" xlink:href="#DejaVuSans-105"/>
       <use x="623.925781" xlink:href="#DejaVuSans-110"/>
       <use x="687.304688" xlink:href="#DejaVuSans-103"/>
      </g>
     </g>
    </g>
    <g id="ytick_14">
     <g id="line2d_44">
      <path clip-path="url(#pbae5278597)" d="M 202.996563 163.879669 
L 560.116563 163.879669 
" style="fill:none;stroke:#ffffff;"/>
     </g>
     <g id="line2d_45">
      <path d="M 202.996563 163.879669 
" style="fill:none;stroke:#333333;stroke-width:1.5;"/>
      <g>
       <use style="fill:#333333;stroke:#333333;" x="202.996563" xlink:href="#m3290f39abd" y="163.879669"/>
      </g>
     </g>
     <g id="text_21">
      <!-- bioinformatics -->
      <g style="fill:#4d4d4d;" transform="translate(135.228313 166.307919)scale(0.088 -0.088)">
       <use xlink:href="#DejaVuSans-98"/>
       <use x="63.476562" xlink:href="#DejaVuSans-105"/>
       <use x="91.259766" xlink:href="#DejaVuSans-111"/>
       <use x="152.441406" xlink:href="#DejaVuSans-105"/>
       <use x="180.224609" xlink:href="#DejaVuSans-110"/>
       <use x="243.603516" xlink:href="#DejaVuSans-102"/>
       <use x="278.808594" xlink:href="#DejaVuSans-111"/>
       <use x="339.990234" xlink:href="#DejaVuSans-114"/>
       <use x="381.087891" xlink:href="#DejaVuSans-109"/>
       <use x="478.5" xlink:href="#DejaVuSans-97"/>
       <use x="539.779297" xlink:href="#DejaVuSans-116"/>
       <use x="578.988281" xlink:href="#DejaVuSans-105"/>
       <use x="606.771484" xlink:href="#DejaVuSans-99"/>
       <use x="661.751953" xlink:href="#DejaVuSans-115"/>
      </g>
     </g>
    </g>
    <g id="ytick_15">
     <g id="line2d_46">
      <path clip-path="url(#pbae5278597)" d="M 202.996563 154.443073 
L 560.116563 154.443073 
" style="fill:none;stroke:#ffffff;"/>
     </g>
     <g id="line2d_47">
      <path d="M 202.996563 154.443073 
" style="fill:none;stroke:#333333;stroke-width:1.5;"/>
      <g>
       <use style="fill:#333333;stroke:#333333;" x="202.996563" xlink:href="#m3290f39abd" y="154.443073"/>
      </g>
     </g>
     <g id="text_22">
      <!-- cell biology -->
      <g style="fill:#4d4d4d;" transform="translate(148.066688 156.871323)scale(0.088 -0.088)">
       <use xlink:href="#DejaVuSans-99"/>
       <use x="54.980469" xlink:href="#DejaVuSans-101"/>
       <use x="116.503906" xlink:href="#DejaVuSans-108"/>
       <use x="144.287109" xlink:href="#DejaVuSans-108"/>
       <use x="172.070312" xlink:href="#DejaVuSans-32"/>
       <use x="203.857422" xlink:href="#DejaVuSans-98"/>
       <use x="267.333984" xlink:href="#DejaVuSans-105"/>
       <use x="295.117188" xlink:href="#DejaVuSans-111"/>
       <use x="356.298828" xlink:href="#DejaVuSans-108"/>
       <use x="384.082031" xlink:href="#DejaVuSans-111"/>
       <use x="445.263672" xlink:href="#DejaVuSans-103"/>
       <use x="508.740234" xlink:href="#DejaVuSans-121"/>
      </g>
     </g>
    </g>
    <g id="ytick_16">
     <g id="line2d_48">
      <path clip-path="url(#pbae5278597)" d="M 202.996563 145.006477 
L 560.116563 145.006477 
" style="fill:none;stroke:#ffffff;"/>
     </g>
     <g id="line2d_49">
      <path d="M 202.996563 145.006477 
" style="fill:none;stroke:#333333;stroke-width:1.5;"/>
      <g>
       <use style="fill:#333333;stroke:#333333;" x="202.996563" xlink:href="#m3290f39abd" y="145.006477"/>
      </g>
     </g>
     <g id="text_23">
      <!-- systems biology -->
      <g style="fill:#4d4d4d;" transform="translate(126.811938 147.434727)scale(0.088 -0.088)">
       <use xlink:href="#DejaVuSans-115"/>
       <use x="52.099609" xlink:href="#DejaVuSans-121"/>
       <use x="111.279297" xlink:href="#DejaVuSans-115"/>
       <use x="163.378906" xlink:href="#DejaVuSans-116"/>
       <use x="202.587891" xlink:href="#DejaVuSans-101"/>
       <use x="264.111328" xlink:href="#DejaVuSans-109"/>
       <use x="361.523438" xlink:href="#DejaVuSans-115"/>
       <use x="413.623047" xlink:href="#DejaVuSans-32"/>
       <use x="445.410156" xlink:href="#DejaVuSans-98"/>
       <use x="508.886719" xlink:href="#DejaVuSans-105"/>
       <use x="536.669922" xlink:href="#DejaVuSans-111"/>
       <use x="597.851562" xlink:href="#DejaVuSans-108"/>
       <use x="625.634766" xlink:href="#DejaVuSans-111"/>
       <use x="686.816406" xlink:href="#DejaVuSans-103"/>
       <use x="750.292969" xlink:href="#DejaVuSans-121"/>
      </g>
     </g>
    </g>
    <g id="ytick_17">
     <g id="line2d_50">
      <path clip-path="url(#pbae5278597)" d="M 202.996563 135.569881 
L 560.116563 135.569881 
" style="fill:none;stroke:#ffffff;"/>
     </g>
     <g id="line2d_51">
      <path d="M 202.996563 135.569881 
" style="fill:none;stroke:#333333;stroke-width:1.5;"/>
      <g>
       <use style="fill:#333333;stroke:#333333;" x="202.996563" xlink:href="#m3290f39abd" y="135.569881"/>
      </g>
     </g>
     <g id="text_24">
      <!-- neuroscience -->
      <g style="fill:#4d4d4d;" transform="translate(139.365688 137.998131)scale(0.088 -0.088)">
       <use xlink:href="#DejaVuSans-110"/>
       <use x="63.378906" xlink:href="#DejaVuSans-101"/>
       <use x="124.902344" xlink:href="#DejaVuSans-117"/>
       <use x="188.28125" xlink:href="#DejaVuSans-114"/>
       <use x="229.363281" xlink:href="#DejaVuSans-111"/>
       <use x="290.544922" xlink:href="#DejaVuSans-115"/>
       <use x="342.644531" xlink:href="#DejaVuSans-99"/>
       <use x="397.625" xlink:href="#DejaVuSans-105"/>
       <use x="425.408203" xlink:href="#DejaVuSans-101"/>
       <use x="486.931641" xlink:href="#DejaVuSans-110"/>
       <use x="550.310547" xlink:href="#DejaVuSans-99"/>
       <use x="605.291016" xlink:href="#DejaVuSans-101"/>
      </g>
     </g>
    </g>
    <g id="ytick_18">
     <g id="line2d_52">
      <path clip-path="url(#pbae5278597)" d="M 202.996563 126.133286 
L 560.116563 126.133286 
" style="fill:none;stroke:#ffffff;"/>
     </g>
     <g id="line2d_53">
      <path d="M 202.996563 126.133286 
" style="fill:none;stroke:#333333;stroke-width:1.5;"/>
      <g>
       <use style="fill:#333333;stroke:#333333;" x="202.996563" xlink:href="#m3290f39abd" y="126.133286"/>
      </g>
     </g>
     <g id="text_25">
      <!-- molecular biology -->
      <g style="fill:#4d4d4d;" transform="translate(119.523063 128.561536)scale(0.088 -0.088)">
       <use xlink:href="#DejaVuSans-109"/>
       <use x="97.412109" xlink:href="#DejaVuSans-111"/>
       <use x="158.59375" xlink:href="#DejaVuSans-108"/>
       <use x="186.376953" xlink:href="#DejaVuSans-101"/>
       <use x="247.900391" xlink:href="#DejaVuSans-99"/>
       <use x="302.880859" xlink:href="#DejaVuSans-117"/>
       <use x="366.259766" xlink:href="#DejaVuSans-108"/>
       <use x="394.042969" xlink:href="#DejaVuSans-97"/>
       <use x="455.322266" xlink:href="#DejaVuSans-114"/>
       <use x="496.435547" xlink:href="#DejaVuSans-32"/>
       <use x="528.222656" xlink:href="#DejaVuSans-98"/>
       <use x="591.699219" xlink:href="#DejaVuSans-105"/>
       <use x="619.482422" xlink:href="#DejaVuSans-111"/>
       <use x="680.664062" xlink:href="#DejaVuSans-108"/>
       <use x="708.447266" xlink:href="#DejaVuSans-111"/>
       <use x="769.628906" xlink:href="#DejaVuSans-103"/>
       <use x="833.105469" xlink:href="#DejaVuSans-121"/>
      </g>
     </g>
    </g>
    <g id="ytick_19">
     <g id="line2d_54">
      <path clip-path="url(#pbae5278597)" d="M 202.996563 116.69669 
L 560.116563 116.69669 
" style="fill:none;stroke:#ffffff;"/>
     </g>
     <g id="line2d_55">
      <path d="M 202.996563 116.69669 
" style="fill:none;stroke:#333333;stroke-width:1.5;"/>
      <g>
       <use style="fill:#333333;stroke:#333333;" x="202.996563" xlink:href="#m3290f39abd" y="116.69669"/>
      </g>
     </g>
     <g id="text_26">
      <!-- synthetic biology -->
      <g style="fill:#4d4d4d;" transform="translate(122.664938 119.12494)scale(0.088 -0.088)">
       <use xlink:href="#DejaVuSans-115"/>
       <use x="52.099609" xlink:href="#DejaVuSans-121"/>
       <use x="111.279297" xlink:href="#DejaVuSans-110"/>
       <use x="174.658203" xlink:href="#DejaVuSans-116"/>
       <use x="213.867188" xlink:href="#DejaVuSans-104"/>
       <use x="277.246094" xlink:href="#DejaVuSans-101"/>
       <use x="338.769531" xlink:href="#DejaVuSans-116"/>
       <use x="377.978516" xlink:href="#DejaVuSans-105"/>
       <use x="405.761719" xlink:href="#DejaVuSans-99"/>
       <use x="460.742188" xlink:href="#DejaVuSans-32"/>
       <use x="492.529297" xlink:href="#DejaVuSans-98"/>
       <use x="556.005859" xlink:href="#DejaVuSans-105"/>
       <use x="583.789062" xlink:href="#DejaVuSans-111"/>
       <use x="644.970703" xlink:href="#DejaVuSans-108"/>
       <use x="672.753906" xlink:href="#DejaVuSans-111"/>
       <use x="733.935547" xlink:href="#DejaVuSans-103"/>
       <use x="797.412109" xlink:href="#DejaVuSans-121"/>
      </g>
     </g>
    </g>
    <g id="ytick_20">
     <g id="line2d_56">
      <path clip-path="url(#pbae5278597)" d="M 202.996563 107.260094 
L 560.116563 107.260094 
" style="fill:none;stroke:#ffffff;"/>
     </g>
     <g id="line2d_57">
      <path d="M 202.996563 107.260094 
" style="fill:none;stroke:#333333;stroke-width:1.5;"/>
      <g>
       <use style="fill:#333333;stroke:#333333;" x="202.996563" xlink:href="#m3290f39abd" y="107.260094"/>
      </g>
     </g>
     <g id="text_27">
      <!-- pharmacology -->
      <g style="fill:#4d4d4d;" transform="translate(135.061937 109.688344)scale(0.088 -0.088)">
       <use xlink:href="#DejaVuSans-112"/>
       <use x="63.476562" xlink:href="#DejaVuSans-104"/>
       <use x="126.855469" xlink:href="#DejaVuSans-97"/>
       <use x="188.134766" xlink:href="#DejaVuSans-114"/>
       <use x="229.232422" xlink:href="#DejaVuSans-109"/>
       <use x="326.644531" xlink:href="#DejaVuSans-97"/>
       <use x="387.923828" xlink:href="#DejaVuSans-99"/>
       <use x="442.904297" xlink:href="#DejaVuSans-111"/>
       <use x="504.085938" xlink:href="#DejaVuSans-108"/>
       <use x="531.869141" xlink:href="#DejaVuSans-111"/>
       <use x="593.050781" xlink:href="#DejaVuSans-103"/>
       <use x="656.527344" xlink:href="#DejaVuSans-121"/>
      </g>
     </g>
    </g>
    <g id="ytick_21">
     <g id="line2d_58">
      <path clip-path="url(#pbae5278597)" d="M 202.996563 97.823498 
L 560.116563 97.823498 
" style="fill:none;stroke:#ffffff;"/>
     </g>
     <g id="line2d_59">
      <path d="M 202.996563 97.823498 
" style="fill:none;stroke:#333333;stroke-width:1.5;"/>
      <g>
       <use style="fill:#333333;stroke:#333333;" x="202.996563" xlink:href="#m3290f39abd" y="97.823498"/>
      </g>
     </g>
     <g id="text_28">
      <!-- developmental biology -->
      <defs>
       <path d="M 2.984375 54.6875 
L 12.5 54.6875 
L 29.59375 8.796875 
L 46.6875 54.6875 
L 56.203125 54.6875 
L 35.6875 0 
L 23.484375 0 
z
" id="DejaVuSans-118"/>
      </defs>
      <g style="fill:#4d4d4d;" transform="translate(97.318188 100.251748)scale(0.088 -0.088)">
       <use xlink:href="#DejaVuSans-100"/>
       <use x="63.476562" xlink:href="#DejaVuSans-101"/>
       <use x="125" xlink:href="#DejaVuSans-118"/>
       <use x="184.179688" xlink:href="#DejaVuSans-101"/>
       <use x="245.703125" xlink:href="#DejaVuSans-108"/>
       <use x="273.486328" xlink:href="#DejaVuSans-111"/>
       <use x="334.667969" xlink:href="#DejaVuSans-112"/>
       <use x="398.144531" xlink:href="#DejaVuSans-109"/>
       <use x="495.556641" xlink:href="#DejaVuSans-101"/>
       <use x="557.080078" xlink:href="#DejaVuSans-110"/>
       <use x="620.458984" xlink:href="#DejaVuSans-116"/>
       <use x="659.667969" xlink:href="#DejaVuSans-97"/>
       <use x="720.947266" xlink:href="#DejaVuSans-108"/>
       <use x="748.730469" xlink:href="#DejaVuSans-32"/>
       <use x="780.517578" xlink:href="#DejaVuSans-98"/>
       <use x="843.994141" xlink:href="#DejaVuSans-105"/>
       <use x="871.777344" xlink:href="#DejaVuSans-111"/>
       <use x="932.958984" xlink:href="#DejaVuSans-108"/>
       <use x="960.742188" xlink:href="#DejaVuSans-111"/>
       <use x="1021.923828" xlink:href="#DejaVuSans-103"/>
       <use x="1085.400391" xlink:href="#DejaVuSans-121"/>
      </g>
     </g>
    </g>
    <g id="ytick_22">
     <g id="line2d_60">
      <path clip-path="url(#pbae5278597)" d="M 202.996563 88.386903 
L 560.116563 88.386903 
" style="fill:none;stroke:#ffffff;"/>
     </g>
     <g id="line2d_61">
      <path d="M 202.996563 88.386903 
" style="fill:none;stroke:#333333;stroke-width:1.5;"/>
      <g>
       <use style="fill:#333333;stroke:#333333;" x="202.996563" xlink:href="#m3290f39abd" y="88.386903"/>
      </g>
     </g>
     <g id="text_29">
      <!-- animal behavior and cognition -->
      <g style="fill:#4d4d4d;" transform="translate(63.962063 90.815153)scale(0.088 -0.088)">
       <use xlink:href="#DejaVuSans-97"/>
       <use x="61.279297" xlink:href="#DejaVuSans-110"/>
       <use x="124.658203" xlink:href="#DejaVuSans-105"/>
       <use x="152.441406" xlink:href="#DejaVuSans-109"/>
       <use x="249.853516" xlink:href="#DejaVuSans-97"/>
       <use x="311.132812" xlink:href="#DejaVuSans-108"/>
       <use x="338.916016" xlink:href="#DejaVuSans-32"/>
       <use x="370.703125" xlink:href="#DejaVuSans-98"/>
       <use x="434.179688" xlink:href="#DejaVuSans-101"/>
       <use x="495.703125" xlink:href="#DejaVuSans-104"/>
       <use x="559.082031" xlink:href="#DejaVuSans-97"/>
       <use x="620.361328" xlink:href="#DejaVuSans-118"/>
       <use x="679.541016" xlink:href="#DejaVuSans-105"/>
       <use x="707.324219" xlink:href="#DejaVuSans-111"/>
       <use x="768.505859" xlink:href="#DejaVuSans-114"/>
       <use x="809.619141" xlink:href="#DejaVuSans-32"/>
       <use x="841.40625" xlink:href="#DejaVuSans-97"/>
       <use x="902.685547" xlink:href="#DejaVuSans-110"/>
       <use x="966.064453" xlink:href="#DejaVuSans-100"/>
       <use x="1029.541016" xlink:href="#DejaVuSans-32"/>
       <use x="1061.328125" xlink:href="#DejaVuSans-99"/>
       <use x="1116.308594" xlink:href="#DejaVuSans-111"/>
       <use x="1177.490234" xlink:href="#DejaVuSans-103"/>
       <use x="1240.966797" xlink:href="#DejaVuSans-110"/>
       <use x="1304.345703" xlink:href="#DejaVuSans-105"/>
       <use x="1332.128906" xlink:href="#DejaVuSans-116"/>
       <use x="1371.337891" xlink:href="#DejaVuSans-105"/>
       <use x="1399.121094" xlink:href="#DejaVuSans-111"/>
       <use x="1460.302734" xlink:href="#DejaVuSans-110"/>
      </g>
     </g>
    </g>
    <g id="ytick_23">
     <g id="line2d_62">
      <path clip-path="url(#pbae5278597)" d="M 202.996563 78.950307 
L 560.116563 78.950307 
" style="fill:none;stroke:#ffffff;"/>
     </g>
     <g id="line2d_63">
      <path d="M 202.996563 78.950307 
" style="fill:none;stroke:#333333;stroke-width:1.5;"/>
      <g>
       <use style="fill:#333333;stroke:#333333;" x="202.996563" xlink:href="#m3290f39abd" y="78.950307"/>
      </g>
     </g>
     <g id="text_30">
      <!-- genetics -->
      <g style="fill:#4d4d4d;" transform="translate(160.735938 81.378557)scale(0.088 -0.088)">
       <use xlink:href="#DejaVuSans-103"/>
       <use x="63.476562" xlink:href="#DejaVuSans-101"/>
       <use x="125" xlink:href="#DejaVuSans-110"/>
       <use x="188.378906" xlink:href="#DejaVuSans-101"/>
       <use x="249.902344" xlink:href="#DejaVuSans-116"/>
       <use x="289.111328" xlink:href="#DejaVuSans-105"/>
       <use x="316.894531" xlink:href="#DejaVuSans-99"/>
       <use x="371.875" xlink:href="#DejaVuSans-115"/>
      </g>
     </g>
    </g>
    <g id="ytick_24">
     <g id="line2d_64">
      <path clip-path="url(#pbae5278597)" d="M 202.996563 69.513711 
L 560.116563 69.513711 
" style="fill:none;stroke:#ffffff;"/>
     </g>
     <g id="line2d_65">
      <path d="M 202.996563 69.513711 
" style="fill:none;stroke:#333333;stroke-width:1.5;"/>
      <g>
       <use style="fill:#333333;stroke:#333333;" x="202.996563" xlink:href="#m3290f39abd" y="69.513711"/>
      </g>
     </g>
     <g id="text_31">
      <!-- genomics -->
      <g style="fill:#4d4d4d;" transform="translate(155.644313 71.941961)scale(0.088 -0.088)">
       <use xlink:href="#DejaVuSans-103"/>
       <use x="63.476562" xlink:href="#DejaVuSans-101"/>
       <use x="125" xlink:href="#DejaVuSans-110"/>
       <use x="188.378906" xlink:href="#DejaVuSans-111"/>
       <use x="249.560547" xlink:href="#DejaVuSans-109"/>
       <use x="346.972656" xlink:href="#DejaVuSans-105"/>
       <use x="374.755859" xlink:href="#DejaVuSans-99"/>
       <use x="429.736328" xlink:href="#DejaVuSans-115"/>
      </g>
     </g>
    </g>
    <g id="ytick_25">
     <g id="line2d_66">
      <path clip-path="url(#pbae5278597)" d="M 202.996563 60.077115 
L 560.116563 60.077115 
" style="fill:none;stroke:#ffffff;"/>
     </g>
     <g id="line2d_67">
      <path d="M 202.996563 60.077115 
" style="fill:none;stroke:#333333;stroke-width:1.5;"/>
      <g>
       <use style="fill:#333333;stroke:#333333;" x="202.996563" xlink:href="#m3290f39abd" y="60.077115"/>
      </g>
     </g>
     <g id="text_32">
      <!-- microbiology -->
      <g style="fill:#4d4d4d;" transform="translate(141.151813 62.505365)scale(0.088 -0.088)">
       <use xlink:href="#DejaVuSans-109"/>
       <use x="97.412109" xlink:href="#DejaVuSans-105"/>
       <use x="125.195312" xlink:href="#DejaVuSans-99"/>
       <use x="180.175781" xlink:href="#DejaVuSans-114"/>
       <use x="221.257812" xlink:href="#DejaVuSans-111"/>
       <use x="282.439453" xlink:href="#DejaVuSans-98"/>
       <use x="345.916016" xlink:href="#DejaVuSans-105"/>
       <use x="373.699219" xlink:href="#DejaVuSans-111"/>
       <use x="434.880859" xlink:href="#DejaVuSans-108"/>
       <use x="462.664062" xlink:href="#DejaVuSans-111"/>
       <use x="523.845703" xlink:href="#DejaVuSans-103"/>
       <use x="587.322266" xlink:href="#DejaVuSans-121"/>
      </g>
     </g>
    </g>
    <g id="ytick_26">
     <g id="line2d_68">
      <path clip-path="url(#pbae5278597)" d="M 202.996563 50.64052 
L 560.116563 50.64052 
" style="fill:none;stroke:#ffffff;"/>
     </g>
     <g id="line2d_69">
      <path d="M 202.996563 50.64052 
" style="fill:none;stroke:#333333;stroke-width:1.5;"/>
      <g>
       <use style="fill:#333333;stroke:#333333;" x="202.996563" xlink:href="#m3290f39abd" y="50.64052"/>
      </g>
     </g>
     <g id="text_33">
      <!-- evolutionary biology -->
      <g style="fill:#4d4d4d;" transform="translate(108.105063 53.06877)scale(0.088 -0.088)">
       <use xlink:href="#DejaVuSans-101"/>
       <use x="61.523438" xlink:href="#DejaVuSans-118"/>
       <use x="120.703125" xlink:href="#DejaVuSans-111"/>
       <use x="181.884766" xlink:href="#DejaVuSans-108"/>
       <use x="209.667969" xlink:href="#DejaVuSans-117"/>
       <use x="273.046875" xlink:href="#DejaVuSans-116"/>
       <use x="312.255859" xlink:href="#DejaVuSans-105"/>
       <use x="340.039062" xlink:href="#DejaVuSans-111"/>
       <use x="401.220703" xlink:href="#DejaVuSans-110"/>
       <use x="464.599609" xlink:href="#DejaVuSans-97"/>
       <use x="525.878906" xlink:href="#DejaVuSans-114"/>
       <use x="566.992188" xlink:href="#DejaVuSans-121"/>
       <use x="626.171875" xlink:href="#DejaVuSans-32"/>
       <use x="657.958984" xlink:href="#DejaVuSans-98"/>
       <use x="721.435547" xlink:href="#DejaVuSans-105"/>
       <use x="749.21875" xlink:href="#DejaVuSans-111"/>
       <use x="810.400391" xlink:href="#DejaVuSans-108"/>
       <use x="838.183594" xlink:href="#DejaVuSans-111"/>
       <use x="899.365234" xlink:href="#DejaVuSans-103"/>
       <use x="962.841797" xlink:href="#DejaVuSans-121"/>
      </g>
     </g>
    </g>
    <g id="ytick_27">
     <g id="line2d_70">
      <path clip-path="url(#pbae5278597)" d="M 202.996563 41.203924 
L 560.116563 41.203924 
" style="fill:none;stroke:#ffffff;"/>
     </g>
     <g id="line2d_71">
      <path d="M 202.996563 41.203924 
" style="fill:none;stroke:#333333;stroke-width:1.5;"/>
      <g>
       <use style="fill:#333333;stroke:#333333;" x="202.996563" xlink:href="#m3290f39abd" y="41.203924"/>
      </g>
     </g>
     <g id="text_34">
      <!-- biochemistry -->
      <g style="fill:#4d4d4d;" transform="translate(140.923563 43.632174)scale(0.088 -0.088)">
       <use xlink:href="#DejaVuSans-98"/>
       <use x="63.476562" xlink:href="#DejaVuSans-105"/>
       <use x="91.259766" xlink:href="#DejaVuSans-111"/>
       <use x="152.441406" xlink:href="#DejaVuSans-99"/>
       <use x="207.421875" xlink:href="#DejaVuSans-104"/>
       <use x="270.800781" xlink:href="#DejaVuSans-101"/>
       <use x="332.324219" xlink:href="#DejaVuSans-109"/>
       <use x="429.736328" xlink:href="#DejaVuSans-105"/>
       <use x="457.519531" xlink:href="#DejaVuSans-115"/>
       <use x="509.619141" xlink:href="#DejaVuSans-116"/>
       <use x="548.828125" xlink:href="#DejaVuSans-114"/>
       <use x="589.941406" xlink:href="#DejaVuSans-121"/>
      </g>
     </g>
    </g>
    <g id="ytick_28">
     <g id="line2d_72">
      <path clip-path="url(#pbae5278597)" d="M 202.996563 31.767328 
L 560.116563 31.767328 
" style="fill:none;stroke:#ffffff;"/>
     </g>
     <g id="line2d_73">
      <path d="M 202.996563 31.767328 
" style="fill:none;stroke:#333333;stroke-width:1.5;"/>
      <g>
       <use style="fill:#333333;stroke:#333333;" x="202.996563" xlink:href="#m3290f39abd" y="31.767328"/>
      </g>
     </g>
     <g id="text_35">
      <!-- biophysics -->
      <g style="fill:#4d4d4d;" transform="translate(151.806688 34.195578)scale(0.088 -0.088)">
       <use xlink:href="#DejaVuSans-98"/>
       <use x="63.476562" xlink:href="#DejaVuSans-105"/>
       <use x="91.259766" xlink:href="#DejaVuSans-111"/>
       <use x="152.441406" xlink:href="#DejaVuSans-112"/>
       <use x="215.917969" xlink:href="#DejaVuSans-104"/>
       <use x="279.296875" xlink:href="#DejaVuSans-121"/>
       <use x="338.476562" xlink:href="#DejaVuSans-115"/>
       <use x="390.576172" xlink:href="#DejaVuSans-105"/>
       <use x="418.359375" xlink:href="#DejaVuSans-99"/>
       <use x="473.339844" xlink:href="#DejaVuSans-115"/>
      </g>
     </g>
    </g>
    <g id="text_36">
     <!-- preprint category -->
     <g transform="translate(15.558281 205.547199)rotate(-90)scale(0.11 -0.11)">
      <use xlink:href="#DejaVuSans-112"/>
      <use x="63.476562" xlink:href="#DejaVuSans-114"/>
      <use x="104.558594" xlink:href="#DejaVuSans-101"/>
      <use x="166.082031" xlink:href="#DejaVuSans-112"/>
      <use x="229.558594" xlink:href="#DejaVuSans-114"/>
      <use x="270.671875" xlink:href="#DejaVuSans-105"/>
      <use x="298.455078" xlink:href="#DejaVuSans-110"/>
      <use x="361.833984" xlink:href="#DejaVuSans-116"/>
      <use x="401.042969" xlink:href="#DejaVuSans-32"/>
      <use x="432.830078" xlink:href="#DejaVuSans-99"/>
      <use x="487.810547" xlink:href="#DejaVuSans-97"/>
      <use x="549.089844" xlink:href="#DejaVuSans-116"/>
      <use x="588.298828" xlink:href="#DejaVuSans-101"/>
      <use x="649.822266" xlink:href="#DejaVuSans-103"/>
      <use x="713.298828" xlink:href="#DejaVuSans-111"/>
      <use x="774.480469" xlink:href="#DejaVuSans-114"/>
      <use x="815.59375" xlink:href="#DejaVuSans-121"/>
     </g>
    </g>
   </g>
   <g id="PolyCollection_1">
    <path clip-path="url(#pbae5278597)" d="M 219.22929 290.801881 
L 219.22929 282.308945 
L 543.883835 282.308945 
L 543.883835 290.801881 
z
" style="fill:#595959;"/>
    <path clip-path="url(#pbae5278597)" d="M 219.22929 281.365286 
L 219.22929 272.872349 
L 543.883835 272.872349 
L 543.883835 281.365286 
z
" style="fill:#595959;"/>
    <path clip-path="url(#pbae5278597)" d="M 219.22929 271.92869 
L 219.22929 263.435754 
L 543.883835 263.435754 
L 543.883835 271.92869 
z
" style="fill:#595959;"/>
    <path clip-path="url(#pbae5278597)" d="M 219.22929 262.492094 
L 219.22929 253.999158 
L 412.326156 253.999158 
L 412.326156 262.492094 
z
" style="fill:#595959;"/>
    <path clip-path="url(#pbae5278597)" d="M 219.22929 253.055498 
L 219.22929 244.562562 
L 300.29657 244.562562 
L 300.29657 253.055498 
z
" style="fill:#595959;"/>
    <path clip-path="url(#pbae5278597)" d="M 219.22929 243.618903 
L 219.22929 235.125966 
L 286.935244 235.125966 
L 286.935244 243.618903 
z
" style="fill:#595959;"/>
    <path clip-path="url(#pbae5278597)" d="M 219.22929 234.182307 
L 219.22929 225.689371 
L 286.806769 225.689371 
L 286.806769 234.182307 
z
" style="fill:#595959;"/>
    <path clip-path="url(#pbae5278597)" d="M 219.22929 224.745711 
L 219.22929 216.252775 
L 281.410849 216.252775 
L 281.410849 224.745711 
z
" style="fill:#595959;"/>
    <path clip-path="url(#pbae5278597)" d="M 219.22929 215.309115 
L 219.22929 206.816179 
L 279.226786 206.816179 
L 279.226786 215.309115 
z
" style="fill:#595959;"/>
    <path clip-path="url(#pbae5278597)" d="M 219.22929 205.87252 
L 219.22929 197.379583 
L 274.344763 197.379583 
L 274.344763 205.87252 
z
" style="fill:#595959;"/>
    <path clip-path="url(#pbae5278597)" d="M 219.22929 196.435924 
L 219.22929 187.942988 
L 271.775277 187.942988 
L 271.775277 196.435924 
z
" style="fill:#595959;"/>
    <path clip-path="url(#pbae5278597)" d="M 219.22929 186.999328 
L 219.22929 178.506392 
L 270.362059 178.506392 
L 270.362059 186.999328 
z
" style="fill:#595959;"/>
    <path clip-path="url(#pbae5278597)" d="M 219.22929 177.562732 
L 219.22929 169.069796 
L 270.105111 169.069796 
L 270.105111 177.562732 
z
" style="fill:#595959;"/>
    <path clip-path="url(#pbae5278597)" d="M 219.22929 168.126137 
L 219.22929 159.633201 
L 269.719688 159.633201 
L 269.719688 168.126137 
z
" style="fill:#595959;"/>
    <path clip-path="url(#pbae5278597)" d="M 219.22929 158.689541 
L 219.22929 150.196605 
L 267.535625 150.196605 
L 267.535625 158.689541 
z
" style="fill:#595959;"/>
    <path clip-path="url(#pbae5278597)" d="M 219.22929 149.252945 
L 219.22929 140.760009 
L 266.893254 140.760009 
L 266.893254 149.252945 
z
" style="fill:#595959;"/>
    <path clip-path="url(#pbae5278597)" d="M 219.22929 139.816349 
L 219.22929 131.323413 
L 264.323768 131.323413 
L 264.323768 139.816349 
z
" style="fill:#595959;"/>
    <path clip-path="url(#pbae5278597)" d="M 219.22929 130.379754 
L 219.22929 121.886818 
L 264.195293 121.886818 
L 264.195293 130.379754 
z
" style="fill:#595959;"/>
    <path clip-path="url(#pbae5278597)" d="M 219.22929 120.943158 
L 219.22929 112.450222 
L 264.066819 112.450222 
L 264.066819 120.943158 
z
" style="fill:#595959;"/>
    <path clip-path="url(#pbae5278597)" d="M 219.22929 111.506562 
L 219.22929 103.013626 
L 263.552922 103.013626 
L 263.552922 111.506562 
z
" style="fill:#595959;"/>
    <path clip-path="url(#pbae5278597)" d="M 219.22929 102.069966 
L 219.22929 93.57703 
L 263.424448 93.57703 
L 263.424448 102.069966 
z
" style="fill:#595959;"/>
    <path clip-path="url(#pbae5278597)" d="M 219.22929 92.633371 
L 219.22929 84.140435 
L 263.039025 84.140435 
L 263.039025 92.633371 
z
" style="fill:#595959;"/>
    <path clip-path="url(#pbae5278597)" d="M 219.22929 83.196775 
L 219.22929 74.703839 
L 259.827167 74.703839 
L 259.827167 83.196775 
z
" style="fill:#595959;"/>
    <path clip-path="url(#pbae5278597)" d="M 219.22929 73.760179 
L 219.22929 65.267243 
L 259.441744 65.267243 
L 259.441744 73.760179 
z
" style="fill:#595959;"/>
    <path clip-path="url(#pbae5278597)" d="M 219.22929 64.323583 
L 219.22929 55.830647 
L 257.643104 55.830647 
L 257.643104 64.323583 
z
" style="fill:#595959;"/>
    <path clip-path="url(#pbae5278597)" d="M 219.22929 54.886988 
L 219.22929 46.394052 
L 256.101413 46.394052 
L 256.101413 54.886988 
z
" style="fill:#595959;"/>
    <path clip-path="url(#pbae5278597)" d="M 219.22929 45.450392 
L 219.22929 36.957456 
L 251.219389 36.957456 
L 251.219389 45.450392 
z
" style="fill:#595959;"/>
    <path clip-path="url(#pbae5278597)" d="M 219.22929 36.013796 
L 219.22929 27.52086 
L 249.035326 27.52086 
L 249.035326 36.013796 
z
" style="fill:#595959;"/>
   </g>
  </g>
  <g id="text_37">
   <!-- Preprint Category Halflife -->
   <defs>
    <path d="M 64.40625 67.28125 
L 64.40625 56.890625 
Q 59.421875 61.53125 53.78125 63.8125 
Q 48.140625 66.109375 41.796875 66.109375 
Q 29.296875 66.109375 22.65625 58.46875 
Q 16.015625 50.828125 16.015625 36.375 
Q 16.015625 21.96875 22.65625 14.328125 
Q 29.296875 6.6875 41.796875 6.6875 
Q 48.140625 6.6875 53.78125 8.984375 
Q 59.421875 11.28125 64.40625 15.921875 
L 64.40625 5.609375 
Q 59.234375 2.09375 53.4375 0.328125 
Q 47.65625 -1.421875 41.21875 -1.421875 
Q 24.65625 -1.421875 15.125 8.703125 
Q 5.609375 18.84375 5.609375 36.375 
Q 5.609375 53.953125 15.125 64.078125 
Q 24.65625 74.21875 41.21875 74.21875 
Q 47.75 74.21875 53.53125 72.484375 
Q 59.328125 70.75 64.40625 67.28125 
z
" id="DejaVuSans-67"/>
    <path d="M 9.8125 72.90625 
L 19.671875 72.90625 
L 19.671875 43.015625 
L 55.515625 43.015625 
L 55.515625 72.90625 
L 65.375 72.90625 
L 65.375 0 
L 55.515625 0 
L 55.515625 34.71875 
L 19.671875 34.71875 
L 19.671875 0 
L 9.8125 0 
z
" id="DejaVuSans-72"/>
   </defs>
   <g transform="translate(291.977594 17.229938)scale(0.132 -0.132)">
    <use xlink:href="#DejaVuSans-80"/>
    <use x="60.287109" xlink:href="#DejaVuSans-114"/>
    <use x="101.369141" xlink:href="#DejaVuSans-101"/>
    <use x="162.892578" xlink:href="#DejaVuSans-112"/>
    <use x="226.369141" xlink:href="#DejaVuSans-114"/>
    <use x="267.482422" xlink:href="#DejaVuSans-105"/>
    <use x="295.265625" xlink:href="#DejaVuSans-110"/>
    <use x="358.644531" xlink:href="#DejaVuSans-116"/>
    <use x="397.853516" xlink:href="#DejaVuSans-32"/>
    <use x="429.640625" xlink:href="#DejaVuSans-67"/>
    <use x="499.464844" xlink:href="#DejaVuSans-97"/>
    <use x="560.744141" xlink:href="#DejaVuSans-116"/>
    <use x="599.953125" xlink:href="#DejaVuSans-101"/>
    <use x="661.476562" xlink:href="#DejaVuSans-103"/>
    <use x="724.953125" xlink:href="#DejaVuSans-111"/>
    <use x="786.134766" xlink:href="#DejaVuSans-114"/>
    <use x="827.248047" xlink:href="#DejaVuSans-121"/>
    <use x="886.427734" xlink:href="#DejaVuSans-32"/>
    <use x="918.214844" xlink:href="#DejaVuSans-72"/>
    <use x="993.410156" xlink:href="#DejaVuSans-97"/>
    <use x="1054.689453" xlink:href="#DejaVuSans-108"/>
    <use x="1082.472656" xlink:href="#DejaVuSans-102"/>
    <use x="1117.677734" xlink:href="#DejaVuSans-108"/>
    <use x="1145.460938" xlink:href="#DejaVuSans-105"/>
    <use x="1173.244141" xlink:href="#DejaVuSans-102"/>
    <use x="1208.449219" xlink:href="#DejaVuSans-101"/>
   </g>
  </g>
 </g>
 <defs>
  <clipPath id="pbae5278597">
   <rect height="266.112" width="357.12" x="202.996563" y="26.105371"/>
  </clipPath>
 </defs>
</svg>
