<?xml version="1.0" encoding="utf-8" standalone="no"?>
<!DOCTYPE svg PUBLIC "-//W3C//DTD SVG 1.1//EN"
  "http://www.w3.org/Graphics/SVG/1.1/DTD/svg11.dtd">
<!-- Created with matplotlib (https://matplotlib.org/) -->
<svg height="314.66075pt" version="1.1" viewBox="0 0 603.4625 314.66075" width="603.4625pt" xmlns="http://www.w3.org/2000/svg" xmlns:xlink="http://www.w3.org/1999/xlink">
 <defs>
  <style type="text/css">
*{stroke-linecap:butt;stroke-linejoin:round;}
  </style>
 </defs>
 <g id="figure_1">
  <g id="patch_1">
   <path d="M 0 314.66075
L 603.4625 314.66075
L 603.4625 0
L 0 0
z
" style="fill:#ffffff;"/>
  </g>
  <g id="axes_1">
   <g id="patch_2">
    <path d="M 239.1425 273.312
L 596.2625 273.312
L 596.2625 7.2
L 239.1425 7.2
z
" style="fill:#ffffff;"/>
   </g>
   <g id="matplotlib.axis_1">
    <g id="xtick_1">
     <g id="line2d_1">
      <defs>
       <path d="M 0 0
L 0 4.8
" id="m72afd95b7c" style="stroke:#262626;"/>
      </defs>
      <g>
       <use style="fill:#262626;stroke:#262626;" x="255.375227" xlink:href="#m72afd95b7c" y="273.312"/>
      </g>
     </g>
     <g id="text_1">
      <!-- 0 -->
      <defs>
       <path d="M 4.15625 35.296875
Q 4.15625 48 6.765625 55.734375
Q 9.375 63.484375 14.515625 67.671875
Q 19.671875 71.875 27.484375 71.875
Q 33.25 71.875 37.59375 69.546875
Q 41.9375 67.234375 44.765625 62.859375
Q 47.609375 58.5 49.21875 52.21875
Q 50.828125 45.953125 50.828125 35.296875
Q 50.828125 22.703125 48.234375 14.96875
Q 45.65625 7.234375 40.5 3
Q 35.359375 -1.21875 27.484375 -1.21875
Q 17.140625 -1.21875 11.234375 6.203125
Q 4.15625 15.140625 4.15625 35.296875
z
M 13.1875 35.296875
Q 13.1875 17.671875 17.3125 11.828125
Q 21.4375 6 27.484375 6
Q 33.546875 6 37.671875 11.859375
Q 41.796875 17.71875 41.796875 35.296875
Q 41.796875 52.984375 37.671875 58.78125
Q 33.546875 64.59375 27.390625 64.59375
Q 21.34375 64.59375 17.71875 59.46875
Q 13.1875 52.9375 13.1875 35.296875
z
" id="ArialMT-48"/>
      </defs>
      <g style="fill:#262626;" transform="translate(252.038665 289.101375)scale(0.12 -0.12)">
       <use xlink:href="#ArialMT-48"/>
      </g>
     </g>
    </g>
    <g id="xtick_2">
     <g id="line2d_2">
      <g>
       <use style="fill:#262626;stroke:#262626;" x="343.644544" xlink:href="#m72afd95b7c" y="273.312"/>
      </g>
     </g>
     <g id="text_2">
      <!-- 5000 -->
      <defs>
       <path d="M 4.15625 18.75
L 13.375 19.53125
Q 14.40625 12.796875 18.140625 9.390625
Q 21.875 6 27.15625 6
Q 33.5 6 37.890625 10.78125
Q 42.28125 15.578125 42.28125 23.484375
Q 42.28125 31 38.0625 35.34375
Q 33.84375 39.703125 27 39.703125
Q 22.75 39.703125 19.328125 37.765625
Q 15.921875 35.84375 13.96875 32.765625
L 5.71875 33.84375
L 12.640625 70.609375
L 48.25 70.609375
L 48.25 62.203125
L 19.671875 62.203125
L 15.828125 42.96875
Q 22.265625 47.46875 29.34375 47.46875
Q 38.71875 47.46875 45.15625 40.96875
Q 51.609375 34.46875 51.609375 24.265625
Q 51.609375 14.546875 45.953125 7.46875
Q 39.0625 -1.21875 27.15625 -1.21875
Q 17.390625 -1.21875 11.203125 4.25
Q 5.03125 9.71875 4.15625 18.75
z
" id="ArialMT-53"/>
      </defs>
      <g style="fill:#262626;" transform="translate(330.298294 289.101375)scale(0.12 -0.12)">
       <use xlink:href="#ArialMT-53"/>
       <use x="55.615234" xlink:href="#ArialMT-48"/>
       <use x="111.230469" xlink:href="#ArialMT-48"/>
       <use x="166.845703" xlink:href="#ArialMT-48"/>
      </g>
     </g>
    </g>
    <g id="xtick_3">
     <g id="line2d_3">
      <g>
       <use style="fill:#262626;stroke:#262626;" x="431.91386" xlink:href="#m72afd95b7c" y="273.312"/>
      </g>
     </g>
     <g id="text_3">
      <!-- 10000 -->
      <defs>
       <path d="M 37.25 0
L 28.46875 0
L 28.46875 56
Q 25.296875 52.984375 20.140625 49.953125
Q 14.984375 46.921875 10.890625 45.40625
L 10.890625 53.90625
Q 18.265625 57.375 23.78125 62.296875
Q 29.296875 67.234375 31.59375 71.875
L 37.25 71.875
z
" id="ArialMT-49"/>
      </defs>
      <g style="fill:#262626;" transform="translate(415.231047 289.101375)scale(0.12 -0.12)">
       <use xlink:href="#ArialMT-49"/>
       <use x="55.615234" xlink:href="#ArialMT-48"/>
       <use x="111.230469" xlink:href="#ArialMT-48"/>
       <use x="166.845703" xlink:href="#ArialMT-48"/>
       <use x="222.460938" xlink:href="#ArialMT-48"/>
      </g>
     </g>
    </g>
    <g id="xtick_4">
     <g id="line2d_4">
      <g>
       <use style="fill:#262626;stroke:#262626;" x="520.183176" xlink:href="#m72afd95b7c" y="273.312"/>
      </g>
     </g>
     <g id="text_4">
      <!-- 15000 -->
      <g style="fill:#262626;" transform="translate(503.500364 289.101375)scale(0.12 -0.12)">
       <use xlink:href="#ArialMT-49"/>
       <use x="55.615234" xlink:href="#ArialMT-53"/>
       <use x="111.230469" xlink:href="#ArialMT-48"/>
       <use x="166.845703" xlink:href="#ArialMT-48"/>
       <use x="222.460938" xlink:href="#ArialMT-48"/>
      </g>
     </g>
    </g>
    <g id="xtick_5">
     <g id="line2d_5">
      <defs>
       <path d="M 0 0
L 0 3.2
" id="m9f3028b4df" style="stroke:#262626;stroke-width:0.8;"/>
      </defs>
      <g>
       <use style="fill:#262626;stroke:#262626;stroke-width:0.8;" x="299.509885" xlink:href="#m9f3028b4df" y="273.312"/>
      </g>
     </g>
    </g>
    <g id="xtick_6">
     <g id="line2d_6">
      <g>
       <use style="fill:#262626;stroke:#262626;stroke-width:0.8;" x="387.779202" xlink:href="#m9f3028b4df" y="273.312"/>
      </g>
     </g>
    </g>
    <g id="xtick_7">
     <g id="line2d_7">
      <g>
       <use style="fill:#262626;stroke:#262626;stroke-width:0.8;" x="476.048518" xlink:href="#m9f3028b4df" y="273.312"/>
      </g>
     </g>
    </g>
    <g id="xtick_8">
     <g id="line2d_8">
      <g>
       <use style="fill:#262626;stroke:#262626;stroke-width:0.8;" x="564.317834" xlink:href="#m9f3028b4df" y="273.312"/>
      </g>
     </g>
    </g>
    <g id="text_5">
     <!-- count -->
     <defs>
      <path d="M 40.4375 19
L 49.078125 17.875
Q 47.65625 8.9375 41.8125 3.875
Q 35.984375 -1.171875 27.484375 -1.171875
Q 16.84375 -1.171875 10.375 5.78125
Q 3.90625 12.75 3.90625 25.734375
Q 3.90625 34.125 6.6875 40.421875
Q 9.46875 46.734375 15.15625 49.875
Q 20.84375 53.03125 27.546875 53.03125
Q 35.984375 53.03125 41.359375 48.75
Q 46.734375 44.484375 48.25 36.625
L 39.703125 35.296875
Q 38.484375 40.53125 35.375 43.15625
Q 32.28125 45.796875 27.875 45.796875
Q 21.234375 45.796875 17.078125 41.03125
Q 12.9375 36.28125 12.9375 25.984375
Q 12.9375 15.53125 16.9375 10.796875
Q 20.953125 6.0625 27.390625 6.0625
Q 32.5625 6.0625 36.03125 9.234375
Q 39.5 12.40625 40.4375 19
z
" id="ArialMT-99"/>
      <path d="M 3.328125 25.921875
Q 3.328125 40.328125 11.328125 47.265625
Q 18.015625 53.03125 27.640625 53.03125
Q 38.328125 53.03125 45.109375 46.015625
Q 51.90625 39.015625 51.90625 26.65625
Q 51.90625 16.65625 48.90625 10.90625
Q 45.90625 5.171875 40.15625 2
Q 34.421875 -1.171875 27.640625 -1.171875
Q 16.75 -1.171875 10.03125 5.8125
Q 3.328125 12.796875 3.328125 25.921875
z
M 12.359375 25.921875
Q 12.359375 15.96875 16.703125 11.015625
Q 21.046875 6.0625 27.640625 6.0625
Q 34.1875 6.0625 38.53125 11.03125
Q 42.875 16.015625 42.875 26.21875
Q 42.875 35.84375 38.5 40.796875
Q 34.125 45.75 27.640625 45.75
Q 21.046875 45.75 16.703125 40.8125
Q 12.359375 35.890625 12.359375 25.921875
z
" id="ArialMT-111"/>
      <path d="M 40.578125 0
L 40.578125 7.625
Q 34.515625 -1.171875 24.125 -1.171875
Q 19.53125 -1.171875 15.546875 0.578125
Q 11.578125 2.34375 9.640625 5
Q 7.71875 7.671875 6.9375 11.53125
Q 6.390625 14.109375 6.390625 19.734375
L 6.390625 51.859375
L 15.1875 51.859375
L 15.1875 23.09375
Q 15.1875 16.21875 15.71875 13.8125
Q 16.546875 10.359375 19.234375 8.375
Q 21.921875 6.390625 25.875 6.390625
Q 29.828125 6.390625 33.296875 8.421875
Q 36.765625 10.453125 38.203125 13.9375
Q 39.65625 17.4375 39.65625 24.078125
L 39.65625 51.859375
L 48.4375 51.859375
L 48.4375 0
z
" id="ArialMT-117"/>
      <path d="M 6.59375 0
L 6.59375 51.859375
L 14.5 51.859375
L 14.5 44.484375
Q 20.21875 53.03125 31 53.03125
Q 35.6875 53.03125 39.625 51.34375
Q 43.5625 49.65625 45.515625 46.921875
Q 47.46875 44.1875 48.25 40.4375
Q 48.734375 37.984375 48.734375 31.890625
L 48.734375 0
L 39.9375 0
L 39.9375 31.546875
Q 39.9375 36.921875 38.90625 39.578125
Q 37.890625 42.234375 35.28125 43.8125
Q 32.671875 45.40625 29.15625 45.40625
Q 23.53125 45.40625 19.453125 41.84375
Q 15.375 38.28125 15.375 28.328125
L 15.375 0
z
" id="ArialMT-110"/>
      <path d="M 25.78125 7.859375
L 27.046875 0.09375
Q 23.34375 -0.6875 20.40625 -0.6875
Q 15.625 -0.6875 12.984375 0.828125
Q 10.359375 2.34375 9.28125 4.8125
Q 8.203125 7.28125 8.203125 15.1875
L 8.203125 45.015625
L 1.765625 45.015625
L 1.765625 51.859375
L 8.203125 51.859375
L 8.203125 64.703125
L 16.9375 69.96875
L 16.9375 51.859375
L 25.78125 51.859375
L 25.78125 45.015625
L 16.9375 45.015625
L 16.9375 14.703125
Q 16.9375 10.9375 17.40625 9.859375
Q 17.875 8.796875 18.921875 8.15625
Q 19.96875 7.515625 21.921875 7.515625
Q 23.390625 7.515625 25.78125 7.859375
z
" id="ArialMT-116"/>
     </defs>
     <g style="fill:#262626;" transform="translate(397.265938 305.07575)scale(0.12 -0.12)">
      <use xlink:href="#ArialMT-99"/>
      <use x="50" xlink:href="#ArialMT-111"/>
      <use x="105.615234" xlink:href="#ArialMT-117"/>
      <use x="161.230469" xlink:href="#ArialMT-110"/>
      <use x="216.845703" xlink:href="#ArialMT-116"/>
     </g>
    </g>
   </g>
   <g id="matplotlib.axis_2">
    <g id="ytick_1">
     <g id="line2d_9">
      <defs>
       <path d="M 0 0
L -4.8 0
" id="m5baf646090" style="stroke:#262626;"/>
      </defs>
      <g>
       <use style="fill:#262626;stroke:#262626;" x="239.1425" xlink:href="#m5baf646090" y="267.843945"/>
      </g>
     </g>
     <g id="text_6">
      <!-- scientific communication and education -->
      <defs>
       <path d="M 3.078125 15.484375
L 11.765625 16.84375
Q 12.5 11.625 15.84375 8.84375
Q 19.1875 6.0625 25.203125 6.0625
Q 31.25 6.0625 34.171875 8.515625
Q 37.109375 10.984375 37.109375 14.3125
Q 37.109375 17.28125 34.515625 19
Q 32.71875 20.171875 25.53125 21.96875
Q 15.875 24.421875 12.140625 26.203125
Q 8.40625 27.984375 6.46875 31.125
Q 4.546875 34.28125 4.546875 38.09375
Q 4.546875 41.546875 6.125 44.5
Q 7.71875 47.46875 10.453125 49.421875
Q 12.5 50.921875 16.03125 51.96875
Q 19.578125 53.03125 23.640625 53.03125
Q 29.734375 53.03125 34.34375 51.265625
Q 38.96875 49.515625 41.15625 46.5
Q 43.359375 43.5 44.1875 38.484375
L 35.59375 37.3125
Q 35.015625 41.3125 32.203125 43.546875
Q 29.390625 45.796875 24.265625 45.796875
Q 18.21875 45.796875 15.625 43.796875
Q 13.03125 41.796875 13.03125 39.109375
Q 13.03125 37.40625 14.109375 36.03125
Q 15.1875 34.625 17.484375 33.6875
Q 18.796875 33.203125 25.25 31.453125
Q 34.578125 28.953125 38.25 27.359375
Q 41.9375 25.78125 44.03125 22.75
Q 46.140625 19.734375 46.140625 15.234375
Q 46.140625 10.84375 43.578125 6.953125
Q 41.015625 3.078125 36.171875 0.953125
Q 31.34375 -1.171875 25.25 -1.171875
Q 15.140625 -1.171875 9.84375 3.03125
Q 4.546875 7.234375 3.078125 15.484375
z
" id="ArialMT-115"/>
       <path d="M 6.640625 61.46875
L 6.640625 71.578125
L 15.4375 71.578125
L 15.4375 61.46875
z
M 6.640625 0
L 6.640625 51.859375
L 15.4375 51.859375
L 15.4375 0
z
" id="ArialMT-105"/>
       <path d="M 42.09375 16.703125
L 51.171875 15.578125
Q 49.03125 7.625 43.21875 3.21875
Q 37.40625 -1.171875 28.375 -1.171875
Q 17 -1.171875 10.328125 5.828125
Q 3.65625 12.84375 3.65625 25.484375
Q 3.65625 38.578125 10.390625 45.796875
Q 17.140625 53.03125 27.875 53.03125
Q 38.28125 53.03125 44.875 45.953125
Q 51.46875 38.875 51.46875 26.03125
Q 51.46875 25.25 51.421875 23.6875
L 12.75 23.6875
Q 13.234375 15.140625 17.578125 10.59375
Q 21.921875 6.0625 28.421875 6.0625
Q 33.25 6.0625 36.671875 8.59375
Q 40.09375 11.140625 42.09375 16.703125
z
M 13.234375 30.90625
L 42.1875 30.90625
Q 41.609375 37.453125 38.875 40.71875
Q 34.671875 45.796875 27.984375 45.796875
Q 21.921875 45.796875 17.796875 41.75
Q 13.671875 37.703125 13.234375 30.90625
z
" id="ArialMT-101"/>
       <path d="M 8.6875 0
L 8.6875 45.015625
L 0.921875 45.015625
L 0.921875 51.859375
L 8.6875 51.859375
L 8.6875 57.375
Q 8.6875 62.59375 9.625 65.140625
Q 10.890625 68.5625 14.078125 70.671875
Q 17.28125 72.796875 23.046875 72.796875
Q 26.765625 72.796875 31.25 71.921875
L 29.9375 64.265625
Q 27.203125 64.75 24.75 64.75
Q 20.75 64.75 19.09375 63.03125
Q 17.4375 61.328125 17.4375 56.640625
L 17.4375 51.859375
L 27.546875 51.859375
L 27.546875 45.015625
L 17.4375 45.015625
L 17.4375 0
z
" id="ArialMT-102"/>
       <path id="ArialMT-32"/>
       <path d="M 6.59375 0
L 6.59375 51.859375
L 14.453125 51.859375
L 14.453125 44.578125
Q 16.890625 48.390625 20.9375 50.703125
Q 25 53.03125 30.171875 53.03125
Q 35.9375 53.03125 39.625 50.640625
Q 43.3125 48.25 44.828125 43.953125
Q 50.984375 53.03125 60.84375 53.03125
Q 68.5625 53.03125 72.703125 48.75
Q 76.859375 44.484375 76.859375 35.59375
L 76.859375 0
L 68.109375 0
L 68.109375 32.671875
Q 68.109375 37.9375 67.25 40.25
Q 66.40625 42.578125 64.15625 43.984375
Q 61.921875 45.40625 58.890625 45.40625
Q 53.421875 45.40625 49.796875 41.765625
Q 46.1875 38.140625 46.1875 30.125
L 46.1875 0
L 37.40625 0
L 37.40625 33.6875
Q 37.40625 39.546875 35.25 42.46875
Q 33.109375 45.40625 28.21875 45.40625
Q 24.515625 45.40625 21.359375 43.453125
Q 18.21875 41.5 16.796875 37.734375
Q 15.375 33.984375 15.375 26.90625
L 15.375 0
z
" id="ArialMT-109"/>
       <path d="M 40.4375 6.390625
Q 35.546875 2.25 31.03125 0.53125
Q 26.515625 -1.171875 21.34375 -1.171875
Q 12.796875 -1.171875 8.203125 3
Q 3.609375 7.171875 3.609375 13.671875
Q 3.609375 17.484375 5.34375 20.625
Q 7.078125 23.78125 9.890625 25.6875
Q 12.703125 27.59375 16.21875 28.5625
Q 18.796875 29.25 24.03125 29.890625
Q 34.671875 31.15625 39.703125 32.90625
Q 39.75 34.71875 39.75 35.203125
Q 39.75 40.578125 37.25 42.78125
Q 33.890625 45.75 27.25 45.75
Q 21.046875 45.75 18.09375 43.578125
Q 15.140625 41.40625 13.71875 35.890625
L 5.125 37.0625
Q 6.296875 42.578125 8.984375 45.96875
Q 11.671875 49.359375 16.75 51.1875
Q 21.828125 53.03125 28.515625 53.03125
Q 35.15625 53.03125 39.296875 51.46875
Q 43.453125 49.90625 45.40625 47.53125
Q 47.359375 45.171875 48.140625 41.546875
Q 48.578125 39.3125 48.578125 33.453125
L 48.578125 21.734375
Q 48.578125 9.46875 49.140625 6.21875
Q 49.703125 2.984375 51.375 0
L 42.1875 0
Q 40.828125 2.734375 40.4375 6.390625
z
M 39.703125 26.03125
Q 34.90625 24.078125 25.34375 22.703125
Q 19.921875 21.921875 17.671875 20.9375
Q 15.4375 19.96875 14.203125 18.09375
Q 12.984375 16.21875 12.984375 13.921875
Q 12.984375 10.40625 15.640625 8.0625
Q 18.3125 5.71875 23.4375 5.71875
Q 28.515625 5.71875 32.46875 7.9375
Q 36.421875 10.15625 38.28125 14.015625
Q 39.703125 17 39.703125 22.796875
z
" id="ArialMT-97"/>
       <path d="M 40.234375 0
L 40.234375 6.546875
Q 35.296875 -1.171875 25.734375 -1.171875
Q 19.53125 -1.171875 14.328125 2.25
Q 9.125 5.671875 6.265625 11.796875
Q 3.421875 17.921875 3.421875 25.875
Q 3.421875 33.640625 6 39.96875
Q 8.59375 46.296875 13.765625 49.65625
Q 18.953125 53.03125 25.34375 53.03125
Q 30.03125 53.03125 33.6875 51.046875
Q 37.359375 49.078125 39.65625 45.90625
L 39.65625 71.578125
L 48.390625 71.578125
L 48.390625 0
z
M 12.453125 25.875
Q 12.453125 15.921875 16.640625 10.984375
Q 20.84375 6.0625 26.5625 6.0625
Q 32.328125 6.0625 36.34375 10.765625
Q 40.375 15.484375 40.375 25.140625
Q 40.375 35.796875 36.265625 40.765625
Q 32.171875 45.75 26.171875 45.75
Q 20.3125 45.75 16.375 40.96875
Q 12.453125 36.1875 12.453125 25.875
z
" id="ArialMT-100"/>
      </defs>
      <g style="fill:#262626;" transform="translate(23.174375 272.138633)scale(0.12 -0.12)">
       <use xlink:href="#ArialMT-115"/>
       <use x="50" xlink:href="#ArialMT-99"/>
       <use x="100" xlink:href="#ArialMT-105"/>
       <use x="122.216797" xlink:href="#ArialMT-101"/>
       <use x="177.832031" xlink:href="#ArialMT-110"/>
       <use x="233.447266" xlink:href="#ArialMT-116"/>
       <use x="261.230469" xlink:href="#ArialMT-105"/>
       <use x="283.447266" xlink:href="#ArialMT-102"/>
       <use x="311.230469" xlink:href="#ArialMT-105"/>
       <use x="333.447266" xlink:href="#ArialMT-99"/>
       <use x="383.447266" xlink:href="#ArialMT-32"/>
       <use x="411.230469" xlink:href="#ArialMT-99"/>
       <use x="461.230469" xlink:href="#ArialMT-111"/>
       <use x="516.845703" xlink:href="#ArialMT-109"/>
       <use x="600.146484" xlink:href="#ArialMT-109"/>
       <use x="683.447266" xlink:href="#ArialMT-117"/>
       <use x="739.0625" xlink:href="#ArialMT-110"/>
       <use x="794.677734" xlink:href="#ArialMT-105"/>
       <use x="816.894531" xlink:href="#ArialMT-99"/>
       <use x="866.894531" xlink:href="#ArialMT-97"/>
       <use x="922.509766" xlink:href="#ArialMT-116"/>
       <use x="950.292969" xlink:href="#ArialMT-105"/>
       <use x="972.509766" xlink:href="#ArialMT-111"/>
       <use x="1028.125" xlink:href="#ArialMT-110"/>
       <use x="1083.740234" xlink:href="#ArialMT-32"/>
       <use x="1111.523438" xlink:href="#ArialMT-97"/>
       <use x="1167.138672" xlink:href="#ArialMT-110"/>
       <use x="1222.753906" xlink:href="#ArialMT-100"/>
       <use x="1278.369141" xlink:href="#ArialMT-32"/>
       <use x="1306.152344" xlink:href="#ArialMT-101"/>
       <use x="1361.767578" xlink:href="#ArialMT-100"/>
       <use x="1417.382812" xlink:href="#ArialMT-117"/>
       <use x="1472.998047" xlink:href="#ArialMT-99"/>
       <use x="1522.998047" xlink:href="#ArialMT-97"/>
       <use x="1578.613281" xlink:href="#ArialMT-116"/>
       <use x="1606.396484" xlink:href="#ArialMT-105"/>
       <use x="1628.613281" xlink:href="#ArialMT-111"/>
       <use x="1684.228516" xlink:href="#ArialMT-110"/>
      </g>
     </g>
    </g>
    <g id="ytick_2">
     <g id="line2d_10">
      <g>
       <use style="fill:#262626;stroke:#262626;" x="239.1425" xlink:href="#m5baf646090" y="258.730521"/>
      </g>
     </g>
     <g id="text_7">
      <!-- none -->
      <g style="fill:#262626;" transform="translate(205.25 263.025208)scale(0.12 -0.12)">
       <use xlink:href="#ArialMT-110"/>
       <use x="55.615234" xlink:href="#ArialMT-111"/>
       <use x="111.230469" xlink:href="#ArialMT-110"/>
       <use x="166.845703" xlink:href="#ArialMT-101"/>
      </g>
     </g>
    </g>
    <g id="ytick_3">
     <g id="line2d_11">
      <g>
       <use style="fill:#262626;stroke:#262626;" x="239.1425" xlink:href="#m5baf646090" y="249.617096"/>
      </g>
     </g>
     <g id="text_8">
      <!-- paleontology -->
      <defs>
       <path d="M 6.59375 -19.875
L 6.59375 51.859375
L 14.59375 51.859375
L 14.59375 45.125
Q 17.4375 49.078125 21 51.046875
Q 24.5625 53.03125 29.640625 53.03125
Q 36.28125 53.03125 41.359375 49.609375
Q 46.4375 46.1875 49.015625 39.953125
Q 51.609375 33.734375 51.609375 26.3125
Q 51.609375 18.359375 48.75 11.984375
Q 45.90625 5.609375 40.453125 2.21875
Q 35.015625 -1.171875 29 -1.171875
Q 24.609375 -1.171875 21.109375 0.6875
Q 17.625 2.546875 15.375 5.375
L 15.375 -19.875
z
M 14.546875 25.640625
Q 14.546875 15.625 18.59375 10.84375
Q 22.65625 6.0625 28.421875 6.0625
Q 34.28125 6.0625 38.453125 11.015625
Q 42.625 15.96875 42.625 26.375
Q 42.625 36.28125 38.546875 41.203125
Q 34.46875 46.140625 28.8125 46.140625
Q 23.1875 46.140625 18.859375 40.890625
Q 14.546875 35.640625 14.546875 25.640625
z
" id="ArialMT-112"/>
       <path d="M 6.390625 0
L 6.390625 71.578125
L 15.1875 71.578125
L 15.1875 0
z
" id="ArialMT-108"/>
       <path d="M 4.984375 -4.296875
L 13.53125 -5.5625
Q 14.0625 -9.515625 16.5 -11.328125
Q 19.78125 -13.765625 25.4375 -13.765625
Q 31.546875 -13.765625 34.859375 -11.328125
Q 38.1875 -8.890625 39.359375 -4.5
Q 40.046875 -1.8125 39.984375 6.78125
Q 34.234375 0 25.640625 0
Q 14.9375 0 9.078125 7.71875
Q 3.21875 15.4375 3.21875 26.21875
Q 3.21875 33.640625 5.90625 39.90625
Q 8.59375 46.1875 13.6875 49.609375
Q 18.796875 53.03125 25.6875 53.03125
Q 34.859375 53.03125 40.828125 45.609375
L 40.828125 51.859375
L 48.921875 51.859375
L 48.921875 7.03125
Q 48.921875 -5.078125 46.453125 -10.125
Q 44 -15.1875 38.640625 -18.109375
Q 33.296875 -21.046875 25.484375 -21.046875
Q 16.21875 -21.046875 10.5 -16.875
Q 4.78125 -12.703125 4.984375 -4.296875
z
M 12.25 26.859375
Q 12.25 16.65625 16.296875 11.96875
Q 20.359375 7.28125 26.46875 7.28125
Q 32.515625 7.28125 36.609375 11.9375
Q 40.71875 16.609375 40.71875 26.5625
Q 40.71875 36.078125 36.5 40.90625
Q 32.28125 45.75 26.3125 45.75
Q 20.453125 45.75 16.34375 40.984375
Q 12.25 36.234375 12.25 26.859375
z
" id="ArialMT-103"/>
       <path d="M 6.203125 -19.96875
L 5.21875 -11.71875
Q 8.109375 -12.5 10.25 -12.5
Q 13.1875 -12.5 14.9375 -11.515625
Q 16.703125 -10.546875 17.828125 -8.796875
Q 18.65625 -7.46875 20.515625 -2.25
Q 20.75 -1.515625 21.296875 -0.09375
L 1.609375 51.859375
L 11.078125 51.859375
L 21.875 21.828125
Q 23.96875 16.109375 25.640625 9.8125
Q 27.15625 15.875 29.25 21.625
L 40.328125 51.859375
L 49.125 51.859375
L 29.390625 -0.875
Q 26.21875 -9.421875 24.46875 -12.640625
Q 22.125 -17 19.09375 -19.015625
Q 16.0625 -21.046875 11.859375 -21.046875
Q 9.328125 -21.046875 6.203125 -19.96875
z
" id="ArialMT-121"/>
      </defs>
      <g style="fill:#262626;" transform="translate(163.89125 253.911783)scale(0.12 -0.12)">
       <use xlink:href="#ArialMT-112"/>
       <use x="55.615234" xlink:href="#ArialMT-97"/>
       <use x="111.230469" xlink:href="#ArialMT-108"/>
       <use x="133.447266" xlink:href="#ArialMT-101"/>
       <use x="189.0625" xlink:href="#ArialMT-111"/>
       <use x="244.677734" xlink:href="#ArialMT-110"/>
       <use x="300.292969" xlink:href="#ArialMT-116"/>
       <use x="328.076172" xlink:href="#ArialMT-111"/>
       <use x="383.691406" xlink:href="#ArialMT-108"/>
       <use x="405.908203" xlink:href="#ArialMT-111"/>
       <use x="461.523438" xlink:href="#ArialMT-103"/>
       <use x="517.138672" xlink:href="#ArialMT-121"/>
      </g>
     </g>
    </g>
    <g id="ytick_4">
     <g id="line2d_12">
      <g>
       <use style="fill:#262626;stroke:#262626;" x="239.1425" xlink:href="#m5baf646090" y="240.503671"/>
      </g>
     </g>
     <g id="text_9">
      <!-- clinical trials -->
      <defs>
       <path d="M 6.5 0
L 6.5 51.859375
L 14.40625 51.859375
L 14.40625 44
Q 17.4375 49.515625 20 51.265625
Q 22.5625 53.03125 25.640625 53.03125
Q 30.078125 53.03125 34.671875 50.203125
L 31.640625 42.046875
Q 28.421875 43.953125 25.203125 43.953125
Q 22.3125 43.953125 20.015625 42.21875
Q 17.71875 40.484375 16.75 37.40625
Q 15.28125 32.71875 15.28125 27.15625
L 15.28125 0
z
" id="ArialMT-114"/>
      </defs>
      <g style="fill:#262626;" transform="translate(167.2625 244.798359)scale(0.12 -0.12)">
       <use xlink:href="#ArialMT-99"/>
       <use x="50" xlink:href="#ArialMT-108"/>
       <use x="72.216797" xlink:href="#ArialMT-105"/>
       <use x="94.433594" xlink:href="#ArialMT-110"/>
       <use x="150.048828" xlink:href="#ArialMT-105"/>
       <use x="172.265625" xlink:href="#ArialMT-99"/>
       <use x="222.265625" xlink:href="#ArialMT-97"/>
       <use x="277.880859" xlink:href="#ArialMT-108"/>
       <use x="300.097656" xlink:href="#ArialMT-32"/>
       <use x="327.880859" xlink:href="#ArialMT-116"/>
       <use x="355.664062" xlink:href="#ArialMT-114"/>
       <use x="388.964844" xlink:href="#ArialMT-105"/>
       <use x="411.181641" xlink:href="#ArialMT-97"/>
       <use x="466.796875" xlink:href="#ArialMT-108"/>
       <use x="489.013672" xlink:href="#ArialMT-115"/>
      </g>
     </g>
    </g>
    <g id="ytick_5">
     <g id="line2d_13">
      <g>
       <use style="fill:#262626;stroke:#262626;" x="239.1425" xlink:href="#m5baf646090" y="231.390247"/>
      </g>
     </g>
     <g id="text_10">
      <!-- zoology -->
      <defs>
       <path d="M 1.953125 0
L 1.953125 7.125
L 34.96875 45.015625
Q 29.34375 44.734375 25.046875 44.734375
L 3.90625 44.734375
L 3.90625 51.859375
L 46.296875 51.859375
L 46.296875 46.046875
L 18.21875 13.140625
L 12.796875 7.125
Q 18.703125 7.5625 23.875 7.5625
L 47.859375 7.5625
L 47.859375 0
z
" id="ArialMT-122"/>
      </defs>
      <g style="fill:#262626;" transform="translate(190.58375 235.684934)scale(0.12 -0.12)">
       <use xlink:href="#ArialMT-122"/>
       <use x="50" xlink:href="#ArialMT-111"/>
       <use x="105.615234" xlink:href="#ArialMT-111"/>
       <use x="161.230469" xlink:href="#ArialMT-108"/>
       <use x="183.447266" xlink:href="#ArialMT-111"/>
       <use x="239.0625" xlink:href="#ArialMT-103"/>
       <use x="294.677734" xlink:href="#ArialMT-121"/>
      </g>
     </g>
    </g>
    <g id="ytick_6">
     <g id="line2d_14">
      <g>
       <use style="fill:#262626;stroke:#262626;" x="239.1425" xlink:href="#m5baf646090" y="222.276822"/>
      </g>
     </g>
     <g id="text_11">
      <!-- pathology -->
      <defs>
       <path d="M 6.59375 0
L 6.59375 71.578125
L 15.375 71.578125
L 15.375 45.90625
Q 21.53125 53.03125 30.90625 53.03125
Q 36.671875 53.03125 40.921875 50.75
Q 45.171875 48.484375 47 44.484375
Q 48.828125 40.484375 48.828125 32.859375
L 48.828125 0
L 40.046875 0
L 40.046875 32.859375
Q 40.046875 39.453125 37.1875 42.453125
Q 34.328125 45.453125 29.109375 45.453125
Q 25.203125 45.453125 21.75 43.421875
Q 18.3125 41.40625 16.84375 37.9375
Q 15.375 34.46875 15.375 28.375
L 15.375 0
z
" id="ArialMT-104"/>
      </defs>
      <g style="fill:#262626;" transform="translate(179.90375 226.571509)scale(0.12 -0.12)">
       <use xlink:href="#ArialMT-112"/>
       <use x="55.615234" xlink:href="#ArialMT-97"/>
       <use x="111.230469" xlink:href="#ArialMT-116"/>
       <use x="139.013672" xlink:href="#ArialMT-104"/>
       <use x="194.628906" xlink:href="#ArialMT-111"/>
       <use x="250.244141" xlink:href="#ArialMT-108"/>
       <use x="272.460938" xlink:href="#ArialMT-111"/>
       <use x="328.076172" xlink:href="#ArialMT-103"/>
       <use x="383.691406" xlink:href="#ArialMT-121"/>
      </g>
     </g>
    </g>
    <g id="ytick_7">
     <g id="line2d_15">
      <g>
       <use style="fill:#262626;stroke:#262626;" x="239.1425" xlink:href="#m5baf646090" y="213.163397"/>
      </g>
     </g>
     <g id="text_12">
      <!-- scientific communication -->
      <g style="fill:#262626;" transform="translate(101.9 217.458085)scale(0.12 -0.12)">
       <use xlink:href="#ArialMT-115"/>
       <use x="50" xlink:href="#ArialMT-99"/>
       <use x="100" xlink:href="#ArialMT-105"/>
       <use x="122.216797" xlink:href="#ArialMT-101"/>
       <use x="177.832031" xlink:href="#ArialMT-110"/>
       <use x="233.447266" xlink:href="#ArialMT-116"/>
       <use x="261.230469" xlink:href="#ArialMT-105"/>
       <use x="283.447266" xlink:href="#ArialMT-102"/>
       <use x="311.230469" xlink:href="#ArialMT-105"/>
       <use x="333.447266" xlink:href="#ArialMT-99"/>
       <use x="383.447266" xlink:href="#ArialMT-32"/>
       <use x="411.230469" xlink:href="#ArialMT-99"/>
       <use x="461.230469" xlink:href="#ArialMT-111"/>
       <use x="516.845703" xlink:href="#ArialMT-109"/>
       <use x="600.146484" xlink:href="#ArialMT-109"/>
       <use x="683.447266" xlink:href="#ArialMT-117"/>
       <use x="739.0625" xlink:href="#ArialMT-110"/>
       <use x="794.677734" xlink:href="#ArialMT-105"/>
       <use x="816.894531" xlink:href="#ArialMT-99"/>
       <use x="866.894531" xlink:href="#ArialMT-97"/>
       <use x="922.509766" xlink:href="#ArialMT-116"/>
       <use x="950.292969" xlink:href="#ArialMT-105"/>
       <use x="972.509766" xlink:href="#ArialMT-111"/>
       <use x="1028.125" xlink:href="#ArialMT-110"/>
      </g>
     </g>
    </g>
    <g id="ytick_8">
     <g id="line2d_16">
      <g>
       <use style="fill:#262626;stroke:#262626;" x="239.1425" xlink:href="#m5baf646090" y="204.049973"/>
      </g>
     </g>
     <g id="text_13">
      <!-- pharmacology -->
      <g style="fill:#262626;" transform="translate(156.573125 208.34466)scale(0.12 -0.12)">
       <use xlink:href="#ArialMT-112"/>
       <use x="55.615234" xlink:href="#ArialMT-104"/>
       <use x="111.230469" xlink:href="#ArialMT-97"/>
       <use x="166.845703" xlink:href="#ArialMT-114"/>
       <use x="200.146484" xlink:href="#ArialMT-109"/>
       <use x="283.447266" xlink:href="#ArialMT-97"/>
       <use x="339.0625" xlink:href="#ArialMT-99"/>
       <use x="389.0625" xlink:href="#ArialMT-111"/>
       <use x="444.677734" xlink:href="#ArialMT-108"/>
       <use x="466.894531" xlink:href="#ArialMT-111"/>
       <use x="522.509766" xlink:href="#ArialMT-103"/>
       <use x="578.125" xlink:href="#ArialMT-121"/>
      </g>
     </g>
    </g>
    <g id="ytick_9">
     <g id="line2d_17">
      <g>
       <use style="fill:#262626;stroke:#262626;" x="239.1425" xlink:href="#m5baf646090" y="194.936548"/>
      </g>
     </g>
     <g id="text_14">
      <!-- synthetic biology -->
      <defs>
       <path d="M 14.703125 0
L 6.546875 0
L 6.546875 71.578125
L 15.328125 71.578125
L 15.328125 46.046875
Q 20.90625 53.03125 29.546875 53.03125
Q 34.328125 53.03125 38.59375 51.09375
Q 42.875 49.171875 45.625 45.671875
Q 48.390625 42.1875 49.953125 37.25
Q 51.515625 32.328125 51.515625 26.703125
Q 51.515625 13.375 44.921875 6.09375
Q 38.328125 -1.171875 29.109375 -1.171875
Q 19.921875 -1.171875 14.703125 6.5
z
M 14.59375 26.3125
Q 14.59375 17 17.140625 12.84375
Q 21.296875 6.0625 28.375 6.0625
Q 34.125 6.0625 38.328125 11.0625
Q 42.53125 16.0625 42.53125 25.984375
Q 42.53125 36.140625 38.5 40.96875
Q 34.46875 45.796875 28.765625 45.796875
Q 23 45.796875 18.796875 40.796875
Q 14.59375 35.796875 14.59375 26.3125
z
" id="ArialMT-98"/>
      </defs>
      <g style="fill:#262626;" transform="translate(143.230625 199.231235)scale(0.12 -0.12)">
       <use xlink:href="#ArialMT-115"/>
       <use x="50" xlink:href="#ArialMT-121"/>
       <use x="100" xlink:href="#ArialMT-110"/>
       <use x="155.615234" xlink:href="#ArialMT-116"/>
       <use x="183.398438" xlink:href="#ArialMT-104"/>
       <use x="239.013672" xlink:href="#ArialMT-101"/>
       <use x="294.628906" xlink:href="#ArialMT-116"/>
       <use x="322.412109" xlink:href="#ArialMT-105"/>
       <use x="344.628906" xlink:href="#ArialMT-99"/>
       <use x="394.628906" xlink:href="#ArialMT-32"/>
       <use x="422.412109" xlink:href="#ArialMT-98"/>
       <use x="478.027344" xlink:href="#ArialMT-105"/>
       <use x="500.244141" xlink:href="#ArialMT-111"/>
       <use x="555.859375" xlink:href="#ArialMT-108"/>
       <use x="578.076172" xlink:href="#ArialMT-111"/>
       <use x="633.691406" xlink:href="#ArialMT-103"/>
       <use x="689.306641" xlink:href="#ArialMT-121"/>
      </g>
     </g>
    </g>
    <g id="ytick_10">
     <g id="line2d_18">
      <g>
       <use style="fill:#262626;stroke:#262626;" x="239.1425" xlink:href="#m5baf646090" y="185.823123"/>
      </g>
     </g>
     <g id="text_15">
      <!-- physiology -->
      <g style="fill:#262626;" transform="translate(175.244375 190.117811)scale(0.12 -0.12)">
       <use xlink:href="#ArialMT-112"/>
       <use x="55.615234" xlink:href="#ArialMT-104"/>
       <use x="111.230469" xlink:href="#ArialMT-121"/>
       <use x="161.230469" xlink:href="#ArialMT-115"/>
       <use x="211.230469" xlink:href="#ArialMT-105"/>
       <use x="233.447266" xlink:href="#ArialMT-111"/>
       <use x="289.0625" xlink:href="#ArialMT-108"/>
       <use x="311.279297" xlink:href="#ArialMT-111"/>
       <use x="366.894531" xlink:href="#ArialMT-103"/>
       <use x="422.509766" xlink:href="#ArialMT-121"/>
      </g>
     </g>
    </g>
    <g id="ytick_11">
     <g id="line2d_19">
      <g>
       <use style="fill:#262626;stroke:#262626;" x="239.1425" xlink:href="#m5baf646090" y="176.709699"/>
      </g>
     </g>
     <g id="text_16">
      <!-- animal behavior and cognition -->
      <defs>
       <path d="M 21 0
L 1.265625 51.859375
L 10.546875 51.859375
L 21.6875 20.796875
Q 23.484375 15.765625 25 10.359375
Q 26.171875 14.453125 28.265625 20.21875
L 39.796875 51.859375
L 48.828125 51.859375
L 29.203125 0
z
" id="ArialMT-118"/>
      </defs>
      <g style="fill:#262626;" transform="translate(72.515 181.004386)scale(0.12 -0.12)">
       <use xlink:href="#ArialMT-97"/>
       <use x="55.615234" xlink:href="#ArialMT-110"/>
       <use x="111.230469" xlink:href="#ArialMT-105"/>
       <use x="133.447266" xlink:href="#ArialMT-109"/>
       <use x="216.748047" xlink:href="#ArialMT-97"/>
       <use x="272.363281" xlink:href="#ArialMT-108"/>
       <use x="294.580078" xlink:href="#ArialMT-32"/>
       <use x="322.363281" xlink:href="#ArialMT-98"/>
       <use x="377.978516" xlink:href="#ArialMT-101"/>
       <use x="433.59375" xlink:href="#ArialMT-104"/>
       <use x="489.208984" xlink:href="#ArialMT-97"/>
       <use x="544.824219" xlink:href="#ArialMT-118"/>
       <use x="594.824219" xlink:href="#ArialMT-105"/>
       <use x="617.041016" xlink:href="#ArialMT-111"/>
       <use x="672.65625" xlink:href="#ArialMT-114"/>
       <use x="705.957031" xlink:href="#ArialMT-32"/>
       <use x="733.740234" xlink:href="#ArialMT-97"/>
       <use x="789.355469" xlink:href="#ArialMT-110"/>
       <use x="844.970703" xlink:href="#ArialMT-100"/>
       <use x="900.585938" xlink:href="#ArialMT-32"/>
       <use x="928.369141" xlink:href="#ArialMT-99"/>
       <use x="978.369141" xlink:href="#ArialMT-111"/>
       <use x="1033.984375" xlink:href="#ArialMT-103"/>
       <use x="1089.599609" xlink:href="#ArialMT-110"/>
       <use x="1145.214844" xlink:href="#ArialMT-105"/>
       <use x="1167.431641" xlink:href="#ArialMT-116"/>
       <use x="1195.214844" xlink:href="#ArialMT-105"/>
       <use x="1217.431641" xlink:href="#ArialMT-111"/>
       <use x="1273.046875" xlink:href="#ArialMT-110"/>
      </g>
     </g>
    </g>
    <g id="ytick_12">
     <g id="line2d_20">
      <g>
       <use style="fill:#262626;stroke:#262626;" x="239.1425" xlink:href="#m5baf646090" y="167.596274"/>
      </g>
     </g>
     <g id="text_17">
      <!-- bioengineering -->
      <g style="fill:#262626;" transform="translate(153.216875 171.890961)scale(0.12 -0.12)">
       <use xlink:href="#ArialMT-98"/>
       <use x="55.615234" xlink:href="#ArialMT-105"/>
       <use x="77.832031" xlink:href="#ArialMT-111"/>
       <use x="133.447266" xlink:href="#ArialMT-101"/>
       <use x="189.0625" xlink:href="#ArialMT-110"/>
       <use x="244.677734" xlink:href="#ArialMT-103"/>
       <use x="300.292969" xlink:href="#ArialMT-105"/>
       <use x="322.509766" xlink:href="#ArialMT-110"/>
       <use x="378.125" xlink:href="#ArialMT-101"/>
       <use x="433.740234" xlink:href="#ArialMT-101"/>
       <use x="489.355469" xlink:href="#ArialMT-114"/>
       <use x="522.65625" xlink:href="#ArialMT-105"/>
       <use x="544.873047" xlink:href="#ArialMT-110"/>
       <use x="600.488281" xlink:href="#ArialMT-103"/>
      </g>
     </g>
    </g>
    <g id="ytick_13">
     <g id="line2d_21">
      <g>
       <use style="fill:#262626;stroke:#262626;" x="239.1425" xlink:href="#m5baf646090" y="158.482849"/>
      </g>
     </g>
     <g id="text_18">
      <!-- epidemiology -->
      <g style="fill:#262626;" transform="translate(161.23625 162.777537)scale(0.12 -0.12)">
       <use xlink:href="#ArialMT-101"/>
       <use x="55.615234" xlink:href="#ArialMT-112"/>
       <use x="111.230469" xlink:href="#ArialMT-105"/>
       <use x="133.447266" xlink:href="#ArialMT-100"/>
       <use x="189.0625" xlink:href="#ArialMT-101"/>
       <use x="244.677734" xlink:href="#ArialMT-109"/>
       <use x="327.978516" xlink:href="#ArialMT-105"/>
       <use x="350.195312" xlink:href="#ArialMT-111"/>
       <use x="405.810547" xlink:href="#ArialMT-108"/>
       <use x="428.027344" xlink:href="#ArialMT-111"/>
       <use x="483.642578" xlink:href="#ArialMT-103"/>
       <use x="539.257812" xlink:href="#ArialMT-121"/>
      </g>
     </g>
    </g>
    <g id="ytick_14">
     <g id="line2d_22">
      <g>
       <use style="fill:#262626;stroke:#262626;" x="239.1425" xlink:href="#m5baf646090" y="149.369425"/>
      </g>
     </g>
     <g id="text_19">
      <!-- immunology -->
      <g style="fill:#262626;" transform="translate(167.253125 153.664112)scale(0.12 -0.12)">
       <use xlink:href="#ArialMT-105"/>
       <use x="22.216797" xlink:href="#ArialMT-109"/>
       <use x="105.517578" xlink:href="#ArialMT-109"/>
       <use x="188.818359" xlink:href="#ArialMT-117"/>
       <use x="244.433594" xlink:href="#ArialMT-110"/>
       <use x="300.048828" xlink:href="#ArialMT-111"/>
       <use x="355.664062" xlink:href="#ArialMT-108"/>
       <use x="377.880859" xlink:href="#ArialMT-111"/>
       <use x="433.496094" xlink:href="#ArialMT-103"/>
       <use x="489.111328" xlink:href="#ArialMT-121"/>
      </g>
     </g>
    </g>
    <g id="ytick_15">
     <g id="line2d_23">
      <g>
       <use style="fill:#262626;stroke:#262626;" x="239.1425" xlink:href="#m5baf646090" y="140.256"/>
      </g>
     </g>
     <g id="text_20">
      <!-- plant biology -->
      <g style="fill:#262626;" transform="translate(164.564375 144.550687)scale(0.12 -0.12)">
       <use xlink:href="#ArialMT-112"/>
       <use x="55.615234" xlink:href="#ArialMT-108"/>
       <use x="77.832031" xlink:href="#ArialMT-97"/>
       <use x="133.447266" xlink:href="#ArialMT-110"/>
       <use x="189.0625" xlink:href="#ArialMT-116"/>
       <use x="216.845703" xlink:href="#ArialMT-32"/>
       <use x="244.628906" xlink:href="#ArialMT-98"/>
       <use x="300.244141" xlink:href="#ArialMT-105"/>
       <use x="322.460938" xlink:href="#ArialMT-111"/>
       <use x="378.076172" xlink:href="#ArialMT-108"/>
       <use x="400.292969" xlink:href="#ArialMT-111"/>
       <use x="455.908203" xlink:href="#ArialMT-103"/>
       <use x="511.523438" xlink:href="#ArialMT-121"/>
      </g>
     </g>
    </g>
    <g id="ytick_16">
     <g id="line2d_24">
      <g>
       <use style="fill:#262626;stroke:#262626;" x="239.1425" xlink:href="#m5baf646090" y="131.142575"/>
      </g>
     </g>
     <g id="text_21">
      <!-- biochemistry -->
      <g style="fill:#262626;" transform="translate(164.5925 135.437263)scale(0.12 -0.12)">
       <use xlink:href="#ArialMT-98"/>
       <use x="55.615234" xlink:href="#ArialMT-105"/>
       <use x="77.832031" xlink:href="#ArialMT-111"/>
       <use x="133.447266" xlink:href="#ArialMT-99"/>
       <use x="183.447266" xlink:href="#ArialMT-104"/>
       <use x="239.0625" xlink:href="#ArialMT-101"/>
       <use x="294.677734" xlink:href="#ArialMT-109"/>
       <use x="377.978516" xlink:href="#ArialMT-105"/>
       <use x="400.195312" xlink:href="#ArialMT-115"/>
       <use x="450.195312" xlink:href="#ArialMT-116"/>
       <use x="477.978516" xlink:href="#ArialMT-114"/>
       <use x="511.279297" xlink:href="#ArialMT-121"/>
      </g>
     </g>
    </g>
    <g id="ytick_17">
     <g id="line2d_25">
      <g>
       <use style="fill:#262626;stroke:#262626;" x="239.1425" xlink:href="#m5baf646090" y="122.029151"/>
      </g>
     </g>
     <g id="text_22">
      <!-- developmental biology -->
      <g style="fill:#262626;" transform="translate(112.536875 126.323838)scale(0.12 -0.12)">
       <use xlink:href="#ArialMT-100"/>
       <use x="55.615234" xlink:href="#ArialMT-101"/>
       <use x="111.230469" xlink:href="#ArialMT-118"/>
       <use x="161.230469" xlink:href="#ArialMT-101"/>
       <use x="216.845703" xlink:href="#ArialMT-108"/>
       <use x="239.0625" xlink:href="#ArialMT-111"/>
       <use x="294.677734" xlink:href="#ArialMT-112"/>
       <use x="350.292969" xlink:href="#ArialMT-109"/>
       <use x="433.59375" xlink:href="#ArialMT-101"/>
       <use x="489.208984" xlink:href="#ArialMT-110"/>
       <use x="544.824219" xlink:href="#ArialMT-116"/>
       <use x="572.607422" xlink:href="#ArialMT-97"/>
       <use x="628.222656" xlink:href="#ArialMT-108"/>
       <use x="650.439453" xlink:href="#ArialMT-32"/>
       <use x="678.222656" xlink:href="#ArialMT-98"/>
       <use x="733.837891" xlink:href="#ArialMT-105"/>
       <use x="756.054688" xlink:href="#ArialMT-111"/>
       <use x="811.669922" xlink:href="#ArialMT-108"/>
       <use x="833.886719" xlink:href="#ArialMT-111"/>
       <use x="889.501953" xlink:href="#ArialMT-103"/>
       <use x="945.117188" xlink:href="#ArialMT-121"/>
      </g>
     </g>
    </g>
    <g id="ytick_18">
     <g id="line2d_26">
      <g>
       <use style="fill:#262626;stroke:#262626;" x="239.1425" xlink:href="#m5baf646090" y="112.915726"/>
      </g>
     </g>
     <g id="text_23">
      <!-- systems biology -->
      <g style="fill:#262626;" transform="translate(146.58125 117.210414)scale(0.12 -0.12)">
       <use xlink:href="#ArialMT-115"/>
       <use x="50" xlink:href="#ArialMT-121"/>
       <use x="100" xlink:href="#ArialMT-115"/>
       <use x="150" xlink:href="#ArialMT-116"/>
       <use x="177.783203" xlink:href="#ArialMT-101"/>
       <use x="233.398438" xlink:href="#ArialMT-109"/>
       <use x="316.699219" xlink:href="#ArialMT-115"/>
       <use x="366.699219" xlink:href="#ArialMT-32"/>
       <use x="394.482422" xlink:href="#ArialMT-98"/>
       <use x="450.097656" xlink:href="#ArialMT-105"/>
       <use x="472.314453" xlink:href="#ArialMT-111"/>
       <use x="527.929688" xlink:href="#ArialMT-108"/>
       <use x="550.146484" xlink:href="#ArialMT-111"/>
       <use x="605.761719" xlink:href="#ArialMT-103"/>
       <use x="661.376953" xlink:href="#ArialMT-121"/>
      </g>
     </g>
    </g>
    <g id="ytick_19">
     <g id="line2d_27">
      <g>
       <use style="fill:#262626;stroke:#262626;" x="239.1425" xlink:href="#m5baf646090" y="103.802301"/>
      </g>
     </g>
     <g id="text_24">
      <!-- molecular biology -->
      <g style="fill:#262626;" transform="translate(138.5675 108.096989)scale(0.12 -0.12)">
       <use xlink:href="#ArialMT-109"/>
       <use x="83.300781" xlink:href="#ArialMT-111"/>
       <use x="138.916016" xlink:href="#ArialMT-108"/>
       <use x="161.132812" xlink:href="#ArialMT-101"/>
       <use x="216.748047" xlink:href="#ArialMT-99"/>
       <use x="266.748047" xlink:href="#ArialMT-117"/>
       <use x="322.363281" xlink:href="#ArialMT-108"/>
       <use x="344.580078" xlink:href="#ArialMT-97"/>
       <use x="400.195312" xlink:href="#ArialMT-114"/>
       <use x="433.496094" xlink:href="#ArialMT-32"/>
       <use x="461.279297" xlink:href="#ArialMT-98"/>
       <use x="516.894531" xlink:href="#ArialMT-105"/>
       <use x="539.111328" xlink:href="#ArialMT-111"/>
       <use x="594.726562" xlink:href="#ArialMT-108"/>
       <use x="616.943359" xlink:href="#ArialMT-111"/>
       <use x="672.558594" xlink:href="#ArialMT-103"/>
       <use x="728.173828" xlink:href="#ArialMT-121"/>
      </g>
     </g>
    </g>
    <g id="ytick_20">
     <g id="line2d_28">
      <g>
       <use style="fill:#262626;stroke:#262626;" x="239.1425" xlink:href="#m5baf646090" y="94.688877"/>
      </g>
     </g>
     <g id="text_25">
      <!-- cancer biology -->
      <g style="fill:#262626;" transform="translate(154.56875 98.983564)scale(0.12 -0.12)">
       <use xlink:href="#ArialMT-99"/>
       <use x="50" xlink:href="#ArialMT-97"/>
       <use x="105.615234" xlink:href="#ArialMT-110"/>
       <use x="161.230469" xlink:href="#ArialMT-99"/>
       <use x="211.230469" xlink:href="#ArialMT-101"/>
       <use x="266.845703" xlink:href="#ArialMT-114"/>
       <use x="300.146484" xlink:href="#ArialMT-32"/>
       <use x="327.929688" xlink:href="#ArialMT-98"/>
       <use x="383.544922" xlink:href="#ArialMT-105"/>
       <use x="405.761719" xlink:href="#ArialMT-111"/>
       <use x="461.376953" xlink:href="#ArialMT-108"/>
       <use x="483.59375" xlink:href="#ArialMT-111"/>
       <use x="539.208984" xlink:href="#ArialMT-103"/>
       <use x="594.824219" xlink:href="#ArialMT-121"/>
      </g>
     </g>
    </g>
    <g id="ytick_21">
     <g id="line2d_29">
      <g>
       <use style="fill:#262626;stroke:#262626;" x="239.1425" xlink:href="#m5baf646090" y="85.575452"/>
      </g>
     </g>
     <g id="text_26">
      <!-- biophysics -->
      <g style="fill:#262626;" transform="translate(175.9175 89.87014)scale(0.12 -0.12)">
       <use xlink:href="#ArialMT-98"/>
       <use x="55.615234" xlink:href="#ArialMT-105"/>
       <use x="77.832031" xlink:href="#ArialMT-111"/>
       <use x="133.447266" xlink:href="#ArialMT-112"/>
       <use x="189.0625" xlink:href="#ArialMT-104"/>
       <use x="244.677734" xlink:href="#ArialMT-121"/>
       <use x="294.677734" xlink:href="#ArialMT-115"/>
       <use x="344.677734" xlink:href="#ArialMT-105"/>
       <use x="366.894531" xlink:href="#ArialMT-99"/>
       <use x="416.894531" xlink:href="#ArialMT-115"/>
      </g>
     </g>
    </g>
    <g id="ytick_22">
     <g id="line2d_30">
      <g>
       <use style="fill:#262626;stroke:#262626;" x="239.1425" xlink:href="#m5baf646090" y="76.462027"/>
      </g>
     </g>
     <g id="text_27">
      <!-- ecology -->
      <g style="fill:#262626;" transform="translate(190.58375 80.756715)scale(0.12 -0.12)">
       <use xlink:href="#ArialMT-101"/>
       <use x="55.615234" xlink:href="#ArialMT-99"/>
       <use x="105.615234" xlink:href="#ArialMT-111"/>
       <use x="161.230469" xlink:href="#ArialMT-108"/>
       <use x="183.447266" xlink:href="#ArialMT-111"/>
       <use x="239.0625" xlink:href="#ArialMT-103"/>
       <use x="294.677734" xlink:href="#ArialMT-121"/>
      </g>
     </g>
    </g>
    <g id="ytick_23">
     <g id="line2d_31">
      <g>
       <use style="fill:#262626;stroke:#262626;" x="239.1425" xlink:href="#m5baf646090" y="67.348603"/>
      </g>
     </g>
     <g id="text_28">
      <!-- cell biology -->
      <g style="fill:#262626;" transform="translate(172.578125 71.64329)scale(0.12 -0.12)">
       <use xlink:href="#ArialMT-99"/>
       <use x="50" xlink:href="#ArialMT-101"/>
       <use x="105.615234" xlink:href="#ArialMT-108"/>
       <use x="127.832031" xlink:href="#ArialMT-108"/>
       <use x="150.048828" xlink:href="#ArialMT-32"/>
       <use x="177.832031" xlink:href="#ArialMT-98"/>
       <use x="233.447266" xlink:href="#ArialMT-105"/>
       <use x="255.664062" xlink:href="#ArialMT-111"/>
       <use x="311.279297" xlink:href="#ArialMT-108"/>
       <use x="333.496094" xlink:href="#ArialMT-111"/>
       <use x="389.111328" xlink:href="#ArialMT-103"/>
       <use x="444.726562" xlink:href="#ArialMT-121"/>
      </g>
     </g>
    </g>
    <g id="ytick_24">
     <g id="line2d_32">
      <g>
       <use style="fill:#262626;stroke:#262626;" x="239.1425" xlink:href="#m5baf646090" y="58.235178"/>
      </g>
     </g>
     <g id="text_29">
      <!-- genetics -->
      <g style="fill:#262626;" transform="translate(187.25 62.529866)scale(0.12 -0.12)">
       <use xlink:href="#ArialMT-103"/>
       <use x="55.615234" xlink:href="#ArialMT-101"/>
       <use x="111.230469" xlink:href="#ArialMT-110"/>
       <use x="166.845703" xlink:href="#ArialMT-101"/>
       <use x="222.460938" xlink:href="#ArialMT-116"/>
       <use x="250.244141" xlink:href="#ArialMT-105"/>
       <use x="272.460938" xlink:href="#ArialMT-99"/>
       <use x="322.460938" xlink:href="#ArialMT-115"/>
      </g>
     </g>
    </g>
    <g id="ytick_25">
     <g id="line2d_33">
      <g>
       <use style="fill:#262626;stroke:#262626;" x="239.1425" xlink:href="#m5baf646090" y="49.121753"/>
      </g>
     </g>
     <g id="text_30">
      <!-- genomics -->
      <g style="fill:#262626;" transform="translate(180.588125 53.416441)scale(0.12 -0.12)">
       <use xlink:href="#ArialMT-103"/>
       <use x="55.615234" xlink:href="#ArialMT-101"/>
       <use x="111.230469" xlink:href="#ArialMT-110"/>
       <use x="166.845703" xlink:href="#ArialMT-111"/>
       <use x="222.460938" xlink:href="#ArialMT-109"/>
       <use x="305.761719" xlink:href="#ArialMT-105"/>
       <use x="327.978516" xlink:href="#ArialMT-99"/>
       <use x="377.978516" xlink:href="#ArialMT-115"/>
      </g>
     </g>
    </g>
    <g id="ytick_26">
     <g id="line2d_34">
      <g>
       <use style="fill:#262626;stroke:#262626;" x="239.1425" xlink:href="#m5baf646090" y="40.008329"/>
      </g>
     </g>
     <g id="text_31">
      <!-- evolutionary biology -->
      <g style="fill:#262626;" transform="translate(125.883125 44.303016)scale(0.12 -0.12)">
       <use xlink:href="#ArialMT-101"/>
       <use x="55.615234" xlink:href="#ArialMT-118"/>
       <use x="105.615234" xlink:href="#ArialMT-111"/>
       <use x="161.230469" xlink:href="#ArialMT-108"/>
       <use x="183.447266" xlink:href="#ArialMT-117"/>
       <use x="239.0625" xlink:href="#ArialMT-116"/>
       <use x="266.845703" xlink:href="#ArialMT-105"/>
       <use x="289.0625" xlink:href="#ArialMT-111"/>
       <use x="344.677734" xlink:href="#ArialMT-110"/>
       <use x="400.292969" xlink:href="#ArialMT-97"/>
       <use x="455.908203" xlink:href="#ArialMT-114"/>
       <use x="489.208984" xlink:href="#ArialMT-121"/>
       <use x="539.208984" xlink:href="#ArialMT-32"/>
       <use x="566.992188" xlink:href="#ArialMT-98"/>
       <use x="622.607422" xlink:href="#ArialMT-105"/>
       <use x="644.824219" xlink:href="#ArialMT-111"/>
       <use x="700.439453" xlink:href="#ArialMT-108"/>
       <use x="722.65625" xlink:href="#ArialMT-111"/>
       <use x="778.271484" xlink:href="#ArialMT-103"/>
       <use x="833.886719" xlink:href="#ArialMT-121"/>
      </g>
     </g>
    </g>
    <g id="ytick_27">
     <g id="line2d_35">
      <g>
       <use style="fill:#262626;stroke:#262626;" x="239.1425" xlink:href="#m5baf646090" y="30.894904"/>
      </g>
     </g>
     <g id="text_32">
      <!-- microbiology -->
      <g style="fill:#262626;" transform="translate(164.586875 35.189592)scale(0.12 -0.12)">
       <use xlink:href="#ArialMT-109"/>
       <use x="83.300781" xlink:href="#ArialMT-105"/>
       <use x="105.517578" xlink:href="#ArialMT-99"/>
       <use x="155.517578" xlink:href="#ArialMT-114"/>
       <use x="188.818359" xlink:href="#ArialMT-111"/>
       <use x="244.433594" xlink:href="#ArialMT-98"/>
       <use x="300.048828" xlink:href="#ArialMT-105"/>
       <use x="322.265625" xlink:href="#ArialMT-111"/>
       <use x="377.880859" xlink:href="#ArialMT-108"/>
       <use x="400.097656" xlink:href="#ArialMT-111"/>
       <use x="455.712891" xlink:href="#ArialMT-103"/>
       <use x="511.328125" xlink:href="#ArialMT-121"/>
      </g>
     </g>
    </g>
    <g id="ytick_28">
     <g id="line2d_36">
      <g>
       <use style="fill:#262626;stroke:#262626;" x="239.1425" xlink:href="#m5baf646090" y="21.781479"/>
      </g>
     </g>
     <g id="text_33">
      <!-- bioinformatics -->
      <g style="fill:#262626;" transform="translate(157.919375 26.076167)scale(0.12 -0.12)">
       <use xlink:href="#ArialMT-98"/>
       <use x="55.615234" xlink:href="#ArialMT-105"/>
       <use x="77.832031" xlink:href="#ArialMT-111"/>
       <use x="133.447266" xlink:href="#ArialMT-105"/>
       <use x="155.664062" xlink:href="#ArialMT-110"/>
       <use x="211.279297" xlink:href="#ArialMT-102"/>
       <use x="239.0625" xlink:href="#ArialMT-111"/>
       <use x="294.677734" xlink:href="#ArialMT-114"/>
       <use x="327.978516" xlink:href="#ArialMT-109"/>
       <use x="411.279297" xlink:href="#ArialMT-97"/>
       <use x="466.894531" xlink:href="#ArialMT-116"/>
       <use x="494.677734" xlink:href="#ArialMT-105"/>
       <use x="516.894531" xlink:href="#ArialMT-99"/>
       <use x="566.894531" xlink:href="#ArialMT-115"/>
      </g>
     </g>
    </g>
    <g id="ytick_29">
     <g id="line2d_37">
      <g>
       <use style="fill:#262626;stroke:#262626;" x="239.1425" xlink:href="#m5baf646090" y="12.668055"/>
      </g>
     </g>
     <g id="text_34">
      <!-- neuroscience -->
      <g style="fill:#262626;" transform="translate(160.56875 16.962742)scale(0.12 -0.12)">
       <use xlink:href="#ArialMT-110"/>
       <use x="55.615234" xlink:href="#ArialMT-101"/>
       <use x="111.230469" xlink:href="#ArialMT-117"/>
       <use x="166.845703" xlink:href="#ArialMT-114"/>
       <use x="200.146484" xlink:href="#ArialMT-111"/>
       <use x="255.761719" xlink:href="#ArialMT-115"/>
       <use x="305.761719" xlink:href="#ArialMT-99"/>
       <use x="355.761719" xlink:href="#ArialMT-105"/>
       <use x="377.978516" xlink:href="#ArialMT-101"/>
       <use x="433.59375" xlink:href="#ArialMT-110"/>
       <use x="489.208984" xlink:href="#ArialMT-99"/>
       <use x="539.208984" xlink:href="#ArialMT-101"/>
      </g>
     </g>
    </g>
    <g id="text_35">
     <!-- category -->
     <g style="fill:#262626;" transform="translate(15.64875 161.538937)rotate(-90)scale(0.12 -0.12)">
      <use xlink:href="#ArialMT-99"/>
      <use x="50" xlink:href="#ArialMT-97"/>
      <use x="105.615234" xlink:href="#ArialMT-116"/>
      <use x="133.398438" xlink:href="#ArialMT-101"/>
      <use x="189.013672" xlink:href="#ArialMT-103"/>
      <use x="244.628906" xlink:href="#ArialMT-111"/>
      <use x="300.244141" xlink:href="#ArialMT-114"/>
      <use x="333.544922" xlink:href="#ArialMT-121"/>
     </g>
    </g>
   </g>
   <g id="PolyCollection_1">
    <path clip-path="url(#p9111fde3db)" d="M 255.375227 271.944986
L 255.375227 263.742904
L 255.551766 263.742904
L 255.551766 271.944986
z
" style="fill:#253494;"/>
    <path clip-path="url(#p9111fde3db)" d="M 255.375227 262.831562
L 255.375227 254.629479
L 255.816574 254.629479
L 255.816574 262.831562
z
" style="fill:#253494;"/>
    <path clip-path="url(#p9111fde3db)" d="M 255.375227 253.718137
L 255.375227 245.516055
L 257.758499 245.516055
L 257.758499 253.718137
z
" style="fill:#253494;"/>
    <path clip-path="url(#p9111fde3db)" d="M 255.375227 244.604712
L 255.375227 236.40263
L 257.793807 236.40263
L 257.793807 244.604712
z
" style="fill:#253494;"/>
    <path clip-path="url(#p9111fde3db)" d="M 255.375227 235.491288
L 255.375227 227.289205
L 263.443043 227.289205
L 263.443043 235.491288
z
" style="fill:#253494;"/>
    <path clip-path="url(#p9111fde3db)" d="M 255.375227 226.377863
L 255.375227 218.175781
L 263.478351 218.175781
L 263.478351 226.377863
z
" style="fill:#253494;"/>
    <path clip-path="url(#p9111fde3db)" d="M 255.375227 217.264438
L 255.375227 209.062356
L 267.326893 209.062356
L 267.326893 217.264438
z
" style="fill:#253494;"/>
    <path clip-path="url(#p9111fde3db)" d="M 255.375227 208.151014
L 255.375227 199.948932
L 268.91574 199.948932
L 268.91574 208.151014
z
" style="fill:#253494;"/>
    <path clip-path="url(#p9111fde3db)" d="M 255.375227 199.037589
L 255.375227 190.835507
L 270.840011 190.835507
L 270.840011 199.037589
z
" style="fill:#253494;"/>
    <path clip-path="url(#p9111fde3db)" d="M 255.375227 189.924164
L 255.375227 181.722082
L 275.482978 181.722082
L 275.482978 189.924164
z
" style="fill:#253494;"/>
    <path clip-path="url(#p9111fde3db)" d="M 255.375227 180.81074
L 255.375227 172.608658
L 284.186332 172.608658
L 284.186332 180.81074
z
" style="fill:#253494;"/>
    <path clip-path="url(#p9111fde3db)" d="M 255.375227 171.697315
L 255.375227 163.495233
L 288.599798 163.495233
L 288.599798 171.697315
z
" style="fill:#253494;"/>
    <path clip-path="url(#p9111fde3db)" d="M 255.375227 162.58389
L 255.375227 154.381808
L 291.353801 154.381808
L 291.353801 162.58389
z
" style="fill:#253494;"/>
    <path clip-path="url(#p9111fde3db)" d="M 255.375227 153.470466
L 255.375227 145.268384
L 296.87946 145.268384
L 296.87946 153.470466
z
" style="fill:#253494;"/>
    <path clip-path="url(#p9111fde3db)" d="M 255.375227 144.357041
L 255.375227 136.154959
L 302.54635 136.154959
L 302.54635 144.357041
z
" style="fill:#253494;"/>
    <path clip-path="url(#p9111fde3db)" d="M 255.375227 135.243616
L 255.375227 127.041534
L 302.846466 127.041534
L 302.846466 135.243616
z
" style="fill:#253494;"/>
    <path clip-path="url(#p9111fde3db)" d="M 255.375227 126.130192
L 255.375227 117.92811
L 304.753083 117.92811
L 304.753083 126.130192
z
" style="fill:#253494;"/>
    <path clip-path="url(#p9111fde3db)" d="M 255.375227 117.016767
L 255.375227 108.814685
L 305.176776 108.814685
L 305.176776 117.016767
z
" style="fill:#253494;"/>
    <path clip-path="url(#p9111fde3db)" d="M 255.375227 107.903342
L 255.375227 99.70126
L 307.401162 99.70126
L 307.401162 107.903342
z
" style="fill:#253494;"/>
    <path clip-path="url(#p9111fde3db)" d="M 255.375227 98.789918
L 255.375227 90.587836
L 311.443897 90.587836
L 311.443897 98.789918
z
" style="fill:#253494;"/>
    <path clip-path="url(#p9111fde3db)" d="M 255.375227 89.676493
L 255.375227 81.474411
L 328.550491 81.474411
L 328.550491 89.676493
z
" style="fill:#253494;"/>
    <path clip-path="url(#p9111fde3db)" d="M 255.375227 80.563068
L 255.375227 72.360986
L 332.805072 72.360986
L 332.805072 80.563068
z
" style="fill:#253494;"/>
    <path clip-path="url(#p9111fde3db)" d="M 255.375227 71.449644
L 255.375227 63.247562
L 334.464535 63.247562
L 334.464535 71.449644
z
" style="fill:#253494;"/>
    <path clip-path="url(#p9111fde3db)" d="M 255.375227 62.336219
L 255.375227 54.134137
L 351.465205 54.134137
L 351.465205 62.336219
z
" style="fill:#253494;"/>
    <path clip-path="url(#p9111fde3db)" d="M 255.375227 53.222795
L 255.375227 45.020712
L 374.697689 45.020712
L 374.697689 53.222795
z
" style="fill:#253494;"/>
    <path clip-path="url(#p9111fde3db)" d="M 255.375227 44.10937
L 255.375227 35.907288
L 382.024042 35.907288
L 382.024042 44.10937
z
" style="fill:#253494;"/>
    <path clip-path="url(#p9111fde3db)" d="M 255.375227 34.995945
L 255.375227 26.793863
L 386.137392 26.793863
L 386.137392 34.995945
z
" style="fill:#253494;"/>
    <path clip-path="url(#p9111fde3db)" d="M 255.375227 25.882521
L 255.375227 17.680438
L 434.597247 17.680438
L 434.597247 25.882521
z
" style="fill:#253494;"/>
    <path clip-path="url(#p9111fde3db)" d="M 255.375227 16.769096
L 255.375227 8.567014
L 580.029773 8.567014
L 580.029773 16.769096
z
" style="fill:#253494;"/>
   </g>
   <g id="patch_3">
    <path d="M 239.1425 273.312
L 239.1425 7.2
" style="fill:none;stroke:#262626;stroke-linecap:square;stroke-linejoin:miter;"/>
   </g>
   <g id="patch_4">
    <path d="M 596.2625 273.312
L 596.2625 7.2
" style="fill:none;stroke:#262626;stroke-linecap:square;stroke-linejoin:miter;"/>
   </g>
   <g id="patch_5">
    <path d="M 239.1425 273.312
L 596.2625 273.312
" style="fill:none;stroke:#262626;stroke-linecap:square;stroke-linejoin:miter;"/>
   </g>
   <g id="patch_6">
    <path d="M 239.1425 7.2
L 596.2625 7.2
" style="fill:none;stroke:#262626;stroke-linecap:square;stroke-linejoin:miter;"/>
   </g>
  </g>
 </g>
 <defs>
  <clipPath id="p9111fde3db">
   <rect height="266.112" width="357.12" x="239.1425" y="7.2"/>
  </clipPath>
 </defs>
</svg>
